<?xml version="1.0" encoding="UTF-8"?>
<!DOCTYPE svg PUBLIC "-//W3C//DTD SVG 1.1//EN" "http://www.w3.org/Graphics/SVG/1.1/DTD/svg11.dtd">
<!-- Creator: CorelDRAW X6 -->
<svg xmlns="http://www.w3.org/2000/svg" xml:space="preserve" width="1.7788mm" height="1.2153mm" version="1.1" style="shape-rendering:geometricPrecision; text-rendering:geometricPrecision; image-rendering:optimizeQuality; fill-rule:evenodd; clip-rule:evenodd"
viewBox="0 0 402 275"
 xmlns:xlink="http://www.w3.org/1999/xlink">
 <defs>
  <style type="text/css">
   <![CDATA[
    .fil0 {fill:#FEFEFE}
   ]]>
  </style>
 </defs>
 <g id="Layer_x0020_1">
  <metadata id="CorelCorpID_0Corel-Layer"/>
  <g id="_1150308160">
   <path class="fil0" d="M20 2l75 72c18,16 37,35 54,51 17,15 30,33 52,34 22,0 35,-19 51,-33 4,-3 7,-6 11,-10l117 -110c0,-1 1,-1 1,-1l2 -3c-7,-3 -34,-2 -44,-2l-230 0c-13,0 -83,-1 -89,2z"/>
   <path class="fil0" d="M18 272c13,4 30,2 44,2 93,0 185,0 278,0 9,0 38,2 44,-2 -5,-5 -12,-9 -17,-13 -6,-5 -12,-9 -18,-13l-70 -53c-10,-6 -29,-22 -36,-26 -8,4 -17,15 -42,15 -8,0 -17,-2 -24,-5 -11,-5 -13,-8 -18,-10l-124 92c-4,4 -14,10 -17,13z"/>
   <path class="fil0" d="M0 24l0 226 1 3c1,2 2,5 4,7l17 -13c27,-19 53,-40 80,-59 7,-6 41,-31 44,-33 -1,-3 -39,-38 -44,-43l-54 -51c-3,-2 -6,-5 -9,-8l-36 -34c-2,2 -2,3 -3,5z"/>
   <path class="fil0" d="M402 250l0 -226c0,0 0,0 0,0l-2 -5 -90 85c-7,6 -52,47 -54,51 3,1 15,10 18,13l124 92c2,-2 3,-7 4,-10z"/>
  </g>
 </g>
</svg>
