<?xml version="1.0" encoding="UTF-8"?>
<!DOCTYPE svg PUBLIC "-//W3C//DTD SVG 1.1//EN" "http://www.w3.org/Graphics/SVG/1.1/DTD/svg11.dtd">
<!-- Creator: CorelDRAW X6 -->
<svg xmlns="http://www.w3.org/2000/svg" xml:space="preserve" width="3.4912mm" height="2.4546mm" version="1.1" style="shape-rendering:geometricPrecision; text-rendering:geometricPrecision; image-rendering:optimizeQuality; fill-rule:evenodd; clip-rule:evenodd"
viewBox="0 0 2456 1727"
 xmlns:xlink="http://www.w3.org/1999/xlink">
 <defs>
  <style type="text/css">
   <![CDATA[
    .fil0 {fill:#FEFEFE}
   ]]>
  </style>
 </defs>
 <g id="Layer_x0020_1">
  <metadata id="CorelCorpID_0Corel-Layer"/>
  <path class="fil0" d="M406 2c-160,12 -272,99 -332,191 -91,141 -72,262 -72,450 0,174 0,347 0,521 0,82 -6,170 16,246 19,68 55,129 92,169 38,43 85,81 150,110 76,33 134,36 224,36l1307 0c82,0 179,4 259,-1 159,-11 271,-100 331,-190 92,-139 73,-266 73,-451 0,-173 0,-347 0,-521 0,-84 6,-167 -16,-246 -19,-70 -53,-127 -92,-169 -37,-42 -82,-81 -149,-110 -78,-34 -133,-36 -226,-36l-1437 0c-41,0 -88,-2 -128,1zm571 1136l1 44c18,1 94,-46 117,-57 8,-3 12,-5 19,-10 7,-4 15,-6 21,-10l76 -41c7,-3 11,-6 18,-10l174 -93c24,-12 72,-41 93,-51 9,-4 14,-6 21,-10 8,-4 9,-7 18,-11l39 -20c8,-4 13,-5 17,-14 -9,-11 -154,-82 -186,-100l-63 -34c-11,-6 -22,-9 -33,-15 -11,-6 -21,-13 -30,-17 -19,-10 -46,-22 -64,-32l-61 -33c-37,-18 -87,-47 -127,-66l-31 -17c-18,-10 -18,2 -18,19l-1 578z"/>
 </g>
</svg>
