<?xml version="1.0" encoding="UTF-8"?>
<!DOCTYPE svg PUBLIC "-//W3C//DTD SVG 1.1//EN" "http://www.w3.org/Graphics/SVG/1.1/DTD/svg11.dtd">
<!-- Creator: CorelDRAW X6 -->
<svg xmlns="http://www.w3.org/2000/svg" xml:space="preserve" width="1.6813mm" height="1.6964mm" version="1.1" style="shape-rendering:geometricPrecision; text-rendering:geometricPrecision; image-rendering:optimizeQuality; fill-rule:evenodd; clip-rule:evenodd"
viewBox="0 0 674 681"
 xmlns:xlink="http://www.w3.org/1999/xlink">
 <defs>
  <style type="text/css">
   <![CDATA[
    .fil0 {fill:#FEFEFE}
   ]]>
  </style>
 </defs>
 <g id="Layer_x0020_1">
  <metadata id="CorelCorpID_0Corel-Layer"/>
  <path class="fil0" d="M72 679c-25,-5 -41,-17 -53,-31 -14,-17 -18,-38 -18,-67 0,-46 -2,-484 1,-507 3,-25 16,-42 29,-53 18,-16 36,-20 65,-20 45,0 486,-3 507,1 51,8 71,49 71,97 0,46 2,485 -1,507 -3,26 -16,42 -30,54 -18,15 -35,20 -65,20 -44,0 -484,2 -506,-1zm64 -275l-56 0c0,-49 0,-98 0,-147 0,-47 -2,-99 0,-146 1,-22 16,-34 38,-34l440 0c24,0 39,11 40,35 0,10 1,279 -1,291l-59 1c3,-32 17,-48 5,-107 -7,-33 -22,-63 -39,-85 -113,-145 -335,-85 -372,81 -10,47 -3,67 4,111zm181 73c-70,-12 -129,-75 -116,-158 10,-68 76,-128 157,-115 68,10 129,75 116,158 -11,67 -76,128 -157,115zm179 125c-16,-7 -20,-19 -20,-41 0,-40 -10,-82 41,-82 44,0 81,-9 81,43 -1,41 9,81 -42,81 -13,1 -50,3 -60,-1z"/>
 </g>
</svg>
