<?xml version="1.0" encoding="UTF-8"?>
<!DOCTYPE svg PUBLIC "-//W3C//DTD SVG 1.1//EN" "http://www.w3.org/Graphics/SVG/1.1/DTD/svg11.dtd">
<!-- Creator: CorelDRAW X6 -->
<svg xmlns="http://www.w3.org/2000/svg" xml:space="preserve" width="2.3464mm" height="1.3435mm" version="1.1" style="shape-rendering:geometricPrecision; text-rendering:geometricPrecision; image-rendering:optimizeQuality; fill-rule:evenodd; clip-rule:evenodd"
viewBox="0 0 1799 1030"
 xmlns:xlink="http://www.w3.org/1999/xlink">
 <defs>
  <style type="text/css">
   <![CDATA[
    .fil0 {fill:#FEFEFE}
   ]]>
  </style>
 </defs>
 <g id="Layer_x0020_1">
  <metadata id="CorelCorpID_0Corel-Layer"/>
  <path class="fil0" d="M1317 967c32,9 59,46 112,59 35,8 132,2 174,1 104,-1 259,7 169,-128 -80,-118 -223,-231 -253,-274 -30,-43 3,-106 28,-122 35,-70 277,-330 249,-426 -27,-38 -73,-28 -123,-27 -415,6 -207,-58 -436,308 -30,47 -89,149 -154,144 -83,-99 18,-408 -56,-469 -42,-35 -386,-65 -429,39 21,15 48,12 71,33 52,47 43,218 38,283 -4,55 -14,147 -81,110 -11,-6 -20,-15 -28,-24 -19,-17 -13,-12 -26,-31 -55,-76 -80,-115 -126,-204 -101,-199 -45,-191 -244,-190 -64,0 -162,-12 -200,25 -27,53 254,533 350,652 56,70 97,118 166,171 64,49 134,85 225,110 61,16 254,38 292,0 26,-26 17,-97 28,-138 42,-167 162,-19 215,48 14,18 31,29 39,50z"/>
 </g>
</svg>
