<?xml version="1.0" encoding="UTF-8"?>
<!DOCTYPE svg PUBLIC "-//W3C//DTD SVG 1.1//EN" "http://www.w3.org/Graphics/SVG/1.1/DTD/svg11.dtd">
<!-- Creator: CorelDRAW X6 -->
<svg xmlns="http://www.w3.org/2000/svg" xml:space="preserve" width="3.4086mm" height="2.7754mm" version="1.1" style="shape-rendering:geometricPrecision; text-rendering:geometricPrecision; image-rendering:optimizeQuality; fill-rule:evenodd; clip-rule:evenodd"
viewBox="0 0 1316 1071"
 xmlns:xlink="http://www.w3.org/1999/xlink">
 <defs>
  <style type="text/css">
   <![CDATA[
    .fil0 {fill:#FEFEFE}
   ]]>
  </style>
 </defs>
 <g id="Layer_x0020_1">
  <metadata id="CorelCorpID_0Corel-Layer"/>
  <path class="fil0" d="M387 1071l53 0c2,-1 40,-2 46,-3 43,-4 83,-10 125,-20 71,-18 145,-48 205,-86 34,-20 81,-54 110,-82l19 -18c21,-20 29,-31 47,-50 3,-3 4,-4 6,-7 20,-23 44,-57 61,-83 51,-81 91,-180 110,-277 11,-61 14,-96 14,-156 0,-27 -5,-19 9,-30 22,-16 55,-45 72,-65l51 -65c0,0 1,0 1,0 -2,-2 0,-1 -2,0 -1,0 -2,0 -2,0l-31 12c-24,9 -94,29 -118,28 3,-3 7,-4 10,-7 3,-2 6,-4 10,-7 18,-13 37,-31 51,-49 18,-23 36,-51 46,-86l-20 12c-20,10 -44,21 -65,29 -24,9 -49,16 -74,22 -15,3 -11,3 -20,-5 -39,-39 -90,-65 -147,-75 -6,-1 -24,-1 -28,-3l-30 0c-5,3 -58,1 -115,34 -31,18 -58,39 -81,68 -45,56 -72,139 -52,230 -11,1 -37,-2 -49,-4 -70,-8 -144,-26 -208,-54 -32,-13 -42,-19 -71,-34 -34,-17 -103,-64 -133,-91l-34 -31c-13,-13 -51,-53 -63,-68 -5,7 -16,33 -20,44 -6,16 -10,33 -13,51 -6,40 -3,79 7,116 19,65 57,111 109,149 -14,2 -52,-6 -66,-10 -25,-8 -53,-22 -55,-23 0,52 13,101 39,143 23,37 53,69 91,91 35,21 48,23 86,34 -11,5 -45,9 -59,9 -23,1 -40,-1 -62,-4 5,23 25,58 37,74 7,11 16,21 24,29 9,10 18,18 29,27 48,36 97,56 162,58 -3,2 -7,5 -10,7 -41,33 -110,67 -159,83 -64,20 -133,29 -201,25 -9,-1 -20,-3 -29,-3 4,4 32,20 40,24 7,4 13,8 20,11 81,43 177,71 268,82 8,1 57,4 59,4z"/>
 </g>
</svg>
