<svg width="24" height="24" viewBox="0 0 24 24" fill="none" xmlns="http://www.w3.org/2000/svg">
<circle cx="12" cy="12" r="11.5" stroke="#02569C"/>
<path d="M8.29688 12.6602V16H7.17188V7.46875H10.3184C11.252 7.46875 11.9824 7.70703 12.5098 8.18359C13.041 8.66016 13.3066 9.29102 13.3066 10.0762C13.3066 10.9043 13.0469 11.543 12.5273 11.9922C12.0117 12.4375 11.2715 12.6602 10.3066 12.6602H8.29688ZM8.29688 11.7402H10.3184C10.9199 11.7402 11.3809 11.5996 11.7012 11.3184C12.0215 11.0332 12.1816 10.623 12.1816 10.0879C12.1816 9.58008 12.0215 9.17383 11.7012 8.86914C11.3809 8.56445 10.9414 8.40625 10.3828 8.39453H8.29688V11.7402ZM17.6367 10.6328C17.4727 10.6055 17.2949 10.5918 17.1035 10.5918C16.3926 10.5918 15.9102 10.8945 15.6562 11.5V16H14.5723V9.66016H15.627L15.6445 10.3926C16 9.82617 16.5039 9.54297 17.1562 9.54297C17.3672 9.54297 17.5273 9.57031 17.6367 9.625V10.6328Z" fill="#02569C"/>
</svg>
