<svg width="29" height="21" viewBox="0 0 29 21" fill="none" xmlns="http://www.w3.org/2000/svg">
<path d="M3.04261 8.75138C2.44702 8.17556 1.49741 8.19159 0.921594 8.78717C0.345775 9.38276 0.361801 10.3324 0.957388 10.9082L3.04261 8.75138ZM10.4507 18L9.40809 19.0784L10.4507 20.0864L11.4933 19.0784L10.4507 18ZM28.0426 3.07841C28.6382 2.50259 28.6542 1.55298 28.0784 0.957388C27.5026 0.361801 26.553 0.345775 25.9574 0.921594L28.0426 3.07841ZM0.957388 10.9082L9.40809 19.0784L11.4933 16.9216L3.04261 8.75138L0.957388 10.9082ZM11.4933 19.0784L28.0426 3.07841L25.9574 0.921594L9.40809 16.9216L11.4933 19.0784Z" fill="#02569C"/>
</svg>
