<svg width="80" height="80" viewBox="0 0 80 80" fill="none" xmlns="http://www.w3.org/2000/svg">
<g filter="url(#filter0_d)">
<path d="M43.75 68H16.25C12.805 68 10 65.1975 10 61.75V14.25C10 10.8025 12.805 8 16.25 8H43.75C47.195 8 50 10.8025 50 14.25V19.25C50 19.94 49.44 20.5 48.75 20.5C48.06 20.5 47.5 19.94 47.5 19.25V14.25C47.5 12.1825 45.8175 10.5 43.75 10.5H16.25C14.1825 10.5 12.5 12.1825 12.5 14.25V61.75C12.5 63.8175 14.1825 65.5 16.25 65.5H43.75C45.8175 65.5 47.5 63.8175 47.5 61.75V51.75C47.5 51.06 48.06 50.5 48.75 50.5C49.44 50.5 50 51.06 50 51.75V61.75C50 65.1975 47.195 68 43.75 68Z" fill="#1763F8"/>
<path d="M35 15.5H25C22.9325 15.5 21.25 13.8175 21.25 11.75C21.25 11.0625 20.69 10.5 20 10.5H17.5C16.81 10.5 16.25 9.94 16.25 9.25C16.25 8.56 16.81 8 17.5 8H20C22.0675 8 23.75 9.6825 23.75 11.75C23.75 12.4375 24.31 13 25 13H35C35.69 13 36.25 12.4375 36.25 11.75C36.25 9.6825 37.9325 8 40 8H42.5C43.19 8 43.75 8.56 43.75 9.25C43.75 9.94 43.19 10.5 42.5 10.5H40C39.31 10.5 38.75 11.0625 38.75 11.75C38.75 13.8175 37.0675 15.5 35 15.5Z" fill="#1763F8"/>
<path d="M30 54.875C27.2425 54.875 25 52.6325 25 49.875C25 47.1175 27.2425 44.875 30 44.875C32.7575 44.875 35 47.1175 35 49.875C35 52.6325 32.7575 54.875 30 54.875ZM30 47.375C28.6225 47.375 27.5 48.495 27.5 49.875C27.5 51.255 28.6225 52.375 30 52.375C31.3775 52.375 32.5 51.255 32.5 49.875C32.5 48.495 31.3775 47.375 30 47.375Z" fill="#1763F8"/>
<path d="M38.75 67.375C38.06 67.375 37.5 66.815 37.5 66.125V63.625C37.5 61.5575 35.8175 59.875 33.75 59.875H26.25C24.1825 59.875 22.5 61.5575 22.5 63.625V66.125C22.5 66.815 21.94 67.375 21.25 67.375C20.56 67.375 20 66.815 20 66.125V63.625C20 60.1775 22.805 57.375 26.25 57.375H33.75C37.195 57.375 40 60.1775 40 63.625V66.125C40 66.815 39.44 67.375 38.75 67.375Z" fill="#1763F8"/>
<path d="M68.75 45.5C68.4625 45.5 68.1775 45.4025 67.95 45.21L62.5 40.6675V41.75C62.5 43.8175 60.8175 45.5 58.75 45.5H43.75C41.6825 45.5 40 43.8175 40 41.75V29.25C40 27.1825 41.6825 25.5 43.75 25.5H58.75C60.8175 25.5 62.5 27.1825 62.5 29.25V30.3325L67.95 25.7925C68.3225 25.48 68.845 25.42 69.28 25.62C69.72 25.825 70 26.265 70 26.75V44.25C70 44.735 69.72 45.175 69.28 45.3825C69.1125 45.46 68.93 45.5 68.75 45.5ZM43.75 28C43.06 28 42.5 28.5625 42.5 29.25V41.75C42.5 42.4375 43.06 43 43.75 43H58.75C59.44 43 60 42.4375 60 41.75V38C60 37.515 60.28 37.075 60.72 36.8675C61.1575 36.665 61.6775 36.725 62.05 37.04L67.5 41.5825V29.4175L62.05 33.9575C61.6775 34.2725 61.155 34.3325 60.72 34.13C60.28 33.925 60 33.485 60 33V29.25C60 28.5625 59.44 28 58.75 28H43.75Z" fill="#1763F8"/>
</g>
<defs>
<filter id="filter0_d" x="0" y="0" width="80" height="80" filterUnits="userSpaceOnUse" color-interpolation-filters="sRGB">
<feFlood flood-opacity="0" result="BackgroundImageFix"/>
<feColorMatrix in="SourceAlpha" type="matrix" values="0 0 0 0 0 0 0 0 0 0 0 0 0 0 0 0 0 0 127 0"/>
<feOffset dy="2"/>
<feGaussianBlur stdDeviation="5"/>
<feColorMatrix type="matrix" values="0 0 0 0 0 0 0 0 0 0.596078 0 0 0 0 0.498039 0 0 0 0.2 0"/>
<feBlend mode="normal" in2="BackgroundImageFix" result="effect1_dropShadow"/>
<feBlend mode="normal" in="SourceGraphic" in2="effect1_dropShadow" result="shape"/>
</filter>
</defs>
</svg>
