<svg width="80" height="80" viewBox="0 0 80 80" fill="none" xmlns="http://www.w3.org/2000/svg">
<g filter="url(#filter0_d)">
<path d="M38.2689 52.4599C37.8176 52.1274 37.1825 52.2244 36.8509 52.6778L36.7256 52.849C36.3943 53.302 36.4908 53.9387 36.9415 54.2721C37.1225 54.4061 37.3335 54.4708 37.5424 54.4708C37.8533 54.4708 38.1602 54.3277 38.359 54.0573L38.4861 53.8838C38.8177 53.4304 38.7204 52.7929 38.2689 52.4599Z" fill="#1763F8"/>
<path d="M38.5336 62.1499L35.9246 57.3866L38.3605 54.0554C38.6923 53.6021 38.5949 52.9646 38.1432 52.6316C37.6917 52.2984 37.0571 52.3954 36.7256 52.849L33.906 56.7051C33.6722 57.0247 33.6445 57.4514 33.8347 57.7988L36.756 63.1316C36.9408 63.4687 37.2878 63.6593 37.6458 63.6593C37.8111 63.6592 37.9787 63.6186 38.1338 63.5331C38.6245 63.2621 38.8036 62.6428 38.5336 62.1499Z" fill="#1763F8"/>
<path d="M46.0943 56.7053L43.2865 52.8656C43.0536 52.5473 42.6591 52.3926 42.2731 52.4693C41.8872 52.5454 41.58 52.8389 41.4846 53.2219C41.4114 53.516 41.4724 53.8274 41.6511 54.0718L44.0751 57.3867L41.4839 62.1177C41.4016 62.2679 41.3584 62.4374 41.3584 62.609C41.3584 63.0739 41.672 63.4799 42.1205 63.5955C42.2045 63.6173 42.2892 63.6278 42.3729 63.6278C42.7361 63.6278 43.0802 63.431 43.2618 63.1L46.1655 57.7992C46.3559 57.4515 46.328 57.0248 46.0943 56.7053Z" fill="#1763F8"/>
<path d="M47.7018 40.6984C47.3681 40.5225 46.9648 40.5465 46.6544 40.7613C46.051 41.1787 45.491 41.6209 44.9902 42.0754C42.2602 44.5535 39.6665 44.2181 39.5648 44.2035C39.5037 44.1939 39.4415 44.1894 39.3799 44.1914C38.301 44.2192 36.3557 43.2292 34.2977 41.6064C33.983 41.3582 33.6602 41.1217 33.338 40.9033C33.0272 40.6925 32.6256 40.6712 32.2944 40.848C31.9631 41.0248 31.756 41.3707 31.756 41.7475V45.2417C31.756 45.5507 31.8961 45.8427 32.1361 46.0362C32.1644 46.0591 32.194 46.0803 32.2244 46.0998L39.4175 50.926C39.4187 50.9267 39.4198 50.9276 39.4209 50.9285L39.4399 50.9412C39.6093 51.0537 39.8044 51.1105 40.0002 51.1105C40.165 51.1105 40.3297 51.0704 40.4803 50.9895C40.5121 50.9725 40.5425 50.9538 40.5718 50.9338C40.5752 50.9315 40.5786 50.9293 40.5822 50.9269C40.5861 50.9243 40.5901 50.9216 40.5941 50.9189L47.7702 46.1042C47.799 46.0858 47.8272 46.066 47.8542 46.0449C48.1005 45.8519 48.2444 45.5557 48.2444 45.242V41.6002C48.2444 41.2215 48.0355 40.8745 47.7018 40.6984ZM46.2154 44.6969L40.0001 48.867L33.7849 44.6968V43.7704C35.2983 44.8747 37.5245 46.2291 39.3391 46.229C39.3429 46.229 39.3471 46.229 39.351 46.229C39.9602 46.2967 43.0672 46.4806 46.2156 43.7074L46.2154 44.6969Z" fill="#1763F8"/>
<path d="M41.0008 49.9247C40.9338 49.5207 40.6323 49.1963 40.2355 49.1012C39.8385 49.0067 39.4239 49.1591 39.1825 49.4893L36.8509 52.6778C36.5193 53.1313 36.6164 53.7691 37.0682 54.102C37.249 54.2355 37.4592 54.2997 37.6677 54.2997C37.9797 54.2997 38.2872 54.1557 38.4861 53.8838L40.8059 50.7116C40.9378 50.5384 41.0147 50.3228 41.0147 50.0924C41.0146 50.0364 41.0099 49.98 41.0008 49.9247Z" fill="#1763F8"/>
<path d="M55.4549 17.0876C55.4348 16.928 54.9596 13.4844 51.7313 12.1259C51.825 11.5211 51.8152 10.7438 51.4328 9.98761C50.9188 8.97121 49.9046 8.30887 48.418 8.01871C48.3543 8.00624 48.2896 8 48.2246 8H34.6089C29.0802 8 24.5822 12.5162 24.5822 18.0677V23.4322C24.5822 24.8298 25.0567 26.1928 25.918 27.2696C26.345 27.8036 26.871 28.7361 26.9503 30.146C26.9812 30.6964 27.4401 31.1218 27.9917 31.1065C28.5406 31.091 28.9775 30.6396 28.9775 30.0883V23.0943C29.6664 20.2339 32.0173 19.6773 32.4214 19.6021H36.8256C37.3437 19.6021 37.8531 19.5227 38.34 19.3659C39.1774 19.0962 40.506 18.5999 41.4733 18.231C42.1204 17.9841 42.8368 17.975 43.4904 18.2056L48.2053 19.8675C50.5625 20.7406 50.9832 22.8184 51.0353 23.1448V31.5387C51.0353 32.0718 51.4446 32.5141 51.9741 32.5538C51.9999 32.5557 52.0252 32.5567 52.0505 32.5567C52.5481 32.5566 52.9777 32.1905 53.053 31.6889C53.057 31.6627 53.462 29.0356 54.7682 26.9322C55.2227 26.2 55.463 25.3651 55.463 24.5179V17.2162C55.463 17.1732 55.4603 17.1303 55.4549 17.0876ZM53.434 24.5174C53.434 24.9725 53.3062 25.4238 53.0641 25.8252V23.0751C53.0641 23.0383 53.0621 23.0017 53.0581 22.9651C53.0421 22.8172 52.623 19.3265 48.8982 17.9526C48.8936 17.951 48.889 17.9493 48.8844 17.9477L44.1624 16.2832C43.63 16.0955 43.073 16.0019 42.5163 16.0019C41.9177 16.0019 41.3195 16.1102 40.7527 16.3267C39.3984 16.8433 38.3497 17.2235 37.7203 17.4261C37.434 17.5182 37.133 17.565 36.8255 17.565H32.3394C32.2959 17.565 32.2523 17.5679 32.2091 17.5734C32.0374 17.5958 27.9913 18.1735 26.973 22.756C26.9569 22.8288 26.9487 22.9032 26.9487 22.9778V25.0741C26.7278 24.5616 26.6108 24.0017 26.6108 23.4323V18.068C26.6108 13.64 30.1987 10.0374 34.6086 10.0374H48.1221C48.6816 10.157 49.3615 10.4026 49.6194 10.9022C49.9353 11.5137 49.5755 12.3558 49.5751 12.3565C49.4454 12.6336 49.4469 12.9544 49.5788 13.2304C49.7107 13.5063 49.9594 13.708 50.2559 13.7796C52.8385 14.4038 53.3652 16.8909 53.4339 17.2932L53.434 24.5174Z" fill="#1763F8"/>
<path d="M53.0581 22.9651C53.0421 22.8172 52.623 19.3265 48.8982 17.9526C48.8936 17.951 48.889 17.9493 48.8844 17.9477L44.1624 16.2832C43.0573 15.8937 41.8466 15.9095 40.7527 16.3267C39.3984 16.8433 38.3497 17.2235 37.7203 17.4261C37.434 17.5182 37.133 17.565 36.8255 17.565H32.3394C32.2959 17.565 32.2523 17.5679 32.2091 17.5734C32.0374 17.5958 27.9913 18.1735 26.973 22.756C26.9569 22.8288 26.9487 22.9032 26.9487 22.9778V31.7338C26.9487 31.7413 26.9488 31.7488 26.9489 31.7564C26.9556 32.0605 27.1699 39.2437 32.1129 42.5288L32.1384 42.5469C32.1596 42.562 32.1808 42.577 32.203 42.592C32.4848 42.7831 32.7678 42.9905 33.0446 43.2086C34.4846 44.344 37.1984 46.229 39.3391 46.229C39.3429 46.229 39.3471 46.229 39.351 46.229C39.4672 46.2418 39.6748 46.2591 39.9563 46.2591C41.1695 46.2591 43.7579 45.9399 46.3506 43.5866C46.7857 43.1918 47.275 42.8056 47.8054 42.4388L47.8812 42.3855C47.9059 42.3679 47.9306 42.3503 47.9562 42.3331C49.605 41.2212 52.4607 38.352 53.0602 31.6293C53.0629 31.5992 53.0643 31.5687 53.0643 31.5383L53.0641 23.0751C53.0641 23.0383 53.0621 23.0017 53.0581 22.9651ZM51.0352 31.4923C50.4824 37.5594 47.9079 39.9114 46.8249 40.6418C46.7864 40.6678 46.7485 40.6946 46.7105 40.7214L46.6544 40.7613C46.051 41.1787 45.491 41.6209 44.9902 42.0754C42.2704 44.5443 39.685 44.2203 39.5582 44.2025C39.4992 44.1936 39.4396 44.1897 39.3799 44.1914C38.301 44.2192 36.3557 43.2292 34.2977 41.6064C33.983 41.3582 33.6602 41.1217 33.338 40.9033L33.3134 40.886C33.289 40.8686 33.2647 40.8513 33.2361 40.8323C29.2473 38.1814 28.9863 31.9779 28.9775 31.7191V23.0943C29.6688 20.2235 32.0342 19.673 32.4198 19.602L36.8256 19.6021C37.3437 19.6021 37.8531 19.5227 38.34 19.3659C39.1774 19.0962 40.506 18.5999 41.4733 18.231C42.1204 17.9841 42.8368 17.975 43.4904 18.2056L48.2053 19.8675C50.5625 20.7406 50.9832 22.8184 51.0353 23.1448L51.0352 31.4923Z" fill="#1763F8"/>
<path d="M40.9074 49.637C40.7493 49.3195 40.438 49.1076 40.0859 49.0775C39.7343 49.0483 39.3916 49.2031 39.1825 49.4893L36.7522 52.8128C36.4209 53.266 36.5177 53.903 36.9688 54.2362C37.1497 54.3698 37.3603 54.4344 37.569 54.4344C37.8803 54.4344 38.1875 54.291 38.3864 54.02L40.8165 50.7091C40.9451 50.534 41.0147 50.3099 41.0147 50.0924C41.0148 49.9344 40.9777 49.7785 40.9074 49.637Z" fill="#1763F8"/>
<path d="M40.9724 66.037C40.5913 65.6368 39.9616 65.6155 39.5548 65.9893L39.3229 66.2023C38.9756 66.5211 38.8923 67.0378 39.1218 67.4504L39.1289 67.4632C39.2838 67.742 39.5602 67.9316 39.875 67.9755C39.9217 67.982 39.9683 67.9852 40.0147 67.9852C40.2818 67.9852 40.5404 67.8792 40.732 67.6868L40.9567 67.461C41.3466 67.0695 41.3536 66.4369 40.9724 66.037Z" fill="#1763F8"/>
<path d="M40.6773 66.2023L40.4454 65.9893C40.0385 65.6156 39.4088 65.6369 39.0277 66.037C38.6464 66.4373 38.6535 67.07 39.0435 67.4613L39.2685 67.6871C39.4601 67.8795 39.7186 67.9854 39.9857 67.9854C40.0334 67.9854 40.0813 67.9821 40.1292 67.9752C40.4452 67.9299 40.7215 67.7377 40.8751 67.4567L40.8823 67.4439C41.107 67.0321 41.0224 66.5192 40.6773 66.2023Z" fill="#1763F8"/>
<path d="M40.6944 66.2182L40.6931 66.217C40.5365 66.0699 40.3338 65.973 40.1106 65.9484C39.8116 65.9157 39.5204 66.0173 39.3087 66.2154L39.3056 66.2182C39.1006 66.406 38.9811 66.6701 38.9752 66.9488C38.9692 67.2276 39.0772 67.4965 39.274 67.693L39.2847 67.7037C39.4826 67.9013 39.7412 68 40 68C40.2597 68 40.5192 67.9005 40.7172 67.7018L40.7278 67.6911C40.9238 67.4943 41.0311 67.2256 41.0247 66.9475C41.0186 66.6692 40.8991 66.4057 40.6944 66.2182Z" fill="#1763F8"/>
<path d="M40.3291 49.1064C39.909 48.9713 39.448 49.1279 39.1922 49.4892C38.906 49.8937 38.9532 50.445 39.3019 50.7967C39.4981 50.9946 39.7584 51.096 40.0208 51.096C40.2246 51.096 40.4295 51.0348 40.6062 50.9099C40.8762 50.7191 41.0368 50.4085 41.0368 50.0769V50.0744C41.0368 49.6312 40.7497 49.2411 40.3291 49.1064Z" fill="#1763F8"/>
<path d="M40.8244 49.4808L40.8157 49.4691C40.5554 49.1154 40.0984 48.9697 39.6825 49.1072C39.2666 49.2448 38.9856 49.635 38.9856 50.0746V50.092C38.9856 50.467 39.1952 50.8088 39.5243 50.9862C39.6734 51.0666 39.8379 51.1063 40.0022 51.1063C40.2004 51.1063 40.3983 51.0486 40.5684 50.9354C40.8004 50.7813 40.9592 50.5382 41.0075 50.2632C41.0559 49.9883 40.9897 49.7053 40.8244 49.4808Z" fill="#1763F8"/>
<path d="M52.068 46.281C51.9628 46.002 51.7412 45.7834 51.4616 45.6829L47.5721 44.2829C47.5405 44.2716 47.5078 44.2615 47.4753 44.2535C47.1976 44.1837 46.9035 44.2349 46.6656 44.3947L39.4588 49.2301C39.4569 49.2314 39.4548 49.2327 39.4528 49.2341L40.0187 50.0789L39.4402 49.2427C39.2288 49.383 39.0774 49.5983 39.0159 49.8451C38.9822 49.9807 38.9767 50.1222 38.9995 50.26C39.0257 50.4174 39.0882 50.5666 39.1825 50.6955L44.4588 57.9109C44.6506 58.1733 44.9548 58.3267 45.2763 58.3267C45.2984 58.3267 45.3205 58.3259 45.3427 58.3243C45.6883 58.3015 45.9986 58.1041 46.1655 57.7992L52.008 47.1326C52.1513 46.8711 52.1732 46.5598 52.068 46.281ZM45.1535 55.4188L41.4451 50.3474L47.368 46.3735L49.6571 47.1975L45.1535 55.4188Z" fill="#1763F8"/>
<path d="M40.9996 49.9165C40.9519 49.6431 40.7952 49.401 40.5655 49.2463L33.3347 44.3948C33.1045 44.2402 32.8208 44.1873 32.5505 44.2475C32.509 44.2567 32.4682 44.2687 32.4282 44.2831L28.5387 45.683C28.259 45.7836 28.0374 46.0023 27.9323 46.2811C27.8272 46.5601 27.849 46.8712 27.9922 47.1327L33.8347 57.7988C34.0016 58.1036 34.3119 58.3016 34.6575 58.3245C34.6795 58.3259 34.7017 58.3266 34.7237 58.3266C35.0453 58.3266 35.3494 58.1731 35.5414 57.9106L38.3605 54.0554C38.3627 54.0525 38.3652 54.0492 38.3674 54.046L40.8179 50.6948C40.9815 50.471 41.0472 50.19 40.9996 49.9165ZM36.7256 52.849C36.7232 52.8523 36.7207 52.8558 36.7182 52.8591L34.8464 55.4189L30.3429 47.1975L32.632 46.3736L38.5548 50.3475L36.7256 52.849Z" fill="#1763F8"/>
<path d="M69.9499 63.6694L68.6412 55.7349C68.2289 53.2344 66.4981 51.1452 64.1244 50.2832L51.4641 45.6841C51.0737 45.5424 50.6375 45.6535 50.3616 45.9644C50.0857 46.2754 50.0261 46.7237 50.2112 47.0966L52.8545 52.4191L50.2608 52.4592C49.9087 52.4647 49.5844 52.653 49.4045 52.957C49.2245 53.2611 49.2144 53.6369 49.3778 53.9502L50.4416 55.9897L39.5548 65.9893C39.5436 65.9996 39.5325 66.0104 39.5218 66.0211L39.2971 66.2468C38.9787 66.5666 38.9082 67.0589 39.1245 67.4557L39.1324 67.4701C39.3104 67.7967 39.6517 67.9999 40.0225 67.9999H66.2926C67.3839 67.9999 68.4145 67.5206 69.1201 66.685C69.8258 65.8493 70.1282 64.7501 69.9499 63.6694ZM67.573 65.3675C67.2533 65.7459 66.7866 65.9629 66.2927 65.9629H42.5896L52.3878 56.9633C52.7276 56.6514 52.8155 56.1488 52.6017 55.7392L51.9399 54.4704L54.4976 54.4309C54.8463 54.4256 55.1675 54.2408 55.3488 53.9418C55.5298 53.6425 55.5454 53.2712 55.3899 52.9578L53.159 48.4658L63.4347 52.1985C65.1193 52.8104 66.3475 54.293 66.6401 56.0675L67.9488 64.0021C68.0294 64.4914 67.8925 64.989 67.573 65.3675Z" fill="#1763F8"/>
<path d="M40.7032 66.2263L40.6914 66.2156C40.2899 65.8506 39.6732 65.8668 39.2912 66.2525L39.2807 66.2633C38.9918 66.5551 38.9061 66.9928 39.0634 67.3726C39.2208 67.7526 39.5903 68 40 68L40.0225 67.9999C40.4419 67.9999 40.8181 67.7407 40.9688 67.3478C41.1198 66.9547 41.0142 66.5089 40.7032 66.2263Z" fill="#1763F8"/>
<path d="M40.6713 66.1969C40.4411 65.9887 40.1288 65.8975 39.8229 65.9499C39.5174 66.0018 39.2523 66.1914 39.1032 66.4641L39.0962 66.4769C38.8823 66.8684 38.9474 67.3541 39.2566 67.6751L39.2603 67.6789C39.459 67.8852 39.7239 67.9892 39.9894 67.9892C40.2338 67.9892 40.4788 67.9009 40.6729 67.7229L40.6835 67.7132C40.7756 67.629 40.8516 67.528 40.9073 67.416C41.1116 67.0062 41.0106 66.5033 40.6713 66.1969Z" fill="#1763F8"/>
<path d="M40.7152 66.2591L40.7109 66.2548C40.7083 66.2521 40.7054 66.2492 40.7029 66.2467L40.4779 66.021C40.4673 66.0103 40.4564 65.9993 40.4454 65.9893L29.5583 55.9897L30.6223 53.9502C30.7857 53.637 30.7755 53.2611 30.5957 52.957C30.4157 52.6531 30.0915 52.4647 29.7394 52.4592L27.1454 52.4191L29.7887 47.0966C29.9739 46.7238 29.9141 46.2754 29.6383 45.9644C29.3626 45.6534 28.9257 45.5422 28.5358 45.6841L15.8757 50.2832C13.5019 51.1451 11.7711 53.2342 11.3587 55.7349L10.0501 63.6694C9.87182 64.7505 10.1744 65.8495 10.8801 66.6851C11.5859 67.5206 12.6166 67.9999 13.7076 67.9999L40 68C40.4108 68 40.7811 67.751 40.9377 67.3698C41.0944 66.9885 41.0065 66.5499 40.7152 66.2591ZM13.7077 65.9629C13.2137 65.9629 12.747 65.7459 12.4276 65.3675C12.1081 64.9892 11.9712 64.4916 12.0519 64.0021L13.3605 56.0675C13.6531 54.2928 14.8814 52.8104 16.5659 52.1985L26.8415 48.4658L24.6108 52.9576C24.4551 53.271 24.4706 53.6423 24.6519 53.9415C24.8329 54.2406 25.1544 54.4254 25.503 54.4307L28.0608 54.4703L27.3989 55.7391C27.1853 56.1486 27.2731 56.6513 27.6128 56.9632L37.4109 65.9629H13.7077Z" fill="#1763F8"/>
<path d="M43.4529 53.7151C43.5261 53.421 43.4652 53.11 43.2865 52.8656L40.8177 49.4894C40.5583 49.1345 40.1007 48.9935 39.6843 49.1306C39.4594 49.2047 39.2741 49.3541 39.1508 49.5451L36.7273 52.8469C36.6926 52.894 36.6618 52.9445 36.6356 52.997C36.4696 53.3306 36.4983 53.7286 36.7104 54.0346L37.7425 55.5227L36.643 62.4811C36.6077 62.7046 36.6475 62.9333 36.756 63.1316L39.1113 67.4312C39.2896 67.7568 39.6304 67.9589 40.0002 67.9589C40.3702 67.9589 40.7108 67.7568 40.8891 67.4312L43.2618 63.1C43.344 62.9497 43.3874 62.7805 43.3874 62.6089C43.3874 62.5555 43.3831 62.5015 43.3749 62.4486L42.2804 55.5228L43.3014 54.0511C43.3715 53.9492 43.4231 53.8352 43.4529 53.7151ZM40.0002 64.8269L38.7012 62.4556L39.8102 55.4369C39.8514 55.1769 39.7906 54.9112 39.6408 54.6953L38.7907 53.4695L40.0031 51.8177L41.2219 53.4843L40.382 54.6953C40.2322 54.9111 40.1715 55.1769 40.2125 55.4369L41.3166 62.4236L40.0002 64.8269Z" fill="#1763F8"/>
</g>
<defs>
<filter id="filter0_d" x="0" y="0" width="80" height="80" filterUnits="userSpaceOnUse" color-interpolation-filters="sRGB">
<feFlood flood-opacity="0" result="BackgroundImageFix"/>
<feColorMatrix in="SourceAlpha" type="matrix" values="0 0 0 0 0 0 0 0 0 0 0 0 0 0 0 0 0 0 127 0"/>
<feOffset dy="2"/>
<feGaussianBlur stdDeviation="5"/>
<feColorMatrix type="matrix" values="0 0 0 0 0 0 0 0 0 0.596078 0 0 0 0 0.498039 0 0 0 0.2 0"/>
<feBlend mode="normal" in2="BackgroundImageFix" result="effect1_dropShadow"/>
<feBlend mode="normal" in="SourceGraphic" in2="effect1_dropShadow" result="shape"/>
</filter>
</defs>
</svg>
