<svg width="80" height="80" viewBox="0 0 80 80" fill="none" xmlns="http://www.w3.org/2000/svg">
<g filter="url(#filter0_d)">
<path d="M68.8281 8H11.1719C10.5248 8 10 8.52465 10 9.17188V66.8281C10 67.4754 10.5248 68 11.1719 68H68.8281C69.4752 68 70 67.4754 70 66.8281V9.17188C70 8.52465 69.4752 8 68.8281 8ZM67.6562 65.6562H12.3438V10.3438H67.6562V65.6562Z" fill="#1763F8"/>
<path d="M15.8594 63.3125H25.2344C25.8815 63.3125 26.4062 62.7879 26.4062 62.1406V53.9373C26.4062 53.29 25.8815 52.7654 25.2344 52.7654H15.8594C15.2123 52.7654 14.6875 53.29 14.6875 53.9373V62.1406C14.6875 62.7879 15.2123 63.3125 15.8594 63.3125ZM17.0312 55.1091H24.0625V60.9688H17.0312V55.1091Z" fill="#1763F8"/>
<path d="M15.8594 23.2345H25.2344C25.8815 23.2345 26.4062 22.7098 26.4062 22.0626V13.8594C26.4062 13.2121 25.8815 12.6875 25.2344 12.6875H15.8594C15.2123 12.6875 14.6875 13.2121 14.6875 13.8594V22.0626C14.6875 22.7098 15.2123 23.2345 15.8594 23.2345ZM17.0312 15.0312H24.0625V20.8907H17.0312V15.0312Z" fill="#1763F8"/>
<path d="M15.8594 36.5938H25.2344C25.8815 36.5938 26.4062 36.0691 26.4062 35.4219V27.2186C26.4062 26.5714 25.8815 26.0468 25.2344 26.0468H15.8594C15.2123 26.0468 14.6875 26.5714 14.6875 27.2186V35.4219C14.6875 36.0691 15.2123 36.5938 15.8594 36.5938ZM17.0312 28.3905H24.0625V34.25H17.0312V28.3905Z" fill="#1763F8"/>
<path d="M15.8594 49.9531H25.2344C25.8815 49.9531 26.4062 49.4285 26.4062 48.7812V40.578C26.4062 39.9308 25.8815 39.4061 25.2344 39.4061H15.8594C15.2123 39.4061 14.6875 39.9308 14.6875 40.578V48.7812C14.6875 49.4285 15.2123 49.9531 15.8594 49.9531ZM17.0312 41.7499H24.0625V47.6094H17.0312V41.7499Z" fill="#1763F8"/>
<path d="M32.2656 16.2031H32.8516C33.4987 16.2031 34.0234 15.6785 34.0234 15.0312C34.0234 14.384 33.4987 13.8594 32.8516 13.8594H32.2656C31.6185 13.8594 31.0938 14.384 31.0938 15.0312C31.0938 15.6785 31.6185 16.2031 32.2656 16.2031Z" fill="#1763F8"/>
<path d="M37.2143 16.2029C37.8613 16.2029 38.3862 15.6779 38.3862 15.031C38.3862 14.3841 37.8613 13.8591 37.2143 13.8591C36.5675 13.8591 36.0425 14.3841 36.0425 15.031C36.0425 15.6779 36.5676 16.2029 37.2143 16.2029Z" fill="#1763F8"/>
<path d="M51.394 16.2029H52.4852C53.1309 16.2029 53.657 15.6779 53.657 15.031C53.657 14.3853 53.1309 13.8591 52.4852 13.8591H51.394C50.7483 13.8591 50.2221 14.3853 50.2221 15.031C50.2221 15.6779 50.7484 16.2029 51.394 16.2029Z" fill="#1763F8"/>
<path d="M41.5773 16.2029H42.6684C43.3142 16.2029 43.8402 15.6779 43.8402 15.031C43.8402 14.3853 43.3142 13.8591 42.6684 13.8591H41.5773C40.9316 13.8591 40.4055 14.3853 40.4055 15.031C40.4055 15.6779 40.9316 16.2029 41.5773 16.2029Z" fill="#1763F8"/>
<path d="M56.848 16.2029C57.4939 16.2029 58.0199 15.6779 58.0199 15.031C58.0199 14.3853 57.4939 13.8591 56.848 13.8591C56.2012 13.8591 55.6762 14.3853 55.6762 15.031C55.6762 15.6779 56.2012 16.2029 56.848 16.2029Z" fill="#1763F8"/>
<path d="M47.0312 16.2029C47.677 16.2029 48.2031 15.6779 48.2031 15.031C48.2031 14.3853 47.677 13.8591 47.0312 13.8591C46.3843 13.8591 45.8594 14.3853 45.8594 15.031C45.8594 15.6779 46.3843 16.2029 47.0312 16.2029Z" fill="#1763F8"/>
<path d="M61.2109 16.2031H61.7969C62.444 16.2031 62.9688 15.6785 62.9688 15.0312C62.9688 14.384 62.444 13.8594 61.7969 13.8594H61.2109C60.5638 13.8594 60.0391 14.384 60.0391 15.0312C60.0391 15.6785 60.5638 16.2031 61.2109 16.2031Z" fill="#1763F8"/>
<path d="M57.1094 20.8904C57.1094 21.5373 57.6355 22.0623 58.2812 22.0623C58.927 22.0623 59.4531 21.5373 59.4531 20.8904C59.4531 20.2447 58.927 19.7185 58.2812 19.7185C57.6355 19.7185 57.1094 20.2447 57.1094 20.8904Z" fill="#1763F8"/>
<path d="M32.5 19.7185C31.8543 19.7185 31.3281 20.2447 31.3281 20.8904C31.3281 21.5373 31.8543 22.0623 32.5 22.0623H53.5938C54.2395 22.0623 54.7656 21.5373 54.7656 20.8904C54.7656 20.2447 54.2395 19.7185 53.5938 19.7185H32.5Z" fill="#1763F8"/>
<path d="M61.5625 29.5624C62.2096 29.5624 62.7344 29.0377 62.7344 28.3905C62.7344 27.7433 62.2096 27.2186 61.5625 27.2186H59.2188C58.5716 27.2186 58.0469 27.7433 58.0469 28.3905C58.0469 29.0377 58.5716 29.5624 59.2188 29.5624H61.5625Z" fill="#1763F8"/>
<path d="M51.0156 27.2186C50.3685 27.2186 49.8438 27.7433 49.8438 28.3905C49.8438 29.0377 50.3685 29.5624 51.0156 29.5624H54.5312C55.1784 29.5624 55.7031 29.0377 55.7031 28.3905C55.7031 27.7433 55.1784 27.2186 54.5312 27.2186H51.0156Z" fill="#1763F8"/>
<path d="M43.9844 29.5624H46.3281C46.9752 29.5624 47.5 29.0377 47.5 28.3905C47.5 27.7433 46.9752 27.2186 46.3281 27.2186H43.9844C43.3373 27.2186 42.8125 27.7433 42.8125 28.3905C42.8125 29.0377 43.3373 29.5624 43.9844 29.5624Z" fill="#1763F8"/>
<path d="M35.7812 28.3904C35.7812 29.0373 36.3061 29.5623 36.9531 29.5623C37.6 29.5623 38.125 29.0373 38.125 28.3904C38.125 27.7435 37.6 27.2185 36.9531 27.2185C36.3061 27.2185 35.7812 27.7435 35.7812 28.3904Z" fill="#1763F8"/>
<path d="M32.2656 29.5623C32.9125 29.5623 33.4375 29.0373 33.4375 28.3904C33.4375 27.7435 32.9125 27.2185 32.2656 27.2185C31.6186 27.2185 31.0938 27.7435 31.0938 28.3904C31.0938 29.0373 31.6186 29.5623 32.2656 29.5623Z" fill="#1763F8"/>
<path d="M58.0469 53.9373C57.3999 53.9373 56.875 54.4623 56.875 55.1091C56.875 55.756 57.3999 56.281 58.0469 56.281C58.6937 56.281 59.2188 55.756 59.2188 55.1091C59.2188 54.4623 58.6937 53.9373 58.0469 53.9373Z" fill="#1763F8"/>
<path d="M62.7344 53.9373C62.0874 53.9373 61.5625 54.4623 61.5625 55.1091C61.5625 55.756 62.0874 56.281 62.7344 56.281C63.3812 56.281 63.9062 55.756 63.9062 55.1091C63.9062 54.4623 63.3812 53.9373 62.7344 53.9373Z" fill="#1763F8"/>
<path d="M50.0781 34.25C50.0781 34.8972 50.6029 35.4219 51.25 35.4219H61.7969C62.444 35.4219 62.9688 34.8972 62.9688 34.25C62.9688 33.6028 62.444 33.0781 61.7969 33.0781H51.25C50.6029 33.0781 50.0781 33.6029 50.0781 34.25Z" fill="#1763F8"/>
<path d="M41.875 34.25C41.875 34.8972 42.3998 35.4219 43.0469 35.4219H46.5625C47.2096 35.4219 47.7344 34.8972 47.7344 34.25C47.7344 33.6028 47.2096 33.0781 46.5625 33.0781H43.0469C42.3998 33.0781 41.875 33.6029 41.875 34.25Z" fill="#1763F8"/>
<path d="M32.2656 35.4219H38.3594C39.0065 35.4219 39.5312 34.8972 39.5312 34.25C39.5312 33.6028 39.0065 33.0781 38.3594 33.0781H32.2656C31.6185 33.0781 31.0938 33.6028 31.0938 34.25C31.0938 34.8972 31.6185 35.4219 32.2656 35.4219Z" fill="#1763F8"/>
<path d="M51.0156 42.9216C51.6625 42.9216 52.1875 42.3966 52.1875 41.7498C52.1875 41.1029 51.6625 40.5779 51.0156 40.5779C50.3686 40.5779 49.8438 41.1029 49.8438 41.7498C49.8438 42.3966 50.3686 42.9216 51.0156 42.9216Z" fill="#1763F8"/>
<path d="M32.2656 42.9216C32.9125 42.9216 33.4375 42.3966 33.4375 41.7498C33.4375 41.1029 32.9125 40.5779 32.2656 40.5779C31.6186 40.5779 31.0938 41.1029 31.0938 41.7498C31.0938 42.3966 31.6186 42.9216 32.2656 42.9216Z" fill="#1763F8"/>
<path d="M40.4688 41.7498C40.4688 42.3966 40.9936 42.9216 41.6406 42.9216C42.2875 42.9216 42.8125 42.3966 42.8125 41.7498C42.8125 41.1029 42.2875 40.5779 41.6406 40.5779C40.9936 40.5779 40.4688 41.1029 40.4688 41.7498Z" fill="#1763F8"/>
<path d="M46.3281 40.5779C45.6811 40.5779 45.1562 41.1029 45.1562 41.7498C45.1562 42.3966 45.6811 42.9216 46.3281 42.9216C46.975 42.9216 47.5 42.3966 47.5 41.7498C47.5 41.1029 46.975 40.5779 46.3281 40.5779Z" fill="#1763F8"/>
<path d="M38.125 41.7498C38.125 41.1029 37.6 40.5779 36.9531 40.5779C36.3061 40.5779 35.7812 41.1029 35.7812 41.7498C35.7812 42.3966 36.3061 42.9216 36.9531 42.9216C37.6 42.9216 38.125 42.3966 38.125 41.7498Z" fill="#1763F8"/>
<path d="M55.7031 40.578C55.056 40.578 54.5312 41.1027 54.5312 41.7499C54.5312 42.3971 55.056 42.9218 55.7031 42.9218H62.9688C63.6159 42.9218 64.1406 42.3971 64.1406 41.7499C64.1406 41.1027 63.6159 40.578 62.9688 40.578H55.7031Z" fill="#1763F8"/>
<path d="M58.2812 46.4373C57.6355 46.4373 57.1094 46.9634 57.1094 47.6091C57.1094 48.256 57.6355 48.781 58.2812 48.781C58.927 48.781 59.4531 48.256 59.4531 47.6091C59.4531 46.9634 58.927 46.4373 58.2812 46.4373Z" fill="#1763F8"/>
<path d="M31.3281 47.6091C31.3281 48.256 31.8543 48.781 32.5 48.781H53.5938C54.2395 48.781 54.7656 48.256 54.7656 47.6091C54.7656 46.9634 54.2395 46.4373 53.5938 46.4373H32.5C31.8543 46.4373 31.3281 46.9634 31.3281 47.6091Z" fill="#1763F8"/>
<path d="M47.5 53.9373C46.8529 53.9373 46.3281 54.4619 46.3281 55.1091C46.3281 55.7564 46.8529 56.281 47.5 56.281H49.8438C50.4909 56.281 51.0156 55.7564 51.0156 55.1091C51.0156 54.4619 50.4909 53.9373 49.8438 53.9373H47.5Z" fill="#1763F8"/>
<path d="M32.2656 56.281H34.6094C35.2565 56.281 35.7812 55.7564 35.7812 55.1091C35.7812 54.4619 35.2565 53.9373 34.6094 53.9373H32.2656C31.6185 53.9373 31.0938 54.4619 31.0938 55.1091C31.0938 55.7564 31.6185 56.281 32.2656 56.281Z" fill="#1763F8"/>
<path d="M39.2969 53.9373C38.6498 53.9373 38.125 54.4619 38.125 55.1091C38.125 55.7564 38.6498 56.281 39.2969 56.281H42.8125C43.4596 56.281 43.9844 55.7564 43.9844 55.1091C43.9844 54.4619 43.4596 53.9373 42.8125 53.9373H39.2969Z" fill="#1763F8"/>
<path d="M57.1094 59.7966H36.9531C36.3061 59.7966 35.7812 60.3228 35.7812 60.9685C35.7812 61.6154 36.3061 62.1404 36.9531 62.1404H57.1094C57.7551 62.1404 58.2812 61.6154 58.2812 60.9685C58.2812 60.3228 57.7551 59.7966 57.1094 59.7966Z" fill="#1763F8"/>
<path d="M32.2656 62.1404C32.9113 62.1404 33.4375 61.6154 33.4375 60.9685C33.4375 60.3228 32.9113 59.7966 32.2656 59.7966C31.6199 59.7966 31.0938 60.3228 31.0938 60.9685C31.0938 61.6154 31.6199 62.1404 32.2656 62.1404Z" fill="#1763F8"/>
</g>
<defs>
<filter id="filter0_d" x="0" y="0" width="80" height="80" filterUnits="userSpaceOnUse" color-interpolation-filters="sRGB">
<feFlood flood-opacity="0" result="BackgroundImageFix"/>
<feColorMatrix in="SourceAlpha" type="matrix" values="0 0 0 0 0 0 0 0 0 0 0 0 0 0 0 0 0 0 127 0"/>
<feOffset dy="2"/>
<feGaussianBlur stdDeviation="5"/>
<feColorMatrix type="matrix" values="0 0 0 0 0 0 0 0 0 0.596078 0 0 0 0 0.498039 0 0 0 0.2 0"/>
<feBlend mode="normal" in2="BackgroundImageFix" result="effect1_dropShadow"/>
<feBlend mode="normal" in="SourceGraphic" in2="effect1_dropShadow" result="shape"/>
</filter>
</defs>
</svg>
