<svg width="80" height="80" viewBox="0 0 80 80" fill="none" xmlns="http://www.w3.org/2000/svg">
<g filter="url(#filter0_d)">
<path d="M46.25 40.4999H43.75C43.0591 40.4999 42.5 41.059 42.5 41.75C42.5 42.4409 43.0591 43 43.75 43H45C45 43.691 45.5591 44.2501 46.2501 44.2501C46.941 44.2501 47.5001 43.691 47.5001 43V42.7697C48.952 42.252 50.0001 40.8775 50.0001 39.25C50.0001 37.1821 48.318 35.5 46.2501 35.5C45.5604 35.5 45 34.9397 45 34.25C45 33.5602 45.5603 32.9999 46.2501 32.9999H48.75C49.441 32.9999 50.0001 32.4408 50.0001 31.7499C50.0001 31.059 49.441 30.4999 48.75 30.4999H47.5C47.5 29.8089 46.9409 29.2498 46.25 29.2498C45.559 29.2498 44.9999 29.8089 44.9999 30.4999V30.7301C43.5481 31.2479 42.5 32.6224 42.5 34.2499C42.5 36.3178 44.1821 37.9999 46.25 37.9999C46.9396 37.9999 47.5 38.5601 47.5 39.2499C47.5 39.9397 46.9397 40.4999 46.25 40.4999Z" fill="#1763F8"/>
<path d="M64.8726 51.992C64.9186 51.7556 65 51.5255 65 51.2812C65 46.9611 61.7395 41.3777 60.8813 39.9836C60.8412 30.5853 59.1716 23.7335 52.3043 21.3902C52.6173 20.4114 53.1829 19.107 53.7085 17.9048C54.7168 15.5976 55.6689 13.4187 55.6689 11.9722C55.6689 9.99465 54.4409 8 51.6955 8C49.8571 8 49.1736 8.86789 48.8013 9.6125C48.7817 9.59047 48.7622 9.56738 48.7438 9.54652C48.2324 8.96797 47.3767 8 45.3418 8C43.053 8 41.5674 9.99336 40.8471 11.6267C39.9182 11.6731 38.5681 11.894 37.688 12.7119C37.1277 13.2331 36.831 13.9191 36.831 14.6955C36.831 15.9943 37.7649 17.4945 38.7524 19.0815C39.2436 19.8709 39.7589 20.7165 40.088 21.4323C33.3142 23.8115 31.6586 30.6365 31.6186 39.9848C31.2075 40.6544 30.237 42.3302 29.3385 44.3439C27.3452 44.5183 25.6225 44.9087 24.5369 45.2074C24.1605 43.8985 23.0922 42.8432 21.676 42.5605L11.4953 40.5245C11.1291 40.4524 10.7471 40.5465 10.4577 40.7832C10.1685 41.0212 10 41.3752 10 41.75V61.75C10 62.441 10.5591 63.0001 11.25 63.0001H19.082C20.6248 63.0001 21.9395 62.0178 22.5053 60.6391C25.3032 61.9729 38.2486 68 43.75 68C48.5986 68 58.5779 63.0939 65.1807 59.8481C66.9043 59.0009 68.3289 58.3003 69.2529 57.8949C69.707 57.6949 70 57.2456 70 56.75C70 54.373 67.9709 52.5965 64.8726 51.992ZM22.1778 46.4143L20.3186 59.427C20.232 60.0386 19.6997 60.5 19.082 60.5H12.5V43.2746L21.1853 45.0117C21.8359 45.1423 22.2718 45.7576 22.1778 46.4143ZM39.3897 14.5442C39.7608 14.1987 40.9266 14.0865 41.6236 14.1267C42.2047 14.1975 42.7369 13.7995 42.9066 13.2453C43.1275 12.5336 44.0467 10.5 45.3419 10.5C46.2501 10.5 46.4833 10.7648 46.8702 11.2031C47.2621 11.6462 47.8541 12.3152 48.9723 12.3152C50.3639 12.3152 50.8156 11.2483 50.9853 10.8467C51.0243 10.7552 51.0829 10.616 51.1086 10.5867C51.1097 10.5855 51.2416 10.5 51.6957 10.5C52.0986 10.5 53.1691 10.5 53.1691 11.9722C53.1691 12.8962 52.1986 15.118 51.4185 16.9038C50.8004 18.3165 50.222 19.6612 49.8789 20.7949C48.7723 20.6102 47.5782 20.4999 46.2501 20.4999C44.8881 20.4999 43.6633 20.613 42.5339 20.807C42.151 19.838 41.5354 18.8218 40.8753 17.7607C40.2234 16.7134 39.3311 15.2803 39.3897 14.5442ZM33.9184 41.02C34.0478 40.8186 34.1174 40.583 34.1174 40.3438C34.1174 27.5386 37.2925 23 46.25 23C55.2074 23 58.3825 27.5386 58.3825 40.3438C58.3825 40.5842 58.4521 40.8199 58.5815 41.0212C58.6205 41.0823 62.5 47.1504 62.5 51.2812C62.5 51.442 62.4684 51.5977 62.4072 51.7538C59.9357 51.7851 54.9696 53.1182 52.4352 53.8464C52.0952 50.2591 47.4988 48.9893 42.749 48.0245C40.581 47.585 38.9685 46.8075 37.4084 46.0555C35.7223 45.2412 34.0939 44.5038 32.0961 44.325C33.0216 42.4289 33.9071 41.0371 33.9184 41.02ZM64.0771 57.6045C58.0713 60.5574 48.0176 65.5 43.75 65.5C39.2029 65.5 27.2631 60.1766 23.0468 58.1258C23.0418 58.1233 23.0363 58.1243 23.0312 58.1218L24.5028 47.8212C25.412 47.5365 28.1957 46.75 31.25 46.75C33.0957 46.75 34.5202 47.4373 36.3232 48.3064C37.942 49.0877 39.7778 49.9727 42.2509 50.4755C47.683 51.5766 50 52.7057 50 54.2499C50 54.5551 49.9072 54.743 49.6691 54.9201C48.8781 55.5146 45.7738 56.5132 34.1051 53.0512C33.441 52.8522 32.7477 53.2331 32.5512 53.8947C32.3547 54.5564 32.7331 55.2521 33.3947 55.4486C39.1516 57.1552 43.5546 58.006 46.6748 58.006C48.7097 58.006 50.1989 57.6447 51.1646 56.9232C51.2479 56.8611 51.3089 56.7848 51.3848 56.7178C51.4627 56.7093 51.5395 56.7187 51.6175 56.6949C53.8281 56.0151 60.0904 54.25 62.5 54.25C64.5386 54.25 66.6834 54.8702 67.3157 56.0322C66.4429 56.4424 65.3382 56.9855 64.0771 57.6045Z" fill="#1763F8"/>
</g>
<defs>
<filter id="filter0_d" x="0" y="0" width="80" height="80" filterUnits="userSpaceOnUse" color-interpolation-filters="sRGB">
<feFlood flood-opacity="0" result="BackgroundImageFix"/>
<feColorMatrix in="SourceAlpha" type="matrix" values="0 0 0 0 0 0 0 0 0 0 0 0 0 0 0 0 0 0 127 0"/>
<feOffset dy="2"/>
<feGaussianBlur stdDeviation="5"/>
<feColorMatrix type="matrix" values="0 0 0 0 0 0 0 0 0 0.596078 0 0 0 0 0.498039 0 0 0 0.2 0"/>
<feBlend mode="normal" in2="BackgroundImageFix" result="effect1_dropShadow"/>
<feBlend mode="normal" in="SourceGraphic" in2="effect1_dropShadow" result="shape"/>
</filter>
</defs>
</svg>
