<svg width="974" height="358" viewBox="0 0 974 358" fill="none" xmlns="http://www.w3.org/2000/svg">
<path d="M832.361 230.146C759.704 236.635 766.299 313.326 829.386 318.111C856.104 320.382 874.472 312.19 884.448 301.037C871.798 303.43 849.783 301.686 838.674 297.468C884.448 301.037 930.43 280.353 944.26 254.885C924.148 262.996 889.117 269.282 860.776 266.524C917.702 262.387 962.508 233.836 970.419 207.475C937.129 227.104 894.192 224.387 832.361 230.146Z" fill="#AADA91"/>
<path d="M166.451 71.7114C233.345 100.627 202.802 171.478 141.137 156.067C115.23 149.619 100.23 136.276 94.7186 122.244C106.029 128.733 127.477 133.842 139.519 133.477C94.7186 122.244 57.6666 88.1367 52.9278 59.7479C69.427 73.9829 100.603 90.8538 128.78 97.0993C75.2247 75.2806 41.7013 33.8331 42.8818 6.33646C68.1362 35.5768 109.449 46.6483 166.451 71.7114Z" fill="#AADA91"/>
<path d="M337.8 151.765L347.34 127.705L353.194 128.909L349.551 138.046L359.284 140.047L362.891 130.902L368.78 132.113L359.24 156.172L353.386 154.969L357.38 144.838L347.683 142.844L343.654 152.968L337.8 151.765ZM377.334 160.554C373.573 159.78 370.804 158.17 369.029 155.722C367.277 153.279 366.746 150.377 367.437 147.016C368.312 142.761 370.45 139.451 373.852 137.088C377.253 134.724 381.082 133.98 385.337 134.855C389.075 135.623 391.808 137.226 393.536 139.664C395.288 142.107 395.819 145.009 395.128 148.371C394.248 152.649 392.119 155.973 388.741 158.341C385.392 160.691 381.589 161.428 377.334 160.554ZM378.739 155.329C381.231 155.842 383.422 155.312 385.313 153.741C387.205 152.169 388.411 150.114 388.933 147.575C389.305 145.765 389.048 144.156 388.161 142.749C387.279 141.318 385.851 140.4 383.876 139.994C381.431 139.491 379.237 140.032 377.294 141.618C375.38 143.184 374.164 145.225 373.647 147.741C373.275 149.551 373.529 151.171 374.411 152.602C375.298 154.01 376.741 154.919 378.739 155.329ZM393.793 163.275L403.333 139.216L413.101 141.223C415.099 141.634 416.723 142.434 417.974 143.622C419.224 144.81 419.659 146.332 419.277 148.19C418.943 149.812 418.181 151.076 416.99 151.983C415.799 152.89 414.349 153.388 412.64 153.478L412.626 153.548C413.899 154.03 414.847 154.838 415.472 155.971C416.125 157.085 416.304 158.359 416.009 159.793C415.502 162.262 414.135 163.965 411.908 164.904C409.682 165.843 406.958 165.982 403.737 165.32L393.793 163.275ZM401.182 159.869L404.603 160.573C406.06 160.872 407.303 160.846 408.331 160.494C409.359 160.141 409.996 159.366 410.243 158.167C410.407 157.368 410.23 156.682 409.71 156.11C409.191 155.537 408.367 155.135 407.238 154.903L403.43 154.12L401.182 159.869ZM405.076 150.048L408.672 150.788C409.683 150.995 410.625 150.944 411.497 150.633C412.398 150.304 412.96 149.599 413.182 148.517C413.496 146.989 412.537 145.996 410.303 145.536L407.094 144.877L405.076 150.048ZM417.21 168.089L426.75 144.029L432.603 145.232L429.097 154.067L431.318 154.524C434.28 155.133 436.444 156.227 437.81 157.806C439.176 159.386 439.63 161.292 439.171 163.525C438.562 166.487 437.122 168.483 434.853 169.511C432.588 170.515 429.681 170.653 426.131 169.923L417.21 168.089ZM424.888 164.706L427.145 165.17C430.671 165.895 432.674 165.093 433.152 162.766C433.37 161.708 433.157 160.893 432.516 160.32C431.879 159.723 430.879 159.285 429.515 159.005L427.329 158.555L424.888 164.706ZM438.755 172.518L448.26 148.451L454.149 149.661L444.609 173.721L438.755 172.518ZM449.855 174.8L459.395 150.74L465.178 151.929L458.909 167.767L459.05 167.796L474.911 153.929L481.082 155.198L471.542 179.258L465.759 178.069L471.913 162.612L471.808 162.59L456.132 176.09L449.855 174.8ZM471.05 151.078C469.287 150.715 467.963 150.002 467.079 148.938C466.219 147.879 465.906 146.541 466.141 144.923L469.367 144.961C469.278 146.585 470.033 147.561 471.632 147.889C472.502 148.068 473.297 148.011 474.019 147.719C474.741 147.426 475.294 146.939 475.679 146.259L478.483 147.46C477.773 149.005 476.744 150.08 475.394 150.684C474.073 151.27 472.625 151.401 471.05 151.078ZM495.477 184.876L496.629 181.952C490.296 179.866 487.723 175.932 488.912 170.149C489.545 167.069 491.219 164.706 493.934 163.059C496.65 161.412 500.23 160.923 504.674 161.591L505.504 159.52L511.358 160.723L510.463 162.928C513.724 163.991 515.971 165.518 517.203 167.511C518.458 169.509 518.81 171.848 518.259 174.528C517.612 177.678 515.928 180.088 513.208 181.759C510.488 183.429 506.894 183.928 502.426 183.254L501.331 186.08L495.477 184.876ZM498.562 177.021L502.699 166.551C501.452 166.417 500.341 166.458 499.366 166.674C498.39 166.89 497.607 167.244 497.016 167.735C496.43 168.203 495.966 168.732 495.624 169.323C495.286 169.891 495.043 170.539 494.893 171.268C494.613 172.631 494.8 173.809 495.453 174.801C496.107 175.793 497.143 176.533 498.562 177.021ZM504.394 178.33C506.821 178.559 508.659 178.202 509.907 177.258C511.159 176.29 511.957 174.972 512.3 173.303C512.556 172.057 512.341 170.959 511.654 170.009C510.972 169.036 509.933 168.308 508.538 167.825L504.394 178.33ZM529.852 191.906C526.091 191.133 523.322 189.522 521.547 187.075C519.795 184.632 519.264 181.729 519.955 178.368C520.83 174.113 522.968 170.803 526.37 168.44C529.771 166.076 533.6 165.332 537.855 166.207C541.593 166.975 544.326 168.578 546.054 171.016C547.806 173.459 548.337 176.361 547.646 179.723C546.766 184.002 544.637 187.325 541.259 189.693C537.91 192.043 534.107 192.78 529.852 191.906ZM531.257 186.682C533.749 187.194 535.94 186.664 537.831 185.093C539.723 183.522 540.929 181.466 541.451 178.927C541.823 177.117 541.566 175.509 540.679 174.101C539.797 172.67 538.369 171.752 536.394 171.346C533.949 170.843 531.755 171.385 529.812 172.97C527.898 174.536 526.682 176.577 526.165 179.093C525.792 180.903 526.047 182.524 526.929 183.954C527.816 185.362 529.259 186.271 531.257 186.682ZM546.311 194.628L555.851 170.568L564.067 172.257C566.982 172.856 569.102 173.929 570.426 175.475C571.749 177.021 572.187 178.887 571.737 181.074C571.143 183.965 569.725 185.916 567.484 186.925C565.271 187.916 562.437 188.056 558.981 187.346L555.772 186.686L552.13 195.824L546.311 194.628ZM557.54 182.198L560.044 182.713C563.382 183.399 565.276 182.649 565.725 180.463C565.938 179.428 565.732 178.639 565.109 178.094C564.515 177.531 563.571 177.116 562.278 176.85L559.88 176.358L557.54 182.198ZM568.764 199.243L578.304 175.183L586.52 176.872L586.084 193.652L586.225 193.681L597.98 179.228L606.69 181.018L597.15 205.078L591.402 203.897L598.357 186.693L598.216 186.664L584.843 202.548L580.718 201.7L581.078 183.141L580.937 183.112L574.265 200.374L568.764 199.243ZM598.812 205.42L619.847 183.723L625.56 184.897L625.153 210.835L618.982 209.566L619.158 204.42L609.531 202.441L605.512 206.797L598.812 205.42ZM613.006 198.231L619.53 199.572L620.044 190.453L613.006 198.231ZM629.539 211.736L637.119 192.566L630.137 191.131L632.097 186.241L651.774 190.286L649.848 195.183L643.007 193.776L635.393 212.94L629.539 211.736ZM256.499 180.671C252.996 179.951 250.413 178.391 248.75 175.991C247.092 173.567 246.599 170.722 247.271 167.454C248.16 163.129 250.334 159.765 253.792 157.365C257.25 154.964 261.084 154.196 265.292 155.061C267.219 155.457 268.901 156.158 270.336 157.164C271.794 158.174 272.821 159.316 273.417 160.59L268.282 163.577C267.59 161.818 266.174 160.718 264.035 160.279C261.614 159.781 259.408 160.32 257.418 161.895C255.456 163.452 254.215 165.5 253.693 168.039C253.326 169.826 253.559 171.43 254.394 172.851C255.234 174.249 256.618 175.146 258.545 175.542C260.779 176.001 262.881 175.49 264.851 174.008L267.333 178.561C264.248 180.818 260.636 181.521 256.499 180.671ZM280.903 185.651C277.142 184.878 274.374 183.267 272.598 180.82C270.846 178.377 270.316 175.475 271.007 172.113C271.881 167.858 274.019 164.549 277.421 162.185C280.823 159.822 284.651 159.077 288.906 159.952C292.644 160.72 295.377 162.323 297.105 164.761C298.857 167.204 299.388 170.106 298.697 173.468C297.817 177.747 295.689 181.07 292.311 183.438C288.961 185.788 285.158 186.526 280.903 185.651ZM282.308 180.427C284.8 180.939 286.991 180.409 288.883 178.838C290.774 177.267 291.98 175.211 292.502 172.673C292.874 170.862 292.617 169.254 291.73 167.846C290.848 166.415 289.42 165.497 287.445 165.091C285 164.588 282.806 165.13 280.863 166.715C278.949 168.282 277.733 170.323 277.216 172.838C276.844 174.648 277.099 176.269 277.981 177.699C278.867 179.107 280.31 180.016 282.308 180.427ZM297.362 188.373L306.902 164.313L316.67 166.321C318.668 166.731 320.293 167.531 321.543 168.719C322.793 169.907 323.228 171.43 322.846 173.287C322.513 174.909 321.75 176.173 320.559 177.08C319.368 177.987 317.918 178.485 316.209 178.575L316.195 178.645C317.468 179.128 318.417 179.935 319.041 181.068C319.694 182.183 319.873 183.457 319.579 184.891C319.071 187.359 317.704 189.063 315.477 190.002C313.251 190.94 310.527 191.079 307.307 190.417L297.362 188.373ZM304.752 184.967L308.172 185.67C309.63 185.97 310.872 185.943 311.9 185.591C312.928 185.239 313.565 184.463 313.812 183.264C313.976 182.465 313.799 181.779 313.279 181.207C312.76 180.635 311.936 180.232 310.808 180L306.999 179.218L304.752 184.967ZM308.645 175.146L312.242 175.885C313.253 176.093 314.194 176.041 315.067 175.731C315.967 175.401 316.529 174.696 316.751 173.614C317.065 172.086 316.106 171.093 313.872 170.634L310.663 169.974L308.645 175.146ZM320.779 193.186L330.319 169.126L338.535 170.815C341.45 171.415 343.57 172.487 344.893 174.034C346.217 175.58 346.654 177.446 346.205 179.632C345.611 182.524 344.193 184.474 341.952 185.484C339.739 186.474 336.905 186.615 333.449 185.904L330.24 185.245L326.597 194.382L320.779 193.186ZM332.008 180.757L334.511 181.271C337.85 181.958 339.743 181.208 340.193 179.021C340.405 177.987 340.2 177.197 339.577 176.653C338.982 176.089 338.039 175.675 336.746 175.409L334.348 174.916L332.008 180.757ZM343.231 197.802L352.771 173.742L368.745 177.026L366.834 181.852L356.467 179.72L354.628 184.377L364.501 186.407L362.684 190.958L352.81 188.929L350.792 194.1L362.146 196.434L360.228 201.296L343.231 197.802ZM363.928 202.056L373.468 177.996L381.684 179.685L381.248 196.465L381.389 196.494L393.144 182.041L401.854 183.831L392.314 207.891L386.566 206.71L393.521 189.506L393.38 189.477L380.007 205.362L375.882 204.513L376.242 185.954L376.101 185.925L369.429 203.187L363.928 202.056ZM397.537 208.965L407.077 184.905L423.051 188.189L421.14 193.015L410.773 190.884L408.934 195.541L418.807 197.57L416.99 202.122L407.116 200.092L405.097 205.264L416.452 207.598L414.534 212.459L397.537 208.965ZM418.233 213.219L427.773 189.16L433.627 190.363L429.985 199.501L439.717 201.501L443.324 192.356L449.213 193.567L439.673 217.627L433.82 216.423L437.813 206.292L428.116 204.299L424.087 214.423L418.233 213.219ZM444.922 218.706L454.461 194.646L460.315 195.849L456.673 204.987L466.405 206.987L470.012 197.842L475.901 199.053L466.361 223.113L460.508 221.91L464.501 211.778L454.804 209.785L450.775 219.909L444.922 218.706ZM471.61 224.192L481.15 200.132L487.003 201.335L483.496 210.17L485.718 210.627C488.68 211.236 490.844 212.33 492.21 213.909C493.576 215.488 494.029 217.395 493.57 219.628C492.961 222.59 491.522 224.585 489.253 225.613C486.988 226.618 484.081 226.755 480.531 226.026L471.61 224.192ZM479.288 220.808L481.545 221.272C485.071 221.997 487.073 221.196 487.552 218.869C487.769 217.811 487.557 216.995 486.915 216.422C486.278 215.826 485.278 215.388 483.915 215.107L481.729 214.658L479.288 220.808ZM493.155 228.621L502.66 204.554L508.549 205.764L499.009 229.824L493.155 228.621ZM500.87 230.207L515.288 219.425L512.208 206.516L518.802 207.872L520.317 216.416L528.288 209.822L535.376 211.279L522.347 221.023L525.836 235.339L519.101 233.954L517.232 224.272L508.134 231.7L500.87 230.207ZM537.279 237.691L546.819 213.631L568.118 218.009L558.578 242.069L552.724 240.866L560.339 221.703L550.748 219.731L543.133 238.894L537.279 237.691ZM576.676 246.451C572.915 245.678 570.146 244.067 568.371 241.62C566.619 239.177 566.088 236.275 566.779 232.913C567.654 228.658 569.792 225.349 573.194 222.985C576.595 220.622 580.423 219.877 584.678 220.752C588.416 221.52 591.149 223.124 592.878 225.562C594.63 228.004 595.16 230.907 594.469 234.268C593.59 238.547 591.461 241.87 588.083 244.239C584.733 246.588 580.931 247.326 576.676 246.451ZM578.081 241.227C580.572 241.739 582.764 241.21 584.655 239.638C586.546 238.067 587.753 236.012 588.275 233.473C588.647 231.663 588.389 230.054 587.503 228.646C586.621 227.216 585.192 226.297 583.218 225.891C580.773 225.389 578.579 225.93 576.636 227.515C574.721 229.082 573.505 231.123 572.988 233.638C572.616 235.448 572.871 237.069 573.753 238.5C574.64 239.907 576.082 240.816 578.081 241.227ZM593.135 249.173L602.675 225.113L608.423 226.295L604.401 236.383L604.507 236.405L616.568 227.969L624.044 229.506L609.365 238.874L615.562 253.783L608.263 252.283L603.448 239.054L603.342 239.032L598.883 250.354L593.135 249.173ZM619.273 254.987C617.933 254.712 616.902 254.365 616.179 253.947L618.033 249.219C618.559 249.523 619.339 249.782 620.373 249.994C621.384 250.202 622.257 250.124 622.994 249.761C623.735 249.374 624.652 248.669 625.744 247.644L625.971 247.433L623.47 229.388L630.064 230.743L631.155 243.133L641.136 233.019L648.189 234.469L631.77 249.617C630.559 250.741 629.559 251.613 628.77 252.235C627.98 252.857 627.045 253.473 625.964 254.084C624.911 254.676 623.843 255.044 622.76 255.189C621.681 255.311 620.519 255.243 619.273 254.987ZM640.726 258.956L650.266 234.896L671.564 239.274L662.024 263.334L656.171 262.131L663.785 242.968L654.194 240.996L646.579 260.159L640.726 258.956ZM680.122 267.716C676.361 266.943 673.592 265.332 671.817 262.885C670.065 260.442 669.534 257.54 670.225 254.178C671.1 249.923 673.238 246.614 676.64 244.25C680.041 241.887 683.87 241.142 688.125 242.017C691.863 242.785 694.596 244.388 696.324 246.826C698.076 249.269 698.607 252.172 697.916 255.533C697.036 259.812 694.907 263.135 691.529 265.504C688.18 267.853 684.377 268.591 680.122 267.716ZM681.527 262.492C684.019 263.004 686.21 262.474 688.101 260.903C689.993 259.332 691.199 257.277 691.721 254.738C692.093 252.927 691.836 251.319 690.949 249.911C690.067 248.48 688.639 247.562 686.664 247.156C684.219 246.654 682.025 247.195 680.082 248.78C678.168 250.347 676.952 252.388 676.435 254.903C676.063 256.713 676.317 258.334 677.199 259.765C678.086 261.172 679.529 262.081 681.527 262.492ZM696.581 270.438L706.121 246.378L711.869 247.559L707.847 257.648L707.953 257.67L720.015 249.234L727.49 250.771L712.811 260.139L719.008 275.048L711.709 273.548L706.894 260.319L706.788 260.297L702.329 271.619L696.581 270.438Z" fill="#AADA91"/>
</svg>
