<svg width="414" height="242" viewBox="0 0 414 242" fill="none" xmlns="http://www.w3.org/2000/svg">
<g clip-path="url(#clip0)">
<path d="M96.3009 140.835C88.3007 136.074 62.5935 115.165 57.5601 110.993C52.52 106.827 68.927 127.488 66.747 130.341C64.5269 133.241 51.4133 128.928 46.9665 127.441C42.5198 125.954 85.854 156.239 106.968 170.303" stroke="white" stroke-width="1.59954" stroke-miterlimit="10" stroke-linecap="round" stroke-linejoin="round"/>
<path d="M106.008 150.955C106.008 150.955 109.121 173.504 105.121 182.726C101.121 191.955 110.974 188.378 110.974 188.378C131.641 182.13 147.422 162.708 147.422 162.708C126.088 158.241 103.641 147.084 96.7541 151.102C97.4208 149.093 95.8674 139.938 96.5341 128.332C100.314 100.425 144.755 117.395 160.755 121.414" stroke="white" stroke-width="1.59954" stroke-miterlimit="10" stroke-linecap="round" stroke-linejoin="round"/>
<path d="M165.302 202.897C155.749 201.223 136.968 190.561 136.968 190.561C136.968 190.561 142.542 187.601 146.022 186.041C145.729 190.133 159.149 190.133 161.522 190.059" fill="url(#paint0_linear)"/>
<path d="M133.195 159.212C134.675 166.057 135.195 172.01 135.195 174.542" stroke="white" stroke-width="1.59954" stroke-miterlimit="10" stroke-linecap="round" stroke-linejoin="round"/>
<path d="M134.675 168.093C134.675 168.093 112.015 165.367 113.968 174.194C114.075 178.768 118.522 182.578 123.075 182.578" stroke="white" stroke-width="1.59954" stroke-miterlimit="10" stroke-linecap="round" stroke-linejoin="round"/>
<path d="M147.416 162.715C147.416 162.715 125.415 151.551 122.528 140.835C119.642 130.12 118.975 120.074 104.975 127.662C102.088 124.313 98.3079 122.974 97.4212 125.653" stroke="white" stroke-width="1.59954" stroke-miterlimit="10" stroke-linecap="round" stroke-linejoin="round"/>
<path d="M115.194 138.156C114.748 135.029 112.528 135.477 109.641 138.377" stroke="white" stroke-width="1.59954" stroke-miterlimit="10" stroke-linecap="round" stroke-linejoin="round"/>
<path d="M133.195 143.735C130.908 138.525 128.748 126.543 146.082 126.543C150.302 138.377 141.862 145.074 133.195 143.735Z" stroke="white" stroke-width="1.59954" stroke-miterlimit="10" stroke-linecap="round" stroke-linejoin="round"/>
<path d="M139.169 127.394C141.809 128.606 143.496 131.419 143.149 134.473C142.715 138.27 139.302 140.996 135.522 140.567C134.102 140.407 132.829 139.817 131.822 138.94" stroke="white" stroke-width="1.59954" stroke-miterlimit="10" stroke-linecap="round" stroke-linejoin="round"/>
<path d="M159.897 144.447C157.711 139.967 157.459 135.586 159.333 134.663C161.208 133.74 164.5 136.624 166.686 141.105C168.872 145.586 169.124 149.966 167.25 150.889C165.375 151.812 162.083 148.928 159.897 144.447Z" stroke="white" stroke-width="1.59954" stroke-miterlimit="10" stroke-linecap="round" stroke-linejoin="round"/>
<path d="M353.199 168.515C350.312 173.651 333.532 194.185 305.085 197.982C276.638 201.779 261.517 198.277 243.864 186.376C208.77 162.715 214.156 161.429 214.156 161.429L353.199 168.515Z" fill="url(#paint1_linear)"/>
<path d="M152.157 148.928C151.631 146.247 152.113 143.893 153.233 143.671C154.353 143.45 155.687 145.444 156.213 148.126C156.739 150.807 156.257 153.161 155.137 153.383C154.018 153.604 152.683 151.61 152.157 148.928Z" stroke="white" stroke-width="1.59954" stroke-miterlimit="10" stroke-linecap="round" stroke-linejoin="round"/>
<path d="M384.307 156.018C376.973 154.792 359.973 155.127 347.859 139.161C334.306 122.532 307.745 78.1769 231.97 102.956C226.97 104.852 193.303 124.702 176.302 122.974C170.082 122.525 161.415 119.404 161.195 118.286C160.969 117.168 153.789 151.397 259.637 175.66C309.858 183.697 341.859 175.285 348.753 172.312C348.753 172.312 376.233 163.083 384.307 156.018Z" fill="url(#paint2_linear)"/>
<path d="M184.776 192.765L190.823 207.585C190.823 207.585 193.743 208.63 198.09 209.829C198.116 209.842 198.143 209.849 198.176 209.856C203.763 211.383 211.663 213.151 218.75 213.278C221.457 213.325 224.523 213.218 227.73 212.997C227.737 213.003 227.75 213.003 227.757 212.997C235.564 212.468 244.17 211.296 250.291 210.211C253.431 209.648 255.917 209.112 257.304 208.697C257.671 208.59 258.104 208.469 258.597 208.356C258.624 208.349 258.644 208.342 258.671 208.335C265.338 206.708 282.978 204.15 295.752 205.911C296.425 206.005 297.105 206.092 297.785 206.186C310.352 207.847 323.625 209.025 327.166 209.139H327.186C327.359 209.146 327.512 209.146 327.639 209.146C329.012 209.146 336.132 208.436 343.679 207.157C341.272 203.795 338.286 200.192 335.572 196.763C335.466 196.622 335.352 196.482 335.239 196.348L319.419 194.526C319.419 194.526 319.419 194.526 319.412 194.533C319.405 194.533 319.405 194.533 319.405 194.533C319.292 194.573 318.345 194.881 316.852 195.33C316.752 195.363 316.652 195.39 316.545 195.423C316.492 195.444 316.439 195.457 316.385 195.477C315.552 195.738 314.705 195.986 313.845 196.22C307.645 197.988 297.832 200.426 292.751 199.77C290.958 199.937 288.551 199.937 285.825 199.797C285.745 199.797 285.671 199.797 285.591 199.79C285.578 199.797 285.565 199.797 285.551 199.79C285.551 199.79 285.551 199.797 285.545 199.79C285.418 199.783 285.285 199.777 285.151 199.763H285.098C278.718 199.422 270.831 198.41 265.171 197.178C265.164 197.178 265.164 197.178 265.164 197.178C261.878 196.461 259.344 195.678 258.284 194.908H258.277C258.011 194.995 257.651 195.068 257.211 195.135C246.731 196.703 189.043 193.515 184.776 192.765Z" fill="url(#paint3_linear)"/>
<path d="M163.342 159.513C163.302 166.063 162.455 172.908 157.122 180.201C157.122 180.201 127.788 197.761 109.267 197.613C105.267 195.383 102.154 192.256 99.9338 188.686C100.38 185.713 105.414 179.457 106.154 177.522" stroke="white" stroke-width="1.59954" stroke-miterlimit="10" stroke-linecap="round" stroke-linejoin="round"/>
<path d="M169.969 171.307C166.416 175.66 159.189 179.679 155.636 181.018" stroke="white" stroke-width="1.59954" stroke-miterlimit="10" stroke-linecap="round" stroke-linejoin="round"/>
<path d="M190.71 207.659C190.71 207.659 193.383 208.677 198.09 209.829C198.116 209.843 198.143 209.849 198.176 209.856C204.716 211.45 215.13 213.285 227.73 212.997C227.737 213.004 227.75 213.004 227.757 212.997C234.697 212.843 242.311 212.046 250.291 210.211C250.837 210.084 251.384 209.95 251.937 209.816C254.184 209.26 256.404 208.778 258.598 208.356C258.624 208.349 258.644 208.342 258.671 208.336C273.071 205.563 286.345 205.456 297.785 206.186C309.939 206.956 320.012 208.67 327.166 209.139C327.172 209.139 327.179 209.139 327.186 209.139C327.699 209.173 328.199 209.2 328.679 209.22C332.639 209.38 338.193 208.59 343.839 207.378" stroke="white" stroke-width="1.59954" stroke-miterlimit="10" stroke-linecap="round" stroke-linejoin="round"/>
<path d="M318.992 194.473C319.079 194.486 319.165 194.499 319.252 194.506C319.299 194.513 319.352 194.519 319.405 194.533C319.405 194.533 319.405 194.533 319.412 194.533C320.679 194.707 321.965 194.888 323.252 195.069C327.352 195.645 331.512 196.227 335.572 196.763" stroke="white" stroke-width="1.59954" stroke-miterlimit="10" stroke-linecap="round" stroke-linejoin="round"/>
<path d="M184.776 192.765C200.196 192.43 241.617 197.145 258.284 194.908" stroke="white" stroke-width="1.59954" stroke-miterlimit="10" stroke-linecap="round" stroke-linejoin="round"/>
<path d="M165.635 202.824C153.635 201.411 136.968 190.394 136.968 190.394C136.968 190.394 142.081 188.164 145.562 186.597C146.448 190.166 161.268 190.32 161.268 190.32" stroke="white" stroke-width="1.59954" stroke-miterlimit="10" stroke-linecap="round" stroke-linejoin="round"/>
<path d="M233.064 169.164C261.171 177.656 294.218 181.949 325.899 177.455C334.379 176.25 342.759 174.421 350.92 171.87C362.14 168.367 372.94 163.505 383.02 157.062C383.674 156.647 384.327 156.219 384.974 155.79C378.974 154.692 371.053 156.205 360.793 150.258C354.333 146.521 346.946 139.824 338.533 127.662C316.752 96.1854 265.418 86.1397 226.084 105.561C204.723 116.109 192.67 121.722 183.263 123.141C175.356 124.34 169.316 122.572 161.196 118.286C159.822 134.292 190.876 156.446 233.064 169.164Z" stroke="white" stroke-width="1.59954" stroke-miterlimit="10" stroke-linecap="round" stroke-linejoin="round"/>
<path d="M350.92 171.87C347.373 176.451 339.12 185.445 324.979 191.995C323.093 192.872 321.093 193.702 318.993 194.473C311.819 197.111 303.386 199.04 293.585 199.629C290.619 199.803 287.525 199.857 284.305 199.77C273.592 199.475 265.065 197.62 258.285 194.908H258.278C256.271 194.111 254.425 193.234 252.718 192.303C239.731 185.237 215.011 167.717 213.23 161.985" stroke="white" stroke-width="1.59954" stroke-miterlimit="10" stroke-linecap="round" stroke-linejoin="round"/>
<path d="M324.979 191.995C326.699 187.481 326.399 181.453 325.899 177.455" stroke="white" stroke-width="1.59954" stroke-miterlimit="10" stroke-linecap="round" stroke-linejoin="round"/>
<path d="M296.065 179.23C296.258 182.96 296.058 187.581 295.418 191.881C295.005 194.72 294.392 197.413 293.585 199.629" stroke="white" stroke-width="1.59954" stroke-miterlimit="10" stroke-linecap="round" stroke-linejoin="round"/>
<path d="M264.538 176.404C262.358 182.009 257.331 189.121 252.724 192.303C252.724 192.303 252.724 192.303 252.717 192.303" stroke="white" stroke-width="1.59954" stroke-miterlimit="10" stroke-linecap="round" stroke-linejoin="round"/>
<path d="M360.793 150.258C350.199 156.694 316.052 168.521 273.865 165.166C232.984 161.255 190.423 138.947 183.263 123.141" stroke="white" stroke-width="1.59954" stroke-miterlimit="10" stroke-linecap="round" stroke-linejoin="round"/>
<path d="M358.553 182.277C389.593 186.202 413.954 178.225 413.327 156.506C398.453 169.928 389.4 165.762 377.506 160.431" stroke="white" stroke-width="1.59954" stroke-miterlimit="10" stroke-linecap="round" stroke-linejoin="round"/>
<path d="M226.011 130.977C228.991 128.586 240.531 118.179 248.064 119.84C251.391 122.411 257.238 135.766 256.751 140.467" stroke="white" stroke-width="1.59954" stroke-miterlimit="10" stroke-linecap="round" stroke-linejoin="round"/>
<path d="M216.53 148.758C217.083 147.639 225.997 130.763 225.997 130.763C227.61 125.646 228.61 110.979 226.97 108.535C225.257 105.977 206.603 115.607 200.53 117.616C200.523 117.623 200.51 117.63 200.503 117.643" stroke="white" stroke-width="1.59954" stroke-miterlimit="10" stroke-linecap="round" stroke-linejoin="round"/>
<path d="M323.632 162.514C323.405 160.525 322.212 149.274 322.005 146.628C322.005 146.588 321.998 146.548 321.992 146.514C321.805 144.043 321.712 142.155 321.818 141.465C322.252 138.605 328.958 125.358 332.185 126.028C335.412 126.691 344.305 134.654 346.825 138.304C347.845 140.922 348.832 149.267 349.452 155.482" stroke="white" stroke-width="1.59954" stroke-miterlimit="10" stroke-linecap="round" stroke-linejoin="round"/>
<path d="M289.032 144.043C288.398 139.355 279.672 129.055 275.838 127.34C271.998 125.626 258.284 137.895 256.751 140.46C255.558 142.456 253.218 155.02 251.931 161.429" stroke="white" stroke-width="1.59954" stroke-miterlimit="10" stroke-linecap="round" stroke-linejoin="round"/>
<path d="M288.972 165.755C288.805 158.83 288.565 145.275 289.252 143.166C290.178 140.319 300.605 127.327 304.725 128.137C308.845 128.948 320.072 137.694 321.726 142.114" stroke="white" stroke-width="1.59954" stroke-miterlimit="10" stroke-linecap="round" stroke-linejoin="round"/>
<path d="M248.064 119.833C248.971 113.149 252.751 99.3262 256.971 96.4264" stroke="white" stroke-width="1.59954" stroke-miterlimit="10" stroke-linecap="round" stroke-linejoin="round"/>
<path d="M276.085 126.323C277.865 114.268 280.045 98.0807 282.045 96.5203" stroke="white" stroke-width="1.59954" stroke-miterlimit="10" stroke-linecap="round" stroke-linejoin="round"/>
<path d="M304.305 127.441C302.305 113.377 302.972 103.385 303.639 101.824" stroke="white" stroke-width="1.59954" stroke-miterlimit="10" stroke-linecap="round" stroke-linejoin="round"/>
<path d="M332.186 126.028C330.086 120.074 328.032 116.558 325.639 114.047" stroke="white" stroke-width="1.59954" stroke-miterlimit="10" stroke-linecap="round" stroke-linejoin="round"/>
<path d="M226.97 108.535C229.417 104.671 233.79 101.972 237.344 100.873" stroke="white" stroke-width="1.59954" stroke-miterlimit="10" stroke-linecap="round" stroke-linejoin="round"/>
<path d="M338.525 159.306C339.612 162.192 343.532 173.711 343.532 173.711" stroke="white" stroke-width="1.59954" stroke-miterlimit="10" stroke-linecap="round" stroke-linejoin="round"/>
<path d="M349.752 155.904C351.012 158.716 355.639 169.968 355.639 169.968" stroke="white" stroke-width="1.59954" stroke-miterlimit="10" stroke-linecap="round" stroke-linejoin="round"/>
<path d="M323.745 162.634C324.252 165.675 325.865 177.743 325.865 177.743" stroke="white" stroke-width="1.59954" stroke-miterlimit="10" stroke-linecap="round" stroke-linejoin="round"/>
<path d="M307.938 165.018C308.252 167.831 309.125 178.935 309.125 178.935" stroke="white" stroke-width="1.59954" stroke-miterlimit="10" stroke-linecap="round" stroke-linejoin="round"/>
<path d="M288.905 165.24C289.051 167.965 289.271 178.707 289.271 178.707" stroke="white" stroke-width="1.59954" stroke-miterlimit="10" stroke-linecap="round" stroke-linejoin="round"/>
<path d="M252.131 161.04C251.451 163.518 248.457 173.202 248.457 173.202" stroke="white" stroke-width="1.59954" stroke-miterlimit="10" stroke-linecap="round" stroke-linejoin="round"/>
<path d="M269.638 177.073L271.118 164.945" stroke="white" stroke-width="1.59954" stroke-miterlimit="10" stroke-linecap="round" stroke-linejoin="round"/>
<path d="M216.823 148.423C215.89 149.876 209.636 160.424 209.636 160.424" stroke="white" stroke-width="1.59954" stroke-miterlimit="10" stroke-linecap="round" stroke-linejoin="round"/>
<path d="M234.47 156.352C233.25 158.81 229.523 167.624 229.523 167.624" stroke="white" stroke-width="1.59954" stroke-miterlimit="10" stroke-linecap="round" stroke-linejoin="round"/>
<path d="M195.47 136.596C193.303 137.547 182.676 145.825 182.676 145.825" stroke="white" stroke-width="1.59954" stroke-miterlimit="10" stroke-linecap="round" stroke-linejoin="round"/>
<path d="M358.233 151.845C360.513 153.138 372.9 162.634 372.9 162.634" stroke="white" stroke-width="1.59954" stroke-miterlimit="10" stroke-linecap="round" stroke-linejoin="round"/>
<path d="M196.603 185.706C196.603 185.706 186.796 191.245 184.776 192.765C182.763 194.285 201.903 222.118 190.823 231.226C179.736 240.334 150.015 232.747 150.015 232.747L168.156 227.972L151.522 224.65C151.522 224.65 160.949 223.866 168.002 220.832C175.056 217.799 165.749 205.476 162.222 194.339C158.696 183.201 168.736 176.477 178.816 173.953" stroke="white" stroke-width="1.59954" stroke-miterlimit="10" stroke-linecap="round" stroke-linejoin="round"/>
<path d="M343.679 207.157C343.759 207.204 355.666 217.551 353.859 220.752C350.073 227.456 343.032 233.812 343.032 233.812L358.273 226.351L346.699 241.172C346.699 241.172 374.94 229.157 378.286 215.167C381.627 201.176 355.639 190.769 358.226 177.073C359.126 172.332 364.206 167.121 364.206 167.121" stroke="white" stroke-width="1.59954" stroke-miterlimit="10" stroke-linecap="round" stroke-linejoin="round"/>
<path d="M330.206 189.43V189.436C331.519 191.532 333.299 193.883 335.239 196.348L343.839 207.378" stroke="white" stroke-width="1.59954" stroke-miterlimit="10" stroke-linecap="round" stroke-linejoin="round"/>
</g>
<path fill-rule="evenodd" clip-rule="evenodd" d="M180 0H160H140H120H100H80H60H40V20H20H0V40H20V60H40V40H60H80H100H120H140V20H160H180V0ZM60 80V60H40V80H60ZM60 80V100H80V80H60Z" fill="url(#paint4_linear)"/>
<path d="M60.1409 15.3188C59.4476 15.3188 58.8183 15.2015 58.2529 14.9668C57.6876 14.7321 57.1969 14.3908 56.7809 13.9428C56.3756 13.4841 56.0609 12.9241 55.8369 12.2628C55.6129 11.5908 55.5009 10.8228 55.5009 9.95879V9.09479C55.5009 8.27345 55.6129 7.54279 55.8369 6.90279C56.0716 6.25212 56.3916 5.70812 56.7969 5.27079C57.2023 4.82279 57.6876 4.48145 58.2529 4.24679C58.8289 4.01212 59.4583 3.89479 60.1409 3.89479C60.8236 3.89479 61.4476 4.01212 62.0129 4.24679C62.5889 4.47079 63.0796 4.80679 63.4849 5.25479C63.9009 5.69212 64.2209 6.23612 64.4449 6.88679C64.6689 7.52679 64.7809 8.26279 64.7809 9.09479V9.95879C64.7809 10.8228 64.6636 11.5908 64.4289 12.2628C64.2049 12.9241 63.8903 13.4841 63.4849 13.9428C63.0796 14.3908 62.5889 14.7321 62.0129 14.9668C61.4476 15.2015 60.8236 15.3188 60.1409 15.3188ZM60.1409 14.2948C60.6529 14.2948 61.1223 14.2041 61.5489 14.0228C61.9756 13.8415 62.3436 13.5695 62.6529 13.2068C62.9623 12.8441 63.2023 12.3961 63.3729 11.8628C63.5436 11.3188 63.6289 10.6841 63.6289 9.95879V9.09479C63.6289 8.42279 63.5383 7.83079 63.3569 7.31879C63.1863 6.79612 62.9463 6.35879 62.6369 6.00679C62.3276 5.64412 61.9596 5.37212 61.5329 5.19079C61.1063 5.00945 60.6423 4.91879 60.1409 4.91879C59.6289 4.91879 59.1596 5.00945 58.7329 5.19079C58.3063 5.37212 57.9383 5.63879 57.6289 5.99079C57.3196 6.34279 57.0796 6.78012 56.9089 7.30279C56.7383 7.81479 56.6529 8.41212 56.6529 9.09479V9.95879C56.6529 10.6735 56.7383 11.3028 56.9089 11.8468C57.0903 12.3801 57.3356 12.8281 57.6449 13.1908C57.9543 13.5535 58.3223 13.8308 58.7489 14.0228C59.1756 14.2041 59.6396 14.2948 60.1409 14.2948ZM67.1803 7.20679H72.3003V8.16679H68.2363V15.2068H67.1803V7.20679ZM76.7047 15.3188C75.6274 15.3188 74.7687 14.9881 74.1287 14.3268C73.4994 13.6655 73.1847 12.7161 73.1847 11.4788V10.9348C73.1847 10.3268 73.2647 9.78279 73.4247 9.30279C73.5954 8.82279 73.8354 8.42279 74.1447 8.10279C74.454 7.77212 74.822 7.52145 75.2487 7.35079C75.686 7.18012 76.1714 7.09479 76.7047 7.09479C77.782 7.09479 78.6354 7.42545 79.2647 8.08679C79.9047 8.74812 80.2247 9.69745 80.2247 10.9348V11.4788C80.2247 12.0868 80.1394 12.6308 79.9687 13.1108C79.8087 13.5908 79.574 13.9961 79.2647 14.3268C78.9554 14.6468 78.582 14.8921 78.1447 15.0628C77.718 15.2335 77.238 15.3188 76.7047 15.3188ZM76.7047 14.3588C77.4407 14.3588 78.0274 14.1188 78.4647 13.6388C78.9127 13.1588 79.1367 12.4388 79.1367 11.4788V10.9348C79.1367 9.98545 78.9127 9.27079 78.4647 8.79079C78.0167 8.30012 77.43 8.05479 76.7047 8.05479C75.9687 8.05479 75.3767 8.29479 74.9287 8.77479C74.4914 9.25479 74.2727 9.97479 74.2727 10.9348V11.4788C74.2727 12.4281 74.4967 13.1481 74.9447 13.6388C75.3927 14.1188 75.9794 14.3588 76.7047 14.3588ZM82.7891 13.8468H84.0691L82.9491 17.6068H81.9891L82.7891 13.8468ZM94.0819 15.3188C92.9939 15.3188 92.1299 14.9721 91.4899 14.2788C90.8606 13.5748 90.5459 12.4815 90.5459 10.9988V10.1348C90.5459 9.52679 90.5726 8.95079 90.6259 8.40679C90.6793 7.86279 90.7699 7.36679 90.8979 6.91879C91.0366 6.47079 91.2233 6.07612 91.4579 5.73479C91.6926 5.38279 91.9966 5.09479 92.3699 4.87079C92.7006 4.67879 93.0259 4.55079 93.3459 4.48679C93.6766 4.41212 94.0233 4.35879 94.3859 4.32679C94.7486 4.29479 95.1379 4.25745 95.5539 4.21479C95.9699 4.16145 96.4339 4.05479 96.9459 3.89479V4.87079C96.5406 5.02012 96.1459 5.11612 95.7619 5.15879C95.3886 5.20145 95.0259 5.23879 94.6739 5.27079C94.3326 5.30279 94.0073 5.34545 93.6979 5.39879C93.3886 5.45212 93.1059 5.55879 92.8499 5.71879C92.4553 5.97479 92.1566 6.33745 91.9539 6.80679C91.7619 7.27612 91.6339 7.88945 91.5699 8.64679H91.6019C91.8793 8.19879 92.2419 7.85745 92.6899 7.62279C93.1486 7.37745 93.6766 7.25479 94.2739 7.25479C94.7539 7.25479 95.1966 7.34012 95.6019 7.51079C96.0073 7.68145 96.3539 7.92679 96.6419 8.24679C96.9406 8.56679 97.1699 8.96145 97.3299 9.43079C97.5006 9.90012 97.5859 10.4281 97.5859 11.0148V11.5588C97.5859 12.1455 97.5006 12.6735 97.3299 13.1428C97.1593 13.6015 96.9193 13.9961 96.6099 14.3268C96.3113 14.6468 95.9433 14.8921 95.5059 15.0628C95.0793 15.2335 94.6046 15.3188 94.0819 15.3188ZM94.0819 14.3588C94.8073 14.3588 95.3886 14.1241 95.8259 13.6548C96.2739 13.1748 96.4979 12.4761 96.4979 11.5588V11.0148C96.4979 10.0975 96.2739 9.40412 95.8259 8.93479C95.3886 8.45479 94.8073 8.21479 94.0819 8.21479C93.3353 8.21479 92.7379 8.44945 92.2899 8.91879C91.8526 9.38812 91.6339 10.0868 91.6339 11.0148V11.5588C91.6339 12.4655 91.8579 13.1588 92.3059 13.6388C92.7539 14.1188 93.3459 14.3588 94.0819 14.3588ZM107.405 7.20679H108.461V15.2068H107.405V7.20679ZM99.8209 7.20679H100.877V10.0868H102.701C103.736 10.0868 104.498 10.3161 104.989 10.7748C105.49 11.2335 105.741 11.8575 105.741 12.6468C105.741 13.4255 105.49 14.0495 104.989 14.5188C104.488 14.9775 103.725 15.2068 102.701 15.2068H99.8209V7.20679ZM100.877 11.0468V14.2468H102.621C103.357 14.2468 103.88 14.1081 104.189 13.8308C104.498 13.5535 104.653 13.1588 104.653 12.6468C104.653 12.1348 104.493 11.7401 104.173 11.4628C103.864 11.1855 103.346 11.0468 102.621 11.0468H100.877ZM114.06 15.3188C113.559 15.3188 113.1 15.2388 112.684 15.0788C112.268 14.9081 111.911 14.6575 111.612 14.3268C111.324 13.9961 111.1 13.5855 110.94 13.0948C110.78 12.6041 110.7 12.0388 110.7 11.3988V10.8548C110.7 10.2575 110.78 9.72945 110.94 9.27079C111.111 8.80145 111.34 8.40679 111.628 8.08679C111.927 7.76679 112.279 7.52145 112.684 7.35079C113.1 7.18012 113.559 7.09479 114.06 7.09479C114.53 7.09479 114.951 7.15879 115.324 7.28679C115.698 7.40412 116.018 7.57479 116.284 7.79879C116.551 8.01212 116.764 8.26279 116.924 8.55079C117.084 8.82812 117.196 9.12679 117.26 9.44679H116.172C116.055 9.05212 115.836 8.72145 115.516 8.45479C115.196 8.18812 114.738 8.05479 114.14 8.05479C113.458 8.05479 112.892 8.29479 112.444 8.77479C112.007 9.25479 111.788 9.94812 111.788 10.8548V11.3988C111.788 12.3801 112.012 13.1215 112.46 13.6228C112.908 14.1135 113.468 14.3588 114.14 14.3588C114.738 14.3588 115.196 14.2201 115.516 13.9428C115.836 13.6655 116.055 13.2868 116.172 12.8068H117.26C117.196 13.1695 117.084 13.5055 116.924 13.8148C116.764 14.1135 116.551 14.3748 116.284 14.5988C116.018 14.8228 115.698 14.9988 115.324 15.1268C114.951 15.2548 114.53 15.3188 114.06 15.3188ZM120.89 8.16679H118.218V7.20679H124.618V8.16679H121.946V15.2068H120.89V8.16679ZM126.305 7.20679H127.137L127.265 8.40679H127.297C127.649 7.94812 128.039 7.61745 128.465 7.41479C128.892 7.20145 129.393 7.09479 129.969 7.09479C130.439 7.09479 130.871 7.18012 131.265 7.35079C131.66 7.51079 131.996 7.75612 132.273 8.08679C132.561 8.40679 132.785 8.80679 132.945 9.28679C133.105 9.76679 133.185 10.3161 133.185 10.9348V11.4788C133.185 12.0975 133.105 12.6468 132.945 13.1268C132.785 13.5961 132.561 13.9961 132.273 14.3268C131.985 14.6468 131.644 14.8921 131.249 15.0628C130.855 15.2335 130.428 15.3188 129.969 15.3188C128.817 15.3188 127.959 14.9081 127.393 14.0868H127.361V18.4068H126.305V7.20679ZM129.729 14.3588C130.433 14.3588 131.004 14.1241 131.441 13.6548C131.879 13.1748 132.097 12.4495 132.097 11.4788V10.9348C132.097 9.98545 131.873 9.27079 131.425 8.79079C130.988 8.30012 130.423 8.05479 129.729 8.05479C129.025 8.05479 128.455 8.29479 128.017 8.77479C127.58 9.24412 127.361 9.96412 127.361 10.9348V11.4788C127.361 12.4281 127.58 13.1481 128.017 13.6388C128.465 14.1188 129.036 14.3588 129.729 14.3588ZM138.47 15.3188C137.393 15.3188 136.534 14.9881 135.894 14.3268C135.265 13.6655 134.95 12.7161 134.95 11.4788V10.9348C134.95 10.3268 135.03 9.78279 135.19 9.30279C135.361 8.82279 135.601 8.42279 135.91 8.10279C136.22 7.77212 136.588 7.52145 137.014 7.35079C137.452 7.18012 137.937 7.09479 138.47 7.09479C139.548 7.09479 140.401 7.42545 141.03 8.08679C141.67 8.74812 141.99 9.69745 141.99 10.9348V11.4788C141.99 12.0868 141.905 12.6308 141.734 13.1108C141.574 13.5908 141.34 13.9961 141.03 14.3268C140.721 14.6468 140.348 14.8921 139.91 15.0628C139.484 15.2335 139.004 15.3188 138.47 15.3188ZM138.47 14.3588C139.206 14.3588 139.793 14.1188 140.23 13.6388C140.678 13.1588 140.902 12.4388 140.902 11.4788V10.9348C140.902 9.98545 140.678 9.27079 140.23 8.79079C139.782 8.30012 139.196 8.05479 138.47 8.05479C137.734 8.05479 137.142 8.29479 136.694 8.77479C136.257 9.25479 136.038 9.97479 136.038 10.9348V11.4788C136.038 12.4281 136.262 13.1481 136.71 13.6388C137.158 14.1188 137.745 14.3588 138.47 14.3588ZM148.227 7.20679H151.267C152.206 7.20679 152.894 7.40412 153.331 7.79879C153.769 8.19345 153.987 8.72679 153.987 9.39879C153.987 9.75079 153.897 10.0708 153.715 10.3588C153.545 10.6468 153.299 10.8708 152.979 11.0308V11.0628C153.417 11.2335 153.747 11.4788 153.971 11.7988C154.195 12.1188 154.307 12.4921 154.307 12.9188C154.307 13.6335 154.089 14.1935 153.651 14.5988C153.214 15.0041 152.526 15.2068 151.587 15.2068H148.227V7.20679ZM152.899 9.41479C152.899 9.02012 152.771 8.71612 152.515 8.50279C152.259 8.27879 151.817 8.16679 151.187 8.16679H149.283V10.6788H151.187C151.817 10.6788 152.259 10.5721 152.515 10.3588C152.771 10.1348 152.899 9.82012 152.899 9.41479ZM153.219 12.9028C153.219 12.4655 153.091 12.1348 152.835 11.9108C152.579 11.6868 152.137 11.5748 151.507 11.5748H149.283V14.2468H151.507C152.137 14.2468 152.579 14.1348 152.835 13.9108C153.091 13.6868 153.219 13.3508 153.219 12.9028ZM164.124 7.20679H165.18V15.2068H164.124V7.20679ZM156.54 7.20679H157.596V10.0868H159.42C160.454 10.0868 161.217 10.3161 161.708 10.7748C162.209 11.2335 162.46 11.8575 162.46 12.6468C162.46 13.4255 162.209 14.0495 161.708 14.5188C161.206 14.9775 160.444 15.2068 159.42 15.2068H156.54V7.20679ZM157.596 11.0468V14.2468H159.34C160.076 14.2468 160.598 14.1081 160.908 13.8308C161.217 13.5535 161.372 13.1588 161.372 12.6468C161.372 12.1348 161.212 11.7401 160.892 11.4628C160.582 11.1855 160.065 11.0468 159.34 11.0468H157.596Z" fill="white"/>
<path d="M13.4822 34.112C12.9809 34.112 12.5222 34.032 12.1062 33.872C11.6902 33.7013 11.3329 33.4507 11.0342 33.12C10.7462 32.7893 10.5222 32.3787 10.3622 31.888C10.2022 31.3973 10.1222 30.832 10.1222 30.192V29.648C10.1222 29.0507 10.2022 28.5227 10.3622 28.064C10.5329 27.5947 10.7622 27.2 11.0502 26.88C11.3489 26.56 11.7009 26.3147 12.1062 26.144C12.5222 25.9733 12.9809 25.888 13.4822 25.888C13.9515 25.888 14.3729 25.952 14.7462 26.08C15.1195 26.1973 15.4395 26.368 15.7062 26.592C15.9729 26.8053 16.1862 27.056 16.3462 27.344C16.5062 27.6213 16.6182 27.92 16.6822 28.24H15.5942C15.4769 27.8453 15.2582 27.5147 14.9382 27.248C14.6182 26.9813 14.1595 26.848 13.5622 26.848C12.8795 26.848 12.3142 27.088 11.8662 27.568C11.4289 28.048 11.2102 28.7413 11.2102 29.648V30.192C11.2102 31.1733 11.4342 31.9147 11.8822 32.416C12.3302 32.9067 12.8902 33.152 13.5622 33.152C14.1595 33.152 14.6182 33.0133 14.9382 32.736C15.2582 32.4587 15.4769 32.08 15.5942 31.6H16.6822C16.6182 31.9627 16.5062 32.2987 16.3462 32.608C16.1862 32.9067 15.9729 33.168 15.7062 33.392C15.4395 33.616 15.1195 33.792 14.7462 33.92C14.3729 34.048 13.9515 34.112 13.4822 34.112ZM18.6803 26H19.7363V29.44H21.5283C21.5496 28.8853 21.6456 28.3893 21.8163 27.952C21.987 27.504 22.2216 27.1307 22.5203 26.832C22.819 26.5227 23.171 26.288 23.5763 26.128C23.9816 25.968 24.4243 25.888 24.9043 25.888C25.4056 25.888 25.8643 25.9733 26.2803 26.144C26.6963 26.3147 27.0483 26.5653 27.3363 26.896C27.635 27.216 27.8643 27.616 28.0243 28.096C28.195 28.5653 28.2803 29.1093 28.2803 29.728V30.272C28.2803 30.88 28.195 31.424 28.0243 31.904C27.8643 32.384 27.635 32.7893 27.3363 33.12C27.0376 33.44 26.6803 33.6853 26.2643 33.856C25.8483 34.0267 25.395 34.112 24.9043 34.112C24.403 34.112 23.9443 34.032 23.5283 33.872C23.123 33.7013 22.771 33.4613 22.4723 33.152C22.1843 32.832 21.955 32.4427 21.7843 31.984C21.6136 31.5253 21.5283 30.9973 21.5283 30.4H19.7363V34H18.6803V26ZM24.9043 33.152C25.5656 33.152 26.1096 32.912 26.5363 32.432C26.9736 31.952 27.1923 31.232 27.1923 30.272V29.728C27.1923 29.248 27.1336 28.832 27.0163 28.48C26.899 28.1173 26.739 27.8187 26.5363 27.584C26.3336 27.3387 26.0936 27.1573 25.8163 27.04C25.539 26.912 25.235 26.848 24.9043 26.848C24.2323 26.848 23.683 27.0827 23.2563 27.552C22.8296 28.0213 22.6163 28.72 22.6163 29.648V30.192C22.6163 31.184 22.8296 31.9253 23.2563 32.416C23.6936 32.9067 24.243 33.152 24.9043 33.152ZM29.3278 33.04H30.2078C30.3785 32.7733 30.5171 32.5013 30.6238 32.224C30.7411 31.9467 30.8318 31.632 30.8958 31.28C30.9705 30.928 31.0185 30.5227 31.0398 30.064C31.0718 29.5947 31.0878 29.04 31.0878 28.4V26H36.5278V33.04H37.5678V36.08H36.5438V34H30.3518V36.08H29.3278V33.04ZM35.4718 33.04V26.96H32.1118V28.4C32.1118 28.976 32.1011 29.4827 32.0798 29.92C32.0585 30.3573 32.0211 30.7573 31.9678 31.12C31.9145 31.472 31.8398 31.8027 31.7438 32.112C31.6478 32.4107 31.5305 32.7093 31.3918 33.008V33.04H35.4718ZM41.5572 34.112C40.6719 34.112 40.0105 33.9093 39.5732 33.504C39.1359 33.088 38.9172 32.5173 38.9172 31.792C38.9172 31.0347 39.1785 30.432 39.7012 29.984C40.2239 29.536 41.0559 29.312 42.1972 29.312H44.2612V28.72C44.2612 28.08 44.1065 27.616 43.7972 27.328C43.4879 27.0293 42.9812 26.88 42.2772 26.88C41.6265 26.88 41.1465 26.992 40.8372 27.216C40.5385 27.44 40.3679 27.728 40.3252 28.08H39.2372C39.2585 27.792 39.3385 27.5147 39.4772 27.248C39.6159 26.9813 39.8079 26.7467 40.0532 26.544C40.3092 26.3413 40.6239 26.1813 40.9972 26.064C41.3705 25.9467 41.7972 25.888 42.2772 25.888C43.3119 25.888 44.0745 26.128 44.5652 26.608C45.0665 27.0773 45.3172 27.7813 45.3172 28.72V34H44.4852L44.3572 32.64H44.3252C44.0052 33.12 43.6052 33.488 43.1252 33.744C42.6559 33.9893 42.1332 34.112 41.5572 34.112ZM41.6372 33.12C42.0212 33.12 42.3732 33.0613 42.6932 32.944C43.0132 32.816 43.2905 32.6453 43.5252 32.432C43.7599 32.208 43.9412 31.9467 44.0692 31.648C44.1972 31.3387 44.2612 31.0027 44.2612 30.64V30.208H42.2772C41.4559 30.208 40.8692 30.352 40.5172 30.64C40.1759 30.928 40.0052 31.312 40.0052 31.792C40.0052 32.1973 40.1332 32.5227 40.3892 32.768C40.6559 33.0027 41.0719 33.12 41.6372 33.12ZM50.9216 33.04H51.8016C51.9722 32.7733 52.1109 32.5013 52.2176 32.224C52.3349 31.9467 52.4256 31.632 52.4896 31.28C52.5642 30.928 52.6122 30.5227 52.6336 30.064C52.6656 29.5947 52.6816 29.04 52.6816 28.4V26H58.1216V33.04H59.1616V36.08H58.1376V34H51.9456V36.08H50.9216V33.04ZM57.0656 33.04V26.96H53.7056V28.4C53.7056 28.976 53.6949 29.4827 53.6736 29.92C53.6522 30.3573 53.6149 30.7573 53.5616 31.12C53.5082 31.472 53.4336 31.8027 53.3376 32.112C53.2416 32.4107 53.1242 32.7093 52.9856 33.008V33.04H57.0656ZM63.9547 34.112C62.8774 34.112 62.0187 33.7813 61.3787 33.12C60.7494 32.4587 60.4347 31.5093 60.4347 30.272V29.728C60.4347 29.12 60.5147 28.576 60.6747 28.096C60.8454 27.616 61.0854 27.216 61.3947 26.896C61.704 26.5653 62.072 26.3147 62.4987 26.144C62.936 25.9733 63.4214 25.888 63.9547 25.888C65.032 25.888 65.8854 26.2187 66.5147 26.88C67.1547 27.5413 67.4747 28.4907 67.4747 29.728V30.272C67.4747 30.88 67.3894 31.424 67.2187 31.904C67.0587 32.384 66.824 32.7893 66.5147 33.12C66.2054 33.44 65.832 33.6853 65.3947 33.856C64.968 34.0267 64.488 34.112 63.9547 34.112ZM63.9547 33.152C64.6907 33.152 65.2774 32.912 65.7147 32.432C66.1627 31.952 66.3867 31.232 66.3867 30.272V29.728C66.3867 28.7787 66.1627 28.064 65.7147 27.584C65.2667 27.0933 64.68 26.848 63.9547 26.848C63.2187 26.848 62.6267 27.088 62.1787 27.568C61.7414 28.048 61.5227 28.768 61.5227 29.728V30.272C61.5227 31.2213 61.7467 31.9413 62.1947 32.432C62.6427 32.912 63.2294 33.152 63.9547 33.152ZM72.8476 34.112C71.7596 34.112 70.8956 33.7653 70.2556 33.072C69.6262 32.368 69.3116 31.2747 69.3116 29.792V28.928C69.3116 28.32 69.3382 27.744 69.3916 27.2C69.4449 26.656 69.5356 26.16 69.6636 25.712C69.8022 25.264 69.9889 24.8693 70.2236 24.528C70.4582 24.176 70.7622 23.888 71.1356 23.664C71.4662 23.472 71.7916 23.344 72.1116 23.28C72.4422 23.2053 72.7889 23.152 73.1516 23.12C73.5142 23.088 73.9036 23.0507 74.3196 23.008C74.7356 22.9547 75.1996 22.848 75.7116 22.688V23.664C75.3062 23.8133 74.9116 23.9093 74.5276 23.952C74.1542 23.9947 73.7916 24.032 73.4396 24.064C73.0982 24.096 72.7729 24.1387 72.4636 24.192C72.1542 24.2453 71.8716 24.352 71.6156 24.512C71.2209 24.768 70.9222 25.1307 70.7196 25.6C70.5276 26.0693 70.3996 26.6827 70.3356 27.44H70.3676C70.6449 26.992 71.0076 26.6507 71.4556 26.416C71.9142 26.1707 72.4422 26.048 73.0396 26.048C73.5196 26.048 73.9622 26.1333 74.3676 26.304C74.7729 26.4747 75.1196 26.72 75.4076 27.04C75.7062 27.36 75.9356 27.7547 76.0956 28.224C76.2662 28.6933 76.3516 29.2213 76.3516 29.808V30.352C76.3516 30.9387 76.2662 31.4667 76.0956 31.936C75.9249 32.3947 75.6849 32.7893 75.3756 33.12C75.0769 33.44 74.7089 33.6853 74.2716 33.856C73.8449 34.0267 73.3702 34.112 72.8476 34.112ZM72.8476 33.152C73.5729 33.152 74.1542 32.9173 74.5916 32.448C75.0396 31.968 75.2636 31.2693 75.2636 30.352V29.808C75.2636 28.8907 75.0396 28.1973 74.5916 27.728C74.1542 27.248 73.5729 27.008 72.8476 27.008C72.1009 27.008 71.5036 27.2427 71.0556 27.712C70.6182 28.1813 70.3996 28.88 70.3996 29.808V30.352C70.3996 31.2587 70.6236 31.952 71.0716 32.432C71.5196 32.912 72.1116 33.152 72.8476 33.152ZM78.5866 26H79.4186L79.5466 27.2H79.5786C79.9306 26.7413 80.3199 26.4107 80.7466 26.208C81.1732 25.9947 81.6746 25.888 82.2506 25.888C82.7199 25.888 83.1519 25.9733 83.5466 26.144C83.9412 26.304 84.2772 26.5493 84.5546 26.88C84.8426 27.2 85.0666 27.6 85.2266 28.08C85.3866 28.56 85.4666 29.1093 85.4666 29.728V30.272C85.4666 30.8907 85.3866 31.44 85.2266 31.92C85.0666 32.3893 84.8426 32.7893 84.5546 33.12C84.2666 33.44 83.9252 33.6853 83.5306 33.856C83.1359 34.0267 82.7092 34.112 82.2506 34.112C81.0986 34.112 80.2399 33.7013 79.6746 32.88H79.6426V37.2H78.5866V26ZM82.0106 33.152C82.7146 33.152 83.2852 32.9173 83.7226 32.448C84.1599 31.968 84.3786 31.2427 84.3786 30.272V29.728C84.3786 28.7787 84.1546 28.064 83.7066 27.584C83.2692 27.0933 82.7039 26.848 82.0106 26.848C81.3066 26.848 80.7359 27.088 80.2986 27.568C79.8612 28.0373 79.6426 28.7573 79.6426 29.728V30.272C79.6426 31.2213 79.8612 31.9413 80.2986 32.432C80.7466 32.912 81.3172 33.152 82.0106 33.152ZM89.7916 34.112C88.9062 34.112 88.2449 33.9093 87.8076 33.504C87.3702 33.088 87.1516 32.5173 87.1516 31.792C87.1516 31.0347 87.4129 30.432 87.9356 29.984C88.4582 29.536 89.2902 29.312 90.4316 29.312H92.4956V28.72C92.4956 28.08 92.3409 27.616 92.0316 27.328C91.7222 27.0293 91.2156 26.88 90.5116 26.88C89.8609 26.88 89.3809 26.992 89.0716 27.216C88.7729 27.44 88.6022 27.728 88.5596 28.08H87.4716C87.4929 27.792 87.5729 27.5147 87.7116 27.248C87.8502 26.9813 88.0422 26.7467 88.2876 26.544C88.5436 26.3413 88.8582 26.1813 89.2316 26.064C89.6049 25.9467 90.0316 25.888 90.5116 25.888C91.5462 25.888 92.3089 26.128 92.7996 26.608C93.3009 27.0773 93.5516 27.7813 93.5516 28.72V34H92.7196L92.5916 32.64H92.5596C92.2396 33.12 91.8396 33.488 91.3596 33.744C90.8902 33.9893 90.3676 34.112 89.7916 34.112ZM89.8716 33.12C90.2556 33.12 90.6076 33.0613 90.9276 32.944C91.2476 32.816 91.5249 32.6453 91.7596 32.432C91.9942 32.208 92.1756 31.9467 92.3036 31.648C92.4316 31.3387 92.4956 31.0027 92.4956 30.64V30.208H90.5116C89.6902 30.208 89.1036 30.352 88.7516 30.64C88.4102 30.928 88.2396 31.312 88.2396 31.792C88.2396 32.1973 88.3676 32.5227 88.6236 32.768C88.8902 33.0027 89.3062 33.12 89.8716 33.12ZM95.1559 33.152H95.3959C95.7266 33.152 95.9826 33.04 96.1639 32.816C96.3453 32.592 96.4786 32.2667 96.5639 31.84C96.6599 31.4133 96.7133 30.896 96.7239 30.288C96.7453 29.68 96.7559 28.9973 96.7559 28.24V26H102.196V34H101.14V26.96H97.8119V28.24C97.8119 29.104 97.7959 29.8933 97.7639 30.608C97.7426 31.3227 97.6519 31.9413 97.4919 32.464C97.3426 32.9867 97.1026 33.392 96.7719 33.68C96.4519 33.968 95.9933 34.112 95.3959 34.112H95.1559V33.152ZM104.915 26H105.971V32.8H106.003L110.003 26H111.475V34H110.419V27.2H110.387L106.387 34H104.915V26ZM117.076 34.112C116.575 34.112 116.116 34.032 115.7 33.872C115.284 33.7013 114.927 33.4507 114.628 33.12C114.34 32.7893 114.116 32.3787 113.956 31.888C113.796 31.3973 113.716 30.832 113.716 30.192V29.648C113.716 29.0507 113.796 28.5227 113.956 28.064C114.127 27.5947 114.356 27.2 114.644 26.88C114.943 26.56 115.295 26.3147 115.7 26.144C116.116 25.9733 116.575 25.888 117.076 25.888C117.545 25.888 117.967 25.952 118.34 26.08C118.713 26.1973 119.033 26.368 119.3 26.592C119.567 26.8053 119.78 27.056 119.94 27.344C120.1 27.6213 120.212 27.92 120.276 28.24H119.188C119.071 27.8453 118.852 27.5147 118.532 27.248C118.212 26.9813 117.753 26.848 117.156 26.848C116.473 26.848 115.908 27.088 115.46 27.568C115.023 28.048 114.804 28.7413 114.804 29.648V30.192C114.804 31.1733 115.028 31.9147 115.476 32.416C115.924 32.9067 116.484 33.152 117.156 33.152C117.753 33.152 118.212 33.0133 118.532 32.736C118.852 32.4587 119.071 32.08 119.188 31.6H120.276C120.212 31.9627 120.1 32.2987 119.94 32.608C119.78 32.9067 119.567 33.168 119.3 33.392C119.033 33.616 118.713 33.792 118.34 33.92C117.967 34.048 117.545 34.112 117.076 34.112ZM122.274 26H123.33V28.88H125.154C126.189 28.88 126.951 29.1093 127.442 29.568C127.943 30.0267 128.194 30.6507 128.194 31.44C128.194 32.2187 127.943 32.8427 127.442 33.312C126.941 33.7707 126.178 34 125.154 34H122.274V26ZM123.33 29.84V33.04H125.074C125.81 33.04 126.333 32.9013 126.642 32.624C126.951 32.3467 127.106 31.952 127.106 31.44C127.106 30.928 126.946 30.5333 126.626 30.256C126.317 29.9787 125.799 29.84 125.074 29.84H123.33Z" fill="white"/>
<defs>
<linearGradient id="paint0_linear" x1="155.64" y1="277.905" x2="139.372" y2="-12.6959" gradientUnits="userSpaceOnUse">
<stop stop-color="#3FFFD8"/>
<stop offset="0.4888" stop-color="#B9C3FC"/>
<stop offset="1" stop-color="#FF7EA7"/>
</linearGradient>
<linearGradient id="paint1_linear" x1="287.236" y1="232.09" x2="281.332" y2="126.626" gradientUnits="userSpaceOnUse">
<stop stop-color="#3FFFD8"/>
<stop offset="0.4888" stop-color="#B9C3FC"/>
<stop offset="1" stop-color="#FF7EA7"/>
</linearGradient>
<linearGradient id="paint2_linear" x1="278.69" y1="246.567" x2="266.73" y2="32.9363" gradientUnits="userSpaceOnUse">
<stop stop-color="#3FFFD8"/>
<stop offset="0.4888" stop-color="#B9C3FC"/>
<stop offset="1" stop-color="#FF7EA7"/>
</linearGradient>
<linearGradient id="paint3_linear" x1="267.573" y1="260.274" x2="251.282" y2="-30.7309" gradientUnits="userSpaceOnUse">
<stop stop-color="#3FFFD8"/>
<stop offset="0.4888" stop-color="#B9C3FC"/>
<stop offset="1" stop-color="#FF7EA7"/>
</linearGradient>
<linearGradient id="paint4_linear" x1="179.981" y1="50" x2="0.0115308" y2="50" gradientUnits="userSpaceOnUse">
<stop stop-color="#68FFE0"/>
<stop offset="0.572917" stop-color="#B9C3FC"/>
<stop offset="1" stop-color="#FF7EA7"/>
</linearGradient>
<clipPath id="clip0">
<rect width="367.988" height="146.828" fill="white" transform="matrix(-1 0 0 1 413.987 95)"/>
</clipPath>
</defs>
</svg>
