<svg width="382" height="295" viewBox="0 0 382 295" fill="none" xmlns="http://www.w3.org/2000/svg">
<path fill-rule="evenodd" clip-rule="evenodd" d="M80 0H100H120H140V20H120V40H140V60H120H100H80H60V40H40H20H0V20H20H40H60H80V0ZM140 60H160V80H140V60Z" fill="url(#paint0_linear)"/>
<path d="M94.9369 3.8H96.2169L100.377 15H99.1609L97.9929 11.752H93.0969L91.9289 15H90.7769L94.9369 3.8ZM97.6249 10.728L95.5769 5H95.5449L93.4649 10.728H97.6249ZM106.219 7H109.259C110.198 7 110.886 7.19733 111.323 7.592C111.761 7.98667 111.979 8.52 111.979 9.192C111.979 9.544 111.889 9.864 111.707 10.152C111.537 10.44 111.291 10.664 110.971 10.824V10.856C111.409 11.0267 111.739 11.272 111.963 11.592C112.187 11.912 112.299 12.2853 112.299 12.712C112.299 13.4267 112.081 13.9867 111.643 14.392C111.206 14.7973 110.518 15 109.579 15H106.219V7ZM110.891 9.208C110.891 8.81333 110.763 8.50933 110.507 8.296C110.251 8.072 109.809 7.96 109.179 7.96H107.275V10.472H109.179C109.809 10.472 110.251 10.3653 110.507 10.152C110.763 9.928 110.891 9.61333 110.891 9.208ZM111.211 12.696C111.211 12.2587 111.083 11.928 110.827 11.704C110.571 11.48 110.129 11.368 109.499 11.368H107.275V14.04H109.499C110.129 14.04 110.571 13.928 110.827 13.704C111.083 13.48 111.211 13.144 111.211 12.696ZM117.572 15.112C116.495 15.112 115.636 14.7813 114.996 14.12C114.367 13.4587 114.052 12.5093 114.052 11.272V10.728C114.052 10.12 114.132 9.576 114.292 9.096C114.463 8.616 114.703 8.216 115.012 7.896C115.321 7.56533 115.689 7.31467 116.116 7.144C116.553 6.97333 117.039 6.888 117.572 6.888C118.649 6.888 119.503 7.21867 120.132 7.88C120.772 8.54133 121.092 9.49067 121.092 10.728V11.272C121.092 11.88 121.007 12.424 120.836 12.904C120.676 13.384 120.441 13.7893 120.132 14.12C119.823 14.44 119.449 14.6853 119.012 14.856C118.585 15.0267 118.105 15.112 117.572 15.112ZM117.572 14.152C118.308 14.152 118.895 13.912 119.332 13.432C119.78 12.952 120.004 12.232 120.004 11.272V10.728C120.004 9.77867 119.78 9.064 119.332 8.584C118.884 8.09333 118.297 7.848 117.572 7.848C116.836 7.848 116.244 8.088 115.796 8.568C115.359 9.048 115.14 9.768 115.14 10.728V11.272C115.14 12.2213 115.364 12.9413 115.812 13.432C116.26 13.912 116.847 14.152 117.572 14.152ZM124.648 7.96H121.976V7H128.376V7.96H125.704V15H124.648V7.96Z" fill="white"/>
<path d="M16.6959 27H17.7519V33.8H17.7839L21.7839 27H23.2559V35H22.1999V28.2H22.1679L18.1679 35H16.6959V27ZM33.6892 35.112H33.0972C32.5532 35.112 32.0572 35.0267 31.6092 34.856C31.1719 34.6747 30.7932 34.4187 30.4732 34.088C30.1639 33.7467 29.9239 33.3413 29.7532 32.872C29.5825 32.4027 29.4972 31.8693 29.4972 31.272V30.728C29.4972 30.1413 29.5825 29.6133 29.7532 29.144C29.9345 28.664 30.1799 28.2587 30.4892 27.928C30.8092 27.5973 31.1879 27.3413 31.6252 27.16C32.0732 26.9787 32.5639 26.888 33.0972 26.888H33.6892V23.8H34.7452V26.888H35.3372C35.8812 26.888 36.3719 26.9787 36.8092 27.16C37.2572 27.3307 37.6359 27.5867 37.9452 27.928C38.2652 28.2587 38.5105 28.664 38.6812 29.144C38.8519 29.6133 38.9372 30.1413 38.9372 30.728V31.272C38.9372 31.8587 38.8465 32.392 38.6652 32.872C38.4945 33.3413 38.2492 33.7413 37.9292 34.072C37.6199 34.4027 37.2412 34.6587 36.7932 34.84C36.3559 35.0213 35.8705 35.112 35.3372 35.112H34.7452V38.2H33.6892V35.112ZM37.8492 30.728C37.8492 29.8107 37.6199 29.1067 37.1612 28.616C36.7132 28.1253 36.1052 27.88 35.3372 27.88H34.7452V34.12H35.3372C36.1052 34.12 36.7132 33.88 37.1612 33.4C37.6199 32.9093 37.8492 32.2 37.8492 31.272V30.728ZM30.5852 31.272C30.5852 32.1893 30.8092 32.8933 31.2572 33.384C31.7159 33.8747 32.3292 34.12 33.0972 34.12H33.6892V27.88H33.0972C32.3292 27.88 31.7159 28.1253 31.2572 28.616C30.8092 29.096 30.5852 29.8 30.5852 30.728V31.272ZM41.1803 27H42.2363V33.8H42.2683L46.2683 27H47.7403V35H46.6843V28.2H46.6523L42.6523 35H41.1803V27ZM50.4616 27H51.5176V30.44H55.9656V27H57.0216V35H55.9656V31.4H51.5176V35H50.4616V27ZM59.7428 27H60.7988V33.8H60.8308L64.8308 27H66.3028V35H65.2468V28.2H65.2148L61.2148 35H59.7428V27ZM69.0241 27H70.0801V34.04H73.2161V27H74.2721V34.04H77.4081V27H78.4641V35H69.0241V27ZM81.1803 27H82.2363V30.44H86.6843V27H87.7403V35H86.6843V31.4H82.2363V35H81.1803V27ZM92.5416 35.112C91.6562 35.112 90.9949 34.9093 90.5576 34.504C90.1202 34.088 89.9016 33.5173 89.9016 32.792C89.9016 32.0347 90.1629 31.432 90.6856 30.984C91.2082 30.536 92.0402 30.312 93.1816 30.312H95.2456V29.72C95.2456 29.08 95.0909 28.616 94.7816 28.328C94.4722 28.0293 93.9656 27.88 93.2616 27.88C92.6109 27.88 92.1309 27.992 91.8216 28.216C91.5229 28.44 91.3522 28.728 91.3096 29.08H90.2216C90.2429 28.792 90.3229 28.5147 90.4616 28.248C90.6002 27.9813 90.7922 27.7467 91.0376 27.544C91.2936 27.3413 91.6082 27.1813 91.9816 27.064C92.3549 26.9467 92.7816 26.888 93.2616 26.888C94.2962 26.888 95.0589 27.128 95.5496 27.608C96.0509 28.0773 96.3016 28.7813 96.3016 29.72V35H95.4696L95.3416 33.64H95.3096C94.9896 34.12 94.5896 34.488 94.1096 34.744C93.6402 34.9893 93.1176 35.112 92.5416 35.112ZM92.6216 34.12C93.0056 34.12 93.3576 34.0613 93.6776 33.944C93.9976 33.816 94.2749 33.6453 94.5096 33.432C94.7442 33.208 94.9256 32.9467 95.0536 32.648C95.1816 32.3387 95.2456 32.0027 95.2456 31.64V31.208H93.2616C92.4402 31.208 91.8536 31.352 91.5016 31.64C91.1602 31.928 90.9896 32.312 90.9896 32.792C90.9896 33.1973 91.1176 33.5227 91.3736 33.768C91.6402 34.0027 92.0562 34.12 92.6216 34.12ZM100.098 31.8C99.5539 31.6187 99.1593 31.336 98.9139 30.952C98.6686 30.568 98.5459 30.088 98.5459 29.512C98.5459 28.712 98.7913 28.0933 99.2819 27.656C99.7833 27.2187 100.605 27 101.746 27H104.306V35H103.25V32.024H101.746C101.639 32.024 101.533 32.024 101.426 32.024C101.33 32.024 101.234 32.0187 101.138 32.008L99.4419 35H98.2259L100.098 31.8ZM99.6339 29.512C99.6339 30.0133 99.7939 30.3973 100.114 30.664C100.434 30.9307 101.005 31.064 101.826 31.064H103.25V27.96H101.826C101.005 27.96 100.434 28.0933 100.114 28.36C99.7939 28.6267 99.6339 29.0107 99.6339 29.512Z" fill="white"/>
<path d="M74.5631 46H80.8031V54H79.7471V46.96H75.6191V54H74.5631V46ZM83.5163 46H84.3483L84.4763 47.2H84.5082C84.8603 46.7413 85.2496 46.4107 85.6763 46.208C86.1029 45.9947 86.6043 45.888 87.1803 45.888C87.6496 45.888 88.0816 45.9733 88.4763 46.144C88.8709 46.304 89.2069 46.5493 89.4843 46.88C89.7723 47.2 89.9963 47.6 90.1562 48.08C90.3163 48.56 90.3963 49.1093 90.3963 49.728V50.272C90.3963 50.8907 90.3163 51.44 90.1562 51.92C89.9963 52.3893 89.7723 52.7893 89.4843 53.12C89.1963 53.44 88.8549 53.6853 88.4603 53.856C88.0656 54.0267 87.6389 54.112 87.1803 54.112C86.0283 54.112 85.1696 53.7013 84.6043 52.88H84.5723V57.2H83.5163V46ZM86.9403 53.152C87.6443 53.152 88.2149 52.9173 88.6523 52.448C89.0896 51.968 89.3083 51.2427 89.3083 50.272V49.728C89.3083 48.7787 89.0843 48.064 88.6363 47.584C88.1989 47.0933 87.6336 46.848 86.9403 46.848C86.2363 46.848 85.6656 47.088 85.2283 47.568C84.7909 48.0373 84.5723 48.7573 84.5723 49.728V50.272C84.5723 51.2213 84.7909 51.9413 85.2283 52.432C85.6763 52.912 86.2469 53.152 86.9403 53.152ZM93.7933 50.8C93.2493 50.6187 92.8546 50.336 92.6093 49.952C92.3639 49.568 92.2413 49.088 92.2413 48.512C92.2413 47.712 92.4866 47.0933 92.9773 46.656C93.4786 46.2187 94.2999 46 95.4413 46H98.0013V54H96.9453V51.024H95.4413C95.3346 51.024 95.2279 51.024 95.1213 51.024C95.0253 51.024 94.9293 51.0187 94.8333 51.008L93.1373 54H91.9213L93.7933 50.8ZM93.3293 48.512C93.3293 49.0133 93.4893 49.3973 93.8093 49.664C94.1293 49.9307 94.6999 50.064 95.5213 50.064H96.9453V46.96H95.5213C94.6999 46.96 94.1293 47.0933 93.8093 47.36C93.4893 47.6267 93.3293 48.0107 93.3293 48.512ZM100.719 46H102.255L104.815 50.928H104.847L107.407 46H108.879V54H107.823V47.36H107.791L105.327 52.08H104.271L101.807 47.36H101.775V54H100.719V46ZM113.674 54.112C112.789 54.112 112.128 53.9093 111.69 53.504C111.253 53.088 111.034 52.5173 111.034 51.792C111.034 51.0347 111.296 50.432 111.818 49.984C112.341 49.536 113.173 49.312 114.314 49.312H116.378V48.72C116.378 48.08 116.224 47.616 115.914 47.328C115.605 47.0293 115.098 46.88 114.394 46.88C113.744 46.88 113.264 46.992 112.954 47.216C112.656 47.44 112.485 47.728 112.442 48.08H111.354C111.376 47.792 111.456 47.5147 111.594 47.248C111.733 46.9813 111.925 46.7467 112.17 46.544C112.426 46.3413 112.741 46.1813 113.114 46.064C113.488 45.9467 113.914 45.888 114.394 45.888C115.429 45.888 116.192 46.128 116.682 46.608C117.184 47.0773 117.434 47.7813 117.434 48.72V54H116.602L116.474 52.64H116.442C116.122 53.12 115.722 53.488 115.242 53.744C114.773 53.9893 114.25 54.112 113.674 54.112ZM113.754 53.12C114.138 53.12 114.49 53.0613 114.81 52.944C115.13 52.816 115.408 52.6453 115.642 52.432C115.877 52.208 116.058 51.9467 116.186 51.648C116.314 51.3387 116.378 51.0027 116.378 50.64V50.208H114.394C113.573 50.208 112.986 50.352 112.634 50.64C112.293 50.928 112.122 51.312 112.122 51.792C112.122 52.1973 112.25 52.5227 112.506 52.768C112.773 53.0027 113.189 53.12 113.754 53.12ZM121.231 50.8C120.687 50.6187 120.292 50.336 120.047 49.952C119.801 49.568 119.679 49.088 119.679 48.512C119.679 47.712 119.924 47.0933 120.415 46.656C120.916 46.2187 121.737 46 122.879 46H125.439V54H124.383V51.024H122.879C122.772 51.024 122.665 51.024 122.559 51.024C122.463 51.024 122.367 51.0187 122.271 51.008L120.575 54H119.359L121.231 50.8ZM120.767 48.512C120.767 49.0133 120.927 49.3973 121.247 49.664C121.567 49.9307 122.137 50.064 122.959 50.064H124.383V46.96H122.959C122.137 46.96 121.567 47.0933 121.247 47.36C120.927 47.6267 120.767 48.0107 120.767 48.512Z" fill="white"/>
<g clip-path="url(#clip0)">
<path d="M142.122 173.231C142.128 173.231 142.142 173.225 142.149 173.225C142.095 173.456 142.04 173.687 141.986 173.918C142.04 173.687 142.081 173.462 142.122 173.231Z" fill="url(#paint1_linear)"/>
<path d="M244.444 145.753C244.444 145.767 244.444 145.773 244.438 145.787C243.969 148.083 243.392 150.352 242.746 152.567C242.74 152.587 242.733 152.607 242.733 152.621C239.35 164.122 233.896 174.224 229.379 180.446C226.111 185.018 215.569 196.336 199.437 203.991C199.376 204.019 199.315 204.046 199.261 204.073C196.808 205.228 194.234 206.294 191.531 207.239C191.252 207.341 190.967 207.442 190.682 207.538C187.672 208.557 184.521 209.426 181.22 210.092C156.345 214.901 144.132 205.275 138.556 188.19C139.221 188.021 139.88 187.824 140.532 187.606C144.744 186.207 146.068 184.189 146.245 182.097C147.033 181.961 147.841 181.784 148.683 181.567C151.808 180.759 156.406 178.748 160.339 176.262C161.467 175.548 162.662 175.215 163.865 175.127C169.414 174.692 175.242 179.318 176.607 175.229C177.708 171.927 170.202 161.106 160.923 161.561C159.66 161.622 158.363 161.894 157.052 162.417C153.608 163.803 150.945 167.322 147.848 169.903C151.441 164.856 153.635 162.24 153.037 157.213C152.555 153.165 148.405 153.756 143.297 155.576C143.222 155.603 143.147 155.63 143.066 155.658C142.896 153.599 142.624 151.67 142.264 149.924C141.68 147.071 140.865 144.7 139.894 143.015C139.649 142.56 139.384 142.119 139.119 141.691C141.864 138.926 144.852 136.005 147.434 133.62C146.224 133.172 145.11 132.472 144.16 131.521C143.297 130.659 142.638 129.66 142.19 128.573C140.077 130.964 137.625 133.953 135.295 136.861C131.002 132.54 125.745 130.129 121.669 129.979C124.108 126.481 127.076 124.579 127.076 124.579L127.233 123.913L127.796 121.494V121.488L128.482 118.533L129.698 113.322L132.11 102.956C132.11 102.956 132.171 102.854 132.286 102.664C132.531 102.276 133.02 101.509 133.753 100.463C133.767 100.442 133.781 100.422 133.794 100.401C137.707 94.8107 148.351 81.4891 164.666 74.988C164.714 74.9744 164.754 74.954 164.802 74.9405C174.033 71.2789 185.078 69.8184 197.746 73.181C224.875 80.375 236.633 97.7929 241.768 111.013C241.918 111.386 242.06 111.76 242.196 112.14C242.583 113.207 242.93 114.239 243.235 115.231C243.242 115.245 243.249 115.252 243.249 115.265C244.825 120.346 245.409 124.402 245.64 126.379C246.292 132.846 245.742 139.429 244.444 145.753Z" fill="url(#paint2_linear)"/>
<path d="M127.021 223.284C125.867 222.666 124.4 213.549 134.65 193.563C135.512 191.872 136.307 190.207 137.034 188.563" stroke="white" stroke-width="1.66974" stroke-miterlimit="10" stroke-linecap="round" stroke-linejoin="round"/>
<path d="M76.1117 240.824C67.424 225.349 57.6699 179.787 99.2063 139.938C102.759 136.555 106.413 134.116 110.02 132.547" stroke="white" stroke-width="1.66974" stroke-miterlimit="10" stroke-linecap="round" stroke-linejoin="round"/>
<path d="M143.297 155.576C143.079 153.592 142.733 151.704 142.264 149.924C141.483 146.914 140.369 144.204 138.983 141.826" stroke="white" stroke-width="1.66974" stroke-miterlimit="10" stroke-linecap="round" stroke-linejoin="round"/>
<path d="M120.738 130.359C126.288 130.536 131.335 132.839 135.268 136.894" stroke="white" stroke-width="1.66974" stroke-miterlimit="10" stroke-linecap="round" stroke-linejoin="round"/>
<path d="M126.648 124.463C126.845 124.279 127.042 124.089 127.232 123.912C130.302 120.991 132.836 118.804 133.801 118.532H130.194H128.482H122.518C122.389 118.566 122.253 118.621 122.111 118.688C121.744 118.858 121.33 119.13 120.861 119.49" stroke="white" stroke-width="1.66974" stroke-miterlimit="10" stroke-linecap="round" stroke-linejoin="round"/>
<path d="M120.732 130.359H120.739C122.723 128.321 124.767 126.277 126.649 124.463C125.181 124.035 123.83 123.267 122.702 122.14C121.921 121.358 121.31 120.462 120.861 119.49C118.253 121.528 114.239 126.419 110.021 132.547" stroke="white" stroke-width="1.66974" stroke-miterlimit="10" stroke-linecap="round" stroke-linejoin="round"/>
<path d="M120.732 130.359C116.066 135.142 111.718 139.85 110.652 141.215L120.732 130.359Z" stroke="white" stroke-width="1.66974" stroke-miterlimit="10" stroke-linecap="round" stroke-linejoin="round"/>
<path d="M110.02 132.547C108.472 134.802 106.896 137.221 105.354 139.727L110.02 132.547Z" stroke="white" stroke-width="1.66974" stroke-miterlimit="10" stroke-linecap="round" stroke-linejoin="round"/>
<path d="M135.268 136.894C135.275 136.88 135.288 136.867 135.295 136.86C137.625 133.953 140.077 130.963 142.19 128.572C142.638 129.659 143.297 130.658 144.159 131.521C145.11 132.472 146.224 133.171 147.433 133.62C144.852 136.004 141.864 138.925 139.119 141.69C139.072 141.738 139.031 141.778 138.984 141.826" stroke="white" stroke-width="1.66974" stroke-miterlimit="10" stroke-linecap="round" stroke-linejoin="round"/>
<path d="M138.983 141.826C134.983 145.861 131.512 149.557 130.574 150.752" stroke="white" stroke-width="1.66974" stroke-miterlimit="10" stroke-linecap="round" stroke-linejoin="round"/>
<path d="M147.433 133.62C150.429 130.862 152.888 128.817 153.832 128.553L151.869 127.072L147.393 123.702C146.72 123.899 145.402 125.102 143.738 126.875C143.249 127.398 142.733 127.968 142.189 128.573" stroke="white" stroke-width="1.66974" stroke-miterlimit="10" stroke-linecap="round" stroke-linejoin="round"/>
<path d="M135.268 136.895C131.355 141.786 127.789 146.473 126.757 147.784" stroke="white" stroke-width="1.66974" stroke-miterlimit="10" stroke-linecap="round" stroke-linejoin="round"/>
<path d="M159.837 130.448C156.298 133.987 151.366 135.101 147.434 133.62C146.225 133.172 145.111 132.472 144.16 131.521C143.297 130.658 142.638 129.66 142.19 128.573C140.519 124.592 141.592 119.476 145.226 115.842C149.852 111.216 156.868 110.734 160.903 114.769C164.938 118.804 164.462 125.828 159.837 130.448Z" fill="white" stroke="white" stroke-width="1.66974" stroke-miterlimit="10" stroke-linecap="round" stroke-linejoin="round"/>
<path d="M138.379 121.073C135.166 124.286 130.799 125.496 127.076 124.578C126.934 124.544 126.791 124.511 126.648 124.463C125.181 124.035 123.829 123.267 122.702 122.14C121.921 121.358 121.309 120.462 120.861 119.49C119.014 115.469 120.046 110.19 123.768 106.461C126.207 104.022 129.304 102.738 132.286 102.663C134.962 102.589 137.537 103.485 139.445 105.394C143.48 109.43 143.005 116.447 138.379 121.073Z" fill="white" stroke="white" stroke-width="1.66974" stroke-miterlimit="10" stroke-linecap="round" stroke-linejoin="round"/>
<path d="M129.448 119.806C131.197 117.376 131.265 114.434 129.6 113.235C127.935 112.036 125.167 113.034 123.418 115.463C121.668 117.893 121.6 120.834 123.266 122.034C124.931 123.233 127.699 122.235 129.448 119.806Z" fill="black"/>
<path d="M150.748 129.34C152.497 126.911 152.565 123.969 150.9 122.77C149.235 121.571 146.467 122.568 144.717 124.998C142.968 127.427 142.9 130.369 144.565 131.568C146.231 132.767 148.999 131.77 150.748 129.34Z" fill="black"/>
<path d="M147.848 169.903C147.243 170.412 146.618 170.888 145.966 171.302C144.689 172.11 143.433 172.742 142.149 173.224C142.142 173.224 142.128 173.231 142.122 173.231C137.17 175.072 131.858 174.576 124.074 172.661C114.265 170.249 110.489 172.966 108.227 176.288L109.137 176.696C102.29 175.684 96.2177 174.631 89.0652 172.993C88.4063 171.288 88.0667 169.556 87.8493 167.831C87.0953 161.791 91.6259 153.789 102.643 153.49C113.661 153.191 112.302 163.001 126.546 161.56C127.497 161.465 128.577 161.214 129.739 160.861C133.733 159.652 138.725 157.233 143.066 155.657C143.147 155.63 143.222 155.603 143.297 155.576C148.405 153.755 152.555 153.164 153.037 157.213C153.635 162.24 151.441 164.855 147.848 169.903Z" stroke="white" stroke-width="1.66974" stroke-miterlimit="10" stroke-linecap="round" stroke-linejoin="round"/>
<path d="M142.149 173.225C142.095 173.456 142.04 173.687 141.986 173.918C142.04 173.687 142.081 173.462 142.122 173.231C142.128 173.231 142.142 173.225 142.149 173.225Z" fill="black" stroke="white" stroke-width="1.66974" stroke-miterlimit="10" stroke-linecap="round" stroke-linejoin="round"/>
<path d="M146.244 182.096C146.068 184.188 144.743 186.206 140.532 187.605C139.88 187.823 139.221 188.02 138.555 188.19C138.053 188.325 137.543 188.448 137.034 188.563C126.465 190.866 114.652 188.611 110.489 187.456C96.3194 183.523 91.1299 178.394 89.0649 172.993C96.2175 174.63 102.29 175.683 109.137 176.695C111.664 177.069 114.299 177.443 117.132 177.83C120.84 178.346 122.613 180.588 123.72 183.237L124.379 183.529C125.588 181.722 127.395 179.304 131.172 180.663C133.305 181.43 136.015 182.293 139.452 182.51C139.493 182.517 139.54 182.524 139.581 182.524C141.558 182.646 143.772 182.551 146.244 182.096Z" stroke="white" stroke-width="1.66974" stroke-miterlimit="10" stroke-linecap="round" stroke-linejoin="round"/>
<path d="M74.862 238.392C71.3707 238.113 65.3457 238.643 66.711 241.163C71.1329 246.645 86.8101 240.769 90.4713 246.014C94.1257 251.258 113.729 251.523 110.652 246.761C107.582 241.992 129.834 250.993 133.006 245.273C133.006 245.273 133.536 241.041 139.785 242.094C146.041 243.154 162.988 241.245 157.901 236.686C157.901 236.686 153.397 229.003 174.223 231.707C195.042 234.411 207.126 226.619 196.788 222.801C186.457 218.983 212.839 219.466 221.581 219.146C242.244 218.032 209.979 211.518 244.628 206.749C260.047 203.094 226.777 207.333 239.493 199.487C251.644 191.994 253.146 169.012 249.192 166.247C249.009 166.125 248.812 166.037 248.608 165.996C248.52 166.213 248.425 166.424 248.303 166.648C245.45 172.035 232.856 180.221 227.932 182.592" stroke="white" stroke-width="1.66974" stroke-miterlimit="10" stroke-linecap="round" stroke-linejoin="round"/>
<path d="M150.524 266.075C149.777 265.538 148.982 265.096 148.14 264.75C147.467 264.471 146.775 264.261 146.055 264.111C145.294 263.948 144.513 263.867 143.711 263.867C136.688 263.867 130.996 270.205 130.996 278.017C130.996 284.831 135.322 290.523 141.089 291.862L141.144 291.875C141.972 292.059 142.828 292.161 143.711 292.161C143.99 292.161 144.261 292.154 144.533 292.127" stroke="white" stroke-width="1.66974" stroke-miterlimit="10" stroke-linecap="round" stroke-linejoin="round"/>
<path d="M139.812 291.474L148.316 293.933" stroke="white" stroke-width="1.66974" stroke-miterlimit="10" stroke-linecap="round" stroke-linejoin="round"/>
<path d="M145.959 264.077L154.613 266.496" stroke="white" stroke-width="1.66974" stroke-miterlimit="10" stroke-linecap="round" stroke-linejoin="round"/>
<path d="M151.339 294.328C158.362 294.328 164.055 287.995 164.055 280.184C164.055 272.373 158.362 266.041 151.339 266.041C144.317 266.041 138.624 272.373 138.624 280.184C138.624 287.995 144.317 294.328 151.339 294.328Z" stroke="white" stroke-width="1.66974" stroke-miterlimit="10" stroke-linecap="round" stroke-linejoin="round"/>
<path d="M247.12 262.277C254.143 262.277 259.836 255.945 259.836 248.134C259.836 240.323 254.143 233.99 247.12 233.99C240.098 233.99 234.405 240.323 234.405 248.134C234.405 255.945 240.098 262.277 247.12 262.277Z" stroke="white" stroke-width="1.66974" stroke-miterlimit="10" stroke-linecap="round" stroke-linejoin="round"/>
<path d="M246.312 234.017C245.565 233.48 244.764 233.032 243.914 232.692C243.249 232.414 242.556 232.196 241.843 232.054C241.082 231.891 240.301 231.809 239.499 231.809C232.476 231.809 226.784 238.14 226.784 245.959C226.784 252.759 231.097 258.445 236.857 259.797C237.713 260.001 238.596 260.11 239.506 260.11C239.785 260.11 240.056 260.103 240.328 260.076" stroke="white" stroke-width="1.66974" stroke-miterlimit="10" stroke-linecap="round" stroke-linejoin="round"/>
<path d="M235.6 259.417L244.104 261.911" stroke="white" stroke-width="1.66974" stroke-miterlimit="10" stroke-linecap="round" stroke-linejoin="round"/>
<path d="M250.035 234.33L241.748 232.027" stroke="white" stroke-width="1.66974" stroke-miterlimit="10" stroke-linecap="round" stroke-linejoin="round"/>
<path d="M140.532 193.876C149.308 214.269 171.078 214.357 190.681 207.537C190.966 207.442 191.252 207.34 191.53 207.238C194.159 206.294 196.747 205.227 199.26 204.072C199.314 204.045 199.375 204.018 199.437 203.991C210.325 198.95 219.678 192.245 224.447 186.566C228.835 182.517 238.677 168.184 242.732 152.62C242.732 152.607 242.739 152.586 242.746 152.566C246.312 138.81 245.347 124.109 232.081 114.721C203.791 94.6945 178.04 124.259 178.04 124.259C166.873 136.738 161.127 150.168 160.923 161.56" stroke="white" stroke-width="1.66974" stroke-miterlimit="10" stroke-linecap="round" stroke-linejoin="round"/>
<path d="M203.791 148.735C211.419 150.324 206.012 168.129 194.886 160.82C182.171 151.282 203.153 126.799 217.458 142.695C231.763 158.592 204.898 193.244 183.923 188.475C174.047 186.784 167.376 181.913 163.865 175.126" stroke="white" stroke-width="1.66974" stroke-miterlimit="10" stroke-linecap="round" stroke-linejoin="round"/>
<path d="M132.585 102.582C135.343 96.6443 153.248 72.1139 181.858 71.6927C207.079 70.8436 234.201 87.1609 243.099 114.714C248.608 134.421 243.521 154.135 239.499 162.403" stroke="white" stroke-width="1.66974" stroke-miterlimit="10" stroke-linecap="round" stroke-linejoin="round"/>
<path d="M233.977 173.442C237.502 171.703 242.325 169.387 248.302 166.656" stroke="white" stroke-width="1.66974" stroke-miterlimit="10" stroke-linecap="round" stroke-linejoin="round"/>
<path d="M249.192 166.254C253.084 164.488 257.459 162.552 262.268 160.501C273.285 152.654 328.862 193.563 300.734 205.003C281.45 215.601 182.693 247.603 166.806 253.323C150.911 259.043 93.4802 274.308 69.7539 272.399C43.7181 270.313 6.39314 235.946 24.4001 237.223C46.9785 238.813 61.7862 232.964 71.7645 230.226" stroke="white" stroke-width="1.66974" stroke-miterlimit="10" stroke-linecap="round" stroke-linejoin="round"/>
<path d="M132.164 283.92C132.164 283.92 126.75 270.279 119.55 266.251" stroke="white" stroke-width="1.66974" stroke-miterlimit="10" stroke-linecap="round" stroke-linejoin="round"/>
<path d="M139.785 264.559C139.343 263.703 138.542 262.698 137.727 261.781" stroke="white" stroke-width="1.66974" stroke-miterlimit="10" stroke-linecap="round" stroke-linejoin="round"/>
<path d="M217.471 236.144C223.536 241.429 228.223 252.495 228.223 252.495" stroke="white" stroke-width="1.66974" stroke-miterlimit="10" stroke-linecap="round" stroke-linejoin="round"/>
<path d="M233.78 230.546C234.371 231.239 235.328 232.489 235.356 232.536" stroke="white" stroke-width="1.66974" stroke-miterlimit="10" stroke-linecap="round" stroke-linejoin="round"/>
<path d="M151.95 284.137C153.53 284.137 154.81 282.547 154.81 280.585C154.81 278.622 153.53 277.032 151.95 277.032C150.371 277.032 149.091 278.622 149.091 280.585C149.091 282.547 150.371 284.137 151.95 284.137Z" stroke="white" stroke-width="1.66974" stroke-miterlimit="10" stroke-linecap="round" stroke-linejoin="round"/>
<path d="M247.549 251.632C249.128 251.632 250.408 250.041 250.408 248.079C250.408 246.117 249.128 244.526 247.549 244.526C245.969 244.526 244.689 246.117 244.689 248.079C244.689 250.041 245.969 251.632 247.549 251.632Z" stroke="white" stroke-width="1.66974" stroke-miterlimit="10" stroke-linecap="round" stroke-linejoin="round"/>
<path d="M244.471 162.559C257.819 154.455 290.722 131.086 302.167 122.506L244.471 162.559Z" fill="black"/>
<path d="M244.471 162.559C257.819 154.455 290.722 131.086 302.167 122.506" stroke="white" stroke-width="1.66974" stroke-miterlimit="10" stroke-linecap="round" stroke-linejoin="round"/>
<path d="M249.722 149.686C259.258 140.624 301.691 92.9424 304.076 86.2646" stroke="white" stroke-width="1.66974" stroke-miterlimit="10" stroke-linecap="round" stroke-linejoin="round"/>
<path d="M92.0742 157.41C101.129 166.92 118.035 167.98 122.111 167.525C126.186 167.07 129.807 160.732 129.807 160.732" stroke="white" stroke-width="1.66974" stroke-miterlimit="10" stroke-linecap="round" stroke-linejoin="round"/>
<path d="M176.607 175.229C175.242 179.318 169.414 174.692 163.864 175.127C162.662 175.215 161.466 175.548 160.339 176.261C156.406 178.748 151.807 180.758 148.683 181.567C147.841 181.784 147.032 181.961 146.244 182.097C143.772 182.552 141.558 182.647 139.581 182.525C139.54 182.525 139.493 182.518 139.452 182.511C136.015 182.294 133.305 181.431 131.172 180.663C127.395 179.305 125.588 181.723 124.379 183.53L123.72 183.238C122.613 180.589 120.84 178.347 117.132 177.831C114.299 177.443 111.664 177.07 109.137 176.696L108.227 176.289C110.488 172.967 114.265 170.249 124.074 172.661C131.858 174.577 137.17 175.073 142.121 173.232C142.081 173.463 142.04 173.687 141.985 173.918C142.04 173.687 142.094 173.456 142.148 173.225C143.432 172.742 144.689 172.111 145.966 171.302C146.618 170.888 147.243 170.412 147.847 169.903C150.945 167.321 153.607 163.803 157.051 162.417C158.362 161.894 159.66 161.622 160.923 161.561C170.202 161.106 177.707 171.927 176.607 175.229Z" stroke="white" stroke-width="1.66974" stroke-miterlimit="10" stroke-linecap="round" stroke-linejoin="round"/>
<path d="M142.149 173.225C142.095 173.456 142.04 173.687 141.986 173.918C142.04 173.687 142.081 173.462 142.122 173.231C142.128 173.231 142.142 173.225 142.149 173.225Z" fill="black" stroke="white" stroke-width="1.66974" stroke-miterlimit="10" stroke-linecap="round" stroke-linejoin="round"/>
<path d="M125.676 189.494C125.038 187.572 124.576 185.283 123.72 183.238" stroke="white" stroke-width="1.66974" stroke-miterlimit="10" stroke-linecap="round" stroke-linejoin="round"/>
<path d="M89.0646 172.993C89.024 172.987 88.9834 172.973 88.9429 172.966" stroke="white" stroke-width="1.66974" stroke-miterlimit="10" stroke-linecap="round" stroke-linejoin="round"/>
</g>
<defs>
<linearGradient id="paint0_linear" x1="0.0169255" y1="40" x2="159.99" y2="40" gradientUnits="userSpaceOnUse">
<stop stop-color="#68FFE0"/>
<stop offset="0.572917" stop-color="#B9C3FC"/>
<stop offset="1" stop-color="#FF7EA7"/>
</linearGradient>
<linearGradient id="paint1_linear" x1="142.008" y1="174.034" x2="142.101" y2="173.29" gradientUnits="userSpaceOnUse">
<stop stop-color="#3FFFD8"/>
<stop offset="0.4888" stop-color="#B9C3FC"/>
<stop offset="1" stop-color="#FF7EA7"/>
</linearGradient>
<linearGradient id="paint2_linear" x1="171.12" y1="235.157" x2="189.56" y2="86.3793" gradientUnits="userSpaceOnUse">
<stop stop-color="#3FFFD8"/>
<stop offset="0.4888" stop-color="#B9C3FC"/>
<stop offset="1" stop-color="#FF7EA7"/>
</linearGradient>
<clipPath id="clip0">
<rect width="362.504" height="224" fill="white" transform="translate(19 71)"/>
</clipPath>
</defs>
</svg>
