<svg width="308" height="297" viewBox="0 0 308 297" fill="none" xmlns="http://www.w3.org/2000/svg">
<g clip-path="url(#clip0)">
<path d="M97.4141 88.581C97.3492 90.2572 90.268 97.0344 87.3538 90.6199C84.4357 84.2054 88.9579 79.8337 91.727 80.8531C94.4961 81.8726 97.2232 86.4391 97.4141 88.581Z" fill="url(#paint0_linear)"/>
<path d="M87.1017 95.469C87.1017 96.351 85.8489 97.065 84.3021 97.065C82.7552 97.065 81.5024 96.351 81.5024 95.469C81.5024 94.587 82.6903 93.7661 84.283 94.4534C85.9979 93.7661 87.1017 94.5909 87.1017 95.469Z" stroke="white" stroke-width="1.36265" stroke-miterlimit="10" stroke-linecap="round" stroke-linejoin="round"/>
<path d="M99.748 99.016C99.748 99.016 98.9612 99.436 97.739 100.066C96.9598 100.471 96.0049 100.963 94.9622 101.483V101.486C90.9366 103.506 85.639 106.018 84.3863 105.889C82.572 106.03 76.2203 102.662 72.0877 100.345V100.341C71.0832 99.7796 70.2124 99.2756 69.5669 98.9014C68.8298 98.4738 68.3867 98.2104 68.3867 98.2104C69.3454 94.4609 70.7548 88.7719 71.7478 85.2745C72.21 83.6632 72.5804 82.5178 72.7791 82.239C73.4169 81.3494 80.7387 76.7027 84.1762 75.8131C87.6137 74.9196 82.1786 78.314 82.6904 78.8256C87.3998 76.6607 89.3935 75.4313 90.4133 75.9391C87.4838 78.8676 87.4418 79.5892 88.4616 79.0776C89.4814 78.5698 97.0324 75.9391 97.1622 77.3403C95.6345 78.7378 93.1709 79.2074 93.0449 80.3529C94.9317 81.0287 96.2685 82.0481 97.0324 82.8958C97.2424 83.0027 97.5174 84.0488 97.8077 85.5646V85.5685L97.8115 85.5723C98.6976 90.1579 99.748 99.016 99.748 99.016Z" stroke="white" stroke-width="1.36265" stroke-miterlimit="10" stroke-linecap="round" stroke-linejoin="round"/>
<path d="M69.5668 98.9013C64.8117 99.5503 62.6002 93.6742 63.8033 92.231C64.7238 91.1275 69.2766 87.317 71.7477 85.2743C71.7592 85.2666 71.7707 85.2552 71.7821 85.2476" stroke="white" stroke-width="1.36265" stroke-miterlimit="10" stroke-linecap="round" stroke-linejoin="round"/>
<path d="M97.7388 100.066C101.784 101.792 105.649 96.4424 105.053 94.7738C104.587 93.468 100.145 88.2563 97.8113 85.5721L97.8075 85.5683V85.5645" stroke="white" stroke-width="1.36265" stroke-miterlimit="10" stroke-linecap="round" stroke-linejoin="round"/>
<path d="M72.0879 100.341V100.345L77.4198 109.436L80.991 115.522" stroke="white" stroke-width="1.36265" stroke-miterlimit="10" stroke-linecap="round" stroke-linejoin="round"/>
<path d="M94.9622 101.482V101.486L92.2007 107.851L89.9053 115.14" stroke="white" stroke-width="1.36265" stroke-miterlimit="10" stroke-linecap="round" stroke-linejoin="round"/>
<path d="M76.0254 94.522C76.4073 95.2856 79.0809 99.9934 83.7903 100.123C89.2635 100.379 92.0669 97.5765 93.2128 95.2856" stroke="white" stroke-width="1.36265" stroke-miterlimit="10" stroke-linecap="round" stroke-linejoin="round"/>
<path d="M91.5591 93.8843C91.5591 93.8843 93.9768 94.6479 94.2327 95.5375" stroke="white" stroke-width="1.36265" stroke-miterlimit="10" stroke-linecap="round" stroke-linejoin="round"/>
<path d="M77.3015 93.7163C77.3015 93.7163 74.8838 94.4799 74.6279 95.3696" stroke="white" stroke-width="1.36265" stroke-miterlimit="10" stroke-linecap="round" stroke-linejoin="round"/>
<path d="M72.3361 88.581C72.6111 90.3145 79.4822 97.0344 82.3964 90.6199C85.3145 84.2054 80.7923 79.8337 78.0232 80.8531C75.2541 81.8726 71.9961 85.6105 72.3361 88.581Z" fill="url(#paint1_linear)"/>
<path d="M62.8828 141.386C65.3654 131.921 68.081 121.925 68.5165 120.993C69.2536 119.416 73.7338 113.284 77.4195 109.436" stroke="white" stroke-width="1.36265" stroke-miterlimit="10" stroke-linecap="round" stroke-linejoin="round"/>
<path d="M68.0049 159.591C70.8542 161.11 73.5201 162.569 74.5896 163.161C76.8927 164.432 76.7093 165.146 76.7475 166.555C76.8736 171.393 75.9836 183.527 76.7475 184.542C77.5114 185.562 78.9552 180.3 79.0812 179.918C79.2111 179.537 78.4052 184.458 79.2951 184.97C80.185 185.478 81.5027 180.43 81.5027 180.43C81.5027 180.43 81.2468 185.52 82.1367 185.52C83.0305 185.52 82.2246 163.928 82.3506 162.653C82.4805 161.381 74.5399 152.978 71.4844 150.943C68.6809 147.72 79.2111 118.446 79.2111 118.446" stroke="white" stroke-width="1.36265" stroke-miterlimit="10" stroke-linecap="round" stroke-linejoin="round"/>
<path d="M74.5893 163.161C74.5893 163.161 65.3311 205.374 75.5174 245.846" stroke="white" stroke-width="1.36265" stroke-miterlimit="10" stroke-linecap="round" stroke-linejoin="round"/>
<path d="M94.7407 246.228C107.727 219.883 100.477 174.749 99.7251 165.211" stroke="white" stroke-width="1.36265" stroke-miterlimit="10" stroke-linecap="round" stroke-linejoin="round"/>
<path d="M92.1971 117.431C92.1971 117.431 104.079 148.568 102.975 151.03C101.872 153.489 91.9412 166.303 91.9412 166.303C90.1575 168.976 90.4974 182.763 91.9412 185.306C92.579 185.306 92.4071 181.236 93.045 180.98C93.6828 180.724 94.2328 185.054 94.7408 185.054C95.2526 185.054 95.7186 181.534 96.1005 180.896C96.4824 180.258 96.1845 184.63 97.2043 185.054C99.114 185.436 96.7804 169.609 97.0324 167.574C97.0936 167.089 98.1515 166.249 99.7251 165.211C100.615 164.623 104.58 161.576 108.269 158.774C111.18 156.578 113.914 154.532 114.858 153.955C114.858 153.955 114.289 152.428 113.399 150.038C113.376 149.98 113.357 149.923 113.334 149.862" stroke="white" stroke-width="1.36265" stroke-miterlimit="10" stroke-linecap="round" stroke-linejoin="round"/>
<path d="M110.702 142.81C110.641 142.646 110.58 142.486 110.522 142.321C107.2 133.433 103.109 122.536 102.635 121.501C101.493 119.012 94.6795 111.28 92.2007 107.851" stroke="white" stroke-width="1.36265" stroke-miterlimit="10" stroke-linecap="round" stroke-linejoin="round"/>
<path d="M79.444 90.9135C80.2499 89.6001 80.7578 87.6452 78.894 86.5455C76.5183 85.2741 73.3787 87.649 74.3947 88.6684C75.9224 90.8715 79.444 90.9135 79.444 90.9135Z" fill="white"/>
<path d="M89.5236 91.0854C88.7177 89.7719 88.2097 87.817 90.0736 86.7174C92.4493 85.446 95.5888 87.8209 94.5729 88.8403C93.0451 91.0434 89.5236 91.0854 89.5236 91.0854Z" fill="white"/>
<path d="M68.3335 248.722C71.7786 254.426 76.5606 258.97 76.1901 260.447C75.6783 262.486 66.8058 262.719 65.2054 263.284C62.3179 264.3 62.8488 274.948 65.2054 272.955C65.2054 272.955 81.8008 263.651 82.1293 262.822C82.8091 261.127 75.304 250.302 75.6439 246.228C75.896 243.185 81.8237 232.655 85.5285 225.95" stroke="white" stroke-width="1.36265" stroke-miterlimit="10" stroke-linecap="round" stroke-linejoin="round"/>
<path d="M60.6064 176.815C60.6103 176.799 60.6103 176.784 60.6141 176.769C61.1794 173.623 61.7103 170.683 62.1877 168.06C62.1953 168.01 62.2068 167.96 62.2144 167.911" stroke="white" stroke-width="1.36265" stroke-miterlimit="10" stroke-linecap="round" stroke-linejoin="round"/>
<path d="M101.883 250.421C99.1216 253.533 95.3785 258.756 95.5046 260.906C96.1882 261.589 98.308 262.242 100.607 262.761" stroke="white" stroke-width="1.36265" stroke-miterlimit="10" stroke-linecap="round" stroke-linejoin="round"/>
<path d="M110.118 269.347C110.282 271.218 109.77 272.975 108.365 273.593C103.017 272.574 92.9609 267.95 88.2057 264.048C90.0276 259.183 94.7408 246.61 94.7408 246.228C93.3352 244.823 87.1134 230.104 85.5283 225.95" stroke="white" stroke-width="1.36265" stroke-miterlimit="10" stroke-linecap="round" stroke-linejoin="round"/>
<path d="M108.269 158.774C108.67 160.893 109.201 163.73 109.812 167.063" stroke="white" stroke-width="1.36265" stroke-miterlimit="10" stroke-linecap="round" stroke-linejoin="round"/>
<path d="M51.3903 100.085C49.5303 101.467 42.0366 102.246 40.0084 100.291C39.5463 99.8485 39.3095 99.2452 39.2522 98.5656C39.0039 95.8585 41.5439 91.9068 43.9157 91.6357C45.6765 91.4333 47.949 93.1171 49.6105 95.1904C49.6105 95.1942 49.6143 95.1942 49.6143 95.198L51.3903 100.085Z" fill="url(#paint2_linear)"/>
<path d="M24.689 99.6533C24.9449 101.349 33.3743 102.494 35.666 100.291C37.9576 98.084 34.734 91.975 31.7625 91.6352C28.791 91.2954 25.1969 96.4308 24.689 99.6533Z" fill="url(#paint3_linear)"/>
<path d="M27.4883 111.83C29.5202 115.449 32.8355 126.339 32.8355 126.339" stroke="white" stroke-width="1.36265" stroke-miterlimit="10" stroke-linecap="round" stroke-linejoin="round"/>
<path d="M28.2563 149.122C27.8744 150.011 25.4529 158.537 24.8188 161.592C25.9647 162.229 36.2771 170.885 36.2771 173.176C36.2771 175.467 36.0632 193.198 34.9174 192.942C33.7716 192.69 33.9855 183.737 33.9855 183.737C33.9855 183.737 33.3896 193.03 31.9459 192.774C30.3876 192.694 31.9612 184.096 32.0719 183.515" stroke="white" stroke-width="1.36265" stroke-miterlimit="10" stroke-linecap="round" stroke-linejoin="round"/>
<path d="M31.602 183.992C31.602 183.992 31.602 183.996 31.5982 184.004C31.5982 184.008 31.5982 184.015 31.5982 184.023C31.4759 184.607 29.677 193.255 28.0767 192.518C26.8048 192.011 30.8381 176.738 30.3263 174.699C25.9989 168.464 13.2688 163.245 10.0834 164.264C9.95735 161.336 16.3243 131.81 17.5962 130.79C21.1597 127.472 25.067 123.551 29.8183 118.446" stroke="white" stroke-width="1.36265" stroke-miterlimit="10" stroke-linecap="round" stroke-linejoin="round"/>
<path d="M18.4976 253.727C15.9233 252.272 8.38375 248.92 4.19385 243.3C9.11708 228.027 19.2615 171.022 19.0934 166.44" stroke="white" stroke-width="1.36265" stroke-miterlimit="10" stroke-linecap="round" stroke-linejoin="round"/>
<path d="M58.9604 169.357C58.9643 169.377 58.9719 169.396 58.9795 169.422C59.14 170.037 59.7358 172.752 60.6066 176.814" stroke="white" stroke-width="1.36265" stroke-miterlimit="10" stroke-linecap="round" stroke-linejoin="round"/>
<path d="M60.3008 175.394C64.2233 193.801 73.8444 237.439 74.3792 243.46C73.9858 243.831 68.9518 248.107 68.4552 248.55" stroke="white" stroke-width="1.36265" stroke-miterlimit="10" stroke-linecap="round" stroke-linejoin="round"/>
<path d="M68.3331 248.722C65.2738 251.173 61.8974 253.567 59.6172 254.46C59.2887 254.789 58.9985 255.38 58.7387 256.155C58.0054 258.343 57.5242 262.001 57.1919 265.35C56.9207 268.045 56.7488 270.542 56.6228 271.905C56.6151 271.974 56.6113 272.043 56.6037 272.108C56.6151 272.119 56.6228 272.131 56.6342 272.142C57.3141 272.932 58.1696 273.574 59.1589 274.101C59.1665 274.105 59.178 274.112 59.1894 274.116C60.637 274.88 62.371 275.399 64.2731 275.773C66.6106 276.235 69.2039 276.476 71.8393 276.689C71.9998 276.437 72.1602 276.224 72.3091 276.044C72.313 276.04 72.3168 276.037 72.3206 276.033C74.9942 272.887 76.2279 280.015 76.6174 283.043C76.7167 283.818 76.7626 284.326 76.7626 284.326C76.6633 284.345 76.564 284.364 76.4647 284.379C76.4608 284.379 76.4608 284.379 76.4608 284.379C72.6873 284.994 67.2408 283.871 62.1991 282.291C55.2822 280.13 49.1329 277.102 49.1329 276.521C49.1329 275.529 49.9006 264.231 50.7256 257.687C50.7294 257.637 50.7371 257.583 50.7447 257.534C50.76 257.412 50.7753 257.293 50.7905 257.175C49.8051 256.751 48.8655 256.083 47.9756 255.254C43.5145 251.093 40.3521 242.88 39.0764 241.395C36.2195 245.927 27.7556 255.888 27.7021 256.236C27.7021 256.239 27.7021 256.239 27.7021 256.239V256.243" stroke="white" stroke-width="1.36265" stroke-miterlimit="10" stroke-linecap="round" stroke-linejoin="round"/>
<path d="M18.4977 253.728C18.7536 254.632 19.0095 255.656 19.2539 256.752C20.5067 262.307 21.5455 269.611 21.7633 271.768C18.8758 275.163 11.5769 275.67 5.29774 276.178C3.32692 273.131 2.06269 275.434 1.31409 278.282C0.638052 280.829 0.374512 283.815 0.374512 283.815C9.20119 285.514 28.2563 278.049 28.2563 277.03C28.2563 276.995 28.0424 273.215 28.0386 273.158C27.9813 271.635 27.7024 262.773 27.7024 256.24" stroke="white" stroke-width="1.36265" stroke-miterlimit="10" stroke-linecap="round" stroke-linejoin="round"/>
<path d="M25.9455 170.412C16.989 237.271 27.7063 255.583 27.7024 256.236C27.7024 256.24 27.7024 256.24 27.7024 256.24" stroke="white" stroke-width="1.36265" stroke-miterlimit="10" stroke-linecap="round" stroke-linejoin="round"/>
<path d="M54.6979 238.397C54.6979 229.047 58.9604 194.557 53.8882 171.988" stroke="white" stroke-width="1.36265" stroke-miterlimit="10" stroke-linecap="round" stroke-linejoin="round"/>
<path d="M54.6977 238.397C53.147 249.86 51.1342 256.518 50.7752 257.549C50.7484 257.626 50.7331 257.671 50.7255 257.687C50.7217 257.691 50.7217 257.691 50.7217 257.691" stroke="white" stroke-width="1.36265" stroke-miterlimit="10" stroke-linecap="round" stroke-linejoin="round"/>
<path d="M42.6401 126.72C42.6401 126.72 43.7439 121.952 46.0891 117.038C46.9637 115.205 47.9377 113.25 48.9689 111.345" stroke="white" stroke-width="1.36265" stroke-miterlimit="10" stroke-linecap="round" stroke-linejoin="round"/>
<path d="M49.0071 91.4673C49.0071 91.4711 50.1377 96.0376 50.4623 96.9234C50.7526 97.71 51.0696 98.5499 51.3905 99.4052C53.1512 104.113 55.0609 109.321 53.6745 109.115C53.4224 109.241 53.1741 109.367 52.9297 109.485H52.9259C51.5394 110.176 50.2179 110.791 48.969 111.345C41.777 114.537 37.0409 115.648 37.0409 115.648C33.2482 114.342 28.9514 112.28 25.3153 110.623C24.3566 110.188 23.44 109.779 22.592 109.42C22.4851 109.371 22.3782 109.329 22.2712 109.283C20.9688 109.283 22.932 103.136 24.8722 98.172C25.1587 97.4351 25.4452 96.7249 25.7201 96.0643C25.7201 96.0605 25.724 96.0567 25.7278 96.0491C25.7507 95.9956 25.7698 95.946 25.7927 95.8963C26.5337 94.1324 27.183 92.754 27.5344 92.2309" stroke="white" stroke-width="1.36265" stroke-miterlimit="10" stroke-linecap="round" stroke-linejoin="round"/>
<path d="M27.5303 92.231C29.906 90.4479 37.2469 87.2254 34.1073 75.4311C36.483 75.4311 37.4608 89.0085 37.5448 89.4323C37.6288 89.8561 37.8007 85.5301 39.4965 75.8549C38.8167 88.6686 40.4284 88.9855 40.0923 89.4934C39.7524 90.0012 41.0892 74.6866 43.2128 75.3662C41.0892 87.8401 49.0069 91.4673 49.0069 91.4673" stroke="white" stroke-width="1.36265" stroke-miterlimit="10" stroke-linecap="round" stroke-linejoin="round"/>
<path d="M22.5918 109.42C15.0523 111.016 16.4273 103.842 17.3478 102.922C18.2644 102.006 25.0363 96.5991 25.7925 95.8966C25.8078 95.8851 25.8192 95.8737 25.8269 95.866C25.8307 95.8622 25.8307 95.8622 25.8345 95.8584" stroke="white" stroke-width="1.36265" stroke-miterlimit="10" stroke-linecap="round" stroke-linejoin="round"/>
<path d="M50.4619 96.9238C50.7827 97.172 51.1341 97.4393 51.497 97.718C54.1324 99.7302 57.5622 102.342 58.1428 102.922C59.048 103.827 60.1174 110.807 52.9293 109.486H52.9254" stroke="white" stroke-width="1.36265" stroke-miterlimit="10" stroke-linecap="round" stroke-linejoin="round"/>
<path d="M44.1678 100.715C45.714 100.715 46.9674 99.4621 46.9674 97.9164C46.9674 96.3707 45.714 95.1177 44.1678 95.1177C42.6216 95.1177 41.3682 96.3707 41.3682 97.9164C41.3682 99.4621 42.6216 100.715 44.1678 100.715Z" fill="black" stroke="white" stroke-width="1.36265" stroke-miterlimit="10" stroke-linecap="round" stroke-linejoin="round"/>
<path d="M41.07 104.189C41.07 105.071 39.8172 105.785 38.2703 105.785C36.7235 105.785 35.4707 105.071 35.4707 104.189C35.4707 103.307 36.6585 102.487 38.2512 103.174C39.9662 102.483 41.07 103.307 41.07 104.189Z" stroke="white" stroke-width="1.36265" stroke-miterlimit="10" stroke-linecap="round" stroke-linejoin="round"/>
<path d="M31.9456 100.715C33.4918 100.715 34.7453 99.4621 34.7453 97.9164C34.7453 96.3707 33.4918 95.1177 31.9456 95.1177C30.3994 95.1177 29.146 96.3707 29.146 97.9164C29.146 99.4621 30.3994 100.715 31.9456 100.715Z" fill="black" stroke="white" stroke-width="1.36265" stroke-miterlimit="10" stroke-linecap="round" stroke-linejoin="round"/>
<path d="M35.7651 109.921C38.3127 109.665 44.2939 107.756 45.5696 105.595" stroke="white" stroke-width="1.36265" stroke-miterlimit="10" stroke-linecap="round" stroke-linejoin="round"/>
<path d="M35.001 97.9162C36.6128 97.8322 41.368 97.9162 41.368 97.9162" stroke="white" stroke-width="1.36265" stroke-miterlimit="10" stroke-linecap="round" stroke-linejoin="round"/>
<path d="M51.2985 148.228L55.8818 162.313C55.8818 162.313 43.4038 172.156 43.1517 174.321C42.8958 176.482 42.4298 192.816 44.3395 193.454C46.1614 194.057 45.7413 187.563 45.6993 186.963" stroke="white" stroke-width="1.36265" stroke-miterlimit="10" stroke-linecap="round" stroke-linejoin="round"/>
<path d="M46.0889 117.038C48.625 119.214 55.244 126.087 58.4294 129.649C59.5409 130.516 61.1718 135.464 62.8829 141.386C62.8829 141.386 66.8627 157.098 68.0047 159.591" stroke="white" stroke-width="1.36265" stroke-miterlimit="10" stroke-linecap="round" stroke-linejoin="round"/>
<path d="M45.6953 186.921C45.6991 186.936 45.6991 186.948 45.6991 186.963C46.9786 196.333 49.1328 194.672 48.2429 186.791C54.8619 205.5 48.7508 178.521 49.3887 174.573C51.6269 172.771 55.2209 171.053 58.9792 169.423C60.0449 168.957 61.1219 168.502 62.1876 168.059C65.0598 166.849 67.8327 165.696 69.9715 164.604C69.5132 164.176 68.8257 162.286 68.0045 159.591" stroke="white" stroke-width="1.36265" stroke-miterlimit="10" stroke-linecap="round" stroke-linejoin="round"/>
<path d="M44.5078 104.533C46.2036 105.721 46.6314 106.568 46.6314 106.568" stroke="white" stroke-width="1.36265" stroke-miterlimit="10" stroke-linecap="round" stroke-linejoin="round"/>
<path d="M43.977 83.1934H33.6646V85.6103H43.977V83.1934Z" fill="url(#paint4_linear)"/>
<path d="M36.0209 78.612C36.0209 78.4211 35.3219 74.0302 36.8497 73.2017C36.8497 73.2017 38.6334 73.4575 39.0153 79.0549" stroke="white" stroke-width="1.36265" stroke-miterlimit="10" stroke-linecap="round" stroke-linejoin="round"/>
<path d="M39.1338 78.5774C39.1682 78.3903 39.4241 73.9765 40.6959 73.3618C40.6959 73.3618 41.9678 73.8467 41.2612 79.4098" stroke="white" stroke-width="1.36265" stroke-miterlimit="10" stroke-linecap="round" stroke-linejoin="round"/>
<path d="M180.109 91.7688C178.249 93.151 170.755 93.9299 168.727 91.975C168.265 91.5321 168.028 90.9288 167.97 90.2492C167.722 87.5421 170.262 83.5903 172.634 83.3193C174.395 83.1169 176.667 84.8007 178.329 86.874C178.329 86.8778 178.333 86.8778 178.333 86.8816L180.109 91.7688Z" fill="url(#paint5_linear)"/>
<path d="M153.407 91.3379C153.663 93.0331 162.093 94.1786 164.384 91.9755C166.676 89.7724 163.452 83.6596 160.481 83.3198C157.509 82.9799 153.919 88.1154 153.407 91.3379Z" fill="url(#paint6_linear)"/>
<path d="M154.033 102.987C156.065 106.606 163.975 118.702 163.975 118.702" stroke="white" stroke-width="1.36265" stroke-miterlimit="10" stroke-linecap="round" stroke-linejoin="round"/>
<path d="M156.974 141.485C156.592 142.374 154.171 150.9 153.537 153.955C154.682 154.593 164.995 163.248 164.995 165.539C164.995 167.83 164.781 185.562 163.635 185.306C162.489 185.054 162.703 176.1 162.703 176.1C162.703 176.1 162.107 185.394 160.664 185.138C159.224 185.065 160.461 177.704 160.74 176.138C160.748 176.089 160.759 176.043 160.767 176.005C160.771 175.982 160.774 175.967 160.778 175.951C160.782 175.936 160.786 175.925 160.786 175.909C160.786 175.898 160.79 175.886 160.79 175.879L160.794 175.863" stroke="white" stroke-width="1.36265" stroke-miterlimit="10" stroke-linecap="round" stroke-linejoin="round"/>
<path d="M160.798 175.848L160.794 175.864C160.794 175.867 160.794 175.871 160.794 175.879C160.794 175.886 160.79 175.898 160.786 175.909C160.786 175.925 160.782 175.936 160.778 175.951C160.775 175.967 160.771 175.986 160.767 176.005C160.759 176.043 160.748 176.089 160.74 176.138C160.404 177.708 158.754 185.058 157.272 184.374C156 183.866 160.034 168.594 159.522 166.555C157.005 162.928 151.65 159.648 146.979 157.735C143.618 156.36 140.612 155.692 139.279 156.12C139.245 155.284 139.775 153.054 140.574 150.08C140.684 149.679 140.799 149.255 140.921 148.816C140.956 148.697 140.99 148.575 141.021 148.449" stroke="white" stroke-width="1.36265" stroke-miterlimit="10" stroke-linecap="round" stroke-linejoin="round"/>
<path d="M143.48 139.263C143.522 139.114 143.561 138.961 143.599 138.812C145.088 132.997 146.444 127.091 146.666 123.922C150.229 120.604 154.393 116.335 159.144 111.23" stroke="white" stroke-width="1.36265" stroke-miterlimit="10" stroke-linecap="round" stroke-linejoin="round"/>
<path d="M145.692 170.087C146.211 165.325 146.651 161.102 146.979 157.735" stroke="white" stroke-width="1.36265" stroke-miterlimit="10" stroke-linecap="round" stroke-linejoin="round"/>
<path d="M186.891 162.229C187.571 164.608 199.835 235.919 200.515 243.556C197.918 248 195.21 251.375 192.747 253.727C190.623 255.758 188.679 257.026 187.147 257.557C185.681 259.023 184.917 265.14 184.478 269.714" stroke="white" stroke-width="1.36265" stroke-miterlimit="10" stroke-linecap="round" stroke-linejoin="round"/>
<path d="M178.531 267.35C178.821 264.559 179.165 261.489 179.509 258.87C173.57 256.327 169.322 244.873 167.795 243.09C166.462 245.213 163.895 248.523 161.542 251.478C158.8 254.915 156.344 257.874 156.424 257.939" stroke="white" stroke-width="1.36265" stroke-miterlimit="10" stroke-linecap="round" stroke-linejoin="round"/>
<path d="M149.488 266.457C150 269.58 150.363 272.291 150.481 273.467C146.918 275.502 143.946 276.434 138.343 277.197C137.82 276.392 137.236 275.861 136.667 275.601" stroke="white" stroke-width="1.36265" stroke-miterlimit="10" stroke-linecap="round" stroke-linejoin="round"/>
<path d="M156.424 257.938C156.424 264.471 156.699 273.333 156.757 274.857C156.76 274.914 156.76 274.96 156.76 274.994C156.76 276.014 140.723 284.75 136.815 283.646C136.815 283.646 135.731 282.924 134.86 281.588" stroke="white" stroke-width="1.36265" stroke-miterlimit="10" stroke-linecap="round" stroke-linejoin="round"/>
<path d="M154.725 162.313C156.894 174.306 151.829 223.384 150.279 237.706" stroke="white" stroke-width="1.36265" stroke-miterlimit="10" stroke-linecap="round" stroke-linejoin="round"/>
<path d="M180.017 165.879C180.017 165.879 185.876 220.521 187.785 233.121C169.506 229.612 156.867 237.26 150.745 241.085" stroke="white" stroke-width="1.36265" stroke-miterlimit="10" stroke-linecap="round" stroke-linejoin="round"/>
<path d="M170.85 118.363C170.85 118.363 172.462 114.315 174.807 109.401C175.682 107.569 176.656 105.614 177.687 103.708" stroke="white" stroke-width="1.36265" stroke-miterlimit="10" stroke-linecap="round" stroke-linejoin="round"/>
<path d="M178.328 86.8742C178.328 86.878 178.332 86.878 178.332 86.8818C178.565 87.5843 178.855 88.4014 179.18 89.2872C179.47 90.0738 179.787 90.9138 180.108 91.769C181.869 96.4768 183.779 101.685 182.392 101.479C182.14 101.605 181.892 101.731 181.647 101.849H181.644C180.257 102.54 178.936 103.155 177.687 103.708C170.495 106.9 165.759 108.011 165.759 108.011C161.966 106.706 157.669 104.644 154.033 102.987C153.074 102.551 152.158 102.143 151.31 101.784C151.203 101.734 151.096 101.692 150.989 101.647C149.687 101.647 151.65 95.4994 153.59 90.5358C153.876 89.7989 154.163 89.0887 154.438 88.4281C154.438 88.4243 154.442 88.4205 154.446 88.4129C154.468 88.3594 154.488 88.3098 154.51 88.2602C155.251 86.4962 155.901 85.1178 156.252 84.5947" stroke="white" stroke-width="1.36265" stroke-miterlimit="10" stroke-linecap="round" stroke-linejoin="round"/>
<path d="M151.31 101.784C143.771 103.38 145.146 96.2054 146.066 95.2853C146.983 94.3689 153.755 88.9624 154.511 88.2599C154.526 88.2484 154.538 88.237 154.545 88.2293C154.549 88.2255 154.549 88.2255 154.553 88.2217" stroke="white" stroke-width="1.36265" stroke-miterlimit="10" stroke-linecap="round" stroke-linejoin="round"/>
<path d="M179.18 89.2871C179.501 89.5353 179.852 89.8026 180.215 90.0813C182.851 92.0934 186.28 94.7051 186.861 95.2854C187.766 96.1903 188.836 103.17 181.648 101.849H181.644" stroke="white" stroke-width="1.36265" stroke-miterlimit="10" stroke-linecap="round" stroke-linejoin="round"/>
<path d="M169.788 96.5532C169.788 97.4352 168.535 98.1492 166.989 98.1492C165.442 98.1492 164.189 97.4352 164.189 96.5532C164.189 95.6712 165.377 94.8503 166.97 95.5376C168.684 94.8465 169.788 95.6712 169.788 96.5532Z" stroke="white" stroke-width="1.36265" stroke-miterlimit="10" stroke-linecap="round" stroke-linejoin="round"/>
<path d="M180.017 140.592L184.6 154.677C184.6 154.677 172.122 164.52 171.87 166.685C171.614 168.846 171.148 185.18 173.058 185.818C174.88 186.421 174.46 179.926 174.418 179.327" stroke="white" stroke-width="1.36265" stroke-miterlimit="10" stroke-linecap="round" stroke-linejoin="round"/>
<path d="M174.807 109.401C177.08 112.99 183.133 120.096 185.746 122.139C186.365 122.624 187.212 124.38 188.179 126.866C191.601 135.64 196.543 153.497 198.415 156.598C198.415 156.601 198.419 156.601 198.419 156.601C198.518 156.769 198.61 156.892 198.69 156.968C198.434 157.098 198.17 157.231 197.895 157.361C195.692 158.434 192.961 159.557 190.176 160.729C185.574 162.665 180.834 164.742 178.107 166.937C177.469 170.885 183.58 197.864 176.961 179.155C177.851 187.036 175.697 188.697 174.417 179.327C174.417 179.312 174.417 179.3 174.414 179.285" stroke="white" stroke-width="1.36265" stroke-miterlimit="10" stroke-linecap="round" stroke-linejoin="round"/>
<path d="M166.523 104.693C161.259 104.525 163.975 99.9091 166.523 99.7373C169.406 99.9091 173.313 105.201 166.523 104.693Z" stroke="white" stroke-width="1.36265" stroke-miterlimit="10" stroke-linecap="round" stroke-linejoin="round"/>
<path d="M172.802 91.2955C174.333 91.2955 177.58 91.4444 177.217 89.6843C176.709 87.2254 174.501 85.8661 171.954 87.5614C170.002 89.7683 171.614 91.2955 172.802 91.2955Z" fill="white" stroke="white" stroke-width="1.36265" stroke-miterlimit="10" stroke-linecap="round" stroke-linejoin="round"/>
<path d="M173.78 90.9134C174.647 90.9134 175.35 90.2108 175.35 89.3442C175.35 88.4775 174.647 87.7749 173.78 87.7749C172.913 87.7749 172.21 88.4775 172.21 89.3442C172.21 90.2108 172.913 90.9134 173.78 90.9134Z" fill="black"/>
<path d="M160.629 91.2955C159.098 91.2955 155.851 91.4444 156.214 89.6843C156.722 87.2254 158.93 85.8661 161.477 87.5614C163.433 89.7683 161.817 91.2955 160.629 91.2955Z" fill="white" stroke="white" stroke-width="1.36265" stroke-miterlimit="10" stroke-linecap="round" stroke-linejoin="round"/>
<path d="M159.655 90.9134C160.522 90.9134 161.225 90.2108 161.225 89.3442C161.225 88.4775 160.522 87.7749 159.655 87.7749C158.788 87.7749 158.085 88.4775 158.085 89.3442C158.085 90.2108 158.788 90.9134 159.655 90.9134Z" fill="black" stroke="white" stroke-width="0.348861" stroke-miterlimit="10" stroke-linecap="round" stroke-linejoin="round"/>
<path d="M156.336 83.957C156.718 81.922 164.357 76.0649 166.775 76.7025C169.193 77.3402 172.191 77.7144 178.332 86.8817" stroke="white" stroke-width="1.36265" stroke-miterlimit="10" stroke-linecap="round" stroke-linejoin="round"/>
<path d="M166.011 78.7378C163.593 77.5924 160.408 77.4664 162.447 74.6639C164.483 71.8652 166.011 71.2275 166.011 71.2275V78.7378Z" stroke="white" stroke-width="1.36265" stroke-miterlimit="10" stroke-linecap="round" stroke-linejoin="round"/>
<path d="M166.125 78.7378C168.543 77.5924 171.729 77.4664 169.689 74.6639C167.653 71.8652 166.125 71.2275 166.125 71.2275V78.7378Z" stroke="white" stroke-width="1.36265" stroke-miterlimit="10" stroke-linecap="round" stroke-linejoin="round"/>
<path d="M166.431 72.953C163.777 73.2851 161.023 74.8888 161.237 71.4333C161.451 67.9779 162.394 66.6187 162.394 66.6187L166.431 72.953Z" stroke="white" stroke-width="1.36265" stroke-miterlimit="10" stroke-linecap="round" stroke-linejoin="round"/>
<path d="M166.527 72.8919C167.952 70.6278 170.568 68.8103 167.344 67.5427C164.121 66.2751 162.49 66.5614 162.49 66.5614L166.527 72.8919Z" stroke="white" stroke-width="1.36265" stroke-miterlimit="10" stroke-linecap="round" stroke-linejoin="round"/>
<path d="M164.132 67.451C162.188 69.2914 160.916 72.2123 159.044 69.299C157.173 66.3858 157.127 64.7363 157.127 64.7363L164.132 67.451Z" stroke="white" stroke-width="1.36265" stroke-miterlimit="10" stroke-linecap="round" stroke-linejoin="round"/>
<path d="M164.17 67.348C163.979 64.6791 165.01 61.6666 161.664 62.5524C158.315 63.4382 157.169 64.6294 157.169 64.6294L164.17 67.348Z" stroke="white" stroke-width="1.36265" stroke-miterlimit="10" stroke-linecap="round" stroke-linejoin="round"/>
<path d="M156.944 64.8053C153.312 67.7262 148.091 65.9126 147.838 65.0878C147.586 64.2593 146.456 57.1575 157.784 64.9313" stroke="white" stroke-width="1.36265" stroke-miterlimit="10" stroke-linecap="round" stroke-linejoin="round"/>
<path d="M139.703 136.182C138.939 140.592 130.368 138.049 130.368 138.049C130.028 135.586 129.517 130.241 133.336 129.989C137.155 129.733 138.855 132.703 139.703 136.182Z" fill="url(#paint7_linear)"/>
<path d="M125.468 138.049C125.468 138.049 116.897 140.592 116.133 136.182C116.981 132.703 118.677 129.733 122.496 129.989C126.316 130.241 125.808 135.586 125.468 138.049Z" fill="url(#paint8_linear)"/>
<path d="M121.752 137.766C123.026 137.766 124.059 136.734 124.059 135.46C124.059 134.186 123.026 133.154 121.752 133.154C120.478 133.154 119.445 134.186 119.445 135.46C119.445 136.734 120.478 137.766 121.752 137.766Z" fill="black"/>
<path d="M134.096 137.766C135.37 137.766 136.403 136.734 136.403 135.46C136.403 134.186 135.37 133.154 134.096 133.154C132.822 133.154 131.789 134.186 131.789 135.46C131.789 136.734 132.822 137.766 134.096 137.766Z" fill="black"/>
<path d="M130.536 140.099C130.536 140.981 129.283 141.695 127.737 141.695C126.19 141.695 124.933 140.981 124.933 140.099C124.933 139.217 126.125 138.396 127.714 139.083C129.432 138.396 130.536 139.217 130.536 140.099Z" stroke="white" stroke-width="1.36265" stroke-miterlimit="10" stroke-linecap="round" stroke-linejoin="round"/>
<path d="M136.839 150.129H136.834" stroke="white" stroke-width="1.36265" stroke-miterlimit="10" stroke-linecap="round" stroke-linejoin="round"/>
<path d="M130.028 163.206C130.028 163.206 132.874 157.288 134.898 153.672" stroke="white" stroke-width="1.36265" stroke-miterlimit="10" stroke-linecap="round" stroke-linejoin="round"/>
<path d="M118.941 150.496H118.937" stroke="white" stroke-width="1.36265" stroke-miterlimit="10" stroke-linecap="round" stroke-linejoin="round"/>
<path d="M119.765 152.989C121.278 157.479 123.321 163.161 123.321 163.161" stroke="white" stroke-width="1.36265" stroke-miterlimit="10" stroke-linecap="round" stroke-linejoin="round"/>
<path d="M113.788 148.32C113.777 148.316 113.765 148.308 113.753 148.304" stroke="white" stroke-width="1.36265" stroke-miterlimit="10" stroke-linecap="round" stroke-linejoin="round"/>
<path d="M118.624 150.366C118.73 150.412 118.834 150.454 118.937 150.496H118.941" stroke="white" stroke-width="1.36265" stroke-miterlimit="10" stroke-linecap="round" stroke-linejoin="round"/>
<path d="M132.256 151.6H132.251" stroke="white" stroke-width="1.36265" stroke-miterlimit="10" stroke-linecap="round" stroke-linejoin="round"/>
<path d="M147.513 146.701C147.513 146.701 147.345 146.388 147.047 145.842" stroke="white" stroke-width="1.36265" stroke-miterlimit="10" stroke-linecap="round" stroke-linejoin="round"/>
<path d="M131.304 123.059C131.392 123.032 131.48 123.024 131.575 123.032C132.32 124.227 133.08 125.522 133.378 126.029" stroke="white" stroke-width="1.36265" stroke-miterlimit="10" stroke-linecap="round" stroke-linejoin="round"/>
<path d="M129.031 121.142C129.314 120.718 129.562 120.459 129.73 120.485C128.89 121.604 129.28 124.292 129.551 125.651" stroke="white" stroke-width="1.36265" stroke-miterlimit="10" stroke-linecap="round" stroke-linejoin="round"/>
<path d="M126.545 125.178C126.499 124.185 126.277 122.856 125.445 122.91" stroke="white" stroke-width="1.36265" stroke-miterlimit="10" stroke-linecap="round" stroke-linejoin="round"/>
<path d="M116.335 129.462C116.355 129.416 116.362 129.393 116.362 129.393C116.439 129.37 116.515 129.347 116.588 129.324" stroke="white" stroke-width="1.36265" stroke-miterlimit="10" stroke-linecap="round" stroke-linejoin="round"/>
<path d="M113.788 148.32C113.777 148.404 113.765 148.484 113.754 148.56C113.643 149.228 113.509 149.694 113.334 149.862C113.326 149.87 113.314 149.877 113.307 149.885C113.036 150.095 112.581 150.126 112.062 150.019C112.058 150.019 112.058 150.019 112.054 150.019C112.046 150.015 112.043 150.015 112.035 150.011C110.839 149.522 109.449 148.648 108.964 147.502C108.96 147.499 108.96 147.495 108.96 147.491C108.857 147.048 108.926 146.578 109.231 146.109C109.717 145.044 110.209 143.933 110.702 142.81C111.84 140.214 112.967 137.564 113.914 135.315C113.948 136.155 114.292 144.734 113.788 148.32Z" stroke="white" stroke-width="1.36265" stroke-miterlimit="10" stroke-linecap="round" stroke-linejoin="round"/>
<path d="M139.352 201.026C138.687 201.518 138.061 201.995 137.495 202.446C135.868 203.748 134.745 204.855 134.696 205.588C134.528 208.131 134.188 217.467 134.356 218.482C134.528 219.502 132.744 219.036 132.488 213.309C132.106 217.761 132.53 218.864 131.258 218.738C130.869 218.608 130.701 217.974 130.647 217.192C130.471 218.44 130.158 219.452 129.604 219.12C128.329 218.356 129.093 204.397 129.093 204.397C129.093 204.397 136.307 193.282 140.467 185.902C138.855 179.369 137.411 171.137 137.411 171.137" stroke="white" stroke-width="1.36265" stroke-miterlimit="10" stroke-linecap="round" stroke-linejoin="round"/>
<path d="M123.31 213.561C123.31 213.561 123.646 215.661 123.539 217.192C123.31 215.577 123.31 213.561 123.31 213.561Z" stroke="white" stroke-width="1.36265" stroke-miterlimit="10" stroke-linecap="round" stroke-linejoin="round"/>
<path d="M113.658 189.674C115.224 183.561 116.53 172.156 116.53 172.156" stroke="white" stroke-width="1.36265" stroke-miterlimit="10" stroke-linecap="round" stroke-linejoin="round"/>
<path d="M113.8 189.701C113.796 189.693 113.796 189.682 113.796 189.674C119.33 195.142 125.09 204.397 125.09 204.397C125.09 204.397 125.854 218.356 124.582 219.12C124.028 219.452 123.715 218.44 123.539 217.191C123.486 217.974 123.318 218.608 122.928 218.738C121.652 218.864 122.076 217.76 121.694 213.308C121.442 219.036 119.659 219.501 119.827 218.482C119.999 217.466 119.659 208.131 119.491 205.588C119.433 204.725 117.871 203.331 115.755 201.716M132.53 151.019C132.438 151.214 132.347 151.408 132.255 151.599L136.835 150.129C136.342 151.076 135.647 152.336 134.898 153.673C137.782 157.834 144.443 167.017 145.222 168.338C145.245 168.38 145.272 168.434 145.295 168.502C145.306 168.525 145.314 168.548 145.321 168.575C145.428 168.884 145.554 169.403 145.692 170.087C145.741 170.331 145.791 170.595 145.845 170.877C145.879 171.064 145.917 171.263 145.951 171.465C145.955 171.488 145.959 171.511 145.963 171.534C145.986 171.652 146.009 171.774 146.028 171.9C146.234 173.069 146.459 174.443 146.7 175.921C146.734 176.142 146.769 176.364 146.807 176.589C146.899 177.147 146.99 177.719 147.086 178.296C147.128 178.552 147.17 178.811 147.208 179.067C147.403 180.243 147.601 181.434 147.8 182.591C147.838 182.801 147.873 183.011 147.911 183.217C147.945 183.431 147.983 183.641 148.022 183.847C148.071 184.126 148.121 184.397 148.171 184.668C148.518 186.555 148.866 188.265 149.209 189.575C149.232 189.67 149.255 189.762 149.282 189.85C149.305 189.941 149.332 190.029 149.355 190.113C149.377 190.201 149.404 190.281 149.427 190.361C149.45 190.445 149.473 190.522 149.5 190.598C149.607 190.938 149.71 191.232 149.817 191.468C149.84 191.526 149.866 191.583 149.889 191.633C149.947 191.747 150.004 191.846 150.057 191.927C149.286 193.5 146.754 195.569 143.958 197.65M122.538 151.435C122.63 151.649 122.722 151.859 122.813 152.069C122.046 151.764 120.61 151.187 118.941 150.496C119.177 151.244 119.46 152.092 119.766 152.989C117.615 156.128 112.024 163.856 109.812 167.063C109.392 167.67 109.094 168.117 108.964 168.338C108.116 169.781 105.825 189.464 104.125 191.927C104.858 193.423 107.177 195.359 109.801 197.329M120.846 264.132C121.519 261.787 126.155 255.14 127.095 254.323C128.038 255.159 132.671 261.791 133.336 264.132H120.846Z" stroke="white" stroke-width="1.36265" stroke-miterlimit="10" stroke-linecap="round" stroke-linejoin="round"/>
<path d="M125.262 286.533C123.554 287.705 106.287 294.478 104.988 294.169C101.421 293.317 104.648 283.986 108.044 285.681C113.613 288.465 119.827 283.138 119.827 283.138C119.827 283.138 117.89 274.822 117.382 271.936C116.336 271.206 114.075 270.542 110.118 269.347C107.639 268.599 104.499 267.644 100.577 266.338C100.504 265.506 100.52 264.288 100.607 262.761C100.783 259.702 101.249 255.392 101.883 250.42C104.251 231.857 108.983 204.034 109.801 197.329C111.08 198.291 112.429 199.261 113.7 200.185C114.006 200.407 114.304 200.628 114.594 200.842C114.995 201.14 115.385 201.43 115.755 201.716C118.349 218.325 120.235 233.628 118.933 236.557C117.39 238.046 115.82 239.436 114.308 240.699C115.282 253.139 117.21 263.65 120.847 264.131C120.167 266.506 127.977 284.665 125.262 286.533Z" stroke="white" stroke-width="1.36265" stroke-miterlimit="10" stroke-linecap="round" stroke-linejoin="round"/>
<path d="M127.13 254.289C127.118 254.296 127.106 254.308 127.095 254.323" stroke="white" stroke-width="1.36265" stroke-miterlimit="10" stroke-linecap="round" stroke-linejoin="round"/>
<path d="M119.231 142.436C119.196 142.329 119.166 142.23 119.135 142.146" stroke="white" stroke-width="1.36265" stroke-miterlimit="10" stroke-linecap="round" stroke-linejoin="round"/>
<path d="M129.345 157.114L129.357 157.098C129.353 157.098 129.349 157.106 129.345 157.114ZM129.345 157.114C129.345 157.11 129.345 157.11 129.345 157.114Z" stroke="white" stroke-width="1.36265" stroke-miterlimit="10" stroke-linecap="round" stroke-linejoin="round"/>
<path d="M129.356 157.094C130.357 155.826 131.438 153.856 132.434 151.76L129.356 157.094Z" stroke="white" stroke-width="1.36265" stroke-miterlimit="10" stroke-linecap="round" stroke-linejoin="round"/>
<path d="M132.454 151.722C132.446 151.737 132.442 151.749 132.435 151.765L132.458 151.722H132.454Z" stroke="white" stroke-width="1.36265" stroke-miterlimit="10" stroke-linecap="round" stroke-linejoin="round"/>
<path d="M125.796 157.334L123.016 152.191C123.921 154.264 124.891 156.166 125.796 157.334Z" stroke="white" stroke-width="1.36265" stroke-miterlimit="10" stroke-linecap="round" stroke-linejoin="round"/>
<path d="M128.986 152.046C128.986 153.6 128.898 155.059 128.734 156.307C128.734 156.307 128.734 156.307 128.734 156.311C128.421 158.785 127.844 160.446 127.183 160.446C126.541 160.446 125.976 158.885 125.655 156.533C125.48 155.235 125.376 153.696 125.376 152.046" stroke="white" stroke-width="1.36265" stroke-miterlimit="10" stroke-linecap="round" stroke-linejoin="round"/>
<path d="M152.861 263.96C152.681 264.139 152.502 264.311 152.315 264.475C152.2 264.578 152.082 264.681 151.963 264.777C151.921 264.815 151.879 264.849 151.837 264.88C151.696 264.998 151.555 265.113 151.406 265.22C151.268 265.327 151.123 265.43 150.982 265.529C150.497 265.869 149.996 266.178 149.488 266.457C149.347 266.537 149.202 266.617 149.057 266.69C148.774 266.835 148.491 266.976 148.205 267.11C148.052 267.182 147.899 267.251 147.747 267.316C147.601 267.381 147.453 267.446 147.304 267.503C147.158 267.568 147.013 267.625 146.864 267.682C146.57 267.801 146.276 267.911 145.982 268.018C145.78 268.095 145.577 268.163 145.379 268.232C145.207 268.293 145.039 268.351 144.874 268.404C144.328 268.587 143.786 268.759 143.263 268.923C143.033 268.996 142.804 269.065 142.579 269.137C142.38 269.198 142.182 269.259 141.987 269.324C141.842 269.37 141.697 269.416 141.555 269.462C141.536 269.469 141.517 269.473 141.502 269.481C141.422 269.507 141.341 269.534 141.261 269.561C140.631 269.771 140.047 269.985 139.516 270.218C139.397 270.267 139.283 270.321 139.172 270.374C138.828 270.538 138.511 270.71 138.232 270.901C138.168 270.947 138.099 270.993 138.038 271.042C138.011 271.058 137.988 271.077 137.965 271.096C137.9 271.145 137.839 271.191 137.782 271.245C137.713 271.302 137.644 271.363 137.583 271.428C137.579 271.481 137.576 271.539 137.568 271.6C137.556 271.714 137.537 271.844 137.518 271.978C137.507 272.05 137.495 272.119 137.484 272.195C137.407 272.638 137.293 273.165 137.152 273.742C137.125 273.86 137.094 273.982 137.064 274.105C137.022 274.28 136.976 274.46 136.926 274.643C136.899 274.746 136.873 274.849 136.842 274.956C136.838 274.983 136.831 275.006 136.823 275.032C136.773 275.219 136.72 275.41 136.667 275.601C136.227 277.201 135.704 278.923 135.265 280.32C135.196 280.534 135.131 280.74 135.07 280.935C135.066 280.954 135.059 280.97 135.051 280.989C135.02 281.096 134.986 281.199 134.952 281.298C134.921 281.397 134.89 281.493 134.86 281.588C134.761 281.901 134.673 282.176 134.596 282.405C134.573 282.482 134.551 282.55 134.528 282.611C134.478 282.772 134.436 282.902 134.405 282.989C134.398 283.005 134.394 283.02 134.39 283.035C134.367 283.104 134.356 283.138 134.356 283.138C134.356 283.138 142.674 286.533 146.07 286.021C151.669 284.494 151.501 293.447 150.141 296.032C146.578 296.884 131.64 288.396 128.925 286.533C126.209 284.666 134.016 266.506 133.336 264.132C136.346 264.246 138.015 257.167 138.897 247.649C137.339 245.827 135.964 243.899 135.12 242.07C136.487 237.824 138.129 228.508 139.768 217.348C139.684 209.956 139.466 203.824 139.352 201.025C140.28 200.334 141.284 199.612 142.289 198.879C142.846 198.471 143.408 198.058 143.958 197.65C143.988 197.833 144.03 198.066 144.076 198.337C144.095 198.452 144.114 198.574 144.137 198.704C144.347 199.941 144.672 201.85 145.069 204.244C145.107 204.481 145.149 204.721 145.188 204.965C145.314 205.714 145.444 206.5 145.581 207.329C145.604 207.478 145.631 207.627 145.654 207.779C145.864 209.059 146.089 210.422 146.322 211.857C146.356 212.086 146.395 212.315 146.433 212.548C146.471 212.793 146.513 213.037 146.551 213.285C146.589 213.51 146.624 213.736 146.662 213.961C146.967 215.87 147.288 217.875 147.613 219.948C147.655 220.208 147.697 220.467 147.735 220.727C148.151 223.384 148.575 226.141 148.996 228.917C149.061 229.348 149.125 229.783 149.187 230.219C149.4 231.635 149.611 233.056 149.817 234.468C149.855 234.739 149.893 235.011 149.931 235.282C150.05 236.095 150.164 236.904 150.279 237.706V237.71C150.367 238.332 150.451 238.947 150.535 239.562C150.607 240.073 150.676 240.581 150.745 241.085C150.756 241.158 150.768 241.23 150.775 241.303C150.882 242.089 150.985 242.864 151.089 243.632C151.176 244.308 151.264 244.976 151.352 245.636C151.375 245.839 151.402 246.037 151.429 246.24C151.578 247.435 151.723 248.603 151.856 249.733C151.917 250.249 151.979 250.757 152.036 251.257C152.154 252.337 152.269 253.376 152.368 254.365C152.383 254.51 152.399 254.651 152.41 254.789C152.429 254.957 152.445 255.125 152.46 255.289C152.483 255.522 152.506 255.751 152.525 255.98C152.555 256.293 152.582 256.602 152.609 256.904C152.662 257.53 152.708 258.133 152.75 258.702C152.765 258.889 152.777 259.069 152.788 259.248C152.792 259.313 152.796 259.378 152.8 259.443C152.815 259.687 152.83 259.924 152.842 260.157C152.865 260.573 152.88 260.966 152.895 261.337C152.899 261.455 152.899 261.57 152.903 261.684C152.926 262.6 152.91 263.364 152.861 263.96Z" stroke="white" stroke-width="1.36265" stroke-miterlimit="10" stroke-linecap="round" stroke-linejoin="round"/>
<path d="M149.057 266.69C148.774 266.839 148.492 266.98 148.205 267.11" stroke="white" stroke-width="1.36265" stroke-miterlimit="10" stroke-linecap="round" stroke-linejoin="round"/>
<path d="M146.864 267.683C146.57 267.801 146.276 267.916 145.982 268.019" stroke="white" stroke-width="1.36265" stroke-miterlimit="10" stroke-linecap="round" stroke-linejoin="round"/>
<path d="M138.232 270.901C138.164 270.947 138.099 270.993 138.038 271.043" stroke="white" stroke-width="1.36265" stroke-miterlimit="10" stroke-linecap="round" stroke-linejoin="round"/>
<path d="M137.782 271.245C137.713 271.302 137.648 271.363 137.583 271.428" stroke="white" stroke-width="1.36265" stroke-miterlimit="10" stroke-linecap="round" stroke-linejoin="round"/>
<path d="M137.568 271.6C137.556 271.715 137.541 271.844 137.518 271.978C137.507 272.047 137.495 272.119 137.484 272.196" stroke="white" stroke-width="1.36265" stroke-miterlimit="10" stroke-linecap="round" stroke-linejoin="round"/>
<path d="M127.097 254.325C127.085 254.309 127.069 254.301 127.057 254.289" stroke="white" stroke-width="1.36265" stroke-miterlimit="10" stroke-linecap="round" stroke-linejoin="round"/>
<path d="M151.089 243.632C150.989 242.864 150.882 242.085 150.775 241.303" stroke="white" stroke-width="1.36265" stroke-miterlimit="10" stroke-linecap="round" stroke-linejoin="round"/>
<path d="M113.914 135.315C113.91 135.273 113.91 135.25 113.91 135.25" stroke="white" stroke-width="1.36265" stroke-miterlimit="10" stroke-linecap="round" stroke-linejoin="round"/>
<path d="M108.964 147.502C109.25 148.736 110.824 149.759 112.054 150.019" stroke="white" stroke-width="1.36265" stroke-miterlimit="10" stroke-linecap="round" stroke-linejoin="round"/>
<path d="M147.048 145.842C147.048 145.838 147.044 145.83 147.04 145.823C146.345 144.528 144.958 141.966 143.48 139.263C141.242 135.162 138.786 130.733 138.175 129.901C136.819 128.969 133.508 126.255 133.508 126.255C133.508 126.255 133.462 126.174 133.378 126.029C133.217 125.896 133.099 125.785 133.042 125.705C132.667 125.197 131.884 123.654 131.304 123.059C130.17 123.383 129.73 126.465 129.73 126.465C129.73 126.465 129.65 126.148 129.551 125.651C129.417 125.907 129.306 126.022 129.222 125.873C128.94 125.38 129.039 122.318 129.031 121.142C128.019 122.646 126.549 126.213 126.549 126.213C126.549 126.213 126.579 125.754 126.545 125.178C126.365 125.575 126.251 125.831 126.251 125.831C126.182 124.926 126.117 123.391 125.445 122.91C125.319 122.914 125.178 122.952 125.021 123.032C123.959 124.529 120.449 128.103 116.592 129.321C116.592 129.321 116.592 129.324 116.588 129.324C116.485 129.378 116.401 129.427 116.336 129.462C116.164 129.882 115.209 132.222 113.914 135.315C113.948 136.155 114.292 144.734 113.788 148.32C115.358 149.011 117.077 149.732 118.623 150.366C120.067 150.767 121.492 151.153 122.538 151.435C122.408 151.122 122.275 150.805 122.145 150.485C122.053 150.259 121.962 150.034 121.874 149.809C121.836 149.717 121.797 149.622 121.763 149.53C121.721 149.423 121.679 149.32 121.637 149.213C121.477 148.808 121.324 148.404 121.175 148.007C121.171 147.995 121.167 147.987 121.167 147.98C121.06 147.697 120.957 147.422 120.858 147.148C120.797 146.983 120.736 146.815 120.678 146.655C120.545 146.288 120.419 145.933 120.3 145.594C120.102 145.036 119.922 144.517 119.765 144.051C119.708 143.883 119.655 143.726 119.605 143.578C119.548 143.402 119.494 143.238 119.441 143.081C119.406 142.97 119.372 142.864 119.338 142.764C119.3 142.65 119.265 142.539 119.231 142.436C119.193 142.329 119.162 142.23 119.135 142.146C119.044 141.856 118.994 141.695 118.994 141.695C119.998 142.34 124.509 143.894 126.553 144.975C126.931 145.174 127.225 145.357 127.397 145.513C127.397 145.513 127.725 145.376 128.256 145.154C130.387 144.265 135.784 142.02 136.055 141.951C136.067 141.947 136.071 141.97 136.063 142.012C136.063 142.024 136.059 142.043 136.055 142.062C136.04 142.15 136.002 142.291 135.945 142.478C135.929 142.531 135.91 142.585 135.891 142.646C135.631 143.482 135.081 144.99 134.371 146.758C134.298 146.941 134.222 147.125 134.146 147.315C133.851 148.033 133.531 148.785 133.195 149.545C133.095 149.774 132.996 150.003 132.889 150.233C132.771 150.496 132.652 150.756 132.53 151.019L141.021 148.449C141.261 147.579 141.517 146.644 141.781 145.666C141.926 146.705 142.105 147.64 142.334 148.362C142.357 148.442 142.384 148.518 142.411 148.595C142.472 148.766 142.533 148.919 142.598 149.06L142.602 149.064C144.275 151.095 146.803 149.335 147.387 148.881C147.483 148.728 147.559 148.564 147.617 148.392C147.678 147.823 147.46 146.934 147.048 145.842ZM116.133 136.182C116.981 132.703 118.677 129.733 122.496 129.989C126.316 130.241 125.808 135.586 125.468 138.049C125.468 138.049 116.897 140.592 116.133 136.182ZM127.737 141.695C126.19 141.695 124.933 140.981 124.933 140.099C124.933 139.217 126.125 138.396 127.714 139.084C129.432 138.396 130.536 139.217 130.536 140.099C130.536 140.981 129.283 141.695 127.737 141.695ZM130.368 138.049C130.028 135.586 129.516 130.241 133.336 129.989C137.155 129.733 138.855 132.703 139.703 136.182C138.939 140.592 130.368 138.049 130.368 138.049Z" stroke="white" stroke-width="1.36265" stroke-miterlimit="10" stroke-linecap="round" stroke-linejoin="round"/>
<path d="M141.254 135.312C141.254 135.312 141.193 141.367 141.781 145.666" stroke="white" stroke-width="1.36265" stroke-miterlimit="10" stroke-linecap="round" stroke-linejoin="round"/>
<path d="M142.602 149.064C142.751 149.389 142.915 149.625 143.099 149.759C144.451 150.748 146.567 150.221 147.388 148.881" stroke="white" stroke-width="1.36265" stroke-miterlimit="10" stroke-linecap="round" stroke-linejoin="round"/>
<path d="M147.598 146.854C147.777 147.419 147.766 147.938 147.617 148.392" stroke="white" stroke-width="1.36265" stroke-miterlimit="10" stroke-linecap="round" stroke-linejoin="round"/>
<path d="M139.352 201.026V201.021" stroke="white" stroke-width="1.36265" stroke-miterlimit="10" stroke-linecap="round" stroke-linejoin="round"/>
<path d="M92.9286 89.2452C93.0086 88.3335 92.4006 87.5354 91.5705 87.4626C90.7405 87.3898 90.0027 88.0698 89.9227 88.9815C89.8427 89.8932 90.4507 90.6913 91.2808 90.7641C92.1108 90.8369 92.8486 90.1569 92.9286 89.2452Z" fill="black"/>
<path d="M79.0946 89.1216C79.1746 88.2099 78.5666 87.4119 77.7365 87.3391C76.9065 87.2663 76.1687 87.9463 76.0887 88.858C76.0087 89.7697 76.6167 90.5678 77.4468 90.6406C78.2768 90.7134 79.0146 90.0333 79.0946 89.1216Z" fill="black"/>
<path d="M184.478 269.714C184.31 271.486 184.188 273.028 184.092 273.975C186.724 275.502 191.433 277.919 194.702 278.217C200.474 273.975 198.946 285.514 198.946 285.514C190.119 287.213 177.813 276.522 177.813 275.502C177.813 274.899 178.111 271.425 178.531 267.351" stroke="white" stroke-width="1.36265" stroke-miterlimit="10" stroke-linecap="round" stroke-linejoin="round"/>
<path d="M192.212 254.228C197.166 257.5 203.17 259.756 209.407 261.299C228.443 266.007 249.629 264.075 249.629 264.075C249.629 264.075 238.694 271.825 203.964 272.375C196.31 272.497 189.863 271.444 184.478 269.714" stroke="white" stroke-width="1.36265" stroke-miterlimit="10" stroke-linecap="round" stroke-linejoin="round"/>
<path d="M178.531 267.35C168.734 262.647 163.555 255.728 161.542 251.478L161.539 251.475" stroke="white" stroke-width="1.36265" stroke-miterlimit="10" stroke-linecap="round" stroke-linejoin="round"/>
</g>
<path fill-rule="evenodd" clip-rule="evenodd" d="M188 0H208H228H248H268H288H308V20H288V40H268H248H228H208H188H168H148V60H128V40V20H148H168V0H188ZM128 60V80H108V60H128Z" fill="url(#paint9_linear)"/>
<path d="M181.857 11.8L177.761 3.8H179.041L182.433 10.52H182.465L185.345 3.8H186.561L181.681 15H180.465L181.857 11.8ZM189.27 10.792L186.966 7H188.15L190.118 10.36H191.558V7H192.614V10.36H194.054L196.022 7H197.206L194.902 10.792L197.366 15H196.15L194.054 11.32H192.614V15H191.558V11.32H190.118L188.022 15H186.806L189.27 10.792ZM201.851 15.112C201.339 15.112 200.87 15.0267 200.443 14.856C200.017 14.6853 199.654 14.44 199.355 14.12C199.057 13.7893 198.822 13.3893 198.651 12.92C198.491 12.44 198.411 11.8907 198.411 11.272V10.728C198.411 10.12 198.491 9.576 198.651 9.096C198.822 8.616 199.057 8.216 199.355 7.896C199.665 7.56533 200.027 7.31467 200.443 7.144C200.87 6.97333 201.339 6.888 201.851 6.888C202.363 6.888 202.833 6.97333 203.259 7.144C203.686 7.31467 204.049 7.56533 204.347 7.896C204.646 8.22667 204.875 8.63733 205.035 9.128C205.206 9.608 205.291 10.168 205.291 10.808V11.288H199.499C199.499 12.216 199.702 12.9253 200.107 13.416C200.513 13.9067 201.094 14.152 201.851 14.152C202.993 14.152 203.75 13.688 204.123 12.76H205.211C205.019 13.528 204.635 14.1147 204.059 14.52C203.494 14.9147 202.758 15.112 201.851 15.112ZM201.851 7.848C201.169 7.848 200.619 8.06667 200.203 8.504C199.787 8.93067 199.553 9.56 199.499 10.392H204.203C204.15 9.528 203.91 8.888 203.483 8.472C203.067 8.056 202.523 7.848 201.851 7.848ZM211.532 7H212.588V10.44H217.036V7H218.092V15H217.036V11.4H212.588V15H211.532V7ZM223.773 15.112C223.261 15.112 222.792 15.0267 222.365 14.856C221.938 14.6853 221.576 14.44 221.277 14.12C220.978 13.7893 220.744 13.3893 220.573 12.92C220.413 12.44 220.333 11.8907 220.333 11.272V10.728C220.333 10.12 220.413 9.576 220.573 9.096C220.744 8.616 220.978 8.216 221.277 7.896C221.586 7.56533 221.949 7.31467 222.365 7.144C222.792 6.97333 223.261 6.888 223.773 6.888C224.285 6.888 224.754 6.97333 225.181 7.144C225.608 7.31467 225.97 7.56533 226.269 7.896C226.568 8.22667 226.797 8.63733 226.957 9.128C227.128 9.608 227.213 10.168 227.213 10.808V11.288H221.421C221.421 12.216 221.624 12.9253 222.029 13.416C222.434 13.9067 223.016 14.152 223.773 14.152C224.914 14.152 225.672 13.688 226.045 12.76H227.133C226.941 13.528 226.557 14.1147 225.981 14.52C225.416 14.9147 224.68 15.112 223.773 15.112ZM223.773 7.848C223.09 7.848 222.541 8.06667 222.125 8.504C221.709 8.93067 221.474 9.56 221.421 10.392H226.125C226.072 9.528 225.832 8.888 225.405 8.472C224.989 8.056 224.445 7.848 223.773 7.848ZM235.086 7.96H232.414V7H238.814V7.96H236.142V15H235.086V7.96ZM243.148 15.112C242.636 15.112 242.167 15.0267 241.74 14.856C241.313 14.6853 240.951 14.44 240.652 14.12C240.353 13.7893 240.119 13.3893 239.948 12.92C239.788 12.44 239.708 11.8907 239.708 11.272V10.728C239.708 10.12 239.788 9.576 239.948 9.096C240.119 8.616 240.353 8.216 240.652 7.896C240.961 7.56533 241.324 7.31467 241.74 7.144C242.167 6.97333 242.636 6.888 243.148 6.888C243.66 6.888 244.129 6.97333 244.556 7.144C244.983 7.31467 245.345 7.56533 245.644 7.896C245.943 8.22667 246.172 8.63733 246.332 9.128C246.503 9.608 246.588 10.168 246.588 10.808V11.288H240.796C240.796 12.216 240.999 12.9253 241.404 13.416C241.809 13.9067 242.391 14.152 243.148 14.152C244.289 14.152 245.047 13.688 245.42 12.76H246.508C246.316 13.528 245.932 14.1147 245.356 14.52C244.791 14.9147 244.055 15.112 243.148 15.112ZM243.148 7.848C242.465 7.848 241.916 8.06667 241.5 8.504C241.084 8.93067 240.849 9.56 240.796 10.392H245.5C245.447 9.528 245.207 8.888 244.78 8.472C244.364 8.056 243.82 7.848 243.148 7.848ZM248.829 7H249.661L249.789 8.2H249.821C250.173 7.74133 250.562 7.41067 250.989 7.208C251.415 6.99467 251.917 6.888 252.493 6.888C252.962 6.888 253.394 6.97333 253.789 7.144C254.183 7.304 254.519 7.54933 254.797 7.88C255.085 8.2 255.309 8.6 255.469 9.08C255.629 9.56 255.709 10.1093 255.709 10.728V11.272C255.709 11.8907 255.629 12.44 255.469 12.92C255.309 13.3893 255.085 13.7893 254.797 14.12C254.509 14.44 254.167 14.6853 253.773 14.856C253.378 15.0267 252.951 15.112 252.493 15.112C251.341 15.112 250.482 14.7013 249.917 13.88H249.885V18.2H248.829V7ZM252.253 14.152C252.957 14.152 253.527 13.9173 253.965 13.448C254.402 12.968 254.621 12.2427 254.621 11.272V10.728C254.621 9.77867 254.397 9.064 253.949 8.584C253.511 8.09333 252.946 7.848 252.253 7.848C251.549 7.848 250.978 8.088 250.541 8.568C250.103 9.03733 249.885 9.75733 249.885 10.728V11.272C249.885 12.2213 250.103 12.9413 250.541 13.432C250.989 13.912 251.559 14.152 252.253 14.152ZM257.954 7H264.194V15H263.138V7.96H259.01V15H257.954V7ZM266.907 7H267.963V13.8H267.995L271.995 7H273.467V15H272.411V8.2H272.379L268.379 15H266.907V7ZM277.82 7.96H275.148V7H281.548V7.96H278.876V15H277.82V7.96ZM285.803 15.112C285.301 15.112 284.843 15.032 284.427 14.872C284.011 14.7013 283.653 14.4507 283.355 14.12C283.067 13.7893 282.843 13.3787 282.683 12.888C282.523 12.3973 282.443 11.832 282.443 11.192V10.648C282.443 10.0507 282.523 9.52267 282.683 9.064C282.853 8.59467 283.083 8.2 283.371 7.88C283.669 7.56 284.021 7.31467 284.427 7.144C284.843 6.97333 285.301 6.888 285.803 6.888C286.272 6.888 286.693 6.952 287.067 7.08C287.44 7.19733 287.76 7.368 288.027 7.592C288.293 7.80533 288.507 8.056 288.667 8.344C288.827 8.62133 288.939 8.92 289.003 9.24H287.915C287.797 8.84533 287.579 8.51467 287.259 8.248C286.939 7.98133 286.48 7.848 285.883 7.848C285.2 7.848 284.635 8.088 284.187 8.568C283.749 9.048 283.531 9.74133 283.531 10.648V11.192C283.531 12.1733 283.755 12.9147 284.203 13.416C284.651 13.9067 285.211 14.152 285.883 14.152C286.48 14.152 286.939 14.0133 287.259 13.736C287.579 13.4587 287.797 13.08 287.915 12.6H289.003C288.939 12.9627 288.827 13.2987 288.667 13.608C288.507 13.9067 288.293 14.168 288.027 14.392C287.76 14.616 287.44 14.792 287.067 14.92C286.693 15.048 286.272 15.112 285.803 15.112ZM292.153 11.8C291.609 11.6187 291.214 11.336 290.969 10.952C290.723 10.568 290.601 10.088 290.601 9.512C290.601 8.712 290.846 8.09333 291.337 7.656C291.838 7.21867 292.659 7 293.801 7H296.361V15H295.305V12.024H293.801C293.694 12.024 293.587 12.024 293.481 12.024C293.385 12.024 293.289 12.0187 293.193 12.008L291.497 15H290.281L292.153 11.8ZM291.689 9.512C291.689 10.0133 291.849 10.3973 292.169 10.664C292.489 10.9307 293.059 11.064 293.881 11.064H295.305V7.96H293.881C293.059 7.96 292.489 8.09333 292.169 8.36C291.849 8.62667 291.689 9.01067 291.689 9.512Z" fill="white"/>
<path d="M136.704 27H142.944V35H141.888V27.96H137.76V35H136.704V27ZM148.697 35.112C147.62 35.112 146.761 34.7813 146.121 34.12C145.492 33.4587 145.177 32.5093 145.177 31.272V30.728C145.177 30.12 145.257 29.576 145.417 29.096C145.588 28.616 145.828 28.216 146.137 27.896C146.446 27.5653 146.814 27.3147 147.241 27.144C147.678 26.9733 148.164 26.888 148.697 26.888C149.774 26.888 150.628 27.2187 151.257 27.88C151.897 28.5413 152.217 29.4907 152.217 30.728V31.272C152.217 31.88 152.132 32.424 151.961 32.904C151.801 33.384 151.566 33.7893 151.257 34.12C150.948 34.44 150.574 34.6853 150.137 34.856C149.71 35.0267 149.23 35.112 148.697 35.112ZM148.697 34.152C149.433 34.152 150.02 33.912 150.457 33.432C150.905 32.952 151.129 32.232 151.129 31.272V30.728C151.129 29.7787 150.905 29.064 150.457 28.584C150.009 28.0933 149.422 27.848 148.697 27.848C147.961 27.848 147.369 28.088 146.921 28.568C146.484 29.048 146.265 29.768 146.265 30.728V31.272C146.265 32.2213 146.489 32.9413 146.937 33.432C147.385 33.912 147.972 34.152 148.697 34.152ZM153.258 34.152H153.498C153.828 34.152 154.084 34.04 154.266 33.816C154.447 33.592 154.58 33.2667 154.666 32.84C154.762 32.4133 154.815 31.896 154.826 31.288C154.847 30.68 154.858 29.9973 154.858 29.24V27H160.298V35H159.242V27.96H155.914V29.24C155.914 30.104 155.898 30.8933 155.866 31.608C155.844 32.3227 155.754 32.9413 155.594 33.464C155.444 33.9867 155.204 34.392 154.874 34.68C154.554 34.968 154.095 35.112 153.498 35.112H153.258V34.152ZM165.4 35L162.056 27H163.208L165.944 33.688H165.976L168.488 27H169.576L165.256 38.2H164.168L165.4 35ZM174.045 32.28C172.978 32.28 172.205 32.0507 171.725 31.592C171.245 31.1333 171.005 30.424 171.005 29.464V27H172.061V29.4C172.061 30.104 172.205 30.6 172.493 30.888C172.792 31.176 173.309 31.32 174.045 31.32C174.45 31.32 174.824 31.2933 175.165 31.24C175.506 31.176 175.794 31.1173 176.029 31.064V27H177.085V35H176.029V32.024C175.794 32.0773 175.506 32.136 175.165 32.2C174.824 32.2533 174.45 32.28 174.045 32.28ZM179.798 27H180.854V33.8H180.886L184.886 27H186.358V35H185.302V28.2H185.27L181.27 35H179.798V27ZM190.711 27.96H188.039V27H194.439V27.96H191.767V35H190.711V27.96ZM196.126 27H197.182V29.88H199.006C200.04 29.88 200.803 30.1093 201.294 30.568C201.795 31.0267 202.046 31.6507 202.046 32.44C202.046 33.2187 201.795 33.8427 201.294 34.312C200.792 34.7707 200.03 35 199.006 35H196.126V27ZM197.182 30.84V34.04H198.926C199.662 34.04 200.184 33.9013 200.494 33.624C200.803 33.3467 200.958 32.952 200.958 32.44C200.958 31.928 200.798 31.5333 200.478 31.256C200.168 30.9787 199.651 30.84 198.926 30.84H197.182ZM208.049 23.8H211.569C212.849 23.8 213.783 24.0667 214.369 24.6C214.956 25.1227 215.249 25.848 215.249 26.776C215.249 27.3307 215.116 27.8107 214.849 28.216C214.593 28.6213 214.22 28.936 213.729 29.16V29.192C214.337 29.4053 214.796 29.7413 215.105 30.2C215.415 30.648 215.569 31.2027 215.569 31.864C215.569 32.8773 215.276 33.656 214.689 34.2C214.103 34.7333 213.169 35 211.889 35H208.049V23.8ZM209.169 24.824V28.728H211.489C212.428 28.728 213.095 28.5573 213.489 28.216C213.895 27.864 214.097 27.384 214.097 26.776C214.097 26.168 213.895 25.6933 213.489 25.352C213.095 25 212.428 24.824 211.489 24.824H209.169ZM209.169 29.752V33.976H211.809C212.748 33.976 213.415 33.8 213.809 33.448C214.215 33.0853 214.417 32.5573 214.417 31.864C214.417 31.1707 214.215 30.648 213.809 30.296C213.415 29.9333 212.748 29.752 211.809 29.752H209.169ZM219.971 35.112C219.086 35.112 218.425 34.9093 217.987 34.504C217.55 34.088 217.331 33.5173 217.331 32.792C217.331 32.0347 217.593 31.432 218.115 30.984C218.638 30.536 219.47 30.312 220.611 30.312H222.675V29.72C222.675 29.08 222.521 28.616 222.211 28.328C221.902 28.0293 221.395 27.88 220.691 27.88C220.041 27.88 219.561 27.992 219.251 28.216C218.953 28.44 218.782 28.728 218.739 29.08H217.651C217.673 28.792 217.753 28.5147 217.891 28.248C218.03 27.9813 218.222 27.7467 218.467 27.544C218.723 27.3413 219.038 27.1813 219.411 27.064C219.785 26.9467 220.211 26.888 220.691 26.888C221.726 26.888 222.489 27.128 222.979 27.608C223.481 28.0773 223.731 28.7813 223.731 29.72V35H222.899L222.771 33.64H222.739C222.419 34.12 222.019 34.488 221.539 34.744C221.07 34.9893 220.547 35.112 219.971 35.112ZM220.051 34.12C220.435 34.12 220.787 34.0613 221.107 33.944C221.427 33.816 221.705 33.6453 221.939 33.432C222.174 33.208 222.355 32.9467 222.483 32.648C222.611 32.3387 222.675 32.0027 222.675 31.64V31.208H220.691C219.87 31.208 219.283 31.352 218.931 31.64C218.59 31.928 218.419 32.312 218.419 32.792C218.419 33.1973 218.547 33.5227 218.803 33.768C219.07 34.0027 219.486 34.12 220.051 34.12ZM226.376 27H227.432V34.04H230.568V27H231.624V34.04H234.76V27H235.816V35H226.376V27ZM245.668 35.112C244.58 35.112 243.716 34.7653 243.076 34.072C242.447 33.368 242.132 32.2747 242.132 30.792V29.928C242.132 29.32 242.159 28.744 242.212 28.2C242.265 27.656 242.356 27.16 242.484 26.712C242.623 26.264 242.809 25.8693 243.044 25.528C243.279 25.176 243.583 24.888 243.956 24.664C244.287 24.472 244.612 24.344 244.932 24.28C245.263 24.2053 245.609 24.152 245.972 24.12C246.335 24.088 246.724 24.0507 247.14 24.008C247.556 23.9547 248.02 23.848 248.532 23.688V24.664C248.127 24.8133 247.732 24.9093 247.348 24.952C246.975 24.9947 246.612 25.032 246.26 25.064C245.919 25.096 245.593 25.1387 245.284 25.192C244.975 25.2453 244.692 25.352 244.436 25.512C244.041 25.768 243.743 26.1307 243.54 26.6C243.348 27.0693 243.22 27.6827 243.156 28.44H243.188C243.465 27.992 243.828 27.6507 244.276 27.416C244.735 27.1707 245.263 27.048 245.86 27.048C246.34 27.048 246.783 27.1333 247.188 27.304C247.593 27.4747 247.94 27.72 248.228 28.04C248.527 28.36 248.756 28.7547 248.916 29.224C249.087 29.6933 249.172 30.2213 249.172 30.808V31.352C249.172 31.9387 249.087 32.4667 248.916 32.936C248.745 33.3947 248.505 33.7893 248.196 34.12C247.897 34.44 247.529 34.6853 247.092 34.856C246.665 35.0267 246.191 35.112 245.668 35.112ZM245.668 34.152C246.393 34.152 246.975 33.9173 247.412 33.448C247.86 32.968 248.084 32.2693 248.084 31.352V30.808C248.084 29.8907 247.86 29.1973 247.412 28.728C246.975 28.248 246.393 28.008 245.668 28.008C244.921 28.008 244.324 28.2427 243.876 28.712C243.439 29.1813 243.22 29.88 243.22 30.808V31.352C243.22 32.2587 243.444 32.952 243.892 33.432C244.34 33.912 244.932 34.152 245.668 34.152ZM251.407 27H252.239L252.367 28.2H252.399C252.751 27.7413 253.14 27.4107 253.567 27.208C253.994 26.9947 254.495 26.888 255.071 26.888C255.54 26.888 255.972 26.9733 256.367 27.144C256.762 27.304 257.098 27.5493 257.375 27.88C257.663 28.2 257.887 28.6 258.047 29.08C258.207 29.56 258.287 30.1093 258.287 30.728V31.272C258.287 31.8907 258.207 32.44 258.047 32.92C257.887 33.3893 257.663 33.7893 257.375 34.12C257.087 34.44 256.746 34.6853 256.351 34.856C255.956 35.0267 255.53 35.112 255.071 35.112C253.919 35.112 253.06 34.7013 252.495 33.88H252.463V38.2H251.407V27ZM254.831 34.152C255.535 34.152 256.106 33.9173 256.543 33.448C256.98 32.968 257.199 32.2427 257.199 31.272V30.728C257.199 29.7787 256.975 29.064 256.527 28.584C256.09 28.0933 255.524 27.848 254.831 27.848C254.127 27.848 253.556 28.088 253.119 28.568C252.682 29.0373 252.463 29.7573 252.463 30.728V31.272C252.463 32.2213 252.682 32.9413 253.119 33.432C253.567 33.912 254.138 34.152 254.831 34.152ZM260.532 27H261.588V33.8H261.62L265.62 27H267.092V35H266.036V28.2H266.004L262.004 35H260.532V27ZM273.525 35.112H272.933C272.389 35.112 271.893 35.0267 271.445 34.856C271.008 34.6747 270.629 34.4187 270.309 34.088C270 33.7467 269.76 33.3413 269.589 32.872C269.418 32.4027 269.333 31.8693 269.333 31.272V30.728C269.333 30.1413 269.418 29.6133 269.589 29.144C269.77 28.664 270.016 28.2587 270.325 27.928C270.645 27.5973 271.024 27.3413 271.461 27.16C271.909 26.9787 272.4 26.888 272.933 26.888H273.525V23.8H274.581V26.888H275.173C275.717 26.888 276.208 26.9787 276.645 27.16C277.093 27.3307 277.472 27.5867 277.781 27.928C278.101 28.2587 278.346 28.664 278.517 29.144C278.688 29.6133 278.773 30.1413 278.773 30.728V31.272C278.773 31.8587 278.682 32.392 278.501 32.872C278.33 33.3413 278.085 33.7413 277.765 34.072C277.456 34.4027 277.077 34.6587 276.629 34.84C276.192 35.0213 275.706 35.112 275.173 35.112H274.581V38.2H273.525V35.112ZM277.685 30.728C277.685 29.8107 277.456 29.1067 276.997 28.616C276.549 28.1253 275.941 27.88 275.173 27.88H274.581V34.12H275.173C275.941 34.12 276.549 33.88 276.997 33.4C277.456 32.9093 277.685 32.2 277.685 31.272V30.728ZM270.421 31.272C270.421 32.1893 270.645 32.8933 271.093 33.384C271.552 33.8747 272.165 34.12 272.933 34.12H273.525V27.88H272.933C272.165 27.88 271.552 28.1253 271.093 28.616C270.645 29.096 270.421 29.8 270.421 30.728V31.272Z" fill="white"/>
<defs>
<linearGradient id="paint0_linear" x1="86.4097" y1="87.0191" x2="97.4151" y2="87.0191" gradientUnits="userSpaceOnUse">
<stop stop-color="#3FFFD8"/>
<stop offset="0.4888" stop-color="#B9C3FC"/>
<stop offset="1" stop-color="#FF7EA7"/>
</linearGradient>
<linearGradient id="paint1_linear" x1="72.31" y1="87.0249" x2="83.3399" y2="87.0249" gradientUnits="userSpaceOnUse">
<stop stop-color="#3FFFD8"/>
<stop offset="0.4888" stop-color="#B9C3FC"/>
<stop offset="1" stop-color="#FF7EA7"/>
</linearGradient>
<linearGradient id="paint2_linear" x1="39.234" y1="96.5422" x2="51.389" y2="96.5422" gradientUnits="userSpaceOnUse">
<stop stop-color="#3FFFD8"/>
<stop offset="0.4888" stop-color="#B9C3FC"/>
<stop offset="1" stop-color="#FF7EA7"/>
</linearGradient>
<linearGradient id="paint3_linear" x1="24.6889" y1="96.5642" x2="36.4442" y2="96.5642" gradientUnits="userSpaceOnUse">
<stop stop-color="#3FFFD8"/>
<stop offset="0.4888" stop-color="#B9C3FC"/>
<stop offset="1" stop-color="#FF7EA7"/>
</linearGradient>
<linearGradient id="paint4_linear" x1="33.6645" y1="84.4028" x2="43.9769" y2="84.4028" gradientUnits="userSpaceOnUse">
<stop stop-color="#3FFFD8"/>
<stop offset="0.4888" stop-color="#B9C3FC"/>
<stop offset="1" stop-color="#FF7EA7"/>
</linearGradient>
<linearGradient id="paint5_linear" x1="167.954" y1="88.2262" x2="180.109" y2="88.2262" gradientUnits="userSpaceOnUse">
<stop stop-color="#3FFFD8"/>
<stop offset="0.4888" stop-color="#B9C3FC"/>
<stop offset="1" stop-color="#FF7EA7"/>
</linearGradient>
<linearGradient id="paint6_linear" x1="153.409" y1="88.2492" x2="165.164" y2="88.2492" gradientUnits="userSpaceOnUse">
<stop stop-color="#3FFFD8"/>
<stop offset="0.4888" stop-color="#B9C3FC"/>
<stop offset="1" stop-color="#FF7EA7"/>
</linearGradient>
<linearGradient id="paint7_linear" x1="130.135" y1="134.375" x2="139.701" y2="134.375" gradientUnits="userSpaceOnUse">
<stop stop-color="#3FFFD8"/>
<stop offset="0.4888" stop-color="#B9C3FC"/>
<stop offset="1" stop-color="#FF7EA7"/>
</linearGradient>
<linearGradient id="paint8_linear" x1="116.132" y1="134.375" x2="125.697" y2="134.375" gradientUnits="userSpaceOnUse">
<stop stop-color="#3FFFD8"/>
<stop offset="0.4888" stop-color="#B9C3FC"/>
<stop offset="1" stop-color="#FF7EA7"/>
</linearGradient>
<linearGradient id="paint9_linear" x1="108.021" y1="40" x2="307.987" y2="40" gradientUnits="userSpaceOnUse">
<stop stop-color="#68FFE0"/>
<stop offset="0.572917" stop-color="#B9C3FC"/>
<stop offset="1" stop-color="#FF7EA7"/>
</linearGradient>
<clipPath id="clip0">
<rect width="250" height="235.507" fill="white" transform="translate(0 60.9565)"/>
</clipPath>
</defs>
</svg>
