<svg width="561" height="697" viewBox="0 0 561 697" fill="none" xmlns="http://www.w3.org/2000/svg">
<g clip-path="url(#clip0)">
<path d="M198.16 472.189L203.387 475.013L221.089 566.741L221.829 570.575" stroke="white" stroke-width="2" stroke-miterlimit="10" stroke-linecap="round" stroke-linejoin="round"/>
<path d="M48.4277 473.061H39.7162L40.4393 477.052L41.2669 481.583C40.0298 482.114 38.8364 482.202 37.7997 481.748C34.6462 480.363 34.1932 474.446 36.7892 468.539C39.3852 462.631 44.0545 458.971 47.2081 460.357C50.2745 461.698 50.7885 467.327 48.4277 473.061Z" stroke="white" stroke-width="2" stroke-miterlimit="10" stroke-linecap="round" stroke-linejoin="round"/>
<path d="M331.357 432.586C331.192 440.629 331.035 448.671 330.87 456.714C325.033 464.809 295.85 471.562 283.218 466.787L282.408 462.447C285.248 463.833 289.238 464.539 294.839 463.763C314.344 461.062 304.221 457.777 299.9 456.67C298.751 456.374 297.644 455.921 296.625 455.311C292.679 452.984 281.11 446.606 279.324 445.892L277.434 435.766C284.107 437.117 292.975 438.25 303.385 437.762C314.936 437.213 324.484 434.851 331.357 432.586Z" fill="url(#paint0_linear)"/>
<path d="M440.173 479.091C418.62 440.185 358.773 441.039 316.74 377.726C315.895 376.445 315.094 375.112 314.336 373.735C314.214 373.5 314.092 373.273 313.979 373.055C313.473 372.14 313.012 371.208 312.559 370.258C312.506 370.136 312.454 370.04 312.41 369.953C312.315 369.744 312.262 369.631 312.262 369.631C302.401 348.352 301.434 319.684 301.373 318.151C301.373 318.116 301.373 318.09 301.373 318.09" stroke="white" stroke-width="2" stroke-miterlimit="10" stroke-linecap="round" stroke-linejoin="round"/>
<path d="M464.33 619.127C450.575 633.043 433.579 639.613 418.534 638.367C414.196 638.018 410.023 637.007 406.137 635.343C396.729 631.309 389.002 623.414 384.707 611.503C373.862 581.45 401.364 574.54 419.501 573.146L416.086 589.039C412.07 590.398 409.352 594.076 410.772 602.118C411.46 602.85 412.148 603.512 412.854 604.096C415.598 606.423 418.473 607.669 421.374 607.991C423.665 608.244 426.087 607.224 428.526 605.133C431.244 602.807 433.971 599.147 436.549 594.468C436.793 594.694 437.046 594.929 437.316 595.173C437.586 595.417 437.873 595.679 438.161 595.94C438.178 595.949 438.187 595.966 438.204 595.984C438.596 596.341 439.023 596.716 439.459 597.099C439.467 597.108 439.476 597.117 439.485 597.125C439.938 597.526 440.408 597.936 440.896 598.363C441.157 598.589 441.428 598.816 441.706 599.051C441.942 599.26 442.185 599.461 442.429 599.67C442.699 599.896 442.969 600.123 443.248 600.358C444.18 601.134 445.156 601.944 446.193 602.763C446.689 603.164 447.195 603.565 447.717 603.974C447.735 603.992 447.752 604 447.769 604.018C448.397 604.506 449.033 604.994 449.686 605.482C450.697 606.248 451.733 607.015 452.805 607.773C453.162 608.035 453.519 608.287 453.885 608.54C454.338 608.863 454.791 609.176 455.261 609.49C455.714 609.812 456.185 610.126 456.655 610.44C456.228 612.845 458.223 615.99 461.647 617.968C462.535 618.474 463.441 618.866 464.33 619.127Z" stroke="white" stroke-width="2" stroke-miterlimit="10" stroke-linecap="round" stroke-linejoin="round"/>
<path d="M416.086 589.039L412.854 604.096C412.148 603.512 411.46 602.85 410.772 602.118C409.352 594.076 412.07 590.398 416.086 589.039Z" stroke="white" stroke-width="2" stroke-miterlimit="10" stroke-linecap="round" stroke-linejoin="round"/>
<path d="M530.719 601.351C530.24 600.566 529.587 600 528.777 599.73C526.076 598.824 522.696 601.603 521.241 605.943C519.917 609.881 520.623 613.759 522.801 615.109C521.215 616.547 519.456 617.802 517.556 618.865C516.947 616.242 513.14 614.569 508.793 615.074C504.254 615.615 500.839 618.342 501.17 621.174C501.275 622.089 501.771 622.908 502.538 623.579C499.358 623.98 496.109 624.084 492.886 623.919C493.635 621.183 490.716 617.959 486.335 616.704C481.935 615.44 477.736 616.643 476.944 619.388C476.804 619.867 476.787 620.372 476.865 620.869C474.818 620.163 472.78 619.335 470.767 618.42C471.02 618.194 471.229 617.933 471.403 617.636C472.823 615.17 470.767 611.31 466.803 609.019C462.84 606.736 458.475 606.875 457.047 609.35C456.855 609.689 456.724 610.055 456.655 610.439C456.184 610.125 455.714 609.811 455.261 609.489C454.79 609.175 454.337 608.862 453.884 608.539C453.519 608.287 453.161 608.034 452.804 607.772C451.733 607.014 450.696 606.248 449.686 605.481C449.032 604.993 448.396 604.505 447.769 604.017C447.752 603.999 447.734 603.991 447.717 603.973C447.194 603.564 446.689 603.163 446.192 602.762C445.156 601.943 444.18 601.133 443.248 600.357C442.969 600.122 442.699 599.895 442.429 599.669C442.185 599.46 441.941 599.259 441.706 599.05C441.427 598.815 441.157 598.588 440.896 598.362C440.408 597.935 439.937 597.525 439.484 597.124C439.476 597.116 439.467 597.107 439.458 597.098C439.023 596.715 438.596 596.34 438.204 595.983C438.186 595.966 438.178 595.948 438.16 595.939C437.873 595.678 437.585 595.417 437.315 595.173C437.045 594.929 436.793 594.693 436.549 594.467C433.97 599.146 431.243 602.806 428.525 605.132L432.724 591.173L437.82 574.234C439.903 574.94 441.985 575.741 444.049 576.604C449.494 578.878 454.79 581.597 459.599 584.298C460.2 584.638 460.793 584.978 461.376 585.309C461.402 585.318 461.437 585.335 461.463 585.361C464.652 587.513 479.74 596.793 480.036 596.793C480.62 597.124 481.038 597.316 481.282 597.368C483.895 597.883 520.388 605.219 513.227 567.054C512.199 558.898 513.262 555.953 515.291 556.362C518.506 556.981 524.168 565.982 527.871 575.977C525.771 577.144 524.526 580.56 524.97 584.385C525.501 588.934 528.237 592.349 531.068 592.018C531.207 592.001 531.347 591.975 531.486 591.94C531.643 595.39 531.364 598.519 530.719 601.351Z" stroke="white" stroke-width="2" stroke-miterlimit="10" stroke-linecap="round" stroke-linejoin="round"/>
<path d="M461.463 585.362C470.218 590.389 477.44 594.546 480.341 596.167C491.265 573.99 495.263 543.859 486.142 505.127" stroke="white" stroke-width="2" stroke-miterlimit="10" stroke-linecap="round" stroke-linejoin="round"/>
<path d="M444.049 576.604C446.009 570.496 447.682 563.769 448.936 556.685C448.945 556.624 448.962 556.572 448.971 556.511C449.441 553.783 449.859 551.012 450.208 548.198C450.208 548.189 450.208 548.18 450.208 548.18C450.617 544.869 450.922 541.515 451.122 538.125" stroke="white" stroke-width="2" stroke-miterlimit="10" stroke-linecap="round" stroke-linejoin="round"/>
<path d="M311.312 314.378C357.692 424.526 426.347 398.447 467.178 457.856C469.469 461.185 478.93 480.677 480.245 484.58C480.419 485.103 480.593 485.617 480.759 486.14" stroke="white" stroke-width="2" stroke-miterlimit="10" stroke-linecap="round" stroke-linejoin="round"/>
<path d="M275.691 360.211C275.604 360.429 275.517 360.647 275.43 360.864C274.463 363.313 273.418 365.639 272.303 367.844C240.645 430.721 153.574 399.213 111.341 404.807C82.0793 408.676 64.7784 417.529 47.6517 437.919C24.9584 464.931 24.8451 507.366 39.9072 538.125C43.5312 545.531 48.0263 552.319 53.5668 558.114" stroke="white" stroke-width="2" stroke-miterlimit="10" stroke-linecap="round" stroke-linejoin="round"/>
<path d="M73.8379 572.256C90.1719 579.314 111.889 580.438 140.698 572.256" stroke="white" stroke-width="2" stroke-miterlimit="10" stroke-linecap="round" stroke-linejoin="round"/>
<path d="M197.531 572.256C200.232 573.38 202.471 574.539 204.256 575.593C206.007 576.63 210.189 579.436 213.02 583.932C218.43 592.506 215.651 602.475 215.242 603.877C212.715 612.426 206.312 617.218 202.837 619.815C201.129 621.096 199.587 622.019 198.463 622.638" stroke="white" stroke-width="2" stroke-miterlimit="10" stroke-linecap="round" stroke-linejoin="round"/>
<path d="M198.455 622.647L198.464 622.639C199.988 622.142 201.478 621.157 202.837 619.815C217.028 605.9 218.718 553.226 128.955 591.853C76.3028 614.509 -23.2081 558.672 18.6679 447.983C38.1293 396.538 107.638 382.074 168.026 387.59C171.188 387.877 174.376 387.86 177.53 387.563C234.346 382.231 249.077 326.237 247.37 309.193" stroke="white" stroke-width="2" stroke-miterlimit="10" stroke-linecap="round" stroke-linejoin="round"/>
<path d="M291.085 510.163C251.596 510.163 220.278 500.264 220.862 461.925C221.445 423.585 272.764 404.946 275.691 357.841" stroke="white" stroke-width="2" stroke-miterlimit="10" stroke-linecap="round" stroke-linejoin="round"/>
<path d="M56.1618 284.699C56.336 284.786 56.3099 284.821 56.1008 284.812C54.2888 284.673 38.7302 280.43 28.3897 268.771C18.6416 257.8 12.2212 230.727 29.2085 208.264C43.504 189.373 76.5291 172.581 114.38 193.163C152.24 213.744 146.064 255.125 146.064 278.748C146.064 284.054 146.465 289.492 147.484 294.824" stroke="white" stroke-width="2" stroke-miterlimit="10" stroke-linecap="round" stroke-linejoin="round"/>
<path d="M148.504 299.338C152.877 315.972 163.993 330.977 188.577 337.32C223.144 346.226 245.314 310.352 247.37 309.193" stroke="white" stroke-width="2" stroke-miterlimit="10" stroke-linecap="round" stroke-linejoin="round"/>
<path d="M102.003 295.948C81.8965 326.254 14.5396 323.858 2.03867 254.193C-5.45317 212.385 23.9305 174.986 68.2893 167.623C118.223 159.337 156.562 186.654 165.439 217.369C165.518 217.648 165.57 217.936 165.614 218.214C185.432 335.569 238.973 296.096 239.103 272.003" stroke="white" stroke-width="2" stroke-miterlimit="10" stroke-linecap="round" stroke-linejoin="round"/>
<path d="M56.0928 285.44C56.0667 285.23 56.0667 285.021 56.1016 284.812C56.1016 284.769 56.1103 284.734 56.119 284.69C56.1277 284.69 56.1277 284.69 56.1277 284.69C56.842 280.638 67.3132 275.558 79.7183 280.272C79.7444 280.29 79.7793 280.299 79.8054 280.307C82.7238 281.431 85.7466 283.096 88.7782 285.44" stroke="white" stroke-width="2" stroke-miterlimit="10" stroke-linecap="round" stroke-linejoin="round"/>
<path d="M116.725 210.66C114.774 208.019 112.378 205.597 109.451 203.436" stroke="white" stroke-width="2" stroke-miterlimit="10" stroke-linecap="round" stroke-linejoin="round"/>
<path d="M33.8438 215.374C31.9795 218.476 30.4463 221.778 29.2441 225.176" stroke="white" stroke-width="2" stroke-miterlimit="10" stroke-linecap="round" stroke-linejoin="round"/>
<path d="M58.6622 194.844C54.6376 196.204 50.9439 198.103 47.6074 200.438" stroke="white" stroke-width="2" stroke-miterlimit="10" stroke-linecap="round" stroke-linejoin="round"/>
<path d="M79.6484 192.797C80.8942 192.936 82.1748 193.119 83.464 193.355C85.5809 193.738 87.5933 194.165 89.5011 194.644" stroke="white" stroke-width="2" stroke-miterlimit="10" stroke-linecap="round" stroke-linejoin="round"/>
<path d="M37.2849 259.482C35.1593 254.864 31.4308 252.049 28.9655 253.191C28.347 253.47 27.8678 253.984 27.5281 254.655C27.5281 254.655 27.5281 254.655 27.5281 254.664C26.5089 256.668 26.7615 260.153 28.3557 263.612C30.1067 267.403 32.9205 269.982 35.2377 270.148C35.7517 270.191 36.2308 270.113 36.6751 269.912C39.1492 268.771 39.4192 264.1 37.2849 259.482Z" stroke="white" stroke-width="2" stroke-miterlimit="10" stroke-linecap="round" stroke-linejoin="round"/>
<path d="M56.1632 284.699C56.1632 284.699 56.1545 284.699 56.1283 284.69C56.1283 284.69 56.1283 284.69 56.1196 284.69C55.745 284.595 52.6699 283.671 42.8085 277.005C39.8902 275.027 37.3639 272.718 35.2383 270.147" stroke="white" stroke-width="2" stroke-miterlimit="10" stroke-linecap="round" stroke-linejoin="round"/>
<path d="M27.5275 254.655C26.5083 250.629 26.0553 246.429 26.1337 242.168" stroke="white" stroke-width="2" stroke-miterlimit="10" stroke-linecap="round" stroke-linejoin="round"/>
<path d="M335.73 358.582C362.327 373.038 393.278 370.04 411.982 352.23C428.612 336.397 429.527 314.604 429.596 309.193" stroke="white" stroke-width="2" stroke-miterlimit="10" stroke-linecap="round" stroke-linejoin="round"/>
<path d="M460.103 312.417C460.059 313.105 460.016 313.968 459.955 314.987" stroke="white" stroke-width="2" stroke-miterlimit="10" stroke-linecap="round" stroke-linejoin="round"/>
<path d="M456.977 337.294C456.045 341.625 454.817 346.234 453.205 350.913" stroke="white" stroke-width="2" stroke-miterlimit="10" stroke-linecap="round" stroke-linejoin="round"/>
<path d="M443.134 371.557C440.512 375.46 437.481 379.198 433.979 382.64" stroke="white" stroke-width="2" stroke-miterlimit="10" stroke-linecap="round" stroke-linejoin="round"/>
<path d="M396.99 399.17C402.966 399.109 409.439 397.941 416.129 394.987" stroke="white" stroke-width="2" stroke-miterlimit="10" stroke-linecap="round" stroke-linejoin="round"/>
<path d="M363.66 388.155C363.66 388.155 365.507 389.619 368.782 391.484C368.791 391.484 368.791 391.493 368.8 391.493C371.187 392.852 374.332 394.42 378.069 395.788" stroke="white" stroke-width="2" stroke-miterlimit="10" stroke-linecap="round" stroke-linejoin="round"/>
<path d="M314.439 290.581C314.492 294.972 315.398 299.207 317.271 303.45C326.426 324.189 347.822 332.571 347.822 332.571C349.512 333.225 365.558 339.237 380.742 334.802C404.951 327.718 422.923 295.216 420.17 255.116" stroke="white" stroke-width="2" stroke-miterlimit="10" stroke-linecap="round" stroke-linejoin="round"/>
<path d="M334.024 241.357C323.579 259.621 316.305 273.301 314.754 285.439" stroke="white" stroke-width="2" stroke-miterlimit="10" stroke-linecap="round" stroke-linejoin="round"/>
<path d="M190.823 124.02C187.199 115.795 185.039 106.445 185.675 94.6033C187.94 52.1594 223.509 24.8946 228.457 21.2174C275.115 -13.4539 330.398 6.16035 336.871 8.57402C347.089 12.3906 385.411 26.6983 398.234 61.4916C407.469 86.5258 399.802 112.144 382.075 150.022" stroke="white" stroke-width="2" stroke-miterlimit="10" stroke-linecap="round" stroke-linejoin="round"/>
<path d="M204.58 296.942C204.58 296.951 204.58 296.951 204.58 296.951C204.702 296.985 220.191 285.17 223.423 242.926" stroke="white" stroke-width="2" stroke-miterlimit="10" stroke-linecap="round" stroke-linejoin="round"/>
<path d="M406.136 635.343C410.022 637.007 414.194 638.018 418.533 638.366L403.836 687.215L401.632 686.648L397.651 685.62L395.447 685.054L406.136 635.343Z" stroke="white" stroke-width="2" stroke-miterlimit="10" stroke-linecap="round" stroke-linejoin="round"/>
<path d="M448.675 538.125L437.821 574.234L432.724 591.173L428.525 605.133C426.086 607.224 423.664 608.243 421.373 607.991C418.472 607.668 415.598 606.422 412.854 604.096L416.085 589.039L419.5 573.145L427.027 538.125H448.675V538.125Z" stroke="white" stroke-width="2" stroke-miterlimit="10" stroke-linecap="round" stroke-linejoin="round"/>
<path d="M291.303 510.163C291.468 511.043 291.642 511.923 291.808 512.803C291.86 513.082 291.93 513.457 291.982 513.736C294.683 515.435 300.633 518.668 308.795 518.955C319.589 519.33 327.264 514.337 329.738 512.568C330.574 507.819 331.323 502.051 329.999 501.606C329.502 501.441 328.884 502.077 328.727 502.225C326.889 504.003 317.881 506.53 291.303 510.163Z" fill="url(#paint1_linear)"/>
<path d="M279.236 445.867C279.236 445.858 279.236 445.849 279.236 445.84" stroke="white" stroke-width="2" stroke-miterlimit="10" stroke-linecap="round" stroke-linejoin="round"/>
<path d="M337.273 427.585C337.273 427.585 318.796 443.426 277.434 435.767C276.171 435.54 274.899 435.287 273.593 435.008C272.164 434.695 271.432 434.364 269.951 433.998L273.662 424.526C273.662 424.526 273.706 424.535 273.802 424.561C273.793 424.665 273.793 424.77 273.802 424.866C273.95 426.338 276.65 427.419 281.006 428.02C286.52 428.796 294.7 428.804 303.743 427.881C306.139 427.637 308.491 427.332 310.747 426.975C310.756 426.975 310.756 426.975 310.756 426.975C315.66 426.46 320.504 425.485 324.886 423.838H324.894C327.586 422.827 330.095 421.572 332.351 420.012C332.377 420.004 332.43 418.871 332.456 418.854L337.273 427.585Z" stroke="white" stroke-width="2" stroke-miterlimit="10" stroke-linecap="round" stroke-linejoin="round"/>
<path d="M448.936 556.685C448.944 556.624 448.962 556.572 448.97 556.511C449.528 553.661 449.937 550.89 450.207 548.198C450.207 548.189 450.207 548.18 450.207 548.18C450.556 544.712 450.678 541.358 450.591 538.125" stroke="white" stroke-width="2" stroke-miterlimit="10" stroke-linecap="round" stroke-linejoin="round"/>
<path d="M351.01 424.892C335.809 405.949 319.397 383.503 314.335 373.735C314.213 373.5 314.091 373.273 313.978 373.055C313.56 372.236 313.211 371.557 312.933 371.016C312.846 370.833 312.758 370.676 312.689 370.528C312.645 370.433 312.602 370.337 312.558 370.258C312.506 370.136 312.454 370.04 312.41 369.953C312.314 369.744 312.262 369.631 312.262 369.631C313.908 389.794 303.812 404.781 291.895 417.346" stroke="white" stroke-width="2" stroke-miterlimit="10" stroke-linecap="round" stroke-linejoin="round"/>
<path d="M370.82 447.53C369.208 445.944 367.57 444.271 365.924 442.502" stroke="white" stroke-width="2" stroke-miterlimit="10" stroke-linecap="round" stroke-linejoin="round"/>
<path d="M411.712 479.57L410.589 479.588C410.528 479.239 410.449 478.89 410.336 478.524C410.798 478.873 411.259 479.222 411.712 479.57Z" stroke="white" stroke-width="2" stroke-miterlimit="10" stroke-linecap="round" stroke-linejoin="round"/>
<path d="M394.046 466.839C390.962 464.609 387.808 462.265 384.576 459.686" stroke="white" stroke-width="2" stroke-miterlimit="10" stroke-linecap="round" stroke-linejoin="round"/>
<path d="M459.6 584.299C459.678 584.203 460.305 584.586 461.377 585.309" stroke="white" stroke-width="2" stroke-miterlimit="10" stroke-linecap="round" stroke-linejoin="round"/>
<path d="M223.893 586.704C223.798 584.917 223.562 583.244 223.223 581.685" stroke="white" stroke-width="2" stroke-miterlimit="10" stroke-linecap="round" stroke-linejoin="round"/>
<path d="M222.396 600.95C221.925 602.702 221.376 604.314 220.758 605.795" stroke="white" stroke-width="2" stroke-miterlimit="10" stroke-linecap="round" stroke-linejoin="round"/>
<path d="M198.455 622.647C198.455 622.647 207.175 622.403 214.432 615.284" stroke="white" stroke-width="2" stroke-miterlimit="10" stroke-linecap="round" stroke-linejoin="round"/>
<path d="M238.65 408.301C256.143 397.636 266.44 382.509 272.303 367.844C273.653 364.463 274.777 361.109 275.691 357.841C280.5 340.684 279.768 325.862 278.418 322.124" stroke="white" stroke-width="2" stroke-miterlimit="10" stroke-linecap="round" stroke-linejoin="round"/>
<path d="M218.536 417.312C214.572 418.558 210.356 419.612 205.869 420.457" stroke="white" stroke-width="2" stroke-miterlimit="10" stroke-linecap="round" stroke-linejoin="round"/>
<path d="M171.371 422.565C175.884 422.774 180.205 422.809 184.36 422.687" stroke="white" stroke-width="2" stroke-miterlimit="10" stroke-linecap="round" stroke-linejoin="round"/>
<path d="M150.743 422.365C146.44 422.487 142.241 422.705 138.242 422.993" stroke="white" stroke-width="2" stroke-miterlimit="10" stroke-linecap="round" stroke-linejoin="round"/>
<path d="M108.406 427.314C109.434 427.053 110.471 426.8 111.534 426.548C113.232 426.147 115.219 425.755 117.431 425.38" stroke="white" stroke-width="2" stroke-miterlimit="10" stroke-linecap="round" stroke-linejoin="round"/>
<path d="M86.7395 435.069C83.9954 436.498 81.4604 438.076 79.0996 439.853" stroke="white" stroke-width="2" stroke-miterlimit="10" stroke-linecap="round" stroke-linejoin="round"/>
<path d="M64.6913 456.914C63.7156 459.04 60.9279 466.403 60.0742 468.834" stroke="white" stroke-width="1.8426" stroke-miterlimit="10" stroke-linecap="round" stroke-linejoin="round"/>
<path d="M62.0508 472.189H55.8047C56.7629 470.159 58.1829 468.817 59.4983 468.774C59.69 468.765 59.8816 468.782 60.0733 468.835C61.1884 469.148 61.8853 470.447 62.0508 472.189Z" stroke="white" stroke-width="2" stroke-miterlimit="10" stroke-linecap="round" stroke-linejoin="round"/>
<path d="M211.81 565.834C211.4 565.642 210.973 565.459 210.555 565.285C210.242 565.146 209.919 565.024 209.606 564.91C209.606 564.902 209.597 564.902 209.597 564.902C208.813 563.255 206.835 561.686 204.239 560.824C203.194 560.475 202.157 560.275 201.173 560.222C199.065 560.1 197.235 560.632 196.26 561.678C195.842 561.625 195.432 561.582 195.023 561.547C193.376 561.39 191.73 561.294 190.075 561.259C189.805 561.251 189.543 561.242 189.282 561.242C188.419 561.233 187.548 561.233 186.686 561.251C186.398 561.251 186.111 561.259 185.823 561.277C185.466 561.277 185.118 561.294 184.769 561.312C184.203 561.329 183.637 561.364 183.071 561.399C182.652 561.425 182.234 561.451 181.807 561.486C181.363 561.521 180.919 561.556 180.475 561.599C180.039 561.634 179.603 561.678 179.168 561.721C176.476 562.009 173.828 562.392 171.249 562.863C170.709 562.958 170.169 563.063 169.629 563.168C169.097 563.272 168.566 563.377 168.035 563.49C167.094 563.682 166.179 563.891 165.273 564.1C164.951 564.17 164.637 564.248 164.324 564.326C163.862 564.431 163.409 564.544 162.965 564.658C162.067 564.884 161.187 565.111 160.325 565.346C159.463 565.581 158.618 565.817 157.79 566.06C157.738 566.078 157.685 566.087 157.633 566.104C156.928 566.313 156.248 566.514 155.577 566.723C153.147 567.472 150.917 568.221 148.948 568.936C148.355 569.145 147.78 569.354 147.232 569.555C146.901 569.677 146.578 569.799 146.265 569.921C146.239 569.929 146.204 569.938 146.178 569.947C143.46 570.809 141.186 571.655 139.644 572.256H56.136L53.5662 558.114L39.5233 480.711L38.6957 476.18L37.9727 472.189L197.985 471.117" fill="url(#paint2_linear)"/>
<path d="M147.484 294.824C148.277 297.508 148.748 299.094 148.765 299.164C148.765 299.19 148.678 299.251 148.504 299.338" stroke="white" stroke-width="2" stroke-miterlimit="10" stroke-linecap="round" stroke-linejoin="round"/>
<path d="M195.546 238.809C202.767 237.715 205.501 216.235 201.653 190.832C197.806 165.429 188.833 145.723 181.612 146.817C174.391 147.911 171.656 169.392 175.504 194.794C179.352 220.197 188.325 239.903 195.546 238.809Z" stroke="white" stroke-width="2" stroke-miterlimit="10" stroke-linecap="round" stroke-linejoin="round"/>
<path d="M385.444 202.811C391.213 175.717 390.098 152.52 382.955 150.999C375.811 149.477 365.344 170.207 359.576 197.3C353.807 224.394 354.922 247.591 362.065 249.113C369.209 250.634 379.676 229.904 385.444 202.811Z" stroke="white" stroke-width="2" stroke-miterlimit="10" stroke-linecap="round" stroke-linejoin="round"/>
<path d="M195.547 238.813C195.547 238.813 201.549 243.902 223.424 242.935C226.473 242.804 228.511 239.824 229.704 234.918" stroke="white" stroke-width="2" stroke-miterlimit="10" stroke-linecap="round" stroke-linejoin="round"/>
<path d="M181.617 146.946L204.258 132.359C212.822 137.884 225.035 157.211 225.532 179.239C225.636 183.926 225.601 179.543 225.636 179.7" stroke="white" stroke-width="2.0085" stroke-miterlimit="10" stroke-linecap="round" stroke-linejoin="round"/>
<path d="M329.562 223.974C330.617 233.167 333.099 241.035 337.124 246.211C345.966 257.609 362.065 249.122 362.065 249.122" stroke="white" stroke-width="2" stroke-miterlimit="10" stroke-linecap="round" stroke-linejoin="round"/>
<path d="M333.953 178.541C338.788 161.942 347.02 147.242 358.162 140.489C368.947 133.954 382.955 151.024 382.955 151.024" stroke="white" stroke-width="2" stroke-miterlimit="10" stroke-linecap="round" stroke-linejoin="round"/>
<path d="M376.579 144.898C373.503 41.8777 283.357 51.4714 283.357 51.4714C198.177 49.1448 185.562 144.14 185.562 144.14L196.434 137.361C197.872 136.446 208.709 75.0503 259.836 62.2675C326.052 45.7117 364.679 88.4431 368.32 139.914L376.579 144.898Z" fill="url(#paint3_linear)"/>
<path d="M197.045 134.834C198.413 133.954 211.236 74.5273 259.837 62.2673C322.786 46.3824 364.671 88.5039 366.848 139.2" stroke="white" stroke-width="2.0752" stroke-miterlimit="10" stroke-linecap="round" stroke-linejoin="round"/>
<path d="M253.625 163.441C258.268 163.615 263.748 164.408 282.312 153.734C299.987 143.574 303.995 144.898 303.995 144.898" stroke="white" stroke-width="2" stroke-miterlimit="10" stroke-linecap="round" stroke-linejoin="round"/>
<path d="M239.103 241.027C239.103 241.027 234.355 239.65 229.703 234.918C225.583 230.727 221.54 223.913 220.904 213.108C220.904 213.108 220.234 204.996 224.067 195.742C225.26 194.688 226.663 193.581 228.266 192.518C233.963 188.728 242.126 185.547 252.17 187.708C266.239 190.74 269.88 195.908 271.17 196.256C271.797 197.955 272.346 199.803 272.79 201.781C278.722 228.113 259.435 243.893 239.103 241.027Z" stroke="white" stroke-width="2" stroke-miterlimit="10" stroke-linecap="round" stroke-linejoin="round"/>
<path d="M335.687 196.561C335.051 192.597 333.727 189.163 331.897 186.636C330.085 184.136 327.777 182.532 325.12 182.175C317.497 181.156 309.927 190.828 308.193 203.776C306.46 216.724 311.234 228.052 318.848 229.063C322.655 229.568 326.444 227.416 329.51 223.504C329.528 223.66 329.545 223.817 329.563 223.974C313.394 250.394 266.823 246.673 274.785 192.823C275.264 189.573 275.935 186.636 276.754 183.97C298.228 162.822 325.869 174.498 333.666 177.522C333.762 177.853 333.857 178.193 333.953 178.542C335.26 183.421 335.896 189.364 335.687 196.561Z" stroke="white" stroke-width="2" stroke-miterlimit="10" stroke-linecap="round" stroke-linejoin="round"/>
<path d="M335.687 196.561C335.582 200.56 335.208 204.952 334.546 209.771C333.953 214.058 332.725 217.935 331 221.386C330.991 221.386 330.991 221.386 330.991 221.395C330.547 222.283 330.068 223.146 329.563 223.974C329.545 223.817 329.528 223.66 329.51 223.503C326.444 227.416 322.654 229.568 318.848 229.063C311.234 228.052 306.46 216.724 308.193 203.776C309.927 190.827 317.497 181.155 325.12 182.175C327.777 182.532 330.085 184.135 331.897 186.636C333.727 189.163 335.051 192.596 335.687 196.561Z" stroke="white" stroke-width="2" stroke-miterlimit="10" stroke-linecap="round" stroke-linejoin="round"/>
<path d="M347.03 252.163C346.986 252.86 348.502 292.907 314.754 285.44C282.818 278.373 287.313 280.037 287.313 281.911C287.313 283.784 302.575 287.121 309.379 289.256C311.138 289.814 312.828 290.25 314.44 290.581C350.81 298.101 354.582 252.163 354.582 252.163H347.03Z" stroke="white" stroke-width="2" stroke-miterlimit="10" stroke-linecap="round" stroke-linejoin="round"/>
<path d="M255.804 256.284C254.723 263.133 274.612 296.367 301.06 247.475" stroke="white" stroke-width="2" stroke-miterlimit="10" stroke-linecap="round" stroke-linejoin="round"/>
<path d="M248.903 216.507C246.717 205.414 238.833 197.624 231.297 199.114C223.762 200.604 219.424 210.799 221.602 221.892C223.788 232.984 231.672 240.774 239.207 239.284C246.752 237.794 251.09 227.599 248.903 216.507ZM233.615 233.62C229.825 234.369 225.766 229.952 224.546 223.748C223.326 217.552 225.408 211.923 229.189 211.174C232.979 210.425 237.038 214.842 238.258 221.046C239.477 227.242 237.395 232.871 233.615 233.62Z" fill="white" stroke="white" stroke-width="2" stroke-miterlimit="10" stroke-linecap="round" stroke-linejoin="round"/>
<path d="M335.687 196.561C335.051 192.596 333.727 189.163 331.897 186.636C330.085 184.135 327.777 182.532 325.12 182.175C317.497 181.155 309.927 190.827 308.193 203.776C306.46 216.724 311.234 228.052 318.848 229.063C322.654 229.568 326.444 227.416 329.51 223.503C330.024 222.85 330.521 222.144 330.991 221.395C330.991 221.386 330.991 221.386 331 221.386C333.326 217.665 335.051 212.847 335.774 207.462C336.288 203.61 336.227 199.898 335.687 196.561ZM334.188 208.35C333.265 215.225 329.24 220.366 325.198 219.826C321.156 219.286 318.621 213.274 319.536 206.39C320.45 199.506 324.484 194.374 328.526 194.914C332.568 195.454 335.112 201.467 334.188 208.35Z" fill="white" stroke="white" stroke-width="2" stroke-miterlimit="10" stroke-linecap="round" stroke-linejoin="round"/>
<path d="M276.755 183.97C276.067 184.65 275.387 185.356 274.716 186.096C273.567 187.368 271.493 186.305 271.842 184.632C272.582 181.103 274.133 176.154 277.347 170.325C283.907 158.413 297.026 153.856 297.026 153.856" stroke="white" stroke-width="2" stroke-miterlimit="10" stroke-linecap="round" stroke-linejoin="round"/>
<path d="M224.067 195.734C223.954 195.821 223.849 195.916 223.745 196.012C222.394 197.224 220.339 195.855 220.922 194.13C221.959 191.054 223.57 187.246 225.992 183.343C227.099 181.557 228.37 179.753 229.843 177.993" stroke="white" stroke-width="2.0095" stroke-miterlimit="10" stroke-linecap="round" stroke-linejoin="round"/>
<path d="M258.225 263.9C258.225 263.9 278.409 274.391 300.257 248.947" stroke="white" stroke-width="2" stroke-miterlimit="10" stroke-linecap="round" stroke-linejoin="round"/>
<path d="M326.863 150.022C328.954 150.275 338.537 155.102 339.408 163.528" stroke="white" stroke-width="2" stroke-miterlimit="10" stroke-linecap="round" stroke-linejoin="round"/>
<path d="M293.419 282.745C294.641 278.535 290.111 273.519 283.301 271.542C276.491 269.564 269.98 271.374 268.758 275.584C267.536 279.794 272.066 284.81 278.876 286.787C285.686 288.765 292.197 286.955 293.419 282.745Z" fill="white" stroke="white" stroke-width="0.75" stroke-miterlimit="10" stroke-linecap="round" stroke-linejoin="round"/>
<path d="M294.839 463.764C289.237 464.539 285.247 463.834 282.408 462.448C282.364 462.431 282.329 462.405 282.286 462.387C276.353 459.433 275.491 453.491 275.369 452.07C275.351 451.87 275.491 451.713 275.517 451.521C275.682 449.97 279.019 446.11 279.237 445.866C279.245 445.857 279.245 445.857 279.245 445.857C279.271 445.866 279.298 445.875 279.324 445.892C281.11 446.607 292.678 452.985 296.625 455.312C297.644 455.922 298.75 456.375 299.9 456.671C304.221 457.778 314.344 461.063 294.839 463.764Z" stroke="white" stroke-width="2" stroke-miterlimit="10" stroke-linecap="round" stroke-linejoin="round"/>
<path d="M342.291 456.505C342.291 463.476 337.787 470.325 330.6 475.649C330.565 475.675 330.522 475.701 330.487 475.736C319.745 483.657 303.089 488.205 286.572 484.746C286.537 484.746 286.511 484.737 286.476 484.729C279.516 483.265 272.59 480.38 266.144 475.719C265.133 474.987 264.219 474.107 263.426 473.139C251.77 458.91 260.464 447.67 273.592 435.009C274.899 435.288 276.171 435.54 277.434 435.767C277.948 438.721 278.566 442.128 279.237 445.84C278.863 445.561 269.411 454.945 279.429 464.539C280.378 465.445 281.624 466.177 283.096 466.744C283.14 466.761 283.175 466.779 283.218 466.787C295.85 471.562 325.033 464.809 330.87 456.714C330.94 456.627 331.001 456.531 331.062 456.444C331.192 450.815 331.306 445.936 331.41 441.797C331.41 441.797 342.291 442.947 342.291 456.505Z" stroke="white" stroke-width="2" stroke-miterlimit="10" stroke-linecap="round" stroke-linejoin="round"/>
<path d="M331.409 441.797C331.427 441.126 331.444 440.481 331.453 439.854C340.452 444.21 358.197 452.915 347.586 482.254C344.302 491.333 337.638 497.468 329.998 501.607C329.998 501.607 329.981 501.615 329.954 501.633C329.092 502.086 314.927 509.344 291.31 510.155C291.232 510.155 291.162 510.163 291.084 510.163C291.084 510.163 291.162 510.163 291.302 510.163" stroke="white" stroke-width="2" stroke-miterlimit="10" stroke-linecap="round" stroke-linejoin="round"/>
<path d="M332.351 420.012C330.095 421.572 327.586 422.827 324.894 423.838H324.885C321.105 425.031 316.191 426.138 310.755 426.974C310.755 426.974 310.755 426.974 310.747 426.974C308.49 427.332 306.138 427.637 303.743 427.881C294.7 428.804 286.52 428.796 281.006 428.02C276.65 427.419 273.95 426.338 273.801 424.866C273.793 424.77 273.793 424.665 273.801 424.561C274.132 422.077 281.485 419.263 291.895 417.346C295.171 416.745 298.751 416.231 302.514 415.839C318.709 414.183 330.87 415.908 332.456 418.853C332.656 419.219 332.612 419.611 332.351 420.012Z" stroke="white" stroke-width="2.1019" stroke-miterlimit="10" stroke-linecap="round" stroke-linejoin="round"/>
<path d="M535.222 583.183C534.691 578.634 531.955 575.219 529.124 575.558C528.68 575.611 528.261 575.75 527.869 575.977C525.77 577.144 524.524 580.56 524.969 584.385C525.5 588.934 528.235 592.349 531.067 592.018C531.206 592.001 531.345 591.975 531.485 591.94C534.081 591.286 535.727 587.505 535.222 583.183Z" stroke="white" stroke-width="2" stroke-miterlimit="10" stroke-linecap="round" stroke-linejoin="round"/>
<path d="M530.719 601.351C530.24 600.566 529.586 600 528.776 599.73C526.076 598.824 522.696 601.603 521.241 605.943C519.917 609.881 520.622 613.759 522.8 615.109C523.018 615.249 523.253 615.353 523.497 615.44C526.198 616.347 529.569 613.567 531.024 609.228C532.052 606.178 531.86 603.18 530.719 601.351Z" stroke="white" stroke-width="2" stroke-miterlimit="10" stroke-linecap="round" stroke-linejoin="round"/>
<path d="M517.627 619.232C517.609 619.11 517.592 618.988 517.557 618.866C516.947 616.243 513.14 614.57 508.793 615.075C504.254 615.616 500.84 618.343 501.171 621.175C501.275 622.09 501.772 622.909 502.538 623.58C504.133 624.965 506.938 625.697 510.004 625.331C514.543 624.8 517.958 622.064 517.627 619.232Z" stroke="white" stroke-width="2" stroke-miterlimit="10" stroke-linecap="round" stroke-linejoin="round"/>
<path d="M486.334 616.704C481.935 615.441 477.736 616.643 476.943 619.388C476.804 619.867 476.786 620.373 476.865 620.87C477.231 623.205 479.87 625.601 483.494 626.629C487.894 627.893 492.092 626.69 492.876 623.954C492.876 623.945 492.885 623.928 492.885 623.919C493.634 621.183 490.716 617.959 486.334 616.704Z" stroke="white" stroke-width="2" stroke-miterlimit="10" stroke-linecap="round" stroke-linejoin="round"/>
<path d="M466.804 609.019C462.84 606.736 458.475 606.876 457.047 609.351C456.855 609.69 456.724 610.056 456.655 610.44C456.228 612.845 458.223 615.99 461.646 617.968C462.535 618.474 463.441 618.866 464.33 619.127C466.934 619.929 469.4 619.676 470.767 618.421C471.02 618.195 471.229 617.933 471.403 617.637C472.823 615.171 470.767 611.311 466.804 609.019Z" stroke="white" stroke-width="2" stroke-miterlimit="10" stroke-linecap="round" stroke-linejoin="round"/>
<path d="M432.725 591.174C432.725 591.174 477.266 613.96 505.221 605.83C533.176 597.7 515.283 556.311 515.283 556.311" stroke="white" stroke-width="2" stroke-miterlimit="10" stroke-linecap="round" stroke-linejoin="round"/>
<path d="M380.916 383.737C387.368 383.737 392.598 380.94 392.598 377.49C392.598 374.039 387.368 371.242 380.916 371.242C374.465 371.242 369.234 374.039 369.234 377.49C369.234 380.94 374.465 383.737 380.916 383.737Z" stroke="white" stroke-width="2" stroke-miterlimit="10" stroke-linecap="round" stroke-linejoin="round"/>
<path d="M389.454 388.155C383.007 388.155 377.771 390.944 377.771 394.394C377.771 394.873 377.876 395.344 378.068 395.788C379.252 398.568 383.904 400.642 389.454 400.642C392.32 400.642 394.95 400.093 396.98 399.169H396.989C399.524 398.019 401.136 396.311 401.136 394.394C401.136 390.944 395.909 388.155 389.454 388.155Z" stroke="white" stroke-width="2" stroke-miterlimit="10" stroke-linecap="round" stroke-linejoin="round"/>
<path d="M413.497 374.69C419.578 372.533 423.573 368.147 422.419 364.895C421.266 361.643 415.402 360.756 409.321 362.913C403.24 365.07 399.245 369.456 400.399 372.708C401.552 375.96 407.416 376.847 413.497 374.69Z" stroke="white" stroke-width="2" stroke-miterlimit="10" stroke-linecap="round" stroke-linejoin="round"/>
<path d="M433.996 382.666C433.996 382.657 433.987 382.648 433.979 382.639C432.471 379.546 426.565 379.285 420.763 382.047C414.935 384.827 411.416 389.602 412.897 392.712C413.446 393.863 414.596 394.621 416.129 394.987H416.138C418.751 395.614 422.462 395.074 426.13 393.322C431.958 390.551 435.477 385.776 433.996 382.666Z" stroke="white" stroke-width="2" stroke-miterlimit="10" stroke-linecap="round" stroke-linejoin="round"/>
<path d="M438.208 350.541C441.633 345.072 442.04 339.154 439.117 337.322C436.194 335.49 431.047 338.438 427.622 343.907C424.197 349.375 423.79 355.294 426.713 357.125C429.636 358.957 434.783 356.009 438.208 350.541Z" stroke="white" stroke-width="2" stroke-miterlimit="10" stroke-linecap="round" stroke-linejoin="round"/>
<path d="M239.556 410.036C239.425 409.391 239.111 408.807 238.65 408.302C236.672 406.123 231.968 405.234 226.854 406.289C220.53 407.596 215.974 411.395 216.679 414.767C216.889 415.778 217.551 416.641 218.535 417.312C220.844 418.889 224.955 419.438 229.381 418.523C235.697 417.216 240.253 413.417 239.556 410.036Z" stroke="white" stroke-width="2" stroke-miterlimit="10" stroke-linecap="round" stroke-linejoin="round"/>
<path d="M194.301 413.137C187.845 413.242 182.671 416.126 182.723 419.577C182.74 420.727 183.342 421.79 184.361 422.687C184.361 422.696 184.361 422.696 184.37 422.687C186.425 424.517 190.206 425.693 194.51 425.624C200.155 425.528 204.815 423.315 205.861 420.457H205.869C206.017 420.047 206.096 419.62 206.087 419.184C206.026 415.734 200.747 413.024 194.301 413.137Z" stroke="white" stroke-width="2" stroke-miterlimit="10" stroke-linecap="round" stroke-linejoin="round"/>
<path d="M362.37 429.615C358.511 425.702 353.841 423.855 351.01 424.892C350.513 425.066 350.078 425.336 349.712 425.694C348.893 426.495 348.545 427.672 348.597 429.022C348.597 429.031 348.597 429.031 348.606 429.031C348.701 431.784 350.47 435.331 353.493 438.389C357.456 442.406 362.283 444.245 365.07 443.025V443.034C365.384 442.903 365.671 442.72 365.924 442.502C366.002 442.45 366.072 442.38 366.142 442.31C368.598 439.879 366.908 434.198 362.37 429.615Z" stroke="white" stroke-width="2" stroke-miterlimit="10" stroke-linecap="round" stroke-linejoin="round"/>
<path d="M384.576 459.685C383.888 457.385 382.329 454.823 380.064 452.531C377.058 449.49 373.548 447.686 370.821 447.53C369.427 447.451 368.242 447.791 367.415 448.61C366.596 449.42 366.239 450.588 366.3 451.947C366.404 454.701 368.164 458.247 371.187 461.314C375.159 465.323 379.977 467.17 382.764 465.95H382.773C383.174 465.776 383.531 465.54 383.844 465.236C385.073 464.016 385.256 461.985 384.576 459.685Z" stroke="white" stroke-width="2" stroke-miterlimit="10" stroke-linecap="round" stroke-linejoin="round"/>
<path d="M410.336 478.524C409.622 476.146 407.897 473.462 405.379 471.144C401.459 467.502 396.842 465.846 394.045 466.84C393.462 467.04 392.965 467.354 392.564 467.781C391.78 468.626 391.484 469.802 391.598 471.161H391.606C391.824 473.906 393.741 477.374 396.894 480.302C398.244 481.557 399.682 482.576 401.102 483.326C401.102 483.326 401.11 483.326 401.11 483.334L402.522 479.57H410.589C410.528 479.23 410.449 478.882 410.336 478.524Z" stroke="white" stroke-width="2" stroke-miterlimit="10" stroke-linecap="round" stroke-linejoin="round"/>
<path d="M394.349 442.005C388.922 438.511 383.016 438.041 381.143 440.942C380.516 441.91 380.429 443.129 380.786 444.436C380.777 444.445 380.777 444.445 380.794 444.445C381.491 447.112 383.983 450.187 387.607 452.514C392.354 455.564 397.459 456.304 399.916 454.509L399.925 454.518C400.273 454.257 400.578 453.952 400.813 453.577C402.669 450.667 399.777 445.491 394.349 442.005Z" stroke="white" stroke-width="2" stroke-miterlimit="10" stroke-linecap="round" stroke-linejoin="round"/>
<path d="M420.145 461.254C415.319 456.958 409.561 455.581 407.269 458.152C406.503 459.014 406.224 460.2 406.372 461.55C406.363 461.559 406.363 461.559 406.381 461.559C406.66 464.295 408.646 467.719 411.86 470.586C416.077 474.342 421.007 475.867 423.708 474.472L423.717 474.481C424.1 474.281 424.448 474.019 424.736 473.688C427.018 471.109 424.971 465.541 420.145 461.254Z" stroke="white" stroke-width="2" stroke-miterlimit="10" stroke-linecap="round" stroke-linejoin="round"/>
<path d="M161.109 413.311C154.663 412.998 149.305 415.525 149.131 418.975C149.07 420.186 149.663 421.354 150.743 422.365C152.712 424.23 156.318 425.58 160.491 425.789C165.282 426.033 169.472 424.691 171.372 422.565C172.042 421.833 172.426 421.006 172.469 420.126C172.643 416.684 167.556 413.634 161.109 413.311Z" stroke="white" stroke-width="2" stroke-miterlimit="10" stroke-linecap="round" stroke-linejoin="round"/>
<path d="M139.662 418.2C138.573 414.924 132.728 413.931 126.603 415.97C120.61 417.965 116.568 422.139 117.43 425.38C117.448 425.45 117.465 425.511 117.491 425.581C118.58 428.857 124.426 429.859 130.55 427.82C133.895 426.705 136.63 424.919 138.242 422.993C139.584 421.39 140.158 419.691 139.662 418.2Z" stroke="white" stroke-width="2" stroke-miterlimit="10" stroke-linecap="round" stroke-linejoin="round"/>
<path d="M92.9382 422.707C98.9191 420.285 102.718 415.73 101.424 412.531C100.13 409.332 94.232 408.702 88.2511 411.124C82.2703 413.545 78.4711 418.101 79.7654 421.299C81.0597 424.498 86.9574 425.128 92.9382 422.707Z" stroke="white" stroke-width="2" stroke-miterlimit="10" stroke-linecap="round" stroke-linejoin="round"/>
<path d="M62.142 441.791C67.288 437.898 69.7728 432.512 67.6919 429.76C65.6111 427.007 59.7526 427.932 54.6067 431.825C49.4607 435.717 46.9759 441.104 49.0567 443.856C51.1375 446.608 56.996 445.684 62.142 441.791Z" stroke="white" stroke-width="2" stroke-miterlimit="10" stroke-linecap="round" stroke-linejoin="round"/>
<path d="M108.406 427.315C108.371 426.879 108.257 426.461 108.066 426.069C106.55 422.975 100.626 422.757 94.8244 425.598C89.7718 428.073 86.4875 432.046 86.7402 435.07C86.775 435.514 86.8796 435.941 87.0712 436.333C88.587 439.435 94.5195 439.644 100.313 436.812C105.374 434.338 108.667 430.356 108.406 427.315Z" stroke="white" stroke-width="2" stroke-miterlimit="10" stroke-linecap="round" stroke-linejoin="round"/>
<path d="M223.247 605.978C222.594 605.508 221.714 605.464 220.756 605.795C219.292 606.283 217.646 607.634 216.348 609.559C215.006 611.537 214.344 613.672 214.431 615.284C214.484 616.252 214.815 617.044 215.442 617.498C217.088 618.7 220.181 617.097 222.333 613.916C224.484 610.736 224.894 607.181 223.247 605.978Z" stroke="white" stroke-width="1.1878" stroke-miterlimit="10" stroke-linecap="round" stroke-linejoin="round"/>
<path d="M228.423 594.04C228.223 590.084 226.228 586.903 223.893 586.703C223.789 586.694 223.684 586.694 223.58 586.694C221.114 586.755 219.294 590.154 219.503 594.284C219.659 597.255 220.836 599.791 222.395 600.95C223.005 601.403 223.667 601.647 224.355 601.629C226.82 601.56 228.641 598.161 228.423 594.04Z" stroke="white" stroke-width="1.3526" stroke-miterlimit="10" stroke-linecap="round" stroke-linejoin="round"/>
<path d="M223.223 581.684C223.196 581.702 223.17 581.711 223.144 581.728C220.931 582.826 217.577 580.761 215.644 577.11C214.755 575.437 214.328 573.729 214.328 572.256H214.424L214.346 571.777C214.45 570.252 215.051 569.05 216.14 568.51C217.752 567.708 219.991 568.597 221.829 570.575C222.499 571.289 223.118 572.152 223.632 573.128C225.54 576.735 225.357 580.534 223.223 581.684Z" stroke="white" stroke-width="1.3526" stroke-miterlimit="10" stroke-linecap="round" stroke-linejoin="round"/>
<path d="M214.424 572.257H214.328C214.328 572.091 214.337 571.934 214.345 571.777L214.424 572.257Z" stroke="white" stroke-width="1.3526" stroke-miterlimit="10" stroke-linecap="round" stroke-linejoin="round"/>
<path d="M79.3795 440.123C79.2924 440.028 79.1966 439.932 79.1007 439.853C76.6528 437.649 71.1385 439.086 66.4953 443.208C61.6691 447.495 59.6219 453.063 61.9131 455.642C62.5751 456.4 63.5421 456.81 64.692 456.914C67.4797 457.167 71.3737 455.581 74.7886 452.549C79.6147 448.262 81.6619 442.694 79.3795 440.123Z" stroke="white" stroke-width="2" stroke-miterlimit="10" stroke-linecap="round" stroke-linejoin="round"/>
<path d="M154.986 330.9C157.791 328.893 157.023 323.01 153.269 317.762C149.515 312.513 144.198 309.886 141.392 311.893C138.587 313.901 139.355 319.783 143.109 325.032C146.863 330.28 152.18 332.908 154.986 330.9Z" stroke="white" stroke-width="2" stroke-miterlimit="10" stroke-linecap="round" stroke-linejoin="round"/>
<path d="M140.76 247.901C140.446 252.45 138.782 256.293 136.622 258.079C136.177 256.563 135.724 255.055 135.289 253.548C134.235 250.001 133.198 246.499 132.214 243.161C131.752 241.619 131.308 240.103 130.881 238.639C132.118 236.783 133.686 235.702 135.324 235.816C138.765 236.051 141.195 241.462 140.76 247.901Z" stroke="white" stroke-width="2" stroke-miterlimit="10" stroke-linecap="round" stroke-linejoin="round"/>
<path d="M102.299 193.363C96.9067 190.575 91.3313 190.654 89.8417 193.529C89.6587 193.878 89.5455 194.252 89.5019 194.644C89.1535 197.502 92.1676 201.354 96.9067 203.802C102.299 206.582 107.874 206.512 109.364 203.628C109.399 203.567 109.425 203.497 109.451 203.436C110.714 200.543 107.569 196.091 102.299 193.363Z" stroke="white" stroke-width="1.8814" stroke-miterlimit="10" stroke-linecap="round" stroke-linejoin="round"/>
<path d="M128.303 215.208C124.183 210.747 118.921 208.917 116.534 211.113C116.246 211.374 116.011 211.688 115.837 212.045C114.539 214.616 116.055 219.26 119.679 223.181C123.799 227.634 129.061 229.472 131.448 227.268C131.5 227.224 131.552 227.163 131.596 227.12C133.765 224.828 132.328 219.574 128.303 215.208Z" stroke="white" stroke-width="1.8814" stroke-miterlimit="10" stroke-linecap="round" stroke-linejoin="round"/>
<path d="M47.6085 200.439C47.443 200.116 47.2252 199.829 46.9551 199.585C44.6989 197.546 39.7769 199.332 35.9613 203.558C32.1544 207.793 30.8999 212.873 33.1649 214.912C33.374 215.095 33.5918 215.252 33.8444 215.374C36.301 216.611 40.6916 214.781 44.1501 210.938C47.5127 207.209 48.8891 202.817 47.6085 200.439Z" stroke="white" stroke-width="1.7649" stroke-miterlimit="10" stroke-linecap="round" stroke-linejoin="round"/>
<path d="M32.7281 233.507C32.5277 229.673 31.099 226.457 29.2435 225.177C28.6424 224.75 27.9977 224.532 27.3357 224.567C24.6177 224.715 22.6315 228.941 22.9015 234.021C23.0845 237.681 24.3999 240.783 26.1335 242.168C26.8043 242.717 27.536 242.996 28.2939 242.961C31.0119 242.822 32.9894 238.587 32.7281 233.507Z" stroke="white" stroke-width="1.5761" stroke-miterlimit="10" stroke-linecap="round" stroke-linejoin="round"/>
<path d="M79.7019 191.864C79.4144 188.719 74.4053 186.619 68.5251 187.168C62.6362 187.708 58.1062 190.705 58.4024 193.851C58.4373 194.2 58.5244 194.531 58.6637 194.844C59.7962 197.424 64.3436 199.036 69.5792 198.556C74.8671 198.06 79.0834 195.585 79.6496 192.797C79.7106 192.492 79.728 192.178 79.7019 191.864Z" stroke="white" stroke-width="1.8316" stroke-miterlimit="10" stroke-linecap="round" stroke-linejoin="round"/>
<path d="M141.316 340.997C144.121 338.989 143.353 333.107 139.599 327.859C135.845 322.61 130.528 319.983 127.723 321.99C124.917 323.998 125.686 329.88 129.439 335.128C133.193 340.377 138.51 343.004 141.316 340.997Z" stroke="white" stroke-width="2" stroke-miterlimit="10" stroke-linecap="round" stroke-linejoin="round"/>
<path d="M240.279 334.315C238.737 331.23 232.805 331.082 227.038 333.975C221.279 336.868 217.856 341.713 219.406 344.797C220.948 347.882 226.881 348.03 232.648 345.137C238.406 342.244 241.83 337.391 240.279 334.315Z" stroke="white" stroke-width="2" stroke-miterlimit="10" stroke-linecap="round" stroke-linejoin="round"/>
<path d="M187.576 364.062C181.914 364.655 176.164 364.568 170.484 363.723" stroke="white" stroke-width="2" stroke-miterlimit="10" stroke-linecap="round" stroke-linejoin="round"/>
<path d="M228.11 346.792C222.352 351.724 215.627 355.793 208.361 358.782" stroke="white" stroke-width="2" stroke-miterlimit="10" stroke-linecap="round" stroke-linejoin="round"/>
<path d="M247.859 308.696C247.641 317.427 244.853 325.67 240.201 333.007" stroke="white" stroke-width="2" stroke-miterlimit="10" stroke-linecap="round" stroke-linejoin="round"/>
<path d="M119.025 310.195C119.966 320.643 122.911 330.489 129.444 339.055C135.76 347.333 143.139 353.38 151.075 357.484" stroke="white" stroke-width="2" stroke-miterlimit="10" stroke-linecap="round" stroke-linejoin="round"/>
<path d="M179.292 344.841C177.994 348.038 172.096 348.666 166.12 346.235C160.135 343.812 156.337 339.255 157.635 336.066C158.933 332.868 164.831 332.241 170.807 334.663C176.783 337.085 180.581 341.643 179.292 344.841Z" stroke="white" stroke-width="2" stroke-miterlimit="10" stroke-linecap="round" stroke-linejoin="round"/>
<path d="M170.484 363.722C170.998 363.339 171.399 362.86 171.651 362.293C173.045 359.139 169.395 354.46 163.497 351.854C157.591 349.24 151.685 349.685 150.282 352.839C149.681 354.198 150.021 355.845 151.075 357.483C152.469 359.644 155.091 361.797 158.445 363.278C163.28 365.413 168.123 365.509 170.484 363.722Z" stroke="white" stroke-width="2" stroke-miterlimit="10" stroke-linecap="round" stroke-linejoin="round"/>
<path d="M211.767 343.716C211.706 347.166 206.435 349.876 199.98 349.772C193.534 349.667 188.35 346.783 188.403 343.332C188.464 339.891 193.734 337.181 200.189 337.285C206.636 337.39 211.819 340.265 211.767 343.716Z" stroke="white" stroke-width="2" stroke-miterlimit="10" stroke-linecap="round" stroke-linejoin="round"/>
<path d="M208.361 358.782C208.579 359.244 208.692 359.723 208.692 360.22C208.727 363.671 203.518 366.511 197.071 366.563C193.169 366.598 189.71 365.614 187.576 364.063C186.173 363.043 185.346 361.788 185.328 360.42C185.302 356.979 190.512 354.129 196.958 354.077C202.481 354.033 207.133 356.037 208.361 358.782Z" stroke="white" stroke-width="2" stroke-miterlimit="10" stroke-linecap="round" stroke-linejoin="round"/>
<path d="M454.878 351.437C454.381 351.123 453.815 350.949 453.205 350.914C450.252 350.688 446.227 353.485 443.387 358.024C439.964 363.488 439.554 369.404 442.481 371.234C442.69 371.365 442.908 371.47 443.135 371.557C446.123 372.637 450.792 369.727 453.972 364.656C457.395 359.183 457.805 353.267 454.878 351.437Z" stroke="white" stroke-width="2" stroke-miterlimit="10" stroke-linecap="round" stroke-linejoin="round"/>
<path d="M447.673 321.819C446.148 328.093 442.202 332.519 438.857 331.709C435.503 330.89 434.013 325.148 435.538 318.883C435.825 317.671 436.209 316.539 436.662 315.493C437.472 315.815 438.334 316.007 439.223 316.059C439.998 316.112 440.791 316.068 441.592 315.903L445.495 315.11L448.082 314.578C448.413 316.687 448.3 319.205 447.673 321.819Z" stroke="white" stroke-width="2" stroke-miterlimit="10" stroke-linecap="round" stroke-linejoin="round"/>
<path d="M461.376 314.839C460.897 314.787 460.418 314.839 459.956 314.987C457.064 315.859 454.503 320.25 453.902 325.775C453.336 330.933 454.66 335.508 456.977 337.294C457.543 337.73 458.162 338 458.833 338.07C462.265 338.444 465.61 333.547 466.307 327.125C467.013 320.712 464.8 315.214 461.376 314.839Z" stroke="white" stroke-width="2" stroke-miterlimit="10" stroke-linecap="round" stroke-linejoin="round"/>
<path d="M223.223 570.949C223.127 570.801 299.892 544.46 299.892 544.46" stroke="white" stroke-width="2.1023" stroke-miterlimit="10" stroke-linecap="round" stroke-linejoin="round"/>
<path d="M298.856 539.093L220.758 565.024L298.856 539.093Z" stroke="white" stroke-width="2" stroke-miterlimit="10" stroke-linecap="round" stroke-linejoin="round"/>
<path d="M300.126 545.672L298.855 539.093L217.969 546.743" stroke="white" stroke-width="2" stroke-miterlimit="10" stroke-linecap="round" stroke-linejoin="round"/>
<path d="M120.351 526.795C124.757 526.206 127.744 521.34 127.021 515.926C126.299 510.512 122.141 506.6 117.734 507.189C113.328 507.777 110.342 512.643 111.064 518.057C111.786 523.471 115.944 527.383 120.351 526.795Z" fill="white" stroke="white" stroke-width="2.4637" stroke-miterlimit="10" stroke-linecap="round" stroke-linejoin="round"/>
<path d="M530.178 288.795L529.647 286.189C519.454 290.729 507.25 293.335 495.855 290.72C492.301 289.91 475.827 286.128 471.994 274.104C470.609 269.756 470.54 263.307 473.824 261.068C477.831 258.332 482.788 264.571 491.734 265.19C502.397 265.93 516.1 258.506 520.386 245.828C520.622 245.14 520.822 244.451 520.988 243.763L506.457 172.573L505.864 169.663C504.889 164.879 500.219 161.794 495.446 162.77L413.741 179.457C408.958 180.433 405.874 185.094 406.85 189.878L431.164 309.01C431.791 312.086 433.943 314.456 436.661 315.493C437.471 315.816 438.333 316.007 439.222 316.06C439.997 316.112 440.79 316.068 441.591 315.903L445.494 315.11L448.081 314.578L523.287 299.216C528.07 298.24 531.154 293.579 530.178 288.795ZM423.071 196.474C421.625 196.474 420.449 195.298 420.449 193.851C420.449 192.396 421.625 191.22 423.071 191.22C424.526 191.22 425.702 192.396 425.702 193.851C425.702 195.298 424.526 196.474 423.071 196.474Z" fill="url(#paint4_linear)"/>
<path d="M147.486 294.824C145.377 287.705 140.995 272.866 136.622 258.079C136.178 256.563 135.725 255.055 135.289 253.548C134.235 250.001 133.199 246.499 132.214 243.161C131.753 241.619 131.308 240.103 130.881 238.639C129.915 235.38 129.017 232.348 128.224 229.664C127.702 227.921 127.231 226.318 126.813 224.898C125.498 220.462 124.696 217.752 124.696 217.752L121.229 218.929L120.349 219.225L117.597 220.157L79.9805 232.853L87.9776 255.77C99.5899 246.926 121.752 246.655 125.271 256.833C125.881 258.602 125.925 260.684 125.254 263.098C118.259 272.779 107.517 280.142 107.517 280.142C106.986 286.076 105.026 291.382 102.003 295.948L108.432 314.377C108.432 314.377 112.736 312.818 118.537 310.692C129.653 306.622 146.248 300.488 148.505 299.338C148.113 297.848 147.773 296.34 147.486 294.824ZM97.8912 244.982L93.1957 246.411C90.9133 247.1 88.509 245.819 87.8121 243.536L86.5489 239.388C85.8607 237.105 87.1413 234.7 89.4237 234.003L94.1192 232.574C96.4016 231.886 98.8059 233.167 99.5028 235.45L100.766 239.597C101.454 241.88 100.174 244.294 97.8912 244.982Z" fill="url(#paint5_linear)"/>
<path d="M448.989 524.078H426.801C423.621 524.078 421.696 521.551 422.515 518.441L425.468 507.209C426.287 504.098 429.527 501.571 432.716 501.571H454.904C458.084 501.571 460.009 504.098 459.19 507.209L456.237 518.441C455.418 521.56 452.169 524.078 448.989 524.078Z" fill="url(#paint6_linear)"/>
<path d="M469.774 523.277H461.307C460.096 523.277 459.364 522.31 459.669 521.125L460.793 516.838C461.106 515.653 462.343 514.686 463.563 514.686H472.03C473.241 514.686 473.973 515.653 473.668 516.838L472.544 521.125C472.222 522.31 470.985 523.277 469.774 523.277Z" fill="url(#paint7_linear)"/>
<path d="M472.848 510.294H464.381C463.17 510.294 462.438 509.327 462.743 508.141L463.867 503.854C464.18 502.669 465.417 501.702 466.637 501.702H475.105C476.315 501.702 477.047 502.669 476.742 503.854L475.618 508.141C475.305 509.327 474.068 510.294 472.848 510.294Z" fill="url(#paint8_linear)"/>
<path d="M475.166 538.134H406.955L422.209 494.705H490.411L475.166 538.134Z" stroke="white" stroke-width="1.9514" stroke-miterlimit="10" stroke-linecap="round" stroke-linejoin="round"/>
<path d="M422.209 494.696L406.964 538.133L386.91 522.039L400.526 484.893V484.885L400.666 484.519L401.11 483.334L402.521 479.569L407.87 483.673L408.776 484.371C408.75 484.397 408.706 484.414 408.671 484.432L408.663 484.423C408.654 484.423 408.645 484.432 408.636 484.432L422.209 494.696Z" stroke="white" stroke-width="2.3038" stroke-miterlimit="10" stroke-linecap="round" stroke-linejoin="round"/>
<path d="M401.11 483.334L400.666 484.519L401.102 483.325C401.102 483.325 401.11 483.325 401.11 483.334Z" stroke="white" stroke-width="2.3038" stroke-miterlimit="10" stroke-linecap="round" stroke-linejoin="round"/>
<path d="M507.128 172.573C583.981 180.223 562.864 270.034 533.184 284.839C532.252 285.3 531.294 285.754 530.318 286.189C520.126 290.729 507.921 293.334 496.527 290.72C492.972 289.91 476.499 286.128 472.666 274.104C471.281 269.755 471.211 263.307 474.495 261.068C478.503 258.332 483.459 264.571 492.406 265.19C522.661 263.865 522.373 240.051 519.037 230.753" stroke="white" stroke-width="2" stroke-miterlimit="10" stroke-linecap="round" stroke-linejoin="round"/>
<path d="M102.002 295.948C102.002 295.948 107.638 288.463 107.516 280.142C132.213 261.547 124.146 255.657 124.146 255.657" stroke="white" stroke-width="2" stroke-miterlimit="10" stroke-linecap="round" stroke-linejoin="round"/>
<path d="M79.9795 280.386C78.6728 279.776 76.0767 279.297 75.8851 277.972C75.284 273.764 76.4688 266.427 86.1733 257.286C116.724 239.58 124.626 257.312 125.262 256.833" stroke="white" stroke-width="2" stroke-miterlimit="10" stroke-linecap="round" stroke-linejoin="round"/>
<path d="M139.645 572.256C138.251 572.796 137.449 573.145 137.449 573.145" stroke="white" stroke-width="2" stroke-miterlimit="10" stroke-linecap="round" stroke-linejoin="round"/>
<path d="M199.414 573.076C201.444 574.47 195.546 570.575 197.968 572.257C197.968 572.257 184.639 567.499 175.344 566.654C161.406 564.301 139.645 572.257 139.645 572.257" stroke="white" stroke-width="2" stroke-miterlimit="10" stroke-linecap="round" stroke-linejoin="round"/>
<path d="M209.858 567.29C209.849 567.325 209.841 567.342 209.832 567.377C208.996 569.704 205.136 570.523 201.216 569.224C199.422 568.632 197.932 567.691 196.913 566.628L196.983 566.558L196.599 566.262C195.624 565.094 195.223 563.805 195.641 562.663C195.772 562.297 195.981 561.966 196.26 561.678C197.235 560.633 199.065 560.101 201.173 560.223C202.157 560.276 203.194 560.476 204.239 560.824C206.835 561.687 208.813 563.256 209.597 564.902C209.597 564.902 209.605 564.902 209.605 564.911C209.997 565.713 210.102 566.532 209.858 567.29Z" stroke="white" stroke-width="2" stroke-miterlimit="10" stroke-linecap="round" stroke-linejoin="round"/>
<path d="M196.261 561.678C195.852 561.625 195.434 561.582 195.024 561.547C193.378 561.39 191.731 561.294 190.076 561.259C189.815 561.251 189.553 561.242 189.283 561.242C188.421 561.233 187.55 561.233 186.687 561.251C186.4 561.251 186.112 561.26 185.825 561.277C185.476 561.277 185.128 561.294 184.771 561.312C184.205 561.329 183.638 561.364 183.072 561.399C182.654 561.425 182.236 561.451 181.809 561.486C181.365 561.521 180.92 561.556 180.476 561.599C180.041 561.634 179.605 561.678 179.169 561.721C176.478 562.009 173.829 562.392 171.251 562.863C170.711 562.959 170.17 563.063 169.63 563.168C169.099 563.272 168.568 563.377 168.036 563.49C167.104 563.682 166.181 563.891 165.275 564.1C164.952 564.17 164.639 564.248 164.325 564.327C163.872 564.431 163.419 564.545 162.966 564.658C162.069 564.884 161.189 565.111 160.326 565.346C159.464 565.581 158.619 565.817 157.791 566.061C157.739 566.078 157.687 566.087 157.635 566.104C156.938 566.313 156.25 566.514 155.579 566.723C153.148 567.472 150.918 568.222 148.949 568.936C148.357 569.145 147.782 569.354 147.233 569.555C146.902 569.677 146.58 569.799 146.266 569.921C146.24 569.93 146.205 569.938 146.179 569.947C145.221 570.313 144.358 570.644 143.592 570.949" stroke="white" stroke-width="2" stroke-miterlimit="10" stroke-linecap="round" stroke-linejoin="round"/>
<path d="M146.266 569.921C145.273 570.287 144.385 570.635 143.592 570.949" stroke="white" stroke-width="2" stroke-miterlimit="10" stroke-linecap="round" stroke-linejoin="round"/>
<path d="M421.408 493.546L422.209 494.696L408.776 484.371L407.87 483.674L402.521 479.57H411.712L440.172 479.09L470.976 478.576L480.759 486.14L490.411 493.598H421.486L421.408 493.546Z" stroke="white" stroke-width="2" stroke-miterlimit="10" stroke-linecap="round" stroke-linejoin="round"/>
</g>
<defs>
<linearGradient id="paint0_linear" x1="277.432" y1="450.484" x2="331.356" y2="450.484" gradientUnits="userSpaceOnUse">
<stop stop-color="#3FFFD8"/>
<stop offset="0.4888" stop-color="#B9C3FC"/>
<stop offset="1" stop-color="#FF7EA7"/>
</linearGradient>
<linearGradient id="paint1_linear" x1="291.301" y1="510.279" x2="330.718" y2="510.279" gradientUnits="userSpaceOnUse">
<stop stop-color="#3FFFD8"/>
<stop offset="0.4888" stop-color="#B9C3FC"/>
<stop offset="1" stop-color="#FF7EA7"/>
</linearGradient>
<linearGradient id="paint2_linear" x1="37.9745" y1="521.689" x2="211.812" y2="521.689" gradientUnits="userSpaceOnUse">
<stop stop-color="#3FFFD8"/>
<stop offset="0.4888" stop-color="#B9C3FC"/>
<stop offset="1" stop-color="#FF7EA7"/>
</linearGradient>
<linearGradient id="paint3_linear" x1="185.566" y1="98.0662" x2="376.58" y2="98.0662" gradientUnits="userSpaceOnUse">
<stop stop-color="#3FFFD8"/>
<stop offset="0.4888" stop-color="#B9C3FC"/>
<stop offset="1" stop-color="#FF7EA7"/>
</linearGradient>
<linearGradient id="paint4_linear" x1="406.672" y1="239.336" x2="530.36" y2="239.336" gradientUnits="userSpaceOnUse">
<stop stop-color="#3FFFD8"/>
<stop offset="0.4888" stop-color="#B9C3FC"/>
<stop offset="1" stop-color="#FF7EA7"/>
</linearGradient>
<linearGradient id="paint5_linear" x1="79.9788" y1="266.067" x2="148.503" y2="266.067" gradientUnits="userSpaceOnUse">
<stop stop-color="#3FFFD8"/>
<stop offset="0.4888" stop-color="#B9C3FC"/>
<stop offset="1" stop-color="#FF7EA7"/>
</linearGradient>
<linearGradient id="paint6_linear" x1="422.332" y1="512.826" x2="459.376" y2="512.826" gradientUnits="userSpaceOnUse">
<stop stop-color="#3FFFD8"/>
<stop offset="0.4888" stop-color="#B9C3FC"/>
<stop offset="1" stop-color="#FF7EA7"/>
</linearGradient>
<linearGradient id="paint7_linear" x1="459.597" y1="518.978" x2="473.737" y2="518.978" gradientUnits="userSpaceOnUse">
<stop stop-color="#3FFFD8"/>
<stop offset="0.4888" stop-color="#B9C3FC"/>
<stop offset="1" stop-color="#FF7EA7"/>
</linearGradient>
<linearGradient id="paint8_linear" x1="462.676" y1="505.997" x2="476.816" y2="505.997" gradientUnits="userSpaceOnUse">
<stop stop-color="#3FFFD8"/>
<stop offset="0.4888" stop-color="#B9C3FC"/>
<stop offset="1" stop-color="#FF7EA7"/>
</linearGradient>
<clipPath id="clip0">
<rect width="561" height="697" fill="white"/>
</clipPath>
</defs>
</svg>
