<svg width="149" height="174" viewBox="0 0 149 174" fill="none" xmlns="http://www.w3.org/2000/svg">
<g clip-path="url(#clip0_1129_183)">
<path d="M52.6309 117.878L54.0191 118.583L58.7206 141.482L58.9173 142.439" stroke="white" stroke-width="0.6" stroke-miterlimit="10" stroke-linecap="round" stroke-linejoin="round"/>
<path d="M12.8631 118.096H10.5493L10.7414 119.092L10.9612 120.223C10.6326 120.356 10.3157 120.378 10.0403 120.265C9.20274 119.919 9.08243 118.442 9.77192 116.967C10.4614 115.492 11.7016 114.578 12.5392 114.924C13.3536 115.259 13.4901 116.664 12.8631 118.096Z" stroke="white" stroke-width="0.6" stroke-miterlimit="10" stroke-linecap="round" stroke-linejoin="round"/>
<path d="M88.0076 107.991C87.9636 109.999 87.922 112.007 87.878 114.015C86.3278 116.035 78.5768 117.721 75.2219 116.529L75.0067 115.446C75.761 115.792 76.8207 115.968 78.3084 115.774C83.4888 115.1 80.8003 114.28 79.6527 114.004C79.3473 113.93 79.0534 113.817 78.7827 113.664C77.7346 113.084 74.6619 111.491 74.1876 111.313L73.6855 108.785C75.4579 109.122 77.8133 109.405 80.5782 109.283C83.6462 109.146 86.182 108.557 88.0076 107.991Z" fill="url(#paint0_linear_1129_183)"/>
<path d="M116.908 119.601C111.184 109.888 95.2882 110.101 84.1244 94.2958C83.9 93.976 83.6871 93.6432 83.4858 93.2995C83.4534 93.2408 83.421 93.1842 83.3909 93.1298C83.2567 92.9014 83.1341 92.6687 83.0138 92.4316C82.9999 92.4011 82.986 92.3772 82.9745 92.3554C82.949 92.3032 82.9351 92.2749 82.9351 92.2749C80.316 86.9629 80.0592 79.8063 80.043 79.4234C80.043 79.4147 80.043 79.4082 80.043 79.4082" stroke="white" stroke-width="0.6" stroke-miterlimit="10" stroke-linecap="round" stroke-linejoin="round"/>
<path d="M123.324 154.559C119.67 158.033 115.156 159.673 111.16 159.362C110.008 159.275 108.9 159.023 107.868 158.608C105.369 157.6 103.317 155.63 102.176 152.656C99.2955 145.154 106.6 143.429 111.417 143.081L110.51 147.048C109.444 147.388 108.722 148.306 109.099 150.313C109.282 150.496 109.464 150.661 109.652 150.807C110.381 151.388 111.144 151.699 111.915 151.779C112.523 151.843 113.166 151.588 113.814 151.066C114.536 150.485 115.26 149.572 115.945 148.403C116.01 148.46 116.077 148.519 116.149 148.58C116.22 148.641 116.297 148.706 116.373 148.771C116.378 148.773 116.38 148.778 116.385 148.782C116.489 148.871 116.602 148.965 116.718 149.06C116.72 149.063 116.723 149.065 116.725 149.067C116.845 149.167 116.97 149.269 117.1 149.376C117.169 149.432 117.241 149.489 117.315 149.548C117.377 149.6 117.442 149.65 117.507 149.702C117.579 149.759 117.65 149.815 117.724 149.874C117.972 150.068 118.231 150.27 118.506 150.474C118.638 150.574 118.773 150.674 118.911 150.777C118.916 150.781 118.921 150.783 118.925 150.788C119.092 150.909 119.261 151.031 119.434 151.153C119.703 151.344 119.978 151.536 120.263 151.725C120.357 151.79 120.452 151.853 120.549 151.917C120.67 151.997 120.79 152.075 120.915 152.154C121.035 152.234 121.16 152.312 121.285 152.391C121.172 152.991 121.702 153.776 122.611 154.27C122.847 154.396 123.088 154.494 123.324 154.559Z" stroke="white" stroke-width="0.6" stroke-miterlimit="10" stroke-linecap="round" stroke-linejoin="round"/>
<path d="M110.511 147.049L109.652 150.807C109.465 150.662 109.282 150.496 109.099 150.314C108.722 148.306 109.444 147.388 110.511 147.049Z" stroke="white" stroke-width="0.6" stroke-miterlimit="10" stroke-linecap="round" stroke-linejoin="round"/>
<path d="M140.957 150.122C140.83 149.926 140.656 149.785 140.441 149.717C139.724 149.491 138.826 150.185 138.44 151.268C138.088 152.252 138.275 153.22 138.854 153.557C138.433 153.916 137.965 154.229 137.461 154.494C137.299 153.84 136.288 153.422 135.133 153.548C133.928 153.683 133.021 154.364 133.109 155.071C133.136 155.299 133.268 155.504 133.472 155.671C132.627 155.771 131.764 155.797 130.908 155.756C131.107 155.073 130.332 154.268 129.168 153.955C128 153.639 126.885 153.94 126.674 154.625C126.637 154.744 126.633 154.871 126.653 154.995C126.11 154.818 125.568 154.612 125.034 154.383C125.101 154.327 125.156 154.262 125.203 154.188C125.58 153.572 125.034 152.608 123.981 152.036C122.928 151.466 121.769 151.501 121.39 152.119C121.339 152.204 121.304 152.295 121.286 152.391C121.161 152.313 121.036 152.234 120.915 152.154C120.79 152.075 120.67 151.997 120.55 151.917C120.453 151.854 120.358 151.79 120.263 151.725C119.978 151.536 119.703 151.345 119.435 151.153C119.261 151.031 119.092 150.909 118.926 150.788C118.921 150.783 118.916 150.781 118.912 150.777C118.773 150.675 118.639 150.574 118.507 150.474C118.231 150.27 117.972 150.068 117.725 149.874C117.651 149.815 117.579 149.759 117.507 149.702C117.442 149.65 117.378 149.6 117.315 149.548C117.241 149.489 117.169 149.432 117.1 149.376C116.97 149.269 116.845 149.167 116.725 149.067C116.723 149.065 116.721 149.063 116.718 149.06C116.603 148.965 116.489 148.871 116.385 148.782C116.38 148.778 116.378 148.773 116.373 148.771C116.297 148.706 116.221 148.641 116.149 148.58C116.077 148.519 116.01 148.46 115.945 148.404C115.261 149.572 114.536 150.485 113.814 151.066L114.93 147.581L116.283 143.353C116.836 143.529 117.389 143.729 117.938 143.944C119.384 144.512 120.79 145.191 122.068 145.865C122.227 145.95 122.385 146.035 122.54 146.117C122.546 146.12 122.556 146.124 122.563 146.13C123.41 146.668 127.417 148.984 127.496 148.984C127.651 149.067 127.762 149.115 127.826 149.128C128.521 149.256 138.213 151.088 136.311 141.56C136.038 139.524 136.32 138.789 136.859 138.891C137.713 139.046 139.217 141.293 140.2 143.788C139.643 144.079 139.312 144.932 139.43 145.887C139.571 147.022 140.297 147.875 141.049 147.792C141.086 147.788 141.123 147.781 141.161 147.773C141.202 148.634 141.128 149.415 140.957 150.122Z" stroke="white" stroke-width="0.6" stroke-miterlimit="10" stroke-linecap="round" stroke-linejoin="round"/>
<path d="M122.562 146.13C124.888 147.386 126.806 148.423 127.576 148.828C130.478 143.292 131.54 135.77 129.117 126.101" stroke="white" stroke-width="0.6" stroke-miterlimit="10" stroke-linecap="round" stroke-linejoin="round"/>
<path d="M117.938 143.944C118.458 142.42 118.902 140.74 119.236 138.972C119.238 138.956 119.242 138.943 119.245 138.928C119.37 138.247 119.481 137.556 119.573 136.853C119.573 136.851 119.573 136.849 119.573 136.849C119.682 136.022 119.763 135.185 119.816 134.338" stroke="white" stroke-width="0.6" stroke-miterlimit="10" stroke-linecap="round" stroke-linejoin="round"/>
<path d="M82.6836 78.4814C95.0019 105.979 113.236 99.4685 124.081 114.3C124.689 115.13 127.202 119.997 127.552 120.971C127.598 121.102 127.644 121.23 127.688 121.36" stroke="white" stroke-width="0.6" stroke-miterlimit="10" stroke-linecap="round" stroke-linejoin="round"/>
<path d="M73.2227 89.9236C73.1996 89.978 73.1764 90.0323 73.1533 90.0867C72.8965 90.698 72.6188 91.2788 72.3227 91.8291C63.9145 107.526 40.7887 99.6601 29.5718 101.057C21.7999 102.022 17.2048 104.233 12.656 109.323C6.62875 116.066 6.59867 126.66 10.5991 134.338C11.5616 136.187 12.7555 137.882 14.2271 139.328" stroke="white" stroke-width="0.6" stroke-miterlimit="10" stroke-linecap="round" stroke-linejoin="round"/>
<path d="M19.6113 142.859C23.9496 144.621 29.7177 144.901 37.3692 142.859" stroke="white" stroke-width="0.6" stroke-miterlimit="10" stroke-linecap="round" stroke-linejoin="round"/>
<path d="M52.4648 142.859C53.1821 143.139 53.7767 143.429 54.251 143.692C54.7161 143.951 55.8267 144.651 56.5787 145.774C58.0155 147.914 57.2774 150.403 57.1687 150.753C56.4977 152.887 54.7971 154.083 53.8739 154.732C53.4204 155.051 53.0109 155.282 52.7124 155.436" stroke="white" stroke-width="0.6" stroke-miterlimit="10" stroke-linecap="round" stroke-linejoin="round"/>
<path d="M52.709 155.438L52.7113 155.436C53.1162 155.312 53.5119 155.066 53.8728 154.731C57.6419 151.257 58.0908 138.108 34.25 147.751C20.2658 153.407 -6.164 139.467 4.95813 111.835C10.127 98.9922 28.5883 95.3812 44.6271 96.7582C45.467 96.83 46.3139 96.8256 47.1514 96.7516C62.2416 95.4204 66.1541 81.4421 65.7006 77.1873" stroke="white" stroke-width="0.6" stroke-miterlimit="10" stroke-linecap="round" stroke-linejoin="round"/>
<path d="M77.3114 127.358C66.8232 127.358 58.5053 124.887 58.6603 115.315C58.8154 105.744 72.4456 101.091 73.223 89.3318" stroke="white" stroke-width="0.6" stroke-miterlimit="10" stroke-linecap="round" stroke-linejoin="round"/>
<path d="M14.9178 71.0724C14.964 71.0942 14.9571 71.1029 14.9016 71.1007C14.4203 71.0659 10.288 70.0065 7.54156 67.096C4.95249 64.3573 3.24726 57.5988 7.75905 51.9909C11.5559 47.2749 20.3273 43.0832 30.3805 48.2212C40.436 53.3592 38.7955 63.6895 38.7955 69.5867C38.7955 70.9114 38.9019 72.2688 39.1727 73.6001" stroke="white" stroke-width="0.6" stroke-miterlimit="10" stroke-linecap="round" stroke-linejoin="round"/>
<path d="M39.4414 74.7271C40.6029 78.8796 43.5552 82.6254 50.0846 84.209C59.2655 86.4321 65.154 77.4766 65.7 77.1873" stroke="white" stroke-width="0.6" stroke-miterlimit="10" stroke-linecap="round" stroke-linejoin="round"/>
<path d="M27.0921 73.8813C21.752 81.4469 3.86222 80.8487 0.542009 63.4574C-1.4478 53.0205 6.35643 43.6842 18.138 41.8461C31.4003 39.7774 41.5831 46.5969 43.9408 54.2647C43.9616 54.3343 43.9755 54.4061 43.987 54.4757C49.2508 83.7723 63.471 73.9183 63.5057 67.9037" stroke="white" stroke-width="0.6" stroke-miterlimit="10" stroke-linecap="round" stroke-linejoin="round"/>
<path d="M14.8975 71.2578C14.8906 71.2055 14.8906 71.1533 14.8998 71.1011C14.8998 71.0903 14.9022 71.0816 14.9045 71.0707C14.9068 71.0707 14.9068 71.0707 14.9068 71.0707C15.0965 70.0592 17.8776 68.791 21.1724 69.9678C21.1793 69.9722 21.1886 69.9743 21.1955 69.9765C21.9706 70.2571 22.7735 70.6726 23.5787 71.2578" stroke="white" stroke-width="0.6" stroke-miterlimit="10" stroke-linecap="round" stroke-linejoin="round"/>
<path d="M31.0023 52.5892C30.484 51.9301 29.8477 51.3254 29.0703 50.7859" stroke="white" stroke-width="0.6" stroke-miterlimit="10" stroke-linecap="round" stroke-linejoin="round"/>
<path d="M8.98923 53.7661C8.49409 54.5405 8.08687 55.3649 7.76758 56.2133" stroke="white" stroke-width="0.6" stroke-miterlimit="10" stroke-linecap="round" stroke-linejoin="round"/>
<path d="M15.5807 48.6411C14.5117 48.9805 13.5307 49.4547 12.6445 50.0377" stroke="white" stroke-width="0.6" stroke-miterlimit="10" stroke-linecap="round" stroke-linejoin="round"/>
<path d="M21.1543 48.1301C21.4852 48.1649 21.8253 48.2106 22.1677 48.2693C22.7299 48.3651 23.2644 48.4716 23.7711 48.5913" stroke="white" stroke-width="0.6" stroke-miterlimit="10" stroke-linecap="round" stroke-linejoin="round"/>
<path d="M9.90331 64.7777C9.33875 63.6248 8.34848 62.9222 7.69369 63.2072C7.52941 63.2768 7.40216 63.4051 7.31192 63.5726C7.31192 63.5726 7.31192 63.5726 7.31192 63.5748C7.04121 64.0751 7.10831 64.9452 7.53173 65.8088C7.99679 66.7551 8.74412 67.3989 9.35958 67.4403C9.49609 67.4511 9.62334 67.4316 9.74134 67.3815C10.3984 67.0966 10.4702 65.9306 9.90331 64.7777Z" stroke="white" stroke-width="0.6" stroke-miterlimit="10" stroke-linecap="round" stroke-linejoin="round"/>
<path d="M14.917 71.0727C14.917 71.0727 14.9147 71.0727 14.9077 71.0705C14.9077 71.0705 14.9077 71.0705 14.9054 71.0705C14.8059 71.0466 13.9892 70.816 11.37 69.1519C10.5949 68.6581 9.92393 68.0816 9.35938 67.4399" stroke="white" stroke-width="0.6" stroke-miterlimit="10" stroke-linecap="round" stroke-linejoin="round"/>
<path d="M7.31195 63.5725C7.04124 62.5675 6.92093 61.519 6.94175 60.4553" stroke="white" stroke-width="0.6" stroke-miterlimit="10" stroke-linecap="round" stroke-linejoin="round"/>
<path d="M89.1699 89.5167C96.2338 93.1255 104.454 92.3772 109.422 87.9309C113.839 83.9785 114.082 78.5381 114.1 77.1873" stroke="white" stroke-width="0.6" stroke-miterlimit="10" stroke-linecap="round" stroke-linejoin="round"/>
<path d="M122.201 77.9922C122.19 78.164 122.178 78.3794 122.162 78.6339" stroke="white" stroke-width="0.6" stroke-miterlimit="10" stroke-linecap="round" stroke-linejoin="round"/>
<path d="M121.371 84.2026C121.123 85.2837 120.797 86.4345 120.369 87.6026" stroke="white" stroke-width="0.6" stroke-miterlimit="10" stroke-linecap="round" stroke-linejoin="round"/>
<path d="M117.695 92.7556C116.999 93.7301 116.194 94.6633 115.264 95.5226" stroke="white" stroke-width="0.6" stroke-miterlimit="10" stroke-linecap="round" stroke-linejoin="round"/>
<path d="M105.439 99.6496C107.027 99.6344 108.746 99.3429 110.523 98.6055" stroke="white" stroke-width="0.6" stroke-miterlimit="10" stroke-linecap="round" stroke-linejoin="round"/>
<path d="M96.5879 96.8999C96.5879 96.8999 97.0784 97.2653 97.9484 97.7309C97.9507 97.7309 97.9507 97.733 97.953 97.733C98.587 98.0724 99.4222 98.4639 100.415 98.8054" stroke="white" stroke-width="0.6" stroke-miterlimit="10" stroke-linecap="round" stroke-linejoin="round"/>
<path d="M83.5137 72.5409C83.5276 73.6372 83.7682 74.6944 84.2656 75.7537C86.6974 80.9309 92.3799 83.0235 92.3799 83.0235C92.8288 83.1866 97.0907 84.6876 101.124 83.5804C107.553 81.8119 112.327 73.6981 111.596 63.6875" stroke="white" stroke-width="0.6" stroke-miterlimit="10" stroke-linecap="round" stroke-linejoin="round"/>
<path d="M88.7157 60.2527C85.9415 64.8121 84.0095 68.2272 83.5977 71.2574" stroke="white" stroke-width="0.6" stroke-miterlimit="10" stroke-linecap="round" stroke-linejoin="round"/>
<path d="M50.6819 30.9608C49.7194 28.9073 49.1456 26.5733 49.3145 23.6171C49.9161 13.0213 59.3631 6.21491 60.6773 5.29694C73.0696 -3.35847 87.7526 1.53807 89.4717 2.14062C92.1857 3.09339 102.364 6.66519 105.77 15.351C108.222 21.6006 106.186 27.9959 101.478 37.4518" stroke="white" stroke-width="0.6" stroke-miterlimit="10" stroke-linecap="round" stroke-linejoin="round"/>
<path d="M54.3359 74.1288C54.3359 74.131 54.3359 74.131 54.3359 74.131C54.3683 74.1397 58.4822 71.19 59.3406 60.6443" stroke="white" stroke-width="0.6" stroke-miterlimit="10" stroke-linecap="round" stroke-linejoin="round"/>
<path d="M107.868 158.608C108.9 159.023 110.008 159.276 111.161 159.363L107.257 171.557L106.672 171.416L105.615 171.159L105.029 171.018L107.868 158.608Z" stroke="white" stroke-width="0.6" stroke-miterlimit="10" stroke-linecap="round" stroke-linejoin="round"/>
<path d="M119.166 134.338L116.284 143.353L114.93 147.581L113.815 151.066C113.167 151.588 112.524 151.843 111.915 151.78C111.145 151.699 110.381 151.388 109.652 150.807L110.511 147.049L111.418 143.081L113.417 134.338H119.166V134.338Z" stroke="white" stroke-width="0.6" stroke-miterlimit="10" stroke-linecap="round" stroke-linejoin="round"/>
<path d="M77.3691 127.358C77.4131 127.577 77.4594 127.797 77.5033 128.017C77.5172 128.086 77.5357 128.18 77.5496 128.249C78.2669 128.674 79.8471 129.481 82.0151 129.552C84.8818 129.646 86.9202 128.399 87.5773 127.958C87.7995 126.772 87.9984 125.332 87.6467 125.221C87.5149 125.18 87.3506 125.339 87.3089 125.376C86.8207 125.82 84.4283 126.45 77.3691 127.358Z" fill="url(#paint1_linear_1129_183)"/>
<path d="M74.1641 111.31C74.1641 111.307 74.1641 111.304 74.1641 111.3" stroke="white" stroke-width="0.6" stroke-miterlimit="10" stroke-linecap="round" stroke-linejoin="round"/>
<path d="M89.5778 106.743C89.5778 106.743 84.6704 110.697 73.6848 108.785C73.3493 108.729 73.0115 108.666 72.6644 108.596C72.285 108.518 72.0906 108.435 71.6973 108.344L72.6829 105.979C72.6829 105.979 72.6945 105.982 72.7199 105.988C72.7176 106.014 72.7176 106.04 72.7199 106.064C72.7593 106.432 73.4765 106.702 74.6334 106.852C76.098 107.045 78.2706 107.047 80.6723 106.817C81.3085 106.756 81.9332 106.68 82.5325 106.591C82.5348 106.591 82.5348 106.591 82.5348 106.591C83.8374 106.462 85.1239 106.219 86.2877 105.807H86.29C87.005 105.555 87.6713 105.242 88.2706 104.853C88.2775 104.85 88.2914 104.568 88.2983 104.563L89.5778 106.743Z" stroke="white" stroke-width="0.6" stroke-miterlimit="10" stroke-linecap="round" stroke-linejoin="round"/>
<path d="M119.236 138.972C119.239 138.956 119.243 138.943 119.246 138.928C119.394 138.217 119.502 137.525 119.574 136.853C119.574 136.851 119.574 136.849 119.574 136.849C119.667 135.983 119.699 135.145 119.676 134.338" stroke="white" stroke-width="0.6" stroke-miterlimit="10" stroke-linecap="round" stroke-linejoin="round"/>
<path d="M93.2284 106.071C89.1909 101.342 84.8318 95.7382 83.4875 93.2997C83.4551 93.241 83.4227 93.1844 83.3927 93.13C83.2816 92.9256 83.1891 92.7559 83.115 92.621C83.0919 92.5753 83.0687 92.5362 83.0502 92.4992C83.0387 92.4753 83.0271 92.4513 83.0155 92.4318C83.0016 92.4013 82.9878 92.3774 82.9762 92.3556C82.9507 92.3034 82.9369 92.2751 82.9369 92.2751C83.3742 97.3087 80.6925 101.05 77.5273 104.187" stroke="white" stroke-width="0.6" stroke-miterlimit="10" stroke-linecap="round" stroke-linejoin="round"/>
<path d="M98.4878 111.722C98.0598 111.326 97.6248 110.908 97.1875 110.467" stroke="white" stroke-width="0.6" stroke-miterlimit="10" stroke-linecap="round" stroke-linejoin="round"/>
<path d="M109.35 119.721L109.051 119.725C109.035 119.638 109.014 119.551 108.984 119.459C109.107 119.546 109.23 119.634 109.35 119.721Z" stroke="white" stroke-width="0.6" stroke-miterlimit="10" stroke-linecap="round" stroke-linejoin="round"/>
<path d="M104.658 116.543C103.839 115.986 103.001 115.4 102.143 114.757" stroke="white" stroke-width="0.6" stroke-miterlimit="10" stroke-linecap="round" stroke-linejoin="round"/>
<path d="M122.068 145.865C122.089 145.841 122.256 145.936 122.54 146.117" stroke="white" stroke-width="0.6" stroke-miterlimit="10" stroke-linecap="round" stroke-linejoin="round"/>
<path d="M59.4653 146.465C59.4398 146.019 59.3773 145.602 59.2871 145.212" stroke="white" stroke-width="0.6" stroke-miterlimit="10" stroke-linecap="round" stroke-linejoin="round"/>
<path d="M59.0678 150.022C58.9429 150.459 58.7971 150.862 58.6328 151.231" stroke="white" stroke-width="0.6" stroke-miterlimit="10" stroke-linecap="round" stroke-linejoin="round"/>
<path d="M52.709 155.438C52.709 155.438 55.025 155.377 56.9524 153.6" stroke="white" stroke-width="0.6" stroke-miterlimit="10" stroke-linecap="round" stroke-linejoin="round"/>
<path d="M63.3848 101.929C68.0308 99.2664 70.7656 95.4901 72.3227 91.8292C72.6814 90.9852 72.9798 90.1477 73.2228 89.332C74.5 85.0489 74.3056 81.3487 73.947 80.4155" stroke="white" stroke-width="0.6" stroke-miterlimit="10" stroke-linecap="round" stroke-linejoin="round"/>
<path d="M58.0419 104.178C56.9892 104.489 55.8693 104.752 54.6777 104.963" stroke="white" stroke-width="0.6" stroke-miterlimit="10" stroke-linecap="round" stroke-linejoin="round"/>
<path d="M45.5156 105.49C46.7141 105.545 47.8618 105.554 48.9654 105.522" stroke="white" stroke-width="0.6" stroke-miterlimit="10" stroke-linecap="round" stroke-linejoin="round"/>
<path d="M40.037 105.44C38.894 105.471 37.7788 105.526 36.7168 105.599" stroke="white" stroke-width="0.6" stroke-miterlimit="10" stroke-linecap="round" stroke-linejoin="round"/>
<path d="M28.793 106.675C29.066 106.61 29.3413 106.547 29.6236 106.484C30.0748 106.384 30.6023 106.286 31.19 106.192" stroke="white" stroke-width="0.6" stroke-miterlimit="10" stroke-linecap="round" stroke-linejoin="round"/>
<path d="M23.0389 108.611C22.3101 108.968 21.6368 109.362 21.0098 109.805" stroke="white" stroke-width="0.6" stroke-miterlimit="10" stroke-linecap="round" stroke-linejoin="round"/>
<path d="M17.1814 114.065C16.9222 114.595 16.1818 116.434 15.9551 117.04" stroke="white" stroke-width="0.6" stroke-miterlimit="10" stroke-linecap="round" stroke-linejoin="round"/>
<path d="M16.4812 117.878H14.8223C15.0768 117.371 15.4539 117.036 15.8033 117.025C15.8542 117.023 15.9051 117.028 15.956 117.041C16.2522 117.119 16.4373 117.443 16.4812 117.878Z" stroke="white" stroke-width="0.6" stroke-miterlimit="10" stroke-linecap="round" stroke-linejoin="round"/>
<path d="M56.2565 141.256C56.1478 141.208 56.0344 141.162 55.9234 141.119C55.8401 141.084 55.7545 141.053 55.6712 141.025C55.6712 141.023 55.6688 141.023 55.6688 141.023C55.4606 140.612 54.9354 140.22 54.2459 140.005C53.9683 139.918 53.6929 139.868 53.4315 139.855C52.8715 139.824 52.3857 139.957 52.1265 140.218C52.0155 140.205 51.9067 140.194 51.798 140.185C51.3607 140.146 50.9234 140.122 50.4838 140.114C50.412 140.111 50.3426 140.109 50.2732 140.109C50.0442 140.107 49.8128 140.107 49.5837 140.111C49.5074 140.111 49.431 140.114 49.3547 140.118C49.2598 140.118 49.1673 140.122 49.0747 140.127C48.9243 140.131 48.7739 140.14 48.6235 140.148C48.5125 140.155 48.4014 140.161 48.288 140.17C48.17 140.179 48.052 140.187 47.934 140.198C47.8183 140.207 47.7027 140.218 47.587 140.229C46.872 140.301 46.1686 140.396 45.4838 140.514C45.3403 140.538 45.1969 140.564 45.0534 140.59C44.9123 140.616 44.7712 140.642 44.63 140.67C44.3801 140.718 44.1372 140.77 43.8966 140.823C43.811 140.84 43.7277 140.86 43.6444 140.879C43.5217 140.905 43.4014 140.934 43.2834 140.962C43.0451 141.018 42.8114 141.075 42.5824 141.134C42.3533 141.192 42.1289 141.251 41.9091 141.312C41.8952 141.316 41.8813 141.319 41.8674 141.323C41.68 141.375 41.4995 141.425 41.3214 141.477C40.6758 141.665 40.0835 141.852 39.5606 142.03C39.4033 142.082 39.2506 142.134 39.1048 142.184C39.0169 142.215 38.9313 142.245 38.848 142.276C38.841 142.278 38.8318 142.28 38.8249 142.282C38.103 142.498 37.4991 142.709 37.0895 142.859H14.9101L14.2275 139.328L10.4978 120.005L10.278 118.874L10.0859 117.878L52.5846 117.61" fill="url(#paint2_linear_1129_183)"/>
<path d="M39.1719 73.6006C39.3824 74.2706 39.5074 74.6664 39.512 74.6838C39.512 74.6904 39.4889 74.7056 39.4426 74.7274" stroke="white" stroke-width="0.6" stroke-miterlimit="10" stroke-linecap="round" stroke-linejoin="round"/>
<path d="M51.9372 59.6164C53.8551 59.3433 54.5813 53.9809 53.5593 47.6392C52.5373 41.2976 50.1541 36.3782 48.2362 36.6513C46.3184 36.9245 45.5922 42.2869 46.6142 48.6285C47.6362 54.9702 50.0194 59.8896 51.9372 59.6164Z" stroke="white" stroke-width="0.6" stroke-miterlimit="10" stroke-linecap="round" stroke-linejoin="round"/>
<path d="M102.373 50.6302C103.905 43.8666 103.609 38.0756 101.712 37.6957C99.8148 37.3158 97.0347 42.4909 95.5026 49.2546C93.9705 56.0182 94.2666 61.8092 96.1638 62.189C98.0611 62.5689 100.841 57.3938 102.373 50.6302Z" stroke="white" stroke-width="0.6" stroke-miterlimit="10" stroke-linecap="round" stroke-linejoin="round"/>
<path d="M51.9355 59.6179C51.9355 59.6179 53.5297 60.8882 59.3395 60.6467C60.1493 60.6141 60.6907 59.8702 61.0077 58.6455" stroke="white" stroke-width="0.6" stroke-miterlimit="10" stroke-linecap="round" stroke-linejoin="round"/>
<path d="M48.2363 36.6836L54.2497 33.0422C56.5241 34.4214 59.768 39.2461 59.8999 44.7452C59.9276 45.9155 59.9184 44.8213 59.9276 44.8605" stroke="white" stroke-width="0.6" stroke-miterlimit="10" stroke-linecap="round" stroke-linejoin="round"/>
<path d="M87.5312 55.9131C87.8112 58.208 88.4706 60.1723 89.5396 61.4644C91.888 64.3096 96.1638 62.1909 96.1638 62.1909" stroke="white" stroke-width="0.6" stroke-miterlimit="10" stroke-linecap="round" stroke-linejoin="round"/>
<path d="M88.6973 44.5715C89.9814 40.4276 92.1679 36.7579 95.1271 35.0721C97.9915 33.4406 101.712 37.702 101.712 37.702" stroke="white" stroke-width="0.6" stroke-miterlimit="10" stroke-linecap="round" stroke-linejoin="round"/>
<path d="M100.018 36.1726C99.2017 10.4543 75.2592 12.8493 75.2592 12.8493C52.6354 12.2685 49.2852 35.9833 49.2852 35.9833L52.1727 34.291C52.5545 34.0626 55.4328 18.7356 69.0121 15.5445C86.5988 11.4115 96.8579 22.079 97.825 34.9283L100.018 36.1726Z" fill="url(#paint3_linear_1129_183)"/>
<path d="M52.334 33.6603C52.6972 33.4406 56.1031 18.6052 69.0114 15.5446C85.7304 11.5791 96.8549 22.0943 97.4333 34.7501" stroke="white" stroke-width="0.6" stroke-miterlimit="10" stroke-linecap="round" stroke-linejoin="round"/>
<path d="M67.3613 40.8016C68.5945 40.8451 70.0499 41.043 74.9805 38.3783C79.675 35.8419 80.7393 36.1726 80.7393 36.1726" stroke="white" stroke-width="0.6" stroke-miterlimit="10" stroke-linecap="round" stroke-linejoin="round"/>
<path d="M63.5055 60.1704C63.5055 60.1704 62.2445 59.8267 61.009 58.6455C59.9146 57.5992 58.841 55.8981 58.6721 53.2008C58.6721 53.2008 58.494 51.1756 59.512 48.8655C59.829 48.6023 60.2015 48.326 60.6272 48.0606C62.1404 47.1144 64.3084 46.3204 66.9761 46.8599C70.7128 47.6169 71.68 48.9068 72.0224 48.9938C72.189 49.418 72.3347 49.8792 72.4527 50.373C74.0284 56.9466 68.9058 60.886 63.5055 60.1704Z" stroke="white" stroke-width="0.6" stroke-miterlimit="10" stroke-linecap="round" stroke-linejoin="round"/>
<path d="M89.1568 49.0697C88.9879 48.08 88.6362 47.2229 88.1503 46.5921C87.669 45.9678 87.0559 45.5675 86.3502 45.4783C84.3257 45.2238 82.3151 47.6384 81.8546 50.8708C81.3942 54.1033 82.6621 56.9311 84.6843 57.1835C85.6954 57.3096 86.7019 56.7723 87.5163 55.7956C87.521 55.8348 87.5256 55.874 87.5302 55.9131C83.2359 62.5085 70.8667 61.5797 72.9814 48.1365C73.1087 47.3251 73.2868 46.5921 73.5043 45.9264C79.2077 40.6471 86.5492 43.5619 88.62 44.3167C88.6454 44.3994 88.6709 44.4842 88.6963 44.5712C89.0434 45.7894 89.2123 47.2729 89.1568 49.0697Z" stroke="white" stroke-width="0.6" stroke-miterlimit="10" stroke-linecap="round" stroke-linejoin="round"/>
<path d="M89.1583 49.0695C89.1305 50.0679 89.031 51.1643 88.8552 52.3672C88.6979 53.4374 88.3716 54.4054 87.9135 55.2668C87.9112 55.2668 87.9112 55.2668 87.9112 55.269C87.7932 55.4909 87.6659 55.7063 87.5317 55.9129C87.5271 55.8737 87.5225 55.8346 87.5179 55.7954C86.7034 56.7721 85.697 57.3094 84.6859 57.1833C82.6637 56.9309 81.3957 54.1031 81.8562 50.8706C82.3166 47.6382 84.3272 45.2236 86.3517 45.4781C87.0574 45.5673 87.6706 45.9676 88.1518 46.5919C88.6377 47.2227 88.9894 48.0797 89.1583 49.0695Z" stroke="white" stroke-width="0.6" stroke-miterlimit="10" stroke-linecap="round" stroke-linejoin="round"/>
<path d="M92.1702 62.9504C92.1586 63.1245 92.5612 73.122 83.5978 71.2578C75.1157 69.4936 76.3096 69.9091 76.3096 70.3768C76.3096 70.8445 80.3632 71.6776 82.1703 72.2106C82.6376 72.3498 83.0865 72.4585 83.5145 72.5412C93.1744 74.4185 94.1762 62.9504 94.1762 62.9504H92.1702Z" stroke="white" stroke-width="0.6" stroke-miterlimit="10" stroke-linecap="round" stroke-linejoin="round"/>
<path d="M67.9408 63.9792C67.6539 65.689 72.9362 73.9854 79.9607 61.78" stroke="white" stroke-width="0.6" stroke-miterlimit="10" stroke-linecap="round" stroke-linejoin="round"/>
<path d="M66.1077 54.0491C65.5269 51.2799 63.433 49.3352 61.4316 49.7072C59.4302 50.0792 58.278 52.6243 58.8564 55.3934C59.4372 58.1625 61.5311 60.1072 63.5325 59.7352C65.5362 59.3632 66.6884 56.8182 66.1077 54.0491ZM62.0471 58.3213C61.0406 58.5084 59.9624 57.4055 59.6385 55.8567C59.3145 54.3101 59.8675 52.9049 60.8717 52.7178C61.8782 52.5307 62.9564 53.6336 63.2803 55.1824C63.6042 56.729 63.0512 58.1342 62.0471 58.3213Z" fill="white" stroke="white" stroke-width="0.6" stroke-miterlimit="10" stroke-linecap="round" stroke-linejoin="round"/>
<path d="M89.1583 49.0695C88.9894 48.0797 88.6377 47.2227 88.1518 46.5919C87.6706 45.9676 87.0574 45.5673 86.3517 45.4781C84.3272 45.2236 82.3166 47.6382 81.8562 50.8706C81.3957 54.1031 82.6637 56.9309 84.6859 57.1833C85.697 57.3094 86.7034 56.7721 87.5179 55.7954C87.6544 55.6323 87.7863 55.4561 87.9112 55.269C87.9112 55.2668 87.9112 55.2668 87.9135 55.2668C88.5313 54.338 88.9894 53.1351 89.1814 51.7908C89.318 50.8293 89.3018 49.9026 89.1583 49.0695ZM88.7603 52.0126C88.5151 53.7289 87.4461 55.0123 86.3726 54.8775C85.299 54.7426 84.6257 53.2417 84.8686 51.5232C85.1116 49.8047 86.1828 48.5235 87.2564 48.6584C88.33 48.7932 89.0056 50.2942 88.7603 52.0126Z" fill="white" stroke="white" stroke-width="0.6" stroke-miterlimit="10" stroke-linecap="round" stroke-linejoin="round"/>
<path d="M73.5047 45.9267C73.322 46.0964 73.1415 46.2726 72.9633 46.4575C72.6579 46.775 72.1072 46.5097 72.1998 46.092C72.3965 45.211 72.8083 43.9755 73.6621 42.5202C75.4043 39.5466 78.8888 38.4089 78.8888 38.4089" stroke="white" stroke-width="0.6" stroke-miterlimit="10" stroke-linecap="round" stroke-linejoin="round"/>
<path d="M59.5127 48.8634C59.4826 48.8852 59.4549 48.9091 59.4271 48.933C59.0685 49.2354 58.5224 48.8939 58.6774 48.4632C58.9528 47.6953 59.3808 46.7447 60.024 45.7702C60.3179 45.3243 60.6557 44.874 61.0467 44.4346" stroke="white" stroke-width="0.6" stroke-miterlimit="10" stroke-linecap="round" stroke-linejoin="round"/>
<path d="M68.584 65.8805C68.584 65.8805 73.9449 68.4995 79.7477 62.1477" stroke="white" stroke-width="0.6" stroke-miterlimit="10" stroke-linecap="round" stroke-linejoin="round"/>
<path d="M86.8145 37.4517C87.3697 37.5147 89.9149 38.7198 90.1462 40.8233" stroke="white" stroke-width="0.6" stroke-miterlimit="10" stroke-linecap="round" stroke-linejoin="round"/>
<path d="M77.9307 70.5848C78.2553 69.5338 77.0521 68.2816 75.2433 67.7879C73.4346 67.2942 71.7052 67.746 71.3806 68.7969C71.0561 69.8479 72.2593 71.1002 74.068 71.5939C75.8768 72.0876 77.6062 71.6358 77.9307 70.5848Z" fill="white" stroke="white" stroke-width="0.6" stroke-miterlimit="10" stroke-linecap="round" stroke-linejoin="round"/>
<path d="M78.3083 115.775C76.8206 115.968 75.7609 115.792 75.0066 115.446C74.995 115.442 74.9858 115.435 74.9742 115.431C73.3986 114.694 73.1695 113.21 73.1371 112.855C73.1325 112.805 73.1695 112.766 73.1764 112.718C73.2204 112.331 74.1066 111.368 74.1644 111.307C74.1667 111.304 74.1667 111.304 74.1667 111.304C74.1737 111.307 74.1806 111.309 74.1876 111.313C74.6619 111.492 77.7345 113.084 78.7826 113.665C79.0533 113.817 79.3472 113.93 79.6526 114.004C80.8002 114.28 83.4888 115.1 78.3083 115.775Z" stroke="white" stroke-width="0.6" stroke-miterlimit="10" stroke-linecap="round" stroke-linejoin="round"/>
<path d="M90.9109 113.963C90.9109 115.703 89.7147 117.413 87.8059 118.742C87.7966 118.748 87.785 118.755 87.7758 118.763C84.923 120.741 80.4991 121.876 76.1122 121.013C76.103 121.013 76.0961 121.01 76.0868 121.008C74.2381 120.643 72.3987 119.923 70.6865 118.759C70.4181 118.576 70.1752 118.357 69.9647 118.115C66.8689 114.563 69.178 111.757 72.6648 108.596C73.0118 108.666 73.3496 108.729 73.6851 108.785C73.8216 109.523 73.9859 110.373 74.1641 111.3C74.0646 111.23 71.5542 113.573 74.215 115.968C74.4672 116.194 74.798 116.377 75.1891 116.519C75.2006 116.523 75.2099 116.527 75.2215 116.529C78.5764 117.721 86.3274 116.036 87.8776 114.015C87.8961 113.993 87.9123 113.969 87.9285 113.947C87.9632 112.542 87.9933 111.324 88.0211 110.291C88.0211 110.291 90.9109 110.578 90.9109 113.963Z" stroke="white" stroke-width="0.6" stroke-miterlimit="10" stroke-linecap="round" stroke-linejoin="round"/>
<path d="M88.0208 110.291C88.0255 110.123 88.0301 109.962 88.0324 109.805C90.4225 110.893 95.1356 113.066 92.3174 120.39C91.4452 122.657 89.6752 124.188 87.646 125.222C87.646 125.222 87.6414 125.224 87.6344 125.228C87.4054 125.341 83.6432 127.153 77.3707 127.356C77.3499 127.356 77.3314 127.358 77.3105 127.358C77.3105 127.358 77.3314 127.358 77.3684 127.358" stroke="white" stroke-width="0.6" stroke-miterlimit="10" stroke-linecap="round" stroke-linejoin="round"/>
<path d="M88.2711 104.852C87.6718 105.242 87.0055 105.555 86.2905 105.807H86.2882C85.2841 106.105 83.9791 106.382 82.5353 106.59C82.5353 106.59 82.5353 106.59 82.533 106.59C81.9338 106.68 81.3091 106.756 80.6728 106.817C78.2711 107.047 76.0985 107.045 74.6339 106.852C73.4771 106.701 72.7598 106.432 72.7205 106.064C72.7182 106.04 72.7182 106.014 72.7205 105.988C72.8084 105.368 74.7612 104.665 77.5261 104.187C78.3961 104.037 79.347 103.908 80.3466 103.81C84.6478 103.397 87.8778 103.828 88.2989 104.563C88.3521 104.654 88.3405 104.752 88.2711 104.852Z" stroke="white" stroke-width="0.6" stroke-miterlimit="10" stroke-linecap="round" stroke-linejoin="round"/>
<path d="M142.153 145.587C142.012 144.451 141.286 143.598 140.534 143.683C140.416 143.696 140.305 143.731 140.201 143.788C139.643 144.079 139.312 144.932 139.43 145.887C139.571 147.022 140.298 147.875 141.05 147.792C141.087 147.788 141.124 147.782 141.161 147.773C141.85 147.61 142.288 146.666 142.153 145.587Z" stroke="white" stroke-width="0.6" stroke-miterlimit="10" stroke-linecap="round" stroke-linejoin="round"/>
<path d="M140.957 150.122C140.829 149.926 140.656 149.785 140.441 149.718C139.723 149.491 138.826 150.185 138.439 151.269C138.088 152.252 138.275 153.22 138.853 153.557C138.911 153.592 138.974 153.618 139.039 153.64C139.756 153.866 140.651 153.172 141.038 152.089C141.311 151.327 141.26 150.579 140.957 150.122Z" stroke="white" stroke-width="0.6" stroke-miterlimit="10" stroke-linecap="round" stroke-linejoin="round"/>
<path d="M137.48 154.586C137.475 154.555 137.471 154.525 137.462 154.494C137.3 153.84 136.288 153.422 135.134 153.548C133.928 153.683 133.021 154.364 133.109 155.071C133.137 155.299 133.269 155.504 133.473 155.671C133.896 156.017 134.641 156.2 135.456 156.108C136.661 155.976 137.568 155.293 137.48 154.586Z" stroke="white" stroke-width="0.6" stroke-miterlimit="10" stroke-linecap="round" stroke-linejoin="round"/>
<path d="M129.17 153.955C128.002 153.64 126.886 153.94 126.676 154.625C126.639 154.745 126.634 154.871 126.655 154.995C126.752 155.578 127.453 156.176 128.416 156.433C129.584 156.748 130.699 156.448 130.908 155.765C130.908 155.763 130.91 155.758 130.91 155.756C131.109 155.073 130.334 154.268 129.17 153.955Z" stroke="white" stroke-width="0.6" stroke-miterlimit="10" stroke-linecap="round" stroke-linejoin="round"/>
<path d="M123.982 152.036C122.929 151.467 121.77 151.501 121.391 152.119C121.34 152.204 121.305 152.295 121.287 152.391C121.173 152.991 121.703 153.777 122.612 154.27C122.848 154.397 123.089 154.495 123.325 154.56C124.017 154.76 124.672 154.697 125.035 154.384C125.102 154.327 125.158 154.262 125.204 154.188C125.581 153.572 125.035 152.609 123.982 152.036Z" stroke="white" stroke-width="0.6" stroke-miterlimit="10" stroke-linecap="round" stroke-linejoin="round"/>
<path d="M114.93 147.581C114.93 147.581 126.76 153.27 134.185 151.24C141.609 149.21 136.857 138.878 136.857 138.878" stroke="white" stroke-width="0.6" stroke-miterlimit="10" stroke-linecap="round" stroke-linejoin="round"/>
<path d="M101.171 95.7966C102.885 95.7966 104.274 95.0983 104.274 94.2369C104.274 93.3755 102.885 92.6772 101.171 92.6772C99.4575 92.6772 98.0684 93.3755 98.0684 94.2369C98.0684 95.0983 99.4575 95.7966 101.171 95.7966Z" stroke="white" stroke-width="0.6" stroke-miterlimit="10" stroke-linecap="round" stroke-linejoin="round"/>
<path d="M103.439 96.8999C101.726 96.8999 100.336 97.596 100.336 98.4574C100.336 98.5771 100.364 98.6945 100.415 98.8055C100.729 99.4994 101.965 100.017 103.439 100.017C104.2 100.017 104.899 99.8801 105.438 99.6495H105.44C106.113 99.3623 106.541 98.936 106.541 98.4574C106.541 97.596 105.153 96.8999 103.439 96.8999Z" stroke="white" stroke-width="0.6" stroke-miterlimit="10" stroke-linecap="round" stroke-linejoin="round"/>
<path d="M109.825 93.5383C111.44 92.9997 112.501 91.905 112.194 91.0931C111.888 90.2813 110.33 90.0598 108.715 90.5983C107.1 91.1369 106.039 92.2316 106.346 93.0435C106.652 93.8553 108.209 94.0769 109.825 93.5383Z" stroke="white" stroke-width="0.6" stroke-miterlimit="10" stroke-linecap="round" stroke-linejoin="round"/>
<path d="M115.268 95.529C115.268 95.5269 115.266 95.5247 115.263 95.5225C114.863 94.7503 113.294 94.685 111.753 95.3746C110.205 96.0685 109.271 97.2606 109.664 98.0371C109.81 98.3243 110.115 98.5135 110.522 98.6049H110.525C111.219 98.7615 112.205 98.6266 113.179 98.1894C114.727 97.4977 115.661 96.3056 115.268 95.529Z" stroke="white" stroke-width="0.6" stroke-miterlimit="10" stroke-linecap="round" stroke-linejoin="round"/>
<path d="M116.387 87.5096C117.296 86.1444 117.404 84.667 116.628 84.2097C115.852 83.7524 114.485 84.4883 113.575 85.8535C112.665 87.2187 112.557 88.6962 113.334 89.1535C114.11 89.6108 115.477 88.8748 116.387 87.5096Z" stroke="white" stroke-width="0.6" stroke-miterlimit="10" stroke-linecap="round" stroke-linejoin="round"/>
<path d="M63.6263 102.362C63.5916 102.201 63.5083 102.055 63.3856 101.929C62.8604 101.385 61.611 101.163 60.2528 101.426C58.5731 101.753 57.363 102.701 57.5504 103.543C57.6059 103.795 57.7818 104.011 58.0432 104.178C58.6564 104.572 59.7484 104.709 60.9238 104.48C62.6013 104.154 63.8114 103.206 63.6263 102.362Z" stroke="white" stroke-width="0.6" stroke-miterlimit="10" stroke-linecap="round" stroke-linejoin="round"/>
<path d="M51.6063 103.136C49.8918 103.162 48.5175 103.882 48.5314 104.744C48.536 105.031 48.6956 105.296 48.9663 105.52C48.9663 105.522 48.9663 105.522 48.9687 105.52C49.5147 105.977 50.5189 106.271 51.6618 106.253C53.1611 106.229 54.399 105.677 54.6766 104.963H54.679C54.7183 104.861 54.7391 104.755 54.7368 104.646C54.7206 103.784 53.3185 103.108 51.6063 103.136Z" stroke="white" stroke-width="0.6" stroke-miterlimit="10" stroke-linecap="round" stroke-linejoin="round"/>
<path d="M96.2453 107.249C95.2203 106.273 93.9802 105.811 93.2282 106.07C93.0963 106.114 92.9806 106.181 92.8835 106.27C92.666 106.471 92.5734 106.764 92.5873 107.101C92.5873 107.104 92.5873 107.104 92.5896 107.104C92.6151 107.791 93.0847 108.676 93.8876 109.44C94.9404 110.443 96.2222 110.902 96.9626 110.597V110.599C97.0459 110.567 97.1222 110.521 97.1893 110.467C97.2102 110.453 97.2287 110.436 97.2472 110.419C97.8997 109.812 97.4508 108.393 96.2453 107.249Z" stroke="white" stroke-width="0.6" stroke-miterlimit="10" stroke-linecap="round" stroke-linejoin="round"/>
<path d="M102.143 114.756C101.96 114.182 101.546 113.542 100.945 112.97C100.146 112.211 99.2139 111.761 98.4897 111.722C98.1195 111.702 97.8048 111.787 97.585 111.991C97.3675 112.194 97.2727 112.485 97.2889 112.825C97.3166 113.512 97.784 114.397 98.5869 115.163C99.6419 116.164 100.921 116.625 101.662 116.32H101.664C101.771 116.277 101.865 116.218 101.949 116.142C102.275 115.837 102.324 115.33 102.143 114.756Z" stroke="white" stroke-width="0.6" stroke-miterlimit="10" stroke-linecap="round" stroke-linejoin="round"/>
<path d="M108.983 119.459C108.793 118.865 108.335 118.195 107.667 117.617C106.625 116.707 105.399 116.294 104.656 116.542C104.501 116.592 104.369 116.67 104.263 116.777C104.055 116.988 103.976 117.282 104.006 117.621H104.009C104.066 118.306 104.575 119.172 105.413 119.903C105.772 120.216 106.153 120.471 106.53 120.658C106.53 120.658 106.533 120.658 106.533 120.66L106.908 119.72H109.05C109.034 119.635 109.013 119.548 108.983 119.459Z" stroke="white" stroke-width="0.6" stroke-miterlimit="10" stroke-linecap="round" stroke-linejoin="round"/>
<path d="M104.738 110.343C103.297 109.471 101.728 109.353 101.231 110.077C101.064 110.319 101.041 110.623 101.136 110.95C101.133 110.952 101.133 110.952 101.138 110.952C101.323 111.618 101.985 112.385 102.947 112.966C104.208 113.728 105.564 113.912 106.217 113.464L106.219 113.467C106.312 113.401 106.393 113.325 106.455 113.232C106.948 112.505 106.18 111.213 104.738 110.343Z" stroke="white" stroke-width="0.6" stroke-miterlimit="10" stroke-linecap="round" stroke-linejoin="round"/>
<path d="M111.59 115.148C110.308 114.076 108.779 113.732 108.17 114.374C107.967 114.589 107.893 114.885 107.932 115.222C107.93 115.224 107.93 115.224 107.934 115.224C108.008 115.907 108.536 116.762 109.39 117.478C110.51 118.415 111.819 118.796 112.536 118.448L112.539 118.45C112.64 118.4 112.733 118.335 112.809 118.252C113.416 117.608 112.872 116.218 111.59 115.148Z" stroke="white" stroke-width="0.6" stroke-miterlimit="10" stroke-linecap="round" stroke-linejoin="round"/>
<path d="M42.7899 103.179C41.0778 103.101 39.6548 103.732 39.6086 104.593C39.5924 104.896 39.7497 105.187 40.0366 105.44C40.5595 105.905 41.5174 106.242 42.6257 106.294C43.8982 106.355 45.0111 106.02 45.5155 105.49C45.6937 105.307 45.7955 105.1 45.8071 104.88C45.8533 104.021 44.5021 103.26 42.7899 103.179Z" stroke="white" stroke-width="0.6" stroke-miterlimit="10" stroke-linecap="round" stroke-linejoin="round"/>
<path d="M37.0936 104.4C36.8044 103.582 35.2519 103.334 33.6253 103.843C32.0335 104.341 30.9599 105.383 31.189 106.192C31.1936 106.21 31.1982 106.225 31.2052 106.242C31.4944 107.06 33.0469 107.311 34.6735 106.802C35.5619 106.523 36.2884 106.077 36.7165 105.596C37.0728 105.196 37.2255 104.772 37.0936 104.4Z" stroke="white" stroke-width="0.6" stroke-miterlimit="10" stroke-linecap="round" stroke-linejoin="round"/>
<path d="M24.6836 105.525C26.2721 104.92 27.2811 103.783 26.9374 102.985C26.5936 102.186 25.0272 102.029 23.4387 102.633C21.8502 103.238 20.8412 104.375 21.1849 105.174C21.5287 105.972 23.0951 106.129 24.6836 105.525Z" stroke="white" stroke-width="0.6" stroke-miterlimit="10" stroke-linecap="round" stroke-linejoin="round"/>
<path d="M16.5054 110.289C17.8721 109.317 18.5321 107.973 17.9794 107.286C17.4268 106.599 15.8708 106.829 14.504 107.801C13.1373 108.773 12.4773 110.118 13.03 110.805C13.5826 111.492 15.1386 111.261 16.5054 110.289Z" stroke="white" stroke-width="0.6" stroke-miterlimit="10" stroke-linecap="round" stroke-linejoin="round"/>
<path d="M28.793 106.675C28.7838 106.566 28.7537 106.462 28.7028 106.364C28.3002 105.592 26.7269 105.538 25.1859 106.247C23.844 106.864 22.9717 107.856 23.0388 108.611C23.048 108.722 23.0758 108.829 23.1267 108.927C23.5293 109.701 25.1049 109.753 26.6436 109.046C27.9879 108.428 28.8624 107.434 28.793 106.675Z" stroke="white" stroke-width="0.6" stroke-miterlimit="10" stroke-linecap="round" stroke-linejoin="round"/>
<path d="M59.2947 151.277C59.1211 151.16 58.8875 151.149 58.633 151.231C58.2443 151.353 57.807 151.69 57.4622 152.171C57.1059 152.665 56.9301 153.198 56.9532 153.6C56.9671 153.842 57.055 154.04 57.2216 154.153C57.6589 154.453 58.4803 154.053 59.0517 153.259C59.6232 152.465 59.732 151.577 59.2947 151.277Z" stroke="white" stroke-width="0.6" stroke-miterlimit="10" stroke-linecap="round" stroke-linejoin="round"/>
<path d="M60.6685 148.297C60.6153 147.309 60.0855 146.515 59.4654 146.465C59.4376 146.463 59.4099 146.463 59.3821 146.463C58.7273 146.478 58.2437 147.327 58.2993 148.358C58.3409 149.1 58.6533 149.733 59.0674 150.022C59.2294 150.135 59.4052 150.196 59.588 150.192C60.2428 150.174 60.7264 149.326 60.6685 148.297Z" stroke="white" stroke-width="0.6" stroke-miterlimit="10" stroke-linecap="round" stroke-linejoin="round"/>
<path d="M59.2881 145.212C59.2811 145.217 59.2742 145.219 59.2673 145.223C58.6796 145.497 57.7888 144.982 57.2752 144.07C57.0392 143.653 56.9258 143.226 56.9258 142.859H56.9512L56.9304 142.739C56.9582 142.358 57.1178 142.058 57.407 141.923C57.8351 141.723 58.4297 141.945 58.9179 142.439C59.0961 142.617 59.2603 142.833 59.3968 143.076C59.9035 143.977 59.8549 144.925 59.2881 145.212Z" stroke="white" stroke-width="0.6" stroke-miterlimit="10" stroke-linecap="round" stroke-linejoin="round"/>
<path d="M56.9511 142.86H56.9258C56.9258 142.818 56.9281 142.779 56.9304 142.739L56.9511 142.86Z" stroke="white" stroke-width="0.6" stroke-miterlimit="10" stroke-linecap="round" stroke-linejoin="round"/>
<path d="M21.0836 109.873C21.0605 109.849 21.035 109.825 21.0096 109.805C20.3594 109.255 18.8948 109.614 17.6616 110.643C16.3798 111.713 15.836 113.103 16.4446 113.747C16.6204 113.936 16.8772 114.039 17.1826 114.065C17.923 114.128 18.9573 113.732 19.8643 112.975C21.1461 111.905 21.6898 110.515 21.0836 109.873Z" stroke="white" stroke-width="0.6" stroke-miterlimit="10" stroke-linecap="round" stroke-linejoin="round"/>
<path d="M41.1646 82.6065C41.9098 82.1053 41.7057 80.6369 40.7087 79.3266C39.7117 78.0164 38.2995 77.3605 37.5543 77.8616C36.8091 78.3628 37.0133 79.8312 38.0102 81.1415C39.0072 82.4517 40.4195 83.1076 41.1646 82.6065Z" stroke="white" stroke-width="0.6" stroke-miterlimit="10" stroke-linecap="round" stroke-linejoin="round"/>
<path d="M37.3855 61.8866C37.3022 63.0221 36.8603 63.9813 36.2865 64.4273C36.1685 64.0488 36.0482 63.6725 35.9325 63.2961C35.6525 62.4108 35.3772 61.5363 35.1157 60.7032C34.9931 60.3182 34.8751 59.9397 34.7617 59.5742C35.0903 59.1109 35.5067 58.8412 35.9417 58.8695C36.8557 58.9282 37.5012 60.279 37.3855 61.8866Z" stroke="white" stroke-width="0.6" stroke-miterlimit="10" stroke-linecap="round" stroke-linejoin="round"/>
<path d="M27.1698 48.2718C25.7376 47.5757 24.2568 47.5953 23.8612 48.3131C23.8126 48.4001 23.7825 48.4936 23.7709 48.5915C23.6784 49.305 24.4789 50.2665 25.7376 50.8777C27.1698 51.5717 28.6506 51.5543 29.0462 50.8342C29.0555 50.819 29.0624 50.8016 29.0694 50.7864C29.4049 50.0642 28.5696 48.9526 27.1698 48.2718Z" stroke="white" stroke-width="0.6" stroke-miterlimit="10" stroke-linecap="round" stroke-linejoin="round"/>
<path d="M34.0772 53.7249C32.9828 52.6112 31.5853 52.1544 30.9513 52.7026C30.875 52.7678 30.8125 52.8461 30.7662 52.9353C30.4215 53.577 30.8241 54.7364 31.7866 55.7153C32.881 56.8269 34.2785 57.2859 34.9124 56.7355C34.9263 56.7246 34.9402 56.7094 34.9518 56.6985C35.5279 56.1264 35.1461 54.8147 34.0772 53.7249Z" stroke="white" stroke-width="0.6" stroke-miterlimit="10" stroke-linecap="round" stroke-linejoin="round"/>
<path d="M12.6455 50.038C12.6015 49.9575 12.5437 49.8857 12.472 49.8248C11.8727 49.3158 10.5654 49.7617 9.55202 50.8167C8.54091 51.8739 8.20774 53.1421 8.80931 53.6511C8.86484 53.6968 8.92268 53.7359 8.98978 53.7664C9.64225 54.0753 10.8084 53.6185 11.7269 52.6592C12.62 51.7282 12.9856 50.6318 12.6455 50.038Z" stroke="white" stroke-width="0.6" stroke-miterlimit="10" stroke-linecap="round" stroke-linejoin="round"/>
<path d="M8.6926 58.2928C8.63938 57.3357 8.25993 56.533 7.7671 56.2132C7.60745 56.1066 7.43624 56.0523 7.26039 56.061C6.53851 56.0979 6.01097 57.1529 6.0827 58.4211C6.13129 59.3347 6.48066 60.1091 6.9411 60.455C7.11925 60.5921 7.31361 60.6617 7.5149 60.653C8.23679 60.6182 8.76201 59.561 8.6926 58.2928Z" stroke="white" stroke-width="0.6" stroke-miterlimit="10" stroke-linecap="round" stroke-linejoin="round"/>
<path d="M21.1685 47.8974C21.0922 47.1121 19.7618 46.5879 18.2 46.7249C16.6359 46.8598 15.4328 47.6081 15.5115 48.3933C15.5207 48.4803 15.5439 48.563 15.5809 48.6413C15.8817 49.2852 17.0894 49.6876 18.48 49.568C19.8844 49.444 21.0043 48.8262 21.1547 48.1301C21.1709 48.054 21.1755 47.9757 21.1685 47.8974Z" stroke="white" stroke-width="0.6" stroke-miterlimit="10" stroke-linecap="round" stroke-linejoin="round"/>
<path d="M37.5338 85.127C38.2789 84.6258 38.0748 83.1574 37.0778 81.8471C36.0809 80.5369 34.6686 79.881 33.9234 80.3821C33.1783 80.8833 33.3824 82.3517 34.3794 83.662C35.3763 84.9722 36.7886 85.6281 37.5338 85.127Z" stroke="white" stroke-width="0.6" stroke-miterlimit="10" stroke-linecap="round" stroke-linejoin="round"/>
<path d="M63.8167 83.4587C63.4071 82.6886 61.8315 82.6516 60.2998 83.3738C58.7704 84.096 57.8611 85.3055 58.273 86.0755C58.6825 86.8456 60.2581 86.8825 61.7898 86.1604C63.3192 85.4382 64.2285 84.2265 63.8167 83.4587Z" stroke="white" stroke-width="0.6" stroke-miterlimit="10" stroke-linecap="round" stroke-linejoin="round"/>
<path d="M49.8208 90.8846C48.3169 91.0325 46.7898 91.0108 45.2812 90.7998" stroke="white" stroke-width="0.6" stroke-miterlimit="10" stroke-linecap="round" stroke-linejoin="round"/>
<path d="M60.5851 86.5732C59.0557 87.8044 57.2695 88.8203 55.3398 89.5664" stroke="white" stroke-width="0.6" stroke-miterlimit="10" stroke-linecap="round" stroke-linejoin="round"/>
<path d="M65.8306 77.0632C65.7728 79.2428 65.0324 81.3007 63.7969 83.1322" stroke="white" stroke-width="0.6" stroke-miterlimit="10" stroke-linecap="round" stroke-linejoin="round"/>
<path d="M31.6133 77.4377C31.8632 80.0459 32.6452 82.504 34.3805 84.6422C36.058 86.7088 38.0177 88.2184 40.1255 89.243" stroke="white" stroke-width="0.6" stroke-miterlimit="10" stroke-linecap="round" stroke-linejoin="round"/>
<path d="M47.6203 86.0863C47.2755 86.8846 45.7091 87.0413 44.1219 86.4344C42.5324 85.8296 41.5236 84.692 41.8683 83.8958C42.2131 83.0975 43.7795 82.9409 45.3667 83.5456C46.9539 84.1503 47.9627 85.288 47.6203 86.0863Z" stroke="white" stroke-width="0.6" stroke-miterlimit="10" stroke-linecap="round" stroke-linejoin="round"/>
<path d="M45.2801 90.7997C45.4166 90.704 45.523 90.5844 45.5901 90.443C45.9603 89.6555 44.9909 88.4874 43.4245 87.837C41.8557 87.1844 40.287 87.2954 39.9145 88.0828C39.7549 88.4221 39.8451 88.8333 40.1251 89.2422C40.4953 89.7817 41.1917 90.319 42.0825 90.6888C43.3666 91.2217 44.6531 91.2456 45.2801 90.7997Z" stroke="white" stroke-width="0.6" stroke-miterlimit="10" stroke-linecap="round" stroke-linejoin="round"/>
<path d="M56.2446 85.8058C56.2284 86.6672 54.8286 87.3437 53.1141 87.3176C51.402 87.2915 50.0253 86.5715 50.0392 85.7101C50.0554 84.8508 51.4552 84.1743 53.1697 84.2004C54.8818 84.2265 56.2585 84.9444 56.2446 85.8058Z" stroke="white" stroke-width="0.6" stroke-miterlimit="10" stroke-linecap="round" stroke-linejoin="round"/>
<path d="M55.3402 89.5669C55.398 89.6822 55.4281 89.8018 55.4281 89.9258C55.4374 90.7872 54.0538 91.4964 52.3416 91.5094C51.305 91.5181 50.3865 91.2723 49.8196 90.8851C49.4471 90.6306 49.2273 90.3174 49.2227 89.9759C49.2157 89.1166 50.5994 88.4053 52.3115 88.3923C53.7784 88.3814 55.014 88.8817 55.3402 89.5669Z" stroke="white" stroke-width="0.6" stroke-miterlimit="10" stroke-linecap="round" stroke-linejoin="round"/>
<path d="M120.813 87.7333C120.681 87.655 120.531 87.6115 120.369 87.6028C119.585 87.5462 118.516 88.2445 117.762 89.3778C116.852 90.7417 116.744 92.2187 117.521 92.6756C117.576 92.7082 117.634 92.7343 117.694 92.756C118.488 93.0258 119.728 92.2992 120.573 91.0332C121.482 89.6671 121.591 88.1901 120.813 87.7333Z" stroke="white" stroke-width="0.6" stroke-miterlimit="10" stroke-linecap="round" stroke-linejoin="round"/>
<path d="M118.902 80.3396C118.497 81.9058 117.448 83.0109 116.56 82.8086C115.669 82.6041 115.274 81.1706 115.678 79.6066C115.755 79.3042 115.857 79.0214 115.977 78.7604C116.192 78.8409 116.421 78.8887 116.657 78.9018C116.863 78.9148 117.074 78.904 117.287 78.8626L118.323 78.6647L119.01 78.532C119.098 79.0584 119.068 79.6871 118.902 80.3396Z" stroke="white" stroke-width="0.6" stroke-miterlimit="10" stroke-linecap="round" stroke-linejoin="round"/>
<path d="M122.539 78.5967C122.412 78.5837 122.285 78.5967 122.162 78.6337C121.394 78.8512 120.714 79.9476 120.554 81.3267C120.404 82.6145 120.755 83.7565 121.371 84.2024C121.521 84.3112 121.686 84.3786 121.864 84.396C122.775 84.4895 123.664 83.267 123.849 81.6639C124.036 80.0629 123.449 78.6903 122.539 78.5967Z" stroke="white" stroke-width="0.6" stroke-miterlimit="10" stroke-linecap="round" stroke-linejoin="round"/>
<path d="M59.2871 142.532C59.2617 142.495 79.6503 135.92 79.6503 135.92" stroke="white" stroke-width="0.6" stroke-miterlimit="10" stroke-linecap="round" stroke-linejoin="round"/>
<path d="M79.3755 134.58L58.6328 141.053L79.3755 134.58Z" stroke="white" stroke-width="0.6" stroke-miterlimit="10" stroke-linecap="round" stroke-linejoin="round"/>
<path d="M79.7134 136.222L79.3756 134.58L57.8926 136.49" stroke="white" stroke-width="0.6" stroke-miterlimit="10" stroke-linecap="round" stroke-linejoin="round"/>
<path d="M31.9643 131.509C33.1347 131.363 33.9279 130.148 33.736 128.796C33.5441 127.445 32.4398 126.468 31.2695 126.615C30.0991 126.762 29.3059 127.977 29.4978 129.328C29.6897 130.68 30.794 131.656 31.9643 131.509Z" fill="white" stroke="white" stroke-width="0.6" stroke-miterlimit="10" stroke-linecap="round" stroke-linejoin="round"/>
<path d="M140.813 72.0948L140.672 71.4444C137.965 72.5777 134.723 73.2282 131.697 72.5756C130.753 72.3733 126.378 71.4292 125.36 68.4273C124.992 67.3419 124.973 65.7322 125.846 65.1731C126.91 64.4901 128.226 66.0476 130.603 66.202C133.435 66.3869 137.074 64.5336 138.213 61.3686C138.275 61.1967 138.328 61.0249 138.372 60.853L134.513 43.081L134.356 42.3545C134.096 41.1603 132.856 40.3902 131.588 40.6339L109.888 44.7995C108.618 45.0431 107.798 46.2069 108.058 47.4011L114.515 77.1415C114.682 77.9093 115.253 78.501 115.975 78.7599C116.19 78.8404 116.419 78.8882 116.655 78.9013C116.861 78.9143 117.072 78.9034 117.285 78.8621L118.321 78.6642L119.009 78.5315L138.983 74.6965C140.253 74.4528 141.072 73.2891 140.813 72.0948ZM112.366 49.0478C111.982 49.0478 111.669 48.7542 111.669 48.3931C111.669 48.0298 111.982 47.7361 112.366 47.7361C112.752 47.7361 113.065 48.0298 113.065 48.3931C113.065 48.7542 112.752 49.0478 112.366 49.0478Z" fill="url(#paint4_linear_1129_183)"/>
<path d="M39.1713 73.6001C38.6114 71.823 37.4476 68.1185 36.2861 64.427C36.1681 64.0485 36.0478 63.6722 35.9321 63.2959C35.6521 62.4105 35.3768 61.5361 35.1154 60.703C34.9927 60.3179 34.8747 59.9394 34.7614 59.574C34.5045 58.7604 34.2662 58.0034 34.0557 57.3335C33.9168 56.8984 33.7919 56.4982 33.6808 56.1436C33.3315 55.0364 33.1186 54.3599 33.1186 54.3599L32.1977 54.6535L31.964 54.7275L31.2329 54.9602L21.2422 58.1296L23.3662 63.8506C26.4504 61.6427 32.3366 61.5752 33.2713 64.116C33.4333 64.5575 33.4448 65.0774 33.2667 65.68C31.4087 68.0967 28.5559 69.9348 28.5559 69.9348C28.4148 71.4162 27.8942 72.7409 27.0913 73.8808L28.7989 78.4815C28.7989 78.4815 29.9418 78.0921 31.4828 77.5613C34.4351 76.5455 38.8428 75.0141 39.442 74.7269C39.3379 74.355 39.2477 73.9786 39.1713 73.6001ZM25.9992 61.1576L24.7521 61.5143C24.1459 61.6862 23.5073 61.3664 23.3222 60.7965L22.9867 59.7611C22.804 59.1911 23.1441 58.5908 23.7503 58.4167L24.9974 58.06C25.6036 57.8882 26.2422 58.2079 26.4273 58.7778L26.7628 59.8133C26.9455 60.3832 26.6054 60.9857 25.9992 61.1576Z" fill="url(#paint5_linear_1129_183)"/>
<path d="M119.251 130.832C119.251 130.832 113.992 130.832 113.358 130.832C112.724 130.832 112.002 130.201 112.219 129.424L113.004 126.62C113.221 125.844 114.082 125.213 114.929 125.213H120.822C121.666 125.213 122.178 125.844 121.96 126.62L121.176 129.424C120.958 130.203 120.095 130.832 119.251 130.832Z" fill="url(#paint6_linear_1129_183)"/>
<path d="M124.771 130.631H122.522C122.2 130.631 122.006 130.39 122.087 130.094L122.385 129.024C122.468 128.728 122.797 128.487 123.121 128.487H125.37C125.692 128.487 125.886 128.728 125.805 129.024L125.506 130.094C125.421 130.39 125.092 130.631 124.771 130.631Z" fill="url(#paint7_linear_1129_183)"/>
<path d="M125.587 127.39H123.338C123.017 127.39 122.822 127.149 122.903 126.853L123.202 125.783C123.285 125.487 123.613 125.246 123.937 125.246H126.186C126.508 125.246 126.702 125.487 126.621 125.783L126.323 126.853C126.239 127.149 125.911 127.39 125.587 127.39Z" fill="url(#paint8_linear_1129_183)"/>
<path d="M126.203 134.341H108.086L112.137 123.499H130.252L126.203 134.341Z" stroke="white" stroke-width="0.6" stroke-miterlimit="10" stroke-linecap="round" stroke-linejoin="round"/>
<path d="M112.137 123.497L108.088 134.34L102.762 130.323L106.378 121.05V121.047L106.415 120.956L106.533 120.66L106.908 119.72L108.329 120.745L108.569 120.919C108.562 120.926 108.551 120.93 108.541 120.934L108.539 120.932C108.537 120.932 108.534 120.934 108.532 120.934L112.137 123.497Z" stroke="white" stroke-width="0.6" stroke-miterlimit="10" stroke-linecap="round" stroke-linejoin="round"/>
<path d="M106.534 120.661L106.416 120.956L106.532 120.658C106.532 120.658 106.534 120.658 106.534 120.661Z" stroke="white" stroke-width="0.6" stroke-miterlimit="10" stroke-linecap="round" stroke-linejoin="round"/>
<path d="M134.691 43.0815C155.103 44.9914 149.494 67.412 141.611 71.1078C141.364 71.223 141.109 71.3362 140.85 71.4449C138.143 72.5782 134.902 73.2286 131.875 72.5761C130.931 72.3738 126.556 71.4297 125.538 68.4278C125.17 67.3424 125.152 65.7327 126.024 65.1736C127.088 64.4906 128.405 66.0481 130.781 66.2025C138.816 65.8719 138.74 59.9269 137.854 57.6058" stroke="white" stroke-width="0.6" stroke-miterlimit="10" stroke-linecap="round" stroke-linejoin="round"/>
<path d="M27.0918 73.881C27.0918 73.881 28.5888 72.0124 28.5564 69.935C35.1158 65.293 32.9733 63.8225 32.9733 63.8225" stroke="white" stroke-width="0.6" stroke-miterlimit="10" stroke-linecap="round" stroke-linejoin="round"/>
<path d="M21.2429 69.9961C20.8958 69.8439 20.2063 69.7242 20.1554 69.3936C19.9958 68.3429 20.3104 66.5113 22.8879 64.2295C31.0022 59.8093 33.1008 64.236 33.2697 64.1164" stroke="white" stroke-width="0.6" stroke-miterlimit="10" stroke-linecap="round" stroke-linejoin="round"/>
<path d="M37.0889 142.859C36.7187 142.994 36.5059 143.081 36.5059 143.081" stroke="white" stroke-width="0.6" stroke-miterlimit="10" stroke-linecap="round" stroke-linejoin="round"/>
<path d="M52.9644 143.063C53.5035 143.411 51.9371 142.439 52.5803 142.859C52.5803 142.859 49.0403 141.671 46.5715 141.46C42.8696 140.873 37.0898 142.859 37.0898 142.859" stroke="white" stroke-width="0.6" stroke-miterlimit="10" stroke-linecap="round" stroke-linejoin="round"/>
<path d="M55.7377 141.619C55.7354 141.628 55.733 141.632 55.7307 141.641C55.5086 142.222 54.4836 142.426 53.4424 142.102C52.9658 141.954 52.5702 141.719 52.2995 141.454L52.318 141.436L52.2162 141.362C51.957 141.071 51.8506 140.749 51.9616 140.464C51.9964 140.373 52.0519 140.29 52.1259 140.218C52.3851 139.957 52.8709 139.824 53.4309 139.855C53.6923 139.868 53.9677 139.918 54.2453 140.005C54.9348 140.22 55.46 140.612 55.6683 141.023C55.6683 141.023 55.6706 141.023 55.6706 141.025C55.7747 141.225 55.8025 141.43 55.7377 141.619Z" stroke="white" stroke-width="0.6" stroke-miterlimit="10" stroke-linecap="round" stroke-linejoin="round"/>
<path d="M52.1256 140.218C52.0168 140.205 51.9058 140.194 51.797 140.185C51.3597 140.146 50.9224 140.122 50.4828 140.114C50.4134 140.112 50.344 140.109 50.2723 140.109C50.0432 140.107 49.8118 140.107 49.5828 140.112C49.5064 140.112 49.4301 140.114 49.3537 140.118C49.2612 140.118 49.1686 140.122 49.0738 140.127C48.9234 140.131 48.773 140.14 48.6226 140.149C48.5115 140.155 48.4005 140.162 48.2871 140.17C48.1691 140.179 48.0511 140.188 47.9331 140.199C47.8174 140.207 47.7017 140.218 47.586 140.229C46.8711 140.301 46.1677 140.396 45.4828 140.514C45.3394 140.538 45.1959 140.564 45.0525 140.59C44.9113 140.616 44.7702 140.642 44.6291 140.671C44.3815 140.718 44.1362 140.771 43.8956 140.823C43.81 140.84 43.7267 140.86 43.6434 140.879C43.5231 140.906 43.4028 140.934 43.2825 140.962C43.0442 141.019 42.8105 141.075 42.5814 141.134C42.3523 141.193 42.1279 141.251 41.9081 141.312C41.8942 141.317 41.8803 141.319 41.8665 141.323C41.6814 141.375 41.4986 141.425 41.3204 141.478C40.6749 141.665 40.0826 141.852 39.5597 142.03C39.4023 142.082 39.2496 142.135 39.1039 142.185C39.0159 142.215 38.9303 142.245 38.847 142.276C38.8401 142.278 38.8308 142.28 38.8239 142.282C38.5694 142.374 38.3403 142.456 38.1367 142.533" stroke="white" stroke-width="0.6" stroke-miterlimit="10" stroke-linecap="round" stroke-linejoin="round"/>
<path d="M38.847 142.276C38.5833 142.367 38.3473 142.454 38.1367 142.533" stroke="white" stroke-width="0.6" stroke-miterlimit="10" stroke-linecap="round" stroke-linejoin="round"/>
<path d="M111.924 123.21L112.137 123.497L108.569 120.919L108.329 120.745L106.908 119.721H109.349L116.908 119.601L125.09 119.473L127.688 121.361L130.251 123.223H111.945L111.924 123.21Z" stroke="white" stroke-width="0.6" stroke-miterlimit="10" stroke-linecap="round" stroke-linejoin="round"/>
</g>
<defs>
<linearGradient id="paint0_linear_1129_183" x1="73.6851" y1="112.459" x2="88.0071" y2="112.459" gradientUnits="userSpaceOnUse">
<stop stop-color="#3FFFD8"/>
<stop offset="0.4888" stop-color="#B9C3FC"/>
<stop offset="1" stop-color="#FF7EA7"/>
</linearGradient>
<linearGradient id="paint1_linear_1129_183" x1="77.3687" y1="127.387" x2="87.8378" y2="127.387" gradientUnits="userSpaceOnUse">
<stop stop-color="#3FFFD8"/>
<stop offset="0.4888" stop-color="#B9C3FC"/>
<stop offset="1" stop-color="#FF7EA7"/>
</linearGradient>
<linearGradient id="paint2_linear_1129_183" x1="10.0864" y1="130.235" x2="56.257" y2="130.235" gradientUnits="userSpaceOnUse">
<stop stop-color="#3FFFD8"/>
<stop offset="0.4888" stop-color="#B9C3FC"/>
<stop offset="1" stop-color="#FF7EA7"/>
</linearGradient>
<linearGradient id="paint3_linear_1129_183" x1="49.2861" y1="24.4813" x2="100.019" y2="24.4813" gradientUnits="userSpaceOnUse">
<stop stop-color="#3FFFD8"/>
<stop offset="0.4888" stop-color="#B9C3FC"/>
<stop offset="1" stop-color="#FF7EA7"/>
</linearGradient>
<linearGradient id="paint4_linear_1129_183" x1="108.01" y1="59.7479" x2="140.862" y2="59.7479" gradientUnits="userSpaceOnUse">
<stop stop-color="#3FFFD8"/>
<stop offset="0.4888" stop-color="#B9C3FC"/>
<stop offset="1" stop-color="#FF7EA7"/>
</linearGradient>
<linearGradient id="paint5_linear_1129_183" x1="21.2417" y1="66.4213" x2="39.4416" y2="66.4213" gradientUnits="userSpaceOnUse">
<stop stop-color="#3FFFD8"/>
<stop offset="0.4888" stop-color="#B9C3FC"/>
<stop offset="1" stop-color="#FF7EA7"/>
</linearGradient>
<linearGradient id="paint6_linear_1129_183" x1="112.171" y1="128.023" x2="122.009" y2="128.023" gradientUnits="userSpaceOnUse">
<stop stop-color="#3FFFD8"/>
<stop offset="0.4888" stop-color="#B9C3FC"/>
<stop offset="1" stop-color="#FF7EA7"/>
</linearGradient>
<linearGradient id="paint7_linear_1129_183" x1="122.068" y1="129.558" x2="125.823" y2="129.558" gradientUnits="userSpaceOnUse">
<stop stop-color="#3FFFD8"/>
<stop offset="0.4888" stop-color="#B9C3FC"/>
<stop offset="1" stop-color="#FF7EA7"/>
</linearGradient>
<linearGradient id="paint8_linear_1129_183" x1="122.885" y1="126.318" x2="126.641" y2="126.318" gradientUnits="userSpaceOnUse">
<stop stop-color="#3FFFD8"/>
<stop offset="0.4888" stop-color="#B9C3FC"/>
<stop offset="1" stop-color="#FF7EA7"/>
</linearGradient>
<clipPath id="clip0_1129_183">
<rect width="149" height="174" fill="white"/>
</clipPath>
</defs>
</svg>
