<svg width="149" height="174" viewBox="0 0 149 174" fill="none" xmlns="http://www.w3.org/2000/svg">
<g clip-path="url(#clip0_924_2886)">
<path d="M52.6305 117.878L54.0187 118.583L58.7202 141.482L58.9169 142.439" stroke="white" stroke-width="0.6" stroke-miterlimit="10" stroke-linecap="round" stroke-linejoin="round"/>
<path d="M12.8621 118.096H10.5484L10.7404 119.092L10.9602 120.223C10.6317 120.356 10.3147 120.378 10.0393 120.265C9.20177 119.919 9.08145 118.442 9.77095 116.967C10.4604 115.492 11.7006 114.578 12.5382 114.924C13.3526 115.259 13.4891 116.664 12.8621 118.096Z" stroke="white" stroke-width="0.6" stroke-miterlimit="10" stroke-linecap="round" stroke-linejoin="round"/>
<path d="M88.0076 107.991C87.9636 109.999 87.922 112.007 87.878 114.015C86.3278 116.035 78.5768 117.721 75.2219 116.529L75.0067 115.446C75.761 115.792 76.8207 115.968 78.3084 115.774C83.4888 115.1 80.8003 114.28 79.6527 114.004C79.3473 113.93 79.0534 113.817 78.7827 113.664C77.7346 113.084 74.6619 111.491 74.1876 111.313L73.6855 108.785C75.4579 109.122 77.8133 109.405 80.5782 109.283C83.6462 109.146 86.182 108.557 88.0076 107.991Z" fill="url(#paint0_linear_924_2886)"/>
<path d="M116.909 119.601C111.184 109.888 95.289 110.101 84.1252 94.2958C83.9008 93.976 83.688 93.6432 83.4867 93.2995C83.4543 93.2408 83.4219 93.1842 83.3918 93.1298C83.2576 92.9014 83.135 92.6687 83.0147 92.4316C83.0008 92.4011 82.9869 92.3772 82.9753 92.3554C82.9499 92.3032 82.936 92.2749 82.936 92.2749C80.3168 86.9629 80.06 79.8063 80.0438 79.4234C80.0438 79.4147 80.0438 79.4082 80.0438 79.4082" stroke="white" stroke-width="0.6" stroke-miterlimit="10" stroke-linecap="round" stroke-linejoin="round"/>
<path d="M123.325 154.559C119.671 158.033 115.157 159.673 111.161 159.362C110.009 159.275 108.901 159.023 107.869 158.608C105.37 157.6 103.318 155.63 102.177 152.656C99.2963 145.154 106.601 143.429 111.418 143.081L110.511 147.048C109.444 147.388 108.723 148.306 109.1 150.313C109.282 150.496 109.465 150.661 109.653 150.807C110.381 151.388 111.145 151.699 111.915 151.779C112.524 151.843 113.167 151.588 113.815 151.066C114.537 150.485 115.261 149.572 115.946 148.403C116.011 148.46 116.078 148.519 116.15 148.58C116.221 148.641 116.298 148.706 116.374 148.771C116.379 148.773 116.381 148.778 116.386 148.782C116.49 148.871 116.603 148.965 116.719 149.06C116.721 149.063 116.723 149.065 116.726 149.067C116.846 149.167 116.971 149.269 117.101 149.376C117.17 149.432 117.242 149.489 117.316 149.548C117.378 149.6 117.443 149.65 117.508 149.702C117.579 149.759 117.651 149.815 117.725 149.874C117.973 150.068 118.232 150.27 118.507 150.474C118.639 150.574 118.773 150.674 118.912 150.777C118.917 150.781 118.921 150.783 118.926 150.788C119.093 150.909 119.262 151.031 119.435 151.153C119.704 151.344 119.979 151.536 120.263 151.725C120.358 151.79 120.453 151.853 120.55 151.917C120.671 151.997 120.791 152.075 120.916 152.154C121.036 152.234 121.161 152.312 121.286 152.391C121.173 152.991 121.703 153.776 122.612 154.27C122.848 154.396 123.089 154.494 123.325 154.559Z" stroke="white" stroke-width="0.6" stroke-miterlimit="10" stroke-linecap="round" stroke-linejoin="round"/>
<path d="M110.511 147.048L109.653 150.807C109.465 150.661 109.283 150.496 109.1 150.313C108.723 148.306 109.445 147.388 110.511 147.048Z" stroke="white" stroke-width="0.6" stroke-miterlimit="10" stroke-linecap="round" stroke-linejoin="round"/>
<path d="M140.957 150.122C140.83 149.926 140.657 149.785 140.441 149.717C139.724 149.491 138.826 150.185 138.44 151.268C138.088 152.252 138.276 153.22 138.854 153.557C138.433 153.916 137.966 154.229 137.461 154.494C137.299 153.84 136.288 153.422 135.134 153.548C133.928 153.683 133.021 154.364 133.109 155.071C133.137 155.299 133.269 155.504 133.472 155.671C132.628 155.771 131.765 155.797 130.909 155.756C131.108 155.073 130.333 154.268 129.169 153.955C128 153.639 126.885 153.94 126.675 154.625C126.638 154.744 126.633 154.871 126.654 154.995C126.11 154.818 125.569 154.612 125.034 154.383C125.101 154.327 125.157 154.262 125.203 154.188C125.58 153.572 125.034 152.608 123.982 152.036C122.929 151.466 121.77 151.501 121.39 152.119C121.339 152.204 121.305 152.295 121.286 152.391C121.161 152.313 121.036 152.234 120.916 152.154C120.791 152.075 120.671 151.997 120.55 151.917C120.453 151.854 120.358 151.79 120.263 151.725C119.979 151.536 119.703 151.345 119.435 151.153C119.261 151.031 119.093 150.909 118.926 150.788C118.921 150.783 118.917 150.781 118.912 150.777C118.773 150.675 118.639 150.574 118.507 150.474C118.232 150.27 117.973 150.068 117.725 149.874C117.651 149.815 117.579 149.759 117.508 149.702C117.443 149.65 117.378 149.6 117.316 149.548C117.242 149.489 117.17 149.432 117.1 149.376C116.971 149.269 116.846 149.167 116.726 149.067C116.723 149.065 116.721 149.063 116.719 149.06C116.603 148.965 116.49 148.871 116.386 148.782C116.381 148.778 116.379 148.773 116.374 148.771C116.298 148.706 116.221 148.641 116.15 148.58C116.078 148.519 116.011 148.46 115.946 148.404C115.261 149.572 114.537 150.485 113.815 151.066L114.93 147.581L116.284 143.353C116.837 143.529 117.39 143.729 117.938 143.944C119.384 144.512 120.791 145.191 122.068 145.865C122.228 145.95 122.385 146.035 122.54 146.117C122.547 146.12 122.556 146.124 122.563 146.13C123.41 146.668 127.417 148.984 127.496 148.984C127.651 149.067 127.762 149.115 127.827 149.128C128.521 149.256 138.213 151.088 136.311 141.56C136.038 139.524 136.321 138.789 136.86 138.891C137.714 139.046 139.217 141.293 140.201 143.788C139.643 144.079 139.312 144.932 139.43 145.887C139.571 147.022 140.298 147.875 141.05 147.792C141.087 147.788 141.124 147.781 141.161 147.773C141.203 148.634 141.129 149.415 140.957 150.122Z" stroke="white" stroke-width="0.6" stroke-miterlimit="10" stroke-linecap="round" stroke-linejoin="round"/>
<path d="M122.563 146.13C124.889 147.386 126.807 148.423 127.577 148.828C130.479 143.292 131.541 135.77 129.118 126.101" stroke="white" stroke-width="0.6" stroke-miterlimit="10" stroke-linecap="round" stroke-linejoin="round"/>
<path d="M117.938 143.944C118.459 142.42 118.903 140.74 119.236 138.972C119.238 138.956 119.243 138.943 119.245 138.928C119.37 138.247 119.481 137.556 119.574 136.853C119.574 136.851 119.574 136.849 119.574 136.849C119.683 136.022 119.764 135.185 119.817 134.338" stroke="white" stroke-width="0.6" stroke-miterlimit="10" stroke-linecap="round" stroke-linejoin="round"/>
<path d="M82.6838 78.4814C95.0022 105.979 113.237 99.4685 124.081 114.3C124.69 115.13 127.202 119.997 127.552 120.971C127.598 121.102 127.644 121.23 127.688 121.36" stroke="white" stroke-width="0.6" stroke-miterlimit="10" stroke-linecap="round" stroke-linejoin="round"/>
<path d="M73.2228 89.9233C73.1997 89.9777 73.1766 90.0321 73.1534 90.0865C72.8966 90.6977 72.6189 91.2785 72.3228 91.8289C63.9147 107.526 40.7889 99.6598 29.5719 101.056C21.8 102.022 17.205 104.232 12.6562 109.322C6.62887 116.066 6.59879 126.659 10.5992 134.338C11.5618 136.187 12.7556 137.882 14.2272 139.328" stroke="white" stroke-width="0.6" stroke-miterlimit="10" stroke-linecap="round" stroke-linejoin="round"/>
<path d="M19.6113 142.859C23.9496 144.621 29.7177 144.901 37.3692 142.859" stroke="white" stroke-width="0.6" stroke-miterlimit="10" stroke-linecap="round" stroke-linejoin="round"/>
<path d="M52.464 142.859C53.1812 143.139 53.7759 143.429 54.2502 143.692C54.7153 143.951 55.8258 144.651 56.5778 145.774C58.0146 147.914 57.2766 150.403 57.1678 150.753C56.4968 152.887 54.7962 154.083 53.8731 154.732C53.4196 155.051 53.01 155.282 52.7116 155.436" stroke="white" stroke-width="0.6" stroke-miterlimit="10" stroke-linecap="round" stroke-linejoin="round"/>
<path d="M52.7091 155.438L52.7115 155.436C53.1164 155.312 53.512 155.066 53.873 154.731C57.642 151.257 58.0909 138.108 34.2502 147.751C20.2659 153.406 -6.16388 139.467 4.95825 111.835C10.1271 98.9919 28.5884 95.381 44.6273 96.7579C45.4671 96.8297 46.314 96.8254 47.1515 96.7514C62.2417 95.4201 66.1543 81.4418 65.7008 77.187" stroke="white" stroke-width="0.6" stroke-miterlimit="10" stroke-linecap="round" stroke-linejoin="round"/>
<path d="M77.3113 127.357C66.8231 127.357 58.5052 124.886 58.6602 115.315C58.8152 105.744 72.4455 101.091 73.2229 89.3315" stroke="white" stroke-width="0.6" stroke-miterlimit="10" stroke-linecap="round" stroke-linejoin="round"/>
<path d="M14.9168 71.0724C14.963 71.0942 14.9561 71.1029 14.9006 71.1007C14.4193 71.0659 10.287 70.0065 7.54058 67.096C4.95151 64.3573 3.24629 57.5988 7.75807 51.9909C11.5549 47.2749 20.3263 43.0832 30.3795 48.2212C40.435 53.3592 38.7945 63.6895 38.7945 69.5867C38.7945 70.9114 38.901 72.2688 39.1717 73.6001" stroke="white" stroke-width="0.6" stroke-miterlimit="10" stroke-linecap="round" stroke-linejoin="round"/>
<path d="M39.4421 74.7271C40.6036 78.8796 43.556 82.6254 50.0853 84.209C59.2662 86.4321 65.1547 77.4766 65.7007 77.1873" stroke="white" stroke-width="0.6" stroke-miterlimit="10" stroke-linecap="round" stroke-linejoin="round"/>
<path d="M27.0916 73.8813C21.7515 81.4469 3.86173 80.8487 0.541521 63.4574C-1.44829 53.0205 6.35594 43.6842 18.1375 41.8461C31.3998 39.7774 41.5826 46.5969 43.9403 54.2647C43.9611 54.3343 43.975 54.4061 43.9866 54.4757C49.2503 83.7723 63.4705 73.9183 63.5052 67.9037" stroke="white" stroke-width="0.6" stroke-miterlimit="10" stroke-linecap="round" stroke-linejoin="round"/>
<path d="M14.8981 71.258C14.8912 71.2058 14.8912 71.1536 14.9005 71.1014C14.9005 71.0905 14.9028 71.0818 14.9051 71.0709C14.9074 71.0709 14.9074 71.0709 14.9074 71.0709C15.0971 70.0594 17.8782 68.7912 21.173 69.9681C21.1799 69.9724 21.1892 69.9746 21.1961 69.9768C21.9712 70.2574 22.7741 70.6728 23.5793 71.258" stroke="white" stroke-width="0.6" stroke-miterlimit="10" stroke-linecap="round" stroke-linejoin="round"/>
<path d="M31.0018 52.5889C30.4835 51.9298 29.8472 51.3251 29.0698 50.7856" stroke="white" stroke-width="0.6" stroke-miterlimit="10" stroke-linecap="round" stroke-linejoin="round"/>
<path d="M8.98886 53.7661C8.49372 54.5405 8.08651 55.3649 7.76721 56.2133" stroke="white" stroke-width="0.6" stroke-miterlimit="10" stroke-linecap="round" stroke-linejoin="round"/>
<path d="M15.5807 48.6411C14.5117 48.9805 13.5307 49.4547 12.6445 50.0377" stroke="white" stroke-width="0.6" stroke-miterlimit="10" stroke-linecap="round" stroke-linejoin="round"/>
<path d="M21.1544 48.1304C21.4853 48.1652 21.8254 48.2109 22.1678 48.2696C22.7301 48.3653 23.2645 48.4719 23.7713 48.5915" stroke="white" stroke-width="0.6" stroke-miterlimit="10" stroke-linecap="round" stroke-linejoin="round"/>
<path d="M9.9027 64.7775C9.33814 63.6246 8.34786 62.922 7.69308 63.2069C7.5288 63.2765 7.40155 63.4049 7.31131 63.5724C7.31131 63.5724 7.31131 63.5724 7.31131 63.5746C7.0406 64.0749 7.1077 64.945 7.53112 65.8086C7.99618 66.7548 8.74351 67.3987 9.35897 67.44C9.49548 67.4509 9.62273 67.4313 9.74073 67.3813C10.3978 67.0963 10.4696 65.9304 9.9027 64.7775Z" stroke="white" stroke-width="0.6" stroke-miterlimit="10" stroke-linecap="round" stroke-linejoin="round"/>
<path d="M14.9167 71.0727C14.9167 71.0727 14.9144 71.0727 14.9075 71.0705C14.9075 71.0705 14.9075 71.0705 14.9052 71.0705C14.8057 71.0466 13.9889 70.816 11.3698 69.1519C10.5947 68.6581 9.92368 68.0816 9.35913 67.4399" stroke="white" stroke-width="0.6" stroke-miterlimit="10" stroke-linecap="round" stroke-linejoin="round"/>
<path d="M7.31146 63.5723C7.04076 62.5673 6.92044 61.5188 6.94127 60.4551" stroke="white" stroke-width="0.6" stroke-miterlimit="10" stroke-linecap="round" stroke-linejoin="round"/>
<path d="M89.1689 89.5164C96.2328 93.1252 104.453 92.3769 109.421 87.9307C113.838 83.9782 114.081 78.5379 114.099 77.187" stroke="white" stroke-width="0.6" stroke-miterlimit="10" stroke-linecap="round" stroke-linejoin="round"/>
<path d="M122.202 77.9922C122.19 78.164 122.179 78.3794 122.163 78.6339" stroke="white" stroke-width="0.6" stroke-miterlimit="10" stroke-linecap="round" stroke-linejoin="round"/>
<path d="M121.372 84.2026C121.124 85.2837 120.798 86.4345 120.37 87.6026" stroke="white" stroke-width="0.6" stroke-miterlimit="10" stroke-linecap="round" stroke-linejoin="round"/>
<path d="M117.695 92.7559C116.999 93.7304 116.194 94.6636 115.263 95.5228" stroke="white" stroke-width="0.6" stroke-miterlimit="10" stroke-linecap="round" stroke-linejoin="round"/>
<path d="M105.439 99.6496C107.027 99.6344 108.746 99.3429 110.523 98.6055" stroke="white" stroke-width="0.6" stroke-miterlimit="10" stroke-linecap="round" stroke-linejoin="round"/>
<path d="M96.5869 96.8999C96.5869 96.8999 97.0774 97.2653 97.9474 97.7309C97.9497 97.7309 97.9497 97.733 97.952 97.733C98.586 98.0724 99.4212 98.4639 100.414 98.8054" stroke="white" stroke-width="0.6" stroke-miterlimit="10" stroke-linecap="round" stroke-linejoin="round"/>
<path d="M83.5143 72.5409C83.5282 73.6372 83.7688 74.6944 84.2662 75.7537C86.698 80.9309 92.3805 83.0235 92.3805 83.0235C92.8294 83.1866 97.0913 84.6876 101.124 83.5804C107.554 81.8119 112.327 73.6981 111.596 63.6875" stroke="white" stroke-width="0.6" stroke-miterlimit="10" stroke-linecap="round" stroke-linejoin="round"/>
<path d="M88.7155 60.2524C85.9414 64.8118 84.0094 68.227 83.5975 71.2572" stroke="white" stroke-width="0.6" stroke-miterlimit="10" stroke-linecap="round" stroke-linejoin="round"/>
<path d="M50.6824 30.9606C49.7199 28.9071 49.1461 26.573 49.315 23.6168C49.9166 13.0211 59.3636 6.21466 60.6778 5.2967C73.0701 -3.35871 87.7531 1.53783 89.4722 2.14038C92.1862 3.09315 102.364 6.66494 105.77 15.3508C108.223 21.6004 106.187 27.9957 101.478 37.4516" stroke="white" stroke-width="0.6" stroke-miterlimit="10" stroke-linecap="round" stroke-linejoin="round"/>
<path d="M54.3358 74.1285C54.3358 74.1307 54.3358 74.1307 54.3358 74.1307C54.3682 74.1394 58.482 71.1898 59.3404 60.644" stroke="white" stroke-width="0.6" stroke-miterlimit="10" stroke-linecap="round" stroke-linejoin="round"/>
<path d="M107.869 158.608C108.901 159.023 110.009 159.276 111.161 159.363L107.258 171.557L106.673 171.416L105.615 171.159L105.03 171.018L107.869 158.608Z" stroke="white" stroke-width="0.6" stroke-miterlimit="10" stroke-linecap="round" stroke-linejoin="round"/>
<path d="M119.167 134.338L116.284 143.353L114.93 147.581L113.815 151.066C113.167 151.588 112.524 151.843 111.915 151.78C111.145 151.699 110.381 151.388 109.652 150.807L110.511 147.049L111.418 143.081L113.417 134.338H119.167V134.338Z" stroke="white" stroke-width="0.6" stroke-miterlimit="10" stroke-linecap="round" stroke-linejoin="round"/>
<path d="M77.369 127.358C77.413 127.577 77.4593 127.797 77.5032 128.017C77.5171 128.086 77.5356 128.18 77.5495 128.25C78.2667 128.674 79.847 129.481 82.015 129.553C84.8817 129.646 86.9201 128.4 87.5772 127.958C87.7993 126.773 87.9983 125.333 87.6466 125.222C87.5147 125.18 87.3505 125.339 87.3088 125.376C86.8206 125.82 84.4282 126.451 77.369 127.358Z" fill="url(#paint1_linear_924_2886)"/>
<path d="M74.1646 111.31C74.1646 111.307 74.1646 111.303 74.1646 111.3" stroke="white" stroke-width="0.6" stroke-miterlimit="10" stroke-linecap="round" stroke-linejoin="round"/>
<path d="M89.5786 106.743C89.5786 106.743 84.6711 110.698 73.6855 108.786C73.35 108.729 73.0122 108.666 72.6651 108.596C72.2857 108.518 72.0913 108.435 71.698 108.344L72.6837 105.98C72.6837 105.98 72.6952 105.982 72.7207 105.988C72.7184 106.014 72.7184 106.04 72.7207 106.064C72.76 106.432 73.4773 106.702 74.6341 106.852C76.0987 107.045 78.2713 107.048 80.673 106.817C81.3093 106.756 81.934 106.68 82.5332 106.591C82.5355 106.591 82.5355 106.591 82.5355 106.591C83.8382 106.462 85.1246 106.219 86.2884 105.808H86.2907C87.0057 105.555 87.672 105.242 88.2713 104.853C88.2782 104.851 88.2921 104.568 88.2991 104.563L89.5786 106.743Z" stroke="white" stroke-width="0.6" stroke-miterlimit="10" stroke-linecap="round" stroke-linejoin="round"/>
<path d="M119.236 138.972C119.238 138.956 119.243 138.943 119.245 138.928C119.393 138.217 119.502 137.525 119.574 136.853C119.574 136.851 119.574 136.849 119.574 136.849C119.666 135.983 119.699 135.145 119.676 134.338" stroke="white" stroke-width="0.6" stroke-miterlimit="10" stroke-linecap="round" stroke-linejoin="round"/>
<path d="M93.2274 106.07C89.1899 101.341 84.8308 95.7379 83.4865 93.2995C83.4542 93.2407 83.4218 93.1842 83.3917 93.1298C83.2806 92.9253 83.1881 92.7556 83.114 92.6208C83.0909 92.5751 83.0678 92.5359 83.0493 92.499C83.0377 92.475 83.0261 92.4511 83.0146 92.4315C83.0007 92.4011 82.9868 92.3771 82.9752 92.3554C82.9498 92.3032 82.9359 92.2749 82.9359 92.2749C83.3732 97.3085 80.6916 101.05 77.5264 104.187" stroke="white" stroke-width="0.6" stroke-miterlimit="10" stroke-linecap="round" stroke-linejoin="round"/>
<path d="M98.4888 111.721C98.0607 111.326 97.6258 110.908 97.1885 110.466" stroke="white" stroke-width="0.6" stroke-miterlimit="10" stroke-linecap="round" stroke-linejoin="round"/>
<path d="M109.349 119.721L109.051 119.725C109.035 119.638 109.014 119.551 108.984 119.459C109.107 119.546 109.229 119.634 109.349 119.721Z" stroke="white" stroke-width="0.6" stroke-miterlimit="10" stroke-linecap="round" stroke-linejoin="round"/>
<path d="M104.657 116.543C103.838 115.986 103.001 115.401 102.142 114.757" stroke="white" stroke-width="0.6" stroke-miterlimit="10" stroke-linecap="round" stroke-linejoin="round"/>
<path d="M122.068 145.865C122.089 145.841 122.256 145.937 122.54 146.117" stroke="white" stroke-width="0.6" stroke-miterlimit="10" stroke-linecap="round" stroke-linejoin="round"/>
<path d="M59.4654 146.465C59.4399 146.019 59.3775 145.602 59.2872 145.212" stroke="white" stroke-width="0.6" stroke-miterlimit="10" stroke-linecap="round" stroke-linejoin="round"/>
<path d="M59.0674 150.022C58.9425 150.459 58.7967 150.862 58.6324 151.231" stroke="white" stroke-width="0.6" stroke-miterlimit="10" stroke-linecap="round" stroke-linejoin="round"/>
<path d="M52.7092 155.438C52.7092 155.438 55.0253 155.377 56.9526 153.6" stroke="white" stroke-width="0.6" stroke-miterlimit="10" stroke-linecap="round" stroke-linejoin="round"/>
<path d="M63.3848 101.929C68.0308 99.2664 70.7656 95.4901 72.3227 91.8292C72.6814 90.9852 72.9798 90.1477 73.2228 89.332C74.5 85.0489 74.3056 81.3487 73.947 80.4155" stroke="white" stroke-width="0.6" stroke-miterlimit="10" stroke-linecap="round" stroke-linejoin="round"/>
<path d="M58.0424 104.178C56.9896 104.489 55.8698 104.752 54.6782 104.963" stroke="white" stroke-width="0.6" stroke-miterlimit="10" stroke-linecap="round" stroke-linejoin="round"/>
<path d="M45.5157 105.49C46.7143 105.545 47.8619 105.554 48.9655 105.522" stroke="white" stroke-width="0.6" stroke-miterlimit="10" stroke-linecap="round" stroke-linejoin="round"/>
<path d="M40.0369 105.44C38.8939 105.471 37.7787 105.526 36.7167 105.598" stroke="white" stroke-width="0.6" stroke-miterlimit="10" stroke-linecap="round" stroke-linejoin="round"/>
<path d="M28.7921 106.675C29.0651 106.61 29.3405 106.547 29.6227 106.484C30.0739 106.384 30.6015 106.286 31.1891 106.192" stroke="white" stroke-width="0.6" stroke-miterlimit="10" stroke-linecap="round" stroke-linejoin="round"/>
<path d="M23.0379 108.611C22.3091 108.968 21.6358 109.362 21.0088 109.806" stroke="white" stroke-width="0.6" stroke-miterlimit="10" stroke-linecap="round" stroke-linejoin="round"/>
<path d="M17.1817 114.064C16.9226 114.595 16.1822 116.433 15.9554 117.04" stroke="white" stroke-width="0.6" stroke-miterlimit="10" stroke-linecap="round" stroke-linejoin="round"/>
<path d="M16.4809 117.878H14.8219C15.0764 117.371 15.4536 117.036 15.8029 117.025C15.8538 117.023 15.9047 117.028 15.9556 117.041C16.2518 117.119 16.4369 117.443 16.4809 117.878Z" stroke="white" stroke-width="0.6" stroke-miterlimit="10" stroke-linecap="round" stroke-linejoin="round"/>
<path d="M56.256 141.256C56.1473 141.208 56.0339 141.162 55.9229 141.119C55.8396 141.084 55.754 141.053 55.6707 141.025C55.6707 141.023 55.6684 141.023 55.6684 141.023C55.4601 140.612 54.9349 140.22 54.2454 140.005C53.9678 139.918 53.6924 139.868 53.431 139.855C52.8711 139.824 52.3852 139.957 52.126 140.218C52.015 140.205 51.9062 140.194 51.7975 140.185C51.3602 140.146 50.9229 140.122 50.4833 140.114C50.4116 140.111 50.3421 140.109 50.2727 140.109C50.0437 140.107 49.8123 140.107 49.5832 140.111C49.5069 140.111 49.4305 140.114 49.3542 140.118C49.2593 140.118 49.1668 140.122 49.0742 140.127C48.9238 140.131 48.7734 140.14 48.623 140.148C48.512 140.155 48.4009 140.161 48.2875 140.17C48.1695 140.179 48.0515 140.187 47.9335 140.198C47.8179 140.207 47.7022 140.218 47.5865 140.229C46.8715 140.301 46.1682 140.396 45.4833 140.514C45.3398 140.538 45.1964 140.564 45.0529 140.59C44.9118 140.616 44.7707 140.642 44.6295 140.67C44.3796 140.718 44.1367 140.77 43.8961 140.823C43.8105 140.84 43.7272 140.86 43.6439 140.879C43.5212 140.905 43.4009 140.934 43.2829 140.962C43.0446 141.018 42.8109 141.075 42.5819 141.134C42.3528 141.192 42.1284 141.251 41.9086 141.312C41.8947 141.316 41.8808 141.319 41.8669 141.323C41.6795 141.375 41.499 141.425 41.3209 141.477C40.6754 141.665 40.083 141.852 39.5601 142.03C39.4028 142.082 39.2501 142.134 39.1043 142.184C39.0164 142.215 38.9308 142.245 38.8475 142.276C38.8406 142.278 38.8313 142.28 38.8244 142.282C38.1025 142.498 37.4986 142.709 37.0891 142.859H14.9096L14.227 139.328L10.4973 120.005L10.2775 118.874L10.0854 117.878L52.5841 117.61" fill="url(#paint2_linear_924_2886)"/>
<path d="M39.1715 73.6006C39.3821 74.2706 39.507 74.6664 39.5116 74.6838C39.5116 74.6904 39.4885 74.7056 39.4422 74.7274" stroke="white" stroke-width="0.6" stroke-miterlimit="10" stroke-linecap="round" stroke-linejoin="round"/>
<path d="M51.9366 59.6164C53.8544 59.3433 54.5807 53.9809 53.5587 47.6392C52.5367 41.2976 50.1535 36.3782 48.2356 36.6513C46.3178 36.9245 45.5916 42.2869 46.6135 48.6285C47.6355 54.9702 50.0188 59.8896 51.9366 59.6164Z" stroke="white" stroke-width="0.6" stroke-miterlimit="10" stroke-linecap="round" stroke-linejoin="round"/>
<path d="M102.373 50.63C103.905 43.8663 103.609 38.0753 101.712 37.6955C99.8144 37.3156 97.0343 42.4907 95.5023 49.2543C93.9702 56.018 94.2662 61.8089 96.1635 62.1888C98.0608 62.5687 100.841 57.3936 102.373 50.63Z" stroke="white" stroke-width="0.6" stroke-miterlimit="10" stroke-linecap="round" stroke-linejoin="round"/>
<path d="M51.9364 59.6179C51.9364 59.6179 53.5306 60.8882 59.3404 60.6467C60.1502 60.6141 60.6916 59.8702 61.0086 58.6455" stroke="white" stroke-width="0.6" stroke-miterlimit="10" stroke-linecap="round" stroke-linejoin="round"/>
<path d="M48.2368 36.6839L54.2502 33.0425C56.5246 34.4216 59.7685 39.2464 59.9004 44.7454C59.9281 45.9157 59.9189 44.8216 59.9281 44.8607" stroke="white" stroke-width="0.6" stroke-miterlimit="10" stroke-linecap="round" stroke-linejoin="round"/>
<path d="M87.531 55.9131C87.811 58.208 88.4704 60.1723 89.5393 61.4644C91.8878 64.3096 96.1636 62.1909 96.1636 62.1909" stroke="white" stroke-width="0.6" stroke-miterlimit="10" stroke-linecap="round" stroke-linejoin="round"/>
<path d="M88.697 44.5712C89.9811 40.4273 92.1676 36.7577 95.1269 35.0718C97.9913 33.4404 101.712 37.7017 101.712 37.7017" stroke="white" stroke-width="0.6" stroke-miterlimit="10" stroke-linecap="round" stroke-linejoin="round"/>
<path d="M100.018 36.1728C99.2016 10.4546 75.259 12.8496 75.259 12.8496C52.6353 12.2688 49.285 35.9836 49.285 35.9836L52.1726 34.2912C52.5543 34.0628 55.4326 18.7359 69.0119 15.5447C86.5987 11.4117 96.8578 22.0792 97.8249 34.9286L100.018 36.1728Z" fill="url(#paint3_linear_924_2886)"/>
<path d="M52.3345 33.6603C52.6977 33.4406 56.1035 18.6052 69.0119 15.5446C85.7309 11.5791 96.8554 22.0943 97.4338 34.7501" stroke="white" stroke-width="0.6" stroke-miterlimit="10" stroke-linecap="round" stroke-linejoin="round"/>
<path d="M67.3621 40.8018C68.5953 40.8453 70.0506 41.0433 74.9812 38.3786C79.6758 35.8422 80.7401 36.1728 80.7401 36.1728" stroke="white" stroke-width="0.6" stroke-miterlimit="10" stroke-linecap="round" stroke-linejoin="round"/>
<path d="M63.5053 60.1706C63.5053 60.1706 62.2443 59.8269 61.0088 58.6458C59.9144 57.5995 58.8408 55.8984 58.6719 53.2011C58.6719 53.2011 58.4937 51.1759 59.5118 48.8657C59.8288 48.6025 60.2013 48.3263 60.627 48.0609C62.1402 47.1146 64.3081 46.3207 66.9759 46.8601C70.7126 47.6171 71.6797 48.9071 72.0221 48.9941C72.1887 49.4183 72.3345 49.8794 72.4525 50.3732C74.0282 56.9469 68.9055 60.8863 63.5053 60.1706Z" stroke="white" stroke-width="0.6" stroke-miterlimit="10" stroke-linecap="round" stroke-linejoin="round"/>
<path d="M89.1576 49.0695C88.9887 48.0797 88.637 47.2227 88.1512 46.5918C87.6699 45.9675 87.0568 45.5673 86.3511 45.4781C84.3265 45.2236 82.3159 47.6381 81.8555 50.8706C81.395 54.103 82.663 56.9309 84.6852 57.1832C85.6963 57.3094 86.7028 56.7721 87.5172 55.7954C87.5218 55.8346 87.5264 55.8737 87.5311 55.9129C83.2368 62.5083 70.8675 61.5794 72.9823 48.1363C73.1095 47.3249 73.2877 46.5918 73.5052 45.9262C79.2086 40.6468 86.55 43.5617 88.6208 44.3165C88.6463 44.3992 88.6717 44.484 88.6972 44.571C89.0443 45.7892 89.2132 47.2727 89.1576 49.0695Z" stroke="white" stroke-width="0.6" stroke-miterlimit="10" stroke-linecap="round" stroke-linejoin="round"/>
<path d="M89.1574 49.0697C89.1297 50.0682 89.0302 51.1645 88.8543 52.3675C88.697 53.4377 88.3708 54.4057 87.9127 55.2671C87.9103 55.2671 87.9103 55.2671 87.9103 55.2693C87.7923 55.4911 87.6651 55.7065 87.5309 55.9131C87.5263 55.874 87.5216 55.8348 87.517 55.7957C86.7026 56.7724 85.6961 57.3097 84.685 57.1835C82.6628 56.9312 81.3949 54.1033 81.8553 50.8709C82.3157 47.6384 84.3264 45.2239 86.3509 45.4784C87.0566 45.5676 87.6697 45.9678 88.151 46.5921C88.6369 47.2229 88.9885 48.08 89.1574 49.0697Z" stroke="white" stroke-width="0.6" stroke-miterlimit="10" stroke-linecap="round" stroke-linejoin="round"/>
<path d="M92.17 62.9502C92.1584 63.1242 92.561 73.1218 83.5976 71.2575C75.1154 69.4934 76.3093 69.9089 76.3093 70.3766C76.3093 70.8442 80.363 71.6774 82.17 72.2103C82.6374 72.3495 83.0862 72.4583 83.5143 72.541C93.1741 74.4182 94.176 62.9502 94.176 62.9502H92.17Z" stroke="white" stroke-width="0.6" stroke-miterlimit="10" stroke-linecap="round" stroke-linejoin="round"/>
<path d="M67.9406 63.979C67.6537 65.6887 72.9359 73.9852 79.9604 61.7798" stroke="white" stroke-width="0.6" stroke-miterlimit="10" stroke-linecap="round" stroke-linejoin="round"/>
<path d="M66.1079 54.0491C65.5272 51.2799 63.4332 49.3352 61.4319 49.7072C59.4305 50.0792 58.2782 52.6243 58.8567 55.3934C59.4374 58.1625 61.5313 60.1072 63.5327 59.7352C65.5364 59.3632 66.6887 56.8182 66.1079 54.0491ZM62.0473 58.3213C61.0408 58.5084 59.9626 57.4055 59.6387 55.8567C59.3148 54.3101 59.8678 52.9049 60.8719 52.7178C61.8784 52.5307 62.9566 53.6336 63.2805 55.1824C63.6045 56.729 63.0515 58.1342 62.0473 58.3213Z" fill="white" stroke="white" stroke-width="0.6" stroke-miterlimit="10" stroke-linecap="round" stroke-linejoin="round"/>
<path d="M89.1575 49.0697C88.9886 48.08 88.6369 47.2229 88.151 46.5921C87.6697 45.9678 87.0566 45.5676 86.3509 45.4784C84.3264 45.2239 82.3157 47.6384 81.8553 50.8709C81.3949 54.1033 82.6628 56.9312 84.685 57.1835C85.6961 57.3097 86.7026 56.7724 87.517 55.7957C87.6535 55.6325 87.7854 55.4563 87.9104 55.2693C87.9104 55.2671 87.9104 55.2671 87.9127 55.2671C88.5304 54.3383 88.9886 53.1353 89.1806 51.791C89.3171 50.8295 89.3009 49.9029 89.1575 49.0697ZM88.7595 52.0129C88.5142 53.7292 87.4453 55.0126 86.3717 54.8777C85.2981 54.7429 84.6248 53.2419 84.8678 51.5234C85.1107 49.805 86.182 48.5237 87.2556 48.6586C88.3291 48.7935 89.0047 50.2944 88.7595 52.0129Z" fill="white" stroke="white" stroke-width="0.6" stroke-miterlimit="10" stroke-linecap="round" stroke-linejoin="round"/>
<path d="M73.5051 45.9264C73.3223 46.0961 73.1419 46.2723 72.9637 46.4572C72.6583 46.7748 72.1076 46.5094 72.2002 46.0918C72.3968 45.2108 72.8087 43.9752 73.6624 42.52C75.4047 39.5464 78.8892 38.4087 78.8892 38.4087" stroke="white" stroke-width="0.6" stroke-miterlimit="10" stroke-linecap="round" stroke-linejoin="round"/>
<path d="M59.5117 48.8634C59.4816 48.8852 59.4539 48.9091 59.4261 48.933C59.0675 49.2354 58.5215 48.8939 58.6765 48.4632C58.9518 47.6953 59.3798 46.7447 60.0231 45.7702C60.3169 45.3243 60.6547 44.874 61.0457 44.4346" stroke="white" stroke-width="0.6" stroke-miterlimit="10" stroke-linecap="round" stroke-linejoin="round"/>
<path d="M68.5837 65.8807C68.5837 65.8807 73.9447 68.4997 79.7475 62.1479" stroke="white" stroke-width="0.6" stroke-miterlimit="10" stroke-linecap="round" stroke-linejoin="round"/>
<path d="M86.8137 37.4517C87.369 37.5147 89.9141 38.7198 90.1455 40.8233" stroke="white" stroke-width="0.6" stroke-miterlimit="10" stroke-linecap="round" stroke-linejoin="round"/>
<path d="M77.9315 70.5851C78.256 69.5341 77.0528 68.2818 75.2441 67.7881C73.4353 67.2944 71.7059 67.7462 71.3814 68.7972C71.0568 69.8482 72.26 71.1004 74.0688 71.5941C75.8775 72.0878 77.6069 71.636 77.9315 70.5851Z" fill="white" stroke="white" stroke-width="0.6" stroke-miterlimit="10" stroke-linecap="round" stroke-linejoin="round"/>
<path d="M78.3083 115.774C76.8206 115.968 75.7609 115.792 75.0066 115.446C74.995 115.442 74.9858 115.435 74.9742 115.431C73.3986 114.693 73.1695 113.21 73.1371 112.855C73.1325 112.805 73.1695 112.766 73.1764 112.718C73.2204 112.331 74.1066 111.367 74.1644 111.306C74.1667 111.304 74.1667 111.304 74.1667 111.304C74.1737 111.306 74.1806 111.309 74.1876 111.313C74.6619 111.491 77.7345 113.084 78.7826 113.664C79.0533 113.817 79.3472 113.93 79.6526 114.004C80.8002 114.28 83.4888 115.1 78.3083 115.774Z" stroke="white" stroke-width="0.6" stroke-miterlimit="10" stroke-linecap="round" stroke-linejoin="round"/>
<path d="M90.9114 113.963C90.9114 115.703 89.7152 117.413 87.8064 118.742C87.7971 118.748 87.7855 118.755 87.7763 118.763C84.9234 120.741 80.4996 121.876 76.1127 121.013C76.1035 121.013 76.0965 121.01 76.0873 121.008C74.2386 120.643 72.3992 119.923 70.687 118.759C70.4186 118.576 70.1757 118.357 69.9651 118.115C66.8694 114.563 69.1785 111.757 72.6653 108.596C73.0123 108.666 73.3501 108.729 73.6856 108.785C73.8221 109.523 73.9864 110.373 74.1646 111.3C74.0651 111.23 71.5547 113.573 74.2155 115.968C74.4677 116.194 74.7985 116.377 75.1896 116.519C75.2011 116.523 75.2104 116.527 75.2219 116.529C78.5769 117.721 86.3279 116.036 87.8781 114.015C87.8966 113.993 87.9128 113.969 87.929 113.947C87.9637 112.542 87.9938 111.324 88.0215 110.291C88.0215 110.291 90.9114 110.578 90.9114 113.963Z" stroke="white" stroke-width="0.6" stroke-miterlimit="10" stroke-linecap="round" stroke-linejoin="round"/>
<path d="M88.0216 110.291C88.0262 110.123 88.0308 109.962 88.0331 109.806C90.4232 110.893 95.1363 113.066 92.3182 120.391C91.4459 122.657 89.6759 124.189 87.6467 125.222C87.6467 125.222 87.6421 125.224 87.6352 125.228C87.4061 125.341 83.644 127.153 77.3714 127.356C77.3506 127.356 77.3321 127.358 77.3113 127.358C77.3113 127.358 77.3321 127.358 77.3691 127.358" stroke="white" stroke-width="0.6" stroke-miterlimit="10" stroke-linecap="round" stroke-linejoin="round"/>
<path d="M88.2713 104.852C87.6721 105.242 87.0057 105.555 86.2908 105.807H86.2885C85.2843 106.105 83.9794 106.381 82.5356 106.59C82.5356 106.59 82.5356 106.59 82.5333 106.59C81.934 106.679 81.3093 106.756 80.673 106.816C78.2714 107.047 76.0988 107.045 74.6342 106.851C73.4773 106.701 72.7601 106.431 72.7207 106.064C72.7184 106.04 72.7184 106.014 72.7207 105.988C72.8087 105.368 74.7614 104.665 77.5264 104.187C78.3963 104.036 79.3473 103.908 80.3468 103.81C84.648 103.397 87.878 103.828 88.2991 104.563C88.3523 104.654 88.3407 104.752 88.2713 104.852Z" stroke="white" stroke-width="0.6" stroke-miterlimit="10" stroke-linecap="round" stroke-linejoin="round"/>
<path d="M142.154 145.586C142.012 144.451 141.286 143.598 140.534 143.683C140.416 143.696 140.305 143.731 140.201 143.787C139.643 144.079 139.312 144.932 139.43 145.887C139.571 147.022 140.298 147.875 141.05 147.792C141.087 147.788 141.124 147.781 141.161 147.773C141.85 147.609 142.288 146.665 142.154 145.586Z" stroke="white" stroke-width="0.6" stroke-miterlimit="10" stroke-linecap="round" stroke-linejoin="round"/>
<path d="M140.957 150.122C140.83 149.926 140.657 149.785 140.442 149.718C139.724 149.491 138.827 150.185 138.44 151.269C138.088 152.252 138.276 153.22 138.854 153.557C138.912 153.592 138.975 153.618 139.039 153.64C139.757 153.866 140.652 153.172 141.038 152.089C141.311 151.327 141.261 150.579 140.957 150.122Z" stroke="white" stroke-width="0.6" stroke-miterlimit="10" stroke-linecap="round" stroke-linejoin="round"/>
<path d="M137.48 154.585C137.475 154.555 137.471 154.525 137.461 154.494C137.299 153.839 136.288 153.422 135.134 153.548C133.928 153.683 133.021 154.364 133.109 155.071C133.137 155.299 133.269 155.503 133.472 155.671C133.896 156.017 134.641 156.199 135.455 156.108C136.661 155.975 137.568 155.292 137.48 154.585Z" stroke="white" stroke-width="0.6" stroke-miterlimit="10" stroke-linecap="round" stroke-linejoin="round"/>
<path d="M129.169 153.955C128.001 153.64 126.885 153.94 126.675 154.625C126.638 154.745 126.633 154.871 126.654 154.995C126.751 155.578 127.452 156.176 128.415 156.433C129.583 156.748 130.698 156.448 130.907 155.765C130.907 155.763 130.909 155.758 130.909 155.756C131.108 155.073 130.333 154.268 129.169 153.955Z" stroke="white" stroke-width="0.6" stroke-miterlimit="10" stroke-linecap="round" stroke-linejoin="round"/>
<path d="M123.982 152.036C122.929 151.467 121.77 151.501 121.39 152.119C121.339 152.204 121.305 152.295 121.286 152.391C121.173 152.991 121.703 153.777 122.612 154.27C122.848 154.397 123.088 154.495 123.324 154.56C124.016 154.76 124.671 154.697 125.034 154.384C125.101 154.327 125.157 154.262 125.203 154.188C125.58 153.572 125.034 152.609 123.982 152.036Z" stroke="white" stroke-width="0.6" stroke-miterlimit="10" stroke-linecap="round" stroke-linejoin="round"/>
<path d="M114.93 147.581C114.93 147.581 126.761 153.27 134.185 151.24C141.61 149.21 136.858 138.878 136.858 138.878" stroke="white" stroke-width="0.6" stroke-miterlimit="10" stroke-linecap="round" stroke-linejoin="round"/>
<path d="M101.17 95.7966C102.884 95.7966 104.273 95.0983 104.273 94.2369C104.273 93.3755 102.884 92.6772 101.17 92.6772C99.4568 92.6772 98.0676 93.3755 98.0676 94.2369C98.0676 95.0983 99.4568 95.7966 101.17 95.7966Z" stroke="white" stroke-width="0.6" stroke-miterlimit="10" stroke-linecap="round" stroke-linejoin="round"/>
<path d="M103.438 96.8999C101.726 96.8999 100.335 97.596 100.335 98.4574C100.335 98.5771 100.363 98.6945 100.414 98.8055C100.729 99.4994 101.964 100.017 103.438 100.017C104.199 100.017 104.898 99.8801 105.437 99.6495H105.439C106.113 99.3623 106.541 98.936 106.541 98.4574C106.541 97.596 105.152 96.8999 103.438 96.8999Z" stroke="white" stroke-width="0.6" stroke-miterlimit="10" stroke-linecap="round" stroke-linejoin="round"/>
<path d="M109.824 93.5385C111.439 93 112.5 91.9052 112.194 91.0934C111.887 90.2815 110.33 90.06 108.715 90.5986C107.1 91.1371 106.039 92.2319 106.345 93.0437C106.651 93.8556 108.209 94.0771 109.824 93.5385Z" stroke="white" stroke-width="0.6" stroke-miterlimit="10" stroke-linecap="round" stroke-linejoin="round"/>
<path d="M115.268 95.529C115.268 95.5269 115.266 95.5247 115.263 95.5225C114.863 94.7503 113.294 94.685 111.753 95.3746C110.206 96.0685 109.271 97.2606 109.664 98.0371C109.81 98.3243 110.115 98.5135 110.523 98.6049H110.525C111.219 98.7615 112.205 98.6266 113.179 98.1894C114.727 97.4977 115.661 96.3056 115.268 95.529Z" stroke="white" stroke-width="0.6" stroke-miterlimit="10" stroke-linecap="round" stroke-linejoin="round"/>
<path d="M116.387 87.5094C117.296 86.1442 117.404 84.6667 116.628 84.2094C115.852 83.7521 114.485 84.4881 113.575 85.8533C112.665 87.2185 112.557 88.6959 113.334 89.1532C114.11 89.6105 115.477 88.8745 116.387 87.5094Z" stroke="white" stroke-width="0.6" stroke-miterlimit="10" stroke-linecap="round" stroke-linejoin="round"/>
<path d="M63.6254 102.362C63.5907 102.201 63.5074 102.055 63.3848 101.929C62.8596 101.385 61.6101 101.163 60.252 101.427C58.5722 101.753 57.3621 102.701 57.5495 103.543C57.6051 103.795 57.7809 104.011 58.0424 104.178C58.6555 104.572 59.7476 104.709 60.923 104.481C62.6004 104.154 63.8105 103.206 63.6254 102.362Z" stroke="white" stroke-width="0.6" stroke-miterlimit="10" stroke-linecap="round" stroke-linejoin="round"/>
<path d="M51.6056 103.136C49.8911 103.162 48.5167 103.882 48.5306 104.744C48.5352 105.031 48.6949 105.296 48.9656 105.52C48.9656 105.522 48.9656 105.522 48.9679 105.52C49.514 105.977 50.5181 106.271 51.6611 106.253C53.1604 106.229 54.3983 105.677 54.6759 104.963H54.6782C54.7176 104.861 54.7384 104.755 54.7361 104.646C54.7199 103.784 53.3177 103.108 51.6056 103.136Z" stroke="white" stroke-width="0.6" stroke-miterlimit="10" stroke-linecap="round" stroke-linejoin="round"/>
<path d="M96.2445 107.25C95.2195 106.273 93.9793 105.812 93.2273 106.071C93.0955 106.114 92.9798 106.181 92.8826 106.271C92.6651 106.471 92.5726 106.764 92.5864 107.102C92.5864 107.104 92.5864 107.104 92.5888 107.104C92.6142 107.791 93.0839 108.677 93.8868 109.44C94.9395 110.443 96.2213 110.902 96.9617 110.597V110.599C97.045 110.567 97.1214 110.521 97.1885 110.467C97.2093 110.454 97.2278 110.436 97.2463 110.419C97.8988 109.812 97.4499 108.394 96.2445 107.25Z" stroke="white" stroke-width="0.6" stroke-miterlimit="10" stroke-linecap="round" stroke-linejoin="round"/>
<path d="M102.142 114.756C101.959 114.182 101.545 113.543 100.944 112.971C100.145 112.211 99.2129 111.761 98.4887 111.722C98.1185 111.702 97.8039 111.787 97.5841 111.992C97.3666 112.194 97.2717 112.485 97.2879 112.825C97.3157 113.512 97.783 114.398 98.5859 115.163C99.641 116.164 100.92 116.625 101.661 116.32H101.663C101.77 116.277 101.864 116.218 101.948 116.142C102.274 115.838 102.323 115.331 102.142 114.756Z" stroke="white" stroke-width="0.6" stroke-miterlimit="10" stroke-linecap="round" stroke-linejoin="round"/>
<path d="M108.984 119.459C108.794 118.865 108.336 118.195 107.667 117.617C106.626 116.707 105.4 116.294 104.657 116.542C104.502 116.592 104.37 116.67 104.264 116.777C104.056 116.988 103.977 117.282 104.007 117.621H104.009C104.067 118.306 104.576 119.172 105.414 119.903C105.772 120.216 106.154 120.471 106.531 120.658C106.531 120.658 106.534 120.658 106.534 120.66L106.908 119.72H109.051C109.035 119.635 109.014 119.548 108.984 119.459Z" stroke="white" stroke-width="0.6" stroke-miterlimit="10" stroke-linecap="round" stroke-linejoin="round"/>
<path d="M104.738 110.343C103.297 109.47 101.728 109.353 101.231 110.077C101.064 110.319 101.041 110.623 101.136 110.949C101.134 110.952 101.134 110.952 101.138 110.952C101.323 111.617 101.985 112.385 102.948 112.966C104.208 113.727 105.564 113.912 106.217 113.464L106.219 113.466C106.312 113.401 106.393 113.325 106.455 113.231C106.948 112.505 106.18 111.213 104.738 110.343Z" stroke="white" stroke-width="0.6" stroke-miterlimit="10" stroke-linecap="round" stroke-linejoin="round"/>
<path d="M111.589 115.148C110.307 114.076 108.778 113.732 108.169 114.374C107.966 114.589 107.892 114.885 107.931 115.222C107.929 115.224 107.929 115.224 107.933 115.224C108.008 115.907 108.535 116.762 109.389 117.478C110.509 118.415 111.818 118.796 112.536 118.448L112.538 118.45C112.64 118.4 112.732 118.335 112.809 118.252C113.415 117.608 112.871 116.218 111.589 115.148Z" stroke="white" stroke-width="0.6" stroke-miterlimit="10" stroke-linecap="round" stroke-linejoin="round"/>
<path d="M42.7903 103.179C41.0781 103.101 39.6552 103.732 39.6089 104.593C39.5927 104.896 39.7501 105.187 40.037 105.44C40.5599 105.905 41.5178 106.242 42.626 106.294C43.8986 106.355 45.0115 106.02 45.5159 105.49C45.694 105.307 45.7958 105.1 45.8074 104.88C45.8537 104.021 44.5025 103.26 42.7903 103.179Z" stroke="white" stroke-width="0.6" stroke-miterlimit="10" stroke-linecap="round" stroke-linejoin="round"/>
<path d="M37.0939 104.4C36.8047 103.582 35.2521 103.334 33.6256 103.843C32.0337 104.341 30.9602 105.383 31.1892 106.192C31.1938 106.21 31.1985 106.225 31.2054 106.242C31.4946 107.06 33.0471 107.31 34.6737 106.801C35.5622 106.523 36.2887 106.077 36.7167 105.596C37.073 105.196 37.2258 104.772 37.0939 104.4Z" stroke="white" stroke-width="0.6" stroke-miterlimit="10" stroke-linecap="round" stroke-linejoin="round"/>
<path d="M24.6841 105.525C26.2726 104.921 27.2816 103.783 26.9379 102.985C26.5941 102.186 25.0277 102.029 23.4392 102.634C21.8507 103.238 20.8417 104.375 21.1854 105.174C21.5292 105.972 23.0956 106.13 24.6841 105.525Z" stroke="white" stroke-width="0.6" stroke-miterlimit="10" stroke-linecap="round" stroke-linejoin="round"/>
<path d="M16.5047 110.289C17.8714 109.317 18.5314 107.972 17.9787 107.285C17.426 106.598 15.87 106.829 14.5033 107.801C13.1365 108.773 12.4766 110.118 13.0292 110.805C13.5819 111.492 15.1379 111.261 16.5047 110.289Z" stroke="white" stroke-width="0.6" stroke-miterlimit="10" stroke-linecap="round" stroke-linejoin="round"/>
<path d="M28.7921 106.675C28.7828 106.566 28.7527 106.462 28.7018 106.364C28.2992 105.592 26.7259 105.538 25.1849 106.247C23.843 106.864 22.9707 107.856 23.0378 108.611C23.0471 108.722 23.0748 108.829 23.1257 108.927C23.5283 109.701 25.104 109.753 26.6426 109.046C27.9869 108.428 28.8615 107.434 28.7921 106.675Z" stroke="white" stroke-width="0.6" stroke-miterlimit="10" stroke-linecap="round" stroke-linejoin="round"/>
<path d="M59.2942 151.277C59.1207 151.16 58.887 151.149 58.6325 151.231C58.2438 151.353 57.8065 151.69 57.4617 152.171C57.1054 152.665 56.9296 153.198 56.9527 153.6C56.9666 153.842 57.0545 154.04 57.2211 154.153C57.6584 154.453 58.4798 154.053 59.0513 153.259C59.6227 152.465 59.7315 151.577 59.2942 151.277Z" stroke="white" stroke-width="0.6" stroke-miterlimit="10" stroke-linecap="round" stroke-linejoin="round"/>
<path d="M60.6684 148.297C60.6152 147.31 60.0854 146.516 59.4653 146.466C59.4375 146.463 59.4097 146.463 59.382 146.463C58.7272 146.479 58.2436 147.327 58.2991 148.358C58.3408 149.1 58.6531 149.733 59.0673 150.022C59.2293 150.135 59.4051 150.196 59.5879 150.192C60.2427 150.174 60.7263 149.326 60.6684 148.297Z" stroke="white" stroke-width="0.6" stroke-miterlimit="10" stroke-linecap="round" stroke-linejoin="round"/>
<path d="M59.2871 145.212C59.2802 145.217 59.2732 145.219 59.2663 145.223C58.6786 145.497 57.7878 144.982 57.2742 144.07C57.0382 143.653 56.9248 143.226 56.9248 142.859H56.9503L56.9294 142.739C56.9572 142.358 57.1168 142.058 57.4061 141.923C57.8341 141.723 58.4287 141.945 58.9169 142.439C59.0951 142.617 59.2593 142.833 59.3959 143.076C59.9026 143.977 59.854 144.925 59.2871 145.212Z" stroke="white" stroke-width="0.6" stroke-miterlimit="10" stroke-linecap="round" stroke-linejoin="round"/>
<path d="M56.9501 142.86H56.9248C56.9248 142.818 56.9271 142.779 56.9294 142.739L56.9501 142.86Z" stroke="white" stroke-width="0.6" stroke-miterlimit="10" stroke-linecap="round" stroke-linejoin="round"/>
<path d="M21.0827 109.873C21.0596 109.849 21.0342 109.825 21.0087 109.806C20.3585 109.255 18.894 109.614 17.6607 110.643C16.3789 111.713 15.8352 113.103 16.4437 113.747C16.6196 113.937 16.8764 114.039 17.1818 114.065C17.9222 114.128 18.9564 113.732 19.8634 112.975C21.1452 111.905 21.6889 110.515 21.0827 109.873Z" stroke="white" stroke-width="0.6" stroke-miterlimit="10" stroke-linecap="round" stroke-linejoin="round"/>
<path d="M41.1637 82.6065C41.9088 82.1053 41.7047 80.6369 40.7077 79.3266C39.7107 78.0164 38.2985 77.3605 37.5533 77.8616C36.8082 78.3628 37.0123 79.8312 38.0093 81.1415C39.0062 82.4517 40.4185 83.1076 41.1637 82.6065Z" stroke="white" stroke-width="0.6" stroke-miterlimit="10" stroke-linecap="round" stroke-linejoin="round"/>
<path d="M37.3855 61.8868C37.3022 63.0223 36.8603 63.9816 36.2865 64.4275C36.1685 64.049 36.0482 63.6727 35.9325 63.2964C35.6525 62.411 35.3772 61.5366 35.1157 60.7035C34.9931 60.3184 34.8751 59.9399 34.7617 59.5745C35.0903 59.1112 35.5067 58.8414 35.9417 58.8697C36.8557 58.9284 37.5012 60.2793 37.3855 61.8868Z" stroke="white" stroke-width="0.6" stroke-miterlimit="10" stroke-linecap="round" stroke-linejoin="round"/>
<path d="M27.1702 48.272C25.738 47.5759 24.2572 47.5955 23.8615 48.3133C23.8129 48.4004 23.7829 48.4939 23.7713 48.5918C23.6787 49.3053 24.4793 50.2667 25.738 50.878C27.1702 51.5719 28.651 51.5545 29.0466 50.8345C29.0559 50.8193 29.0628 50.8019 29.0697 50.7866C29.4052 50.0644 28.57 48.9529 27.1702 48.272Z" stroke="white" stroke-width="0.6" stroke-miterlimit="10" stroke-linecap="round" stroke-linejoin="round"/>
<path d="M34.0767 53.7249C32.9823 52.6112 31.5848 52.1544 30.9508 52.7026C30.8745 52.7678 30.812 52.8461 30.7657 52.9353C30.421 53.577 30.8236 54.7364 31.7861 55.7153C32.8805 56.8269 34.278 57.2859 34.9119 56.7355C34.9258 56.7246 34.9397 56.7094 34.9513 56.6985C35.5274 56.1264 35.1456 54.8147 34.0767 53.7249Z" stroke="white" stroke-width="0.6" stroke-miterlimit="10" stroke-linecap="round" stroke-linejoin="round"/>
<path d="M12.6446 50.038C12.6007 49.9575 12.5428 49.8857 12.4711 49.8248C11.8718 49.3158 10.5646 49.7617 9.55116 50.8167C8.54006 51.8739 8.20688 53.1421 8.80845 53.6511C8.86398 53.6968 8.92183 53.7359 8.98893 53.7664C9.6414 54.0753 10.8075 53.6185 11.7261 52.6592C12.6192 51.7282 12.9847 50.6318 12.6446 50.038Z" stroke="white" stroke-width="0.6" stroke-miterlimit="10" stroke-linecap="round" stroke-linejoin="round"/>
<path d="M8.69272 58.2928C8.6395 57.3357 8.26005 56.533 7.76722 56.2132C7.60757 56.1066 7.43636 56.0523 7.26051 56.061C6.53863 56.0979 6.0111 57.1529 6.08282 58.4211C6.13141 59.3347 6.48078 60.1091 6.94122 60.455C7.11938 60.5921 7.31373 60.6617 7.51503 60.653C8.23691 60.6182 8.76213 59.561 8.69272 58.2928Z" stroke="white" stroke-width="0.6" stroke-miterlimit="10" stroke-linecap="round" stroke-linejoin="round"/>
<path d="M21.1683 47.8974C21.0919 47.1121 19.7616 46.5879 18.1998 46.7249C16.6357 46.8598 15.4325 47.6081 15.5112 48.3933C15.5205 48.4803 15.5436 48.563 15.5806 48.6413C15.8814 49.2852 17.0892 49.6876 18.4797 49.568C19.8842 49.444 21.004 48.8262 21.1544 48.1301C21.1706 48.054 21.1752 47.9757 21.1683 47.8974Z" stroke="white" stroke-width="0.6" stroke-miterlimit="10" stroke-linecap="round" stroke-linejoin="round"/>
<path d="M37.5334 85.127C38.2786 84.6258 38.0744 83.1574 37.0775 81.8471C36.0805 80.5369 34.6682 79.881 33.9231 80.3821C33.1779 80.8833 33.3821 82.3517 34.379 83.662C35.376 84.9722 36.7882 85.6281 37.5334 85.127Z" stroke="white" stroke-width="0.6" stroke-miterlimit="10" stroke-linecap="round" stroke-linejoin="round"/>
<path d="M63.8175 83.4589C63.408 82.6889 61.8323 82.6519 60.3006 83.3741C58.7713 84.0963 57.862 85.3057 58.2738 86.0758C58.6833 86.8458 60.259 86.8828 61.7907 86.1606C63.3201 85.4384 64.2294 84.2268 63.8175 83.4589Z" stroke="white" stroke-width="0.6" stroke-miterlimit="10" stroke-linecap="round" stroke-linejoin="round"/>
<path d="M49.8193 90.8846C48.3154 91.0325 46.7883 91.0108 45.2798 90.7998" stroke="white" stroke-width="0.6" stroke-miterlimit="10" stroke-linecap="round" stroke-linejoin="round"/>
<path d="M60.5851 86.5737C59.0557 87.8049 57.2695 88.8208 55.3398 89.5669" stroke="white" stroke-width="0.6" stroke-miterlimit="10" stroke-linecap="round" stroke-linejoin="round"/>
<path d="M65.8304 77.0635C65.7726 79.2431 65.0322 81.3009 63.7966 83.1325" stroke="white" stroke-width="0.6" stroke-miterlimit="10" stroke-linecap="round" stroke-linejoin="round"/>
<path d="M31.6125 77.438C31.8624 80.0461 32.6445 82.5042 34.3798 84.6425C36.0572 86.709 38.017 88.2186 40.1248 89.2432" stroke="white" stroke-width="0.6" stroke-miterlimit="10" stroke-linecap="round" stroke-linejoin="round"/>
<path d="M47.6189 86.0866C47.2742 86.8849 45.7078 87.0415 44.1206 86.4346C42.531 85.8299 41.5222 84.6922 41.867 83.8961C42.2117 83.0977 43.7781 82.9411 45.3654 83.5458C46.9526 84.1506 47.9614 85.2882 47.6189 86.0866Z" stroke="white" stroke-width="0.6" stroke-miterlimit="10" stroke-linecap="round" stroke-linejoin="round"/>
<path d="M45.2798 90.8002C45.4163 90.7045 45.5228 90.5849 45.5899 90.4435C45.9601 89.656 44.9906 88.4879 43.4242 87.8375C41.8555 87.1849 40.2868 87.2958 39.9143 88.0833C39.7546 88.4226 39.8449 88.8338 40.1248 89.2427C40.495 89.7822 41.1915 90.3195 42.0823 90.6893C43.3664 91.2222 44.6528 91.2461 45.2798 90.8002Z" stroke="white" stroke-width="0.6" stroke-miterlimit="10" stroke-linecap="round" stroke-linejoin="round"/>
<path d="M56.2446 85.8063C56.2284 86.6677 54.8286 87.3442 53.1141 87.3181C51.402 87.292 50.0253 86.572 50.0392 85.7106C50.0554 84.8513 51.4552 84.1748 53.1697 84.2009C54.8818 84.227 56.2585 84.9449 56.2446 85.8063Z" stroke="white" stroke-width="0.6" stroke-miterlimit="10" stroke-linecap="round" stroke-linejoin="round"/>
<path d="M55.3398 89.5674C55.3977 89.6827 55.4278 89.8023 55.4278 89.9263C55.437 90.7877 54.0534 91.4968 52.3412 91.5099C51.3047 91.5186 50.3861 91.2728 49.8193 90.8856C49.4467 90.6311 49.2269 90.3179 49.2223 89.9763C49.2154 89.1171 50.599 88.4058 52.3112 88.3928C53.7781 88.3819 55.0136 88.8822 55.3398 89.5674Z" stroke="white" stroke-width="0.6" stroke-miterlimit="10" stroke-linecap="round" stroke-linejoin="round"/>
<path d="M120.814 87.7333C120.682 87.655 120.532 87.6115 120.37 87.6028C119.585 87.5462 118.516 88.2445 117.762 89.3778C116.853 90.7417 116.744 92.2187 117.522 92.6756C117.577 92.7082 117.635 92.7343 117.695 92.756C118.489 93.0258 119.729 92.2992 120.573 91.0332C121.483 89.6671 121.591 88.1901 120.814 87.7333Z" stroke="white" stroke-width="0.6" stroke-miterlimit="10" stroke-linecap="round" stroke-linejoin="round"/>
<path d="M118.901 80.3399C118.496 81.9061 117.448 83.0111 116.559 82.8088C115.668 82.6043 115.273 81.1708 115.677 79.6068C115.754 79.3045 115.856 79.0217 115.976 78.7606C116.191 78.8411 116.42 78.889 116.656 78.902C116.862 78.9151 117.073 78.9042 117.286 78.8629L118.322 78.6649L119.009 78.5322C119.097 79.0586 119.067 79.6873 118.901 80.3399Z" stroke="white" stroke-width="0.6" stroke-miterlimit="10" stroke-linecap="round" stroke-linejoin="round"/>
<path d="M122.54 78.5967C122.413 78.5837 122.286 78.5967 122.163 78.6337C121.395 78.8512 120.715 79.9476 120.555 81.3267C120.405 82.6145 120.756 83.7565 121.372 84.2024C121.522 84.3112 121.686 84.3786 121.864 84.396C122.776 84.4895 123.665 83.267 123.85 81.6639C124.037 80.0629 123.449 78.6903 122.54 78.5967Z" stroke="white" stroke-width="0.6" stroke-miterlimit="10" stroke-linecap="round" stroke-linejoin="round"/>
<path d="M59.2873 142.533C59.2618 142.496 79.6505 135.92 79.6505 135.92" stroke="white" stroke-width="0.6" stroke-miterlimit="10" stroke-linecap="round" stroke-linejoin="round"/>
<path d="M79.3751 134.58L58.6324 141.054L79.3751 134.58Z" stroke="white" stroke-width="0.6" stroke-miterlimit="10" stroke-linecap="round" stroke-linejoin="round"/>
<path d="M79.7127 136.222L79.3749 134.58L57.8918 136.49" stroke="white" stroke-width="0.6" stroke-miterlimit="10" stroke-linecap="round" stroke-linejoin="round"/>
<path d="M31.9647 131.509C33.135 131.363 33.9282 130.148 33.7363 128.796C33.5445 127.445 32.4402 126.468 31.2698 126.615C30.0995 126.762 29.3063 127.977 29.4982 129.328C29.6901 130.68 30.7944 131.656 31.9647 131.509Z" fill="white" stroke="white" stroke-width="0.6" stroke-miterlimit="10" stroke-linecap="round" stroke-linejoin="round"/>
<path d="M140.814 72.0948L140.673 71.4444C137.966 72.5777 134.724 73.2282 131.698 72.5756C130.754 72.3733 126.379 71.4292 125.361 68.4273C124.993 67.3419 124.974 65.7322 125.846 65.1731C126.911 64.4901 128.227 66.0476 130.604 66.202C133.436 66.3869 137.075 64.5336 138.213 61.3686C138.276 61.1967 138.329 61.0249 138.373 60.853L134.514 43.081L134.356 42.3545C134.097 41.1603 132.857 40.3902 131.589 40.6339L109.889 44.7995C108.618 45.0431 107.799 46.2069 108.058 47.4011L114.516 77.1415C114.683 77.9093 115.254 78.501 115.976 78.7599C116.191 78.8404 116.42 78.8882 116.656 78.9013C116.862 78.9143 117.073 78.9034 117.286 78.8621L118.322 78.6642L119.009 78.5315L138.984 74.6965C140.254 74.4528 141.073 73.2891 140.814 72.0948ZM112.367 49.0478C111.983 49.0478 111.67 48.7542 111.67 48.3931C111.67 48.0298 111.983 47.7361 112.367 47.7361C112.753 47.7361 113.065 48.0298 113.065 48.3931C113.065 48.7542 112.753 49.0478 112.367 49.0478Z" fill="url(#paint4_linear_924_2886)"/>
<path d="M39.1715 73.6001C38.6115 71.823 37.4477 68.1185 36.2862 64.427C36.1682 64.0485 36.0479 63.6722 35.9322 63.2959C35.6523 62.4105 35.3769 61.5361 35.1155 60.703C34.9929 60.3179 34.8748 59.9394 34.7615 59.574C34.5047 58.7604 34.2663 58.0034 34.0558 57.3335C33.917 56.8984 33.792 56.4982 33.681 56.1436C33.3316 55.0364 33.1187 54.3599 33.1187 54.3599L32.1979 54.6535L31.9642 54.7275L31.233 54.9602L21.2423 58.1296L23.3663 63.8506C26.4505 61.6427 32.3367 61.5752 33.2714 64.116C33.4334 64.5575 33.445 65.0774 33.2668 65.68C31.4089 68.0967 28.556 69.9348 28.556 69.9348C28.4149 71.4162 27.8943 72.7409 27.0914 73.8808L28.799 78.4815C28.799 78.4815 29.942 78.0921 31.4829 77.5613C34.4352 76.5455 38.8429 75.0141 39.4422 74.7269C39.338 74.355 39.2478 73.9786 39.1715 73.6001ZM25.9994 61.1576L24.7522 61.5143C24.1461 61.6862 23.5075 61.3664 23.3224 60.7965L22.9869 59.7611C22.8041 59.1911 23.1442 58.5908 23.7504 58.4167L24.9975 58.06C25.6037 57.8882 26.2423 58.2079 26.4274 58.7778L26.7629 59.8133C26.9457 60.3832 26.6056 60.9857 25.9994 61.1576Z" fill="url(#paint5_linear_924_2886)"/>
<path d="M119.25 130.832C119.25 130.832 113.991 130.832 113.357 130.832C112.723 130.832 112.001 130.201 112.218 129.424L113.003 126.62C113.22 125.844 114.081 125.213 114.928 125.213H120.821C121.665 125.213 122.177 125.844 121.959 126.62L121.175 129.424C120.957 130.203 120.094 130.832 119.25 130.832Z" fill="url(#paint6_linear_924_2886)"/>
<path d="M124.771 130.632H122.522C122.2 130.632 122.006 130.39 122.087 130.094L122.385 129.024C122.468 128.728 122.797 128.487 123.121 128.487H125.37C125.691 128.487 125.886 128.728 125.805 129.024L125.506 130.094C125.421 130.39 125.092 130.632 124.771 130.632Z" fill="url(#paint7_linear_924_2886)"/>
<path d="M125.587 127.39H123.338C123.017 127.39 122.822 127.149 122.903 126.853L123.202 125.783C123.285 125.487 123.614 125.246 123.938 125.246H126.187C126.508 125.246 126.702 125.487 126.622 125.783L126.323 126.853C126.24 127.149 125.911 127.39 125.587 127.39Z" fill="url(#paint8_linear_924_2886)"/>
<path d="M126.203 134.341H108.086L112.138 123.499H130.252L126.203 134.341Z" stroke="white" stroke-width="0.6" stroke-miterlimit="10" stroke-linecap="round" stroke-linejoin="round"/>
<path d="M112.138 123.496L108.089 134.34L102.762 130.322L106.379 121.049V121.047L106.416 120.956L106.534 120.66L106.909 119.72L108.329 120.745L108.57 120.919C108.563 120.925 108.551 120.93 108.542 120.934L108.54 120.932C108.538 120.932 108.535 120.934 108.533 120.934L112.138 123.496Z" stroke="white" stroke-width="0.6" stroke-miterlimit="10" stroke-linecap="round" stroke-linejoin="round"/>
<path d="M106.534 120.661L106.416 120.957L106.531 120.659C106.531 120.659 106.534 120.659 106.534 120.661Z" stroke="white" stroke-width="0.6" stroke-miterlimit="10" stroke-linecap="round" stroke-linejoin="round"/>
<path d="M134.692 43.0815C155.104 44.9914 149.495 67.412 141.612 71.1078C141.365 71.223 141.11 71.3362 140.851 71.4449C138.144 72.5782 134.902 73.2286 131.876 72.5761C130.932 72.3738 126.557 71.4297 125.539 68.4278C125.171 67.3424 125.152 65.7327 126.025 65.1736C127.089 64.4906 128.405 66.0481 130.782 66.2025C138.817 65.8719 138.741 59.9269 137.855 57.6058" stroke="white" stroke-width="0.6" stroke-miterlimit="10" stroke-linecap="round" stroke-linejoin="round"/>
<path d="M27.0914 73.8812C27.0914 73.8812 28.5884 72.0127 28.556 69.9353C35.1155 65.2932 32.9729 63.8228 32.9729 63.8228" stroke="white" stroke-width="0.6" stroke-miterlimit="10" stroke-linecap="round" stroke-linejoin="round"/>
<path d="M21.2424 69.9961C20.8953 69.8439 20.2058 69.7242 20.1549 69.3936C19.9953 68.3429 20.31 66.5113 22.8875 64.2295C31.0017 59.8093 33.1003 64.236 33.2692 64.1164" stroke="white" stroke-width="0.6" stroke-miterlimit="10" stroke-linecap="round" stroke-linejoin="round"/>
<path d="M37.089 142.859C36.7188 142.994 36.506 143.081 36.506 143.081" stroke="white" stroke-width="0.6" stroke-miterlimit="10" stroke-linecap="round" stroke-linejoin="round"/>
<path d="M52.9638 143.063C53.5029 143.411 51.9365 142.439 52.5797 142.859C52.5797 142.859 49.0397 141.671 46.5709 141.46C42.869 140.873 37.0892 142.859 37.0892 142.859" stroke="white" stroke-width="0.6" stroke-miterlimit="10" stroke-linecap="round" stroke-linejoin="round"/>
<path d="M55.738 141.619C55.7357 141.628 55.7334 141.632 55.7311 141.641C55.509 142.222 54.484 142.426 53.4428 142.102C52.9662 141.954 52.5705 141.719 52.2998 141.454L52.3183 141.436L52.2165 141.362C51.9574 141.071 51.851 140.749 51.962 140.464C51.9967 140.373 52.0522 140.29 52.1263 140.218C52.3854 139.957 52.8713 139.824 53.4312 139.855C53.6927 139.868 53.968 139.918 54.2457 140.005C54.9352 140.22 55.4604 140.612 55.6686 141.023C55.6686 141.023 55.6709 141.023 55.6709 141.025C55.7751 141.225 55.8028 141.43 55.738 141.619Z" stroke="white" stroke-width="0.6" stroke-miterlimit="10" stroke-linecap="round" stroke-linejoin="round"/>
<path d="M52.1261 140.218C52.0173 140.205 51.9063 140.194 51.7975 140.185C51.3602 140.146 50.9229 140.122 50.4833 140.114C50.4139 140.112 50.3445 140.109 50.2728 140.109C50.0437 140.107 49.8123 140.107 49.5833 140.112C49.5069 140.112 49.4306 140.114 49.3542 140.118C49.2617 140.118 49.1691 140.122 49.0742 140.127C48.9239 140.131 48.7735 140.14 48.6231 140.149C48.512 140.155 48.4009 140.162 48.2876 140.17C48.1696 140.179 48.0516 140.188 47.9336 140.199C47.8179 140.207 47.7022 140.218 47.5865 140.229C46.8716 140.301 46.1682 140.396 45.4833 140.514C45.3399 140.538 45.1964 140.564 45.053 140.59C44.9118 140.616 44.7707 140.642 44.6296 140.671C44.382 140.718 44.1367 140.771 43.8961 140.823C43.8105 140.84 43.7272 140.86 43.6439 140.879C43.5236 140.906 43.4033 140.934 43.283 140.962C43.0446 141.019 42.811 141.075 42.5819 141.134C42.3528 141.193 42.1284 141.251 41.9086 141.312C41.8947 141.317 41.8808 141.319 41.867 141.323C41.6819 141.375 41.4991 141.425 41.3209 141.478C40.6754 141.665 40.0831 141.852 39.5602 142.03C39.4028 142.082 39.2501 142.135 39.1043 142.185C39.0164 142.215 38.9308 142.245 38.8475 142.276C38.8406 142.278 38.8313 142.28 38.8244 142.282C38.5699 142.374 38.3408 142.456 38.1372 142.533" stroke="white" stroke-width="0.6" stroke-miterlimit="10" stroke-linecap="round" stroke-linejoin="round"/>
<path d="M38.8475 142.276C38.5838 142.367 38.3478 142.454 38.1372 142.533" stroke="white" stroke-width="0.6" stroke-miterlimit="10" stroke-linecap="round" stroke-linejoin="round"/>
<path d="M111.925 123.21L112.138 123.497L108.57 120.919L108.329 120.745L106.909 119.721H109.35L116.909 119.601L125.09 119.473L127.688 121.361L130.252 123.223H111.946L111.925 123.21Z" stroke="white" stroke-width="0.6" stroke-miterlimit="10" stroke-linecap="round" stroke-linejoin="round"/>
</g>
<defs>
<linearGradient id="paint0_linear_924_2886" x1="73.6851" y1="112.459" x2="88.0071" y2="112.459" gradientUnits="userSpaceOnUse">
<stop stop-color="#3FFFD8"/>
<stop offset="0.4888" stop-color="#B9C3FC"/>
<stop offset="1" stop-color="#FF7EA7"/>
</linearGradient>
<linearGradient id="paint1_linear_924_2886" x1="77.3686" y1="127.387" x2="87.8376" y2="127.387" gradientUnits="userSpaceOnUse">
<stop stop-color="#3FFFD8"/>
<stop offset="0.4888" stop-color="#B9C3FC"/>
<stop offset="1" stop-color="#FF7EA7"/>
</linearGradient>
<linearGradient id="paint2_linear_924_2886" x1="10.0859" y1="130.235" x2="56.2566" y2="130.235" gradientUnits="userSpaceOnUse">
<stop stop-color="#3FFFD8"/>
<stop offset="0.4888" stop-color="#B9C3FC"/>
<stop offset="1" stop-color="#FF7EA7"/>
</linearGradient>
<linearGradient id="paint3_linear_924_2886" x1="49.286" y1="24.4816" x2="100.019" y2="24.4816" gradientUnits="userSpaceOnUse">
<stop stop-color="#3FFFD8"/>
<stop offset="0.4888" stop-color="#B9C3FC"/>
<stop offset="1" stop-color="#FF7EA7"/>
</linearGradient>
<linearGradient id="paint4_linear_924_2886" x1="108.011" y1="59.7479" x2="140.862" y2="59.7479" gradientUnits="userSpaceOnUse">
<stop stop-color="#3FFFD8"/>
<stop offset="0.4888" stop-color="#B9C3FC"/>
<stop offset="1" stop-color="#FF7EA7"/>
</linearGradient>
<linearGradient id="paint5_linear_924_2886" x1="21.2419" y1="66.4213" x2="39.4417" y2="66.4213" gradientUnits="userSpaceOnUse">
<stop stop-color="#3FFFD8"/>
<stop offset="0.4888" stop-color="#B9C3FC"/>
<stop offset="1" stop-color="#FF7EA7"/>
</linearGradient>
<linearGradient id="paint6_linear_924_2886" x1="112.17" y1="128.023" x2="122.009" y2="128.023" gradientUnits="userSpaceOnUse">
<stop stop-color="#3FFFD8"/>
<stop offset="0.4888" stop-color="#B9C3FC"/>
<stop offset="1" stop-color="#FF7EA7"/>
</linearGradient>
<linearGradient id="paint7_linear_924_2886" x1="122.068" y1="129.558" x2="125.823" y2="129.558" gradientUnits="userSpaceOnUse">
<stop stop-color="#3FFFD8"/>
<stop offset="0.4888" stop-color="#B9C3FC"/>
<stop offset="1" stop-color="#FF7EA7"/>
</linearGradient>
<linearGradient id="paint8_linear_924_2886" x1="122.886" y1="126.318" x2="126.641" y2="126.318" gradientUnits="userSpaceOnUse">
<stop stop-color="#3FFFD8"/>
<stop offset="0.4888" stop-color="#B9C3FC"/>
<stop offset="1" stop-color="#FF7EA7"/>
</linearGradient>
<clipPath id="clip0_924_2886">
<rect width="149" height="174" fill="white"/>
</clipPath>
</defs>
</svg>
