<svg width="157" height="125" viewBox="0 0 157 125" fill="none" xmlns="http://www.w3.org/2000/svg">
<path d="M79.9573 117.646C79.2897 117.911 78.6222 118.315 78.0201 119.04C78.0201 119.04 75.8298 121.858 81.1702 121.271C79.0323 123.186 81.9904 123.538 83.8273 122.813C87.4617 121.962 88.8404 120.234 89.8046 120.659C88.6528 122.695 91.6415 121.315 92.7628 121.059" stroke="white" stroke-width="0.6" stroke-miterlimit="10"/>
<path d="M94.46 116.443C94.953 112.184 95.7296 105.685 96.1834 105.008C96.8247 104.053 103.557 106.497 104.517 106.072C105.481 105.646 103.662 100.328 103.662 100.328C103.662 100.328 121.507 92.5703 123.535 89.6963" stroke="white" stroke-width="0.6" stroke-miterlimit="10"/>
<path d="M81.6501 102.642C82.0166 103.731 82.4006 104.396 82.4006 104.578C82.4006 105.029 84.2679 111.528 84.1501 114.611" stroke="white" stroke-width="0.6" stroke-miterlimit="10"/>
<path d="M80.9825 98.2395C81.0262 96.5551 81.4014 94.5798 82.4049 92.3527C87.5315 68.1107 104.718 60.5654 104.718 60.5654" stroke="white" stroke-width="0.6" stroke-miterlimit="10"/>
<path d="M48.1157 17.6422C42.2823 13.8783 33.9707 9.6889 33.2464 9.17663C23.7175 4.77451 36.7107 7.17093 52.2911 8.64698C67.8716 10.1187 76.253 13.4572 83.0594 15.7103C83.0594 15.7103 86.0873 16.787 83.98 17.8376C81.877 18.8839 77.4703 19.9301 73.7268 21.3714C69.9789 22.8084 70.2407 23.6202 71.8856 24.6535C73.5305 25.6867 77.4092 26.733 76.8813 27.4536C76.3577 28.1743 71.2922 26.8676 69.3201 28.8906C67.348 30.918 63.7965 38.8323 63.7965 38.8323" stroke="white" stroke-width="0.6" stroke-miterlimit="10"/>
<path d="M55.5417 23.66C57.8236 25.9306 55.8035 24.0117 52.6141 20.9814" stroke="white" stroke-width="0.6" stroke-miterlimit="10"/>
<path d="M54.2896 119.374C54.2896 119.374 57.6273 120.551 57.3568 121.427C56.17 122.617 40.8383 121.427 40.8383 121.427" stroke="white" stroke-width="0.6" stroke-miterlimit="10"/>
<path d="M27.5789 94.3885C45.6812 84.499 55.9038 91.2107 57.3611 98.1959C57.8977 102.524 57.3698 105.928 56.3925 108.563" stroke="white" stroke-width="0.6" stroke-miterlimit="10"/>
<path d="M72.4441 21.9062C76.0175 23.4648 77.5969 24.3157 76.4145 24.7715C75.2321 25.2274 72.7059 24.7542 71.5017 24.4025" stroke="white" stroke-width="0.6" stroke-miterlimit="10"/>
<path d="M82.7496 15.6079C84.6999 14.6962 87.4617 14.566 87.5926 16.6585C87.7235 18.751 85.9477 20.3877 81.5454 22.5453C77.143 24.703 76.2879 26.9952 77.0732 27.8461C77.863 28.697 81.6108 29.2831 86.9992 26.3397" stroke="white" stroke-width="0.6" stroke-miterlimit="10"/>
<path d="M63.0722 40.7094C63.0679 40.7051 63.0679 40.7051 63.0722 40.7094C62.4789 39.5676 64.1936 39.1943 68.5915 40.4055C72.9895 41.6211 74.1544 44.7903 74.1544 44.7903C80.11 43.2838 81.1484 47.2735 83.1205 47.8639C85.0926 48.45 88.5132 46.2272 88.5132 46.2272C89.2375 40.6834 96.8597 39.8151 96.8597 39.8151C99.2943 31.5709 107.968 33.6895 107.968 33.6895C113.23 32.73 120.067 37.1321 121.38 44.9162" stroke="white" stroke-width="0.6" stroke-miterlimit="10"/>
<path d="M69.0278 43.3355C67.0514 42.2111 63.0679 40.709 63.0679 40.709C57.4134 41.9897 66.0261 46.8172 66.0261 46.8172C67.54 49.2397 71.0915 51.775 73.849 51.775C73.849 51.775 96.3187 62.3896 118.409 46.8563" stroke="white" stroke-width="0.6" stroke-miterlimit="10"/>
<path d="M122.061 49.8164C128.165 55.2995 128.876 59.5714 126.79 66.9299C126.79 59.1633 121.703 56.489 121.149 58.3037C116.345 76.6719 96.4889 87.7944 79.1763 95.8345C61.8113 87.2864 49.1759 73.9455 44.3417 68.4581C34.6993 67.9632 22.9933 88.2372 8.00183 106.927" stroke="white" stroke-width="0.6" stroke-miterlimit="10"/>
<path d="M86.6808 19.1408C84.5778 19.0757 79.6694 21.7022 78.1903 22.9395C76.7112 24.1768 75.4896 26.1 77.4966 25.5009" stroke="white" stroke-width="0.6" stroke-miterlimit="10"/>
<path d="M61.1481 14.5645C61.1655 16.2011 65.0443 18.8797 67.937 15.6758" stroke="white" stroke-width="0.6" stroke-miterlimit="10"/>
<path d="M85.817 8.41797C85.1581 10.0547 83.7532 11.2312 81.563 10.771" stroke="white" stroke-width="0.6" stroke-miterlimit="10"/>
<path d="M82.9677 28.0312C83.6483 30.3322 84.5907 32.034 86.6806 32.62C86.6806 32.62 85.7076 35.85 86.6806 37.669C86.6806 37.669 84.6343 43.7686 89.0061 44.5066" stroke="white" stroke-width="0.6" stroke-miterlimit="10"/>
<path d="M103.352 9.64639C101.799 8.51765 100.084 8.35268 100.084 8.35268C98.7707 3.77257 94.8221 5.47437 94.8221 5.47437C93.9451 4.23275 92.8151 3.69443 91.72 3.51643C95.2104 1.96658 96.6197 1.59756 101.916 0.633789C101.991 4.00266 103.535 6.65522 103.352 9.64639Z" fill="url(#paint0_linear_924_3286)"/>
<path d="M91.72 3.51648C91.1005 2.19672 87.3439 1.0506 85.987 0C85.5812 1.15914 81.8246 3.88984 81.9381 5.34418C81.9381 5.34418 84.3945 2.29657 87.7889 4.10256C89.7086 3.13878 91.72 3.51648 91.72 3.51648Z" fill="url(#paint1_linear_924_3286)"/>
<path d="M113.003 20.2702C111.925 19.1328 110.337 18.9505 110.337 18.9505C109.879 14.7003 105.8 14.5701 105.8 14.5701C105.712 12.0521 104.578 10.5456 103.348 9.64699C108.212 8.68756 111.589 7.25492 116.341 6.66016C115.965 10.8712 114.452 18.2428 113.003 20.2702Z" fill="url(#paint2_linear_924_3286)"/>
<path d="M35.6418 38.1129C35.0834 37.1491 33.2902 35.8901 31.2439 35.0479C32.867 33.7585 37.8845 35.1868 39.1846 36.0724L35.6418 38.1129Z" fill="url(#paint3_linear_924_3286)"/>
<path d="M33.6304 40.305C33.0326 40.8086 32.4262 41.3209 31.8023 41.8288C31.0867 42.4106 30.4061 43.0314 29.756 43.6826C29.0972 42.5408 26.6713 40.5178 24.2585 39.5236C26.9375 37.6438 32.0902 39.2631 33.6304 40.305Z" fill="url(#paint4_linear_924_3286)"/>
<path d="M27.8886 45.7441C26.8502 47.0031 25.393 48.6615 23.7132 50.6932C22.8624 49.686 19.2891 47.5501 14.7209 46.9857C17.8231 43.8513 26.1914 44.9844 27.8886 45.7441Z" fill="url(#paint5_linear_924_3286)"/>
<path d="M17.2908 59.2723C16.44 58.2651 13.3335 55.1003 8.01929 55.1003C11.6406 51.497 19.8475 52.6301 21.5447 53.3898L17.2908 59.2723Z" fill="url(#paint6_linear_924_3286)"/>
<path d="M11.8718 68.4546C11.021 67.4474 6.83681 64.5605 1.52698 64.5605C5.14831 60.9571 14.062 60.9007 15.7592 61.6604L11.8718 68.4546Z" fill="url(#paint7_linear_924_3286)"/>
<path d="M8.78709 76.6678C8.18499 75.9558 4.3106 73.5507 0.545288 73.5507C3.11076 70.998 9.42846 70.9589 10.6327 71.4972L8.78709 76.6678Z" fill="url(#paint8_linear_924_3286)"/>
<path d="M44.8653 33.7794C43.5694 34.0486 42.3958 34.448 41.2963 34.9473C40.4979 33.9705 38.6261 32.2426 37.9019 31.8128C40.4717 30.9706 43.9796 33.0631 44.8653 33.7794Z" fill="url(#paint9_linear_924_3286)"/>
<path d="M8.00175 79.3642C7.65706 80.6319 7.32984 81.969 7.02879 83.3452C5.79841 83.0587 2.36468 81.9994 1.52698 82.0992C3.05405 79.8721 6.86299 79.3381 8.00175 79.3642Z" fill="url(#paint10_linear_924_3286)"/>
<path d="M5.50181 91.2107C4.27143 90.9242 0.837706 89.8649 0 89.9648C1.5227 87.7377 5.33165 87.1993 6.47477 87.2297L5.50181 91.2107Z" fill="url(#paint11_linear_924_3286)"/>
<path d="M126.79 36.7103C126.79 30.0072 119.543 28.8264 119.543 28.8264C118.361 23.5907 113.954 23.4345 113.954 23.4345C114.098 21.941 113.64 20.9382 113.003 20.2696C116.664 19.6966 121.384 19.1409 132.593 17.6865C129.814 25.6876 128.392 33.2806 126.79 36.7103Z" fill="url(#paint12_linear_924_3286)"/>
<path d="M155.87 64.5209C151.35 70.3253 147.38 77.4407 145.473 80.9051C148.296 71.6364 139.967 67.2342 139.967 67.2342C140.774 63.2055 139.989 60.3445 138.889 58.417C142.903 60.1188 149.949 62.8321 155.87 64.5209Z" fill="url(#paint13_linear_924_3286)"/>
<path d="M157 92.6139C151.825 95.7483 147.379 98.9869 142.903 102.217C148.152 92.171 145.473 80.9053 145.473 80.9053C147.379 82.9674 153.143 89.2189 157 92.6139Z" fill="url(#paint14_linear_924_3286)"/>
<path d="M78.6527 8.10554C77.6274 8.43114 76.9162 9.04327 76.445 9.88549C76.2443 8.9521 77.2522 5.61796 77.0995 4.68457C77.7801 5.14041 81.2836 5.06227 81.9381 5.34445C78.5873 5.27933 78.6527 8.10554 78.6527 8.10554Z" fill="url(#paint15_linear_924_3286)"/>
<path d="M105.8 117.507C99.7044 117.264 92.7105 116.383 84.6781 114.72C89.0062 112.875 91.4975 111.981 95.1756 110.574C97.2393 111.981 103.544 116.053 105.8 117.507Z" fill="url(#paint16_linear_924_3286)"/>
<path d="M84.6781 114.72C80.5638 113.869 76.1789 112.81 71.5017 111.529C72.3569 110.405 77.4965 109.914 78.9102 109.28C79.5472 110.578 84.6781 114.72 84.6781 114.72Z" fill="url(#paint17_linear_924_3286)"/>
<path d="M138.893 58.4168C137.55 56.0681 135.735 55.1044 135.735 55.1044C137.218 52.1262 135.381 45.7227 130.652 44.5115C132.484 38.8765 126.79 36.7101 126.79 36.7101C132.593 36.263 142.083 35.5293 149.003 35.5293C146.695 42.3235 140.259 53.9192 138.893 58.4168Z" fill="url(#paint18_linear_924_3286)"/>
<path d="M108.26 98.2012C108.26 98.2012 126.118 104.648 121.149 116.574" stroke="white" stroke-width="0.6" stroke-miterlimit="10"/>
<path d="M37.8539 90.2259C37.8539 90.2259 43.9054 69.8477 44.3461 68.4541" stroke="white" stroke-width="0.6" stroke-miterlimit="10"/>
<path d="M52.3173 91.463C52.3173 91.463 56.9115 83.4707 57.0599 80.9961" stroke="white" stroke-width="0.6" stroke-miterlimit="10"/>
<path d="M68.2729 113.204C74.7608 116.17 85.4852 120.064 102.981 123.064C124.164 126.697 134.609 124.179 140.259 110.687" stroke="white" stroke-width="0.6" stroke-miterlimit="10"/>
<path d="M71.5017 111.529C71.5017 111.529 71.3141 111.477 70.9868 111.386" stroke="white" stroke-width="2" stroke-miterlimit="10"/>
<path d="M105.8 117.508C108.832 115.285 111.947 113.592 113.849 111.312C116.323 113.218 119.953 115.48 121.149 116.574C121.149 116.574 114.085 118.176 105.8 117.508Z" fill="url(#paint19_linear_924_3286)"/>
<path d="M142.34 108.099C142.34 108.099 147.214 110.495 148.623 113.117C150.032 115.739 145.05 122.017 144.858 122.343C144.491 122.963 142.187 125.75 141.446 122.343C139.469 124.565 138.575 122.842 138.946 121.891C139.906 119.443 142.166 115.896 141.516 115.47C141.332 115.353 140.032 115.214 138.051 115.001" stroke="white" stroke-width="0.6" stroke-miterlimit="10"/>
<path d="M112.322 100.103C112.322 100.103 110.102 106.541 110.743 107.387C112.545 109.779 117.021 111.429 122.017 112.588" stroke="white" stroke-width="0.6" stroke-miterlimit="10"/>
<path d="M8.00183 106.922C17.4915 118.201 32.1862 123.463 49.0974 120.541C58.286 118.956 66.8812 114.962 74.0584 109.032C81.5541 102.837 82.6362 100.011 97.741 95.8302C71.506 94.111 57.0381 119.768 28.2202 108.016" stroke="white" stroke-width="0.6" stroke-miterlimit="10"/>
<path d="M32.8145 91.8883C32.8145 91.8883 28.9445 92.4179 30.0004 87.79" stroke="white" stroke-width="0.6" stroke-miterlimit="10"/>
<path d="M40.8862 105.091C40.8862 105.091 38.1375 104.648 37.8539 101.283" stroke="white" stroke-width="0.6" stroke-miterlimit="10"/>
<path d="M48.1158 17.6427C48.1158 17.6427 44.2501 17.3041 37.8539 19.1405C46.4186 20.2693 48.7528 20.2693 52.6141 20.9769C52.6141 20.9769 47.1995 28.7175 44.8958 33.7534" stroke="white" stroke-width="0.6" stroke-miterlimit="10" stroke-linejoin="round"/>
<path d="M142.785 102.434C139.116 108.668 134.526 111.451 134.526 111.451C136.974 111.859 139.26 111.598 141.751 109.749C143.876 104.27 142.763 103.055 142.899 102.217" fill="url(#paint20_linear_924_3286)"/>
<path d="M121.149 116.573C123.13 114.029 125.145 113.078 127.401 111.62C129.452 111.62 132.663 111.06 134.526 111.455C134.526 111.45 129.386 115.201 121.149 116.573Z" fill="url(#paint21_linear_924_3286)"/>
<path d="M71.506 111.529C158.431 135.407 145.473 80.9099 145.473 80.9099C148.296 71.6411 139.967 67.239 139.967 67.239C141.755 58.3045 135.73 55.1093 135.73 55.1093C137.213 52.1312 135.377 45.7277 130.647 44.5165C132.484 38.8814 126.79 36.7151 126.79 36.7151C126.79 30.0121 119.543 28.8356 119.543 28.8356C118.361 23.6043 113.954 23.4436 113.954 23.4436C114.347 19.4236 110.337 18.959 110.337 18.959C109.879 14.7089 105.8 14.5743 105.8 14.5743C105.603 8.88281 100.08 8.36185 100.08 8.36185C98.7663 3.78609 94.8221 5.48355 94.8221 5.48355C92.3221 1.9497 87.7889 4.11169 87.7889 4.11169C84.1065 2.40989 81.938 5.35331 81.938 5.35331C78.5872 5.28819 78.6527 8.1144 78.6527 8.1144C76.5497 8.78296 75.76 10.6497 75.6989 13.2719" stroke="white" stroke-width="0.6" stroke-miterlimit="10"/>
<path d="M42.1296 110.981C43.4254 105.815 41.8591 101.756 29.6731 107.317C29.1801 107.56 28.6958 107.794 28.2202 108.016C-3.00617 122.442 5.43197 84.0951 10.3797 72.0566C15.672 59.1802 24.2629 50.0938 27.845 45.7438C29.023 44.3155 30.3275 43.0001 31.763 41.8279C36.51 37.9511 40.2491 33.9484 47.2256 33.4448C53.8662 32.9629 61.6848 36.779 64.6429 39.6573" stroke="white" stroke-width="0.6" stroke-miterlimit="10"/>
<path d="M54.0145 8.82169C54.0145 8.82169 46.8897 5.57438 44.8652 4.6844C42.8408 3.79443 47.3652 8.14878 47.3652 8.14878" stroke="white" stroke-width="0.6" stroke-miterlimit="10"/>
<path d="M82.2043 66.9297C82.2043 66.9297 82.3701 72.2174 79.6868 76.6673C79.6868 73.3201 78.5568 67.5288 78.3691 66.9601" fill="url(#paint22_linear_924_3286)"/>
<path d="M118.413 46.8513C118.413 46.8513 125.001 41.1685 130.852 46.0872C126.651 46.9555 123.802 47.8064 122.091 49.7904" stroke="white" stroke-width="0.6" stroke-miterlimit="10"/>
<path d="M48.7571 47.7979C48.5302 51.2101 59.7039 64.5163 76.3926 66.687C94.8701 69.0878 115.272 55.0001 122.061 49.8166" stroke="white" stroke-width="0.6" stroke-miterlimit="10"/>
<defs>
<linearGradient id="paint0_linear_924_3286" x1="97.2961" y1="11.1777" x2="93.1031" y2="91.6654" gradientUnits="userSpaceOnUse">
<stop stop-color="#3FFFD8"/>
<stop offset="0.4888" stop-color="#B9C3FC"/>
<stop offset="1" stop-color="#FF7EA7"/>
</linearGradient>
<linearGradient id="paint1_linear_924_3286" x1="86.5005" y1="10.6154" x2="82.3075" y2="91.1031" gradientUnits="userSpaceOnUse">
<stop stop-color="#3FFFD8"/>
<stop offset="0.4888" stop-color="#B9C3FC"/>
<stop offset="1" stop-color="#FF7EA7"/>
</linearGradient>
<linearGradient id="paint2_linear_924_3286" x1="109.655" y1="11.8221" x2="105.462" y2="92.3099" gradientUnits="userSpaceOnUse">
<stop stop-color="#3FFFD8"/>
<stop offset="0.4888" stop-color="#B9C3FC"/>
<stop offset="1" stop-color="#FF7EA7"/>
</linearGradient>
<linearGradient id="paint3_linear_924_3286" x1="10.3663" y1="79.0061" x2="24.797" y2="53.5204" gradientUnits="userSpaceOnUse">
<stop stop-color="#3FFFD8"/>
<stop offset="0.4888" stop-color="#B9C3FC"/>
<stop offset="1" stop-color="#FF7EA7"/>
</linearGradient>
<linearGradient id="paint4_linear_924_3286" x1="7.51303" y1="77.3906" x2="21.9438" y2="51.9048" gradientUnits="userSpaceOnUse">
<stop stop-color="#3FFFD8"/>
<stop offset="0.4888" stop-color="#B9C3FC"/>
<stop offset="1" stop-color="#FF7EA7"/>
</linearGradient>
<linearGradient id="paint5_linear_924_3286" x1="4.5279" y1="75.6997" x2="18.9588" y2="50.2139" gradientUnits="userSpaceOnUse">
<stop stop-color="#3FFFD8"/>
<stop offset="0.4888" stop-color="#B9C3FC"/>
<stop offset="1" stop-color="#FF7EA7"/>
</linearGradient>
<linearGradient id="paint6_linear_924_3286" x1="3.00736" y1="74.8393" x2="17.4381" y2="49.3535" gradientUnits="userSpaceOnUse">
<stop stop-color="#3FFFD8"/>
<stop offset="0.4888" stop-color="#B9C3FC"/>
<stop offset="1" stop-color="#FF7EA7"/>
</linearGradient>
<linearGradient id="paint7_linear_924_3286" x1="2.19919" y1="74.3821" x2="16.63" y2="48.8964" gradientUnits="userSpaceOnUse">
<stop stop-color="#3FFFD8"/>
<stop offset="0.4888" stop-color="#B9C3FC"/>
<stop offset="1" stop-color="#FF7EA7"/>
</linearGradient>
<linearGradient id="paint8_linear_924_3286" x1="4.3764" y1="75.6143" x2="18.8072" y2="50.1285" gradientUnits="userSpaceOnUse">
<stop stop-color="#3FFFD8"/>
<stop offset="0.4888" stop-color="#B9C3FC"/>
<stop offset="1" stop-color="#FF7EA7"/>
</linearGradient>
<linearGradient id="paint9_linear_924_3286" x1="13.8319" y1="80.968" x2="28.2627" y2="55.4822" gradientUnits="userSpaceOnUse">
<stop stop-color="#3FFFD8"/>
<stop offset="0.4888" stop-color="#B9C3FC"/>
<stop offset="1" stop-color="#FF7EA7"/>
</linearGradient>
<linearGradient id="paint10_linear_924_3286" x1="7.37495" y1="77.3126" x2="21.8059" y2="51.8267" gradientUnits="userSpaceOnUse">
<stop stop-color="#3FFFD8"/>
<stop offset="0.4888" stop-color="#B9C3FC"/>
<stop offset="1" stop-color="#FF7EA7"/>
</linearGradient>
<linearGradient id="paint11_linear_924_3286" x1="9.61708" y1="78.5811" x2="24.048" y2="53.0952" gradientUnits="userSpaceOnUse">
<stop stop-color="#3FFFD8"/>
<stop offset="0.4888" stop-color="#B9C3FC"/>
<stop offset="1" stop-color="#FF7EA7"/>
</linearGradient>
<linearGradient id="paint12_linear_924_3286" x1="123.124" y1="12.7683" x2="118.974" y2="92.434" gradientUnits="userSpaceOnUse">
<stop stop-color="#3FFFD8"/>
<stop offset="0.4888" stop-color="#B9C3FC"/>
<stop offset="1" stop-color="#FF7EA7"/>
</linearGradient>
<linearGradient id="paint13_linear_924_3286" x1="149.857" y1="14.4162" x2="145.696" y2="94.305" gradientUnits="userSpaceOnUse">
<stop stop-color="#3FFFD8"/>
<stop offset="0.4888" stop-color="#B9C3FC"/>
<stop offset="1" stop-color="#FF7EA7"/>
</linearGradient>
<linearGradient id="paint14_linear_924_3286" x1="154.332" y1="14.1492" x2="150.139" y2="94.637" gradientUnits="userSpaceOnUse">
<stop stop-color="#3FFFD8"/>
<stop offset="0.4888" stop-color="#B9C3FC"/>
<stop offset="1" stop-color="#FF7EA7"/>
</linearGradient>
<linearGradient id="paint15_linear_924_3286" x1="79.0314" y1="10.2226" x2="74.9196" y2="89.1508" gradientUnits="userSpaceOnUse">
<stop stop-color="#3FFFD8"/>
<stop offset="0.4888" stop-color="#B9C3FC"/>
<stop offset="1" stop-color="#FF7EA7"/>
</linearGradient>
<linearGradient id="paint16_linear_924_3286" x1="100.751" y1="11.3583" x2="96.5584" y2="91.8459" gradientUnits="userSpaceOnUse">
<stop stop-color="#3FFFD8"/>
<stop offset="0.4888" stop-color="#B9C3FC"/>
<stop offset="1" stop-color="#FF7EA7"/>
</linearGradient>
<linearGradient id="paint17_linear_924_3286" x1="83.4755" y1="10.8119" x2="79.2967" y2="91.0262" gradientUnits="userSpaceOnUse">
<stop stop-color="#3FFFD8"/>
<stop offset="0.4888" stop-color="#B9C3FC"/>
<stop offset="1" stop-color="#FF7EA7"/>
</linearGradient>
<linearGradient id="paint18_linear_924_3286" x1="138.991" y1="15.2988" x2="134.979" y2="92.3059" gradientUnits="userSpaceOnUse">
<stop stop-color="#3FFFD8"/>
<stop offset="0.4888" stop-color="#B9C3FC"/>
<stop offset="1" stop-color="#FF7EA7"/>
</linearGradient>
<linearGradient id="paint19_linear_924_3286" x1="118.984" y1="12.3079" x2="114.791" y2="92.7959" gradientUnits="userSpaceOnUse">
<stop stop-color="#3FFFD8"/>
<stop offset="0.4888" stop-color="#B9C3FC"/>
<stop offset="1" stop-color="#FF7EA7"/>
</linearGradient>
<linearGradient id="paint20_linear_924_3286" x1="143.764" y1="13.5988" x2="139.571" y2="94.0864" gradientUnits="userSpaceOnUse">
<stop stop-color="#3FFFD8"/>
<stop offset="0.4888" stop-color="#B9C3FC"/>
<stop offset="1" stop-color="#FF7EA7"/>
</linearGradient>
<linearGradient id="paint21_linear_924_3286" x1="133.151" y1="13.0453" x2="128.957" y2="93.5329" gradientUnits="userSpaceOnUse">
<stop stop-color="#3FFFD8"/>
<stop offset="0.4888" stop-color="#B9C3FC"/>
<stop offset="1" stop-color="#FF7EA7"/>
</linearGradient>
<linearGradient id="paint22_linear_924_3286" x1="86.651" y1="84.7158" x2="53.8936" y2="9.79851" gradientUnits="userSpaceOnUse">
<stop stop-color="#3FFFD8"/>
<stop offset="0.4888" stop-color="#B9C3FC"/>
<stop offset="1" stop-color="#FF7EA7"/>
</linearGradient>
</defs>
</svg>
