<svg width="204" height="9" fill="none" xmlns="http://www.w3.org/2000/svg">
  <path d="M6.2998 1.488c.154 0 .275-.066.352-.198.044-.066.066-.132.066-.209 0-.143-.077-.275-.231-.374C5.9257.366 5.2437.19 4.4627.19c-1.177 0-2.101.374-2.794 1.122-.693.759-1.045 1.705-1.045 2.838 0 1.199.363 2.156 1.089 2.871.715.726 1.661 1.089 2.816 1.089.836 0 1.551-.209 2.156-.638.143-.099.209-.231.209-.374 0-.088-.022-.165-.077-.22-.077-.099-.187-.154-.33-.154-.099 0-.198.022-.275.077-.473.286-1.001.429-1.595.429-.891 0-1.617-.286-2.167-.858-.561-.561-.836-1.309-.836-2.222s.264-1.65.803-2.222c.539-.572 1.221-.858 2.057-.858.605 0 1.133.121 1.562.352.088.044.176.066.264.066Zm13.3373 6.16c0-.11-.044-.22-.121-.319l-2.046-2.585c.462-.121.858-.374 1.188-.759.319-.385.484-.858.484-1.419 0-1.529-.913-2.288-2.739-2.288-.297 0-.825.011-1.606.022-.253 0-.462.209-.462.462v6.853c0 .253.209.462.473.462.253 0 .462-.209.462-.462V4.92h1.254l2.211 2.893c.143.176.297.264.473.264.253 0 .429-.198.429-.429Zm-4.367-6.468c.484-.011.847-.022 1.078-.022 1.199 0 1.804.473 1.804 1.419 0 .44-.176.792-.517 1.056-.352.275-.759.407-1.232.407h-1.133V1.18Zm12.8915 3.366h2.651c.231 0 .429-.209.429-.44s-.198-.44-.429-.44h-2.651V1.18h2.981c.231 0 .429-.209.429-.44s-.198-.44-.429-.44h-3.454c-.253 0-.462.209-.462.462v6.776c0 .253.209.462.462.462h3.564c.231 0 .429-.209.429-.44s-.198-.44-.429-.44h-3.091V4.546Zm16.6231 3.223c.088.209.231.308.44.308.275 0 .451-.22.451-.473 0-.055-.011-.121-.033-.187L42.7057.619c-.099-.253-.275-.374-.528-.374s-.429.121-.539.374l-2.948 6.831c-.033.088-.044.154-.044.198 0 .231.165.429.44.429.198 0 .341-.099.418-.308l.88-2.101h3.509l.891 2.101Zm-4.026-2.981 1.386-3.289 1.386 3.289h-2.772ZM57.1623 1.18c.231 0 .429-.209.429-.44s-.198-.44-.429-.44h-5.467c-.231 0-.429.209-.429.44s.198.44.429.44h2.266v6.435c0 .253.209.462.473.462.253 0 .462-.209.462-.462V1.18h2.266Zm8.621 3.366h2.651c.231 0 .429-.209.429-.44s-.198-.44-.429-.44h-2.651V1.18h2.981c.231 0 .429-.209.429-.44s-.198-.44-.429-.44h-3.454c-.253 0-.462.209-.462.462v6.776c0 .253.209.462.462.462h3.564c.231 0 .429-.209.429-.44s-.198-.44-.429-.44h-3.091V4.546Zm11.3871 2.992c0 .253.209.462.462.462.792.011 1.309.022 1.551.022 1.408 0 2.497-.374 3.267-1.122.759-.748 1.144-1.694 1.144-2.849 0-2.024-1.243-3.784-4.323-3.784-.011 0-.561.011-1.639.033-.264 0-.462.209-.462.462v6.776Zm.935-6.358c.297 0 .77-.033 1.144-.033 1.078 0 1.903.264 2.486.803.583.539.869 1.232.869 2.101 0 .924-.297 1.672-.891 2.233-.594.572-1.43.858-2.497.858-.066 0-.44-.011-1.111-.022V1.18ZM101.875.267c-.154 0-.704.011-1.65.033-.253 0-.462.22-.462.473v6.765c0 .253.209.462.462.473.627.011 1.166.022 1.606.022 1.683 0 2.794-.737 2.794-2.233 0-1.023-.616-1.661-1.595-1.837.792-.275 1.32-.869 1.32-1.793 0-1.155-.748-1.903-2.475-1.903Zm.066 4.224c1.111 0 1.749.451 1.749 1.254 0 .924-.649 1.408-1.804 1.408-.451 0-.847-.011-1.188-.044V4.491h1.243Zm-1.243-3.311c.55-.022.935-.033 1.155-.033 1.045 0 1.562.407 1.562 1.232 0 .803-.638 1.287-1.485 1.287h-1.232V1.18ZM111.7.696c0 .099.022.187.077.264l2.332 3.74v2.915c0 .253.209.462.473.462.253 0 .462-.209.462-.462V4.7l2.387-3.806c.055-.088.077-.176.077-.253 0-.22-.154-.396-.418-.396-.187 0-.341.11-.484.341l-1.991 3.234-1.98-3.234c-.132-.231-.286-.341-.462-.341-.275 0-.473.198-.473.451Zm25.318 4.092c.231 0 .429-.209.429-.44s-.198-.44-.429-.44h-2.651V1.18h2.981c.231 0 .429-.209.429-.44s-.198-.44-.429-.44h-3.454c-.253 0-.462.209-.462.462v6.853c0 .253.209.462.473.462.253 0 .462-.209.462-.462V4.788h2.651Zm13.166 2.981c.088.209.231.308.44.308.275 0 .451-.22.451-.473 0-.055-.011-.121-.033-.187L148.105.619c-.099-.253-.275-.374-.528-.374s-.429.121-.539.374L144.09 7.45c-.033.088-.044.154-.044.198 0 .231.165.429.44.429.198 0 .341-.099.418-.308l.88-2.101h3.509l.891 2.101Zm-4.026-2.981 1.386-3.289 1.386 3.289h-2.772ZM160.585.267c-.154 0-.704.011-1.65.033-.253 0-.462.22-.462.473v6.765c0 .253.209.462.462.473.627.011 1.166.022 1.606.022 1.683 0 2.794-.737 2.794-2.233 0-1.023-.616-1.661-1.595-1.837.792-.275 1.32-.869 1.32-1.793 0-1.155-.748-1.903-2.475-1.903Zm.066 4.224c1.111 0 1.749.451 1.749 1.254 0 .924-.649 1.408-1.804 1.408-.451 0-.847-.011-1.188-.044V4.491h1.243Zm-1.243-3.311c.55-.022.935-.033 1.155-.033 1.045 0 1.562.407 1.562 1.232 0 .803-.638 1.287-1.485 1.287h-1.232V1.18Zm12.674-.484c0-.253-.209-.451-.462-.451-.264 0-.473.198-.473.451v4.015c0 1.089.297 1.925.88 2.508s1.353.88 2.31.88c.858 0 1.573-.275 2.134-.825.561-.55.847-1.375.847-2.486V.696c0-.253-.209-.451-.462-.451-.264 0-.473.198-.473.451v3.905c0 1.716-.759 2.618-2.046 2.618-1.441 0-2.255-1.001-2.255-2.684V.696Zm14.366 0c0-.253-.209-.451-.462-.451-.264 0-.473.198-.473.451v6.842c0 .253.209.462.462.462h3.839c.231 0 .429-.209.429-.44s-.198-.44-.429-.44h-3.366V.696Zm16.344 7.073c.088.209.231.308.44.308.275 0 .451-.22.451-.473 0-.055-.011-.121-.033-.187L200.713.619c-.099-.253-.275-.374-.528-.374s-.429.121-.539.374l-2.948 6.831c-.033.088-.044.154-.044.198 0 .231.165.429.44.429.198 0 .341-.099.418-.308l.88-2.101h3.509l.891 2.101Zm-4.026-2.981 1.386-3.289 1.386 3.289h-2.772Z" fill="#fff"/>
</svg>
