<svg width="150" height="123" viewBox="0 0 150 123" fill="none" xmlns="http://www.w3.org/2000/svg">
<path d="M72.3123 22.5797C72.2189 22.131 71.7874 21.8852 71.3558 22.0372L64.0524 24.5871C63.6209 24.7366 63.2121 25.2334 63.1414 25.6871L56.6456 68.2767C56.5775 68.7304 56.1484 69.1436 55.6942 69.1968L47.2501 70.1651C46.7959 70.2183 46.3669 70.6314 46.2937 71.0851L39.7373 112.524C39.6666 112.978 39.9796 113.348 40.4389 113.348H59.0203C59.4771 113.348 60.2241 113.348 60.6809 113.348H75.2044C75.6611 113.348 76.0624 112.973 76.0952 112.516L79.8352 59.6032C79.868 59.1444 79.8175 58.4043 79.7216 57.9531L72.3123 22.5797Z" fill="url(#paint0_linear)"/>
<path d="M68.8628 75.8616L66.5234 90.5752C66.4982 90.7425 59.3336 90.5144 59.3336 90.5144C59.3361 90.3876 59.3487 90.2558 59.3689 90.124L61.7815 74.7413C61.8017 74.607 61.8345 74.4726 61.8724 74.3459C61.938 74.1203 62.0314 73.9074 62.1474 73.7072C62.7153 73.2078 64.0982 73.0025 65.6452 73.2459C67.1922 73.4917 68.4464 74.1127 68.8351 74.7641C68.883 74.9897 68.9057 75.2229 68.9007 75.4561C68.8956 75.5904 68.8855 75.7273 68.8628 75.8616Z" fill="#202020"/>
<path d="M68.9563 75.2783C68.9462 75.3416 68.926 75.3999 68.9008 75.4557C68.5702 76.1477 66.9904 76.4746 65.1835 76.1882C63.3791 75.9018 61.976 75.1034 61.8725 74.343C61.8649 74.2796 61.8649 74.2188 61.8725 74.1554C61.8977 73.9881 61.9936 73.836 62.145 73.7042C62.7129 73.2049 64.0958 72.9996 65.6428 73.2429C67.1898 73.4888 68.444 74.1098 68.8326 74.7612C68.9361 74.9361 68.9815 75.111 68.9563 75.2783Z" fill="#202020"/>
<path d="M61.2719 77.9932C61.2618 78.0565 61.2618 78.1174 61.2719 78.1807C61.3753 78.9411 62.7785 79.7395 64.5829 80.0259C66.3898 80.3123 67.9696 79.9828 68.3002 79.2934C68.328 79.2351 68.3456 79.1768 68.3557 79.116" fill="#202020"/>
<path d="M85.3572 75.9114L82.927 90.5744C82.8866 90.8329 75.8255 90.5414 75.8608 90.3209L78.2759 74.7911C78.2961 74.6568 78.3289 74.5224 78.3668 74.3957C78.4324 74.1701 78.5258 73.9572 78.6368 73.7595L78.6393 73.757C79.2071 73.2576 80.5901 73.0523 82.1371 73.2957C83.6841 73.5415 84.9383 74.1625 85.3269 74.8139L85.3295 74.8164C85.3774 75.0395 85.3976 75.2702 85.3926 75.5059C85.39 75.6402 85.3799 75.7771 85.3572 75.9114Z" fill="#202020"/>
<path d="M77.7663 78.04C77.7562 78.1034 77.7562 78.1642 77.7663 78.2276C77.8697 78.988 79.2729 79.7864 81.0773 80.0728C82.8842 80.3593 84.464 80.0323 84.7946 79.3403C84.8223 79.282 84.84 79.2237 84.8501 79.1629" fill="#202020"/>
<path d="M85.4507 75.3286C85.4406 75.392 85.4204 75.4503 85.3952 75.5061C85.0646 76.198 83.4848 76.525 81.6779 76.2386C79.8735 75.9522 78.4703 75.1537 78.3669 74.3933C78.3593 74.33 78.3593 74.2692 78.3669 74.2058C78.3921 74.0385 78.488 73.889 78.6369 73.7546L78.6394 73.7521C79.2072 73.2528 80.5902 73.0475 82.1372 73.2908C83.6841 73.5366 84.9384 74.1576 85.327 74.809L85.3295 74.8116C85.4305 74.989 85.4759 75.1613 85.4507 75.3286Z" fill="#202020"/>
<path d="M149.508 94.4331C149.255 96.0274 149.508 102.22 143.201 102.422C141.763 102.422 139.89 110.837 139.89 114.442C73.211 117.427 2.29453 113.813 2.29453 113.813L0.999908 95.343L45.7085 96.5546V90.8719L128.789 90.2129V94.7854L132.322 94.869L132.405 97.0514L135.603 97.1375L135.799 94.8209L149.508 94.4331Z" fill="#202020"/>
<path d="M68.9104 75.7434L66.571 90.4571C66.5458 90.6244 59.3812 90.3962 59.3812 90.3962C59.3837 90.2695 59.3963 90.1377 59.4165 90.0059L61.8291 74.6231C61.8493 74.4888 61.8821 74.3545 61.92 74.2277C61.9856 74.0021 62.079 73.7892 62.1951 73.589C62.7629 73.0897 64.1458 72.8844 65.6928 73.1277C67.2398 73.3736 68.494 73.9945 68.8827 74.6459C68.9306 74.8715 68.9533 75.1047 68.9483 75.3379C68.9432 75.4722 68.9331 75.6091 68.9104 75.7434Z" stroke="white" stroke-width="0.6" stroke-miterlimit="10" stroke-linecap="round" stroke-linejoin="round"/>
<path d="M69.0039 75.1601C68.9938 75.2235 68.9736 75.2818 68.9484 75.3375C68.6178 76.0295 67.038 76.3565 65.2311 76.07C63.4267 75.7836 62.0235 74.9852 61.9201 74.2248C61.9125 74.1614 61.9125 74.1006 61.9201 74.0372C61.9453 73.87 62.0412 73.7179 62.1926 73.5861C62.7604 73.0867 64.1434 72.8814 65.6904 73.1248C67.2374 73.3706 68.4916 73.9916 68.8803 74.643C68.9837 74.8179 69.0291 74.9928 69.0039 75.1601Z" stroke="white" stroke-width="0.6" stroke-miterlimit="10" stroke-linecap="round" stroke-linejoin="round"/>
<path d="M61.3195 77.874C61.3094 77.9374 61.3094 77.9982 61.3195 78.0616C61.423 78.822 62.8261 79.6204 64.6305 79.9068C66.4374 80.1932 68.0172 79.8637 68.3478 79.1743C68.3756 79.116 68.3932 79.0577 68.4033 78.9969" stroke="white" stroke-width="0.6" stroke-miterlimit="10" stroke-linecap="round" stroke-linejoin="round"/>
<path d="M69.0039 75.1602L72.3755 90.4567" stroke="white" stroke-width="0.6" stroke-miterlimit="10" stroke-linecap="round" stroke-linejoin="round"/>
<path d="M61.9199 74.04L52.1863 90.7104" stroke="white" stroke-width="0.6" stroke-miterlimit="10" stroke-linecap="round" stroke-linejoin="round"/>
<path d="M85.4048 75.7933L82.9746 90.4562C82.9342 90.7147 75.8731 90.4232 75.9084 90.2027L78.3235 74.6729C78.3437 74.5386 78.3765 74.4043 78.4144 74.2775C78.48 74.052 78.5734 73.839 78.6844 73.6413L78.6869 73.6388C79.2547 73.1395 80.6377 72.9342 82.1847 73.1775C83.7317 73.4234 84.9859 74.0444 85.3745 74.6958L85.3771 74.6983C85.425 74.9213 85.4452 75.152 85.4402 75.3877C85.4376 75.522 85.4275 75.6589 85.4048 75.7933Z" stroke="white" stroke-width="0.6" stroke-miterlimit="10" stroke-linecap="round" stroke-linejoin="round"/>
<path d="M77.8136 77.9219C77.8035 77.9852 77.8035 78.0461 77.8136 78.1094C77.9171 78.8698 79.3202 79.6683 81.1246 79.9547C82.9316 80.2411 84.5113 79.9141 84.8419 79.2222C84.8697 79.1639 84.8874 79.1056 84.8975 79.0447" stroke="white" stroke-width="0.6" stroke-miterlimit="10" stroke-linecap="round" stroke-linejoin="round"/>
<path d="M85.4983 75.2105C85.4882 75.2738 85.468 75.3321 85.4428 75.3879C85.1122 76.0799 83.5324 76.4068 81.7254 76.1204C79.921 75.834 78.5179 75.0356 78.4144 74.2752C78.4069 74.2118 78.4069 74.151 78.4144 74.0876C78.4397 73.9203 78.5356 73.7708 78.6845 73.6365L78.687 73.6339C79.2548 73.1346 80.6378 72.9293 82.1847 73.1726C83.7317 73.4185 84.986 74.0395 85.3746 74.6909L85.3771 74.6934C85.4781 74.8708 85.5235 75.0432 85.4983 75.2105Z" stroke="white" stroke-width="0.6" stroke-miterlimit="10" stroke-linecap="round" stroke-linejoin="round"/>
<path d="M78.4146 74.0898L69.2689 90.3775" stroke="white" stroke-width="0.6" stroke-miterlimit="10" stroke-linecap="round" stroke-linejoin="round"/>
<path d="M85.4982 75.21L87.5752 90.4559" stroke="white" stroke-width="0.6" stroke-miterlimit="10" stroke-linecap="round" stroke-linejoin="round"/>
<path d="M113.225 73.7031L113.222 73.7057C113.109 73.9034 113.018 74.1163 112.952 74.3419C112.915 74.4686 112.884 74.6029 112.862 74.7373L110.449 90.12C112.248 90.2011 116.539 90.2011 117.53 90.2011L119.943 75.855C119.963 75.7207 119.976 75.5838 119.978 75.4495C119.983 75.2138 119.963 74.9831 119.915 74.7601L119.913 74.7575" stroke="white" stroke-width="0.6" stroke-miterlimit="10" stroke-linecap="round" stroke-linejoin="round"/>
<path d="M112.352 77.9883C112.342 78.0516 112.342 78.1125 112.352 78.1758C112.455 78.9362 113.859 79.7346 115.663 80.0211C117.47 80.3075 119.05 79.9805 119.38 79.2886C119.408 79.2303 119.426 79.172 119.436 79.1111" stroke="white" stroke-width="0.6" stroke-miterlimit="10" stroke-linecap="round" stroke-linejoin="round"/>
<path d="M120.036 75.2769C120.026 75.3402 120.006 75.3985 119.981 75.4543C119.65 76.1462 118.07 76.4732 116.264 76.1868C114.459 75.9004 113.056 75.102 112.953 74.3416C112.945 74.2782 112.945 74.2174 112.953 74.154C112.978 73.9867 113.074 73.8372 113.223 73.7029L113.225 73.7003C113.793 73.201 115.176 72.9957 116.723 73.239C118.27 73.4849 119.524 74.1059 119.913 74.7573L119.915 74.7598C120.019 74.9372 120.062 75.1071 120.036 75.2769Z" stroke="white" stroke-width="0.6" stroke-miterlimit="10" stroke-linecap="round" stroke-linejoin="round"/>
<path d="M112.953 74.1562L101.649 90.2031" stroke="white" stroke-width="0.6" stroke-miterlimit="10" stroke-linecap="round" stroke-linejoin="round"/>
<path d="M120.037 75.2764L122.848 90.2029" stroke="white" stroke-width="0.6" stroke-miterlimit="10" stroke-linecap="round" stroke-linejoin="round"/>
<path d="M94.4267 73.7383L94.4241 73.7408C94.3283 73.9487 94.2551 74.1692 94.2096 74.3998C94.1819 74.5291 94.1642 74.666 94.1541 74.8028L93.0866 90.3377C93.3213 90.4593 100.115 90.5202 100.135 90.2059L101.306 75.2996C101.316 75.1628 101.314 75.0259 101.306 74.8941C101.291 74.6584 101.251 74.4302 101.182 74.2123L101.18 74.2097" stroke="white" stroke-width="0.6" stroke-miterlimit="10" stroke-linecap="round" stroke-linejoin="round"/>
<path d="M101.346 74.7095C101.341 74.7728 101.329 74.8337 101.306 74.892C101.036 75.6093 99.4916 76.0756 97.667 75.9489C95.845 75.8222 94.3788 75.148 94.2097 74.4003C94.1971 74.3394 94.1895 74.2761 94.1945 74.2127C94.2072 74.0429 94.2879 73.8857 94.4242 73.7413L94.4267 73.7387C94.9491 73.1912 96.3068 72.8668 97.8715 72.9733C99.4361 73.0822 100.738 73.5917 101.182 74.2076L101.185 74.2102C101.299 74.3724 101.359 74.5397 101.346 74.7095Z" stroke="white" stroke-width="0.6" stroke-miterlimit="10" stroke-linecap="round" stroke-linejoin="round"/>
<path d="M93.9296 78.083C93.9245 78.1464 93.9321 78.2072 93.9447 78.2706C94.1138 79.0183 95.58 79.6925 97.4021 79.8192C99.2267 79.946 100.771 79.4821 101.041 78.7623C101.064 78.704 101.076 78.6432 101.082 78.5798" stroke="white" stroke-width="0.6" stroke-miterlimit="10" stroke-linecap="round" stroke-linejoin="round"/>
<path d="M149.555 94.3139C149.303 95.9082 149.555 102.1 143.249 102.303C141.81 102.303 139.938 110.718 139.938 114.322C73.2586 117.308 2.34214 113.694 2.34214 113.694L1.04752 95.2239L45.7561 96.4354V90.7528L128.836 90.0938V94.6662L132.37 94.7499L132.453 96.9322L135.65 97.0184L135.847 94.7017L149.555 94.3139Z" stroke="white" stroke-width="0.6" stroke-miterlimit="10" stroke-linecap="round" stroke-linejoin="round"/>
<path d="M127.517 60.9561V89.7648" stroke="white" stroke-width="0.6" stroke-miterlimit="10" stroke-linecap="round" stroke-linejoin="round"/>
<path d="M38.3694 60.9561L11.8511 95.5261" stroke="white" stroke-width="0.6" stroke-miterlimit="10" stroke-linecap="round" stroke-linejoin="round"/>
<path d="M38.3695 60.9561L57.655 90.6596" stroke="white" stroke-width="0.6" stroke-miterlimit="10" stroke-linecap="round" stroke-linejoin="round"/>
<path d="M45.7561 96.4355L135.595 97.0261" stroke="white" stroke-width="0.6" stroke-miterlimit="10" stroke-linecap="round" stroke-linejoin="round"/>
<path d="M1.7896 97.3936C27.3287 98.9118 126.593 100.169 148.952 97.8954" stroke="white" stroke-width="0.6" stroke-miterlimit="10" stroke-linecap="round" stroke-linejoin="round"/>
<path d="M126.593 94.9785L47.1824 94.9785L47.1824 92.5529L126.593 92.5529L126.593 94.9785Z" stroke="white" stroke-width="0.6" stroke-miterlimit="10" stroke-linecap="round" stroke-linejoin="round"/>
<path d="M47.9011 90.659L38.2836 71.0713L19.9065 95.7435" stroke="white" stroke-width="0.6" stroke-miterlimit="10" stroke-linecap="round" stroke-linejoin="round"/>
<path d="M49.5391 92.5527V94.9784" stroke="white" stroke-width="0.6" stroke-miterlimit="10" stroke-linecap="round" stroke-linejoin="round"/>
<path d="M51.8506 92.5527V94.9784" stroke="white" stroke-width="0.6" stroke-miterlimit="10" stroke-linecap="round" stroke-linejoin="round"/>
<path d="M54.2078 92.5527V94.9784" stroke="white" stroke-width="0.6" stroke-miterlimit="10" stroke-linecap="round" stroke-linejoin="round"/>
<path d="M56.5195 92.5527V94.9784" stroke="white" stroke-width="0.6" stroke-miterlimit="10" stroke-linecap="round" stroke-linejoin="round"/>
<path d="M58.9167 92.5527V94.9784" stroke="white" stroke-width="0.6" stroke-miterlimit="10" stroke-linecap="round" stroke-linejoin="round"/>
<path d="M61.231 92.5527V94.9784" stroke="white" stroke-width="0.6" stroke-miterlimit="10" stroke-linecap="round" stroke-linejoin="round"/>
<path d="M63.5857 92.5527V94.9784" stroke="white" stroke-width="0.6" stroke-miterlimit="10" stroke-linecap="round" stroke-linejoin="round"/>
<path d="M65.8999 92.5527V94.9784" stroke="white" stroke-width="0.6" stroke-miterlimit="10" stroke-linecap="round" stroke-linejoin="round"/>
<path d="M68.2695 92.5527V94.9784" stroke="white" stroke-width="0.6" stroke-miterlimit="10" stroke-linecap="round" stroke-linejoin="round"/>
<path d="M70.5835 92.5527V94.9784" stroke="white" stroke-width="0.6" stroke-miterlimit="10" stroke-linecap="round" stroke-linejoin="round"/>
<path d="M72.9382 92.5527V94.9784" stroke="white" stroke-width="0.6" stroke-miterlimit="10" stroke-linecap="round" stroke-linejoin="round"/>
<path d="M75.2522 92.5527V94.9784" stroke="white" stroke-width="0.6" stroke-miterlimit="10" stroke-linecap="round" stroke-linejoin="round"/>
<path d="M77.5286 92.5527V94.9784" stroke="white" stroke-width="0.6" stroke-miterlimit="10" stroke-linecap="round" stroke-linejoin="round"/>
<path d="M79.8403 92.5527V94.9784" stroke="white" stroke-width="0.6" stroke-miterlimit="10" stroke-linecap="round" stroke-linejoin="round"/>
<path d="M82.1973 92.5527V94.9784" stroke="white" stroke-width="0.6" stroke-miterlimit="10" stroke-linecap="round" stroke-linejoin="round"/>
<path d="M84.5088 92.5527V94.9784" stroke="white" stroke-width="0.6" stroke-miterlimit="10" stroke-linecap="round" stroke-linejoin="round"/>
<path d="M86.8887 92.5527V94.9784" stroke="white" stroke-width="0.6" stroke-miterlimit="10" stroke-linecap="round" stroke-linejoin="round"/>
<path d="M89.1877 92.5527V94.9784" stroke="white" stroke-width="0.6" stroke-miterlimit="10" stroke-linecap="round" stroke-linejoin="round"/>
<path d="M112.753 92.5527V94.9784" stroke="white" stroke-width="0.6" stroke-miterlimit="10" stroke-linecap="round" stroke-linejoin="round"/>
<path d="M115.068 92.5527V94.9784" stroke="white" stroke-width="0.6" stroke-miterlimit="10" stroke-linecap="round" stroke-linejoin="round"/>
<path d="M117.422 92.5527V94.9784" stroke="white" stroke-width="0.6" stroke-miterlimit="10" stroke-linecap="round" stroke-linejoin="round"/>
<path d="M119.736 92.5527V94.9784" stroke="white" stroke-width="0.6" stroke-miterlimit="10" stroke-linecap="round" stroke-linejoin="round"/>
<path d="M122.114 92.5527V94.9784" stroke="white" stroke-width="0.6" stroke-miterlimit="10" stroke-linecap="round" stroke-linejoin="round"/>
<path d="M124.413 92.5527V94.9784" stroke="white" stroke-width="0.6" stroke-miterlimit="10" stroke-linecap="round" stroke-linejoin="round"/>
<path d="M6.01899 112.297C6.01899 112.297 14.1072 107.991 17.9078 108.148C21.6932 108.305 22.2661 111.78 24.5525 112.097C25.3525 112.097 31.1139 110.213 35.4874 109.874C38.763 109.618 38.4653 111.894 39.6085 112.097C40.7517 112.299 44.2393 111.022 46.4223 110.804C48.908 110.556 47.7875 112.708 49.5364 112.748C51.2853 112.786 52.1055 112.208 55.0884 111.296C59.376 110.411 57.3243 113.07 58.2 113.002C59.0757 112.933 63.2624 111.818 66.6113 111.481C71.4339 110.997 69.2358 113.138 71.1538 113.002C73.0718 112.865 77.2862 111.836 79.0603 111.592C81.7909 111.217 81.6698 113.696 82.4243 113.846" stroke="white" stroke-width="0.6" stroke-miterlimit="10" stroke-linecap="round" stroke-linejoin="round"/>
<path d="M119.29 113.798C119.29 113.798 125.059 110.99 127.178 110.975C132.17 110.632 131.385 113.623 133.629 113.565C135.872 113.509 138.621 110.959 141.311 110.975C144.001 110.99 142.436 113.058 146.499 113.565" stroke="white" stroke-width="0.6" stroke-miterlimit="10" stroke-linecap="round" stroke-linejoin="round"/>
<path d="M139.63 94.355L127.516 63.3486L118.318 90.1779" stroke="white" stroke-width="0.6" stroke-miterlimit="10" stroke-linecap="round" stroke-linejoin="round"/>
<path d="M135.847 94.7016L127.517 72.1914L122.114 90.0936" stroke="white" stroke-width="0.6" stroke-miterlimit="10" stroke-linecap="round" stroke-linejoin="round"/>
<path d="M38.3694 56.9844V96.2359" stroke="white" stroke-width="0.6" stroke-miterlimit="10" stroke-linecap="round" stroke-linejoin="round"/>
<path d="M12.5654 104.298C12.1709 104.298 11.8512 103.276 11.8512 102.017C11.8512 100.757 12.1709 99.7354 12.5654 99.7354C12.9598 99.7354 13.2795 100.757 13.2795 102.017C13.2795 103.276 12.9598 104.298 12.5654 104.298Z" stroke="white" stroke-width="0.6" stroke-miterlimit="10" stroke-linecap="round" stroke-linejoin="round"/>
<path d="M84.027 119.311C88.7184 120.051 95.0149 116.061 105.899 116.254C110.777 116.34 118.495 118.378 131.262 119.265" stroke="white" stroke-width="0.6" stroke-miterlimit="10" stroke-linecap="round" stroke-linejoin="round"/>
<path d="M22.2335 107.657C21.9701 107.657 21.7565 107.443 21.7565 107.178C21.7565 106.914 21.9701 106.699 22.2335 106.699C22.4969 106.699 22.7104 106.914 22.7104 107.178C22.7104 107.443 22.4969 107.657 22.2335 107.657Z" fill="white" stroke="white" stroke-width="0.6" stroke-miterlimit="10" stroke-linecap="round" stroke-linejoin="round"/>
<path d="M28.0401 107.657C27.7767 107.657 27.5632 107.443 27.5632 107.178C27.5632 106.914 27.7767 106.699 28.0401 106.699C28.3036 106.699 28.5171 106.914 28.5171 107.178C28.5171 107.443 28.3036 107.657 28.0401 107.657Z" fill="white" stroke="white" stroke-width="0.6" stroke-miterlimit="10" stroke-linecap="round" stroke-linejoin="round"/>
<path d="M33.8473 107.657C33.5838 107.657 33.3703 107.443 33.3703 107.178C33.3703 106.914 33.5838 106.699 33.8473 106.699C34.1107 106.699 34.3242 106.914 34.3242 107.178C34.3242 107.443 34.1107 107.657 33.8473 107.657Z" fill="white" stroke="white" stroke-width="0.6" stroke-miterlimit="10" stroke-linecap="round" stroke-linejoin="round"/>
<path d="M39.6514 107.657C39.388 107.657 39.1745 107.443 39.1745 107.178C39.1745 106.914 39.388 106.699 39.6514 106.699C39.9149 106.699 40.1284 106.914 40.1284 107.178C40.1284 107.443 39.9149 107.657 39.6514 107.657Z" fill="white" stroke="white" stroke-width="0.6" stroke-miterlimit="10" stroke-linecap="round" stroke-linejoin="round"/>
<path d="M45.4583 107.657C45.1949 107.657 44.9814 107.443 44.9814 107.178C44.9814 106.914 45.1949 106.699 45.4583 106.699C45.7218 106.699 45.9353 106.914 45.9353 107.178C45.9353 107.443 45.7218 107.657 45.4583 107.657Z" fill="white" stroke="white" stroke-width="0.6" stroke-miterlimit="10" stroke-linecap="round" stroke-linejoin="round"/>
<path d="M51.2652 107.657C51.0018 107.657 50.7883 107.443 50.7883 107.178C50.7883 106.914 51.0018 106.699 51.2652 106.699C51.5286 106.699 51.7422 106.914 51.7422 107.178C51.7422 107.443 51.5286 107.657 51.2652 107.657Z" fill="white" stroke="white" stroke-width="0.6" stroke-miterlimit="10" stroke-linecap="round" stroke-linejoin="round"/>
<path d="M57.0721 107.657C56.8087 107.657 56.5952 107.443 56.5952 107.178C56.5952 106.914 56.8087 106.699 57.0721 106.699C57.3355 106.699 57.5491 106.914 57.5491 107.178C57.5491 107.443 57.3355 107.657 57.0721 107.657Z" fill="white" stroke="white" stroke-width="0.6" stroke-miterlimit="10" stroke-linecap="round" stroke-linejoin="round"/>
<path d="M62.8765 107.657C62.6131 107.657 62.3996 107.443 62.3996 107.178C62.3996 106.914 62.6131 106.699 62.8765 106.699C63.14 106.699 63.3535 106.914 63.3535 107.178C63.3535 107.443 63.14 107.657 62.8765 107.657Z" fill="white" stroke="white" stroke-width="0.6" stroke-miterlimit="10" stroke-linecap="round" stroke-linejoin="round"/>
<path d="M68.6834 107.657C68.42 107.657 68.2064 107.443 68.2064 107.178C68.2064 106.914 68.42 106.699 68.6834 106.699C68.9468 106.699 69.1604 106.914 69.1604 107.178C69.1604 107.443 68.9468 107.657 68.6834 107.657Z" fill="white" stroke="white" stroke-width="0.6" stroke-miterlimit="10" stroke-linecap="round" stroke-linejoin="round"/>
<path d="M74.4903 107.657C74.2269 107.657 74.0134 107.443 74.0134 107.178C74.0134 106.914 74.2269 106.699 74.4903 106.699C74.7537 106.699 74.9673 106.914 74.9673 107.178C74.9673 107.443 74.7537 107.657 74.4903 107.657Z" fill="white" stroke="white" stroke-width="0.6" stroke-miterlimit="10" stroke-linecap="round" stroke-linejoin="round"/>
<path d="M80.297 107.657C80.0335 107.657 79.82 107.443 79.82 107.178C79.82 106.914 80.0335 106.699 80.297 106.699C80.5604 106.699 80.7739 106.914 80.7739 107.178C80.7739 107.443 80.5604 107.657 80.297 107.657Z" fill="white" stroke="white" stroke-width="0.6" stroke-miterlimit="10" stroke-linecap="round" stroke-linejoin="round"/>
<path d="M86.1014 107.657C85.838 107.657 85.6244 107.443 85.6244 107.178C85.6244 106.914 85.838 106.699 86.1014 106.699C86.3648 106.699 86.5784 106.914 86.5784 107.178C86.5784 107.443 86.3648 107.657 86.1014 107.657Z" fill="white" stroke="white" stroke-width="0.6" stroke-miterlimit="10" stroke-linecap="round" stroke-linejoin="round"/>
<path d="M22.2335 103.276C21.9701 103.276 21.7565 103.062 21.7565 102.797C21.7565 102.533 21.9701 102.318 22.2335 102.318C22.4969 102.318 22.7104 102.533 22.7104 102.797C22.7104 103.062 22.4969 103.276 22.2335 103.276Z" fill="white" stroke="white" stroke-width="0.6" stroke-miterlimit="10" stroke-linecap="round" stroke-linejoin="round"/>
<path d="M28.0401 103.276C27.7767 103.276 27.5632 103.062 27.5632 102.797C27.5632 102.533 27.7767 102.318 28.0401 102.318C28.3036 102.318 28.5171 102.533 28.5171 102.797C28.5171 103.062 28.3036 103.276 28.0401 103.276Z" fill="white" stroke="white" stroke-width="0.6" stroke-miterlimit="10" stroke-linecap="round" stroke-linejoin="round"/>
<path d="M33.8473 103.276C33.5838 103.276 33.3703 103.062 33.3703 102.797C33.3703 102.533 33.5838 102.318 33.8473 102.318C34.1107 102.318 34.3242 102.533 34.3242 102.797C34.3242 103.062 34.1107 103.276 33.8473 103.276Z" fill="white" stroke="white" stroke-width="0.6" stroke-miterlimit="10" stroke-linecap="round" stroke-linejoin="round"/>
<path d="M39.6514 103.276C39.388 103.276 39.1745 103.062 39.1745 102.797C39.1745 102.533 39.388 102.318 39.6514 102.318C39.9149 102.318 40.1284 102.533 40.1284 102.797C40.1284 103.062 39.9149 103.276 39.6514 103.276Z" fill="white" stroke="white" stroke-width="0.6" stroke-miterlimit="10" stroke-linecap="round" stroke-linejoin="round"/>
<path d="M45.4583 103.276C45.1949 103.276 44.9814 103.062 44.9814 102.797C44.9814 102.533 45.1949 102.318 45.4583 102.318C45.7218 102.318 45.9353 102.533 45.9353 102.797C45.9353 103.062 45.7218 103.276 45.4583 103.276Z" fill="white" stroke="white" stroke-width="0.6" stroke-miterlimit="10" stroke-linecap="round" stroke-linejoin="round"/>
<path d="M51.2652 103.276C51.0018 103.276 50.7883 103.062 50.7883 102.797C50.7883 102.533 51.0018 102.318 51.2652 102.318C51.5286 102.318 51.7422 102.533 51.7422 102.797C51.7422 103.062 51.5286 103.276 51.2652 103.276Z" fill="white" stroke="white" stroke-width="0.6" stroke-miterlimit="10" stroke-linecap="round" stroke-linejoin="round"/>
<path d="M57.0721 103.276C56.8087 103.276 56.5952 103.062 56.5952 102.797C56.5952 102.533 56.8087 102.318 57.0721 102.318C57.3355 102.318 57.5491 102.533 57.5491 102.797C57.5491 103.062 57.3355 103.276 57.0721 103.276Z" fill="white" stroke="white" stroke-width="0.6" stroke-miterlimit="10" stroke-linecap="round" stroke-linejoin="round"/>
<path d="M62.8765 103.276C62.6131 103.276 62.3996 103.062 62.3996 102.797C62.3996 102.533 62.6131 102.318 62.8765 102.318C63.14 102.318 63.3535 102.533 63.3535 102.797C63.3535 103.062 63.14 103.276 62.8765 103.276Z" fill="white" stroke="white" stroke-width="0.6" stroke-miterlimit="10" stroke-linecap="round" stroke-linejoin="round"/>
<path d="M68.6834 103.276C68.42 103.276 68.2064 103.062 68.2064 102.797C68.2064 102.533 68.42 102.318 68.6834 102.318C68.9468 102.318 69.1604 102.533 69.1604 102.797C69.1604 103.062 68.9468 103.276 68.6834 103.276Z" fill="white" stroke="white" stroke-width="0.6" stroke-miterlimit="10" stroke-linecap="round" stroke-linejoin="round"/>
<path d="M74.4903 103.276C74.2269 103.276 74.0134 103.062 74.0134 102.797C74.0134 102.533 74.2269 102.318 74.4903 102.318C74.7537 102.318 74.9673 102.533 74.9673 102.797C74.9673 103.062 74.7537 103.276 74.4903 103.276Z" fill="white" stroke="white" stroke-width="0.6" stroke-miterlimit="10" stroke-linecap="round" stroke-linejoin="round"/>
<path d="M80.297 103.276C80.0335 103.276 79.82 103.062 79.82 102.797C79.82 102.533 80.0335 102.318 80.297 102.318C80.5604 102.318 80.7739 102.533 80.7739 102.797C80.7739 103.062 80.5604 103.276 80.297 103.276Z" fill="white" stroke="white" stroke-width="0.6" stroke-miterlimit="10" stroke-linecap="round" stroke-linejoin="round"/>
<path d="M86.1014 103.276C85.838 103.276 85.6244 103.062 85.6244 102.797C85.6244 102.533 85.838 102.318 86.1014 102.318C86.3648 102.318 86.5784 102.533 86.5784 102.797C86.5784 103.062 86.3648 103.276 86.1014 103.276Z" fill="white" stroke="white" stroke-width="0.6" stroke-miterlimit="10" stroke-linecap="round" stroke-linejoin="round"/>
<path d="M119.131 121.195C119.587 121.182 119.928 120.797 119.888 120.34L114.977 63.9599C114.936 63.5037 114.699 62.8142 114.447 62.4315L108.228 52.957C107.976 52.5743 107.736 51.8874 107.693 51.4286L106.038 33.828C105.995 33.3718 105.589 32.9587 105.134 32.9105L94.929 31.8257C94.4747 31.7775 94.0432 31.3669 93.97 30.9132L89.6192 3.73422C89.5461 3.28052 89.1473 2.75331 88.7334 2.56068L83.4237 0.104611C83.0099 -0.0880216 82.379 -0.00691296 82.0257 0.284571L73.2359 7.50831C72.8826 7.79979 72.5747 8.41064 72.5494 8.86941L70.4321 50.5212C70.4094 50.98 70.7627 51.3551 71.2195 51.3551H81.8414C82.2982 51.3551 82.8256 51.6973 83.0124 52.1155L88.9177 65.3159C89.1044 65.7341 89.2558 66.4514 89.2508 66.9127L88.7486 121.192C88.7435 121.651 89.1145 122.016 89.5713 122.003L119.131 121.195Z" fill="url(#paint1_linear)"/>
<defs>
<linearGradient id="paint0_linear" x1="68.7775" y1="126.339" x2="44.1721" y2="14.1206" gradientUnits="userSpaceOnUse">
<stop stop-color="#3FFFD8"/>
<stop offset="0.4888" stop-color="#B9C3FC"/>
<stop offset="1" stop-color="#FF7EA7"/>
</linearGradient>
<linearGradient id="paint1_linear" x1="105.786" y1="117.442" x2="81.3793" y2="6.12886" gradientUnits="userSpaceOnUse">
<stop stop-color="#3FFFD8"/>
<stop offset="0.4888" stop-color="#B9C3FC"/>
<stop offset="1" stop-color="#FF7EA7"/>
</linearGradient>
</defs>
</svg>
