<svg width="1011" height="824" viewBox="0 0 1011 824" fill="none" xmlns="http://www.w3.org/2000/svg">
<g clip-path="url(#clip0)">
<path d="M485.21 130.503C484.576 127.473 481.648 125.812 478.72 126.839L429.165 144.061C426.236 145.071 423.463 148.427 422.983 151.491L378.907 439.146C378.445 442.21 375.534 445 372.452 445.36L315.157 451.899C312.075 452.259 309.164 455.049 308.667 458.114L264.181 737.996C263.701 741.06 265.824 743.56 268.941 743.56H395.021C398.12 743.56 403.188 743.56 406.288 743.56H504.833C507.932 743.56 510.655 741.026 510.877 737.945L536.254 380.564C536.477 377.465 536.135 372.466 535.484 369.419L485.21 130.503Z" fill="url(#paint0_linear)"/>
<path d="M461.805 490.375L445.931 589.752C445.76 590.882 397.147 589.341 397.147 589.341C397.164 588.485 397.25 587.595 397.387 586.705L413.757 482.808C413.894 481.901 414.116 480.994 414.373 480.138C414.818 478.614 415.452 477.176 416.24 475.824C420.092 472.451 429.476 471.065 439.973 472.708C450.469 474.369 458.98 478.563 461.617 482.962C461.942 484.486 462.096 486.061 462.062 487.636C462.027 488.543 461.959 489.468 461.805 490.375Z" fill="#202020"/>
<path d="M462.438 486.438C462.37 486.866 462.233 487.259 462.061 487.636C459.818 492.31 449.099 494.518 436.839 492.584C424.595 490.649 415.075 485.257 414.373 480.121C414.321 479.693 414.321 479.282 414.373 478.854C414.544 477.724 415.195 476.697 416.222 475.807C420.075 472.434 429.458 471.048 439.955 472.691C450.452 474.352 458.962 478.546 461.599 482.945C462.301 484.127 462.609 485.308 462.438 486.438Z" fill="#202020"/>
<path d="M410.298 504.772C410.229 505.2 410.229 505.611 410.298 506.039C411 511.175 420.521 516.568 432.764 518.502C445.024 520.436 455.743 518.211 457.987 513.555C458.175 513.161 458.295 512.767 458.363 512.356" fill="#202020"/>
<path d="M573.722 490.718L557.232 589.753C556.958 591.499 509.047 589.53 509.287 588.041L525.674 483.151C525.811 482.244 526.033 481.337 526.29 480.481C526.735 478.957 527.369 477.519 528.122 476.184L528.139 476.167C531.992 472.794 541.376 471.407 551.872 473.051C562.369 474.711 570.879 478.906 573.516 483.305L573.534 483.322C573.859 484.829 573.996 486.387 573.962 487.979C573.945 488.886 573.876 489.811 573.722 490.718Z" fill="#202020"/>
<path d="M522.216 505.098C522.147 505.526 522.147 505.937 522.216 506.365C522.918 511.501 532.438 516.893 544.682 518.828C556.942 520.762 567.661 518.554 569.905 513.88C570.093 513.487 570.213 513.093 570.281 512.682" fill="#202020"/>
<path d="M574.356 486.78C574.287 487.208 574.15 487.602 573.979 487.979C571.736 492.652 561.017 494.861 548.756 492.926C536.513 490.992 526.993 485.599 526.29 480.464C526.239 480.036 526.239 479.625 526.29 479.197C526.462 478.067 527.112 477.057 528.123 476.149L528.14 476.132C531.993 472.76 541.376 471.373 551.873 473.017C562.369 474.677 570.88 478.871 573.517 483.271L573.534 483.288C574.219 484.487 574.527 485.651 574.356 486.78Z" fill="#202020"/>
<path d="M1009 615.808C1007.29 626.576 1009 668.398 966.209 669.768C956.448 669.768 943.743 726.603 943.743 750.947C491.308 771.113 10.1234 746.701 10.1234 746.701L1.33899 621.954L304.697 630.137V591.755L868.417 587.304V618.187L892.39 618.752L892.955 633.492L914.65 634.074L915.986 618.427L1009 615.808Z" fill="#202020"/>
<path d="M462.127 489.576L446.254 588.953C446.083 590.083 397.469 588.542 397.469 588.542C397.486 587.686 397.572 586.796 397.709 585.905L414.079 482.009C414.216 481.102 414.438 480.194 414.695 479.338C415.141 477.815 415.774 476.377 416.562 475.024C420.415 471.652 429.798 470.265 440.295 471.908C450.791 473.569 459.302 477.763 461.939 482.163C462.264 483.686 462.418 485.261 462.384 486.836C462.35 487.744 462.281 488.668 462.127 489.576Z" stroke="white" stroke-width="1.953" stroke-miterlimit="10" stroke-linecap="round" stroke-linejoin="round"/>
<path d="M462.76 485.638C462.692 486.066 462.555 486.46 462.384 486.837C460.14 491.51 449.421 493.718 437.161 491.784C424.918 489.85 415.397 484.457 414.695 479.321C414.644 478.893 414.644 478.482 414.695 478.054C414.866 476.924 415.517 475.897 416.544 475.007C420.397 471.635 429.781 470.248 440.277 471.891C450.774 473.552 459.284 477.746 461.921 482.146C462.623 483.327 462.932 484.508 462.76 485.638Z" stroke="white" stroke-width="1.953" stroke-miterlimit="10" stroke-linecap="round" stroke-linejoin="round"/>
<path d="M410.62 503.973C410.552 504.401 410.552 504.812 410.62 505.24C411.322 510.375 420.843 515.768 433.086 517.702C445.346 519.637 456.066 517.411 458.309 512.755C458.497 512.361 458.617 511.968 458.686 511.557" stroke="white" stroke-width="1.953" stroke-miterlimit="10" stroke-linecap="round" stroke-linejoin="round"/>
<path d="M462.76 485.638L485.637 588.953" stroke="white" stroke-width="1.953" stroke-miterlimit="10" stroke-linecap="round" stroke-linejoin="round"/>
<path d="M414.695 478.072L348.65 590.665" stroke="white" stroke-width="1.953" stroke-miterlimit="10" stroke-linecap="round" stroke-linejoin="round"/>
<path d="M574.044 489.918L557.554 588.953C557.28 590.699 509.369 588.73 509.609 587.241L525.996 482.351C526.133 481.444 526.356 480.537 526.612 479.681C527.058 478.157 527.691 476.719 528.445 475.384L528.462 475.366C532.314 471.994 541.698 470.607 552.195 472.251C562.691 473.911 571.202 478.106 573.839 482.505L573.856 482.522C574.181 484.029 574.318 485.587 574.284 487.179C574.267 488.086 574.198 489.011 574.044 489.918Z" stroke="white" stroke-width="1.953" stroke-miterlimit="10" stroke-linecap="round" stroke-linejoin="round"/>
<path d="M522.538 504.298C522.47 504.726 522.47 505.137 522.538 505.565C523.24 510.701 532.761 516.093 545.004 518.028C557.264 519.962 567.984 517.754 570.227 513.08C570.415 512.687 570.535 512.293 570.604 511.882" stroke="white" stroke-width="1.953" stroke-miterlimit="10" stroke-linecap="round" stroke-linejoin="round"/>
<path d="M574.678 485.98C574.61 486.408 574.473 486.802 574.301 487.179C572.058 491.852 561.339 494.061 549.079 492.126C536.835 490.192 527.315 484.799 526.613 479.663C526.561 479.235 526.561 478.825 526.613 478.397C526.784 477.267 527.435 476.257 528.445 475.349L528.462 475.332C532.315 471.96 541.698 470.573 552.195 472.217C562.692 473.877 571.202 478.071 573.839 482.471L573.856 482.488C574.541 483.686 574.849 484.851 574.678 485.98Z" stroke="white" stroke-width="1.953" stroke-miterlimit="10" stroke-linecap="round" stroke-linejoin="round"/>
<path d="M526.613 478.414L464.558 588.422" stroke="white" stroke-width="1.953" stroke-miterlimit="10" stroke-linecap="round" stroke-linejoin="round"/>
<path d="M574.679 485.98L588.771 588.953" stroke="white" stroke-width="1.953" stroke-miterlimit="10" stroke-linecap="round" stroke-linejoin="round"/>
<path d="M762.813 475.794L762.796 475.812C762.026 477.147 761.409 478.585 760.964 480.109C760.707 480.964 760.502 481.872 760.347 482.779L743.978 586.676C756.187 587.224 785.296 587.224 792.026 587.224L808.396 490.329C808.533 489.421 808.618 488.497 808.636 487.59C808.67 485.998 808.533 484.44 808.207 482.933L808.19 482.916" stroke="white" stroke-width="1.953" stroke-miterlimit="10" stroke-linecap="round" stroke-linejoin="round"/>
<path d="M756.89 504.743C756.821 505.171 756.821 505.582 756.89 506.01C757.592 511.146 767.112 516.538 779.356 518.473C791.616 520.407 802.335 518.199 804.578 513.525C804.767 513.132 804.887 512.738 804.955 512.327" stroke="white" stroke-width="1.953" stroke-miterlimit="10" stroke-linecap="round" stroke-linejoin="round"/>
<path d="M809.03 486.426C808.962 486.854 808.825 487.247 808.654 487.624C806.41 492.298 795.691 494.506 783.431 492.572C771.188 490.637 761.667 485.245 760.965 480.109C760.913 479.681 760.913 479.27 760.965 478.842C761.136 477.712 761.787 476.702 762.797 475.795L762.814 475.778C766.667 472.405 776.051 471.018 786.547 472.662C797.044 474.322 805.554 478.517 808.191 482.916L808.208 482.933C808.91 484.132 809.201 485.279 809.03 486.426Z" stroke="white" stroke-width="1.953" stroke-miterlimit="10" stroke-linecap="round" stroke-linejoin="round"/>
<path d="M760.965 478.859L684.269 587.241" stroke="white" stroke-width="1.953" stroke-miterlimit="10" stroke-linecap="round" stroke-linejoin="round"/>
<path d="M809.03 486.426L828.105 587.241" stroke="white" stroke-width="1.953" stroke-miterlimit="10" stroke-linecap="round" stroke-linejoin="round"/>
<path d="M635.261 476.034L635.244 476.052C634.593 477.455 634.096 478.945 633.788 480.503C633.6 481.376 633.48 482.3 633.411 483.224L626.168 588.148C627.761 588.97 673.857 589.381 673.994 587.258L681.939 486.58C682.008 485.655 681.991 484.731 681.939 483.841C681.836 482.249 681.562 480.708 681.1 479.236L681.083 479.219" stroke="white" stroke-width="1.953" stroke-miterlimit="10" stroke-linecap="round" stroke-linejoin="round"/>
<path d="M682.213 482.591C682.179 483.019 682.094 483.43 681.939 483.824C680.107 488.668 669.628 491.818 657.248 490.962C644.884 490.106 634.936 485.553 633.788 480.502C633.703 480.092 633.651 479.664 633.686 479.236C633.771 478.089 634.319 477.027 635.244 476.051L635.261 476.034C638.806 472.337 648.018 470.145 658.635 470.864C669.251 471.6 678.087 475.041 681.1 479.201L681.118 479.218C681.888 480.314 682.299 481.444 682.213 482.591Z" stroke="white" stroke-width="1.953" stroke-miterlimit="10" stroke-linecap="round" stroke-linejoin="round"/>
<path d="M631.888 505.376C631.854 505.804 631.905 506.215 631.991 506.643C633.138 511.694 643.087 516.247 655.45 517.103C667.83 517.959 678.31 514.826 680.142 509.964C680.296 509.571 680.382 509.16 680.416 508.732" stroke="white" stroke-width="1.953" stroke-miterlimit="10" stroke-linecap="round" stroke-linejoin="round"/>
<path d="M1009.32 615.008C1007.61 625.776 1009.32 667.598 966.531 668.968C956.771 668.968 944.065 725.804 944.065 750.147C491.63 770.314 10.4456 745.902 10.4456 745.902L1.66128 621.154L305.02 629.337V590.955L868.739 586.504V617.388L892.712 617.952L893.277 632.692L914.972 633.274L916.308 617.627L1009.32 615.008Z" stroke="white" stroke-width="1.953" stroke-miterlimit="10" stroke-linecap="round" stroke-linejoin="round"/>
<path d="M859.783 389.702V584.279" stroke="white" stroke-width="1.953" stroke-miterlimit="10" stroke-linecap="round" stroke-linejoin="round"/>
<path d="M254.898 389.702L74.9657 623.191" stroke="white" stroke-width="1.953" stroke-miterlimit="10" stroke-linecap="round" stroke-linejoin="round"/>
<path d="M254.899 389.702L385.756 590.322" stroke="white" stroke-width="1.953" stroke-miterlimit="10" stroke-linecap="round" stroke-linejoin="round"/>
<path d="M305.02 629.337L914.596 633.326" stroke="white" stroke-width="1.953" stroke-miterlimit="10" stroke-linecap="round" stroke-linejoin="round"/>
<path d="M6.69622 635.808C179.985 646.063 853.517 654.554 1005.23 639.198" stroke="white" stroke-width="1.953" stroke-miterlimit="10" stroke-linecap="round" stroke-linejoin="round"/>
<path d="M853.52 619.495L314.697 619.495L314.697 603.112L853.52 603.112L853.52 619.495Z" stroke="white" stroke-width="1.953" stroke-miterlimit="10" stroke-linecap="round" stroke-linejoin="round"/>
<path d="M319.574 590.322L254.317 458.025L129.624 624.664" stroke="white" stroke-width="1.953" stroke-miterlimit="10" stroke-linecap="round" stroke-linejoin="round"/>
<path d="M330.688 603.11V619.494" stroke="white" stroke-width="1.953" stroke-miterlimit="10" stroke-linecap="round" stroke-linejoin="round"/>
<path d="M346.373 603.11V619.494" stroke="white" stroke-width="1.953" stroke-miterlimit="10" stroke-linecap="round" stroke-linejoin="round"/>
<path d="M362.365 603.11V619.494" stroke="white" stroke-width="1.953" stroke-miterlimit="10" stroke-linecap="round" stroke-linejoin="round"/>
<path d="M378.051 603.11V619.494" stroke="white" stroke-width="1.953" stroke-miterlimit="10" stroke-linecap="round" stroke-linejoin="round"/>
<path d="M394.318 603.11V619.494" stroke="white" stroke-width="1.953" stroke-miterlimit="10" stroke-linecap="round" stroke-linejoin="round"/>
<path d="M410.02 603.11V619.494" stroke="white" stroke-width="1.953" stroke-miterlimit="10" stroke-linecap="round" stroke-linejoin="round"/>
<path d="M425.996 603.11V619.494" stroke="white" stroke-width="1.953" stroke-miterlimit="10" stroke-linecap="round" stroke-linejoin="round"/>
<path d="M441.699 603.11V619.494" stroke="white" stroke-width="1.953" stroke-miterlimit="10" stroke-linecap="round" stroke-linejoin="round"/>
<path d="M457.777 603.11V619.494" stroke="white" stroke-width="1.953" stroke-miterlimit="10" stroke-linecap="round" stroke-linejoin="round"/>
<path d="M473.48 603.11V619.494" stroke="white" stroke-width="1.953" stroke-miterlimit="10" stroke-linecap="round" stroke-linejoin="round"/>
<path d="M489.455 603.11V619.494" stroke="white" stroke-width="1.953" stroke-miterlimit="10" stroke-linecap="round" stroke-linejoin="round"/>
<path d="M505.158 603.11V619.494" stroke="white" stroke-width="1.953" stroke-miterlimit="10" stroke-linecap="round" stroke-linejoin="round"/>
<path d="M520.604 603.11V619.494" stroke="white" stroke-width="1.953" stroke-miterlimit="10" stroke-linecap="round" stroke-linejoin="round"/>
<path d="M536.289 603.11V619.494" stroke="white" stroke-width="1.953" stroke-miterlimit="10" stroke-linecap="round" stroke-linejoin="round"/>
<path d="M552.281 603.11V619.494" stroke="white" stroke-width="1.953" stroke-miterlimit="10" stroke-linecap="round" stroke-linejoin="round"/>
<path d="M567.967 603.11V619.494" stroke="white" stroke-width="1.953" stroke-miterlimit="10" stroke-linecap="round" stroke-linejoin="round"/>
<path d="M584.113 603.11V619.494" stroke="white" stroke-width="1.953" stroke-miterlimit="10" stroke-linecap="round" stroke-linejoin="round"/>
<path d="M599.713 603.11V619.494" stroke="white" stroke-width="1.953" stroke-miterlimit="10" stroke-linecap="round" stroke-linejoin="round"/>
<path d="M759.611 603.11V619.494" stroke="white" stroke-width="1.953" stroke-miterlimit="10" stroke-linecap="round" stroke-linejoin="round"/>
<path d="M775.314 603.11V619.494" stroke="white" stroke-width="1.953" stroke-miterlimit="10" stroke-linecap="round" stroke-linejoin="round"/>
<path d="M791.289 603.11V619.494" stroke="white" stroke-width="1.953" stroke-miterlimit="10" stroke-linecap="round" stroke-linejoin="round"/>
<path d="M806.992 603.11V619.494" stroke="white" stroke-width="1.953" stroke-miterlimit="10" stroke-linecap="round" stroke-linejoin="round"/>
<path d="M823.123 603.11V619.494" stroke="white" stroke-width="1.953" stroke-miterlimit="10" stroke-linecap="round" stroke-linejoin="round"/>
<path d="M838.723 603.11V619.494" stroke="white" stroke-width="1.953" stroke-miterlimit="10" stroke-linecap="round" stroke-linejoin="round"/>
<path d="M35.394 736.469C35.394 736.469 90.2745 707.383 116.062 708.445C141.747 709.506 145.635 732.977 161.148 735.117C166.576 735.117 205.669 722.397 235.344 720.103C257.57 718.374 255.55 733.747 263.307 735.117C271.063 736.486 294.728 727.858 309.54 726.386C326.406 724.708 318.804 739.242 330.67 739.516C342.537 739.773 348.102 735.87 368.342 729.707C397.434 723.732 383.513 741.69 389.455 741.228C395.396 740.766 423.804 733.234 446.527 730.957C479.25 727.687 464.335 742.153 477.349 741.228C490.363 740.304 518.959 733.353 530.997 731.71C549.524 729.176 548.702 745.919 553.822 746.929" stroke="white" stroke-width="1.953" stroke-miterlimit="10" stroke-linecap="round" stroke-linejoin="round"/>
<path d="M803.961 746.604C803.961 746.604 843.105 727.636 857.489 727.533C891.359 725.222 886.034 745.422 901.257 745.029C916.479 744.652 935.127 727.43 953.38 727.533C971.634 727.636 961.017 741.605 988.586 745.029" stroke="white" stroke-width="1.953" stroke-miterlimit="10" stroke-linecap="round" stroke-linejoin="round"/>
<path d="M941.977 615.282L859.784 405.863L797.369 587.07" stroke="white" stroke-width="1.953" stroke-miterlimit="10" stroke-linecap="round" stroke-linejoin="round"/>
<path d="M916.309 617.627L859.784 465.592L823.123 586.505" stroke="white" stroke-width="1.953" stroke-miterlimit="10" stroke-linecap="round" stroke-linejoin="round"/>
<path d="M254.898 362.876V627.985" stroke="white" stroke-width="1.953" stroke-miterlimit="10" stroke-linecap="round" stroke-linejoin="round"/>
<path d="M79.8123 682.441C77.1359 682.441 74.9663 675.543 74.9663 667.033C74.9663 658.524 77.1359 651.626 79.8123 651.626C82.4886 651.626 84.6582 658.524 84.6582 667.033C84.6582 675.543 82.4886 682.441 79.8123 682.441Z" stroke="white" stroke-width="1.953" stroke-miterlimit="10" stroke-linecap="round" stroke-linejoin="round"/>
<path d="M564.697 783.838C596.529 788.837 639.252 761.891 713.105 763.192C746.205 763.774 798.568 777.538 885.195 783.53" stroke="white" stroke-width="1.953" stroke-miterlimit="10" stroke-linecap="round" stroke-linejoin="round"/>
<path d="M145.412 705.124C143.625 705.124 142.176 703.675 142.176 701.888C142.176 700.101 143.625 698.653 145.412 698.653C147.199 698.653 148.648 700.101 148.648 701.888C148.648 703.675 147.199 705.124 145.412 705.124Z" fill="white" stroke="white" stroke-width="1.953" stroke-miterlimit="10" stroke-linecap="round" stroke-linejoin="round"/>
<path d="M184.813 705.124C183.025 705.124 181.576 703.675 181.576 701.888C181.576 700.101 183.025 698.653 184.813 698.653C186.6 698.653 188.049 700.101 188.049 701.888C188.049 703.675 186.6 705.124 184.813 705.124Z" fill="white" stroke="white" stroke-width="1.953" stroke-miterlimit="10" stroke-linecap="round" stroke-linejoin="round"/>
<path d="M224.215 705.124C222.428 705.124 220.979 703.675 220.979 701.888C220.979 700.101 222.428 698.653 224.215 698.653C226.002 698.653 227.451 700.101 227.451 701.888C227.451 703.675 226.002 705.124 224.215 705.124Z" fill="white" stroke="white" stroke-width="1.953" stroke-miterlimit="10" stroke-linecap="round" stroke-linejoin="round"/>
<path d="M263.598 705.124C261.81 705.124 260.361 703.675 260.361 701.888C260.361 700.101 261.81 698.653 263.598 698.653C265.385 698.653 266.834 700.101 266.834 701.888C266.834 703.675 265.385 705.124 263.598 705.124Z" fill="white" stroke="white" stroke-width="1.953" stroke-miterlimit="10" stroke-linecap="round" stroke-linejoin="round"/>
<path d="M303 705.124C301.213 705.124 299.764 703.675 299.764 701.888C299.764 700.101 301.213 698.653 303 698.653C304.787 698.653 306.236 700.101 306.236 701.888C306.236 703.675 304.787 705.124 303 705.124Z" fill="white" stroke="white" stroke-width="1.953" stroke-miterlimit="10" stroke-linecap="round" stroke-linejoin="round"/>
<path d="M342.4 705.124C340.613 705.124 339.164 703.675 339.164 701.888C339.164 700.101 340.613 698.653 342.4 698.653C344.188 698.653 345.637 700.101 345.637 701.888C345.637 703.675 344.188 705.124 342.4 705.124Z" fill="white" stroke="white" stroke-width="1.953" stroke-miterlimit="10" stroke-linecap="round" stroke-linejoin="round"/>
<path d="M381.801 705.124C380.013 705.124 378.564 703.675 378.564 701.888C378.564 700.101 380.013 698.653 381.801 698.653C383.588 698.653 385.037 700.101 385.037 701.888C385.037 703.675 383.588 705.124 381.801 705.124Z" fill="white" stroke="white" stroke-width="1.953" stroke-miterlimit="10" stroke-linecap="round" stroke-linejoin="round"/>
<path d="M421.186 705.124C419.398 705.124 417.949 703.675 417.949 701.888C417.949 700.101 419.398 698.653 421.186 698.653C422.973 698.653 424.422 700.101 424.422 701.888C424.422 703.675 422.973 705.124 421.186 705.124Z" fill="white" stroke="white" stroke-width="1.953" stroke-miterlimit="10" stroke-linecap="round" stroke-linejoin="round"/>
<path d="M460.586 705.124C458.799 705.124 457.35 703.675 457.35 701.888C457.35 700.101 458.799 698.653 460.586 698.653C462.373 698.653 463.822 700.101 463.822 701.888C463.822 703.675 462.373 705.124 460.586 705.124Z" fill="white" stroke="white" stroke-width="1.953" stroke-miterlimit="10" stroke-linecap="round" stroke-linejoin="round"/>
<path d="M499.986 705.124C498.199 705.124 496.75 703.675 496.75 701.888C496.75 700.101 498.199 698.653 499.986 698.653C501.774 698.653 503.223 700.101 503.223 701.888C503.223 703.675 501.774 705.124 499.986 705.124Z" fill="white" stroke="white" stroke-width="1.953" stroke-miterlimit="10" stroke-linecap="round" stroke-linejoin="round"/>
<path d="M539.387 705.124C537.599 705.124 536.15 703.675 536.15 701.888C536.15 700.101 537.599 698.653 539.387 698.653C541.174 698.653 542.623 700.101 542.623 701.888C542.623 703.675 541.174 705.124 539.387 705.124Z" fill="white" stroke="white" stroke-width="1.953" stroke-miterlimit="10" stroke-linecap="round" stroke-linejoin="round"/>
<path d="M578.771 705.124C576.984 705.124 575.535 703.675 575.535 701.888C575.535 700.101 576.984 698.653 578.771 698.653C580.559 698.653 582.008 700.101 582.008 701.888C582.008 703.675 580.559 705.124 578.771 705.124Z" fill="white" stroke="white" stroke-width="1.953" stroke-miterlimit="10" stroke-linecap="round" stroke-linejoin="round"/>
<path d="M145.412 675.541C143.625 675.541 142.176 674.093 142.176 672.306C142.176 670.519 143.625 669.07 145.412 669.07C147.199 669.07 148.648 670.519 148.648 672.306C148.648 674.093 147.199 675.541 145.412 675.541Z" fill="white" stroke="white" stroke-width="1.953" stroke-miterlimit="10" stroke-linecap="round" stroke-linejoin="round"/>
<path d="M184.813 675.541C183.025 675.541 181.576 674.093 181.576 672.306C181.576 670.519 183.025 669.07 184.813 669.07C186.6 669.07 188.049 670.519 188.049 672.306C188.049 674.093 186.6 675.541 184.813 675.541Z" fill="white" stroke="white" stroke-width="1.953" stroke-miterlimit="10" stroke-linecap="round" stroke-linejoin="round"/>
<path d="M224.215 675.541C222.428 675.541 220.979 674.093 220.979 672.306C220.979 670.519 222.428 669.07 224.215 669.07C226.002 669.07 227.451 670.519 227.451 672.306C227.451 674.093 226.002 675.541 224.215 675.541Z" fill="white" stroke="white" stroke-width="1.953" stroke-miterlimit="10" stroke-linecap="round" stroke-linejoin="round"/>
<path d="M263.598 675.541C261.81 675.541 260.361 674.093 260.361 672.306C260.361 670.519 261.81 669.07 263.598 669.07C265.385 669.07 266.834 670.519 266.834 672.306C266.834 674.093 265.385 675.541 263.598 675.541Z" fill="white" stroke="white" stroke-width="1.953" stroke-miterlimit="10" stroke-linecap="round" stroke-linejoin="round"/>
<path d="M303 675.541C301.213 675.541 299.764 674.093 299.764 672.306C299.764 670.519 301.213 669.07 303 669.07C304.787 669.07 306.236 670.519 306.236 672.306C306.236 674.093 304.787 675.541 303 675.541Z" fill="white" stroke="white" stroke-width="1.953" stroke-miterlimit="10" stroke-linecap="round" stroke-linejoin="round"/>
<path d="M342.4 675.541C340.613 675.541 339.164 674.093 339.164 672.306C339.164 670.519 340.613 669.07 342.4 669.07C344.188 669.07 345.637 670.519 345.637 672.306C345.637 674.093 344.188 675.541 342.4 675.541Z" fill="white" stroke="white" stroke-width="1.953" stroke-miterlimit="10" stroke-linecap="round" stroke-linejoin="round"/>
<path d="M381.801 675.541C380.013 675.541 378.564 674.093 378.564 672.306C378.564 670.519 380.013 669.07 381.801 669.07C383.588 669.07 385.037 670.519 385.037 672.306C385.037 674.093 383.588 675.541 381.801 675.541Z" fill="white" stroke="white" stroke-width="1.953" stroke-miterlimit="10" stroke-linecap="round" stroke-linejoin="round"/>
<path d="M421.186 675.541C419.398 675.541 417.949 674.093 417.949 672.306C417.949 670.519 419.398 669.07 421.186 669.07C422.973 669.07 424.422 670.519 424.422 672.306C424.422 674.093 422.973 675.541 421.186 675.541Z" fill="white" stroke="white" stroke-width="1.953" stroke-miterlimit="10" stroke-linecap="round" stroke-linejoin="round"/>
<path d="M460.586 675.541C458.799 675.541 457.35 674.093 457.35 672.306C457.35 670.519 458.799 669.07 460.586 669.07C462.373 669.07 463.822 670.519 463.822 672.306C463.822 674.093 462.373 675.541 460.586 675.541Z" fill="white" stroke="white" stroke-width="1.953" stroke-miterlimit="10" stroke-linecap="round" stroke-linejoin="round"/>
<path d="M499.986 675.541C498.199 675.541 496.75 674.093 496.75 672.306C496.75 670.519 498.199 669.07 499.986 669.07C501.774 669.07 503.223 670.519 503.223 672.306C503.223 674.093 501.774 675.541 499.986 675.541Z" fill="white" stroke="white" stroke-width="1.953" stroke-miterlimit="10" stroke-linecap="round" stroke-linejoin="round"/>
<path d="M539.387 675.541C537.599 675.541 536.15 674.093 536.15 672.306C536.15 670.519 537.599 669.07 539.387 669.07C541.174 669.07 542.623 670.519 542.623 672.306C542.623 674.093 541.174 675.541 539.387 675.541Z" fill="white" stroke="white" stroke-width="1.953" stroke-miterlimit="10" stroke-linecap="round" stroke-linejoin="round"/>
<path d="M578.771 675.541C576.984 675.541 575.535 674.093 575.535 672.306C575.535 670.519 576.984 669.07 578.771 669.07C580.559 669.07 582.008 670.519 582.008 672.306C582.008 674.093 580.559 675.541 578.771 675.541Z" fill="white" stroke="white" stroke-width="1.953" stroke-miterlimit="10" stroke-linecap="round" stroke-linejoin="round"/>
<path d="M802.882 796.561C805.981 796.475 808.293 793.873 808.019 790.792L774.697 409.991C774.423 406.91 772.813 402.253 771.101 399.668L728.909 335.677C727.197 333.092 725.57 328.452 725.279 325.354L714.046 206.478C713.755 203.396 710.998 200.606 707.916 200.281L638.669 192.954C635.586 192.628 632.658 189.855 632.162 186.791L602.641 3.22129C602.144 0.15695 599.439 -3.40385 596.631 -4.70491L560.603 -21.2934C557.795 -22.5945 553.514 -22.0467 551.117 -20.078L491.476 28.7118C489.078 30.6805 486.989 34.8063 486.818 37.9049L472.452 319.225C472.298 322.324 474.695 324.857 477.794 324.857H549.867C552.966 324.857 556.545 327.169 557.812 329.993L597.881 419.15C599.148 421.975 600.175 426.82 600.141 429.935L596.733 796.544C596.699 799.642 599.216 802.107 602.316 802.022L802.882 796.561Z" fill="url(#paint1_linear)"/>
<path d="M166.605 33.3741L166.757 35.3207L168.248 34.0596L184.037 20.702L170.527 36.275L169.225 37.7763L171.206 37.9274L191.841 39.5L171.206 41.0726L169.225 41.2237L170.527 42.725L184.037 58.298L168.248 44.9404L166.757 43.6793L166.605 45.6259L165 66.1658L163.395 45.6259L163.243 43.6793L161.752 44.9404L145.963 58.298L159.473 42.725L160.775 41.2237L158.794 41.0726L138.159 39.5L158.794 37.9274L160.775 37.7763L159.473 36.275L145.963 20.702L161.752 34.0596L163.243 35.3207L163.395 33.3741L165 12.8342L166.605 33.3741Z" stroke="white" stroke-width="2"/>
</g>
<defs>
<linearGradient id="paint0_linear" x1="461.225" y1="831.307" x2="295.731" y2="73.0511" gradientUnits="userSpaceOnUse">
<stop stop-color="#3FFFD8"/>
<stop offset="0.4888" stop-color="#B9C3FC"/>
<stop offset="1" stop-color="#FF7EA7"/>
</linearGradient>
<linearGradient id="paint1_linear" x1="712.337" y1="771.215" x2="548.178" y2="19.079" gradientUnits="userSpaceOnUse">
<stop stop-color="#3FFFD8"/>
<stop offset="0.4888" stop-color="#B9C3FC"/>
<stop offset="1" stop-color="#FF7EA7"/>
</linearGradient>
<clipPath id="clip0">
<rect width="1011" height="824" fill="white" transform="matrix(-1 0 0 1 1011 0)"/>
</clipPath>
</defs>
</svg>
