<svg width="214" height="130" viewBox="0 0 214 130" fill="none" xmlns="http://www.w3.org/2000/svg">
<path d="M3.76673 117.097C5.33617 106.258 8.5849 98.565 12.9354 92.9539C12.6121 92.7309 9.15931 90.3885 7.60557 91.4436C5.97964 92.552 7.63382 102.05 7.63382 102.05C7.63382 102.05 4.31289 102.612 2.94749 103.771C1.58208 104.93 4.30034 112.833 4.30034 112.833C4.30034 112.833 1.17716 112.522 1.01394 113.64C0.850719 114.758 2.14707 116.965 3.52818 117.43L4.30976 117.662C4.30348 117.593 3.75731 117.172 3.76673 117.097Z" stroke="white" stroke-width="0.6" stroke-miterlimit="10" stroke-linecap="round" stroke-linejoin="round"/>
<path d="M37.5065 78.9744C37.4249 77.6085 38.784 74.3587 38.784 74.3587C37.1895 72.5218 35.3156 70.9581 34.0663 71.8091C31.4893 73.5674 29.7974 80.7611 29.7974 80.7611C29.7974 80.7611 27.5626 76.3651 25.2712 76.7419C22.983 77.1187 20.1172 85.8572 20.1172 85.8572C20.1172 85.8572 16.3411 82.5571 14.8972 83.0375C13.6228 83.4614 12.0095 89.5655 12.9543 92.9284C19.2508 84.5447 28.4069 80.1236 37.5065 78.9744Z" stroke="white" stroke-width="0.6" stroke-miterlimit="10" stroke-linecap="round" stroke-linejoin="round"/>
<path d="M66.0545 43.5429C61.3211 42.4659 58.6687 41.144 57.184 40.0231C56.5845 39.5709 57.1024 38.6321 57.7992 38.9084C59.9117 39.7562 63.2891 40.6291 67.6898 40.1926L66.0545 43.5429Z" fill="url(#paint0_linear_1127_3)"/>
<path d="M75.6438 38.6383C82.3892 37.0212 88.8616 35.2032 94.0062 36.7261C100.714 38.7105 93.8493 48.1272 93.8493 48.1272C93.8493 48.1272 89.075 50.903 86.2312 51.5466C82.135 47.719 75.6438 38.6383 75.6438 38.6383Z" fill="url(#paint1_linear_1127_3)"/>
<path d="M123.954 63.4506C123.954 63.4506 126.318 53.6602 132.137 57.5412C137.957 61.4222 140.867 70.6694 145.39 78.4659C148.073 83.091 151.397 85.5308 153.661 86.7491C154.323 87.107 153.934 88.1087 153.202 87.936C151.058 87.4336 147.653 85.8605 142.59 81.5901C134.473 74.7419 133.525 86.209 133.474 91.2047C133.471 91.6756 132.834 91.8169 132.63 91.3962C131.262 88.5922 128.446 83.7253 125.21 83.2731C121.302 82.7268 114.519 91.3899 114.519 91.3899L118.785 83.4772C118.785 83.4772 125.477 78.5349 123.954 63.4506Z" fill="url(#paint2_linear_1127_3)"/>
<path d="M124.56 30.0225C124.56 30.0225 126.214 36.8519 127.526 37.819C127.526 37.819 122.62 37.7687 120.64 35.8C120.414 35.5739 120.338 35.2379 120.423 34.9302C120.652 34.1201 121.49 32.4214 124.56 30.0225Z" stroke="white" stroke-width="0.6" stroke-miterlimit="10" stroke-linecap="round" stroke-linejoin="round"/>
<path d="M120.823 19.2212H120.82C120.8 19.2244 120.784 19.2341 120.765 19.2373" stroke="white" stroke-width="0.6" stroke-miterlimit="10" stroke-linecap="round"/>
<path d="M139.664 39.7874C134.771 40.0167 133.157 32.3991 132.997 28.6343C133.204 26.1098 130.929 24.3232 129.14 23.0044" stroke="white" stroke-width="0.6" stroke-miterlimit="10" stroke-linecap="round"/>
<path d="M125.294 24.9453C125.294 24.9453 125.301 26.8324 124.676 27.6394C124.051 28.4464 119.054 31.5894 118.784 32.6633C118.784 32.6633 119.695 28.8954 122.212 27.1684C124.729 25.4414 125.294 24.9453 125.294 24.9453Z" stroke="white" stroke-width="0.6" stroke-miterlimit="10" stroke-linecap="round" stroke-linejoin="round"/>
<path d="M128.085 24.6123C128.085 24.6123 128 25.9091 128.644 26.3361C129.287 26.7632 132.68 29.2783 133.117 29.9848C133.117 29.9848 133.537 28.2264 132.216 27.0144C131.397 26.2639 128.085 24.6123 128.085 24.6123Z" stroke="white" stroke-width="0.6" stroke-miterlimit="10"/>
<path d="M122.915 49.3397C122.369 48.5139 120.966 46.4729 120.351 45.6816C120.26 45.5623 120.09 45.5435 119.974 45.6377C119.578 45.9548 118.813 46.4007 118.207 46.7366C117.968 46.8685 117.714 46.6079 117.843 46.3693C118.235 45.6534 118.524 44.9249 118.684 44.4759C118.753 44.2843 118.599 44.0928 118.398 44.1179C117.862 44.187 117.146 44.1901 116.565 44.1776C116.298 44.1713 116.201 43.8165 116.433 43.6783C117.676 42.9436 118.706 41.8917 119.28 41.2386C119.45 41.0439 119.274 40.7456 119.02 40.799C117.306 41.157 116.138 41.3422 115.504 41.4301C115.281 41.4615 115.121 41.2198 115.237 41.0282C115.551 40.5038 115.947 39.7942 116.236 39.2636C116.361 39.0375 116.123 38.7863 115.887 38.893C114.506 39.5148 112.852 40.0297 112.952 39.6906C113.068 39.2981 114.726 33.9162 114.779 33.687" stroke="white" stroke-width="0.6" stroke-miterlimit="10" stroke-linecap="round"/>
<path d="M114.779 33.687C114.685 33.8189 106.894 37.7627 111.923 41.2951" stroke="white" stroke-width="0.6" stroke-miterlimit="10" stroke-linecap="round"/>
<path d="M125.072 21.1552L128.584 22.7502L128.618 22.766L129.14 23.0046L129.143 23.0077L129.171 23.0203C129.171 23.0203 129.114 22.8193 128.995 22.4488C128.992 22.4363 128.986 22.4237 128.983 22.4111C128.769 21.7423 128.374 20.5648 127.79 19.0734C127.727 18.907 127.658 18.7374 127.589 18.5584V18.5553C125.577 13.5533 121.613 5.5496 115.492 1.02807C115.382 0.946432 115.231 1.05633 115.275 1.18507C116.094 3.62167 120.253 16.0936 120.812 19.2147L120.815 19.2178H120.818L122.413 19.9431" stroke="white" stroke-width="0.6" stroke-miterlimit="10" stroke-linecap="round"/>
<path d="M119.522 23.3596C114.898 16.8065 112.475 10.985 103.231 4.33146C103.118 4.24982 102.964 4.36914 103.018 4.49788C103.853 6.48861 107.221 14.5677 109.098 19.8208C110.049 22.4867 112.51 24.333 115.338 24.4523C117.212 24.5308 119.013 24.3581 119.531 23.5103C119.56 23.4663 119.553 23.4035 119.522 23.3596Z" stroke="white" stroke-width="0.6" stroke-miterlimit="10" stroke-linecap="round"/>
<path d="M122.912 49.3395C122.912 49.3395 123.386 51.8892 124.221 53.1326C124.406 53.4058 124.814 53.3869 124.959 53.0886C125.31 52.357 125.941 51.0665 126.409 50.203C132.746 51.5752 136.312 51.2141 138.016 50.4605C141.664 49.1763 141.274 45.0535 145.386 48.0741" stroke="white" stroke-width="0.6" stroke-miterlimit="10" stroke-linecap="round"/>
<path d="M69.9812 62.4488C68.9266 60.9259 62.1372 53.7166 66.0545 43.5431C66.472 42.4599 67.0087 41.3389 67.6899 40.1928C67.7589 40.0766 67.8311 39.9605 67.9033 39.8411C68.5656 38.7673 69.3472 37.6683 70.2732 36.5442C70.2732 36.5442 70.2732 36.5442 70.2732 36.541C70.5651 36.1862 70.8727 35.8283 71.196 35.4672C71.3027 35.3447 71.4126 35.2285 71.5224 35.1061C71.5883 35.0339 71.6543 34.9585 71.7233 34.8863C71.7233 34.8863 71.7453 34.8643 71.7798 34.8266C72.0341 34.5629 73.0793 33.5424 73.8891 33.5958C74.5797 33.6429 75.0945 34.4718 74.79 37.2444C74.7398 37.7342 74.6582 38.2806 74.5514 38.8991C74.5357 38.9651 74.5263 39.031 74.5138 39.1032V39.1064C74.4604 39.3953 74.4008 39.6967 74.3349 40.0138C74.3035 40.1645 74.2721 40.3247 74.2344 40.4848C74.1967 40.6607 74.1559 40.8428 74.1151 41.028" stroke="white" stroke-width="0.6" stroke-miterlimit="10" stroke-linecap="round" stroke-linejoin="round"/>
<path d="M74.115 41.031C74.115 41.031 74.115 41.0278 74.1181 41.0247C74.137 40.9933 74.2154 40.8551 74.3441 40.6605C74.3975 40.5725 74.4665 40.4752 74.5419 40.3716C74.6674 40.1989 74.815 40.0073 74.9845 39.819C75.2481 39.5207 75.5557 39.2318 75.8947 39.0245C75.9293 39.0057 75.9606 38.9837 75.9983 38.9649C76.1301 38.8927 76.1866 39.0905 76.1898 39.4767C76.1898 39.4767 76.1898 39.4767 76.1898 39.4798C76.2023 39.932 76.149 40.6416 76.0862 41.4737V41.4768C76.0517 41.9196 76.014 42.3969 75.9826 42.8898C75.9763 43.0091 75.9701 43.1473 75.9669 43.298C75.945 44.3939 76.0517 46.1931 76.1427 47.3517V47.3548C76.1647 47.6406 76.1866 47.8855 76.2055 48.0708" stroke="white" stroke-width="0.6" stroke-miterlimit="10" stroke-linecap="round" stroke-linejoin="round"/>
<path d="M128.826 29.1523C128.826 29.1523 129.005 34.5939 132.58 37.1435C132.58 37.1435 132.982 35.4448 132.781 33.4729C132.781 33.4729 131.682 31.5293 128.826 29.1523Z" stroke="white" stroke-width="0.6" stroke-miterlimit="10" stroke-linecap="round"/>
<path d="M58.1759 105.3C51.217 104.732 45.2218 104.637 41.6184 104.647C39.3364 104.656 38.0149 104.707 38.0149 104.707C41.1287 102.282 47.2401 100.816 47.2401 100.816C44.616 97.8646 42.6542 95.1768 41.248 92.7308C29.5808 72.4781 47.3123 63.6454 58.3988 68.6222C58.5149 68.6065 58.5777 68.6034 58.5777 68.6034" stroke="white" stroke-width="0.6" stroke-miterlimit="10" stroke-linecap="round"/>
<path d="M37.5064 78.9741C25.833 80.6006 8.01673 87.923 3.82948 116.864C3.74159 117.473 4.40075 117.919 4.93122 117.605C9.60186 114.845 25.8518 105.723 38.5831 104.458" stroke="white" stroke-width="0.6" stroke-miterlimit="10" stroke-linecap="round"/>
<path d="M112.117 86.5795C109.631 92.3256 103.818 96.4892 96.8813 96.7844C87.8414 97.1706 80.1417 90.8498 79.0777 82.441C79.0212 82.0077 78.9835 81.565 78.9647 81.1191C78.9584 81.0061 78.9553 80.8931 78.9521 80.78C78.9521 80.7643 78.9521 80.7486 78.949 80.7329" stroke="white" stroke-width="0.6" stroke-miterlimit="10" stroke-linecap="round"/>
<path d="M103.159 65.3345C106.599 67.4759 109.101 68.9517 110.922 71.809" stroke="white" stroke-width="0.6" stroke-miterlimit="10" stroke-linecap="round"/>
<path d="M124.996 23.212C124.996 23.212 125.602 20.8319 124.064 17.8364C122.526 14.8409 122.256 21.9654 122.256 21.9654C122.256 21.9654 113.317 4.19328 116.622 19.0138" stroke="white" stroke-width="0.6" stroke-miterlimit="10" stroke-linecap="round"/>
<path d="M86.2344 51.5466C89.4298 50.479 95.3277 48.4035 99.063 43.8694C99.0755 43.8537 99.0881 43.838 99.1006 43.8192C99.1195 43.7972 99.1352 43.7721 99.154 43.7533C99.3455 43.5178 99.5369 43.276 99.7221 43.0216C99.7849 42.94 99.8445 42.8615 99.901 42.7861C102.365 39.4233 104.471 34.7698 105.413 30.4995" stroke="white" stroke-width="0.6" stroke-miterlimit="10" stroke-linecap="round"/>
<path d="M91.7367 14.5518C91.7367 14.5518 92.9169 24.1506 89.1001 23.2808" stroke="white" stroke-width="0.6" stroke-miterlimit="10" stroke-linecap="round"/>
<path d="M89.4016 23.5825C89.4016 23.5825 94.6027 31.2691 91.4576 33.241" stroke="white" stroke-width="0.6" stroke-miterlimit="10" stroke-linecap="round"/>
<path d="M130.135 10.5796C130.135 10.5796 133.16 15.5627 134.579 13.7101" stroke="white" stroke-width="0.6" stroke-miterlimit="10" stroke-linecap="round"/>
<path d="M134.585 13.8672C134.585 13.8672 135.229 19.45 137.42 19.1549" stroke="white" stroke-width="0.6" stroke-miterlimit="10" stroke-linecap="round"/>
<path d="M113.018 31.5986C113.018 31.5986 108.225 31.4604 107.346 36.1389C107.306 36.3587 107.532 36.5283 107.739 36.4372C108.837 35.9505 110.203 36.4624 110.535 37.4891" stroke="white" stroke-width="0.6" stroke-miterlimit="10" stroke-linecap="round"/>
<path d="M106.333 25.5414C106.333 25.5414 107.547 22.8033 110.203 22.0654" stroke="white" stroke-width="0.6" stroke-miterlimit="10" stroke-linecap="round"/>
<path d="M87.6531 109.604C89.0467 108.979 112.573 101.399 118.784 83.4766" stroke="white" stroke-width="0.6" stroke-miterlimit="10" stroke-linecap="round"/>
<path d="M64.1932 126.102C64.1932 126.102 57.6706 90.7617 82.1821 90.0112" stroke="white" stroke-width="0.6" stroke-miterlimit="10" stroke-linecap="round"/>
<path d="M88.7329 53.9736C94.3232 50.1335 96.8281 46.6607 99.0629 43.8693C99.0755 43.8536 99.088 43.8379 99.1006 43.819C99.1194 43.797 99.1351 43.7719 99.154 43.7531C99.358 43.4893 99.5495 43.2444 99.7221 43.0215C99.7849 42.9398 99.8445 42.8582 99.901 42.786C100.595 41.8691 100.949 41.3228 100.949 41.3228" stroke="white" stroke-width="0.6" stroke-miterlimit="10" stroke-linecap="round"/>
<path d="M77.2414 60.2446C75.129 61.0076 75.8572 60.7439 73.5878 61.3782C72.3322 61.7298 71.1206 62.0501 69.9781 62.4426C65.3043 64.0659 61.5879 66.3142 58.4019 68.6189C46.063 77.5426 45.6864 92.4825 55.5393 103.243C55.5393 103.243 56.5374 104.157 58.1791 105.297C59.67 106.33 61.6915 107.548 63.9828 108.443" stroke="white" stroke-width="0.6" stroke-miterlimit="10" stroke-linecap="round"/>
<path d="M88.802 79.6774C75.4712 72.3707 95.7608 74.4179 95.9209 74.2641" stroke="white" stroke-width="0.6" stroke-miterlimit="10" stroke-linecap="round"/>
<path d="M121.904 50.9062C121.904 50.9062 135.872 101.676 93.2686 81.9039" stroke="white" stroke-width="0.6" stroke-miterlimit="10" stroke-linecap="round"/>
<path d="M113.778 61.8047C115.002 74.2609 104.999 75.1872 99.4521 74.7695" stroke="white" stroke-width="0.6" stroke-miterlimit="10" stroke-linecap="round"/>
<path d="M74.79 37.2441C74.79 37.2441 75.0663 37.7403 75.6438 38.6383C75.7223 38.7607 75.8039 38.8895 75.8949 39.0276C75.986 39.1689 76.0864 39.3165 76.19 39.4766C76.19 39.4766 76.19 39.4766 76.19 39.4798C79.3037 44.1175 87.7505 55.2047 103.156 65.3373" stroke="white" stroke-width="0.6" stroke-miterlimit="10" stroke-linecap="round"/>
<path d="M79.0808 82.469C79.0211 81.0748 76.2056 48.0708 76.2056 48.0708" stroke="white" stroke-width="0.6" stroke-miterlimit="10" stroke-linecap="round"/>
<path d="M74.5421 40.3714L74.335 40.0103" stroke="white" stroke-width="0.6" stroke-miterlimit="10" stroke-linecap="round"/>
<path d="M67.6616 25.375L72.5708 33.9314" stroke="white" stroke-width="0.6" stroke-miterlimit="10" stroke-linecap="round"/>
<path d="M63.2925 27.8838C63.2956 27.8901 63.3019 27.8964 63.305 27.9058C63.3082 27.9089 63.3082 27.9121 63.3113 27.9152L63.4369 28.135C63.4369 28.1381 63.44 28.1381 63.44 28.1413L68.4371 37.0179" stroke="white" stroke-width="0.6" stroke-miterlimit="10" stroke-linecap="round"/>
<path d="M64.1931 126.102C66.5159 128.444 71.8017 125.775 71.8017 125.775C77.323 115.369 84.3855 111.109 87.6531 109.604" stroke="white" stroke-width="0.6" stroke-miterlimit="10" stroke-linecap="round"/>
<path d="M90.6978 74.1136C92.0004 72.867 93.7299 72.0632 95.6572 71.9438" stroke="white" stroke-width="0.6" stroke-miterlimit="10" stroke-linecap="round"/>
<path d="M98.2341 72.1982H98.2373C99.8475 72.6316 101.26 73.5641 102.296 74.8295" stroke="white" stroke-width="0.6" stroke-miterlimit="10" stroke-linecap="round"/>
<path d="M88.2369 79.3604C88.2275 79.4985 88.2244 79.6398 88.2244 79.7811" stroke="white" stroke-width="0.6" stroke-miterlimit="10" stroke-linecap="round"/>
<path d="M88.353 81.2788C89.0436 85.1284 92.4901 87.97 96.5015 87.7973C98.6674 87.7032 100.601 86.7486 101.966 85.2728C101.976 85.2665 101.982 85.2603 101.991 85.2508" stroke="white" stroke-width="0.6" stroke-miterlimit="10" stroke-linecap="round"/>
<path d="M63.5903 120.732C63.5903 120.732 64.6638 123.784 68.6847 123.087" stroke="white" stroke-width="0.6" stroke-miterlimit="10" stroke-linecap="round"/>
<path d="M64.0078 125.763C64.0078 125.763 62.4321 126.074 61.5312 127.129L64.4441 126.463L64.0078 125.763Z" stroke="white" stroke-width="0.6" stroke-miterlimit="10" stroke-linecap="round" stroke-linejoin="round"/>
<path d="M64.9589 126.601C64.9589 126.601 62.9626 127.003 62.1497 128.526L66.1674 127.016L64.9589 126.601Z" stroke="white" stroke-width="0.6" stroke-miterlimit="10" stroke-linecap="round" stroke-linejoin="round"/>
<path d="M70.27 126.363C70.27 126.363 69.1965 126.994 68.9077 128.375L71.7986 125.775L70.27 126.363Z" stroke="white" stroke-width="0.6" stroke-miterlimit="10" stroke-linecap="round" stroke-linejoin="round"/>
<path d="M67.3948 127.047C67.3948 127.047 65.7281 127.703 65.4048 129L69.3912 126.683L67.3948 127.047Z" stroke="white" stroke-width="0.6" stroke-miterlimit="10" stroke-linecap="round" stroke-linejoin="round"/>
<path d="M39.0038 104.025C39.0038 104.025 37.155 104.351 36.2542 105.406L39.1702 104.738L38.8186 104.405L39.0038 104.025Z" stroke="white" stroke-width="0.6" stroke-miterlimit="10" stroke-linecap="round" stroke-linejoin="round"/>
<path d="M40.5793 104.59C40.5793 104.59 38.5893 105.133 37.9678 106.747L42.0891 104.643L40.5793 104.59Z" stroke="white" stroke-width="0.6" stroke-miterlimit="10" stroke-linecap="round" stroke-linejoin="round"/>
<path d="M45.9909 104.688C45.9909 104.688 44.7385 105.623 44.4529 107.005L47.3438 104.722L45.9909 104.688Z" stroke="white" stroke-width="0.6" stroke-miterlimit="10" stroke-linecap="round" stroke-linejoin="round"/>
<path d="M43.4641 104.649C43.4641 104.649 41.3516 105.635 41.0283 106.932L45.1528 104.668L43.4641 104.649Z" stroke="white" stroke-width="0.6" stroke-miterlimit="10" stroke-linecap="round" stroke-linejoin="round"/>
<path d="M99.4521 74.7696C99.4018 73.5576 96.8499 69.8838 95.9083 69.9247C95.0576 69.9623 95.9993 73.2122 95.9208 74.2641" stroke="white" stroke-width="0.6" stroke-miterlimit="10" stroke-linecap="round"/>
<path d="M93.2653 81.9035C92.2766 81.5424 86.228 81.4074 86.4226 80.5784C86.5324 80.1137 87.5902 79.8908 88.7987 79.6772" stroke="white" stroke-width="0.6" stroke-miterlimit="10" stroke-linecap="round"/>
<path d="M84.3667 75.4136C84.3667 75.4136 88.0297 76.7198 89.5427 76.9364" stroke="white" stroke-width="0.6" stroke-miterlimit="10" stroke-linecap="round"/>
<path d="M62.4923 27.3441C62.4858 27.3408 62.4826 27.3408 62.4761 27.3408" stroke="white" stroke-width="0.6" stroke-miterlimit="10" stroke-linecap="round"/>
<path d="M67.5268 24.4053C67.5425 24.3582 67.5582 24.308 67.5707 24.2546C67.577 24.2358 67.5801 24.2169 67.5864 24.1981C68.007 22.625 67.9411 20.4176 66.7295 18.2479C64.8838 14.9415 61.2867 13.4375 58.7034 14.8819C56.117 16.3357 55.5174 20.1821 57.36 23.4853C58.5276 25.5734 60.3984 26.9455 62.266 27.3035" stroke="white" stroke-width="0.6" stroke-miterlimit="10" stroke-linecap="round"/>
<path d="M62.2659 27.3062C62.3349 27.3093 62.4071 27.3219 62.4762 27.3407C62.4825 27.3407 62.4856 27.3407 62.4919 27.3438C62.8152 27.4255 63.0977 27.6201 63.2954 27.8839C63.2986 27.8902 63.3048 27.8965 63.308 27.9059C63.3613 27.9781 63.4053 28.0597 63.443 28.1414" stroke="white" stroke-width="0.6" stroke-miterlimit="10" stroke-linecap="round"/>
<path d="M67.5868 24.1978C67.5803 24.2172 67.5771 24.2366 67.5706 24.256" stroke="white" stroke-width="0.6" stroke-miterlimit="10" stroke-linecap="round"/>
<path d="M67.6303 25.3248C67.4953 25.0422 67.4545 24.7188 67.5267 24.4048" stroke="white" stroke-width="0.6" stroke-miterlimit="10" stroke-linecap="round"/>
<path d="M64.3721 17.0887L66.0482 16.2378" stroke="white" stroke-width="0.6" stroke-miterlimit="10" stroke-linecap="round"/>
<path d="M55.6807 21.5536L57.3034 20.665" stroke="white" stroke-width="0.6" stroke-miterlimit="10" stroke-linecap="round"/>
<path d="M66.72 21.3686L68.5656 20.2979" stroke="white" stroke-width="0.6" stroke-miterlimit="10" stroke-linecap="round"/>
<path d="M57.8086 25.843L59.3121 24.9575" stroke="white" stroke-width="0.6" stroke-miterlimit="10" stroke-linecap="round"/>
<path d="M54.9708 22.822C55.5658 22.5273 55.8985 21.9861 55.7139 21.6131C55.5293 21.2401 54.8973 21.1766 54.3023 21.4713C53.7072 21.766 53.3745 22.3073 53.5591 22.6802C53.7437 23.0532 54.3757 23.1167 54.9708 22.822Z" stroke="white" stroke-width="0.6" stroke-miterlimit="10"/>
<path d="M67.4009 16.2883C67.996 15.9936 68.3287 15.4524 68.1441 15.0794C67.9595 14.7064 67.3275 14.6429 66.7324 14.9376C66.1374 15.2323 65.8047 15.7736 65.9893 16.1466C66.1739 16.5196 66.8059 16.583 67.4009 16.2883Z" stroke="white" stroke-width="0.6" stroke-miterlimit="10"/>
<path d="M69.982 20.4416C70.577 20.147 70.9097 19.6057 70.7251 19.2327C70.5405 18.8597 69.9085 18.7962 69.3135 19.0909C68.7185 19.3856 68.3857 19.9269 68.5703 20.2999C68.7549 20.6729 69.387 20.7363 69.982 20.4416Z" stroke="white" stroke-width="0.6" stroke-miterlimit="10"/>
<path d="M57.0652 27.0554C57.6603 26.7607 57.993 26.2195 57.8084 25.8465C57.6238 25.4735 56.9918 25.41 56.3967 25.7047C55.8017 25.9994 55.469 26.5407 55.6536 26.9136C55.8382 27.2866 56.4702 27.3501 57.0652 27.0554Z" stroke="white" stroke-width="0.6" stroke-miterlimit="10"/>
<path d="M71.3467 40.5725C71.3655 40.2114 71.4754 39.7153 71.648 39.1564C71.6606 39.1093 71.6763 39.0622 71.692 39.012C71.8583 38.4751 72.0718 37.8847 72.2978 37.2944C72.3637 37.128 72.4327 36.9616 72.4955 36.7983C72.5646 36.6288 72.6305 36.4592 72.6995 36.2928C73.2771 34.8892 73.8358 33.7023 73.8892 33.5924C73.8955 33.5861 73.8955 33.583 73.8955 33.583" stroke="white" stroke-width="0.6" stroke-miterlimit="10" stroke-linecap="round"/>
<path d="M67.9033 39.8413C68.3679 37.3701 68.7226 35.3166 69.1149 34.5222C69.2436 34.271 69.3723 34.1454 69.5104 34.1799C70.0785 34.3087 70.2637 36.4439 70.27 36.5412C70.27 36.5443 70.27 36.5443 70.27 36.5443" stroke="white" stroke-width="0.6" stroke-miterlimit="10" stroke-linecap="round"/>
<path d="M74.5137 39.1001C74.6675 39.3419 74.8276 39.5805 74.9845 39.8191" stroke="white" stroke-width="0.6" stroke-miterlimit="10" stroke-linecap="round"/>
<path d="M100.852 74.8387C100.246 74.0789 99.6089 73.2719 98.9466 72.4273C92.468 64.2069 83.381 52.3284 76.0894 41.4768V41.4736" stroke="white" stroke-width="0.6" stroke-miterlimit="10" stroke-linecap="round"/>
<path d="M71.7799 34.8263C68.4213 29.4225 65.8254 24.5807 64.6389 20.9917" stroke="white" stroke-width="0.6" stroke-miterlimit="10" stroke-linecap="round"/>
<path d="M103.662 85.7861C103.662 85.7861 103.653 85.77 103.627 85.7344" stroke="white" stroke-width="0.6" stroke-miterlimit="10" stroke-linecap="round"/>
<path d="M95.9208 74.2515C95.4594 73.5544 94.9886 72.8385 94.4958 72.1006C89.1566 64.0278 82.2542 53.4399 75.967 43.2979" stroke="white" stroke-width="0.6" stroke-miterlimit="10" stroke-linecap="round"/>
<path d="M74.3443 40.6609C74.3066 40.5981 74.2689 40.5416 74.2375 40.4819" stroke="white" stroke-width="0.6" stroke-miterlimit="10" stroke-linecap="round"/>
<path d="M71.196 35.4668C67.2316 28.8477 63.8228 22.8002 61.657 18.2661" stroke="white" stroke-width="0.6" stroke-miterlimit="10" stroke-linecap="round"/>
<path d="M98.774 88.5636C98.5857 88.2245 98.4005 87.8823 98.209 87.5369C97.4086 86.0705 96.5737 84.5539 95.7136 82.9902" stroke="white" stroke-width="0.6" stroke-miterlimit="10" stroke-linecap="round"/>
<path d="M90.839 74.1107C90.8265 74.0825 90.8076 74.0542 90.792 74.0291C85.9895 65.278 80.8229 55.8707 76.146 47.3552V47.3521" stroke="white" stroke-width="0.6" stroke-miterlimit="10" stroke-linecap="round"/>
<path d="M60.6116 19.0547C60.6116 19.0547 64.0581 25.3377 69.1085 34.5315" stroke="white" stroke-width="0.6" stroke-miterlimit="10" stroke-linecap="round"/>
<path d="M93.19 88.5355C93.19 88.5355 92.9546 87.964 92.5214 86.9216C92.0129 85.7095 91.2345 83.8538 90.2363 81.5083" stroke="white" stroke-width="0.6" stroke-miterlimit="10" stroke-linecap="round"/>
<path d="M76.46 51.019C80.484 59.3807 84.213 67.6639 87.1227 74.3112" stroke="white" stroke-width="0.6" stroke-miterlimit="10" stroke-linecap="round"/>
<path d="M61.2742 22.7437C63.6723 26.499 66.1959 30.9326 68.7321 35.6959" stroke="white" stroke-width="0.6" stroke-miterlimit="10" stroke-linecap="round"/>
<path d="M91.1528 13.7134C91.1528 13.7134 96.8813 22.7941 107.312 26.1225" stroke="white" stroke-width="0.6" stroke-miterlimit="10" stroke-linecap="round"/>
<path d="M89.844 33.2027C89.844 33.2027 98.8086 35.0835 107.447 29.2715" stroke="white" stroke-width="0.6" stroke-miterlimit="10" stroke-linecap="round"/>
<path d="M88.3906 22.8257C88.3906 22.8257 96.7808 28.9266 107.673 27.8119" stroke="white" stroke-width="0.6" stroke-miterlimit="10" stroke-linecap="round"/>
<path d="M130.078 9.30811C130.078 9.30811 129.256 16.8754 127.793 19.0734" stroke="white" stroke-width="0.6" stroke-miterlimit="10" stroke-linecap="round"/>
<path d="M135.182 12.6963C135.182 12.6963 132.517 18.3702 128.807 21.664" stroke="white" stroke-width="0.6" stroke-miterlimit="10" stroke-linecap="round"/>
<path d="M138.49 18.2412C138.49 18.2412 137.721 19.7452 129.89 23.5697" stroke="white" stroke-width="0.6" stroke-miterlimit="10" stroke-linecap="round"/>
<path d="M93.4505 90.0614C93.9654 90.0614 94.3828 89.6439 94.3828 89.1289C94.3828 88.6138 93.9654 88.1963 93.4505 88.1963C92.9357 88.1963 92.5183 88.6138 92.5183 89.1289C92.5183 89.6439 92.9357 90.0614 93.4505 90.0614Z" stroke="white" stroke-width="0.6" stroke-miterlimit="10"/>
<path d="M98.953 89.9296C99.4679 89.9296 99.8852 89.512 99.8852 88.997C99.8852 88.482 99.4679 88.0645 98.953 88.0645C98.4381 88.0645 98.0208 88.482 98.0208 88.997C98.0208 89.512 98.4381 89.9296 98.953 89.9296Z" stroke="white" stroke-width="0.6" stroke-miterlimit="10"/>
<path d="M103.856 35.5014C103.856 35.5014 100.221 32.0663 100.651 34.3302C101.081 36.5973 102.032 39.0119 102.032 39.0119" stroke="white" stroke-width="0.6" stroke-miterlimit="10" stroke-linecap="round"/>
<path d="M111.104 47.7188C116.035 49.6027 116.823 49.5493 121.904 50.9027C122.284 50.9937 122.78 51.0503 123.348 51.0785" stroke="white" stroke-width="0.6" stroke-miterlimit="10" stroke-linecap="round"/>
<path d="M125.928 51.1009C127.834 51.0601 129.902 50.9471 131.343 51.0005C131.346 51.0005 131.346 51.0005 131.346 51.0005C131.729 51.013 132.068 51.0381 132.344 51.079C132.351 51.079 132.354 51.0821 132.36 51.0821C139.714 52.1874 142.078 54.5203 144.985 54.2754C146.441 53.8955 145.634 49.3426 145.427 48.2907C145.399 48.1494 145.324 48.0238 145.217 47.9296C143.032 46.0236 142.461 44.73 142.461 44.73" stroke="white" stroke-width="0.6" stroke-miterlimit="10" stroke-linecap="round"/>
<path d="M137.495 50.6547C137.495 50.6547 141.259 50.3407 143.575 51.2293C143.575 51.2293 145.069 49.9105 144.354 47.4111" stroke="white" stroke-width="0.6" stroke-miterlimit="10" stroke-linecap="round"/>
<path d="M142.461 44.7298C142.461 44.7298 142.652 42.1927 142.533 41.5051C142.426 40.8991 140.584 37.8188 138.387 41.1063C138.23 41.3418 137.91 41.3952 137.68 41.2256C133.277 37.9318 129.146 45.0375 136.993 47.7285" stroke="white" stroke-width="0.6" stroke-miterlimit="10" stroke-linecap="round"/>
<path d="M141.607 43.5208C141.607 43.5208 140.816 40.0323 140.367 42.9901C140.069 44.9652 141.714 46.0076 141.714 46.0076" stroke="white" stroke-width="0.6" stroke-miterlimit="10" stroke-linecap="round"/>
<path d="M136.597 45.8635C135.182 44.1647 134.99 42.667 136.848 43.4174C138.704 44.1679 138.882 45.7096 139.024 46.4224C139.093 47.9798 136.993 47.7254 136.993 47.7254" stroke="white" stroke-width="0.6" stroke-miterlimit="10" stroke-linecap="round"/>
<path d="M205.912 56.828L210 55.9453L207.103 53.2235L205.912 56.828ZM205.912 56.828L202.788 51L198 54.5844L205.018 65L208.167 64.562L206.467 60.9909L205.018 65" stroke="white" stroke-width="0.6" stroke-miterlimit="10" stroke-linecap="round" stroke-linejoin="round"/>
<path d="M203.585 52.4878L199.03 56.1123" stroke="white" stroke-width="0.6" stroke-miterlimit="10"/>
<path d="M213.135 73.7976C211.244 74.6439 206.649 76.5069 202.996 76.4294C198.278 76.3271 196.821 72.4739 191.675 69.7088C188.209 67.8458 185.683 68.2395 183.968 69.2066C182.024 70.2978 180.829 71.9686 180.87 72.0554C181.379 73.1373 185.421 73.3667 185.421 73.3667C185.421 73.469 184.874 78.029 187.001 79.4146C187.001 79.4146 189.596 80.6608 186.708 81.1754C193.305 86.8885 201.109 84.7155 204.119 83.5375C204.456 83.4073 204.403 82.9175 204.044 82.8679C203.097 82.7315 202.053 82.4804 200.993 82.1674C208.854 81.9752 212.468 76.4635 213.597 74.275C213.748 73.9805 213.44 73.6612 213.135 73.7976ZM187.488 75.9768C187.139 72.8335 184.824 71.826 184.824 71.826L187.054 69.0392L187.079 71.2836L190.26 71.2216L189.096 74.0735L191.121 75.611L187.488 75.9768Z" fill="url(#paint3_linear_1127_3)"/>
<path d="M181.747 77.5145L181.751 77.5176V77.5207L181.744 77.5145C181.272 77.3223 180.621 77.4556 180.329 77.1642C180.036 76.8759 180.322 76.321 180.178 75.9707H180.181C180.539 76.1133 181.103 75.8312 181.395 76.1195C181.688 76.4078 181.552 77.0495 181.747 77.5145Z" fill="#00FFFF"/>
<path d="M174.242 119.103C179.888 119.772 183.113 117.55 183.113 117.55C183.169 117.603 183.676 118.009 184.254 118.297" stroke="white" stroke-width="0.6" stroke-miterlimit="10" stroke-linecap="round" stroke-linejoin="round"/>
<path d="M207.646 108.25C207.646 108.25 208.24 119.71 194.122 116.62C194.122 116.62 189.744 118.48 186.255 118.607" stroke="white" stroke-width="0.6" stroke-miterlimit="10" stroke-linecap="round" stroke-linejoin="round"/>
<path d="M166.406 116.176C169.108 118.077 171.892 118.827 174.242 119.103" stroke="white" stroke-width="0.6" stroke-miterlimit="10" stroke-linecap="round" stroke-linejoin="round"/>
<path d="M207.161 107.506C207.114 107.497 207.067 107.491 207.02 107.478C207.017 107.478 207.013 107.478 207.01 107.478C193.267 104.98 195.239 93.3395 186.258 92.7505C184.641 94.8429 181.25 94.5577 181.25 94.5577C177.139 98.321 166.079 96.2069 160.715 95.0661" stroke="white" stroke-width="0.6" stroke-miterlimit="10" stroke-linecap="round" stroke-linejoin="round"/>
<path d="M207.646 108.257C207.646 108.253 207.646 108.253 207.646 108.253V108.25C207.602 107.819 207.429 107.584 207.161 107.506C207.12 107.494 207.079 107.485 207.035 107.482C207.029 107.482 207.02 107.482 207.01 107.478C206.649 107.451 206.152 107.64 205.57 107.971C202.635 109.645 197.567 114.949 196.954 114.14C196.01 112.9 194.752 110.11 189.404 113.83C188.426 114.509 186.318 116.291 183.27 115.644C179.854 115.213 176.003 110.73 176.003 106.555C176.003 106.025 174.5 101.241 166.651 97.3944H166.648C165.041 96.5668 163.531 95.9778 162.373 95.581C161.678 95.3454 161.108 95.1749 160.722 95.0695C160.718 95.0664 160.718 95.0664 160.715 95.0664L160.722 95.0695C160.718 95.0664 160.718 95.0664 160.715 95.0664C153.159 95.1439 159.029 107.351 161.722 111.35C162.873 113.061 164.802 114.909 164.814 114.918" stroke="white" stroke-width="0.6" stroke-miterlimit="10" stroke-linecap="round" stroke-linejoin="round"/>
<path d="M181.521 87.8431C181.521 87.8431 176.563 84.8393 173.587 83.8349C173.587 83.8349 165.324 83.7357 165.459 80.4374C165.459 80.4374 165.431 71.9095 173.134 78.4411C173.134 78.4411 176.195 81.1132 181.936 84.6874C181.936 84.6843 181.514 85.7073 181.521 87.8431Z" stroke="white" stroke-width="0.6" stroke-miterlimit="10" stroke-linecap="round" stroke-linejoin="round"/>
<path d="M179.033 82.8122V82.8091C178.139 79.5666 176.286 72.815 176.982 69.4981C177.117 68.8595 177.523 68.3139 178.095 67.9915C178.485 67.7714 179.007 67.4925 179.583 67.2228C179.592 67.2166 179.605 67.2135 179.615 67.2104C179.885 67.0833 180.162 66.9593 180.448 66.8446C180.542 66.8074 180.64 66.7702 180.738 66.733C182.329 66.1347 183.946 65.8929 184.214 67.2197C184.311 67.6753 184.245 68.317 183.965 69.1912" stroke="white" stroke-width="0.6" stroke-miterlimit="10" stroke-linecap="round" stroke-linejoin="round"/>
<path d="M181.25 94.5577C180.725 93.5409 179.401 91.3462 176.953 89.5606V89.5575C176.526 89.2475 176.063 88.9468 175.563 88.6678C172.225 86.8048 174.009 85.0967 175.019 84.4023" stroke="white" stroke-width="0.6" stroke-miterlimit="10" stroke-linecap="round" stroke-linejoin="round"/>
<path d="M175.934 84.8301C176.239 85.6082 176.667 87.062 176.953 89.5574V89.5605" stroke="white" stroke-width="0.6" stroke-miterlimit="10" stroke-linecap="round" stroke-linejoin="round"/>
<path d="M181.596 86.3242C181.458 87.3131 181.445 89.111 181.958 89.8054C182.625 90.7044 184.78 91.9754 186.126 92.7162" stroke="white" stroke-width="0.6" stroke-miterlimit="10" stroke-linecap="round" stroke-linejoin="round"/>
<path d="M180.448 66.8786C180.489 66.0819 181.999 64.9908 182.647 64.5568C182.804 64.4514 182.788 64.2158 182.622 64.1321C181.461 63.54 179.743 65.1303 179.743 65.1303L179.319 64.4049C179.212 64.2189 178.932 64.2127 178.828 64.4018C178.438 65.1179 179.492 67.1235 179.492 67.1235C179.492 67.1235 179.548 67.1669 179.633 67.2227" stroke="white" stroke-width="0.6" stroke-miterlimit="10" stroke-linecap="round" stroke-linejoin="round"/>
<path d="M183.487 81.5815C183.355 81.7334 183.229 81.907 183.109 82.0961C182.54 82.992 182.112 84.2103 181.936 84.6877" stroke="white" stroke-width="0.6" stroke-miterlimit="10" stroke-linecap="round" stroke-linejoin="round"/>
<path d="M181.587 80.9614L179.58 83.1717" stroke="white" stroke-width="0.6" stroke-miterlimit="10" stroke-linecap="round" stroke-linejoin="round"/>
<path d="M181.077 72.1948C181.946 73.3883 185.418 73.3511 185.418 73.3511C185.418 73.4534 184.871 78.0134 186.998 79.399C186.998 79.399 189.593 80.6452 186.705 81.1598" stroke="white" stroke-width="0.6" stroke-miterlimit="10" stroke-linecap="round" stroke-linejoin="round"/>
<path d="M183.367 75.6141C183.367 75.6141 184.141 75.5149 184.321 76.2775C184.5 77.0401 184.73 77.0369 184.73 77.0369" stroke="white" stroke-width="0.6" stroke-miterlimit="10" stroke-linecap="round" stroke-linejoin="round"/>
<path d="M182.109 74.5324C182.109 74.5324 182.21 73.7698 181.436 73.5931C180.662 73.4164 180.907 73.311 180.907 73.311" stroke="white" stroke-width="0.6" stroke-miterlimit="10" stroke-linecap="round" stroke-linejoin="round"/>
<path d="M181.751 77.5176V77.5207L181.744 77.5145C181.272 77.3223 180.621 77.4556 180.329 77.1642C180.036 76.8759 180.322 76.321 180.178 75.9707H180.181C180.539 76.1133 181.103 75.8312 181.395 76.1195C181.688 76.4078 181.552 77.0495 181.747 77.5145L181.751 77.5176Z" fill="white"/>
<path d="M184.012 115.932L184.431 120.079L184.578 121.546C184.578 121.546 184.578 121.549 184.578 121.552V121.546C184.578 121.546 184.578 121.549 184.578 121.552C184.585 121.694 184.685 124.125 184.264 125.002C183.616 126.35 182.971 126.781 182.971 126.781C182.971 126.781 185.557 128.071 186.302 124.388C186.651 122.674 187.564 122.045 187.564 122.045C187.564 122.045 188.013 120.848 186.06 120.625L186.554 115.451" stroke="white" stroke-width="0.6" stroke-miterlimit="10" stroke-linecap="round" stroke-linejoin="round"/>
<path d="M176.003 106.554L166.161 115.507C166.271 115.829 166.359 115.969 166.406 116.176C166.478 116.486 166.343 117.395 165.214 117.413C164.792 117.395 164.361 117.274 163.355 118.036C161.344 119.549 159.46 118.694 159.64 118.374C161.09 117.646 163.116 115.346 164.814 114.918L173.949 103.12" stroke="white" stroke-width="0.6" stroke-miterlimit="10" stroke-linecap="round" stroke-linejoin="round"/>
<path d="M171.722 105.993C172.008 106.657 172.688 107.683 174.235 108.138" stroke="white" stroke-width="0.6" stroke-miterlimit="10" stroke-linecap="round" stroke-linejoin="round"/>
<path d="M166.214 77.1702C166.214 77.1702 165.003 76.9873 163.779 77.1702C163.301 77.2415 161.25 77.7281 160.901 78.6457C160.825 78.8472 163.776 78.3357 163.776 78.3357C163.776 78.3357 162.7 79.4889 162.832 79.6439C162.908 79.709 165.591 78.5217 165.591 78.5217" stroke="white" stroke-width="0.6" stroke-miterlimit="10" stroke-linecap="round" stroke-linejoin="round"/>
<path d="M186.705 81.1599C185.764 81.4947 184.638 81.7272 183.487 81.5815C183.087 81.5319 182.685 81.4389 182.285 81.287C182.049 81.2002 181.817 81.0917 181.584 80.9615C180.807 80.5244 180.058 79.8425 179.388 78.8288C177.413 75.8436 178.507 73.9743 179.957 72.877C180.322 72.6011 180.709 72.3717 181.077 72.195L181.08 72.1919" stroke="white" stroke-width="0.6" stroke-miterlimit="10" stroke-linecap="round" stroke-linejoin="round"/>
<defs>
<linearGradient id="paint0_linear_1127_3" x1="156.611" y1="68.7996" x2="35.9324" y2="32.6781" gradientUnits="userSpaceOnUse">
<stop stop-color="#3FFFD8"/>
<stop offset="0.4888" stop-color="#B9C3FC"/>
<stop offset="1" stop-color="#FF7EA7"/>
</linearGradient>
<linearGradient id="paint1_linear_1127_3" x1="157.916" y1="64.4418" x2="37.2368" y2="28.3202" gradientUnits="userSpaceOnUse">
<stop stop-color="#3FFFD8"/>
<stop offset="0.4888" stop-color="#B9C3FC"/>
<stop offset="1" stop-color="#FF7EA7"/>
</linearGradient>
<linearGradient id="paint2_linear_1127_3" x1="152.356" y1="83.0167" x2="31.6771" y2="46.8951" gradientUnits="userSpaceOnUse">
<stop stop-color="#3FFFD8"/>
<stop offset="0.4888" stop-color="#B9C3FC"/>
<stop offset="1" stop-color="#FF7EA7"/>
</linearGradient>
<linearGradient id="paint3_linear_1127_3" x1="180.866" y1="76.6687" x2="213.635" y2="76.6687" gradientUnits="userSpaceOnUse">
<stop stop-color="#3FFFD8"/>
<stop offset="0.4888" stop-color="#B9C3FC"/>
<stop offset="1" stop-color="#FF7EA7"/>
</linearGradient>
</defs>
</svg>
