<svg width="500" height="525" viewBox="0 0 500 525" fill="none" xmlns="http://www.w3.org/2000/svg">
<g clip-path="url(#clip0_2041_58)">
<mask id="mask0_2041_58" style="mask-type:alpha" maskUnits="userSpaceOnUse" x="46" y="0" width="398" height="526">
<path d="M46.6647 0.939009L418.166 0.93902L443.73 525.452L46.6637 460.841L46.6647 0.939009Z" fill="#C4C4C4"/>
</mask>
<g mask="url(#mask0_2041_58)">
<g clip-path="url(#clip1_2041_58)">
<path d="M208.905 155.144C207.775 158.774 209.484 164.819 211.729 172.178C215.555 184.111 228.757 205.546 228.757 205.546L236.932 215.707L239.6 217.764C239.6 217.764 252.773 229.768 253.479 230.626C254.185 231.483 254.298 232.655 254.538 232.955C256.444 235.427 258.449 242.186 259.424 249.446C261.132 262.107 261.781 266.594 261.273 268.395C264.21 265.794 265.509 259.921 276.084 253.033C282.947 247.034 291.356 243.138 300.327 241.801C304.408 239.386 306.765 238.357 310.733 238.342L314.616 237.742C314.616 237.742 309.166 211.691 308.192 208.161C307.641 206.161 302.643 186.654 302.643 186.654L292.194 185.097L291.658 190.013L296.487 201.631C296.487 201.631 303.405 225.795 284.273 225.924C283.68 225.924 273.981 225.467 269.335 222.837C267.09 221.566 256.896 216.921 248.665 208.547C233.374 192.828 224.394 180.209 214.778 160.417L212.308 152.915L208.905 155.144Z" fill="url(#paint0_linear_2041_58)"/>
<path d="M295.455 259.649C295.455 259.649 298.688 258.106 303.15 256.448C307.386 254.876 313.951 253.261 316.239 252.447L316.69 261.421C311.523 260.992 295.455 260.421 295.455 259.649Z" fill="url(#paint1_linear_2041_58)"/>
<path d="M351.538 547.298L316.55 553.686L293.536 560.031L271.213 567.805L247.719 571.135C247.719 571.135 224.013 572.778 197.567 572.564C165.389 572.278 129.244 570.063 127.959 569.448C125.601 568.334 127.324 548.285 127.154 546.384C127.07 545.469 140.991 549.785 155.887 552.443C172.096 555.301 189.406 556.644 189.406 556.644L215.513 557.616L238.725 556.187C238.725 556.187 242.58 554.758 245.601 535.023C247.422 523.148 250.176 505.471 252.929 486.608C256.459 462.443 259.156 433.734 262.092 405.91C265.34 375.158 268.7 345.477 270.14 323.027L270.239 321.512C276.092 320.336 281.576 317.742 286.222 313.952C288.439 312.195 297.292 304.049 304.817 306.593C305.354 306.764 312.117 306.178 315.237 302.12C316.564 300.377 315.59 297.276 315.717 294.975C315.723 294.389 315.901 293.819 316.228 293.335C316.555 292.852 317.016 292.477 317.553 292.26L332.66 541.368L351.538 547.298Z" fill="url(#paint2_linear_2041_58)"/>
<path d="M388.009 195.086C388.009 195.086 398.245 203.817 410.388 384.361C412.011 408.654 430.945 515.831 404.401 557.573C404.401 557.959 402.269 536.409 373.254 531.222" stroke="white" stroke-width="2" stroke-linecap="round" stroke-linejoin="round"/>
<path d="M190.577 94.44C190.577 94.44 182.6 62.5155 182.501 57.6568C182.317 45.1956 190.718 33.9635 193.627 30.2623C198.498 24.0603 221.64 3.43941 240.559 3.16789C263.842 2.82493 297.206 12.6281 305.861 28.5332C306.708 30.1051 311.932 40.2798 311.932 43.6094" stroke="white" stroke-width="2" stroke-linecap="round" stroke-linejoin="round"/>
<path d="M307.697 78.5483C305.436 79.9182 303.531 81.8137 302.139 84.0777C300.746 86.3417 299.907 88.909 299.691 91.5668C299.522 94.043 300.249 96.4969 301.739 98.469C305.062 102.064 308.08 105.936 310.761 110.044C312.879 113.302 316.084 116.703 316.564 117.447C318.216 119.99 318.541 122.591 316.154 124.749C314.672 126.078 310.761 128.879 303.447 127.864C299.578 127.321 294.453 132.794 290.923 128.793C290.26 128.05 290.118 125.106 291.869 121.934C292.217 121.21 292.765 120.604 293.447 120.191C294.129 119.777 294.915 119.573 295.71 119.604" stroke="white" stroke-width="2" stroke-linecap="round" stroke-linejoin="round"/>
<path d="M319.459 67.3876C319.459 67.3876 311.905 67.9878 307.924 72.432C306.201 74.4184 305.834 75.2901 306.596 76.4762C307.03 77.1308 307.404 77.8245 307.712 78.5483C307.881 79.0342 320.772 72.9894 320.772 72.9894" stroke="white" stroke-width="2" stroke-linecap="round" stroke-linejoin="round"/>
<path d="M321.646 138.182C321.35 141.397 320.658 141.526 317.82 143.126C316.676 143.769 315.829 143.912 314.431 144.555C311.452 145.984 311.847 147.056 302.077 147.499C301.795 147.499 291.784 149.743 287.958 149.8C284.753 149.8 282.663 149.714 281.816 149.643C281.437 149.608 281.055 149.662 280.7 149.8C279.518 150.255 278.482 151.032 277.707 152.043" stroke="white" stroke-width="2" stroke-linecap="round" stroke-linejoin="round"/>
<path d="M296.697 156.345C302.416 158.888 312.949 158.345 315.547 154.601" stroke="white" stroke-width="2" stroke-linecap="round" stroke-linejoin="round"/>
<path d="M271.072 101.97C271.061 100.906 271.308 99.8562 271.792 98.912C269.619 99.9381 267.602 101.276 265.806 102.885C265.467 103.156 264.281 104.128 264.69 104.314C266.073 104.923 267.487 105.457 268.926 105.914C270.173 106.106 271.435 106.188 272.696 106.157C271.631 105.032 271.048 103.528 271.072 101.97V101.97Z" fill="white"/>
<path d="M281.449 101.341C280.841 100.841 280.037 100.198 279.373 99.6694C279.629 100.365 279.768 101.099 279.782 101.842C279.779 102.581 279.655 103.315 279.415 104.014L281.364 102.756C281.48 102.682 281.577 102.582 281.646 102.463C281.716 102.343 281.757 102.209 281.765 102.071C281.774 101.932 281.749 101.794 281.694 101.667C281.639 101.54 281.555 101.429 281.449 101.341Z" fill="white"/>
<path d="M285.573 82.5639C285.654 82.1797 285.65 81.7825 285.563 81.3998C285.477 81.0171 285.308 80.6581 285.071 80.348C284.833 80.0378 284.531 79.7839 284.186 79.6039C283.841 79.4239 283.462 79.3221 283.074 79.3057C276.904 78.9627 263.773 78.334 262.898 79.0628C261.754 80.0345 257.885 87.5655 257.066 90.0091C260.664 88.1079 264.59 86.9287 268.63 86.5366C273.092 86.2079 279.389 85.9507 282.651 85.8221C283.257 85.7946 283.839 85.5697 284.31 85.181C284.78 84.7923 285.114 84.2604 285.263 83.6642L285.573 82.5639Z" stroke="white" stroke-width="2" stroke-linecap="round" stroke-linejoin="round"/>
<path d="M262.982 98.6405C266.428 95.1965 272.386 91.2238 279.375 92.6386C284.373 93.6389 285.757 99.6265 287.592 99.5979H287.748" stroke="white" stroke-width="2" stroke-linecap="round" stroke-linejoin="round"/>
<path d="M308.982 85.6077C310.857 83.5858 313.231 82.106 315.859 81.3207C318.993 80.6204 321.238 83.7071 320.673 85.5077C320.649 85.64 320.649 85.7756 320.673 85.9078" stroke="white" stroke-width="2" stroke-linecap="round" stroke-linejoin="round"/>
<path d="M204.683 90.8094C204.203 90.6236 195.901 85.9078 191.439 92.2384C190.872 93.2506 190.494 94.36 190.324 95.5109C189.156 100.512 189.961 105.777 192.569 110.187C196.198 116.446 201.803 126.95 205.968 129.393C209.159 131.408 210.698 132.909 216.459 133.752C219.192 133.895 221.879 134.528 224.394 135.624" stroke="white" stroke-width="2" stroke-linecap="round" stroke-linejoin="round"/>
<path d="M218.746 120.776C217.327 119.875 216.055 118.757 214.976 117.461C214.246 116.546 213.843 115.408 213.832 114.231C213.832 112.802 214.764 112.988 215.047 110.973C215.047 110.973 213.804 103.256 211.065 100.798C206.674 96.8257 203.723 96.9543 198.922 97.9403C194.122 98.9264 195.76 107.286 195.76 107.286" stroke="white" stroke-width="2" stroke-linecap="round" stroke-linejoin="round"/>
<path d="M207.917 104.085C207.606 104.242 199.262 105.514 201.747 111.859C203.342 115.917 205.982 119.104 209.046 119.833C210.371 120.123 211.609 120.725 212.661 121.591C213.226 122.062 213.902 122.377 214.623 122.505C216.216 122.789 217.824 122.98 219.438 123.077" stroke="white" stroke-width="2" stroke-linecap="round" stroke-linejoin="round"/>
<path d="M235.746 44.7233C235.746 44.7233 234.603 67.0447 235.746 72.9895C233.141 74.4055 230.894 76.4111 229.179 78.8501C227.465 81.2891 226.33 84.0956 225.863 87.0511C224.267 96.9114 224.705 111.345 227.896 115.06C228.277 115.517 228.037 115.503 227.557 115.289C226.8 114.947 226.127 114.441 225.586 113.806C225.044 113.171 224.647 112.424 224.423 111.616C223.039 106.761 220.894 102.163 218.069 97.9975C216.29 95.3823 214.85 93.7104 209.047 94.4392C207.348 92.1847 204.968 90.5539 202.27 89.7948" stroke="white" stroke-width="2" stroke-linecap="round" stroke-linejoin="round"/>
<path d="M218.746 120.776C223.456 136.451 231.713 150.797 242.862 162.675C253.141 173.522 274.037 180.281 294.341 184.868C304.224 187.097 320.122 186.797 321.958 173.836C322.819 167.691 321.421 159.317 322.043 152.4C322.239 149.518 322.636 146.653 323.229 143.826C326.49 131.608 328.65 117.832 321.718 94.9821C321.308 92.4527 320.137 87.3511 320.772 84.5216C321.506 81.2634 323.229 78.4911 321.379 73.1608C321.04 72.1748 319.967 69.5168 317.892 62.143C315.915 55.1551 313.797 33.2195 287.69 20.2439" stroke="white" stroke-width="2" stroke-linecap="round" stroke-linejoin="round"/>
<path d="M310.875 90.0234C310.848 88.9953 311.066 87.9758 311.51 87.051L311.03 87.3225C309.195 88.5658 306.795 91.8954 305.383 93.4388C305.327 93.5039 305.29 93.5838 305.277 93.6692C305.264 93.7546 305.275 93.8419 305.309 93.9212C305.343 94.0005 305.398 94.0684 305.469 94.117C305.539 94.1657 305.622 94.1931 305.707 94.1962C307.119 94.3105 309.407 94.1962 310.211 94.1962C310.937 94.1865 311.66 94.11 312.372 93.9675C311.41 92.8841 310.877 91.4797 310.875 90.0234V90.0234Z" fill="white"/>
<path d="M322.465 165.005C322.874 165.176 376.669 180.795 387.244 193.714C397.819 206.632 382.712 420.243 382.712 420.243C382.712 420.243 377.064 546.47 358.921 561.546C358.921 561.546 383.432 581.852 383.898 582.71C384.364 583.567 345.183 753.464 330.838 819.557" stroke="white" stroke-width="2" stroke-linecap="round" stroke-linejoin="round"/>
<path d="M212.349 152.415C211.968 152.415 195.519 165.147 181.286 169.878C91.2619 199.83 96.3731 231.483 94.5234 236.256" stroke="white" stroke-width="2" stroke-linecap="round" stroke-linejoin="round"/>
<path d="M292.123 184.411C292.123 184.411 289.878 204.732 288.721 215.092" stroke="white" stroke-width="2" stroke-linecap="round" stroke-linejoin="round"/>
<path d="M215.286 133.566C215.597 140.397 212.35 149.757 212.35 152.415C212.35 157.031 245.29 226.324 284.273 225.838C307.429 225.553 295.3 194.843 291.573 189.327" stroke="white" stroke-width="2" stroke-linecap="round" stroke-linejoin="round"/>
<path d="M261.767 267.066C260.793 258.992 259.649 248.86 258.548 242.501C257.294 235.169 253.325 228.597 247.45 224.123C238.933 217.887 231.733 209.992 226.271 200.902C211.503 175.651 207.055 161.789 209.046 154.573" stroke="white" stroke-width="2" stroke-linecap="round" stroke-linejoin="round"/>
<path d="M240.687 344.504C215.611 382.745 194.418 397.85 187.161 404.995C184.337 407.781 164.373 419.914 156.805 423.101C146.921 427.273 142.53 428.66 137.504 428.817C135.146 428.888 124.33 431.675 110.832 427.702C97.3342 423.729 91.856 396.421 91.3759 390.233C90.8959 384.045 91.856 328.313 92.7878 323.54C93.7197 318.767 95.3717 291.801 94.6798 282.713C93.5804 268.927 93.3682 255.084 94.0445 241.271C94.2627 237.175 94.8823 233.111 95.8941 229.139C99.4239 215.563 125.192 193.413 152.103 213.662C174.171 230.296 172.816 308.278 171.658 317.81C171.403 320.975 171.517 324.16 171.997 327.299C186.977 315.309 203.059 305.749 214.877 300.976C212.053 304.434 211.065 302.834 212.053 312.565C213.649 329.656 229.18 341.174 240.687 344.504Z" stroke="white" stroke-width="2" stroke-linecap="round" stroke-linejoin="round"/>
<path d="M118.965 359.981C125.417 358.324 143.264 343.305 171.969 327.314" stroke="white" stroke-width="2" stroke-linecap="round" stroke-linejoin="round"/>
<path d="M240.688 344.505L253.749 327.357C249.037 326.413 244.712 324.068 241.326 320.621C237.94 317.173 235.648 312.781 234.744 308.008C231.44 291.102 235.436 290.259 235.436 290.259L214.836 300.991" stroke="white" stroke-width="2" stroke-linecap="round" stroke-linejoin="round"/>
<path d="M234.615 291.045L252.18 276.855C252.18 276.855 264.463 265.265 266.821 260.421C268.459 257.063 279.642 249.475 289.765 243.83C294.777 243.358 301.456 240.757 305.014 239.228C306.819 238.455 308.718 237.931 310.662 237.671C316.789 236.828 330.217 235.17 336.811 235.813C341.781 238.271 341.54 244.945 335.977 247.017C329.073 247.56 309.772 254.791 308.756 254.948C302.162 255.977 294.241 260.421 294.241 260.421L287.845 256.62" stroke="white" stroke-width="2" stroke-linecap="round" stroke-linejoin="round"/>
<path d="M294.227 260.421C294.227 260.421 312.836 260.421 321.181 262.121C322.149 262.331 323.033 262.83 323.717 263.553C324.402 264.277 324.856 265.192 325.021 266.18C327.097 277.255 316.296 276.383 316.296 276.383L294.227 276.14L315.222 278.427C316.547 278.556 317.79 279.129 318.755 280.057C319.719 280.984 320.35 282.211 320.545 283.543C320.856 285.144 320.566 286.804 319.734 288.201C318.901 289.599 317.585 290.633 316.041 291.102C312.272 292.531 291.559 292.403 291.559 292.403" stroke="white" stroke-width="2" stroke-linecap="round" stroke-linejoin="round"/>
<path d="M253.986 327.114L259.634 322.827C259.634 322.827 272.426 321.798 276.817 319.969C279.429 318.883 295.172 307.722 297.29 306.636C299.408 305.55 317.678 308.536 316.351 297.061C315.962 295.268 315.064 293.629 313.767 292.345" stroke="white" stroke-width="2" stroke-linecap="round" stroke-linejoin="round"/>
<path d="M249.793 278.784L249.779 278.798L249.44 279.07L249.426 279.098L249.356 279.155H249.342L234.615 291.045" stroke="white" stroke-width="2" stroke-linecap="round" stroke-linejoin="round"/>
<path d="M291.572 292.345C291.572 292.345 298.279 292.345 304.76 292.16C309.673 291.988 314.431 291.66 316.055 291.045C317.601 290.578 318.919 289.545 319.752 288.147C320.585 286.749 320.872 285.087 320.559 283.485C320.351 282.162 319.714 280.946 318.747 280.03C317.781 279.114 316.541 278.55 315.222 278.427L303.927 277.226" stroke="white" stroke-width="2" stroke-linecap="round" stroke-linejoin="round"/>
<path d="M303.109 260.592C309.161 260.686 315.199 261.196 321.182 262.121C322.149 262.333 323.032 262.832 323.717 263.555C324.401 264.279 324.856 265.193 325.022 266.18C327.098 277.255 316.297 276.383 316.297 276.383L303.928 276.255" stroke="white" stroke-width="2" stroke-linecap="round" stroke-linejoin="round"/>
<path d="M313.812 292.345C315.114 293.633 316.016 295.277 316.41 297.076C317.2 303.849 311.115 305.578 305.58 306.078" stroke="white" stroke-width="2" stroke-linecap="round" stroke-linejoin="round"/>
<path d="M314.545 237.056C314.362 233.555 304.944 194.7 302.572 186.869" stroke="white" stroke-width="2" stroke-linecap="round" stroke-linejoin="round"/>
<path d="M316.648 253.161V261.421" stroke="white" stroke-width="2" stroke-linecap="round" stroke-linejoin="round"/>
<path d="M270.238 321.555C269.984 321.74 249.935 554.844 238.724 556.187C190.224 562.017 123.2 547.927 122.452 542.182C119.939 523.134 122.353 429.904 122.353 429.904" stroke="white" stroke-width="2" stroke-linecap="round" stroke-linejoin="round"/>
<path d="M289.907 150.371C290.048 150.543 303.25 153.715 308.262 151.8C317.482 148.285 318.4 142.969 318.471 142.812C318.541 142.655 308.841 146.827 307.585 147.099C306.328 147.37 298.788 148.099 298.788 148.099C297.475 149.199 287.055 149.528 287.041 150.257C287.097 150.586 289.907 150.371 289.907 150.371Z" fill="white"/>
<path d="M317.51 291.602C317.891 294.117 332.038 539.453 332.66 541.297L366.193 547.67C366.193 547.67 310.238 552.186 280.065 565.047C249.893 577.908 138.237 570.692 127.111 569.334V545.326" stroke="white" stroke-width="2" stroke-linecap="round" stroke-linejoin="round"/>
<path d="M325.29 270.195C325.092 270.781 320.588 280.985 320.588 280.985" stroke="white" stroke-width="2" stroke-linecap="round" stroke-linejoin="round"/>
<path d="M320.588 285.7L315.717 295.061" stroke="white" stroke-width="2" stroke-linecap="round" stroke-linejoin="round"/>
<path d="M254.171 231.269C254.171 231.269 201.322 225.781 200.518 160.103" stroke="white" stroke-width="2" stroke-linecap="round" stroke-linejoin="round"/>
<path d="M303.801 137.053C303.801 138.896 304.21 139.111 304.944 139.554C305.746 140.063 306.701 140.266 307.638 140.128C308.575 139.989 309.432 139.517 310.056 138.796C310.945 137.739 310.691 137.367 310.578 137.053C310.578 137.053 308.121 136.138 308.121 132.408" stroke="white" stroke-width="2" stroke-linecap="round" stroke-linejoin="round"/>
<path d="M235.746 36.3062C240.815 41.5508 262.234 43.6086 262.234 43.6086C262.234 43.6086 255.951 37.3351 257.433 38.7784C260.144 41.4364 271.454 43.8944 270.776 43.4514C267.698 41.4079 265.848 40.0503 265.848 40.0503C271.021 41.4202 276.466 41.3193 281.585 39.7586C286.705 38.1979 291.299 35.238 294.863 31.2046C292.993 28.5338 290.775 26.1304 288.27 24.0594" stroke="white" stroke-width="2" stroke-linecap="round" stroke-linejoin="round"/>
</g>
</g>
<path d="M327.164 122.939L484.664 147.912L421.882 522.939L30.6641 459.504L95.5212 85.4393L189.164 100.439" stroke="url(#paint3_linear_2041_58)" stroke-width="3"/>
</g>
<defs>
<linearGradient id="paint0_linear_2041_58" x1="208.558" y1="210.655" x2="314.609" y2="210.655" gradientUnits="userSpaceOnUse">
<stop stop-color="#68FFE0"/>
<stop offset="0.572917" stop-color="#B9C3FC"/>
<stop offset="1" stop-color="#FF7EA7"/>
</linearGradient>
<linearGradient id="paint1_linear_2041_58" x1="3460.16" y1="1903.18" x2="3523.81" y2="1752.57" gradientUnits="userSpaceOnUse">
<stop stop-color="#3FFFD8"/>
<stop offset="0.58" stop-color="#B6C0F9"/>
<stop offset="0.96" stop-color="#F189B5"/>
<stop offset="1" stop-color="#FF7EA7"/>
</linearGradient>
<linearGradient id="paint2_linear_2041_58" x1="126.729" y1="432.421" x2="351.524" y2="432.421" gradientUnits="userSpaceOnUse">
<stop stop-color="#68FFE0"/>
<stop offset="0.572917" stop-color="#B9C3FC"/>
<stop offset="1" stop-color="#FF7EA7"/>
</linearGradient>
<linearGradient id="paint3_linear_2041_58" x1="30.7121" y1="304.189" x2="484.635" y2="304.189" gradientUnits="userSpaceOnUse">
<stop offset="0.0462938" stop-color="#00FFCB"/>
<stop offset="0.573187" stop-color="#A597FD"/>
<stop offset="1" stop-color="#FF598E"/>
</linearGradient>
<clipPath id="clip0_2041_58">
<rect width="500" height="525" fill="white"/>
</clipPath>
<clipPath id="clip1_2041_58">
<rect width="328.428" height="522.815" fill="white" transform="translate(90.7266 2.62402)"/>
</clipPath>
</defs>
</svg>
