<svg width="1010" height="427" viewBox="0 0 1010 427" fill="none" xmlns="http://www.w3.org/2000/svg">
<path d="M796.264 387.255C796.264 387.255 835.408 368.287 849.792 368.184C883.662 365.873 878.337 386.074 893.559 385.68C908.782 385.303 927.429 368.082 945.683 368.184C963.936 368.287 953.32 382.256 980.889 385.68" stroke="white" stroke-width="1.953" stroke-miterlimit="10" stroke-linecap="round" stroke-linejoin="round"/>
<path d="M556.999 424.489C588.832 429.488 631.555 402.542 705.408 403.844C738.507 404.426 790.871 418.19 877.498 424.181" stroke="white" stroke-width="1.953" stroke-miterlimit="10" stroke-linecap="round" stroke-linejoin="round"/>
<path d="M254.559 28.7021L74.6259 262.191" stroke="white" stroke-width="1.953" stroke-miterlimit="10" stroke-linecap="round" stroke-linejoin="round"/>
<path d="M254.559 28.7021L385.416 229.322" stroke="white" stroke-width="1.953" stroke-miterlimit="10" stroke-linecap="round" stroke-linejoin="round"/>
<path d="M319.234 229.322L253.977 97.0249L129.284 263.664" stroke="white" stroke-width="1.953" stroke-miterlimit="10" stroke-linecap="round" stroke-linejoin="round"/>
<path d="M254.559 1.87598V266.984" stroke="white" stroke-width="1.953" stroke-miterlimit="10" stroke-linecap="round" stroke-linejoin="round"/>
<path d="M461.465 129.375L445.592 228.752C445.42 229.882 396.807 228.341 396.807 228.341C396.824 227.485 396.91 226.595 397.047 225.705L413.417 121.808C413.554 120.901 413.776 119.994 414.033 119.138C414.478 117.614 415.112 116.176 415.9 114.824C419.752 111.451 429.136 110.065 439.633 111.708C450.129 113.369 458.64 117.563 461.277 121.962C461.602 123.486 461.756 125.061 461.722 126.636C461.688 127.543 461.619 128.468 461.465 129.375Z" fill="#202020"/>
<path d="M462.098 125.438C462.03 125.866 461.893 126.259 461.721 126.636C459.478 131.31 448.759 133.518 436.499 131.584C424.256 129.649 414.735 124.257 414.033 119.121C413.981 118.693 413.981 118.282 414.033 117.854C414.204 116.724 414.855 115.697 415.882 114.807C419.735 111.434 429.119 110.048 439.615 111.691C450.112 113.352 458.622 117.546 461.259 121.945C461.961 123.127 462.269 124.308 462.098 125.438Z" fill="#202020"/>
<path d="M409.958 143.772C409.89 144.2 409.89 144.611 409.958 145.039C410.66 150.175 420.181 155.568 432.424 157.502C444.684 159.436 455.404 157.211 457.647 152.555C457.835 152.161 457.955 151.767 458.023 151.356" fill="#202020"/>
<path d="M573.382 129.718L556.892 228.753C556.618 230.499 508.707 228.53 508.947 227.041L525.334 122.151C525.471 121.244 525.693 120.337 525.95 119.481C526.395 117.957 527.029 116.519 527.782 115.184L527.8 115.167C531.652 111.794 541.036 110.407 551.533 112.051C562.029 113.711 570.54 117.906 573.177 122.305L573.194 122.322C573.519 123.829 573.656 125.387 573.622 126.979C573.605 127.886 573.536 128.811 573.382 129.718Z" fill="#202020"/>
<path d="M521.876 144.098C521.807 144.526 521.807 144.937 521.876 145.365C522.578 150.501 532.099 155.893 544.342 157.828C556.602 159.762 567.322 157.554 569.565 152.88C569.753 152.487 569.873 152.093 569.941 151.682" fill="#202020"/>
<path d="M574.016 125.78C573.948 126.208 573.811 126.602 573.639 126.979C571.396 131.652 560.677 133.861 548.417 131.926C536.173 129.992 526.653 124.599 525.951 119.464C525.899 119.036 525.899 118.625 525.951 118.197C526.122 117.067 526.773 116.057 527.783 115.149L527.8 115.132C531.653 111.76 541.036 110.373 551.533 112.017C562.03 113.677 570.54 117.871 573.177 122.271L573.194 122.288C573.879 123.487 574.187 124.651 574.016 125.78Z" fill="#202020"/>
<path d="M1008.66 254.808C1006.95 265.576 1008.66 307.398 965.869 308.768C956.108 308.768 943.403 365.603 943.403 389.947C490.968 410.113 9.78349 385.701 9.78349 385.701L0.999173 260.954L304.357 269.137V230.755L868.077 226.304V257.187L892.05 257.752L892.615 272.492L914.31 273.074L915.646 257.427L1008.66 254.808Z" fill="#202020"/>
<path d="M461.787 128.575L445.914 227.952C445.743 229.082 397.129 227.542 397.129 227.542C397.146 226.686 397.232 225.795 397.369 224.905L413.739 121.009C413.876 120.101 414.099 119.194 414.355 118.338C414.801 116.814 415.434 115.376 416.222 114.024C420.075 110.651 429.458 109.265 439.955 110.908C450.452 112.569 458.962 116.763 461.599 121.163C461.924 122.686 462.078 124.261 462.044 125.836C462.01 126.744 461.941 127.668 461.787 128.575Z" stroke="white" stroke-width="1.953" stroke-miterlimit="10" stroke-linecap="round" stroke-linejoin="round"/>
<path d="M462.42 124.638C462.352 125.066 462.215 125.46 462.044 125.836C459.801 130.51 449.081 132.718 436.821 130.784C424.578 128.849 415.057 123.457 414.355 118.321C414.304 117.893 414.304 117.482 414.355 117.054C414.526 115.924 415.177 114.897 416.204 114.007C420.057 110.634 429.441 109.248 439.937 110.891C450.434 112.552 458.944 116.746 461.581 121.146C462.283 122.327 462.592 123.508 462.42 124.638Z" stroke="white" stroke-width="1.953" stroke-miterlimit="10" stroke-linecap="round" stroke-linejoin="round"/>
<path d="M410.28 142.973C410.212 143.401 410.212 143.811 410.28 144.239C410.982 149.375 420.503 154.768 432.746 156.702C445.007 158.637 455.726 156.411 457.969 151.755C458.157 151.361 458.277 150.967 458.346 150.556" stroke="white" stroke-width="1.953" stroke-miterlimit="10" stroke-linecap="round" stroke-linejoin="round"/>
<path d="M462.42 124.638L485.297 227.953" stroke="white" stroke-width="1.953" stroke-miterlimit="10" stroke-linecap="round" stroke-linejoin="round"/>
<path d="M414.355 117.071L348.31 229.664" stroke="white" stroke-width="1.953" stroke-miterlimit="10" stroke-linecap="round" stroke-linejoin="round"/>
<path d="M573.704 128.918L557.215 227.953C556.941 229.699 509.029 227.73 509.269 226.241L525.656 121.351C525.793 120.444 526.016 119.537 526.273 118.681C526.718 117.157 527.351 115.719 528.105 114.384L528.122 114.367C531.975 110.994 541.358 109.608 551.855 111.251C562.352 112.912 570.862 117.106 573.499 121.505L573.516 121.523C573.841 123.029 573.978 124.587 573.944 126.179C573.927 127.086 573.858 128.011 573.704 128.918Z" stroke="white" stroke-width="1.953" stroke-miterlimit="10" stroke-linecap="round" stroke-linejoin="round"/>
<path d="M522.198 143.298C522.13 143.726 522.13 144.137 522.198 144.565C522.9 149.701 532.421 155.094 544.664 157.028C556.925 158.962 567.644 156.754 569.887 152.081C570.075 151.687 570.195 151.293 570.264 150.882" stroke="white" stroke-width="1.953" stroke-miterlimit="10" stroke-linecap="round" stroke-linejoin="round"/>
<path d="M574.338 124.981C574.27 125.409 574.133 125.802 573.962 126.179C571.718 130.853 560.999 133.061 548.739 131.126C536.496 129.192 526.975 123.799 526.273 118.664C526.222 118.236 526.222 117.825 526.273 117.397C526.444 116.267 527.095 115.257 528.105 114.35L528.122 114.333C531.975 110.96 541.359 109.573 551.855 111.217C562.352 112.877 570.862 117.072 573.499 121.471L573.516 121.488C574.201 122.687 574.51 123.851 574.338 124.981Z" stroke="white" stroke-width="1.953" stroke-miterlimit="10" stroke-linecap="round" stroke-linejoin="round"/>
<path d="M526.273 117.414L464.218 227.422" stroke="white" stroke-width="1.953" stroke-miterlimit="10" stroke-linecap="round" stroke-linejoin="round"/>
<path d="M574.339 124.981L588.432 227.953" stroke="white" stroke-width="1.953" stroke-miterlimit="10" stroke-linecap="round" stroke-linejoin="round"/>
<path d="M762.473 114.794L762.456 114.812C761.686 116.147 761.069 117.585 760.624 119.109C760.367 119.964 760.162 120.872 760.008 121.779L743.638 225.676C755.847 226.224 784.956 226.224 791.686 226.224L808.056 129.329C808.193 128.421 808.279 127.497 808.296 126.59C808.33 124.998 808.193 123.44 807.868 121.933L807.85 121.916" stroke="white" stroke-width="1.953" stroke-miterlimit="10" stroke-linecap="round" stroke-linejoin="round"/>
<path d="M756.55 143.743C756.481 144.171 756.481 144.582 756.55 145.01C757.252 150.146 766.773 155.538 779.016 157.473C791.276 159.407 801.995 157.199 804.239 152.525C804.427 152.132 804.547 151.738 804.615 151.327" stroke="white" stroke-width="1.953" stroke-miterlimit="10" stroke-linecap="round" stroke-linejoin="round"/>
<path d="M808.69 125.425C808.622 125.853 808.485 126.247 808.314 126.624C806.071 131.297 795.351 133.506 783.091 131.571C770.848 129.637 761.327 124.244 760.625 119.109C760.574 118.681 760.574 118.27 760.625 117.842C760.796 116.712 761.447 115.702 762.457 114.794L762.474 114.777C766.327 111.405 775.711 110.018 786.207 111.662C796.704 113.322 805.214 117.516 807.851 121.916L807.868 121.933C808.571 123.132 808.862 124.279 808.69 125.425Z" stroke="white" stroke-width="1.953" stroke-miterlimit="10" stroke-linecap="round" stroke-linejoin="round"/>
<path d="M760.625 117.859L683.929 226.241" stroke="white" stroke-width="1.953" stroke-miterlimit="10" stroke-linecap="round" stroke-linejoin="round"/>
<path d="M808.69 125.426L827.766 226.241" stroke="white" stroke-width="1.953" stroke-miterlimit="10" stroke-linecap="round" stroke-linejoin="round"/>
<path d="M634.921 115.034L634.904 115.051C634.253 116.455 633.757 117.944 633.448 119.502C633.26 120.375 633.14 121.3 633.072 122.224L625.828 227.148C627.421 227.97 673.517 228.381 673.654 226.258L681.599 125.58C681.668 124.655 681.651 123.731 681.599 122.841C681.497 121.248 681.223 119.708 680.76 118.235L680.743 118.218" stroke="white" stroke-width="1.953" stroke-miterlimit="10" stroke-linecap="round" stroke-linejoin="round"/>
<path d="M681.874 121.591C681.839 122.019 681.754 122.43 681.6 122.823C679.767 127.668 669.288 130.818 656.908 129.962C644.545 129.106 634.596 124.552 633.449 119.502C633.363 119.091 633.312 118.663 633.346 118.235C633.431 117.088 633.979 116.027 634.904 115.051L634.921 115.034C638.466 111.336 647.678 109.145 658.295 109.864C668.911 110.6 677.747 114.041 680.761 118.201L680.778 118.218C681.548 119.314 681.959 120.444 681.874 121.591Z" stroke="white" stroke-width="1.953" stroke-miterlimit="10" stroke-linecap="round" stroke-linejoin="round"/>
<path d="M631.548 144.376C631.514 144.804 631.566 145.215 631.651 145.643C632.798 150.693 642.747 155.247 655.11 156.103C667.49 156.959 677.97 153.826 679.802 148.964C679.956 148.57 680.042 148.16 680.076 147.732" stroke="white" stroke-width="1.953" stroke-miterlimit="10" stroke-linecap="round" stroke-linejoin="round"/>
<path d="M1008.98 254.008C1007.27 264.776 1008.98 306.598 966.191 307.968C956.431 307.968 943.725 364.804 943.725 389.147C491.291 409.314 10.1058 384.902 10.1058 384.902L1.32144 260.154L304.68 268.337V229.955L868.399 225.504V256.388L892.372 256.952L892.937 271.692L914.632 272.274L915.968 256.627L1008.98 254.008Z" stroke="white" stroke-width="1.953" stroke-miterlimit="10" stroke-linecap="round" stroke-linejoin="round"/>
<path d="M859.443 28.7021V223.279" stroke="white" stroke-width="1.953" stroke-miterlimit="10" stroke-linecap="round" stroke-linejoin="round"/>
<path d="M304.68 268.337L914.256 272.326" stroke="white" stroke-width="1.953" stroke-miterlimit="10" stroke-linecap="round" stroke-linejoin="round"/>
<path d="M6.35442 274.808C179.643 285.063 853.175 293.554 1004.89 278.198" stroke="white" stroke-width="1.953" stroke-miterlimit="10" stroke-linecap="round" stroke-linejoin="round"/>
<path d="M853.18 258.495L314.357 258.495L314.357 242.112L853.18 242.112L853.18 258.495Z" stroke="white" stroke-width="1.953" stroke-miterlimit="10" stroke-linecap="round" stroke-linejoin="round"/>
<path d="M393.979 242.11V258.494" stroke="white" stroke-width="1.953" stroke-miterlimit="10" stroke-linecap="round" stroke-linejoin="round"/>
<path d="M409.68 242.11V258.494" stroke="white" stroke-width="1.953" stroke-miterlimit="10" stroke-linecap="round" stroke-linejoin="round"/>
<path d="M425.656 242.11V258.494" stroke="white" stroke-width="1.953" stroke-miterlimit="10" stroke-linecap="round" stroke-linejoin="round"/>
<path d="M441.357 242.11V258.494" stroke="white" stroke-width="1.953" stroke-miterlimit="10" stroke-linecap="round" stroke-linejoin="round"/>
<path d="M457.438 242.11V258.494" stroke="white" stroke-width="1.953" stroke-miterlimit="10" stroke-linecap="round" stroke-linejoin="round"/>
<path d="M473.139 242.11V258.494" stroke="white" stroke-width="1.953" stroke-miterlimit="10" stroke-linecap="round" stroke-linejoin="round"/>
<path d="M489.115 242.11V258.494" stroke="white" stroke-width="1.953" stroke-miterlimit="10" stroke-linecap="round" stroke-linejoin="round"/>
<path d="M504.818 242.11V258.494" stroke="white" stroke-width="1.953" stroke-miterlimit="10" stroke-linecap="round" stroke-linejoin="round"/>
<path d="M520.264 242.11V258.494" stroke="white" stroke-width="1.953" stroke-miterlimit="10" stroke-linecap="round" stroke-linejoin="round"/>
<path d="M535.947 242.11V258.494" stroke="white" stroke-width="1.953" stroke-miterlimit="10" stroke-linecap="round" stroke-linejoin="round"/>
<path d="M551.941 242.11V258.494" stroke="white" stroke-width="1.953" stroke-miterlimit="10" stroke-linecap="round" stroke-linejoin="round"/>
<path d="M567.627 242.11V258.494" stroke="white" stroke-width="1.953" stroke-miterlimit="10" stroke-linecap="round" stroke-linejoin="round"/>
<path d="M583.773 242.11V258.494" stroke="white" stroke-width="1.953" stroke-miterlimit="10" stroke-linecap="round" stroke-linejoin="round"/>
<path d="M599.373 242.11V258.494" stroke="white" stroke-width="1.953" stroke-miterlimit="10" stroke-linecap="round" stroke-linejoin="round"/>
<path d="M759.271 242.11V258.494" stroke="white" stroke-width="1.953" stroke-miterlimit="10" stroke-linecap="round" stroke-linejoin="round"/>
<path d="M774.973 242.11V258.494" stroke="white" stroke-width="1.953" stroke-miterlimit="10" stroke-linecap="round" stroke-linejoin="round"/>
<path d="M790.949 242.11V258.494" stroke="white" stroke-width="1.953" stroke-miterlimit="10" stroke-linecap="round" stroke-linejoin="round"/>
<path d="M806.652 242.11V258.494" stroke="white" stroke-width="1.953" stroke-miterlimit="10" stroke-linecap="round" stroke-linejoin="round"/>
<path d="M822.781 242.11V258.494" stroke="white" stroke-width="1.953" stroke-miterlimit="10" stroke-linecap="round" stroke-linejoin="round"/>
<path d="M838.381 242.11V258.494" stroke="white" stroke-width="1.953" stroke-miterlimit="10" stroke-linecap="round" stroke-linejoin="round"/>
<path d="M35.0542 375.469C35.0542 375.469 89.9347 346.383 115.723 347.445C141.408 348.506 145.295 371.977 160.808 374.117C166.237 374.117 205.329 361.397 235.004 359.103C257.23 357.374 255.21 372.747 262.967 374.117C270.724 375.486 294.388 366.858 309.2 365.386C326.066 363.708 318.464 378.242 330.33 378.516C342.197 378.773 347.762 374.87 368.002 368.707C397.094 362.732 383.173 380.69 389.115 380.228C395.057 379.766 423.464 372.234 446.187 369.957C478.91 366.687 463.996 381.153 477.009 380.228C490.023 379.304 518.619 372.353 530.657 370.71C549.184 368.176 548.363 384.919 553.482 385.929" stroke="white" stroke-width="1.953" stroke-miterlimit="10" stroke-linecap="round" stroke-linejoin="round"/>
<path d="M941.637 254.282L859.444 44.8623L797.03 226.069" stroke="white" stroke-width="1.953" stroke-miterlimit="10" stroke-linecap="round" stroke-linejoin="round"/>
<path d="M915.969 256.627L859.444 104.591L822.783 225.504" stroke="white" stroke-width="1.953" stroke-miterlimit="10" stroke-linecap="round" stroke-linejoin="round"/>
<path d="M145.072 344.124C143.285 344.124 141.836 342.675 141.836 340.888C141.836 339.101 143.285 337.653 145.072 337.653C146.86 337.653 148.309 339.101 148.309 340.888C148.309 342.675 146.86 344.124 145.072 344.124Z" fill="white" stroke="white" stroke-width="1.953" stroke-miterlimit="10" stroke-linecap="round" stroke-linejoin="round"/>
<path d="M184.473 344.124C182.685 344.124 181.236 342.675 181.236 340.888C181.236 339.101 182.685 337.653 184.473 337.653C186.26 337.653 187.709 339.101 187.709 340.888C187.709 342.675 186.26 344.124 184.473 344.124Z" fill="white" stroke="white" stroke-width="1.953" stroke-miterlimit="10" stroke-linecap="round" stroke-linejoin="round"/>
<path d="M223.875 344.124C222.088 344.124 220.639 342.675 220.639 340.888C220.639 339.101 222.088 337.653 223.875 337.653C225.662 337.653 227.111 339.101 227.111 340.888C227.111 342.675 225.662 344.124 223.875 344.124Z" fill="white" stroke="white" stroke-width="1.953" stroke-miterlimit="10" stroke-linecap="round" stroke-linejoin="round"/>
<path d="M263.258 344.124C261.47 344.124 260.021 342.675 260.021 340.888C260.021 339.101 261.47 337.653 263.258 337.653C265.045 337.653 266.494 339.101 266.494 340.888C266.494 342.675 265.045 344.124 263.258 344.124Z" fill="white" stroke="white" stroke-width="1.953" stroke-miterlimit="10" stroke-linecap="round" stroke-linejoin="round"/>
<path d="M302.66 344.124C300.873 344.124 299.424 342.675 299.424 340.888C299.424 339.101 300.873 337.653 302.66 337.653C304.448 337.653 305.896 339.101 305.896 340.888C305.896 342.675 304.448 344.124 302.66 344.124Z" fill="white" stroke="white" stroke-width="1.953" stroke-miterlimit="10" stroke-linecap="round" stroke-linejoin="round"/>
<path d="M342.061 344.124C340.273 344.124 338.824 342.675 338.824 340.888C338.824 339.101 340.273 337.653 342.061 337.653C343.848 337.653 345.297 339.101 345.297 340.888C345.297 342.675 343.848 344.124 342.061 344.124Z" fill="white" stroke="white" stroke-width="1.953" stroke-miterlimit="10" stroke-linecap="round" stroke-linejoin="round"/>
<path d="M381.461 344.124C379.674 344.124 378.225 342.675 378.225 340.888C378.225 339.101 379.674 337.653 381.461 337.653C383.248 337.653 384.697 339.101 384.697 340.888C384.697 342.675 383.248 344.124 381.461 344.124Z" fill="white" stroke="white" stroke-width="1.953" stroke-miterlimit="10" stroke-linecap="round" stroke-linejoin="round"/>
<path d="M420.846 344.124C419.058 344.124 417.609 342.675 417.609 340.888C417.609 339.101 419.058 337.653 420.846 337.653C422.633 337.653 424.082 339.101 424.082 340.888C424.082 342.675 422.633 344.124 420.846 344.124Z" fill="white" stroke="white" stroke-width="1.953" stroke-miterlimit="10" stroke-linecap="round" stroke-linejoin="round"/>
<path d="M460.246 344.124C458.459 344.124 457.01 342.675 457.01 340.888C457.01 339.101 458.459 337.653 460.246 337.653C462.033 337.653 463.482 339.101 463.482 340.888C463.482 342.675 462.033 344.124 460.246 344.124Z" fill="white" stroke="white" stroke-width="1.953" stroke-miterlimit="10" stroke-linecap="round" stroke-linejoin="round"/>
<path d="M499.646 344.124C497.859 344.124 496.41 342.675 496.41 340.888C496.41 339.101 497.859 337.653 499.646 337.653C501.434 337.653 502.883 339.101 502.883 340.888C502.883 342.675 501.434 344.124 499.646 344.124Z" fill="white" stroke="white" stroke-width="1.953" stroke-miterlimit="10" stroke-linecap="round" stroke-linejoin="round"/>
<path d="M539.047 344.124C537.259 344.124 535.811 342.675 535.811 340.888C535.811 339.101 537.259 337.653 539.047 337.653C540.834 337.653 542.283 339.101 542.283 340.888C542.283 342.675 540.834 344.124 539.047 344.124Z" fill="white" stroke="white" stroke-width="1.953" stroke-miterlimit="10" stroke-linecap="round" stroke-linejoin="round"/>
<path d="M578.432 344.124C576.644 344.124 575.195 342.675 575.195 340.888C575.195 339.101 576.644 337.653 578.432 337.653C580.219 337.653 581.668 339.101 581.668 340.888C581.668 342.675 580.219 344.124 578.432 344.124Z" fill="white" stroke="white" stroke-width="1.953" stroke-miterlimit="10" stroke-linecap="round" stroke-linejoin="round"/>
<path d="M145.072 314.541C143.285 314.541 141.836 313.093 141.836 311.306C141.836 309.519 143.285 308.07 145.072 308.07C146.86 308.07 148.309 309.519 148.309 311.306C148.309 313.093 146.86 314.541 145.072 314.541Z" fill="white" stroke="white" stroke-width="1.953" stroke-miterlimit="10" stroke-linecap="round" stroke-linejoin="round"/>
<path d="M184.473 314.541C182.685 314.541 181.236 313.093 181.236 311.306C181.236 309.519 182.685 308.07 184.473 308.07C186.26 308.07 187.709 309.519 187.709 311.306C187.709 313.093 186.26 314.541 184.473 314.541Z" fill="white" stroke="white" stroke-width="1.953" stroke-miterlimit="10" stroke-linecap="round" stroke-linejoin="round"/>
<path d="M223.875 314.541C222.088 314.541 220.639 313.093 220.639 311.306C220.639 309.519 222.088 308.07 223.875 308.07C225.662 308.07 227.111 309.519 227.111 311.306C227.111 313.093 225.662 314.541 223.875 314.541Z" fill="white" stroke="white" stroke-width="1.953" stroke-miterlimit="10" stroke-linecap="round" stroke-linejoin="round"/>
<path d="M263.258 314.541C261.47 314.541 260.021 313.093 260.021 311.306C260.021 309.519 261.47 308.07 263.258 308.07C265.045 308.07 266.494 309.519 266.494 311.306C266.494 313.093 265.045 314.541 263.258 314.541Z" fill="white" stroke="white" stroke-width="1.953" stroke-miterlimit="10" stroke-linecap="round" stroke-linejoin="round"/>
<path d="M302.66 314.541C300.873 314.541 299.424 313.093 299.424 311.306C299.424 309.519 300.873 308.07 302.66 308.07C304.448 308.07 305.896 309.519 305.896 311.306C305.896 313.093 304.448 314.541 302.66 314.541Z" fill="white" stroke="white" stroke-width="1.953" stroke-miterlimit="10" stroke-linecap="round" stroke-linejoin="round"/>
<path d="M342.061 314.541C340.273 314.541 338.824 313.093 338.824 311.306C338.824 309.519 340.273 308.07 342.061 308.07C343.848 308.07 345.297 309.519 345.297 311.306C345.297 313.093 343.848 314.541 342.061 314.541Z" fill="white" stroke="white" stroke-width="1.953" stroke-miterlimit="10" stroke-linecap="round" stroke-linejoin="round"/>
<path d="M381.461 314.541C379.674 314.541 378.225 313.093 378.225 311.306C378.225 309.519 379.674 308.07 381.461 308.07C383.248 308.07 384.697 309.519 384.697 311.306C384.697 313.093 383.248 314.541 381.461 314.541Z" fill="white" stroke="white" stroke-width="1.953" stroke-miterlimit="10" stroke-linecap="round" stroke-linejoin="round"/>
<path d="M420.846 314.541C419.058 314.541 417.609 313.093 417.609 311.306C417.609 309.519 419.058 308.07 420.846 308.07C422.633 308.07 424.082 309.519 424.082 311.306C424.082 313.093 422.633 314.541 420.846 314.541Z" fill="white" stroke="white" stroke-width="1.953" stroke-miterlimit="10" stroke-linecap="round" stroke-linejoin="round"/>
<path d="M460.246 314.541C458.459 314.541 457.01 313.093 457.01 311.306C457.01 309.519 458.459 308.07 460.246 308.07C462.033 308.07 463.482 309.519 463.482 311.306C463.482 313.093 462.033 314.541 460.246 314.541Z" fill="white" stroke="white" stroke-width="1.953" stroke-miterlimit="10" stroke-linecap="round" stroke-linejoin="round"/>
<path d="M499.646 314.541C497.859 314.541 496.41 313.093 496.41 311.306C496.41 309.519 497.859 308.07 499.646 308.07C501.434 308.07 502.883 309.519 502.883 311.306C502.883 313.093 501.434 314.541 499.646 314.541Z" fill="white" stroke="white" stroke-width="1.953" stroke-miterlimit="10" stroke-linecap="round" stroke-linejoin="round"/>
<path d="M539.047 314.541C537.259 314.541 535.811 313.093 535.811 311.306C535.811 309.519 537.259 308.07 539.047 308.07C540.834 308.07 542.283 309.519 542.283 311.306C542.283 313.093 540.834 314.541 539.047 314.541Z" fill="white" stroke="white" stroke-width="1.953" stroke-miterlimit="10" stroke-linecap="round" stroke-linejoin="round"/>
<path d="M578.432 314.541C576.644 314.541 575.195 313.093 575.195 311.306C575.195 309.519 576.644 308.07 578.432 308.07C580.219 308.07 581.668 309.519 581.668 311.306C581.668 313.093 580.219 314.541 578.432 314.541Z" fill="white" stroke="white" stroke-width="1.953" stroke-miterlimit="10" stroke-linecap="round" stroke-linejoin="round"/>
</svg>
