<svg width="484" height="475" viewBox="0 0 484 475" fill="none" xmlns="http://www.w3.org/2000/svg">
<g clip-path="url(#clip0)">
<path d="M107.325 449.657L103.746 454.795L107.325 462.683L110.783 459.55L107.325 449.657Z" stroke="white" stroke-width="2" stroke-miterlimit="10" stroke-linecap="round" stroke-linejoin="round"/>
<path d="M123.875 473.797C124.725 469.788 129.089 464.79 132.304 462.431" stroke="white" stroke-width="2" stroke-miterlimit="10" stroke-linecap="round" stroke-linejoin="round"/>
<path d="M457.442 242.283C454.087 242.022 449.078 241.808 444.826 241.761" stroke="white" stroke-width="2" stroke-miterlimit="10" stroke-linecap="round" stroke-linejoin="round"/>
<path d="M441.826 241.752C437.256 241.77 432.331 241.957 428.715 242.218" stroke="white" stroke-width="2" stroke-miterlimit="10" stroke-linecap="round" stroke-linejoin="round"/>
<path d="M440.602 269.351C441.247 269.36 441.901 269.36 442.574 269.36C443.77 269.36 444.966 269.351 446.116 269.323C451.302 269.23 455.965 268.968 459.582 268.577C459.591 268.577 459.591 268.577 459.591 268.577C464.291 268.064 467.216 267.355 467.216 266.554V244.54C467.216 244.54 468.721 232.922 467.216 232.922C466.301 232.922 461.254 238.171 457.442 242.274C455.012 244.913 453.068 247.076 453.068 247.076V247.085C449.891 247.253 446.321 247.346 442.565 247.346C439.341 247.346 436.247 247.281 433.435 247.15C432.865 246.544 430.968 244.53 428.706 242.218C424.688 238.087 419.492 232.931 418.595 232.931C417.081 232.931 417.931 244.549 417.931 244.549V264.642" stroke="white" stroke-width="2" stroke-miterlimit="10" stroke-linecap="round" stroke-linejoin="round"/>
<path d="M444.835 223.094H441.816V244.549H444.835V223.094Z" stroke="white" stroke-width="2" stroke-miterlimit="10" stroke-linecap="round" stroke-linejoin="round"/>
<path d="M443.331 219.542C443.331 219.542 437.865 218.619 439.089 215.421C440.313 212.223 441.537 212.95 442.574 208.997C445.406 212.018 448.518 216.064 443.331 219.542Z" fill="url(#paint0_linear)"/>
<path d="M359.273 330.674V331.812C359.152 331.663 359.039 331.523 358.918 331.374V331.364C359.049 331.122 359.161 330.898 359.273 330.674Z" fill="url(#paint1_linear)"/>
<path d="M339.574 370.553L345.256 380.996L366.039 358.506L372.179 380.996L383.991 360.996L358.928 332.856L339.574 370.553Z" stroke="white" stroke-width="2" stroke-miterlimit="10" stroke-linecap="round" stroke-linejoin="round"/>
<path d="M390.271 195.831C400.27 199.234 407.914 230.19 407.914 230.19L384.598 215.113C384.598 215.113 354.573 222.563 352.059 223.188C344.91 224.941 336.93 226.563 328.725 227.635C328.622 227.645 328.52 227.654 328.417 227.673C320.932 228.633 285.739 254.041 278.328 253.752C322.118 208.931 318.165 190.293 351.377 182.712" stroke="white" stroke-width="2" stroke-miterlimit="10" stroke-linecap="round" stroke-linejoin="round"/>
<path d="M367.732 313.472L367.713 313.481" stroke="white" stroke-width="2" stroke-miterlimit="10" stroke-linecap="round" stroke-linejoin="round"/>
<path d="M126.1 442.506L126.38 459.336L132.305 462.431L140.323 466.608C140.323 466.608 146.771 471.084 145.145 471.793C134.931 476.249 115.41 472.79 115.41 472.79L107.326 449.657C107.326 449.657 111.765 443.392 113.167 441.415" stroke="white" stroke-width="2" stroke-miterlimit="10" stroke-linecap="round" stroke-linejoin="round"/>
<path d="M372.029 282.302C377.477 281.807 381.879 279.281 383.823 273.341" stroke="white" stroke-width="2" stroke-miterlimit="10" stroke-linecap="round" stroke-linejoin="round"/>
<path d="M324.502 229.043L331.604 256.586L332.268 268.53C332.268 268.53 332.987 268.987 334.267 269.733" stroke="white" stroke-width="2" stroke-miterlimit="10" stroke-linecap="round" stroke-linejoin="round"/>
<path d="M391.495 242.097C390.673 246.731 389.355 253.435 388.393 257.808" stroke="white" stroke-width="2" stroke-miterlimit="10" stroke-linecap="round" stroke-linejoin="round"/>
<path d="M332.266 268.53L322.127 301.406L359.273 311.243L367.711 313.481L367.73 313.472L382.822 301.612L383.074 301.406L383.99 272.931" stroke="white" stroke-width="2" stroke-miterlimit="10" stroke-linecap="round" stroke-linejoin="round"/>
<path d="M342.304 263.971C338.753 263.187 335.211 265.444 334.435 268.978L334.267 269.733L333.052 275.225C332.267 278.758 334.529 282.292 338.07 283.075C341.612 283.859 345.154 281.602 345.939 278.068L346.397 275.989L347.322 271.821C347.425 271.346 347.481 270.87 347.481 270.404C347.481 267.383 345.369 264.651 342.304 263.971Z" stroke="white" stroke-width="2" stroke-miterlimit="10" stroke-linecap="round" stroke-linejoin="round"/>
<path d="M360.405 273.295C360.405 273.556 360.387 273.826 360.359 274.097C360.359 274.106 360.349 274.125 360.349 274.143C360.321 274.33 360.284 274.525 360.246 274.712L358.929 280.661L358.854 281.006C358.817 281.183 358.77 281.351 358.723 281.518C357.714 284.782 354.322 286.796 350.93 286.05C347.36 285.257 345.089 281.705 345.874 278.143L347.266 271.849C348.051 268.288 351.621 266.022 355.191 266.805C356.406 267.076 357.471 267.663 358.312 268.465C355.565 271.206 353.079 273.696 351.406 275.374C353.658 274.581 356.985 273.425 360.321 272.269C360.377 272.605 360.405 272.95 360.405 273.295Z" stroke="white" stroke-width="2" stroke-miterlimit="10" stroke-linecap="round" stroke-linejoin="round"/>
<path d="M373.254 276.083C373.254 276.549 373.198 277.024 373.095 277.5L372.03 282.302L371.712 283.747C370.927 287.281 367.395 289.537 363.844 288.754C360.517 288.017 358.321 284.847 358.713 281.537C358.713 281.537 358.713 281.528 358.723 281.518C358.741 281.313 358.779 281.108 358.825 280.903L358.881 280.642L360.208 274.656C360.246 274.479 360.293 274.311 360.349 274.143C360.349 274.125 360.358 274.106 360.358 274.097C360.638 273.229 361.078 272.456 361.648 271.803C363.143 270.059 365.507 269.155 367.899 269.621H367.909C367.965 269.621 368.021 269.64 368.077 269.649C368.385 269.714 368.684 269.808 368.965 269.919L365.442 277.006L372.544 273.146C373.002 274.041 373.254 275.048 373.254 276.083Z" stroke="white" stroke-width="2" stroke-miterlimit="10" stroke-linecap="round" stroke-linejoin="round"/>
<path d="M388.795 138.386C391.327 138.806 396.177 140.922 397.018 141.538C397.018 141.538 397.018 141.538 397.046 141.538" stroke="white" stroke-width="2" stroke-miterlimit="10" stroke-linecap="round" stroke-linejoin="round"/>
<path d="M376.431 136.736C372.871 139.375 369.834 142.834 367.264 146.722C358.881 167.57 351.387 182.712 351.387 182.712" stroke="white" stroke-width="2" stroke-miterlimit="10" stroke-linecap="round" stroke-linejoin="round"/>
<path d="M404.045 150.582C406.652 157.062 405.718 163.3 405.718 163.3C405.718 163.3 405.054 165.976 404.11 169.677V169.687" stroke="white" stroke-width="2" stroke-miterlimit="10" stroke-linecap="round" stroke-linejoin="round"/>
<path d="M401.307 180.661C400.728 182.927 400.167 185.071 399.69 186.834C400.774 189.342 398.943 195.617 397.223 195.962C394.448 197.332 389.327 196.074 383.58 193.062C382.159 192.316 380.72 191.468 379.253 190.545H379.244L379.234 190.535" stroke="white" stroke-width="2" stroke-miterlimit="10" stroke-linecap="round" stroke-linejoin="round"/>
<path d="M395.392 163.738L383.674 160.857C383.674 160.857 386.571 166.377 390.496 167.747C393.869 167.915 395.392 163.738 395.392 163.738Z" fill="url(#paint2_linear)"/>
<path d="M379.253 190.544L373.553 178.899L375.44 168.689L391.644 174.274L403.811 182.321L404.111 169.677" stroke="white" stroke-width="2" stroke-miterlimit="10" stroke-linecap="round" stroke-linejoin="round"/>
<path d="M376.432 136.736C382.431 129.519 392.383 122.06 396.71 119.542C393.766 123.99 390.159 134.591 388.786 138.386" stroke="white" stroke-width="2" stroke-miterlimit="10" stroke-linecap="round" stroke-linejoin="round"/>
<path d="M397.018 141.547C397.018 141.547 403.849 133.957 414.249 127.57C407.465 136.745 404.036 150.591 404.036 150.591" stroke="white" stroke-width="2" stroke-miterlimit="10" stroke-linecap="round" stroke-linejoin="round"/>
<path d="M400.13 185.137C400.13 185.137 394.71 185.938 387.916 182.321" stroke="white" stroke-width="2" stroke-miterlimit="10" stroke-linecap="round" stroke-linejoin="round"/>
<path d="M483.065 464.203L455.563 472.688L437.182 473.21L433.892 454.301C433.864 454.254 433.836 454.198 433.799 454.152L410.175 417.956C410.016 417.732 409.867 417.499 409.717 417.266C409.717 417.257 409.708 417.247 409.708 417.238C408.801 415.877 407.923 414.534 407.072 413.201C406.97 413.061 406.867 412.902 406.773 412.753L421.884 390.18L440.621 451.961L462.805 459.224L472.337 455.597L483.065 464.203Z" stroke="white" stroke-width="2" stroke-miterlimit="10" stroke-linecap="round" stroke-linejoin="round"/>
<path d="M358.928 332.856V332.866C359.04 333.024 359.152 333.183 359.273 333.332C363.002 338.236 367.376 343.439 372.543 348.893C378.038 354.712 384.449 360.809 391.859 367.14C389.009 373.434 390.177 381.005 393.84 389.676C396.793 396.679 401.372 404.39 406.774 412.753C406.867 412.912 406.97 413.07 407.073 413.201C407.923 414.534 408.801 415.877 409.708 417.238C409.708 417.247 409.717 417.257 409.717 417.266C409.867 417.49 410.016 417.723 410.175 417.956C417.511 429.042 425.959 441.163 433.799 454.152C433.836 454.198 433.864 454.254 433.892 454.301" stroke="white" stroke-width="2" stroke-miterlimit="10" stroke-linecap="round" stroke-linejoin="round"/>
<path d="M382.822 301.621L388.71 315.252L402.278 342.413L415.296 368.483L421.734 389.686L421.884 390.18L440.62 451.96" stroke="white" stroke-width="2" stroke-miterlimit="10" stroke-linecap="round" stroke-linejoin="round"/>
<path d="M356.93 337.08C357.631 335.588 358.303 334.19 358.92 332.875V332.866C359.042 332.614 359.154 332.381 359.275 332.138C363.275 323.747 365.798 318.712 367.723 314.087L367.732 314.078" stroke="white" stroke-width="2" stroke-miterlimit="10" stroke-linecap="round" stroke-linejoin="round"/>
<path d="M289.636 405.872L276.282 429.154L263.9 444.445L282.553 460.753L312.232 469.685L304.859 462.245L296.252 450.627L283.964 435.019L319.699 398.534L328.361 389.686L331.221 386.767C331.221 386.767 338.482 372.66 345.453 359.168C350.228 349.938 354.864 341.005 356.929 337.08" stroke="white" stroke-width="2" stroke-miterlimit="10" stroke-linecap="round" stroke-linejoin="round"/>
<path d="M319.699 398.534L289.637 405.872L299.365 389.686L312.952 367.066L314.055 359.168L320.428 313.518L322.129 301.406" stroke="white" stroke-width="2" stroke-miterlimit="10" stroke-linecap="round" stroke-linejoin="round"/>
<path d="M391.494 242.106C393.017 240.027 394.821 237.239 396.419 233.892V233.882C397.755 231.113 398.877 228.176 399.615 224.819" stroke="white" stroke-width="2" stroke-miterlimit="10" stroke-linecap="round" stroke-linejoin="round"/>
<path d="M328.725 227.635C331.07 234.759 340.845 262.283 352.862 266.47" stroke="white" stroke-width="2" stroke-miterlimit="10" stroke-linecap="round" stroke-linejoin="round"/>
<path d="M362.441 249.882C360.338 244.474 354.18 228.633 352.059 223.188" stroke="white" stroke-width="2" stroke-miterlimit="10" stroke-linecap="round" stroke-linejoin="round"/>
<path d="M359.274 267.486L352.863 266.469" stroke="white" stroke-width="2" stroke-miterlimit="10" stroke-linecap="round" stroke-linejoin="round"/>
<path d="M406.129 255.971L406.092 255.961C401.363 253.836 395.055 246.647 393.121 240.148" stroke="white" stroke-width="2" stroke-miterlimit="10" stroke-linecap="round" stroke-linejoin="round"/>
<path d="M415.998 243.738L407.803 229.854V229.836" stroke="white" stroke-width="2" stroke-miterlimit="10" stroke-linecap="round" stroke-linejoin="round"/>
<path d="M417.932 262.283L406.129 255.971L406.092 255.961" stroke="white" stroke-width="2" stroke-miterlimit="10" stroke-linecap="round" stroke-linejoin="round"/>
<path d="M417.932 245.239L415.998 243.738" stroke="white" stroke-width="2" stroke-miterlimit="10" stroke-linecap="round" stroke-linejoin="round"/>
<path d="M439.826 272.614C460.03 279.29 461.413 272.148 462.179 268.838C461.488 268.838 460.609 268.744 459.6 268.577C459.6 268.577 459.6 268.577 459.591 268.577" stroke="white" stroke-width="2" stroke-miterlimit="10" stroke-linecap="round" stroke-linejoin="round"/>
<path d="M360.32 272.269C360.76 272.111 361.208 271.952 361.647 271.803C363.918 271.01 366.114 270.236 367.899 269.621H367.908C368.441 269.425 368.927 269.257 369.376 269.099L368.964 269.919" stroke="white" stroke-width="2" stroke-miterlimit="10" stroke-linecap="round" stroke-linejoin="round"/>
<path d="M362.441 249.882C362.441 249.882 402.858 261.985 414.016 265.509C425.267 263.365 439.163 259.104 423.436 268.829C426.099 269.155 437.107 269.351 440.602 269.351C439.079 277.546 433.724 278.395 409.652 275.355L409.727 275.374C406.531 275.206 386.673 271.868 386.103 271.766C384.776 272.493 378.337 276.045 376.58 277.006L377.58 270.414L372.543 273.146" stroke="white" stroke-width="2" stroke-miterlimit="10" stroke-linecap="round" stroke-linejoin="round"/>
<path d="M358.311 268.465C363.768 262.992 370.263 256.484 373.487 253.257" stroke="white" stroke-width="2" stroke-miterlimit="10" stroke-linecap="round" stroke-linejoin="round"/>
<path d="M406.129 255.971C406.129 255.971 409.82 248.791 416.969 244.493" stroke="white" stroke-width="2" stroke-miterlimit="10" stroke-linecap="round" stroke-linejoin="round"/>
<path d="M274.273 180.316L267.32 181.743" stroke="white" stroke-width="2" stroke-miterlimit="10" stroke-linecap="round" stroke-linejoin="round"/>
<path d="M147.07 196.614C147.07 196.614 127.969 198.964 113.849 200.102C83.235 211.747 42.6875 236.465 42.6875 237.649C42.6968 243.794 48.5935 249.882 48.5935 249.882L121.895 224.708" stroke="white" stroke-width="2" stroke-miterlimit="10" stroke-linecap="round" stroke-linejoin="round"/>
<path d="M274.273 189.472L270.152 191.179" stroke="white" stroke-width="2" stroke-miterlimit="10" stroke-linecap="round" stroke-linejoin="round"/>
<path d="M128.352 338.749C139.958 361.537 171.665 421.825 193.598 444.902" stroke="white" stroke-width="2" stroke-miterlimit="10" stroke-linecap="round" stroke-linejoin="round"/>
<path d="M102.606 380.996L102.588 380.847C102.56 380.707 95.0462 331.551 94.5977 327.942" stroke="white" stroke-width="2" stroke-miterlimit="10" stroke-linecap="round" stroke-linejoin="round"/>
<path d="M112.588 439.131C114.195 445.657 115.831 451.466 117.475 456.249C122.989 461.555 126.381 459.336 126.381 459.336L126.101 442.506" stroke="white" stroke-width="2" stroke-miterlimit="10" stroke-linecap="round" stroke-linejoin="round"/>
<path d="M141.051 260.484C141.051 260.484 126.37 271.971 100.139 273.565C94.8965 273.882 84.9816 288.11 89.9437 307.253C90.3922 310.861 93.99 323.243 94.6068 327.942C69.413 344.977 55.2928 337.071 55.2928 337.071C55.2928 337.071 81.9164 318.236 89.953 307.243C24.9593 353.639 0.933594 317.481 0.933594 317.481C0.933594 317.481 68.9924 305.155 102.587 262.628C110.792 253.798 110.792 240.558 109.596 228.931" stroke="white" stroke-width="2" stroke-miterlimit="10" stroke-linecap="round" stroke-linejoin="round"/>
<path d="M148.014 196.885L163.18 208.931" stroke="white" stroke-width="2" stroke-miterlimit="10" stroke-linecap="round" stroke-linejoin="round"/>
<path d="M146.902 206.218C147.052 206.395 148.267 210.647 152.743 213.752" stroke="white" stroke-width="2" stroke-miterlimit="10" stroke-linecap="round" stroke-linejoin="round"/>
<path d="M156.162 263.654L153.471 271.98L156.826 284.241L176.375 235.579" stroke="white" stroke-width="2" stroke-miterlimit="10" stroke-linecap="round" stroke-linejoin="round"/>
<path d="M179.049 228.931L177.965 231.635" stroke="white" stroke-width="2" stroke-miterlimit="10" stroke-linecap="round" stroke-linejoin="round"/>
<path d="M151.433 185.09L147.125 195.654" stroke="white" stroke-width="2" stroke-miterlimit="10" stroke-linecap="round" stroke-linejoin="round"/>
<path d="M43.006 240.213C43.006 240.213 15.9806 242.376 9.96247 235.747C6.63569 239.066 8.7196 249.733 31.7641 249.882C25.8581 254.535 16.8216 254.964 20.3446 255.84C24.4938 256.875 37.885 256.167 47.4916 248.633" stroke="white" stroke-width="2" stroke-miterlimit="10" stroke-linecap="round" stroke-linejoin="round"/>
<path d="M197.626 448.79C197.626 448.79 197.374 457.014 201.206 459.177L204.906 463.149L211.027 461.713L211.644 459.485C211.644 459.485 238.155 464.417 247.061 444.958C241.491 443.121 234.969 445.359 232.053 445.629C226.708 444.902 218.11 444.138 214.447 440.734C214.737 446.012 205.186 456.221 197.626 448.79Z" stroke="white" stroke-width="2" stroke-miterlimit="10" stroke-linecap="round" stroke-linejoin="round"/>
<path d="M231.567 458.217C230.362 454.291 231.492 448.716 232.324 445.62" stroke="white" stroke-width="2" stroke-miterlimit="10" stroke-linecap="round" stroke-linejoin="round"/>
<path d="M197.832 452.221C200.682 452.809 210.681 456.249 211.653 459.476C208.569 459.597 203.243 458.841 201.505 459.485" stroke="white" stroke-width="2" stroke-miterlimit="10" stroke-linecap="round" stroke-linejoin="round"/>
<path d="M210.101 431.522V431.532C207.989 437.247 205.737 442.487 193.598 444.893" stroke="white" stroke-width="2" stroke-miterlimit="10" stroke-linecap="round" stroke-linejoin="round"/>
<path d="M208.363 435.644C208.363 435.644 213.036 440.828 214.447 441.266" stroke="white" stroke-width="2" stroke-miterlimit="10" stroke-linecap="round" stroke-linejoin="round"/>
<path d="M197.121 444.035L197.626 448.79" stroke="white" stroke-width="2" stroke-miterlimit="10" stroke-linecap="round" stroke-linejoin="round"/>
<path d="M102.588 380.847L109.279 437.48C109.279 437.48 121.894 443.252 132.174 442.012C131.548 436.548 128.296 337.08 128.296 337.08L126.67 303.607L144.789 270.908L128.09 277.379L117.381 270.908" stroke="white" stroke-width="2" stroke-miterlimit="10" stroke-linecap="round" stroke-linejoin="round"/>
<path d="M113.166 441.751C114.157 446.096 114.531 456.567 110.783 459.55" stroke="white" stroke-width="2" stroke-miterlimit="10" stroke-linecap="round" stroke-linejoin="round"/>
<path d="M183.898 198.806L226.474 187.645L262.48 177.733C262.48 177.733 273.908 183.738 269.124 194.517C267.423 194.806 264.61 195.663 261.284 196.82" stroke="white" stroke-width="2" stroke-miterlimit="10" stroke-linecap="round" stroke-linejoin="round"/>
<path d="M179.049 228.931L232.782 208.083C232.782 208.083 244.603 203.039 255.088 199.076" stroke="white" stroke-width="2" stroke-miterlimit="10" stroke-linecap="round" stroke-linejoin="round"/>
<path d="M331.604 256.586C328.314 243.859 324.502 229.043 324.502 229.043C316.745 232.446 285.739 254.041 278.338 253.752C252.499 275.001 220.596 311.271 182.113 343.681C178.936 346.357 175.908 348.828 173.049 351.075L182.254 370.488C191.178 364.148 204.737 354.469 204.737 354.469L212.998 376.791C219.848 371.495 233.669 355.029 233.669 355.029L238.183 379.019L261.9 358.199L265.33 379.019C265.33 379.019 284.347 364.707 283.253 358.814L287.449 380.092L306.298 360.101L305.12 380.092L312.951 367.057L322.128 301.397C322.128 301.397 328.725 277.453 332.267 268.512C332.09 265.416 331.819 260.53 331.604 256.586Z" stroke="white" stroke-width="2" stroke-miterlimit="10" stroke-linecap="round" stroke-linejoin="round"/>
<path d="M210.101 431.532L147.752 292.894L153.48 271.971" stroke="white" stroke-width="2" stroke-miterlimit="10" stroke-linecap="round" stroke-linejoin="round"/>
<path d="M147.127 195.654L141.053 260.484L136.642 218.544L143.286 211.085L134.979 206.945L147.127 195.654Z" stroke="white" stroke-width="2" stroke-miterlimit="10" stroke-linecap="round" stroke-linejoin="round"/>
<path d="M286.159 178.666C286.823 178.414 287.449 177.994 288.028 177.491L287.916 177.799C286.823 178.507 285.365 179.253 283.459 179.906C283.048 180.046 282.655 180.186 282.281 180.316C283.664 179.682 285.057 179.076 286.159 178.666Z" stroke="white" stroke-width="2" stroke-miterlimit="10" stroke-linecap="round" stroke-linejoin="round"/>
<path d="M328.183 69.6966L290.233 171.58L283.402 172.493L322.483 67.5801L328.183 69.6966Z" stroke="white" stroke-width="2" stroke-miterlimit="10" stroke-linecap="round" stroke-linejoin="round"/>
<path d="M439.528 114.461C430.567 87.7105 418.017 65.8738 403.56 48.0464C373.703 11.2634 326.25 -6.34028 279.563 2.06993C256.985 6.13518 233.221 14.4708 208.962 28.8484C207.803 29.5383 208.448 31.3006 209.775 31.1048C225.568 28.8017 242.323 34.7038 254.976 51.8413C255.369 52.3727 256.107 52.4753 256.649 52.0837C269.152 43.17 293.935 52.438 298.29 67.5148C298.477 68.1768 299.206 68.5032 299.86 68.2887C306.289 66.1908 314.513 65.5568 322.474 67.5708L328.184 69.6873C335.529 73.3516 341.323 79.1884 344.818 84.9693C345.173 85.5567 345.93 85.7805 346.5 85.4075C359.611 76.9693 384.982 87.9809 388.132 100.755C388.3 101.435 389.019 101.799 389.683 101.594C408.214 95.7758 426.539 103.272 437.426 115.636C438.323 116.652 439.949 115.72 439.528 114.461Z" fill="url(#paint3_linear)"/>
<path d="M283.459 179.906C282.16 180.344 281.085 180.754 280.188 181.118L276.871 190.013L275.824 192.829C274.03 197.631 268.685 200.074 263.872 198.283C262.91 197.929 262.041 197.426 261.284 196.82C258.237 194.386 256.948 190.2 258.387 186.358L252.733 184.27C250.799 189.454 251.883 195.029 255.088 199.076C256.77 201.202 259.041 202.908 261.77 203.924C269.666 206.852 278.506 202.88 281.487 195.039H281.497L283.179 190.526L287.917 177.799C286.823 178.507 285.365 179.253 283.459 179.906Z" stroke="white" stroke-width="2" stroke-miterlimit="10" stroke-linecap="round" stroke-linejoin="round"/>
<path d="M280.189 181.118L276.871 190.013C275.301 189.743 274.273 189.472 274.273 189.472L276.189 183.234C276.189 183.234 277.03 182.423 280.189 181.118Z" stroke="white" stroke-width="2" stroke-miterlimit="10" stroke-linecap="round" stroke-linejoin="round"/>
<path d="M290.925 187.486C289.373 189.696 286.28 190.433 283.178 190.526L287.916 177.799C290.205 176.307 290.925 174.964 290.925 174.964C290.925 174.964 294.7 182.106 290.925 187.486Z" stroke="white" stroke-width="2" stroke-miterlimit="10" stroke-linecap="round" stroke-linejoin="round"/>
<path d="M283.403 172.493L282.665 172.596L274.273 180.316L276.189 183.235C276.189 183.235 279.208 181.715 282.245 180.335C282.254 180.325 282.273 180.316 282.282 180.316C283.665 179.682 285.057 179.076 286.16 178.666C286.824 178.414 287.45 177.994 288.029 177.491L290.234 171.58L283.403 172.493Z" stroke="white" stroke-width="2" stroke-miterlimit="10" stroke-linecap="round" stroke-linejoin="round"/>
<path d="M292.233 171.309C292.233 171.309 290.55 175.281 288.027 177.491L290.233 171.58L292.233 171.309Z" stroke="white" stroke-width="2" stroke-miterlimit="10" stroke-linecap="round" stroke-linejoin="round"/>
<path d="M383.992 218.526C383.992 218.526 376.993 230.143 373.965 229.836C370.937 229.528 362.985 231.057 362.443 232.931C361.901 234.805 368.75 231.29 370.928 234.6C373.105 237.919 378.665 233.593 379.31 236.53C379.955 239.467 380.684 241.854 380.684 241.854L383.982 237.118C383.982 237.118 389.057 237.565 389.029 239.607C388.991 241.649 392.253 234.815 387.506 232.176C382.768 229.528 383.992 218.526 383.992 218.526Z" stroke="white" stroke-width="2" stroke-miterlimit="10" stroke-linecap="round" stroke-linejoin="round"/>
<path d="M186.954 152.698L182.375 142.89C177.787 132.475 171.282 140.363 171.282 140.363C171.282 140.363 165.563 134.209 145.603 135.44C125.651 136.671 145.603 147.347 145.603 147.347C145.603 147.347 141.211 148.577 141.211 154.731C126.474 155.561 142.93 165.817 142.93 165.817C143.098 166.358 144.565 170.144 144.734 170.675C140.734 170.815 125.81 167.608 117.39 161.118C119.68 161.911 122.278 159.067 123.278 155.766C117.699 155.626 112.681 151.803 110.793 146.172C115.615 151.915 125.474 130.293 141.052 124.037C150.256 120.335 163.321 123.636 170.217 127.039C168.329 121.65 162.283 120.298 162.283 120.298C162.283 120.298 170.217 120.298 177.833 123.682C193.626 132.223 186.954 152.698 186.954 152.698Z" fill="url(#paint4_linear)"/>
<path d="M181.264 139.766L186.955 152.699C186.955 152.699 178.32 159.477 145.604 159.477" stroke="white" stroke-width="2" stroke-miterlimit="10" stroke-linecap="round" stroke-linejoin="round"/>
<path d="M184.795 153.901C184.795 153.901 186.14 155.57 187.075 159.477C190.944 177.538 180.711 193.146 184.823 201.761C171.291 205.948 153.555 200.12 142.929 165.221C142.929 165.221 126.473 154.955 141.21 154.134C141.21 147.981 145.602 146.74 145.602 146.74C145.602 146.74 125.641 136.065 145.602 134.834C165.563 133.603 171.282 139.757 171.282 139.757C171.282 139.757 177.786 131.859 182.365 142.274" stroke="white" stroke-width="2" stroke-miterlimit="10" stroke-linecap="round" stroke-linejoin="round"/>
<path d="M169.441 158.377L168.777 158.563" stroke="white" stroke-width="2" stroke-miterlimit="10" stroke-linecap="round" stroke-linejoin="round"/>
<path d="M179.077 157.37C179.012 156.96 179.068 156.549 179.226 156.195L171.807 158.265C171.807 158.265 171.807 158.265 171.816 158.274C172.031 158.433 176.834 161.901 180.385 158.964C179.722 158.713 179.198 158.125 179.077 157.37Z" fill="white" stroke="white" stroke-width="2" stroke-miterlimit="10" stroke-linecap="round" stroke-linejoin="round"/>
<path d="M182.655 155.597C182.711 155.467 182.758 155.337 182.814 155.197L182.348 155.328C182.45 155.411 182.562 155.495 182.655 155.597Z" fill="white" stroke="white" stroke-width="2" stroke-miterlimit="10" stroke-linecap="round" stroke-linejoin="round"/>
<path d="M163.975 158.927C164.199 159.151 164.367 159.421 164.489 159.729C164.675 159.449 164.862 159.16 165.049 158.834L163.975 158.927Z" fill="white" stroke="white" stroke-width="2" stroke-miterlimit="10" stroke-linecap="round" stroke-linejoin="round"/>
<path d="M160.03 160.548C160.03 160.063 160.18 159.616 160.432 159.252L154.152 159.812C154.62 160.287 157.741 163.112 160.955 162.385C160.395 161.965 160.03 161.303 160.03 160.548Z" fill="white" stroke="white" stroke-width="2" stroke-miterlimit="10" stroke-linecap="round" stroke-linejoin="round"/>
<path d="M157.481 172.176C157.481 172.176 154.388 170.582 152.332 172.176" stroke="white" stroke-width="2" stroke-miterlimit="10" stroke-linecap="round" stroke-linejoin="round"/>
<path d="M177.309 178.656C184.01 176.941 183.898 171.309 183.898 171.309C183.281 181.137 180.814 184.764 180.814 191.384C162.488 195.384 163.049 186.684 154.9 172.176C163.152 178.293 169.301 180.708 177.309 178.656Z" fill="white" stroke="white" stroke-width="2" stroke-miterlimit="10" stroke-linecap="round" stroke-linejoin="round"/>
<path d="M167.992 158.144C167.992 158.144 169.73 158.19 174.104 167.496C176.16 172.288 177.617 174.619 177.617 174.619C177.617 174.619 171.562 172.82 167.992 170.629" stroke="white" stroke-width="2" stroke-miterlimit="10" stroke-linecap="round" stroke-linejoin="round"/>
<path d="M168.703 224.391C170.394 226.703 171.927 228.875 173.31 230.917L156.162 263.654C156.162 263.654 163.031 241.873 168.703 224.391Z" stroke="white" stroke-width="2" stroke-miterlimit="10" stroke-linecap="round" stroke-linejoin="round"/>
<path d="M176.245 212.969L178.189 221.603L174.731 228.204C172.732 226.097 170.891 224.167 169.33 222.488C169.769 221.127 170.199 219.803 170.629 218.526C171.461 215.962 172.255 213.584 172.947 211.495C174.685 206.349 175.89 202.964 176.086 202.908L181.404 211.7L176.245 212.969Z" stroke="white" stroke-width="2" stroke-miterlimit="10" stroke-linecap="round" stroke-linejoin="round"/>
<path d="M164.285 216.185C174.153 221.23 172.377 217.23 172.695 212.67C174.845 204.791 165.63 207.561 163.322 209.547C163.322 209.537 165.247 213.565 164.285 216.185Z" stroke="white" stroke-width="2" stroke-miterlimit="10" stroke-linecap="round" stroke-linejoin="round"/>
<path d="M163.322 209.537C161.396 207.178 152.351 202.787 153.07 210.917C152.575 215.467 151.248 219.188 161.854 215.962C161.378 213.22 163.322 209.537 163.322 209.537Z" stroke="white" stroke-width="2" stroke-miterlimit="10" stroke-linecap="round" stroke-linejoin="round"/>
<path d="M178.489 232.204C178.311 232.017 178.134 231.822 177.966 231.635C176.854 230.451 175.77 229.304 174.732 228.204C172.733 226.097 170.892 224.167 169.331 222.488C166.238 219.178 164.219 216.866 164.285 216.185L162.369 216.017C164.696 218.992 166.799 221.78 168.705 224.39C170.396 226.703 171.929 228.875 173.312 230.917C174.424 232.549 175.452 234.106 176.377 235.579C186.404 251.327 187.086 258.339 187.853 262.796C191.17 262.992 188.161 262.824 192.291 263.197C195.235 251.29 186.096 240.381 178.489 232.204Z" stroke="white" stroke-width="2" stroke-miterlimit="10" stroke-linecap="round" stroke-linejoin="round"/>
<path d="M144.781 270.908V283.756L149.276 286.703" stroke="white" stroke-width="2" stroke-miterlimit="10" stroke-linecap="round" stroke-linejoin="round"/>
<path d="M396.41 332.856L404.961 275.365" stroke="white" stroke-width="2" stroke-miterlimit="10" stroke-linecap="round" stroke-linejoin="round"/>
</g>
<defs>
<linearGradient id="paint0_linear" x1="442.584" y1="222.71" x2="442.396" y2="204.077" gradientUnits="userSpaceOnUse">
<stop offset="0.0806" stop-color="#3FFFD8"/>
<stop offset="0.4888" stop-color="#B9C3FC"/>
<stop offset="0.7876" stop-color="#FF7EA7"/>
</linearGradient>
<linearGradient id="paint1_linear" x1="358.921" y1="331.24" x2="359.272" y2="331.24" gradientUnits="userSpaceOnUse">
<stop stop-color="#3FFFD8"/>
<stop offset="0.4888" stop-color="#B9C3FC"/>
<stop offset="1" stop-color="#FF7EA7"/>
</linearGradient>
<linearGradient id="paint2_linear" x1="383.674" y1="164.304" x2="395.391" y2="164.304" gradientUnits="userSpaceOnUse">
<stop stop-color="#3FFFD8"/>
<stop offset="0.4888" stop-color="#B9C3FC"/>
<stop offset="1" stop-color="#FF7EA7"/>
</linearGradient>
<linearGradient id="paint3_linear" x1="219.524" y1="-0.305712" x2="450.53" y2="85.7444" gradientUnits="userSpaceOnUse">
<stop stop-color="#3FFFD8"/>
<stop offset="0.4888" stop-color="#B9C3FC"/>
<stop offset="1" stop-color="#FF7EA7"/>
</linearGradient>
<linearGradient id="paint4_linear" x1="110.79" y1="145.486" x2="188.353" y2="145.486" gradientUnits="userSpaceOnUse">
<stop stop-color="#3FFFD8"/>
<stop offset="0.4888" stop-color="#B9C3FC"/>
<stop offset="1" stop-color="#FF7EA7"/>
</linearGradient>
<clipPath id="clip0">
<rect width="484" height="475" fill="white"/>
</clipPath>
</defs>
</svg>
