<svg width="346" height="312" viewBox="0 0 346 312" fill="none" xmlns="http://www.w3.org/2000/svg">
<path d="M272.474 134.219C272.261 132.199 272.703 130.739 273.446 129.686C275.232 127.119 278.733 126.919 278.733 126.919C278.733 126.919 282.005 128.756 284.304 131.84C285.541 133.506 286.496 135.531 286.496 137.827" stroke="white" stroke-width="2" stroke-miterlimit="10" stroke-linecap="round" stroke-linejoin="round"/>
<path d="M272.297 156.63C273.511 157.43 275.35 158.107 277.254 158.425" stroke="white" stroke-width="2" stroke-miterlimit="10" stroke-linecap="round" stroke-linejoin="round"/>
<path d="M295.792 147.064C297.012 147.405 298.149 147.729 299.216 148.059C305.117 149.89 307.857 155.676 307.916 161.84C308.27 198.621 309.319 225.865 309.319 225.865C309.319 225.865 286.567 262.828 259.936 254.975C258.893 249.4 254.278 221.473 259.353 199.692" stroke="white" stroke-width="2" stroke-miterlimit="10" stroke-linecap="round" stroke-linejoin="round"/>
<path d="M267.198 179.841C268.978 176.798 271.053 173.79 273.464 170.858C276.794 166.396 279.564 162.122 281.816 158.325C286.219 150.878 287.404 149.095 288.164 147.853" stroke="white" stroke-width="2" stroke-miterlimit="10" stroke-linecap="round" stroke-linejoin="round"/>
<path d="M282.618 167.98C281.516 166.12 280.891 164.153 282.299 164.106C283.484 164.059 285.435 163.665 287.286 163.105" stroke="white" stroke-width="2" stroke-miterlimit="10" stroke-linecap="round" stroke-linejoin="round"/>
<path d="M288.164 147.853L290.104 143.962L291.394 141.189" stroke="white" stroke-width="2" stroke-miterlimit="10" stroke-linecap="round" stroke-linejoin="round"/>
<path d="M291.394 141.189L295.792 147.064V147.07C295.792 147.07 295.638 149.266 294.725 152.127" stroke="white" stroke-width="2" stroke-miterlimit="10" stroke-linecap="round" stroke-linejoin="round"/>
<path d="M302.942 150.019C293.334 148.753 292.839 155.829 287.286 163.105C283.537 168.021 265.66 183.556 256.117 184.38C251.431 185.322 252.309 187.983 252.309 187.983C252.309 187.983 248.961 190.232 245.89 190.202C248.554 191.067 253.5 195.371 251.831 202.299C252.085 203.677 259.341 199.68 259.341 199.68C259.341 199.68 260.82 201.575 263.367 200.404C265.913 199.232 279.936 207.709 290.08 191.915C295.786 183.032 296.741 175.267 300.407 176.327" stroke="white" stroke-width="2" stroke-miterlimit="10" stroke-linecap="round" stroke-linejoin="round"/>
<path d="M271.56 142.902C268.848 143.567 265.913 144.686 261.94 146.74C256.299 149.666 240.072 166.537 234.708 167.35C234.349 167.35 233.317 165.713 235.752 160.862C237.084 157.442 232.91 155.653 232.91 155.653C232.91 155.653 233.6 151.196 235.528 148.806C235.834 148.43 235.563 147.87 235.074 147.894C232.339 148.053 227.835 148.306 225.413 146.322C225.083 146.051 224.588 146.228 224.523 146.652C224.098 149.548 223.415 153.216 222.589 153.969C221.664 154.823 219.112 155.299 219.342 161.092C219.554 166.367 218.334 176.574 218.587 181.649" stroke="white" stroke-width="2" stroke-miterlimit="10" stroke-linecap="round" stroke-linejoin="round"/>
<path d="M224.588 184.463C227.252 185.222 265.795 159.403 277.885 141.101" stroke="white" stroke-width="2" stroke-miterlimit="10" stroke-linecap="round" stroke-linejoin="round"/>
<path d="M257.248 239.198C255.309 241.005 251.307 243.507 246.314 245.415" stroke="white" stroke-width="2" stroke-miterlimit="10" stroke-linecap="round" stroke-linejoin="round"/>
<path d="M211.089 235.49C217.202 243.178 228.325 247.705 237.909 247.705" stroke="white" stroke-width="2" stroke-miterlimit="10" stroke-linecap="round" stroke-linejoin="round"/>
<path d="M229.969 142.902C229.969 142.902 227.016 140.359 221.941 140.153C221.853 139.353 227.334 137.84 231.732 138.593C232.457 137.698 230.276 133.366 227.812 131.517C227.641 131.382 227.458 131.264 227.264 131.158C224.252 129.51 220.88 131.976 222.306 130.899C223.026 129.763 223.969 128.538 224.941 127.367C225.095 127.173 225.254 126.978 225.419 126.79C226.02 126.066 226.627 125.365 227.181 124.724C227.706 124.117 226.922 122.546 225.59 123.393C224.988 123.776 224.24 124.2 223.421 124.712C221.428 125.948 219.047 127.661 217.485 130.399C217.438 130.475 217.391 130.552 217.349 130.634C214.62 135.632 218.086 141.307 220.043 142.902C221.299 143.927 223.68 145.339 225.224 146.217C225.289 146.252 225.354 146.287 225.413 146.322C225.419 146.322 225.419 146.328 225.425 146.328C226.179 146.758 226.686 147.029 226.686 147.029" stroke="white" stroke-width="2" stroke-miterlimit="10" stroke-linecap="round" stroke-linejoin="round"/>
<path d="M229.969 131.446C234.814 136.191 236.418 144.774 235.074 147.894" stroke="white" stroke-width="2" stroke-miterlimit="10"/>
<path d="M230.323 187.147C226.727 185.375 222.242 183.315 218.587 181.649C213.07 179.135 207.96 177.039 204.653 176.262C183.893 168.804 143.522 221.473 131.274 232.369C131.875 240.493 142.715 246.139 142.715 246.139C142.715 246.139 161.353 237.467 176.896 222.803" stroke="white" stroke-width="2" stroke-miterlimit="10" stroke-linecap="round" stroke-linejoin="round"/>
<path d="M208.349 208.963C224.075 219.324 235.628 223.898 247.823 225.335C250.953 225.705 253.724 225.794 257.018 225.794" stroke="white" stroke-width="2" stroke-miterlimit="10" stroke-linecap="round" stroke-linejoin="round"/>
<path d="M208.349 208.963C194.344 193.357 189.133 198.62 189.133 198.62C174.456 213.278 162.231 281.17 162.036 282.318C161.807 283.708 174.58 285.474 180.692 283.231C185.856 277.326 209.469 238.326 217.161 225.364C217.579 224.651 218.334 223.857 219.129 224.08C225.218 225.799 231.637 226.523 239.253 225.799C239.365 225.799 251.784 225.817 257.024 225.799" stroke="white" stroke-width="2" stroke-miterlimit="10" stroke-linecap="round" stroke-linejoin="round"/>
<path d="M303.018 123.758C303.018 123.758 304.881 118.36 307.675 119.867C310.481 121.368 306.779 133.401 300.195 131.511" stroke="white" stroke-width="2" stroke-miterlimit="10"/>
<path d="M305.317 231.557H309.974V300.727H317.241V154.375H306.313L307.197 156.73L312.921 156.601V225.865H309.319" stroke="white" stroke-width="2" stroke-miterlimit="10" stroke-linecap="round" stroke-linejoin="round"/>
<path d="M257.018 225.793L237.909 225.864V300.726H246.314V231.557H257.248" stroke="white" stroke-width="2" stroke-miterlimit="10" stroke-linecap="round" stroke-linejoin="round"/>
<path d="M276.104 140.153L255.798 153.08C255.798 153.08 255.893 157.272 257.466 158.708C259.04 160.144 251.313 160.333 251.313 160.333C251.313 160.333 226.256 183.279 224.582 184.463" stroke="white" stroke-width="2" stroke-miterlimit="10" stroke-linecap="round" stroke-linejoin="round"/>
<path d="M288.913 145.969C286.178 147.217 280.69 149.56 278.15 149.118C278.15 149.118 278.15 154.563 277.26 158.425C277.095 159.149 276.894 159.82 276.659 160.386C277.566 160.856 278.828 160.933 280.46 160.58" stroke="white" stroke-width="2" stroke-miterlimit="10" stroke-linecap="round" stroke-linejoin="round"/>
<path d="M275.385 144.65C275.385 145.963 278.144 149.113 278.144 149.113C278.144 149.113 273.428 153.663 271.46 158.325C270.44 157.495 267.404 154.752 267.617 153.068" stroke="white" stroke-width="2" stroke-miterlimit="10" stroke-linecap="round" stroke-linejoin="round"/>
<path d="M272.297 207.616C275.038 211.118 279.57 216.64 287.893 217.035C288.654 220.737 288.265 226.506 288.164 228.196C288.064 229.885 276.275 234.695 270.481 234.789C269.126 226.671 268.518 206.244 272.297 207.616Z" stroke="white" stroke-width="2" stroke-miterlimit="10" stroke-linecap="round" stroke-linejoin="round"/>
<path d="M166.829 287.005C166.923 286.669 167.347 286.575 167.577 286.834C168.485 287.858 170.271 289.636 171.898 289.854C174.208 290.166 176.218 289.683 176.513 288.7C176.808 287.723 177.533 291.708 177.604 293.41V295.076L177.285 298.078C177.285 298.078 176.79 299.732 169.793 299.491C167.206 299.62 157.751 303.971 153.914 301.41C152.529 300.703 151.427 299.214 150.943 298.078C150.678 297.448 150.985 296.724 151.627 296.483C153.967 295.605 160.074 293.298 161.152 292.75C162.49 292.073 164.235 291.649 165.821 289.183C166.398 288.282 166.687 287.535 166.829 287.005Z" stroke="white" stroke-width="2" stroke-miterlimit="10" stroke-linecap="round" stroke-linejoin="round"/>
<path d="M176.183 284.144L176.224 289.247" stroke="white" stroke-width="2" stroke-miterlimit="10" stroke-linecap="round" stroke-linejoin="round"/>
<path d="M168.178 284.056L167.583 286.834" stroke="white" stroke-width="2" stroke-miterlimit="10" stroke-linecap="round" stroke-linejoin="round"/>
<path d="M177.545 295.729C177.545 295.729 174.191 297.16 170.766 297.112C170.017 297.101 169.287 297.283 168.603 297.577C166.157 298.631 160.816 299.779 156.083 299.738C150.89 299.691 150.99 297.054 150.99 297.054" stroke="white" stroke-width="2" stroke-miterlimit="10"/>
<path d="M129.222 239.387C129.222 239.387 128.191 243.195 129.6 245.032C131.008 246.875 132.765 247.952 133.661 247.469C134.309 247.122 132.081 250.012 130.79 251.649C130.23 252.355 129.6 252.997 128.898 253.562L127.596 254.616C127.596 254.616 126.081 255.434 121.324 250.342C119.414 248.611 105.698 243.678 109.329 235.843C109.529 235.407 109.971 235.142 110.408 235.342C112.459 236.272 118.795 239.133 119.986 239.522C121.407 239.987 123.794 239.928 126.576 239.392C128.757 238.969 129.222 239.387 129.222 239.387Z" stroke="white" stroke-width="2" stroke-miterlimit="10" stroke-linecap="round" stroke-linejoin="round"/>
<path d="M128.374 253.986C128.374 253.986 124.212 250.719 122.809 249.112C122.526 248.788 122.179 248.535 121.796 248.358C118.778 246.945 109.187 242.171 109.783 235.325" stroke="white" stroke-width="2" stroke-miterlimit="10" stroke-linecap="round" stroke-linejoin="round"/>
<path d="M137.816 242.765L133.449 247.168" stroke="white" stroke-width="2" stroke-miterlimit="10" stroke-linecap="round" stroke-linejoin="round"/>
<path d="M132.753 237.025L129.977 238.538" stroke="white" stroke-width="2" stroke-miterlimit="10" stroke-linecap="round" stroke-linejoin="round"/>
<path d="M230.258 134.619C230.258 134.619 226.438 133.524 225.095 133.766C223.751 134.001 221.405 135.861 221.187 136.191" stroke="white" stroke-width="2" stroke-miterlimit="10" stroke-linecap="round" stroke-linejoin="round"/>
<path d="M246.314 190.185C246.314 190.185 236.818 187.748 236.288 187.547C235.757 187.353 229.179 187.153 227.9 186.959C226.621 186.764 230.553 190.926 234.679 192.375C238.805 193.823 239.848 194.706 242.424 196.378C244.994 198.044 250.611 199.621 252.055 199.315" stroke="white" stroke-width="2" stroke-miterlimit="10" stroke-linecap="round" stroke-linejoin="round"/>
<path d="M252.055 202.588C252.055 202.588 247.47 200.54 245.896 198.008" stroke="white" stroke-width="2" stroke-miterlimit="10" stroke-linecap="round" stroke-linejoin="round"/>
<path d="M29.9611 105.173L25.3517 120.868C24.6326 123.322 25.1631 125.977 26.7782 127.967C31.3993 133.654 40.7596 145.174 42.3275 147.229C44.4259 149.978 50.1317 153.18 52.7488 154.098C55.3718 155.011 58.6432 162.599 56.7629 162.21C54.9356 161.828 50.9156 157.519 50.6681 157.248" stroke="white" stroke-width="2" stroke-miterlimit="10" stroke-linecap="round" stroke-linejoin="round"/>
<path d="M9.00073 130.716C4.76856 118.136 5.11044 91.4039 15.7203 80.6134C17.3354 78.9651 27.5385 77.2579 34.5764 75.1328" stroke="white" stroke-width="2" stroke-miterlimit="10" stroke-linecap="round" stroke-linejoin="round"/>
<path d="M38.4726 155.617C39.2448 156.135 39.7163 156.512 39.7811 156.712C39.8637 156.971 40.1407 157.513 40.571 158.237C42.7991 161.963 49.2534 170.581 56.2854 170.581C58.7316 170.581 50.9274 157.683 50.6681 157.248L50.6622 157.242C50.6563 157.236 50.6563 157.236 50.6563 157.236" stroke="white" stroke-width="2" stroke-miterlimit="10" stroke-linecap="round" stroke-linejoin="round"/>
<path d="M41.7558 65.1134C41.7263 60.8337 41.3549 56.3774 41.3549 56.3774" stroke="white" stroke-width="2" stroke-miterlimit="10"/>
<path d="M52.4423 69.7586L54.2401 70.9418L55.6253 69.6997" stroke="white" stroke-width="2" stroke-miterlimit="10" stroke-linecap="round" stroke-linejoin="round"/>
<path d="M43.0172 65.4492L45.7699 74.2441L46.5715 76.8107L55.3541 104.855L66.1055 138.622L73.0549 97.909L61.1306 76.7754" stroke="white" stroke-width="2" stroke-miterlimit="10" stroke-linecap="round" stroke-linejoin="round"/>
<path d="M58.5135 69.6997V67.8159" stroke="white" stroke-width="2" stroke-miterlimit="10" stroke-linecap="round" stroke-linejoin="round"/>
<path d="M26.5188 116.888C34.5764 130.928 42.8521 131.181 42.3275 142.43C41.6261 143.143 40.9541 143.885 40.2999 144.662" stroke="white" stroke-width="2" stroke-miterlimit="10" stroke-linecap="round" stroke-linejoin="round"/>
<path d="M42.6458 64.3428C42.6458 64.3428 68.2039 138.14 66.3707 160.639C64.5376 183.138 65.8284 220.749 56.1616 235.931C48.6699 247.705 22.098 244.626 22.098 244.626C22.098 244.626 17.3649 189.007 33.0026 156.241" stroke="white" stroke-width="2" stroke-miterlimit="10" stroke-linecap="round" stroke-linejoin="round"/>
<path d="M52.2713 71.3598C52.2713 71.3598 55.0888 70.4238 55.7903 71.3598C56.4917 72.2958 56.0261 74.5211 55.7903 75.2275C55.5545 75.928 52.2713 75.2275 52.2713 75.2275C52.2713 75.2275 51.5699 72.7079 52.2713 71.3598Z" stroke="white" stroke-width="2" stroke-miterlimit="10" stroke-linecap="round" stroke-linejoin="round"/>
<path d="M52.2713 75.2275C52.2713 75.2275 48.4577 76.764 46.5715 76.8111" stroke="white" stroke-width="2" stroke-miterlimit="10" stroke-linecap="round" stroke-linejoin="round"/>
<path d="M45.7698 74.2445C46.0587 73.5558 46.4064 72.9965 46.4064 72.9965C46.4064 72.9965 43.9426 68.0811 45.705 68.0811C47.4615 68.0811 52.2713 71.36 52.2713 71.36" stroke="white" stroke-width="2" stroke-miterlimit="10" stroke-linecap="round" stroke-linejoin="round"/>
<path d="M55.861 71.36C55.861 71.36 60.6708 68.0811 62.4274 68.0811C64.1898 68.0811 61.7259 72.9965 61.7259 72.9965C61.7259 72.9965 63.4884 75.8104 62.4274 76.6287C61.3723 77.4469 55.861 75.2217 55.861 75.2217" stroke="white" stroke-width="2" stroke-miterlimit="10" stroke-linecap="round" stroke-linejoin="round"/>
<path d="M92.7716 91.8281C92.9779 91.0216 93.0487 90.3564 93.2727 89.5617C93.4436 89.232 94.5282 81.3555 98.2121 77.1229C98.7662 76.4871 99.839 76.8874 99.7977 77.7292C99.7447 78.8006 99.3615 80.2017 98.4243 83.5572C100.941 82.9037 103.275 81.4615 105.893 79.1068C108.516 76.752 114.321 72.3193 116.414 73.2435C116.414 74.4326 111.15 85.176 108.292 87.519C106.388 89.9326 100.051 94.2888 100.316 95.0717" stroke="white" stroke-width="2" stroke-miterlimit="10" stroke-linecap="round" stroke-linejoin="round"/>
<path d="M77.1928 131.352C81.2481 137.527 84.0774 138.622 87.4844 138.622" stroke="white" stroke-width="2" stroke-miterlimit="10" stroke-linecap="round" stroke-linejoin="round"/>
<path d="M68.4219 77.582C69.8366 78.3591 71.5401 79.3069 73.5795 80.4489C83.6884 86.1002 84.1894 108.835 85.3683 111.973" stroke="white" stroke-width="2" stroke-miterlimit="10" stroke-linecap="round" stroke-linejoin="round"/>
<path d="M49.8488 47.1532C49.8488 47.1532 47.939 49.3548 48.9646 50.2378C49.9902 51.1209 54.1104 53.0282 55.136 52.7338C56.1675 52.4395 57.4879 49.9612 57.4879 49.9612C57.4879 49.9612 52.7429 40.66 53.073 37.4694C53.4031 34.2964 60.6001 32.3832 62.8577 35.6504" stroke="white" stroke-width="2" stroke-miterlimit="10" stroke-linecap="round" stroke-linejoin="round"/>
<path d="M61.598 142.307C62.3323 142.198 62.8054 141.288 62.6549 140.275C62.5043 139.262 61.7871 138.529 61.0529 138.638C60.3187 138.747 59.8455 139.656 59.9961 140.669C60.1466 141.682 60.8638 142.415 61.598 142.307Z" stroke="white" stroke-width="2" stroke-miterlimit="10" stroke-linecap="round" stroke-linejoin="round"/>
<path d="M62.2564 149.077C62.9986 149.077 63.6003 148.247 63.6003 147.223C63.6003 146.199 62.9986 145.369 62.2564 145.369C61.5142 145.369 60.9125 146.199 60.9125 147.223C60.9125 148.247 61.5142 149.077 62.2564 149.077Z" stroke="white" stroke-width="2" stroke-miterlimit="10" stroke-linecap="round" stroke-linejoin="round"/>
<path d="M72.12 142.23C72.8542 142.121 73.3274 141.212 73.1768 140.199C73.0263 139.185 72.3091 138.452 71.5749 138.561C70.8406 138.67 70.3675 139.58 70.518 140.593C70.6686 141.606 71.3858 142.339 72.12 142.23Z" stroke="white" stroke-width="2" stroke-miterlimit="10" stroke-linecap="round" stroke-linejoin="round"/>
<path d="M72.7779 149C73.5201 149 74.1218 148.17 74.1218 147.146C74.1218 146.122 73.5201 145.292 72.7779 145.292C72.0357 145.292 71.434 146.122 71.434 147.146C71.434 148.17 72.0357 149 72.7779 149Z" stroke="white" stroke-width="2" stroke-miterlimit="10" stroke-linecap="round" stroke-linejoin="round"/>
<path d="M55.3541 56.3781C55.3541 56.3781 52.0591 54.6356 50.6916 60.699C49.6955 65.1141 62.2564 65.1141 55.3541 56.3781Z" stroke="white" stroke-width="2" stroke-miterlimit="10"/>
<path d="M63.9481 204.048C65.8697 206.844 67.2489 208.216 70.0724 213.402C72.2769 218.059 73.0844 219.536 74.11 229.815C71.0921 250.283 74.3694 291.885 74.3694 291.885C74.3694 291.885 79.8452 294.669 89.2468 290.649C87.8027 282.183 99.7977 226.859 98.9607 223.145C98.6306 220.166 96.7739 214.432 94.2865 207.551C91.6163 200.145 88.2212 191.409 85.2386 183.362C85.2327 183.356 85.2327 183.356 85.2327 183.35" stroke="white" stroke-width="2" stroke-miterlimit="10"/>
<path d="M69.5065 144.821C69.4476 144.821 69.3886 144.821 69.3297 144.821C67.9975 144.798 66.5652 144.768 65.0916 144.733" stroke="white" stroke-width="2" stroke-miterlimit="10" stroke-linecap="round" stroke-linejoin="round"/>
<path d="M69.5065 144.821C69.5065 144.821 68.2451 150.802 66.4591 158.784C66.4591 158.79 66.4591 158.79 66.4591 158.79" stroke="white" stroke-width="2" stroke-miterlimit="10" stroke-linecap="round" stroke-linejoin="round"/>
<path d="M52.4423 239.757C52.401 240.846 52.3657 241.935 52.3244 243.03C51.5287 265.736 51.4874 289.171 52.6132 292.827C49.5128 294.775 41.6909 293.268 41.0897 291.885C35.0657 278.522 33.1382 260.232 32.8317 244.926" stroke="white" stroke-width="2" stroke-miterlimit="10"/>
<path d="M88.0031 291.144C88.0031 291.144 96.0725 297.454 100.823 297.354C105.58 297.248 98.9607 301.175 93.5909 299.726C88.2153 298.284 84.8083 294.876 84.8083 294.876L78.3952 294.57V296.636L74.6759 296.53L74.3635 291.885" stroke="white" stroke-width="2" stroke-miterlimit="10" stroke-linecap="round" stroke-linejoin="round"/>
<path d="M52.2773 293.015C52.2773 293.015 58.3661 297.984 62.1621 297.901C65.9581 297.819 60.6767 300.95 56.3856 299.797C52.0945 298.643 49.3713 295.923 49.3713 295.923L44.255 295.676V297.324L41.2842 297.242L41.0838 291.885" stroke="white" stroke-width="2" stroke-miterlimit="10" stroke-linecap="round" stroke-linejoin="round"/>
<path d="M41.9031 64.9077L34.5764 75.1272L35.7612 97.2262H43.359L37.6297 102.195L63.1229 134.919" stroke="white" stroke-width="2" stroke-miterlimit="10" stroke-linecap="round" stroke-linejoin="round"/>
<path d="M52.3244 243.03C61.6847 244.137 67.2725 243.925 73.0844 241.464" stroke="white" stroke-width="2" stroke-miterlimit="10"/>
<path d="M76.4147 119.39C76.4147 119.39 76.4147 150.572 85.2327 183.35C85.2327 183.356 85.2327 183.356 85.2386 183.361" stroke="white" stroke-width="2" stroke-miterlimit="10" stroke-linecap="round" stroke-linejoin="round"/>
<path d="M67.9857 131.352C67.9857 131.352 68.5162 166.402 94.7934 208.964" stroke="white" stroke-width="2" stroke-miterlimit="10" stroke-linecap="round" stroke-linejoin="round"/>
<path d="M60.1286 76.5991C60.1286 76.5991 74.0157 100.923 69.536 118.13" stroke="white" stroke-width="2" stroke-miterlimit="10" stroke-linecap="round" stroke-linejoin="round"/>
<path d="M57.4525 75.8101C57.4525 75.8101 68.7579 102.742 69.2825 120.026" stroke="white" stroke-width="2" stroke-miterlimit="10" stroke-linecap="round" stroke-linejoin="round"/>
<path d="M54.5053 75.5278C54.5053 75.5278 68.3512 105.439 66.4709 136.503L78.8432 100.947L75.4363 97.3678L79.7568 96.0432L68.4219 77.5823L61.9086 65.2671" stroke="white" stroke-width="2" stroke-miterlimit="10" stroke-linecap="round" stroke-linejoin="round"/>
<path d="M50.0728 76.0161C50.0728 76.0161 64.0601 111.914 63.6063 130.775" stroke="white" stroke-width="2" stroke-miterlimit="10" stroke-linecap="round" stroke-linejoin="round"/>
<path d="M37.8537 37.6519C40.795 32.0653 46.5538 34.3023 48.1748 34.9028" stroke="white" stroke-width="2" stroke-miterlimit="10" stroke-linecap="round" stroke-linejoin="round"/>
<path d="M43.7716 149.077C43.7716 149.077 35.3191 157.725 37.6297 159.75C39.345 160.992 40.571 158.231 40.571 158.231" stroke="white" stroke-width="2" stroke-miterlimit="10" stroke-linecap="round" stroke-linejoin="round"/>
<path d="M37.6297 159.75C37.6297 159.75 9.76108 139.417 9.0007 130.716" stroke="white" stroke-width="2" stroke-miterlimit="10" stroke-linecap="round" stroke-linejoin="round"/>
<path d="M93.2726 89.5554C92.4651 89.3317 91.4513 89.2081 91.2509 89.9263C91.1448 90.4443 91.7696 91.1272 92.7716 91.8277C95.4594 93.6997 100.859 95.7013 102.256 95.1302C102.409 94.6004 102.043 94.0412 101.548 93.5585" stroke="white" stroke-width="2" stroke-miterlimit="10" stroke-linecap="round" stroke-linejoin="round"/>
<path d="M87.4843 138.622C87.4843 138.622 102.256 138.622 102.256 95.1304" stroke="white" stroke-width="2" stroke-miterlimit="10" stroke-linecap="round" stroke-linejoin="round"/>
<path d="M91.2509 89.9263L85.3683 111.972" stroke="white" stroke-width="2" stroke-miterlimit="10" stroke-linecap="round" stroke-linejoin="round"/>
<path d="M302.046 126.919C304.409 127.773 304.433 124.523 305.022 123.54C305.606 122.557 307.02 122.257 307.28 122.846" stroke="white" stroke-width="2" stroke-miterlimit="10" stroke-linecap="round" stroke-linejoin="round"/>
<path d="M69.1882 35.9569C70.3612 35.0563 72.2474 29.3284 70.1195 25.9906C69.8248 22.8176 64.3372 20.8691 64.1309 21.0457C64.2782 20.7514 66.9602 18.2083 65.1506 14.8705C63.3115 11.4679 60.995 16.0772 57.983 13.4635C54.971 10.8439 39.4865 16.9956 35.6374 13.593C31.7943 10.1904 28.2046 13.4576 27.5857 19.0854C17.7598 18.691 19.198 20.9162 16.9699 24.8427C11.665 22.2878 8.12836 37.3521 17.2175 39.23C11.7652 48.4193 22.6993 49.0374 24.7859 46.8357C21.9153 49.5966 26.7192 51.8336 27.6918 51.0154C23.0588 60.446 34.2699 60.446 34.9183 59.563C34.6708 62.1296 36.4037 64.5609 39.622 64.2901C40.4296 67.9929 46.5361 66.3151 47.0372 63.0303C47.5323 59.7455 42.2156 61.4526 42.8875 59.7631C43.5654 58.0736 44.5085 56.1898 42.8875 54.4356C41.2666 52.6813 40.6123 56.4606 38.9029 54.4356C40.6123 51.7571 39.0974 50.4973 37.5472 49.0374C35.9911 47.5775 34.3112 51.4686 34.376 50.256C34.4468 49.0433 34.3112 47.3538 33.5744 46.7474C32.761 46.0705 32.0419 45.7879 31.4112 45.7702C31.4112 45.7702 31.4112 45.7702 31.4112 45.7643C31.3817 45.4406 31.3581 44.9755 31.3286 44.4221C31.7589 44.64 32.3484 44.793 32.8789 44.3809C35.7671 40.4662 31.6057 38.4471 31.6057 38.4471C31.6057 38.4471 36.0147 33.5787 32.1244 31.2122C32.7138 30.8649 33.3386 30.2762 33.8337 29.2872C35.1423 26.6735 32.3071 23.5358 32.3071 23.5358C32.9909 22.4055 34.0106 21.9405 35.5372 21.5343C38.7614 20.6807 43.0643 23.2356 49.7073 25.2901C53.7509 26.2202 54.0279 23.8419 57.146 21.4813C59.1619 20.0155 60.6001 21.4107 60.8595 22.0523C61.9205 23.8537 65.1565 29.0929 64.9737 32.7722C63.7536 37.5935 64.7616 44.2279 64.7616 44.2279C64.7616 44.2279 65.6752 44.8578 66.7538 44.8578C67.8266 44.8578 68.7403 43.1506 69.5537 40.1189C70.3612 37.0931 68.0211 36.8576 69.1882 35.9569ZM30.7215 48.9903C30.4209 49.1021 30.079 49.0315 29.6723 48.8196C29.3599 48.6489 29.0004 48.4016 28.5877 48.0837C27.8038 47.4892 26.8135 46.665 25.5168 45.7702C22.6698 43.7923 22.9645 39.0063 26.1062 38.4588C29.2479 37.9055 29.743 43.6215 29.743 43.6215C29.743 43.6215 30.1733 44.7224 30.5329 45.9292C30.6449 46.3118 30.751 46.7062 30.8335 47.0771C31.0457 48.0308 31.0988 48.849 30.7215 48.9903Z" fill="url(#paint0_linear_801_1208)"/>
<path d="M223.57 121.699C223.611 121.393 221.597 120.868 219.071 120.526C216.545 120.185 214.464 120.156 214.422 120.462C214.381 120.768 216.395 121.293 218.921 121.635C221.447 121.976 223.528 122.005 223.57 121.699Z" stroke="white" stroke-width="2" stroke-miterlimit="10" stroke-linecap="round" stroke-linejoin="round"/>
<path d="M223.562 121.709C223.562 121.709 223.668 123.105 223.421 124.712" stroke="white" stroke-width="2" stroke-miterlimit="10" stroke-linecap="round" stroke-linejoin="round"/>
<path d="M225.419 126.79C240.703 127.302 249.586 131.069 249.586 131.069C248.825 131.711 250.346 132.37 235.186 131.046C233.288 131.246 231.555 131.375 229.969 131.446C229.215 131.481 228.496 131.505 227.812 131.517" stroke="white" stroke-width="2" stroke-miterlimit="10" stroke-linecap="round" stroke-linejoin="round"/>
<path d="M217.485 130.398C214.072 129.356 213.394 127.955 213.394 127.955L214.408 120.479V120.467" stroke="white" stroke-width="2" stroke-miterlimit="10" stroke-linecap="round" stroke-linejoin="round"/>
<path d="M218.988 117.236C218.988 117.236 216.117 114.304 221.192 108.906C226.268 103.502 223.421 99.917 223.421 99.917" stroke="white" stroke-width="2" stroke-miterlimit="10" stroke-linecap="round" stroke-linejoin="round"/>
<path d="M325.158 115.693C326.295 114.84 339.599 113.574 340.683 99.5458C337.377 102.601 328.364 100.111 324.427 101.176C329.932 96.9144 333.905 86.4948 333.781 80.608C332.579 80.5373 327.621 86.5889 314.754 92.0872C314.66 91.7988 325.034 79.3011 323.201 71.972C322.157 74.9154 306.696 76.3871 304.415 79.9545C302.947 76.4637 305.164 67.8395 304.669 67.2626C283.508 65.5613 278.209 83.0333 277.478 88.2373C277.478 88.2078 277.478 88.1607 277.484 88.1019L277.478 88.2373C277.478 87.313 278.15 82.7331 271.967 78.3357C274.212 84.3343 265.978 86.1239 267.192 95.4015C266.302 94.2123 265.601 92.8584 264.369 91.0923C264.003 92.1991 265.618 97.3912 266.503 98.4626C267.381 99.534 261.215 94.6656 261.215 94.6656C261.121 95.7782 257.578 103.101 264.717 113.374C266.178 116.859 271.884 119.92 271.884 119.92C271.884 119.92 274.295 115.152 274.43 114.751C275.061 112.797 274.678 111.319 274.908 108.906C277.272 83.5514 303.891 100.364 303.891 100.364C307.598 104.196 305.57 114.386 303.03 123.764C303.03 123.764 304.893 118.366 307.687 119.873C310.492 121.374 306.791 133.407 300.207 131.517C299.765 132.5 299.263 133.471 298.745 134.419C298.438 134.984 298.102 135.514 297.76 135.997C297.755 136.02 297.737 136.038 297.719 136.067C297.589 136.244 297.46 136.415 297.336 136.585C297.142 136.844 296.941 137.092 296.735 137.321C296.735 137.321 300.943 141.854 303.148 142.425C306.048 143.185 310.139 145.816 310.928 146.658C311.04 145.592 310.174 141.477 308.111 138.981C311.978 139.823 318.226 140.282 321.379 139.67C321.308 137.604 315.155 135.532 313.994 134.331C315.986 133.836 326.289 132.376 331.335 132.376C331.005 129.439 324.68 120.544 323.613 120.179C325.965 118.684 333.922 120.838 336.834 119.608C334.978 118.336 329.366 115.44 325.158 115.693ZM325.158 115.693C326.295 114.84 339.599 113.574 340.683 99.5458C337.377 102.601 328.364 100.111 324.427 101.176C329.932 96.9144 333.905 86.4948 333.781 80.608C332.579 80.5373 327.621 86.5889 314.754 92.0872C314.66 91.7988 325.034 79.3011 323.201 71.972C322.157 74.9154 306.696 76.3871 304.415 79.9545C302.947 76.4637 305.164 67.8395 304.669 67.2626C283.508 65.5613 278.209 83.0333 277.478 88.2373C277.478 88.2078 277.478 88.1607 277.484 88.1019L277.478 88.2373C277.478 87.313 278.15 82.7331 271.967 78.3357C274.212 84.3343 265.978 86.1239 267.192 95.4015C266.302 94.2123 265.601 92.8584 264.369 91.0923C264.003 92.1991 265.618 97.3912 266.503 98.4626C267.381 99.534 261.215 94.6656 261.215 94.6656C261.121 95.7782 257.578 103.101 264.717 113.374C266.178 116.859 271.884 119.92 271.884 119.92C271.884 119.92 274.295 115.152 274.43 114.751C275.061 112.797 274.678 111.319 274.908 108.906C277.272 83.5514 303.891 100.364 303.891 100.364C307.598 104.196 305.57 114.386 303.03 123.764C303.03 123.764 304.893 118.366 307.687 119.873C310.492 121.374 306.791 133.407 300.207 131.517C299.765 132.5 299.263 133.471 298.745 134.419C298.438 134.984 298.102 135.514 297.76 135.997C297.755 136.02 297.737 136.038 297.719 136.067C297.589 136.244 297.46 136.415 297.336 136.585C297.142 136.844 296.941 137.092 296.735 137.321C296.735 137.321 300.472 141.101 303.148 142.425C305.83 143.756 310.139 145.816 310.928 146.658C311.04 145.592 310.174 141.477 308.111 138.981C311.978 139.823 318.226 140.282 321.379 139.67C321.308 137.604 315.155 135.532 313.994 134.331C315.986 133.836 326.289 132.376 331.335 132.376C331.005 129.439 324.68 120.544 323.613 120.179C325.965 118.684 333.922 120.838 336.834 119.608C334.978 118.336 329.366 115.44 325.158 115.693Z" fill="url(#paint1_linear_801_1208)"/>
<path d="M303.018 123.758C302.317 126.354 301.38 128.973 300.195 131.51C299.753 132.494 299.252 133.465 298.733 134.413C298.426 134.978 298.091 135.508 297.749 135.99C297.743 136.014 297.725 136.032 297.707 136.061C297.578 136.238 297.448 136.408 297.324 136.579C297.13 136.838 296.929 137.085 296.723 137.315C296.157 137.974 295.562 138.545 294.943 139.04C287.705 144.885 278.439 141.818 276.146 140.182C273.44 137.821 264.298 132.753 274.419 114.745C275.049 112.79 274.271 107.551 276.328 101.664C284.304 86.294 303.873 100.358 303.873 100.358C307.586 104.196 305.553 114.386 303.018 123.758Z" stroke="white" stroke-width="2" stroke-miterlimit="10" stroke-linecap="round" stroke-linejoin="round"/>
<path d="M273.44 129.68C273.44 129.68 275.444 136.715 284.303 131.841" stroke="white" stroke-width="2" stroke-miterlimit="10" stroke-linecap="round" stroke-linejoin="round"/>
<path d="M275.686 123.77C281.963 125.765 287.905 123.028 288.489 127.914C288.754 131.434 288.07 135.537 288.07 135.537C288.07 135.537 279.458 124.664 270.281 132.082C269.927 128.332 273.057 122.292 275.686 123.77Z" fill="url(#paint2_linear_801_1208)"/>
<path d="M284.168 110.79C284.168 110.79 284.268 114.946 279.7 116.57C274.607 118.384 273.924 121.592 275.15 123.299C276.376 125.006 282.848 124.924 284.362 124.359C285.883 123.788 285.223 121.033 285.223 121.033" stroke="white" stroke-width="2" stroke-miterlimit="10" stroke-linecap="round" stroke-linejoin="round"/>
<path d="M298.273 115.069C297.472 112.691 294.23 110.377 292.467 109.936C291.943 109.806 291.453 109.771 290.988 109.8C291.489 109.435 291.66 109.1 290.216 109.27C287.817 109.559 287.351 111.178 287.268 111.619C287.263 111.631 287.251 111.637 287.251 111.637C287.251 111.649 287.257 111.66 287.257 111.672C287.251 111.708 287.251 111.731 287.251 111.731L287.274 111.719C287.492 112.638 289.721 112.096 292.019 112.744C294.271 113.468 298.945 117.053 298.273 115.069Z" fill="url(#paint3_linear_801_1208)"/>
<path d="M283.384 107.593C282.235 106.639 282.229 107.069 282.47 107.669C282.099 107.381 281.675 107.116 281.174 106.904C279.506 106.192 277.625 106.404 276.535 108.635C275.615 110.513 277.914 108.317 280.142 109.094C282.305 109.936 283.738 111.649 284.486 111.184L284.533 111.266C284.533 111.266 285.547 109.377 283.384 107.593Z" fill="url(#paint4_linear_801_1208)"/>
<path d="M45.0684 66.2089C46.4477 67.1685 47.3495 67.6747 48.8172 68.44C54.1163 71.2009 57.5409 69.4643 59.934 66.1972C62.003 63.3892 63.3056 59.445 64.3961 56.2544C65.18 53.9644 65.3451 51.4449 65.2626 48.89C65.2154 47.277 65.068 45.6522 64.9148 44.0569C64.9089 44.0039 64.903 43.9569 64.8971 43.9039C64.7556 42.4086 64.6142 40.9369 64.5493 39.5418C64.5434 39.4947 64.5434 39.4476 64.5434 39.4064C64.4786 38.0406 64.4963 36.7455 64.6554 35.5564C64.7026 35.2032 64.7615 34.8618 64.8382 34.5321C64.9502 34.0317 65.015 33.5255 65.0445 33.0192C65.0445 33.0192 65.0445 33.0133 65.0445 33.0074C65.1034 31.8536 64.9561 30.6821 64.6849 29.5636V29.5578C61.7495 20.9748 59.9281 21.3163 59.3387 21.1396C57.2344 21.1396 56.085 22.3818 56.085 22.3818" stroke="white" stroke-width="2" stroke-miterlimit="10" stroke-linecap="round" stroke-linejoin="round"/>
<path d="M66.465 50.4613C66.241 49.6548 66.0111 48.5304 64.3961 50.0139C61.4312 51.8094 61.4843 56.9839 62.0442 58.8264C60.3761 59.6388 58.9143 60.6749 59.3623 62.4291C58.8672 64.3188 58.5135 68.6397 62.3389 65.5962C63.618 65.7905 66.3236 64.1893 66.1939 61.2812C66.0701 58.3673 67.7323 58.9265 67.0368 56.3775C68.6577 53.1986 66.8599 51.8859 66.465 50.4613Z" fill="url(#paint5_linear_801_1208)"/>
<path d="M287.84 117.236C287.84 117.236 291.076 120.038 297.065 119.602" stroke="white" stroke-width="2" stroke-miterlimit="10" stroke-linecap="round" stroke-linejoin="round"/>
<path d="M281.645 115.616C275.651 116.052 274.619 114.457 274.619 114.457" stroke="white" stroke-width="2" stroke-miterlimit="10" stroke-linecap="round" stroke-linejoin="round"/>
<path d="M135.689 3.82666C106.718 3.82666 83.2286 14.7643 83.2286 28.2569C83.2286 35.7978 90.5671 42.5441 102.102 47.0239C101.006 48.2131 99.7388 49.4375 98.2593 50.6267C92.642 55.1477 86.9067 56.9314 83.5234 57.6908C88.0443 58.1794 95.2591 58.3678 103.564 55.9248C108.392 54.5061 112.329 52.5693 115.329 50.7797C121.589 52.0101 128.468 52.687 135.689 52.687C164.659 52.687 188.149 41.7494 188.149 28.2569C188.149 14.7643 164.659 3.82666 135.689 3.82666Z" stroke="white" stroke-width="2" stroke-miterlimit="10" stroke-linecap="round" stroke-linejoin="round"/>
<defs>
<linearGradient id="paint0_linear_801_1208" x1="11.6274" y1="39.3046" x2="71.0835" y2="39.3046" gradientUnits="userSpaceOnUse">
<stop stop-color="#3FFFD8"/>
<stop offset="0.4888" stop-color="#B9C3FC"/>
<stop offset="1" stop-color="#FF7EA7"/>
</linearGradient>
<linearGradient id="paint1_linear_801_1208" x1="286.645" y1="140.048" x2="321.72" y2="46.4617" gradientUnits="userSpaceOnUse">
<stop stop-color="#3FFFD8"/>
<stop offset="0.4888" stop-color="#B9C3FC"/>
<stop offset="1" stop-color="#FF7EA7"/>
</linearGradient>
<linearGradient id="paint2_linear_801_1208" x1="278.088" y1="135.507" x2="312.59" y2="43.4472" gradientUnits="userSpaceOnUse">
<stop stop-color="#3FFFD8"/>
<stop offset="0.4888" stop-color="#B9C3FC"/>
<stop offset="1" stop-color="#FF7EA7"/>
</linearGradient>
<linearGradient id="paint3_linear_801_1208" x1="283.739" y1="137.624" x2="318.241" y2="45.565" gradientUnits="userSpaceOnUse">
<stop stop-color="#3FFFD8"/>
<stop offset="0.4888" stop-color="#B9C3FC"/>
<stop offset="1" stop-color="#FF7EA7"/>
</linearGradient>
<linearGradient id="paint4_linear_801_1208" x1="271.811" y1="133.154" x2="306.314" y2="41.0947" gradientUnits="userSpaceOnUse">
<stop stop-color="#3FFFD8"/>
<stop offset="0.4888" stop-color="#B9C3FC"/>
<stop offset="1" stop-color="#FF7EA7"/>
</linearGradient>
<linearGradient id="paint5_linear_801_1208" x1="59.0645" y1="57.9691" x2="67.7041" y2="57.9691" gradientUnits="userSpaceOnUse">
<stop stop-color="#3FFFD8"/>
<stop offset="0.4888" stop-color="#B9C3FC"/>
<stop offset="1" stop-color="#FF7EA7"/>
</linearGradient>
</defs>
</svg>
