<svg width="33" height="33" viewBox="0 0 33 33" fill="none" xmlns="http://www.w3.org/2000/svg">
<path d="M6.0256 0C2.68768 0 0 2.60663 0 5.84389V26.161C0 29.3982 2.68768 32.0048 6.0256 32.0048H17.3797V19.4929H13.9683V14.9883H17.3797V11.1397C17.3797 8.11604 19.3953 5.33981 24.0385 5.33981C25.9184 5.33981 27.3086 5.51485 27.3086 5.51485L27.1992 9.7215C27.1992 9.7215 25.7814 9.7085 24.2344 9.7085C22.56 9.7085 22.2915 10.4567 22.2915 11.6988V14.9883H27.3323L27.1126 19.493H22.2915V32.0049H26.9744C30.3123 32.0049 33 29.3983 33 26.161V5.84392C33 2.60666 30.3123 3.20048e-05 26.9744 3.20048e-05L6.0256 0Z" fill="white"/>
</svg>
