<svg width="100" height="100" viewBox="0 0 100 100" fill="none" xmlns="http://www.w3.org/2000/svg">
<circle cx="50" cy="50" r="50" fill="#0A4166"/>
<path d="M70.3407 43.7422V43.2875C70.357 38.7369 68.9119 34.3011 66.218 30.632C63.524 26.9628 59.7232 24.2537 55.3741 22.9029H55.2135C52.9672 22.2187 50.6269 21.8937 48.279 21.9399C42.6882 22.2464 37.4251 24.6732 33.5641 28.7249C29.703 32.7766 27.535 38.1478 27.5025 43.7422C25.9335 44.2937 24.5746 45.3182 23.6133 46.6742C22.652 48.0303 22.1357 49.6511 22.1357 51.3129C22.1357 52.9746 22.652 54.5954 23.6133 55.9515C24.5746 57.3076 25.9335 58.3321 27.5025 58.8835C28.0539 64.1663 30.5518 69.0555 34.5105 72.6005C38.4691 76.1454 43.6057 78.0929 48.9216 78.0643H49.5374C54.6779 77.8157 59.5639 75.7552 63.3283 72.2487C67.0926 68.7422 69.4917 64.0164 70.0997 58.9103C71.6871 58.39 73.0727 57.3881 74.0634 56.0442C75.0542 54.7002 75.6009 53.081 75.6274 51.412C75.6539 49.743 75.1589 48.1073 74.2113 46.7326C73.2638 45.3579 71.9108 44.3126 70.3407 43.7422ZM49.4035 72.714C45.5277 72.826 41.7422 71.5336 38.7454 69.0753C35.7486 66.6169 33.7428 63.1585 33.0982 59.3383H64.6111C63.9577 62.9548 62.0996 66.2443 59.3389 68.6726C56.5781 71.1008 53.0767 72.525 49.4035 72.714ZM67.6633 53.988H30.1799C29.4698 53.988 28.7888 53.7062 28.2867 53.2045C27.7845 52.7028 27.5025 52.0224 27.5025 51.3129C27.5025 50.6034 27.7845 49.923 28.2867 49.4213C28.7888 48.9196 29.4698 48.6377 30.1799 48.6377H35.5346C36.2447 48.6377 36.9257 48.3559 37.4278 47.8542C37.9299 47.3525 38.212 46.6721 38.212 45.9626C38.212 45.2531 37.9299 44.5727 37.4278 44.071C36.9257 43.5693 36.2447 43.2875 35.5346 43.2875H32.8572C32.9771 40.5123 33.7709 37.808 35.1703 35.4078C36.5696 33.0076 38.5325 30.9836 40.8894 29.5105V37.9372C40.8894 38.6467 41.1715 39.3271 41.6736 39.8288C42.1757 40.3305 42.8567 40.6123 43.5668 40.6123C44.2769 40.6123 44.9579 40.3305 45.46 39.8288C45.9621 39.3271 46.2442 38.6467 46.2442 37.9372V27.4774C46.9709 27.3561 47.7039 27.2757 48.4397 27.2366H48.9216C49.8189 27.2493 50.7139 27.3297 51.599 27.4774V37.9372C51.599 38.6467 51.8811 39.3271 52.3832 39.8288C52.8853 40.3305 53.5663 40.6123 54.2764 40.6123C54.9865 40.6123 55.6675 40.3305 56.1696 39.8288C56.6717 39.3271 56.9538 38.6467 56.9538 37.9372V29.4302C58.0895 30.0873 59.149 30.8679 60.1131 31.7576C61.6568 33.2554 62.8835 35.0478 63.7206 37.0284C64.5577 39.0091 64.9879 41.1375 64.9859 43.2875H62.3085C61.5985 43.2875 60.9174 43.5693 60.4153 44.071C59.9132 44.5727 59.6312 45.2531 59.6312 45.9626C59.6312 46.6721 59.9132 47.3525 60.4153 47.8542C60.9174 48.3559 61.5985 48.6377 62.3085 48.6377H67.6633C68.3734 48.6377 69.0544 48.9196 69.5565 49.4213C70.0586 49.923 70.3407 50.6034 70.3407 51.3129C70.3407 52.0224 70.0586 52.7028 69.5565 53.2045C69.0544 53.7062 68.3734 53.988 67.6633 53.988Z" fill="white"/>
</svg>
