<svg width="100" height="100" viewBox="0 0 100 100" fill="none" xmlns="http://www.w3.org/2000/svg">
<circle cx="50" cy="50" r="50" fill="#0A4166"/>
<path fill-rule="evenodd" clip-rule="evenodd" d="M74.4254 21.5618C74.6868 21.7244 74.9026 21.9514 75.0523 22.2213C75.202 22.4912 75.2806 22.7951 75.2808 23.1041V77.5401C75.2808 78.0213 75.0906 78.4829 74.7522 78.8232C74.4138 79.1634 73.9548 79.3546 73.4762 79.3546H62.6488C62.1702 79.3546 61.7112 79.1634 61.3728 78.8232C61.0344 78.4829 60.8442 78.0213 60.8442 77.5401V72.0965H57.2351V77.5401C57.2351 78.0213 57.045 78.4829 56.7066 78.8232C56.3681 79.1634 55.9091 79.3546 55.4305 79.3546H22.9484C22.4698 79.3546 22.0108 79.1634 21.6723 78.8232C21.3339 78.4829 21.1438 78.0213 21.1438 77.5401V57.5802C21.1441 57.1996 21.2634 56.8286 21.485 56.5199C21.7065 56.2112 22.0189 55.9804 22.3781 55.8601L42.7986 49.0156V37.6204C42.7986 37.2837 42.8918 36.9536 43.0677 36.6672C43.2436 36.3807 43.4953 36.149 43.7947 35.9982L72.6678 21.482C72.9431 21.3433 73.2492 21.2779 73.5569 21.2919C73.8646 21.3059 74.1635 21.3988 74.4254 21.5618ZM42.7986 52.8407L24.7529 58.8867V75.7256H42.7986V52.8407ZM46.4077 75.7256H53.626V70.282C53.626 69.8007 53.8161 69.3392 54.1545 68.9989C54.4929 68.6586 54.9519 68.4674 55.4305 68.4674H62.6488C63.1274 68.4674 63.5864 68.6586 63.9248 68.9989C64.2632 69.3392 64.4534 69.8007 64.4534 70.282V75.7256H71.6716V26.0401L46.4077 38.7418V75.7256Z" fill="white"/>
<path d="M28.3618 61.2097H31.971V64.8388H28.3618V61.2097ZM35.5801 61.2097H39.1892V64.8388H35.5801V61.2097ZM28.3618 68.4679H31.971V72.0969H28.3618V68.4679ZM35.5801 68.4679H39.1892V72.0969H35.5801V68.4679ZM50.0167 53.9516H53.6258V57.5807H50.0167V53.9516ZM57.235 53.9516H60.8441V57.5807H57.235V53.9516ZM50.0167 61.2097H53.6258V64.8388H50.0167V61.2097ZM57.235 61.2097H60.8441V64.8388H57.235V61.2097ZM64.4532 53.9516H68.0624V57.5807H64.4532V53.9516ZM64.4532 61.2097H68.0624V64.8388H64.4532V61.2097ZM50.0167 46.6935H53.6258V50.3226H50.0167V46.6935ZM57.235 46.6935H60.8441V50.3226H57.235V46.6935ZM64.4532 46.6935H68.0624V50.3226H64.4532V46.6935ZM50.0167 39.4354H53.6258V43.0644H50.0167V39.4354ZM57.235 39.4354H60.8441V43.0644H57.235V39.4354ZM64.4532 39.4354H68.0624V43.0644H64.4532V39.4354ZM64.4532 32.1772H68.0624V35.8063H64.4532V32.1772Z" fill="white"/>
</svg>
