<svg width="100" height="100" viewBox="0 0 100 100" fill="none" xmlns="http://www.w3.org/2000/svg">
<circle cx="50" cy="50" r="50" fill="#0A4166"/>
<path d="M48.8815 25.8066L27.9355 32.8112V53.8251C27.9355 65.4319 37.3121 74.8389 48.8815 74.8389C60.4509 74.8389 69.8275 65.4319 69.8275 53.8251V32.8112L48.8815 25.8066ZM65.9001 53.8251C65.9001 63.2539 58.28 70.8988 48.8815 70.8988C39.4831 70.8988 31.8629 63.2539 31.8629 53.8251V35.7663L48.8815 29.7467L65.9001 35.7663V53.8251Z" fill="white"/>
<path d="M41.5955 48.3036C41.4135 48.1202 41.1971 47.9746 40.9589 47.8753C40.7207 47.776 40.4652 47.7248 40.2073 47.7248C39.9493 47.7248 39.6938 47.776 39.4556 47.8753C39.2174 47.9746 39.0011 48.1202 38.8191 48.3036C38.6362 48.4862 38.4911 48.7032 38.3921 48.9422C38.2931 49.1812 38.2422 49.4375 38.2422 49.6963C38.2422 49.9551 38.2931 50.2114 38.3921 50.4504C38.4911 50.6894 38.6362 50.9064 38.8191 51.089L45.8774 58.1703L45.9919 58.2852C46.1641 58.4582 46.3686 58.5955 46.5937 58.6892C46.8188 58.7828 47.0601 58.8311 47.3038 58.8311C47.5474 58.8311 47.7888 58.7828 48.0139 58.6892C48.239 58.5955 48.4434 58.4582 48.6156 58.2852L60.8067 46.0544C60.9792 45.8817 61.116 45.6766 61.2094 45.4508C61.3028 45.2249 61.3508 44.9828 61.3508 44.7383C61.3508 44.4939 61.3028 44.2518 61.2094 44.0259C61.116 43.8001 60.9792 43.595 60.8067 43.4222L60.654 43.269C60.4818 43.096 60.2774 42.9587 60.0523 42.865C59.8272 42.7714 59.5858 42.7231 59.3422 42.7231C59.0985 42.7231 58.8572 42.7714 58.6321 42.865C58.4069 42.9587 58.2025 43.096 58.0303 43.269L47.301 54.0277L41.5955 48.3036Z" fill="white"/>
</svg>
