<svg width="100" height="100" viewBox="0 0 100 100" fill="none" xmlns="http://www.w3.org/2000/svg">
<circle cx="50" cy="50" r="50" fill="#0A4166"/>
<path d="M77.496 28.3867H38.7824C37.5135 28.3867 36.4883 29.4101 36.4883 30.6768V47.5664H19.569C18.3001 47.5664 17.2749 48.5898 17.2749 49.8565V69.3224C17.2749 70.5892 18.3001 71.6125 19.569 71.6125H58.2826C59.5516 71.6125 60.5768 70.5892 60.5768 69.3224V52.4329H77.496C78.765 52.4329 79.7902 51.4095 79.7902 50.1428V30.6768C79.7902 29.4101 78.765 28.3867 77.496 28.3867ZM41.3633 33.2532H55.7017V47.5664H41.3633V33.2532ZM36.4883 66.7461H22.1499V52.4329H36.4883V66.7461ZM55.7017 66.7461H41.3633V52.4329H55.7017V66.7461ZM74.9151 47.5664H60.5768V33.2532H74.9151V47.5664Z" fill="white"/>
</svg>
