<svg width="20" height="11" viewBox="0 0 20 11" fill="none" xmlns="http://www.w3.org/2000/svg">
<path d="M5.09784 10.7283C5.50009 11.1068 6.13296 11.0875 6.5114 10.6852C6.88984 10.283 6.87055 9.65012 6.46831 9.27167L5.09784 10.7283ZM1.68532 4.77167C1.28308 4.39323 0.650212 4.41252 0.271767 4.81477C-0.106676 5.21701 -0.0873829 5.84988 0.31486 6.22832L1.68532 4.77167ZM0.314864 4.77167C-0.0873809 5.15011 -0.106678 5.78298 0.271763 6.18523C0.650204 6.58747 1.28307 6.60677 1.68532 6.22833L0.314864 4.77167ZM6.46831 1.72839C6.87055 1.34995 6.88985 0.717077 6.51141 0.314833C6.13297 -0.0874129 5.5001 -0.10671 5.09785 0.271731L6.46831 1.72839ZM1.00006 4.50009C0.447775 4.50009 5.95695e-05 4.94781 5.95212e-05 5.50009C5.94729e-05 6.05237 0.447775 6.50009 1.00006 6.50009L1.00006 4.50009ZM18.0063 6.50009C18.5586 6.50009 19.0063 6.05238 19.0063 5.50009C19.0063 4.94781 18.5586 4.50009 18.0063 4.50009L18.0063 6.50009ZM6.46831 9.27167L1.68532 4.77167L0.31486 6.22832L5.09784 10.7283L6.46831 9.27167ZM1.68532 6.22833L6.46831 1.72839L5.09785 0.271731L0.314864 4.77167L1.68532 6.22833ZM1.00006 6.50009L18.0063 6.50009L18.0063 4.50009L1.00006 4.50009L1.00006 6.50009Z" fill="#FACC00"/>
</svg>
