<svg width="30" height="30" viewBox="0 0 30 30" fill="none" xmlns="http://www.w3.org/2000/svg">
<rect width="30" height="30" rx="15" fill="white"/>
<g filter="url(#filter0_ii)">
<rect x="3" y="3" width="24" height="24" rx="12" fill="url(#paint0_linear)"/>
<rect x="3" y="3" width="24" height="24" rx="12" fill="url(#paint1_radial)"/>
</g>
<path d="M15.368 11.144C14.888 11.144 14.4933 11.0053 14.184 10.728C13.8853 10.44 13.736 10.088 13.736 9.672C13.736 9.24533 13.8853 8.89333 14.184 8.616C14.4933 8.328 14.888 8.184 15.368 8.184C15.8373 8.184 16.2213 8.328 16.52 8.616C16.8293 8.89333 16.984 9.24533 16.984 9.672C16.984 10.088 16.8293 10.44 16.52 10.728C16.2213 11.0053 15.8373 11.144 15.368 11.144ZM16.728 12.072V21H13.992V12.072H16.728Z" fill="white"/>
<defs>
<filter id="filter0_ii" x="1" y="1" width="29" height="28" filterUnits="userSpaceOnUse" color-interpolation-filters="sRGB">
<feFlood flood-opacity="0" result="BackgroundImageFix"/>
<feBlend mode="normal" in="SourceGraphic" in2="BackgroundImageFix" result="shape"/>
<feColorMatrix in="SourceAlpha" type="matrix" values="0 0 0 0 0 0 0 0 0 0 0 0 0 0 0 0 0 0 127 0" result="hardAlpha"/>
<feOffset dx="3" dy="2"/>
<feGaussianBlur stdDeviation="3"/>
<feComposite in2="hardAlpha" operator="arithmetic" k2="-1" k3="1"/>
<feColorMatrix type="matrix" values="0 0 0 0 0.270588 0 0 0 0 0.34902 0 0 0 0 0.419608 0 0 0 0.14 0"/>
<feBlend mode="normal" in2="shape" result="effect1_innerShadow"/>
<feColorMatrix in="SourceAlpha" type="matrix" values="0 0 0 0 0 0 0 0 0 0 0 0 0 0 0 0 0 0 127 0" result="hardAlpha"/>
<feOffset dx="-2" dy="-2"/>
<feGaussianBlur stdDeviation="5"/>
<feComposite in2="hardAlpha" operator="arithmetic" k2="-1" k3="1"/>
<feColorMatrix type="matrix" values="0 0 0 0 1 0 0 0 0 1 0 0 0 0 1 0 0 0 0.5 0"/>
<feBlend mode="normal" in2="effect1_innerShadow" result="effect2_innerShadow"/>
</filter>
<linearGradient id="paint0_linear" x1="3" y1="3" x2="3" y2="27" gradientUnits="userSpaceOnUse">
<stop offset="0.171875" stop-color="#FACC00"/>
<stop offset="0.630208" stop-color="#FACC00"/>
</linearGradient>
<radialGradient id="paint1_radial" cx="0" cy="0" r="1" gradientUnits="userSpaceOnUse" gradientTransform="translate(15 15) rotate(90) scale(12 6.11431)">
<stop offset="0.0677083" stop-color="#FACC00"/>
<stop offset="0.171875" stop-color="#FFF8D9" stop-opacity="0.29"/>
<stop offset="0.927083" stop-color="#FCEB9F" stop-opacity="0"/>
</radialGradient>
</defs>
</svg>
