<svg width="20" height="11" viewBox="0 0 20 11" fill="none" xmlns="http://www.w3.org/2000/svg">
<path d="M13.9085 0.271676C13.5063 -0.106768 12.8734 -0.0874751 12.4949 0.314767C12.1165 0.71701 12.1358 1.34988 12.538 1.72832L13.9085 0.271676ZM17.321 6.22832C17.7233 6.60677 18.3561 6.58748 18.7346 6.18523C19.113 5.78299 19.0937 5.15012 18.6915 4.77168L17.321 6.22832ZM18.6915 6.22833C19.0937 5.84989 19.113 5.21702 18.7346 4.81477C18.3561 4.41253 17.7233 4.39323 17.321 4.77167L18.6915 6.22833ZM12.538 9.27161C12.1358 9.65005 12.1165 10.2829 12.4949 10.6852C12.8734 11.0874 13.5063 11.1067 13.9085 10.7283L12.538 9.27161ZM18.0063 6.49991C18.5586 6.49991 19.0063 6.05219 19.0063 5.49991C19.0063 4.94762 18.5586 4.49991 18.0063 4.49991V6.49991ZM1 4.49991C0.447715 4.49991 0 4.94762 0 5.49991C0 6.05219 0.447715 6.49991 1 6.49991V4.49991ZM12.538 1.72832L17.321 6.22832L18.6915 4.77168L13.9085 0.271676L12.538 1.72832ZM17.321 4.77167L12.538 9.27161L13.9085 10.7283L18.6915 6.22833L17.321 4.77167ZM18.0063 4.49991H1V6.49991H18.0063V4.49991Z" fill="white"/>
</svg>
