<svg width="740" height="710" viewBox="0 0 740 710" fill="none" xmlns="http://www.w3.org/2000/svg">
<path d="M333.486 30.5793C321.15 15.3136 302.03 8.22047 283.063 5.75329C260.859 2.82351 238.191 3.4403 215.832 2.20671C194.09 0.973115 172.503 -0.260467 150.761 0.0479307C126.397 0.356329 101.725 2.82351 78.1327 9.45407C67.3388 12.538 57.6243 16.8556 51.6105 26.7243C50.9937 27.6495 50.5311 28.5747 50.0685 29.6541C49.1433 30.8877 48.3724 32.2755 47.9098 34.1259C45.751 42.1442 43.5922 50.0084 41.7418 58.0267C41.5876 58.3351 41.5876 58.6435 41.4334 59.1061C41.4334 59.2603 41.4334 59.4145 41.2792 59.4145C40.9708 60.4939 40.8166 61.4191 40.6624 62.4985C40.6624 62.6527 40.6624 62.8069 40.5083 62.9611C40.5083 63.1153 40.5083 63.2695 40.5083 63.2695C38.9663 71.1337 37.7326 78.9978 37.27 87.1703C37.1158 87.9413 36.9616 88.8665 36.8074 89.7917C36.8074 90.4085 36.6533 91.0253 36.6533 91.6421C35.5739 99.0437 35.2654 106.754 34.957 114.464C34.957 116.006 35.1113 117.393 35.5739 118.781C35.1113 124.178 34.957 129.267 35.4196 134.664C35.1112 158.719 35.1112 183.853 39.8914 207.137C45.2884 233.351 62.2503 251.855 88.0015 259.256C101.571 263.111 115.912 264.808 129.944 266.041C142.588 267.121 158.008 265.116 169.727 270.821C179.287 275.447 184.838 285.779 190.235 294.414C197.174 305.516 204.422 315.847 215.216 323.557C221.075 327.721 228.477 324.02 232.023 319.086C239.116 309.525 240.35 297.344 239.117 285.779C238.654 281.461 237.729 276.989 237.112 272.672C245.285 270.976 253.303 269.125 261.475 267.429C271.652 265.27 282.138 263.574 292.007 260.027C312.824 252.317 322.23 234.739 329.323 214.693C336.416 194.184 339.346 172.597 341.813 151.163C344.28 129.267 346.439 107.216 347.21 85.32C348.135 66.0451 345.976 45.9992 333.486 30.5793Z" fill="white"/>
<path d="M734.867 460.794C731.012 428.875 726.848 396.031 716.363 365.499C705.415 333.889 687.836 308.754 661.622 288.246C637.259 269.125 612.279 252.471 582.981 244.916C581.901 243.528 580.668 242.294 579.434 241.215C580.359 240.907 581.284 240.752 582.21 240.444C587.607 241.678 592.849 240.907 597.167 236.589C604.106 229.496 602.101 217.468 597.784 209.758C597.321 208.833 596.704 207.908 596.088 207.137C597.321 207.445 598.401 207.6 599.634 207.754C603.797 208.216 607.961 207.754 611.662 205.749C626.773 197.885 623.535 179.535 615.671 167.816C606.727 154.709 611.353 141.911 616.442 127.879C621.53 114.309 625.694 100.431 624.152 85.6282C622.764 71.9045 617.367 59.106 606.573 50.3167C594.854 40.7563 579.742 35.2052 565.556 30.425C551.524 25.799 534.562 20.7105 519.759 23.3319C504.802 26.1074 494.008 39.5227 483.522 49.6999C476.429 56.6388 469.336 63.5778 462.397 70.5167C458.696 74.2175 454.379 77.9183 450.524 81.9275C445.127 81.0023 439.421 80.8481 434.024 81.9275C421.688 84.2404 411.049 94.4176 413.208 107.833C415.058 119.552 425.389 133.276 436.183 138.21C437.263 138.673 438.342 139.135 439.576 139.444C434.795 159.335 431.866 179.535 436.183 199.89C440.192 219.01 450.986 235.355 460.238 252.317C385.452 281.769 336.879 349.925 309.586 423.941C304.343 409.292 295.554 395.877 282.755 387.704C277.821 384.62 274.12 382.153 270.419 377.527C269.34 375.985 268.106 374.443 267.027 373.055C263.48 366.424 259.471 359.486 253.766 356.402C246.827 352.547 237.729 354.243 229.557 355.785C228.323 355.785 227.089 355.939 225.702 356.093C217.683 356.864 210.744 364.728 213.983 372.747C193.011 386.008 171.578 398.806 149.99 410.988C144.747 403.895 139.35 396.802 132.411 391.096C124.855 384.928 116.066 380.919 106.66 378.606C97.2538 376.293 86.9225 377.064 77.8248 373.826C73.0446 372.13 68.4187 369.046 64.1011 365.808C59.9377 361.028 55.7744 356.402 51.3026 351.93L49.7606 350.234C46.3682 346.379 43.13 342.524 39.5834 339.44C38.8124 338.515 37.8873 337.589 36.6537 336.973C36.6537 336.973 36.4995 336.973 36.4995 336.818C30.9483 330.65 21.5421 331.576 14.9116 336.664C11.5192 339.286 8.43529 342.37 5.81391 345.916C4.58032 347.304 3.50091 348.846 2.42151 350.388C2.11311 351.005 1.80466 351.621 1.49626 352.238C-0.354126 355.785 -0.0456525 359.948 1.95893 363.186C4.73452 369.663 11.6735 375.06 16.2994 379.686L26.4765 390.171C30.3315 395.722 33.7239 402.044 36.3453 407.287C39.1209 412.838 41.4338 418.852 43.4384 424.866V425.02C43.4384 425.483 43.4385 426.1 43.5927 426.562C43.5927 433.655 44.9804 440.748 47.756 447.533C52.3819 458.79 59.4751 468.196 67.8018 476.831C72.7362 482.228 78.1332 487.008 83.8386 491.634C83.9928 491.788 83.9928 491.788 84.147 491.942C84.918 492.559 85.8431 493.176 86.6141 493.947C87.5393 494.564 88.4645 495.181 89.3897 495.489C96.9454 502.736 105.118 509.367 113.599 515.689C113.753 515.843 114.062 515.998 114.216 516.152C112.52 523.399 115.295 531.572 120.384 537.585C129.019 547.608 143.822 554.393 157.083 553.159C158.162 554.239 159.396 555.318 160.63 556.089C168.802 561.486 179.134 562.103 187.923 558.865C193.628 565.341 201.647 570.121 209.665 574.593C225.393 583.537 241.584 591.401 258.546 597.569C273.503 603.12 288.923 606.821 304.652 608.825C303.726 612.372 302.955 615.764 302.184 619.311C298.175 636.581 295.245 654.006 292.778 671.584C292.624 672.664 292.47 673.743 292.316 674.822C292.161 675.748 292.316 676.673 292.47 677.598C292.316 679.294 292.624 681.145 293.395 682.995C293.858 684.229 294.474 685.462 295.4 686.387C296.633 688.7 298.638 690.551 301.413 691.322C306.964 693.018 312.516 694.252 318.221 695.023C318.992 695.331 319.763 695.639 320.688 695.794C326.548 696.565 332.253 697.336 338.113 698.261C338.575 698.261 339.038 698.415 339.5 698.415C346.285 699.957 353.224 700.728 360.317 701.345C374.195 702.578 388.073 703.812 401.951 704.891C430.169 707.05 458.542 708.746 486.915 709.517C542.889 711.059 598.863 708.9 654.221 700.265C675.5 696.873 700.789 694.714 717.751 680.528H717.905C719.447 679.757 720.526 678.832 721.451 677.752C725.306 674.36 728.082 670.042 729.007 664.645C740.264 596.489 742.885 528.333 734.867 460.794ZM170.961 438.435L163.097 427.95C174.353 421.628 185.61 414.997 196.712 408.367C188.231 418.544 179.75 428.567 170.961 438.435ZM235.57 485.775C227.86 488.55 220.15 490.863 212.441 493.33C203.034 480.84 193.628 468.35 184.222 455.86C200.876 437.202 216.758 418.081 232.178 398.498C234.491 401.428 236.804 404.357 239.117 407.287C236.804 425.483 245.285 443.524 259.471 454.626C266.102 459.869 273.658 463.57 281.83 465.729C282.601 465.883 283.68 466.191 284.914 466.345C268.569 473.439 252.224 479.915 235.57 485.775Z" fill="white"/>
<path d="M474.578 174.293C472.265 173.83 470.106 172.905 468.102 171.517C460.854 165.966 468.102 167.354 471.957 153.168C472.111 152.551 471.648 151.934 471.031 151.78C470.569 151.78 470.106 151.934 469.798 152.397C463.63 163.807 459.621 164.578 461.163 169.204C463.167 175.372 473.653 178.456 475.195 176.606C475.657 176.143 475.657 175.218 475.195 174.755C474.886 174.447 474.732 174.447 474.578 174.293ZM485.989 205.133C484.755 205.133 484.601 206.829 485.68 207.291C497.399 211.763 511.432 206.058 513.745 193.722C513.899 193.105 513.59 192.488 512.974 192.334C512.511 192.18 511.894 192.334 511.74 192.797C512.203 193.105 512.511 193.259 511.74 192.797C506.189 201.74 500.638 206.212 485.989 205.133ZM490.923 155.943C496.012 155.943 494.932 141.757 489.844 142.219C484.909 142.528 486.143 155.943 490.923 155.943ZM457.462 145.303C452.836 145.766 453.607 158.41 458.387 158.41C463.167 158.41 462.242 144.841 457.462 145.303ZM498.016 128.65C502.796 127.57 502.334 123.407 499.712 122.79C499.096 121.094 497.091 120.015 489.844 120.323C486.451 120.323 482.288 121.557 482.905 124.795C481.98 125.257 481.517 126.028 481.517 127.108C481.825 130.963 494.007 129.421 498.016 128.65ZM176.203 257.406C181.754 257.406 180.058 257.406 187.305 268.817C192.24 276.373 210.435 301.97 218.762 301.97C227.089 301.97 227.705 281.769 228.322 273.289C229.402 259.256 228.785 257.869 231.098 257.869C310.51 255.556 326.855 263.728 333.64 106.291C335.182 69.9001 336.416 58.6435 329.477 43.9946C320.687 25.645 302.955 15.0052 278.437 13.4632C197.328 8.22046 105.888 11.767 90.9309 15.4678C69.4972 20.5564 55.0025 35.6679 50.0682 58.0267C45.9048 77.7642 49.6056 162.111 58.7034 205.904C69.8057 260.027 99.4119 254.939 176.203 257.406ZM60.8621 199.427C53.769 155.172 50.0682 77.61 54.0774 58.4893C57.624 38.4435 72.8896 22.7152 92.7813 18.2434C113.444 13.0006 238.654 14.2342 276.895 15.7762C298.637 16.8556 317.295 28.5747 325.468 45.9992C331.481 59.1061 331.019 67.2787 329.323 101.665C325.005 180.615 322.229 225.333 300.179 242.14C285.067 253.551 257.62 253.551 231.098 254.322C224.93 254.476 226.163 261.107 225.547 269.434C224.93 276.989 224.005 301.353 217.22 297.652C207.66 292.409 193.319 270.359 190.544 265.887C184.53 256.481 184.53 254.785 179.441 254.476C114.678 249.079 71.8102 266.966 60.8621 199.427Z" fill="#020202"/>
<path d="M276.895 194.647C277.511 183.545 278.591 186.32 271.189 185.241C270.418 185.241 270.11 184.933 270.11 184.162V161.032C270.11 160.107 255.307 160.415 253.456 160.415C253.456 150.238 254.998 152.551 246.672 152.242C244.975 152.242 245.746 150.084 245.438 147C245.13 143.916 237.574 147.771 237.42 144.841C237.42 135.435 235.569 140.061 251.914 138.056C254.073 137.594 253.456 132.505 253.148 130.5C252.685 128.496 248.985 128.958 246.98 128.958C245.901 128.958 244.513 122.945 247.288 123.099C253.148 123.253 254.073 123.407 254.227 122.019C254.227 114.464 254.69 112.613 253.765 112.767C250.218 112.767 249.293 112.305 214.444 112.151C213.981 112.151 213.519 111.842 213.519 111.38V111.225C212.594 101.203 213.827 95.4972 211.977 95.4972L207.659 95.6514C204.884 95.8056 205.346 96.114 205.346 89.4834H211.668C212.902 89.4834 213.519 87.9414 213.519 86.862V65.7368C213.519 65.2742 213.21 64.6574 212.902 64.5032C202.725 63.8864 192.393 63.8864 182.216 64.5032C180.52 64.5032 181.445 63.2696 181.291 57.7184C181.291 56.639 181.754 56.4849 182.679 56.4849H194.707C197.482 56.4849 197.328 57.2558 197.02 48.3123C197.02 46.9245 197.019 46.7703 195.632 46.7703H172.502C170.189 46.7703 170.96 45.8451 170.96 65.7368C170.96 101.357 171.268 104.287 170.497 111.071C170.497 111.842 168.801 111.842 164.946 111.996C155.54 112.613 154.923 112.305 154.923 113.693C155.232 119.552 156.003 120.015 154.461 120.015C147.83 120.015 147.213 120.477 147.367 118.935C147.367 113.076 147.676 111.688 145.517 111.688C138.578 111.688 137.653 111.225 137.499 113.23C137.19 117.393 138.424 120.015 135.802 120.015C125.78 119.552 116.219 120.477 116.065 119.552C115.757 118.627 116.065 113.847 115.911 112.613C112.827 112.151 109.589 112.151 106.35 112.613C106.042 115.08 106.042 117.702 106.35 120.169C106.35 122.174 111.593 121.557 113.289 121.403C114.06 121.403 115.448 121.403 115.448 122.328V128.187C110.205 128.187 109.28 127.879 108.972 129.421C108.663 130.963 109.28 151.009 108.972 152.088C108.355 154.093 112.056 153.322 130.406 153.63C131.793 153.63 132.564 153.476 132.41 152.088C132.256 150.7 132.41 149.467 132.41 148.079C132.41 147.308 132.41 147 133.49 147C137.036 147 138.424 146.537 138.886 147.771C140.737 155.172 138.115 154.247 145.671 154.247C149.526 154.247 148.138 154.71 148.601 138.673C148.601 137.748 148.601 137.285 149.68 137.285C173.89 137.902 172.964 137.439 172.964 136.206C173.581 128.65 172.964 130.655 178.207 130.963C179.132 130.963 179.595 131.271 179.595 132.351C179.595 133.43 180.366 143.761 180.52 144.995C180.52 145.92 181.445 146.845 182.371 146.845C186.38 146.229 190.389 146.229 194.552 146.537C198.561 147.308 197.02 144.687 197.02 138.21C206.117 138.21 204.884 138.673 204.575 130.346C210.435 130.963 211.823 129.113 212.131 131.58C213.365 138.827 212.131 138.365 217.991 138.365C229.555 138.365 229.401 138.21 229.401 139.135C229.401 140.832 229.401 142.528 229.093 144.224C228.784 145.92 220.304 145.612 215.523 145.612C205.192 145.612 204.421 143.916 204.421 150.392C204.421 156.868 204.421 162.265 204.421 168.279C204.421 170.592 203.958 169.667 198.253 169.667C196.557 169.667 197.174 168.896 197.02 163.962C196.865 159.027 190.235 163.345 189.772 159.952C189.001 153.63 191.622 153.63 176.048 153.63C174.352 153.63 175.432 152.397 175.123 148.85C174.815 146.691 174.044 144.995 171.268 145.303C168.647 145.458 166.18 145.303 163.712 145.303C152.764 144.995 154.461 143.453 155.077 152.242C155.077 155.326 154.461 155.172 167.876 155.635C171.422 155.635 172.502 155.018 172.502 156.406V169.821C172.502 170.746 172.502 171.363 173.735 171.363C174.969 171.363 178.978 171.363 179.132 172.442C179.287 173.522 179.903 178.456 179.132 178.61C172.964 178.919 173.119 177.223 172.502 180.769C172.193 182.465 172.193 184.316 172.348 186.012C172.348 188.171 177.128 187.4 181.6 187.246C181.908 185.241 182.216 183.082 182.062 181.078C182.062 179.844 182.062 179.844 182.987 179.844H189.618C190.543 179.844 190.081 177.068 190.235 173.676C190.235 173.213 190.235 171.517 191.006 171.209C191.777 170.9 194.09 171.209 195.632 171.209C195.94 171.209 196.248 171.517 196.557 171.826C196.865 174.601 197.019 187.246 196.094 187.246C186.071 187.246 189.155 185.087 188.539 194.03C184.221 194.03 180.983 192.643 180.674 194.956V202.511C180.674 203.282 181.445 203.899 182.216 203.899C196.094 204.362 195.94 204.207 204.267 204.362C205.963 204.362 206.117 204.362 206.271 202.511C206.271 198.502 206.271 196.498 206.888 196.343C208.276 196.035 214.136 196.498 214.444 195.727C214.598 193.259 214.598 190.946 214.444 188.479C214.444 186.475 215.369 187.708 226.626 187.246C229.093 187.246 231.097 187.246 231.097 186.32C231.097 184.316 231.097 182.003 231.252 179.998C231.56 175.681 214.598 179.536 214.752 176.76C215.215 163.036 213.673 164.424 217.374 164.116C221.074 163.807 221.537 164.887 221.229 169.975C221.074 172.288 222.462 170.9 227.242 171.517C230.481 171.98 229.71 169.975 229.864 168.588C229.864 163.036 230.172 162.882 228.013 162.728C223.542 162.42 222.154 162.42 222 161.34C220.458 152.397 224.621 155.635 236.186 155.635C237.111 155.635 237.265 155.789 237.265 156.56C237.265 161.803 236.957 195.727 236.803 199.119C236.803 201.123 235.723 200.507 232.023 200.661C230.635 200.661 230.789 196.806 230.789 195.572C230.789 193.259 231.714 193.259 222.308 192.951C222 192.951 221.537 193.259 221.383 193.568C219.841 203.436 222 200.507 215.369 201.123C213.519 201.123 213.673 201.894 213.673 203.745V207.754C213.673 208.988 213.365 208.988 212.594 208.988C210.897 208.988 208.122 208.988 206.426 209.142C204.729 209.296 205.5 210.067 205.192 216.389C205.192 221.169 208.122 219.627 213.673 219.473C230.943 218.856 230.789 219.782 231.252 218.24C231.406 216.389 231.406 214.693 231.252 212.843C231.097 210.992 229.71 211.609 244.513 211.455C245.438 211.455 245.746 211.763 245.746 212.688V218.24C245.746 219.011 245.901 219.936 246.826 219.936C248.985 220.09 251.298 220.244 253.456 220.244C255.307 220.244 254.844 219.936 254.844 212.226C254.844 210.53 254.227 210.067 252.377 210.067C250.527 210.067 249.447 210.067 248.214 210.067C246.98 210.067 247.288 209.45 247.134 206.52C246.98 203.591 247.443 204.053 250.218 204.207C251.606 204.516 252.994 204.207 254.227 203.745C254.536 201.586 254.69 199.427 254.536 197.423C254.536 196.189 255.153 196.035 256.078 196.035H276.74C276.278 195.881 276.74 195.727 276.895 194.647ZM128.555 145.458C117.144 145.149 117.607 145.458 117.607 144.224V138.827C117.607 137.902 117.607 137.439 118.686 137.439C122.541 137.439 125.317 137.902 128.093 137.439C130.097 137.439 129.789 138.365 130.097 143.761C129.943 144.841 129.48 145.303 128.555 145.458ZM145.363 135.743C140.12 135.743 135.494 136.052 130.868 135.897V130.038C140.428 130.038 138.886 131.888 138.886 124.024C138.886 121.403 139.195 121.865 144.746 121.865C146.134 121.865 146.288 122.019 146.288 123.407V134.818C146.288 135.281 146.134 135.589 145.671 135.743C145.517 135.589 145.363 135.589 145.363 135.743ZM171.268 128.187C156.157 128.187 156.311 128.187 156.157 127.262C156.003 125.874 156.157 124.332 156.003 122.945C156.003 122.328 156.003 122.019 156.928 122.019C174.661 123.561 171.268 119.861 171.268 128.187ZM186.071 109.221C185.917 112.459 186.38 110.763 181.6 111.225C180.674 111.225 180.366 111.071 180.366 109.992C180.829 98.5812 179.595 97.8102 181.754 98.2728C184.992 98.5812 186.226 97.5018 186.226 99.0438C186.38 102.436 186.38 105.829 186.071 109.221ZM190.852 128.496C188.076 128.496 188.693 128.496 188.539 125.874C188.539 125.103 188.23 118.781 188.539 115.543C188.539 114.309 188.539 114.001 190.852 113.847C195.015 113.847 194.707 114.464 194.707 115.389C194.707 129.421 195.478 128.65 190.852 128.496ZM195.015 93.9552C195.323 95.8056 194.552 95.4972 189.31 95.4972C188.23 95.4972 188.847 94.8804 188.076 89.4834C187.922 89.175 187.613 88.8666 187.151 88.8666H181.291C179.287 88.8666 180.829 87.7872 180.829 74.6803C180.829 72.8299 181.754 73.7551 185.146 73.1383C187.151 72.6757 186.842 73.7551 186.842 78.6895C186.842 80.3857 187.613 81.0025 189.464 81.0025C197.019 80.5399 197.02 82.8529 197.02 74.9887C197.02 73.7551 197.019 73.6009 198.099 73.6009C203.187 73.6009 203.342 73.6009 203.342 74.3719C203.342 87.3246 204.267 87.7872 202.571 87.633C200.874 87.633 198.407 87.633 196.249 87.7872C193.936 87.9414 194.706 92.1048 195.015 93.9552ZM202.571 103.053C197.945 103.053 195.94 103.053 195.94 102.282V97.1934H201.954C203.187 97.1934 202.571 97.656 203.496 102.128C203.65 103.053 203.342 103.053 202.571 103.053ZM210.126 119.861C204.575 119.861 204.113 121.403 204.113 116.468C204.113 114.001 204.113 114.001 206.58 113.847C207.968 113.693 209.201 113.693 210.589 113.847C210.897 115.543 211.052 117.239 211.052 118.935C211.052 119.706 210.743 120.015 210.126 119.861ZM218.299 128.804C215.678 128.65 213.673 128.804 212.439 128.804C211.823 122.328 211.36 121.557 213.056 121.711C214.752 121.865 216.911 121.403 218.607 121.403C219.378 121.403 219.224 122.019 219.224 122.945C219.378 127.571 220.458 128.958 218.299 128.804ZM209.972 185.087C208.584 185.241 207.042 185.241 205.655 185.087C205.346 185.087 205.038 184.47 205.038 184.162V180.307C205.038 179.073 205.5 179.227 206.426 179.381C207.351 179.536 208.276 179.381 209.201 179.381C210.743 179.381 211.052 179.381 211.052 180.461C210.897 183.391 211.514 185.087 209.972 185.087ZM234.798 136.977C228.785 137.285 230.018 139.598 229.864 124.487C229.864 123.561 229.864 123.099 231.097 123.099C236.649 123.099 236.803 122.174 236.803 125.412C236.957 128.65 236.957 131.734 236.803 134.972C236.649 136.36 236.186 136.977 234.798 136.977ZM249.91 193.568C248.985 193.568 248.214 193.259 247.288 193.259C246.363 193.259 246.363 192.797 246.363 192.18C246.98 186.32 246.363 187.4 250.989 187.246C252.069 187.246 251.914 188.017 251.914 190.638C251.914 193.259 252.223 193.722 249.91 193.568ZM261.012 183.391C261.012 185.395 260.858 185.549 254.227 185.241C252.994 185.241 253.765 182.928 253.61 180.307C253.456 177.685 254.073 176.914 249.755 177.068C248.83 177.068 248.059 177.068 247.134 177.068C246.826 176.914 246.517 176.606 246.363 176.297C246.826 160.569 244.821 163.345 250.989 163.036C251.914 163.036 251.76 163.345 251.914 169.358C251.914 170.438 252.069 170.9 253.302 170.9C255.769 170.746 258.391 170.746 260.858 170.9C260.704 171.055 260.704 181.54 260.704 183.236L261.012 183.391Z" fill="#020202"/>
<path d="M222.155 106.291C275.508 107.216 276.587 108.912 276.741 102.899C276.741 97.6558 277.667 52.4755 277.667 48.7747C277.667 47.3869 277.667 47.2327 276.125 47.2327C274.583 47.2327 226.935 47.6953 223.234 47.5411C221.692 47.3869 220.304 48.4663 219.996 50.0083C219.996 50.1625 219.996 50.3167 219.996 50.6251C219.996 50.6251 219.534 87.6328 219.379 103.207C219.071 104.595 219.996 105.828 221.384 106.137C221.692 106.291 221.847 106.291 222.155 106.291ZM230.173 58.7976C230.173 57.8724 230.482 57.4098 231.561 57.4098C234.799 57.4098 265.639 58.1808 268.106 58.335C268.877 58.335 269.031 58.6434 269.031 59.4144C269.031 60.9564 268.415 94.1092 268.415 94.4176C268.415 94.726 267.952 95.3428 267.181 95.3428C263.018 95.3428 232.949 96.1138 230.944 96.268C229.094 96.4222 230.327 98.581 230.173 58.7976ZM106.968 102.744C106.968 106.291 105.272 103.978 160.629 104.903C162.48 104.903 163.097 104.286 163.097 102.59C163.097 100.74 163.868 54.7885 163.868 50.1625C163.868 48.0037 163.251 48.0037 161.246 47.5411H107.277C106.506 47.5411 106.197 47.8495 106.197 48.7747C106.351 49.3915 106.968 100.123 106.968 102.744ZM152.303 57.8724C154.153 57.8724 154.924 57.564 154.924 59.2602C154.462 82.3901 154.616 88.4038 154.307 93.955C115.295 93.955 116.066 95.3428 116.066 93.184C116.066 71.442 115.758 76.3763 115.758 57.7182L152.303 57.8724ZM161.555 161.803C160.475 161.803 121.771 162.419 107.893 162.419C106.197 162.419 106.197 162.419 106.197 164.116V215.31C106.197 216.081 106.197 219.165 109.281 218.702C114.524 218.239 127.939 218.394 161.555 218.239C163.559 218.239 164.022 217.777 164.022 215.772C164.022 177.839 164.33 190.175 164.33 165.041C164.484 163.499 163.251 162.111 161.709 161.957C161.555 161.803 161.555 161.803 161.555 161.803ZM115.449 208.371C114.061 208.371 114.524 210.375 114.524 173.213C114.524 170.438 111.132 172.596 152.303 171.98C154.307 171.98 153.382 170.438 153.691 206.983C153.999 208.833 156.62 207.908 115.449 208.371ZM271.961 122.173C276.125 121.402 277.667 122.944 277.667 121.094V114.001C277.667 113.076 276.741 112.305 275.816 112.305C271.653 112.613 268.569 110.917 268.569 114.155V119.706C268.569 120.786 268.26 120.94 261.167 120.94C260.242 120.786 259.471 121.557 259.471 122.328C259.471 122.328 259.471 122.328 259.471 122.482V129.575C259.934 153.013 258.237 153.938 261.784 153.938C277.512 153.322 278.129 154.709 278.283 152.705V137.285C278.129 136.977 277.821 136.668 277.512 136.514C271.036 136.206 270.882 137.593 270.728 133.43C270.728 130.038 270.419 128.496 270.419 125.257C269.957 122.944 269.494 122.636 271.961 122.173ZM195.17 209.296C193.474 209.296 171.732 208.525 171.578 208.525C170.961 208.525 170.498 208.987 170.344 209.604V209.758C170.344 218.702 169.881 219.781 173.274 219.936L194.399 220.861C195.478 220.861 195.941 220.244 195.941 219.319C196.095 214.539 197.02 209.45 195.17 209.296ZM278.438 211.609C278.438 209.913 278.129 209.45 276.433 209.45H271.499C269.494 209.45 267.644 209.45 267.644 210.992C267.952 222.711 265.793 219.319 275.508 219.627C279.054 219.781 278.438 219.781 278.438 211.609ZM205.501 57.564C209.973 57.2556 213.057 58.1808 212.749 55.5595C212.749 48.0037 213.057 46.6159 211.515 46.4617C209.356 46.3075 207.198 46.3075 205.039 46.4617C202.88 46.4617 203.188 48.1579 203.651 54.7885C203.805 56.6389 203.651 57.564 205.501 57.564Z" fill="#020202"/>
<path d="M236.958 85.6283C236.958 86.8619 237.575 87.4787 238.808 87.1703C240.042 86.8619 257.312 88.7123 260.396 86.7077C261.63 84.8573 261.63 68.0496 261.63 66.6618C261.63 65.274 261.167 64.6572 259.625 64.6572L238.654 65.1198C236.033 65.1198 236.804 67.8954 236.804 70.671C236.804 75.7595 236.958 80.6939 236.958 85.6283ZM146.906 87.9413C147.831 87.9413 146.906 64.9656 146.906 64.9656L123.159 65.274L123.467 88.4039C131.332 88.5581 139.042 88.4039 146.906 87.9413ZM145.364 178.764C129.019 178.148 128.248 178.456 124.238 178.302C122.696 178.302 122.542 179.381 122.542 180.923C122.542 180.923 122.234 190.792 123.005 201.894C123.005 202.357 123.313 202.974 123.93 202.974C124.084 202.974 124.084 202.974 124.238 202.974C131.486 203.59 138.733 203.59 145.98 202.974C146.906 202.974 147.214 202.511 147.214 201.74C146.289 179.073 147.214 178.919 145.364 178.764ZM565.556 248.308C564.322 243.065 563.243 237.823 561.701 227.646C574.037 233.659 590.536 227.029 587.915 225.487C583.597 222.865 580.359 218.702 578.663 213.922C583.135 215.001 587.915 214.693 592.387 212.842C594.237 212.071 588.223 208.062 588.377 195.572C595.471 196.806 611.045 198.81 615.979 192.642C619.371 188.479 619.988 182.774 617.984 175.064C615.208 166.429 610.428 158.719 603.797 152.551C605.648 147.925 607.19 143.145 608.577 138.364C621.53 94.5718 616.133 87.0161 610.119 78.0725C588.069 47.2327 552.603 28.8831 514.67 28.8831C514.362 28.8831 514.208 28.8831 514.053 29.0373C495.395 40.448 464.247 74.9886 459.313 85.7825C449.907 85.4741 440.655 87.6329 432.328 91.642C409.352 103.67 422.768 119.398 444.51 133.276C444.972 133.43 445.589 133.276 445.743 132.813C445.898 132.505 445.897 132.042 445.589 131.734C414.595 105.212 414.287 93.955 455.458 100.586C453.453 107.37 451.603 114.309 450.215 120.323C448.056 121.248 447.748 122.482 447.748 123.407C446.669 125.103 446.823 126.645 448.519 127.416C443.739 150.083 431.865 223.02 472.882 239.827C472.882 240.907 473.345 244.916 474.733 258.023C394.395 280.998 336.879 346.533 312.978 442.445C311.744 442.136 310.357 441.828 308.815 441.211C307.889 430.109 301.259 415.306 291.544 409.138C283.218 390.942 273.812 384.928 272.578 390.942C253.611 360.411 252.995 360.411 246.056 359.948C240.196 359.486 234.337 359.331 228.631 359.794C225.393 359.64 222.155 360.873 219.842 363.341C218.917 364.42 218.608 365.808 218.762 367.196C220.304 372.747 244.359 404.358 247.752 408.829C246.21 412.376 246.364 416.539 248.214 419.932C246.981 424.712 248.369 429.8 252.069 433.193C251.298 439.361 254.845 445.066 260.705 447.225C260.55 455.706 270.265 458.636 278.746 457.71C283.372 461.411 289.231 463.416 295.091 463.416L300.642 469.275C261.476 476.831 235.262 493.639 207.969 497.956L173.891 457.402C190.698 436.894 215.524 405.283 228.785 386.933C229.094 386.47 228.94 385.854 228.323 385.545C228.014 385.391 227.552 385.391 227.243 385.699C212.44 403.124 188.539 433.964 172.349 455.552L146.289 424.558C172.503 409.909 207.352 389.4 222.463 379.84C222.926 379.532 223.08 378.915 222.772 378.606C222.463 378.144 221.846 377.99 221.538 378.298C205.81 386.779 170.498 407.287 144.901 423.016C139.504 416.385 127.477 401.89 127.477 401.89C123.93 398.035 119.612 395.26 114.678 393.564C102.805 388.783 90.3147 386.162 77.5162 385.545C64.8719 370.434 47.2931 351.467 34.6488 338.669C26.7847 330.65 0.879311 351.159 8.12666 360.873C11.3648 365.191 36.1908 392.176 52.3817 409.446C52.3817 418.544 54.3863 445.991 59.1665 452.622C68.11 465.112 110.052 503.045 118.687 510.601C116.22 513.839 114.832 518.156 117.762 520.469C119.921 522.937 123.776 522.011 127.014 519.853C120.075 527.717 125.318 533.73 132.874 531.418C131.023 536.66 136.729 540.978 144.284 536.969C143.513 541.903 148.139 545.912 156.003 541.132C156.62 541.595 162.326 546.066 168.956 550.847C171.269 552.543 174.507 553.005 177.129 551.618C179.75 550.384 182.217 548.996 184.684 547.454C219.688 577.677 278.592 602.195 311.744 590.476C297.866 652.618 295.399 676.981 295.091 676.981C294.937 678.061 295.554 678.986 296.633 679.294C297.712 679.449 298.638 678.832 298.946 677.752C299.871 674.36 314.057 586.158 337.958 505.82C381.751 545.912 466.56 613.76 547.515 622.395C633.866 631.493 679.201 564.108 696.471 478.681C701.251 454.01 704.027 428.875 704.798 403.741C704.798 402.199 702.639 402.045 702.639 403.278C700.634 437.356 694.929 471.28 685.677 504.124C649.594 473.285 602.564 450.617 541.809 434.889C554.145 394.18 572.032 355.322 594.7 319.394C595.471 318.16 593.312 316.927 592.387 318.006C559.388 363.341 535.179 423.016 530.399 470.355C490.615 453.239 420.763 459.561 355.845 451.08C371.111 407.75 389.152 365.654 410.123 324.791C410.278 324.328 409.661 323.711 409.198 323.249C408.736 322.94 408.119 323.249 407.81 323.712C391.311 356.247 379.9 377.219 362.476 421.474C351.065 416.077 339.038 411.913 326.548 409.138C351.836 341.136 395.166 293.643 455.92 268.046C446.206 379.223 530.707 393.409 608.115 267.737C631.707 278.223 652.987 293.488 670.565 312.455C722.993 367.658 725.152 464.187 720.372 551.309C718.367 588.625 714.975 624.554 710.811 676.981C710.811 677.907 711.428 678.678 712.353 678.678C713.279 678.678 714.05 678.061 714.05 677.136C732.399 463.416 758.613 303.357 565.556 248.308ZM229.711 376.91C227.86 376.91 226.472 375.522 226.472 373.672C226.472 371.822 227.86 370.434 229.711 370.434C230.636 370.434 231.561 370.896 232.178 371.667C233.411 372.901 233.411 374.906 232.024 376.139C231.407 376.756 230.636 377.064 229.711 376.91ZM236.958 384.466C235.57 385.545 233.566 385.391 232.486 384.003C231.407 382.616 231.561 380.611 232.949 379.532C234.337 378.452 236.341 378.606 237.42 379.994C238.654 381.228 238.654 383.078 237.42 384.312C237.266 384.466 237.112 384.62 236.804 384.774V384.466H236.958ZM244.051 366.116C240.196 365.654 225.085 364.728 221.075 366.116C222.309 360.565 238.962 362.261 245.747 362.724C252.532 363.032 251.607 363.186 272.732 395.26C274.274 401.274 276.741 406.979 279.825 412.376L279.517 413.918C249.911 368.892 249.14 367.196 244.051 366.425V366.116ZM127.631 405.437L143.205 424.095L141.355 425.174C140.892 425.483 140.892 426.1 141.2 426.562C141.509 426.871 141.817 427.025 142.28 426.871L143.976 425.945L170.652 457.865L166.489 463.57C166.181 464.033 166.335 464.649 166.952 464.958C167.26 465.112 167.723 465.112 168.031 464.804L172.194 459.715L201.492 494.718C199.488 506.591 189.465 519.236 180.059 526.792C141.355 488.242 135.032 482.074 95.8658 445.683C109.59 436.431 124.855 420.086 127.631 405.437ZM10.4396 358.869C5.35108 351.93 28.4809 333.734 34.0321 339.902C38.8122 346.996 15.9908 365.191 10.4396 358.869ZM26.4763 375.985C22.6213 371.976 19.2289 368.121 13.8319 362.57C22.7755 363.186 36.1908 352.855 36.9618 343.449C40.8168 348.075 44.9801 353.009 49.2977 357.789C49.4519 365.654 34.1862 378.144 26.4763 375.985ZM56.2367 408.367C56.2367 407.442 32.3359 382.307 28.9435 378.606C38.1955 378.915 50.2229 369.2 51.4565 360.257C57.9329 367.504 69.8063 380.457 76.7452 387.55C77.362 388.167 97.5621 388.475 116.837 397.573C111.748 417.465 79.5208 447.688 62.0963 449.075C56.0825 436.894 56.0825 408.521 56.2367 408.367ZM122.542 518.773C119.921 519.236 117.608 516.614 122.08 511.217C124.855 507.825 128.71 505.358 133.028 504.279C139.504 503.662 129.173 517.848 122.542 518.773ZM127.477 527.717C124.547 523.553 138.887 512.605 144.593 512.605C150.298 512.605 141.509 524.016 135.187 527.717C131.794 529.567 128.556 529.259 127.477 527.717ZM137.191 534.964C135.803 534.193 135.649 532.189 136.883 529.721C140.275 527.871 143.051 525.25 145.364 522.166C149.836 519.39 153.536 518.619 154.616 519.698C156.929 522.011 143.513 538.511 137.191 534.964ZM155.387 537.894C151.994 539.898 149.527 540.361 148.448 539.282C147.214 538.202 147.523 536.043 148.139 534.347C149.99 532.805 151.84 531.109 153.382 529.259C156.158 527.563 160.938 525.404 163.097 526.483C165.718 527.871 161.4 534.347 155.387 537.894ZM176.049 548.534C174.507 549.305 172.503 549.15 171.115 548.071C164.639 543.291 159.087 538.973 159.087 538.973C169.727 530.647 168.494 519.698 156.158 525.404C160.938 517.694 156.158 514.301 147.831 518.156C150.144 513.839 149.065 511.834 148.139 511.063C145.672 508.905 139.504 510.447 133.182 514.918C143.205 503.199 134.724 495.952 121.309 507.979C94.7864 484.541 68.4185 458.636 63.6383 451.697C82.6048 450.309 114.37 419.469 118.533 398.498C121.309 399.886 123.776 401.89 125.78 404.203C121.771 418.081 106.197 434.735 93.7071 444.758C93.2445 445.066 93.2444 445.683 93.5528 446.146L93.7071 446.3C136.266 487.933 179.442 529.413 179.442 529.413C179.904 529.721 180.521 529.721 180.984 529.413C185.918 525.866 201.492 513.068 203.651 497.031C209.511 503.97 210.436 504.587 210.59 506.591C211.515 513.993 200.259 535.735 176.049 548.534ZM313.132 584.925C281.984 601.27 216.141 568.888 187.152 545.604C206.118 532.497 214.599 514.147 213.674 505.82C213.211 503.662 212.132 501.657 210.59 500.115C234.337 497.956 253.303 486.083 303.263 471.126C314.674 482.845 314.212 482.691 334.874 502.428C327.01 528.025 319.917 555.01 313.132 584.925ZM531.324 474.518C532.095 474.827 533.02 474.518 533.328 473.747C533.328 473.593 533.483 473.593 533.483 473.439C535.333 461.72 537.646 450 540.73 438.59C591.153 452.622 643.118 475.752 684.598 507.671C622.918 704.275 441.272 607.746 297.25 460.949C296.941 460.64 296.633 460.486 296.17 460.486C282.601 459.869 280.596 455.243 278.9 455.243C272.424 455.243 264.56 454.164 262.709 448.304C265.485 449.384 268.415 450 271.499 450.309C271.961 450.463 272.578 450 272.578 449.538C272.732 449.075 272.27 448.458 271.807 448.458C263.48 446.608 254.691 443.524 253.92 435.197C258.083 438.436 263.018 440.594 268.26 441.365C268.723 441.52 269.34 441.211 269.494 440.749C269.648 440.286 269.34 439.669 268.877 439.515C261.63 437.51 249.911 432.422 250.219 422.553C254.382 427.333 259.934 430.88 266.102 432.422C266.564 432.422 267.181 432.113 267.181 431.651C267.181 431.188 267.027 430.88 266.718 430.726C260.705 428.258 247.289 421.474 249.602 410.834C261.013 423.17 278.746 425.637 279.208 423.632C283.063 411.605 283.063 412.222 282.601 411.451C275.662 398.344 274.582 392.176 275.353 391.713C275.353 391.713 278.129 390.788 290.002 410.68C299.254 418.852 305.268 430.263 306.656 442.753C306.81 443.216 307.118 443.678 307.581 443.833C382.213 468.967 483.368 453.239 531.324 474.518ZM361.242 424.866C358.004 433.347 354.766 441.982 351.682 450.617C339.654 449.075 327.781 446.608 316.062 443.524C318.838 433.039 322.076 422.707 325.777 412.53C337.958 415.614 349.832 419.777 361.242 424.866ZM614.129 190.175C610.274 194.339 598.092 194.339 588.377 192.951C588.994 181.54 593.774 170.284 593.929 161.494C600.867 167.2 619.834 183.699 614.129 190.175ZM514.979 31.3502C557.846 33.6632 597.321 57.4099 613.666 90.5626C612.741 103.67 610.736 116.622 607.806 129.421C577.892 90.4084 533.637 64.9656 484.91 58.6435C494.162 48.7747 504.339 39.677 514.979 31.3502ZM429.244 96.7306C449.907 82.0817 482.905 91.0252 506.344 99.8146C537.954 111.534 614.745 147.925 616.442 181.694C600.096 145.92 469.798 86.3993 429.244 96.7306ZM494.933 351.622C459.93 344.991 458.233 290.559 459.159 266.966C476.737 259.873 477.508 261.415 477.663 259.102C477.971 252.009 477.663 245.07 476.737 237.977C476.737 237.36 476.275 236.897 475.812 236.743C434.641 220.861 447.902 144.532 451.294 128.033C454.533 128.187 457.771 127.879 461.009 127.108C462.397 126.337 462.859 124.795 462.088 123.407C461.78 122.944 461.472 122.482 461.009 122.328C461.009 118.473 456.691 118.473 452.991 119.398C454.533 113.23 456.229 107.062 458.079 100.894C484.447 106.137 510.199 114.772 534.408 126.337C528.086 144.07 531.941 162.111 545.818 179.998C545.973 180.306 546.435 180.306 546.744 180.152C546.744 180.152 546.744 180.152 546.898 179.998C554.454 167.508 568.486 168.587 569.103 180.769C569.719 192.951 557.692 202.049 549.057 199.119C548.44 198.81 547.669 199.119 547.36 199.736C547.052 200.352 547.206 201.123 547.823 201.432C550.29 202.82 553.066 203.282 555.687 202.82C555.841 218.856 558.154 234.739 562.318 250.159C562.472 250.775 562.935 251.238 563.551 251.392C578.046 255.556 592.232 260.644 605.956 266.812C586.99 295.493 538.725 360.102 494.933 351.622Z" fill="#020202"/>
</svg>
