<svg width="285" height="56" viewBox="0 0 285 56" fill="none" xmlns="http://www.w3.org/2000/svg">
<path d="M257.3 55.5727C272.336 55.5727 284.525 43.1359 284.525 27.7945C284.525 12.453 272.336 0.0163269 257.3 0.0163269C242.264 0.0163269 230.075 12.453 230.075 27.7945C230.075 43.1359 242.264 55.5727 257.3 55.5727Z" fill="#FEFDFD"/>
<path d="M30.6487 26.6391H24.4391L21.9601 32.8465H27.4788L26.7326 37.6508H20.0153L17.1455 44.7389H12.437L15.2846 37.6508H10.0683L7.23173 44.7389H2.44147L5.29797 37.6508H0L0.743922 32.8465H7.21185L9.69748 26.6391H3.94257L4.6887 21.8326H11.6003L14.3641 14.9246H19.1544L16.3884 21.8326H21.6025L24.3618 14.9246H29.1587L26.3971 21.8326H31.3993L30.6487 26.6391ZM19.746 26.5985H14.448L11.8807 32.9051H17.1941L19.746 26.5985Z" fill="white"/>
<path d="M66.7195 14.9246L59.9778 44.7389H52.4061L55.384 31.5649H44.2936L41.3334 44.7389H33.7617L40.5034 14.9246H48.0751L45.5938 25.898H56.6842L59.1633 14.9246H66.7195Z" fill="white"/>
<path d="M94.7208 44.7389H87.1138L86.4516 38.6576H75.7431L72.3237 44.7389H64.4297L81.9505 14.9246H90.6634L94.7208 44.7389ZM85.8909 33.306L84.6966 22.6614L78.7165 33.306H85.8909Z" fill="white"/>
<path d="M123.045 20.5915H114.736C114.383 21.8874 114.102 22.9422 113.893 23.7561C113.684 24.5699 113.415 25.5707 113.087 26.7584C112.315 29.6279 111.595 31.9553 110.928 33.7407C110.38 35.2621 109.723 36.7406 108.964 38.1643C108.424 39.1854 107.78 40.1451 107.041 41.027C106.448 41.7149 105.782 42.3329 105.054 42.8694C104.168 43.5478 103.18 44.0756 102.129 44.4326C101.115 44.7671 100.056 44.9359 98.9903 44.9326C98.3368 44.9326 97.6503 44.9056 96.9307 44.8515C96.211 44.7975 95.7533 44.7577 95.5576 44.7321L97.0675 38.0652H97.3413C97.4715 38.0787 97.6062 38.099 97.743 38.1238C97.9084 38.1532 98.0762 38.1668 98.2441 38.1643C98.7143 38.1522 99.1825 38.0987 99.6437 38.0044C100.145 37.9337 100.621 37.7337 101.026 37.4233C102.254 36.4232 103.225 35.0118 103.937 33.1889C104.649 31.366 105.478 28.6632 106.423 25.0804C106.763 23.7741 107.14 22.2492 107.553 20.5059C107.967 18.7626 108.403 16.8969 108.862 14.9088H131.913L125.149 44.7231H117.575L123.045 20.5915Z" fill="white"/>
<path d="M160.5 14.9246L159.224 20.5915H145.587L144.381 25.898H157.028L155.734 31.5649H143.099L141.392 39.072H155.01L153.754 44.7389H132.58L139.322 14.9246H160.5Z" fill="white"/>
<path d="M188.385 20.6929H179.284L173.842 44.7389H166.277L171.71 20.6929H162.6L163.895 14.9246H189.677L188.385 20.6929Z" fill="white"/>
<path d="M219.901 14.9246L203.868 38.7724C203.054 40.0112 202.084 41.1351 200.982 42.1149C200.117 42.8784 199.146 43.5062 198.099 43.9776C197.24 44.3679 196.331 44.634 195.4 44.7682C194.564 44.8813 193.722 44.9384 192.879 44.9394C191.977 44.9394 190.894 44.9161 189.632 44.8695C188.369 44.823 187.548 44.7794 187.168 44.7389L188.601 38.3513H189.053C189.561 38.4745 190.078 38.5581 190.598 38.6013C191.224 38.679 191.853 38.7226 192.484 38.7319C193.563 38.7556 194.638 38.5934 195.665 38.2522C196.548 37.9323 197.13 37.5292 197.411 37.0426L190.638 14.9246H198.364L202.523 29.6482L211.872 14.9246H219.901Z" fill="white"/>
<path d="M265.965 5.50302C264.861 5.50302 263.746 5.4805 262.638 5.50302C260.754 5.54309 258.883 5.82536 257.068 6.34315C252.545 7.64726 249.764 10.715 248.565 15.2692C247.53 19.2018 246.612 23.1659 245.629 27.112C245.514 27.576 245.59 27.8305 246.071 28.013C247.311 28.5062 248.537 29.049 249.751 29.6121C250.221 29.8374 250.448 29.7743 250.746 29.2945C252.044 27.1999 253.81 25.7786 256.355 25.7133C259.936 25.621 262.45 28.3328 262.196 31.9636C261.929 35.8286 258.534 38.9121 254.894 38.5404C252.669 38.3152 251.21 36.9232 250.175 35.0245C249.938 34.5853 249.746 34.4839 249.292 34.6168C247.949 35.0042 246.605 35.3871 245.241 35.6754C244.545 35.8218 244.539 36.0786 244.751 36.6642C247.62 44.615 255.552 45.8988 260.958 43.4032C266.808 40.7004 270.073 33.9186 268.4 27.9319C266.528 21.2357 259.086 18.4022 253.351 22.2042L252.276 22.9182C252.759 20.9901 253.199 19.2446 253.629 17.4968C253.755 16.99 254.146 17.1634 254.446 17.1634C256.755 17.1769 259.064 17.2287 261.369 17.008C263.832 16.7828 266.225 16.258 268.415 15.0124C270.496 13.8234 272.15 11.987 273.137 9.77122C281.185 16.6319 284.287 30.2112 277.203 41.1621C270.194 51.9982 255.916 55.2686 244.974 48.5408C234.031 41.8131 230.217 27.3981 236.431 16.08C242.969 4.17864 256.523 1.18753 265.965 5.50302Z" fill="#EA2417"/>
<path d="M271.007 7.95358C269.93 10.7983 268.042 12.5686 265.367 13.4966C262.857 14.366 260.25 14.4719 257.64 14.4854C255.874 14.4966 254.108 14.4448 252.356 14.4854C251.693 14.4854 251.658 14.3074 251.914 13.7624C253.334 10.8343 255.751 9.32751 258.788 8.68334C260.577 8.31838 262.395 8.13131 264.219 8.12476C266.435 8.08422 268.651 8.14278 271.007 7.95358Z" fill="#028F33"/>
</svg>
