<svg width="803" height="572" viewBox="0 0 803 572" fill="none" xmlns="http://www.w3.org/2000/svg">
<g clip-path="url(#clip0)">
<path d="M490.45 66.11C488.883 64.253 486.827 62.8723 484.515 62.1246C482.203 61.377 479.728 61.2922 477.37 61.88C468.5 63.78 462.65 73.76 460.67 81.95C459.611 86.1371 459.5 90.5078 460.346 94.7431C461.192 98.9784 462.973 102.971 465.56 106.43C463.533 110.869 462.036 115.531 461.1 120.32C460.835 121.286 460.863 122.309 461.179 123.26C461.495 124.21 462.086 125.046 462.876 125.661C463.667 126.276 464.622 126.643 465.621 126.716C466.62 126.789 467.618 126.564 468.49 126.07C469.66 125.402 470.519 124.298 470.88 123C471.79 120.8 472.62 118.49 473.64 116.31C474.45 114.56 475.59 114.13 477.21 113.12C480.957 110.704 484.236 107.632 486.89 104.05C492.47 96.44 493.99 87.67 493.89 78.55C494.163 74.1356 492.952 69.7567 490.45 66.11V66.11Z" fill="#AADA91"/>
<path d="M735.43 382.16C734.65 366.57 731.15 353.65 720.73 341.61C702.23 320.47 678.67 308.66 653.07 299.97C644.246 295.832 635.09 292.44 625.7 289.83C603.78 283.57 580.41 280.78 559.15 272.09C549.01 268.09 535.51 259.09 546.91 247.61C549.165 245.344 551.898 243.612 554.91 242.54C564.934 241.651 575.025 241.839 585.01 243.1C606.07 244.98 627.51 244.72 648.65 244.7C664.56 244.7 680.48 244.34 696.39 243.84C696.81 243.84 697.22 243.84 697.64 243.84C698.042 243.89 698.448 243.89 698.85 243.84C703.773 243.757 708.513 241.965 712.26 238.77C713.37 237.96 714.46 237.14 715.5 236.44C725.24 229.72 729.37 227.31 728.91 215.12C727.77 185.12 726.78 155.26 727.54 125.23C727.521 123.293 726.877 121.413 725.704 119.871C724.531 118.328 722.892 117.206 721.03 116.67C712.36 114.67 701.59 110.53 692.57 111.39C691.742 111.169 690.887 111.061 690.03 111.07C626.86 112.43 563.7 106.53 500.57 110.74C499.382 110.8 498.219 111.099 497.15 111.62C494.915 111.493 492.72 112.249 491.036 113.725C489.353 115.2 488.317 117.278 488.15 119.51C487.826 120.088 487.561 120.698 487.36 121.33C485.259 121.661 483.343 122.725 481.951 124.334C480.56 125.943 479.784 127.993 479.76 130.12C480.12 135.85 480.42 141.55 480.76 147.28C480.295 146.487 479.642 145.821 478.859 145.34C478.076 144.859 477.187 144.577 476.27 144.52C470.52 143.93 464.69 149.43 461.85 153.97C461.462 154.566 461.127 155.195 460.85 155.85C460.178 152.027 459.174 148.269 457.85 144.62C457.57 143.88 457.29 143.12 456.98 142.36C458.18 140.696 458.899 138.735 459.06 136.69C459.411 130.211 458.368 123.731 456 117.69C454.535 112.112 451.127 107.24 446.39 103.95C444.044 102.429 441.313 101.607 438.517 101.58C435.721 101.554 432.975 102.324 430.6 103.8C419.53 111.56 425.53 127.42 431.6 136.32C433.353 139.19 435.653 141.687 438.37 143.67C439.834 144.642 441.526 145.218 443.28 145.34C444.534 145.374 445.788 145.247 447.01 144.96C448.97 150.307 450.492 155.806 451.56 161.4C451.74 162.042 452.042 162.643 452.45 163.17C452.856 163.695 453.363 164.133 453.94 164.46C454.521 164.788 455.159 165.002 455.82 165.09C456.49 165.176 457.17 165.125 457.82 164.94C458.686 164.719 459.47 164.254 460.08 163.6C460.609 166.142 461.78 168.507 463.48 170.47C465.324 172.395 467.388 174.097 469.63 175.54C471.192 176.471 472.514 177.755 473.49 179.29L473.77 180.29V180.62C473.335 181.167 472.811 181.637 472.22 182.01C469.68 183.92 467.15 185.74 464.62 187.62C463.902 188.04 463.299 188.631 462.864 189.339C462.428 190.047 462.174 190.852 462.122 191.681C462.071 192.511 462.224 193.341 462.569 194.098C462.914 194.854 463.44 195.514 464.1 196.02C464.634 196.424 465.242 196.719 465.89 196.89C466.542 197.065 467.222 197.105 467.89 197.01C468.55 196.92 469.186 196.699 469.76 196.36L476.71 191.29C479.04 189.882 481.031 187.977 482.54 185.71C483.207 203.783 483.587 221.87 483.68 239.97C483.69 240.48 483.74 240.988 483.83 241.49C461.73 250.16 437.83 264 443.28 286C447.16 301.94 463.28 308.27 476.61 314.53C485.02 318.48 493.41 322.72 501.95 326.16C513.46 330.16 524.4 335.97 535.88 340.86C544.693 345.018 553.266 349.665 561.56 354.78C567.95 358.38 574.84 361.1 579.3 367.25C594.13 388.01 567.21 401.19 547.14 404.76C523.14 413.63 276.38 426.48 248.63 427.82C210.16 429.67 171.63 430.05 133.12 428.51C97.2599 427.09 61.3499 424.93 26.2799 434.13C18.6744 435.559 11.5876 438.99 5.74994 444.07C-7.25006 455.95 3.94994 468.32 17.6399 470.6C52.4299 476.35 89.4599 471.92 123.64 480.31L82.3599 491.56C68.8799 495.23 42.7999 497.14 38.4699 513.94C34.3399 529.94 51.3199 535.15 63.5799 536.06C72.6499 536.74 81.6999 535.88 90.7499 536.36C88.0805 536.913 85.5793 538.088 83.45 539.79C75.01 546.93 78.3799 558.79 87.6799 563.28C95.0099 566.83 104.81 566.28 112.75 566.73C122.53 567.297 132.327 567.7 142.14 567.94C153.473 568.2 164.807 568.2 176.14 567.94C238.53 570.04 300.93 572.55 363.37 571.77C403.92 571.26 444.47 569.36 484.79 565C509.79 562.29 535.19 559.45 559.17 551.92C573.152 548.642 586.772 543.979 599.83 538L600.91 537.75C632.938 529.557 662.879 514.704 688.78 494.16C704.734 481.945 717.132 465.687 724.69 447.07C727.93 441.683 730.483 435.911 732.29 429.89C736.73 414.62 736.22 397.87 735.43 382.16ZM699.34 137.16C700.769 136.775 702.055 135.98 703.037 134.873C704.02 133.766 704.657 132.395 704.87 130.93C706.47 131.33 708.04 131.79 709.58 132.22C709.25 149.12 709.25 166.03 709.71 182.91C709.96 192.03 710.71 201.2 710.83 210.35C710.83 214.53 711.03 215.98 709.83 217.73C709.75 216.165 709.58 214.606 709.32 213.06C708.41 208 702.76 206.12 698.4 206.88H696.27C696.223 206.654 696.156 206.434 696.07 206.22C696.6 202.78 695.41 197.43 695.23 193.98C695.1 191.67 695.03 189.44 695.05 187.24C696.547 185.726 697.466 183.737 697.649 181.616C697.832 179.495 697.266 177.377 696.05 175.63C696.649 172.463 697.564 169.365 698.78 166.38C699.159 165.447 699.342 164.447 699.32 163.44C699.307 162.434 699.092 161.442 698.69 160.52C698.284 159.6 697.7 158.768 696.973 158.073C696.245 157.378 695.388 156.834 694.45 156.47C695.552 149.904 697.187 143.44 699.34 137.14V137.16ZM478.86 170.42C476.941 168.78 474.938 167.242 472.86 165.81C471.376 164.874 470.252 163.465 469.67 161.81C469.703 161.063 469.891 160.331 470.22 159.66C470.557 159.026 471.012 158.463 471.56 158C472.65 156.83 474.48 154.78 476.15 154.93C477.187 154.955 478.205 154.645 479.053 154.047C479.901 153.45 480.534 152.595 480.86 151.61C481.27 159.22 481.6 166.82 481.93 174.42C481.124 172.933 480.087 171.583 478.86 170.42V170.42Z" fill="#AADA91"/>
<path d="M457.3 212.69C457.011 211.986 456.79 211.256 456.64 210.51C456.65 210.467 456.65 210.423 456.64 210.38C456.64 210.16 456.64 209.94 456.64 209.72C456.56 208.254 456.56 206.786 456.64 205.32C456.946 202.214 456.605 199.078 455.64 196.11C454.904 194.198 453.757 192.47 452.28 191.05C450.81 189.622 449.041 188.539 447.1 187.88C443.585 186.919 439.917 186.651 436.3 187.09C434.955 187.09 433.666 187.624 432.715 188.575C431.764 189.526 431.23 190.815 431.23 192.16C431.23 193.505 431.764 194.794 432.715 195.745C433.666 196.696 434.955 197.23 436.3 197.23C438 197.23 439.69 196.98 441.37 197.03H442.31L444.08 197.48L444.94 197.99L445.57 198.62L445.9 199.23C445.948 199.543 446.035 199.849 446.16 200.14C446.14 200.36 446.14 200.58 446.16 200.8V202.8C446.16 204.09 446.16 205.33 446.03 206.7C445.788 209.643 446.17 212.604 447.15 215.39C447.535 216.64 448.364 217.707 449.48 218.39C450.351 218.889 451.348 219.122 452.35 219.06C453.1 219.01 453.829 218.793 454.485 218.426C455.141 218.06 455.707 217.552 456.143 216.939C456.578 216.327 456.872 215.625 457.003 214.885C457.134 214.145 457.099 213.385 456.9 212.66L457.3 212.69Z" fill="#AADA91"/>
<path d="M456.64 210.48V210.23C456.65 210.273 456.65 210.317 456.64 210.36V210.48Z" fill="#AADA91"/>
<path d="M566.56 125.84H485.81V142.52H566.56V125.84Z" fill="black"/>
<path d="M721.67 127L697.09 122.21L700.09 238.65L722.66 226.2L721.67 127Z" fill="black"/>
<path d="M545.77 145.61C541.97 145.35 526.51 145.86 522.71 145.61C522.578 145.621 522.455 145.678 522.36 145.77C522.268 145.86 522.211 145.981 522.2 146.11C522.2 154.48 521.69 191.98 521.69 196.04C521.44 196.04 521.44 196.29 521.69 196.55C521.693 196.618 521.722 196.682 521.77 196.73C521.82 196.773 521.884 196.798 521.95 196.8C526 196.8 541.71 197.05 545.52 197.05C546.28 197.05 545.52 162.33 546.02 146.11L545.77 145.61ZM545.56 196.55C541.75 196.29 526.3 196.29 522.49 196.04C521.99 191.98 523 154.98 523 146.88C526.8 146.88 542 146.62 545.81 146.37C545.77 154.73 545.26 194.52 545.56 196.55Z" fill="#020202"/>
<path d="M545.56 197.66H521.95C521.763 197.661 521.581 197.601 521.43 197.49C521.28 197.38 521.168 197.226 521.11 197.05C521.007 196.922 520.935 196.771 520.9 196.61C520.859 196.449 520.859 196.281 520.9 196.12C520.94 196.048 520.983 195.978 521.03 195.91C521.03 193.73 521.03 186.79 521.23 178.7C521.36 166.49 521.56 151.29 521.56 146.34C521.565 146.039 521.687 145.752 521.9 145.54C522.112 145.327 522.399 145.205 522.7 145.2H534.18C538.9 145.2 543.87 145.08 545.79 145.2H546.15L546.65 146.2V146.35C546.42 153.83 546.48 165.26 546.5 175.35C546.5 191.63 546.5 195.93 546.22 197.2V197.45C546.19 197.547 546.139 197.636 546.07 197.71L545.89 197.91L545.56 197.66ZM523.06 195.41C525.24 195.41 529.72 195.58 534.06 195.63C538.4 195.68 542.63 195.76 544.86 195.86C544.86 192.52 544.86 179.64 545.01 163.42C545.01 156.42 545.14 150.2 545.14 147.03C540.75 147.26 528.06 147.46 523.59 147.48C523.59 150.48 523.59 156.2 523.37 162.69C523.11 175.69 522.81 191.58 523.04 195.43L523.06 195.41Z" fill="black"/>
<path d="M639.61 233.67H640.61C640.3 227.11 640.61 171.58 640.3 143.07H639.56C639.31 153 639.99 228.07 639.61 233.67Z" fill="#020202"/>
<path d="M638.93 234.33V233.65C639.13 230.53 638.93 205.49 638.93 183.37C638.93 164.94 638.75 147.53 638.93 143.1V142.52H640.93V143.17C641.08 157.42 641.08 178.3 641.08 196.7C641.08 215.1 641.08 230.48 641.23 233.75V234.41L638.93 234.33Z" fill="black"/>
<path d="M613.33 234.41C613.33 234.41 614.24 150.02 614.55 143.41C616.88 143.41 632.92 143.41 639.55 143.08V142.78C639.55 142.27 629.41 142.53 555.41 142.78C555.41 142.78 554.9 142.78 554.9 143.03C554.9 159.51 555.66 202.08 555.9 206.64C555.9 206.64 555.77 209.94 555.75 214.25C555.99 214.617 556.102 215.053 556.07 215.49C556.07 216.86 555.85 218.23 555.72 219.59C555.72 227.2 555.72 235.1 555.9 235.1H556.15C574.4 235.1 634.46 234.6 639.53 234.1V233.72C633 233.75 616.78 234.41 613.33 234.41ZM581.71 234.89C581.295 234.95 580.874 234.95 580.46 234.89H556.62C556.62 223.21 555.4 150.5 555.4 144.29C564.6 144.14 573.72 144.04 582.82 143.96C582.79 144.068 582.79 144.182 582.82 144.29C583.1 173.54 583.4 234.89 583.4 234.89H582.31C582.113 234.94 581.907 234.94 581.71 234.89V234.89ZM584.24 234.89C584.24 229.06 584.24 151.26 583.63 144.29C583.66 144.172 583.66 144.048 583.63 143.93C593.54 143.93 603.47 143.76 613.46 143.58C612.85 166.95 612.24 227.58 612.24 234.15C612.12 234.41 584.24 234.76 584.24 234.76V234.89Z" fill="#020202"/>
<path d="M556.16 235.67H555.65L555.48 235.5C555.25 235.27 555.07 235.09 555.1 219.5L555.45 215.35C555.458 215.041 555.371 214.737 555.2 214.48V214.15C555.106 211.616 555.156 209.078 555.35 206.55C555.1 201.69 554.35 159.08 554.35 142.94C554.35 142.43 554.83 142.05 555.49 142.05L605.16 141.88C639.47 141.73 639.5 141.73 639.98 142.23L640.18 142.41V143.63H639.56C633.75 143.9 620.98 143.93 615.13 143.96C614.82 153.36 614.04 225.96 613.96 233.64C615.96 233.64 619.96 233.47 624.1 233.34C629.65 233.16 635.93 232.96 639.46 232.91H640.17V233.59C640.17 234.02 640.17 234.38 639.69 234.53L639.3 234.66C632.56 235.19 574.71 235.67 556.16 235.67ZM557.25 234.1H580.46C580.855 234.159 581.256 234.159 581.65 234.1C581.751 234.13 581.859 234.13 581.96 234.1H582.77C582.77 227.52 582.47 171.84 582.19 144.44C573.65 144.44 564.88 144.62 556.19 144.77C556.19 148.57 556.42 162.23 556.65 177.89C556.87 200.73 557.25 226.48 557.28 234.13L557.25 234.1ZM584.25 144.44C584.8 152.35 584.83 218.98 584.83 234.13C594.66 234.13 608.73 233.72 611.46 233.5C611.46 225.16 612.07 167.61 612.68 144.09C603.17 144.27 593.56 144.44 584.27 144.44H584.25ZM613.39 173.56C613.19 188.77 612.98 205.16 612.88 217.17C613.03 204.91 613.18 188.08 613.41 173.56H613.39Z" fill="black"/>
<path d="M644.56 239.25H643.98V237.8H665.14V239.07H655.56L644.56 239.25Z" fill="black"/>
<path d="M501.67 121.05V117.76H493.31C493.31 119.28 493.13 119.07 493.06 117.58H492.45V121.05H501.67Z" fill="#020202"/>
<path d="M491.89 121.79V117H493.74V117.2H502.38V121.79H492.83H491.89ZM493.13 120.39H500.99V118.39H493.89C493.89 119.08 493.64 119.39 493.16 119.39L493.13 120.39Z" fill="black"/>
<path d="M721.65 123.56C717.59 123.05 701.37 119.76 697.57 118.49V121.94C702.13 123.2 718.66 126.25 721.65 127.01C721.67 125.77 721.65 124.62 721.65 123.56Z" fill="#020202"/>
<path d="M722.31 127.77L721.52 127.59C720.38 127.31 717.24 126.68 713.59 125.97C707.66 124.8 700.26 123.43 697.45 122.55H696.99V117.63L697.8 117.88C701.6 119.15 717.8 122.45 721.8 122.95H722.36L722.31 127.77ZM698.23 121.46C701.3 122.24 708.23 123.61 713.84 124.73C716.84 125.31 719.54 125.84 721.04 126.17V124.17C716.55 123.51 702.94 120.77 698.23 119.4V121.46Z" fill="black"/>
<path d="M492.63 126.3V121.05C492.506 121.062 492.39 121.115 492.3 121.2C492.213 121.291 492.157 121.406 492.14 121.53V121.79C492.14 124.32 491.94 122.39 491.84 117.6H490.84C490.84 120.54 490.97 123.6 491.04 126.73C491.536 126.483 492.077 126.336 492.63 126.3V126.3Z" fill="#020202"/>
<path d="M490.35 127.72L490.12 117H492.35V120.44H493.03L493.18 126.98H492.56C492.052 127.008 491.554 127.13 491.09 127.34L490.35 127.72ZM491.51 123.48V125.82H491.94V123.69C491.77 123.58 491.54 123.58 491.54 123.48H491.51Z" fill="black"/>
<path d="M519.23 237.78C519.39 217.86 519.23 148.42 519.23 143.58H547.87C547.87 161.32 548.2 217.51 548.23 237.65H548.71C548.94 237.48 549.16 237.65 549.44 237.65C549.44 225.26 548.89 183.22 548.89 142.65C548.89 141.89 551.67 142.14 519.23 142.14C518.98 142.14 518.47 142.4 518.47 142.65C518.02 160.94 518.2 220.83 518.47 237.86C518.718 237.794 518.974 237.767 519.23 237.78V237.78Z" fill="#020202"/>
<path d="M519.87 238.54H519.13C518.895 238.5 518.655 238.5 518.42 238.54H517.72V237.8C517.49 220.8 517.31 160.64 517.72 142.59C517.72 141.86 518.63 141.45 519.08 141.45H537.66C548.96 141.45 548.94 141.45 549.29 141.91C549.349 142.028 549.38 142.158 549.38 142.29C549.38 142.422 549.349 142.552 549.29 142.67C549.29 172.32 549.54 203.34 549.7 221.89V238.08H549.22C549.037 238.13 548.843 238.13 548.66 238.08H548.23L547.42 238.34V237.48C547.42 228.78 547.42 213.42 547.27 197.33C547.27 176.22 547.09 154.4 547.06 144.11H519.69V152.63C519.69 173.28 519.87 221.63 519.69 237.7L519.87 238.54ZM519.03 143H548.2V142.77H519.03V143Z" fill="black"/>
<path d="M433.25 425.47C423.74 426.1 414.25 426.73 404.79 427.16C376.58 428.94 272.79 431.7 228.02 432.71C227.178 432.77 226.332 432.77 225.49 432.71V432.92C217.89 433.17 79.77 432.92 69.89 432.92C69.6908 432.927 69.5018 433.01 69.3608 433.151C69.2199 433.292 69.1374 433.481 69.13 433.68C69.1005 433.778 69.1005 433.882 69.13 433.98C69.1612 434.078 69.2162 434.168 69.29 434.24C69.3595 434.317 69.4498 434.373 69.55 434.4C69.6518 434.425 69.7582 434.425 69.86 434.4C130.68 435.4 179.44 435.4 220.16 434.75C222.492 434.329 224.868 434.211 227.23 434.4C268.54 433.64 301.33 432.4 330.63 431.4C418.09 428.25 419.05 427.59 433.34 426.53C433.4 426.357 433.423 426.173 433.407 425.99C433.392 425.808 433.338 425.631 433.25 425.47V425.47Z" fill="#020202"/>
<path d="M161.27 435.88C133.39 435.88 103.27 435.63 70.04 435.1C69.853 435.114 69.6651 435.087 69.49 435.02C69.3132 434.956 69.1527 434.853 69.0197 434.72C68.8867 434.587 68.7844 434.427 68.72 434.25C68.6578 434.074 68.6307 433.887 68.64 433.7C68.6521 433.324 68.8056 432.967 69.07 432.7C69.2003 432.567 69.3559 432.461 69.5276 432.389C69.6994 432.317 69.8837 432.28 70.07 432.28H87.28C125.67 432.28 213.99 432.46 224.89 432.28L225.65 432.08H228.03C271.57 431.08 376.51 428.27 404.82 426.5C414.37 426.07 424.1 425.44 433.25 424.8H433.79L433.96 425.46L434.19 426.46L434.42 427.23H433.56L428.49 427.63C417.49 428.52 407.03 429.35 330.8 432.09L318.58 432.52C292.58 433.43 263.08 434.52 227.35 435.05C225.012 434.875 222.66 434.99 220.35 435.39C202.02 435.88 182.36 435.88 161.27 435.88ZM70.04 433.58H69.91L70.04 433.7C128.33 434.64 177.57 434.7 220.35 434.06C222.697 433.63 225.091 433.509 227.47 433.7C262.95 433 292.56 432 318.56 431.17L330.8 430.74C397.7 428.33 413.9 427.39 424.31 426.61C417.9 427.01 411.31 427.39 404.85 427.7C376.56 429.47 271.56 432.26 228.02 433.25H226.27L225.64 433.45C219.46 433.65 126.81 433.45 87.2 433.45L70.04 433.58Z" fill="black"/>
<path d="M726.49 380.53C721.9 354.68 702.39 333.65 680.09 319.71C635.48 291.83 571.87 292.34 542.73 283.22C536.256 281.681 530.531 277.91 526.56 272.57C524.705 269.548 523.832 266.027 524.059 262.488C524.287 258.95 525.604 255.57 527.83 252.81C532.228 246.972 537.737 242.061 544.04 238.36V238.21L580.51 238.46C580.937 238.36 581.382 238.36 581.81 238.46V238.21L644.65 238.54C643.65 209.27 644.17 135.32 644.65 127.46C647.7 127.46 682.42 126.96 696.35 126.46C696.35 149.01 696.61 224.03 696.86 238.73C694.86 238.57 679.12 238.73 665.18 238.73C690.18 238.88 700.03 238.93 700.18 238.73C707.54 234.16 715.18 230.11 722.74 226.31L722.23 127.22L721.75 127.07C721.75 155.7 722 219.52 722.23 226.56C714.766 229.867 707.542 233.69 700.61 238C699.83 215.19 698.38 163.72 697.83 135.31V121.86H696.1V125.43C680.1 125.92 611.1 126.2 559.63 126.35C593.63 126.52 631.07 126.7 643.9 126.7C642.63 155.59 643.64 229.85 643.9 237.96C641.16 238.46 613.18 238.21 583.07 237.96H582.67C581.404 237.88 580.135 237.88 578.87 237.96C578.652 237.973 578.436 237.909 578.26 237.78H577.7C577.623 237.79 577.546 237.79 577.47 237.78L503.65 237C503.23 234.174 503.069 231.315 503.17 228.46C503.059 228.285 502.991 228.086 502.97 227.88C502.61 224.88 502.97 221.88 502.61 218.88V218.68C502.23 196.73 501.88 163.91 501.8 142.78H501.27C501.14 164.6 501.27 190.93 502.1 219.44C502.26 221.69 502.23 223.97 502.23 226.25V230.25C502.23 232.48 502.38 234.74 502.38 237.12L495.79 236.87V232.56C495.66 232.242 495.593 231.903 495.59 231.56V227.02C495.613 226.247 495.563 225.474 495.44 224.71V217.34C494.58 194.02 493.74 166.88 493.11 141.87C492.509 141.848 491.92 141.702 491.38 141.44C491.99 167.94 492.73 196.96 493.38 216.32H493.23V216.5C493.34 217.741 493.34 218.989 493.23 220.23C493.23 221.62 493.36 223.01 493.46 224.41H493.84C493.781 228.556 493.948 232.702 494.34 236.83C494.399 237.007 494.498 237.168 494.63 237.3C494.766 237.432 494.93 237.531 495.11 237.59L514.11 237.84C499.177 240.388 484.988 246.192 472.55 254.84C465.636 258.853 459.671 264.31 455.06 270.84C453.214 273.826 452.279 277.286 452.369 280.796C452.46 284.306 453.572 287.713 455.57 290.6C473.82 318.23 547.31 316.71 584.06 356.75C588.37 361.31 592.67 366.38 593.69 372.75C594.188 377.351 593.398 382.001 591.41 386.18C584.31 400.63 567.33 408.49 552.89 413.05C520.95 422.93 486.74 421.92 453.8 423.95L445.38 424.5V425.67C453.16 425.24 464.38 424.67 482.38 423.95C515.07 422.68 563.22 419.89 585.77 395.56C593.89 386.95 597.94 374.56 591.35 364.9C564.74 325.36 506.96 319.79 475.79 304.84C465.4 300.02 450.19 290.9 452.98 277.21C454.75 268.34 463.12 262.01 470.21 257.21C484.914 246.592 502.114 239.958 520.14 237.95H541.93C532.56 244.03 520.39 253.66 522.42 266.33C526.98 293.45 586.79 285.85 646.09 305.62C687.91 319.55 725.16 350.98 726.93 393.05C727.357 399.887 727.273 406.746 726.68 413.57C718.06 494.67 599.68 531.67 519.68 545.57C428.68 561.57 313.39 563.31 221.4 557.73C221.231 557.731 221.069 557.8 220.95 557.92C220.892 557.979 220.846 558.05 220.815 558.127C220.784 558.204 220.769 558.287 220.77 558.37C220.768 558.452 220.782 558.533 220.813 558.609C220.844 558.685 220.891 558.753 220.95 558.81C221.069 558.93 221.231 558.999 221.4 559C342.28 566.1 515.12 563.31 627.13 516.17C642.36 510.01 657.031 502.549 670.98 493.87C694.04 478.67 715.07 457.87 723.98 431.02C728.829 414.631 729.69 397.319 726.49 380.53V380.53ZM699.56 238.61H698.04V184.71C698.64 208.56 699.34 230.61 699.56 238.61Z" fill="#020202"/>
<path d="M321.13 562.8C283.4 562.8 249.08 561.45 221.36 559.8C221.198 559.797 221.039 559.763 220.89 559.7C220.597 559.562 220.371 559.314 220.26 559.01C220.202 558.86 220.178 558.7 220.19 558.54C220.185 558.376 220.213 558.213 220.27 558.06C220.328 557.909 220.412 557.77 220.52 557.65C220.634 557.532 220.77 557.436 220.92 557.37C221.065 557.306 221.222 557.272 221.38 557.27C327.82 563.73 439.38 559.19 519.57 545.13C578.57 534.84 716.76 501.49 726.11 413.65C726.698 406.859 726.782 400.033 726.36 393.23C724.46 348.29 683.56 318.9 645.95 306.35C622.95 298.75 600.1 295.17 580.06 292.08C548 287.17 524.81 283.59 521.95 266.56C519.95 254.22 530.77 244.92 539.95 238.69H520.3C502.408 240.702 485.335 247.291 470.73 257.82C462.87 263.17 455.4 269.22 453.73 277.46C451.68 287.46 459.26 296.54 476.18 304.4C486.655 308.958 497.414 312.833 508.39 316C538.65 325.53 572.96 336.27 592.02 364.65C599.02 374.79 594.22 387.79 586.39 396.11C562.77 421.45 510.59 423.6 482.49 424.69C466.35 425.35 454.26 425.91 445.57 426.41H444.96V425.5C444.94 425.274 444.94 425.046 444.96 424.82V424.21L445.56 424H447.05L454 423.54C461.25 423.11 468.67 422.8 475.87 422.54C501.54 421.54 528.1 420.41 552.94 412.71C572.65 406.5 585.48 397.5 591.08 386.17C593.029 382.107 593.802 377.579 593.31 373.1C592.31 366.89 587.88 361.8 583.83 357.49C564.37 336.27 534.41 326.77 508 318.36C484.36 310.75 463.93 304.36 455.29 291.27C453.237 288.274 452.095 284.749 452.001 281.118C451.907 277.488 452.865 273.908 454.76 270.81C459.428 264.198 465.482 258.683 472.5 254.65C483.345 247.127 495.521 241.735 508.38 238.76L495.38 238.58C495.033 238.521 494.714 238.353 494.47 238.1C494.221 237.851 494.059 237.528 494.01 237.18C493.609 233.243 493.432 229.287 493.48 225.33H493.22L493.1 224.79C493.1 223.4 492.94 221.98 492.87 220.59C492.98 219.366 492.98 218.134 492.87 216.91V215.91H493C492.26 194.85 491.5 164.06 491 141.78V140.78L491.94 141.21C492.386 141.45 492.883 141.58 493.39 141.59H494.02V142.2C494.7 168.81 495.52 195.42 496.35 217.2V231.88C496.347 232.147 496.398 232.413 496.5 232.66V236.59L501.83 236.8C501.83 234.89 501.83 233.04 501.7 231.22V225.47C501.7 223.57 501.7 221.61 501.57 219.71V218.71C500.89 193.85 500.57 168.4 500.76 143.01V142.38H502.56V143C502.56 165.33 503.04 198.76 503.37 219V219.25C503.37 220.52 503.5 221.94 503.52 223.25C503.502 224.859 503.568 226.468 503.72 228.07C503.748 228.192 503.792 228.309 503.85 228.42V228.73C503.781 231.369 503.908 234.01 504.23 236.63L577.52 237.37L577.7 237.88V237.37H578.56C579.506 237.32 580.454 237.32 581.4 237.37H584.72C612.31 237.6 638.47 237.82 643.16 237.37C642.85 226.5 641.94 156.07 643.16 127.31C629.01 127.31 590.16 127.13 559.53 126.95V125.69C602.76 125.69 677.39 125.3 695.36 124.8V121.05H698.36V135.05C698.92 163.3 700.36 213.84 701.12 236.62C707.641 232.621 714.416 229.05 721.4 225.93C721.14 217.05 720.92 155.57 720.92 126.84V126.02L721.68 126.23C722.24 126.23 722.68 126.46 722.68 126.99L723.21 226.48L722.85 226.66H722.7L722.35 226.81C713.65 231.17 706.66 235.05 700.35 238.95H665.03V237.8H696.03C695.77 221.69 695.54 149.28 695.54 126.85C681.99 127.34 650.59 127.79 645.06 127.85C644.58 138.14 644.12 209.85 645.06 238.27V238.93H641.56L582.21 238.62V239H581.45C581.122 238.912 580.777 238.912 580.45 239H580.27L544.41 238.74L544.13 238.92C537.898 242.562 532.458 247.414 528.13 253.19C525.99 255.853 524.723 259.109 524.499 262.518C524.275 265.926 525.107 269.321 526.88 272.24C530.772 277.447 536.373 281.118 542.7 282.61C552.07 285.55 564.85 287.45 579.7 289.68C610.98 294.37 649.9 300.2 680.29 319.18C695.29 328.58 721.42 349.06 726.94 380.43C730.206 397.386 729.338 414.88 724.41 431.43C716.53 455.28 698.61 476.55 671.19 494.64C657.256 503.345 642.595 510.826 627.37 517C539.99 553.72 419.11 562.8 321.13 562.8ZM275.31 560.9C329.09 562.39 394.63 561.68 459.38 554.64C398.216 560.59 336.737 562.681 275.31 560.9V560.9ZM567.31 408.31C562.686 410.477 557.918 412.321 553.04 413.83C528.04 421.44 501.39 422.65 475.64 423.72C468.44 424.02 461.02 424.33 453.8 424.72H453.29C460.89 424.34 470.6 423.91 482.36 423.42C504.39 422.65 541.31 421.21 567.34 408.31H567.31ZM612.56 296.5C624.002 298.723 635.294 301.659 646.37 305.29C678.99 316.16 714.01 339.6 724.55 374.76C717.07 347.23 693.68 329.14 679.8 320.37C659.56 307.65 635.56 300.86 612.56 296.5ZM543.17 238.21L542.36 238.74C533.16 244.74 521.15 254.1 523.13 266.62C523.549 268.989 524.454 271.245 525.788 273.246C527.121 275.248 528.855 276.952 530.88 278.25C529.092 276.745 527.478 275.045 526.07 273.18C524.147 270.043 523.236 266.389 523.461 262.716C523.687 259.043 525.037 255.529 527.33 252.65C531.637 246.845 537.039 241.94 543.23 238.21H543.17ZM514.17 237.93V238.44L517.17 237.96L514.17 237.93ZM696.96 125.69V126.35C696.96 148.04 697.19 222.04 697.45 238.06V184.84H698.45C697.97 166.84 697.52 148.62 697.26 135.32V122.65H696.78V126L696.96 125.69ZM698.71 238H698.97L698.81 233.29V230.4L698.71 238ZM494.07 224.07H494.48V224.6C494.431 228.719 494.598 232.838 494.98 236.94C495.054 237.03 495.142 237.107 495.24 237.17V232.91C495.1 232.546 495.029 232.16 495.03 231.77V227.26L494.86 224.14V217.58C494.04 195.86 493.23 169.28 492.55 142.67H492.09C492.6 165.12 493.36 195.89 494.09 216.62V217.4H493.96C494.02 218.449 494.02 219.501 493.96 220.55C493.89 221.64 494.07 222.85 494.07 224.07ZM644.48 126.7H644.61C646.4 126.7 657.99 126.55 670.25 126.32L644.5 126.5V126.7H644.48Z" fill="black"/>
<path d="M696.05 121.76V118.47C661.26 118.47 541.05 117.83 501.9 117.76V121.05L696.05 121.76Z" fill="#020202"/>
<path d="M696.81 122.39L501.14 121.63L501.27 117.07H501.88C525.37 117.07 577.78 117.33 624.03 117.5C654.59 117.5 682.11 117.76 696.03 117.78H696.66L696.81 122.39ZM502.56 120.44L695.56 121.13V119.13C681.47 119.13 654.28 118.98 624.2 118.85C578.36 118.67 526.43 118.47 502.68 118.42L502.56 120.44Z" fill="black"/>
<path d="M502.21 126.35H559.56C535.11 126.2 512.42 126.04 501.91 125.94V126.37L502.21 126.35Z" fill="#020202"/>
<path d="M502.13 127L501.29 126.8V125.23H501.93C511.63 125.23 533.17 125.48 559.58 125.63V126.9H502.18L502.13 127Z" fill="black"/>
<path d="M432.56 189.63C435.78 189.63 438.65 189.78 441.56 189.93C443.482 189.831 445.393 190.281 447.068 191.229C448.744 192.176 450.114 193.582 451.02 195.28C452.191 197.814 452.51 200.659 451.93 203.39C451.509 204.906 451.545 206.512 452.032 208.008C452.519 209.504 453.437 210.823 454.67 211.8C453.795 211.657 452.998 211.211 452.419 210.54C451.839 209.869 451.514 209.016 451.5 208.13C451.37 206.28 451.5 204.4 451.5 202.55C451.539 201.146 451.462 199.741 451.27 198.35C450.967 196.113 449.835 194.072 448.097 192.631C446.36 191.19 444.144 190.454 441.89 190.57C439.36 190.57 436.83 190.36 434.44 190.21C433.795 190.083 433.165 189.888 432.56 189.63V189.63Z" fill="black"/>
<path d="M468.73 189.4C469.582 189.077 470.392 188.651 471.14 188.13C476.38 183.7 476.74 180.3 472.73 174.57C471.16 172.34 469.64 170.09 468.22 167.78C466.687 165.727 465.924 163.201 466.062 160.642C466.201 158.084 467.234 155.655 468.98 153.78C471.472 151.069 474.145 148.53 476.98 146.18L477.92 147.18C476.75 148.25 475.69 149.44 474.44 150.4C467.25 156.05 466.51 162.67 471.91 170.07C474.172 172.977 476.008 176.193 477.36 179.62C478.65 183.2 474.82 189.33 471 190.62C470.57 190.77 470 190.46 469.45 190.36L468.73 189.4Z" fill="black"/>
<path d="M456.06 132.48C455.659 128.323 454.553 124.265 452.79 120.48C451.513 116.97 449.548 113.751 447.01 111.01C445.429 109.203 443.279 107.99 440.916 107.57C438.552 107.15 436.116 107.549 434.01 108.7C432.325 109.392 430.889 110.578 429.893 112.103C428.897 113.628 428.386 115.419 428.43 117.24C428.47 118.734 428.701 120.216 429.12 121.65C430.315 126.466 432.442 131.001 435.38 135C437.959 138.583 441.618 141.246 445.82 142.6C446.911 143.05 448.094 143.231 449.27 143.13C450.441 143.024 451.57 142.636 452.56 142C453.56 141.373 454.388 140.507 454.97 139.48C455.57 138.465 455.913 137.318 455.97 136.14C456.117 134.926 456.147 133.7 456.06 132.48V132.48ZM446.93 121.33C446.12 120.42 445.29 119.51 444.4 118.57C442.98 116.95 441.56 115.3 440.17 113.65C440.02 113.47 439.79 113.32 439.71 113.09C439.617 112.845 439.617 112.575 439.71 112.33C439.82 112.27 439.944 112.239 440.07 112.24C440.192 112.24 440.313 112.271 440.42 112.33C442.014 112.891 443.456 113.816 444.631 115.031C445.806 116.246 446.682 117.718 447.19 119.33C447.295 119.947 447.335 120.574 447.31 121.2L446.93 121.33ZM450.46 126.93C450.266 126.924 450.077 126.869 449.91 126.77C449.746 126.666 449.611 126.521 449.52 126.35C449.52 126.04 449.52 125.35 449.82 125.21C449.949 125.14 450.093 125.099 450.24 125.09C450.385 125.077 450.531 125.094 450.67 125.14C450.806 125.19 450.931 125.264 451.04 125.36C451.146 125.459 451.231 125.578 451.29 125.71C451.324 125.851 451.324 125.999 451.29 126.14C451.268 126.287 451.213 126.427 451.13 126.55C451.039 126.664 450.927 126.759 450.8 126.83C450.67 126.898 450.526 126.932 450.38 126.93H450.46Z" fill="black"/>
<path d="M457.78 160V159.64C457.078 158.321 456.502 156.938 456.06 155.51C455.35 152.37 455.42 149.05 453.65 146.11L455.75 144.92C455.006 144.109 454.155 143.402 453.22 142.82C452.74 142.59 451.9 143.2 451.14 143.45L451.77 146.97L453.37 146.44C454.526 149.079 455.203 151.903 455.37 154.78C455.478 156.764 456.341 158.631 457.78 160V160Z" fill="black"/>
<path d="M484.11 100.7C486.447 97.2403 488.163 93.3994 489.18 89.35C490.412 85.8205 490.928 82.0812 490.7 78.35C490.656 75.9242 489.773 73.5884 488.202 71.7399C486.63 69.8913 484.467 68.644 482.08 68.21C480.345 67.6649 478.485 67.6649 476.75 68.21C475.019 68.7622 473.495 69.8255 472.38 71.26C471.462 72.4392 470.702 73.7336 470.12 75.11C467.99 79.6013 466.761 84.4661 466.5 89.43C466.18 93.8927 467.317 98.3386 469.74 102.1C470.297 103.146 471.096 104.045 472.07 104.72C473.544 105.733 475.338 106.17 477.113 105.949C478.888 105.727 480.52 104.863 481.7 103.52C482.594 102.646 483.401 101.689 484.11 100.66V100.7Z" stroke="black" stroke-width="0.5" stroke-miterlimit="10"/>
<path d="M467.84 123.66V123.18C467.616 121.234 468.122 119.274 469.26 117.68L469.39 117.45C469.74 116.82 470.12 116.16 470.5 115.55C471.688 113.905 472.55 112.049 473.04 110.08L471.36 109.44L473.42 105.74H473.67L474.4 105.95C475.04 106.12 475.65 106.28 475.88 106.71C476.171 107.463 476.349 108.255 476.41 109.06L476.56 110.06V110.51L474.03 110.08C473.559 112.219 472.698 114.253 471.49 116.08C471.01 116.9 470.49 117.76 470.07 118.62C469.677 119.553 469.372 120.52 469.16 121.51C469.095 121.979 468.974 122.439 468.8 122.88H468.42L467.84 123.66ZM469.01 119.35C468.591 120.137 468.339 121.001 468.27 121.89C468.297 121.726 468.34 121.565 468.4 121.41C468.558 120.711 468.761 120.022 469.01 119.35V119.35ZM473.44 109.47L475.72 109.85V109.24C475.67 108.501 475.501 107.775 475.22 107.09C475.22 106.91 474.61 106.78 474.22 106.68L473.69 106.53L472.24 109.06L473.53 109.55L473.44 109.47Z" fill="black"/>
<path d="M724 52.81L726.11 52.31C728.037 51.7724 730.081 51.8252 731.978 52.4617C733.875 53.0981 735.537 54.2888 736.75 55.88C737.383 56.6601 737.926 57.5087 738.37 58.41C738.513 58.7469 738.762 59.0278 739.08 59.21C739.386 59.3734 739.735 59.4396 740.08 59.4C744.42 59.07 748.77 58.67 753.08 58.64C757.39 58.61 762.25 58.9 766.84 59.15C770.26 59.35 773.66 59.71 776.98 60.04C778.772 60.2204 780.555 60.4907 782.32 60.85C786.07 61.63 789.8 62.47 793.55 63.38C795.83 63.94 798.09 64.62 800.37 65.15C800.916 65.2698 801.407 65.5657 801.769 65.9921C802.13 66.4185 802.341 66.9518 802.37 67.51C802.427 68.013 802.322 68.5211 802.07 68.96C801.817 69.4078 801.423 69.7594 800.95 69.96C798.325 71.4819 795.546 72.7222 792.66 73.66C786.961 75.6901 781.148 77.3831 775.25 78.73C773.672 79.1011 772.072 79.3716 770.46 79.54C766.28 79.99 762.08 80.33 757.79 80.81C752.835 81.1201 747.864 81.0499 742.92 80.6C738.23 80.4 733.69 79.36 729.08 78.75C728.591 78.6749 728.09 78.7445 727.64 78.95C727.191 79.152 726.809 79.4782 726.54 79.89C725.041 82.0949 722.923 83.8064 720.453 84.8084C717.983 85.8104 715.271 86.058 712.66 85.52C710.988 85.2825 709.382 84.7075 707.94 83.83C706.494 82.96 705.237 81.8111 704.24 80.45C703.892 79.9453 703.42 79.5389 702.87 79.27C702.318 79.0084 701.709 78.8914 701.1 78.93C692.03 79.11 682.96 79.29 673.88 79.36H650.69C649.815 79.462 648.928 79.3309 648.12 78.98C647.327 78.6322 646.638 78.0843 646.12 77.39C645.404 76.3291 645.062 75.0596 645.149 73.7826C645.236 72.5056 645.747 71.2941 646.6 70.34C648.481 68.28 650.909 66.7959 653.6 66.06C657.651 64.8138 661.935 64.5162 666.12 65.19C668.5 65.6 670.86 66.06 673.24 66.51L674.15 66.72C677.45 67.17 678.61 66.18 678.69 62.84C678.599 61.3686 678.958 59.9045 679.719 58.6418C680.48 57.3791 681.607 56.3776 682.95 55.77C684.415 55.282 685.926 54.9469 687.46 54.77C688.256 54.6859 689.045 54.5422 689.82 54.34C690.432 54.1899 690.966 53.8165 691.318 53.293C691.669 52.7695 691.813 52.1336 691.72 51.51C691.74 50.7643 691.697 50.0182 691.59 49.28C691.556 46.5385 692.412 43.86 694.03 41.6461C695.647 39.4321 697.938 37.802 700.56 37C703.088 36.0726 705.817 35.8277 708.47 36.29C712.033 36.9701 715.319 38.6808 717.92 41.21C720.577 43.8819 722.475 47.2124 723.42 50.86C723.56 51.39 723.78 52 724 52.81ZM750.34 79.47L755.1 79.2C757.33 79.02 759.56 78.69 761.79 78.69C766.307 78.5095 770.8 77.9407 775.22 76.99C778.458 76.3989 781.645 75.5529 784.75 74.46C789.36 72.96 793.9 71.26 798.44 69.62C799.44 69.26 800.72 68.85 800.56 67.62C800.4 66.39 799.12 66.41 798.18 66.2C794.25 65.27 790.33 64.3 786.37 63.49C782.85 62.78 779.3 62.15 775.73 61.69C772.16 61.23 768.33 60.96 764.6 60.76C760.87 60.56 757.38 60.35 753.81 60.45C748.89 60.58 744 60.98 739.11 61.31C738.74 61.3763 738.358 61.3127 738.03 61.13C737.707 60.9513 737.454 60.6696 737.31 60.33C737.156 60.0041 737.019 59.6703 736.9 59.33C736.026 57.2677 734.414 55.6053 732.38 54.6677C730.346 53.7301 728.035 53.5848 725.9 54.26C725.494 54.4035 725.096 54.5704 724.71 54.76C723.34 55.3 722.97 55.09 722.59 53.68C722.21 52.27 721.93 50.89 721.47 49.54C718.78 41.54 709.89 35.48 701.04 38.7C698.919 39.2594 697.018 40.4504 695.589 42.1148C694.16 43.7793 693.271 45.8387 693.04 48.02C692.998 49.3248 693.042 50.6309 693.17 51.93C693.28 52.8379 693.027 53.7526 692.464 54.4741C691.902 55.1956 691.077 55.6651 690.17 55.78C688.78 56.08 687.36 56.34 685.97 56.51C684.367 56.5903 682.858 57.2921 681.764 58.4665C680.67 59.6408 680.077 61.1953 680.11 62.8V64.29C680.128 64.9203 680.002 65.5465 679.74 66.12C679.478 66.6938 679.084 67.1975 678.59 67.59C678.1 67.9877 677.523 68.2639 676.906 68.396C676.289 68.528 675.65 68.5123 675.04 68.35C673.62 68.17 672.23 67.82 670.81 67.56C668.301 67.0075 665.764 66.5936 663.21 66.32C658.452 66.0615 653.721 67.198 649.6 69.59C648.342 70.2911 647.358 71.398 646.81 72.73C646.579 73.2521 646.47 73.8196 646.49 74.39C646.517 74.9608 646.682 75.5165 646.97 76.01C647.25 76.5084 647.649 76.9306 648.13 77.24C648.612 77.5496 649.16 77.7415 649.73 77.8C651.208 77.9987 652.698 78.0923 654.19 78.08C658.6 78.08 663 77.93 667.41 77.88C678.79 77.7 690.22 77.57 701.53 77.35C702.294 77.278 703.064 77.4171 703.755 77.752C704.446 78.087 705.033 78.6052 705.45 79.25C706.835 81.2228 708.795 82.7209 711.062 83.5404C713.329 84.3599 715.793 84.461 718.12 83.83C720.098 83.4971 721.924 82.561 723.35 81.15C724.158 80.2916 724.903 79.3759 725.58 78.41C726.82 76.66 727.07 76.53 729.1 77.07C729.455 77.1839 729.82 77.2675 730.19 77.32C734.32 77.78 738.35 78.81 742.53 78.97C745.141 78.9738 747.749 79.1408 750.34 79.47Z" fill="white"/>
<path d="M345.82 25.69C344.22 23.9165 343.177 21.7118 342.82 19.35C342.654 18.6194 342.654 17.8607 342.82 17.13C343.057 16.0206 343.661 15.023 344.533 14.2976C345.405 13.5722 346.496 13.161 347.63 13.13C350.031 12.9814 352.44 13.2487 354.75 13.92L357.66 14.75C357.784 14.3631 357.868 13.9643 357.91 13.56C358.089 10.8602 359.047 8.27013 360.667 6.10319C362.288 3.93625 364.501 2.28528 367.04 1.35C369.58 0.241699 372.361 -0.202228 375.12 0.0599942C377.882 0.326424 380.533 1.28233 382.83 2.83999C385.542 4.46369 387.859 6.67125 389.611 9.30223C391.363 11.9332 392.507 14.9215 392.96 18.05C392.932 18.3643 392.995 18.6799 393.14 18.96C393.258 19.1202 393.385 19.2737 393.52 19.42L394.91 18.89C396.91 18.12 398.79 17.16 400.79 16.58C402.929 15.87 405.241 15.87 407.38 16.58C408.823 17.0114 410.094 17.8875 411.009 19.0835C411.925 20.2795 412.44 21.7342 412.48 23.24C412.511 24.2408 412.327 25.2365 411.94 26.16C411.94 26.4 411.94 26.65 411.94 26.89C412.423 26.92 412.907 26.92 413.39 26.89C419.135 26.2897 424.932 26.4005 430.65 27.22C433.414 27.6012 436.108 28.3792 438.65 29.53C439.53 29.9593 440.379 30.4505 441.19 31C442.039 31.5609 442.718 32.3445 443.152 33.2651C443.586 34.1858 443.758 35.208 443.65 36.22C443.541 37.2308 443.155 38.1918 442.533 38.9966C441.912 39.8014 441.08 40.4187 440.13 40.78C438.091 41.5294 435.974 42.0493 433.82 42.33C429.7 42.9 425.52 42.9 421.4 42.33C417.75 42 414.07 41.84 410.4 41.49C407.51 41.21 404.63 40.75 401.74 40.37C401.065 40.3341 400.396 40.2336 399.74 40.07C398.963 39.9104 398.158 39.9627 397.409 40.2213C396.659 40.4799 395.993 40.9354 395.48 41.54C394.127 42.9308 392.442 43.9537 390.584 44.5119C388.725 45.0701 386.755 45.1451 384.86 44.73C383.837 44.5785 382.864 44.1879 382.02 43.59C381.185 42.9882 380.5 42.2009 380.02 41.29C379.815 40.8298 379.463 40.4502 379.02 40.21C378.558 39.9832 378.034 39.9164 377.53 40.02C375 40.02 372.47 40.27 369.93 40.27H346.3C341.03 40.27 335.73 40.27 330.46 40.02L315.56 39.35H311.63C310.775 39.2981 309.928 39.1607 309.1 38.94C308.622 38.7923 308.197 38.5072 307.88 38.12C307.566 37.7312 307.374 37.2578 307.33 36.76C307.248 36.2926 307.322 35.8112 307.54 35.3901C307.759 34.9689 308.11 34.6315 308.54 34.43C309.843 33.7008 311.209 33.0884 312.62 32.6C315.885 31.6284 319.233 30.9589 322.62 30.6C326.767 30.2417 330.932 30.1482 335.09 30.32C336.517 30.3778 337.938 30.5416 339.34 30.81C340 30.81 340.59 30.81 340.84 30.1C341.241 29.0071 341.908 28.0315 342.781 27.2615C343.654 26.4915 344.706 25.9514 345.84 25.69H345.82ZM349.44 27.31C349.141 27.39 348.837 27.4502 348.53 27.49C344.75 27.49 343.46 28.25 342.27 31.69C342.182 32.0565 341.961 32.3772 341.65 32.59C341.344 32.8018 340.968 32.8878 340.6 32.83L338.36 32.6C336.14 32.43 333.93 32.2 331.67 32.1C327.828 32.0059 323.985 32.294 320.2 32.96C317.743 33.3237 315.306 33.8143 312.9 34.43C311.639 34.7626 310.445 35.3107 309.37 36.05C308.51 36.61 308.69 37.5 309.68 37.88C310.319 38.1276 310.995 38.263 311.68 38.28C314.85 38.43 318.01 38.56 321.18 38.64C327.18 38.79 333.09 38.94 339.05 39.02C352.18 39.19 365.28 39.55 378.38 38.51C378.749 38.4506 379.128 38.4992 379.47 38.65C379.813 38.796 380.105 39.0394 380.31 39.35L381.07 40.35C381.606 41.1194 382.289 41.7746 383.08 42.2774C383.872 42.7802 384.755 43.1206 385.679 43.2788C386.603 43.437 387.55 43.4098 388.463 43.1989C389.377 42.9879 390.239 42.5974 391 42.05C392.316 41.1219 393.563 40.0992 394.73 38.99C395.041 38.6414 395.437 38.3796 395.88 38.23C396.324 38.0792 396.798 38.0414 397.26 38.12C400 38.63 402.76 39.01 405.52 39.37C408.28 39.73 410.82 39.98 413.52 40.23C417.09 40.58 420.67 41.07 424.24 41.17C427.624 41.23 431.009 41.1099 434.38 40.81C436.253 40.7505 438.078 40.1987 439.67 39.21C440.242 38.9124 440.729 38.4765 441.089 37.942C441.449 37.4075 441.669 36.7914 441.73 36.15C441.786 35.5078 441.683 34.8618 441.43 34.2689C441.177 33.676 440.782 33.1543 440.28 32.75C439.08 31.6686 437.651 30.8721 436.1 30.42C431.506 29.0527 426.733 28.3786 421.94 28.42C418.36 28.42 414.76 28.82 411.16 29.03H408.56L408.33 28.6C408.617 28.1113 408.952 27.6524 409.33 27.23C410.208 26.4282 410.751 25.3247 410.85 24.14C411.1 20.76 409.3 18.53 405.09 17.95C402.733 17.5896 400.322 17.9815 398.2 19.07C396.81 19.78 395.44 20.49 394.09 21.25C392.29 22.25 391.86 22.08 391.56 20.11C391.39 18.7559 391.109 17.418 390.72 16.11C388.19 8.86 383.8 3.62 376 2.02C374.02 1.59191 371.969 1.61583 370 2.08999C368.04 2.54988 366.211 3.44921 364.65 4.72C363.089 5.99133 361.828 7.59311 360.96 9.41C360.099 11.2286 359.658 13.2178 359.67 15.23C359.618 15.9018 359.525 16.5697 359.39 17.23C358.5 16.85 357.89 16.59 357.28 16.29C354.581 14.9898 351.551 14.5399 348.59 15C347.368 15.2707 346.302 16.013 345.624 17.0654C344.946 18.1178 344.711 19.3952 344.97 20.62C345.354 22.5853 346.501 24.3185 348.16 25.44C348.83 25.79 349.62 26.19 349.44 27.31Z" fill="white"/>
</g>
<defs>
<clipPath id="clip0">
<rect width="802.51" height="571.92" fill="white"/>
</clipPath>
</defs>
</svg>
