<svg width="21.583" height="20.443" class="payment__button_wallet-ico" viewBox="0 0 21.583 20.443">
                
    <defs>
        <style>.a{fill:none;stroke-linecap:round;stroke-linejoin:round;}.b,.c{stroke:none;}.c{fill:#fff;}</style>
    </defs>

    <g class="a head" id = 'walletHead' transform="translate(2.954)">
        <path class="c" class = 'walletHeadPath' d="M 18.01521110534668 7.992905139923096 C 17.94608497619629 7.992905139923096 17.88022994995117 7.978899002075195 17.82034111022949 7.953564643859863 C 17.76044464111328 7.928230285644531 17.70650482177734 7.891571044921875 17.66120719909668 7.846271991729736 C 17.61590766906738 7.800972938537598 17.57925605773926 7.747034549713135 17.55392456054688 7.687141418457031 C 17.52859497070312 7.627248287200928 17.51458358764648 7.561400413513184 17.51458358764648 7.492279529571533 C 17.51458358764648 7.213301181793213 17.47861289978027 6.941397190093994 17.41067886352539 6.683468341827393 C 17.34275436401367 6.425539016723633 17.24286651611328 6.181585788726807 17.11503791809082 5.958513259887695 C 16.98720741271973 5.73544454574585 16.83144187927246 5.533260822296143 16.6517505645752 5.358867645263672 C 16.47206687927246 5.184474468231201 16.26846694946289 5.037871837615967 16.04495811462402 4.925968647003174 L 3.333291053771973 1.06990659236908 C 3.29696798324585 1.060170769691467 3.260583639144897 1.051668643951416 3.224184036254883 1.044388651847839 C 3.187776803970337 1.037108778953552 3.151354312896729 1.03105103969574 3.114939451217651 1.026211857795715 C 3.078524827957153 1.021372556686401 3.04213285446167 1.01774787902832 3.005786657333374 1.015334010124207 C 2.969440698623657 1.012920022010803 2.933140277862549 1.011716961860657 2.896931648254395 1.011716961860657 C 2.804859638214111 1.011716961860657 2.713322162628174 1.019489526748657 2.622861862182617 1.034924030303955 C 2.53239369392395 1.050354719161987 2.443010568618774 1.073447227478027 2.35526967048645 1.104086995124817 C 2.267520904541016 1.134726881980896 2.18140721321106 1.172910094261169 2.097485780715942 1.218526005744934 C 2.013564348220825 1.264138221740723 1.931827664375305 1.317186832427979 1.852833390235901 1.377553582191467 C 1.719526171684265 1.479426503181458 1.599640607833862 1.598380088806152 1.494811296463013 1.730957865715027 C 1.389982104301453 1.863535523414612 1.300194025039673 2.009737253189087 1.227074027061462 2.166102647781372 C 1.153954029083252 2.322468042373657 1.0975022315979 2.489004611968994 1.059322834014893 2.662248134613037 C 1.021143436431885 2.83549165725708 1.001251578330994 3.015442371368408 1.001251578330994 3.19865083694458 L 1.001251578330994 4.262530326843262 C 1.001251578330994 4.331651210784912 0.9872417449951172 4.397502899169922 0.9619110226631165 4.457396030426025 C 0.9365726709365845 4.517289161682129 0.8999133706092834 4.571227550506592 0.8546144366264343 4.61652660369873 C 0.8093155026435852 4.661825656890869 0.7553845643997192 4.69848108291626 0.6954876184463501 4.723815441131592 C 0.6355906128883362 4.749146461486816 0.5697429776191711 4.763155937194824 0.5006257891654968 4.763155937194824 C 0.4315086305141449 4.763155937194824 0.3656609356403351 4.749146461486816 0.3057639896869659 4.723815441131592 C 0.2458670288324356 4.69848108291626 0.1919360905885696 4.661825656890869 0.1466371566057205 4.61652660369873 C 0.1013382226228714 4.571227550506592 0.06467892974615097 4.517289161682129 0.0393405593931675 4.457396030426025 C 0.01400982216000557 4.397502899169922 0 4.331651210784912 0 4.262530326843262 L 0 3.19865083694458 C 0 2.937960624694824 0.02908909693360329 2.68130350112915 0.08489921689033508 2.433648824691772 C 0.1407016962766647 2.185994386672974 0.2232328355312347 1.947342395782471 0.3301245868206024 1.722665786743164 C 0.4370163083076477 1.497989177703857 0.5682686567306519 1.287284135818481 0.7215134501457214 1.095516085624695 C 0.874765932559967 0.903748095035553 1.050003290176392 0.7309208512306213 1.244880437850952 0.581999659538269 C 1.367493033409119 0.4882965385913849 1.49567449092865 0.4057959616184235 1.628149151802063 0.3347537815570831 C 1.760623693466187 0.2637116014957428 1.897391319274902 0.2041316628456116 2.03719162940979 0.156262218952179 C 2.176991939544678 0.1083889678120613 2.319832563400269 0.07223384827375412 2.464445352554321 0.04804131388664246 C 2.609065771102905 0.02385259978473186 2.75545859336853 0.01163029111921787 2.902363061904907 0.01163029111921787 C 2.960839033126831 0.01163029111921787 3.019399404525757 0.01356676314026117 3.077959537506104 0.01745498552918434 C 3.136527299880981 0.02134320698678493 3.195095062255859 0.02718699909746647 3.253578662872314 0.03499399870634079 C 3.312062501907349 0.04280481860041618 3.370469808578491 0.05258648470044136 3.428724527359009 0.06435045599937439 C 3.486979007720947 0.07611443102359772 3.545080900192261 0.08986452966928482 3.602938175201416 0.10561603307724 C 3.604099273681641 0.1059292256832123 3.605260372161865 0.106250062584877 3.606413841247559 0.1065747141838074 C 3.607567310333252 0.1068993732333183 3.608720779418945 0.1072240248322487 3.609874248504639 0.1075563207268715 C 3.611027717590332 0.1078886166214943 3.612181186676025 0.1082247272133827 3.613327026367188 0.1085646599531174 C 3.614480495452881 0.1089084148406982 3.615634202957153 0.1092521697282791 3.616780042648315 0.1095997393131256 L 16.37435722351074 3.97958779335022 C 16.38050651550293 3.981455564498901 16.38661766052246 3.983437776565552 16.39269065856934 3.98553466796875 C 16.39876365661621 3.987635374069214 16.40479850769043 3.989850759506226 16.41077995300293 3.992184400558472 C 16.41676139831543 3.994518041610718 16.42270469665527 3.996962547302246 16.42860221862793 3.999521493911743 C 16.43449211120605 4.00208044052124 16.44033432006836 4.004754066467285 16.44612503051758 4.007542610168457 C 16.76045227050781 4.158804893493652 17.04696655273438 4.357742309570312 17.29993057250977 4.594683170318604 C 17.55290222167969 4.831624031066895 17.77232933044434 5.10657262802124 17.95246315002441 5.40986156463623 C 18.13259887695312 5.713146686553955 18.2734375 6.044772148132324 18.3692455291748 6.395063400268555 C 18.46505928039551 6.745355129241943 18.51583671569824 7.114315986633301 18.51583671569824 7.492279529571533 C 18.51583671569824 7.561400413513184 18.5018253326416 7.627248287200928 18.47649574279785 7.687141418457031 C 18.45115661621094 7.747034549713135 18.41449737548828 7.800972938537598 18.36919975280762 7.846271991729736 C 18.32390022277832 7.891571044921875 18.26996994018555 7.928230285644531 18.2100715637207 7.953564643859863 C 18.15017509460449 7.978899002075195 18.08432769775391 7.992905139923096 18.01521110534668 7.992905139923096 Z"/>
    </g>
        
</svg>
    