<svg viewBox="0 0 21.583 20.443">
  <defs>
    <style>
      .a{fill:none;stroke-linecap:round;stroke-linejoin:round}.b,.c{stroke:none}.c{fill:#f58142}
    </style>
  </defs>
  <g class="a">
    <path d="M20.97 7.993a.499.499 0 01-.501-.5c0-.28-.036-.552-.104-.81a2.99 2.99 0 00-.296-.724 2.717 2.717 0 00-.463-.6 2.44 2.44 0 00-.607-.433L6.287 1.07a1.738 1.738 0 00-.436-.058 1.628 1.628 0 00-.542.092 1.743 1.743 0 00-.502.274c-.133.101-.253.22-.358.353a2.212 2.212 0 00-.268.435c-.073.156-.13.323-.168.496a2.493 2.493 0 00-.058.537v1.064a.5.5 0 01-.854.354.502.502 0 01-.147-.354V3.199a3.48 3.48 0 01.33-1.476 3.22 3.22 0 01.392-.627 3.011 3.011 0 01.906-.761 2.751 2.751 0 01.836-.287A2.654 2.654 0 016.56.107h.004l.003.002h.004l12.757 3.87a.513.513 0 01.072.029c.314.15.601.35.854.587s.472.512.652.815c.18.303.321.635.417.985.096.35.147.72.147 1.097a.5.5 0 01-.5.5z" class="c"/>
  </g>
  
</svg>
