<svg width="38" height="34" viewBox="0 0 38 34" fill="none" xmlns="http://www.w3.org/2000/svg">
<path d="M30.6667 0.333374L22.3334 7.83337V26.1667L30.6667 18.6667V0.333374ZM9.83341 5.33337C6.58341 5.33337 3.08341 6.00004 0.666748 7.83337V32.2667C0.666748 32.6834 1.08341 33.1 1.50008 33.1C1.66675 33.1 1.75008 32.9834 1.91675 32.9834C4.16675 31.9 7.41675 31.1667 9.83341 31.1667C13.0834 31.1667 16.5834 31.8334 19.0001 33.6667C21.2501 32.25 25.3334 31.1667 28.1667 31.1667C30.9167 31.1667 33.7501 31.6834 36.0834 32.9334C36.2501 33.0167 36.3334 32.9834 36.5001 32.9834C36.9167 32.9834 37.3334 32.5667 37.3334 32.15V7.83337C36.3334 7.08337 35.2501 6.58337 34.0001 6.16671V28.6667C32.1667 28.0834 30.1667 27.8334 28.1667 27.8334C25.3334 27.8334 21.2501 28.9167 19.0001 30.3334V7.83337C16.5834 6.00004 13.0834 5.33337 9.83341 5.33337Z" fill="#FABB03"/>
</svg>
