<svg width="507" height="456" viewBox="0 0 507 456" fill="none" xmlns="http://www.w3.org/2000/svg">
<path d="M473.346 188.785C488.27 188.044 499.769 175.345 499.028 160.421C498.288 145.497 485.589 133.998 470.665 134.738C455.74 135.479 444.242 148.178 444.982 163.102C445.723 178.027 458.421 189.525 473.346 188.785Z" fill="#EBEBEB"/>
<path fill-rule="evenodd" clip-rule="evenodd" d="M468.333 172.494C467.616 172.048 466.997 171.408 466.03 171.484C465.671 171.484 465.747 171.212 465.747 171.017C465.747 167.396 465.747 163.794 465.747 160.209C465.747 159.938 465.747 159.731 466.052 159.579C468.8 158.2 469.994 155.463 471.678 153.127C472.542 151.968 473.165 150.646 473.508 149.241C473.852 147.836 473.909 146.376 473.676 144.949C473.568 144.145 473.948 143.776 474.676 143.613C475.042 143.486 475.44 143.481 475.81 143.598C476.18 143.716 476.502 143.949 476.729 144.264C477.519 145.734 478.051 147.329 478.304 148.978C478.294 150.343 478.126 151.703 477.804 153.03C477.674 154.018 477.445 154.996 477.261 156.006C477.5 156.18 477.782 156.082 478.043 156.093H487.167C488.459 156.093 489.078 156.462 489.263 157.309C489.36 157.833 489.283 158.375 489.044 158.852C488.805 159.328 488.416 159.713 487.938 159.949C487.71 160.068 487.297 159.949 487.264 160.318C487.232 160.687 487.666 160.644 487.873 160.796C488.959 161.545 488.774 163.109 487.493 164.054C487.188 164.271 486.591 164.174 486.58 164.619C486.569 165.064 487.134 164.977 487.384 165.227C487.58 165.481 487.714 165.777 487.775 166.091C487.837 166.405 487.825 166.73 487.74 167.038C487.654 167.347 487.498 167.632 487.284 167.87C487.069 168.108 486.802 168.293 486.504 168.41C486.318 168.465 486.137 168.534 485.961 168.616C485.809 168.714 485.668 168.833 485.961 169.04C486.273 169.183 486.537 169.412 486.723 169.701C486.908 169.99 487.007 170.326 487.007 170.669C487.007 171.012 486.908 171.348 486.723 171.637C486.537 171.926 486.273 172.155 485.961 172.298L485.57 172.591C485.085 172.877 484.522 172.999 483.962 172.939H469.592C469.363 172.954 469.133 172.922 468.917 172.846C468.7 172.769 468.501 172.649 468.333 172.494Z" fill="white"/>
<path fill-rule="evenodd" clip-rule="evenodd" d="M454.756 166.14C454.756 163.848 454.756 161.556 454.756 159.264C454.756 158.808 454.756 158.58 455.375 158.58C458.17 158.58 460.961 158.58 463.749 158.58C464.303 158.58 464.379 158.765 464.379 159.253C464.379 163.859 464.379 168.464 464.379 173.08C464.379 173.667 464.227 173.83 463.64 173.819C460.925 173.819 458.217 173.819 455.516 173.819C454.843 173.819 454.745 173.591 454.756 172.993C454.777 170.745 454.756 168.432 454.756 166.14Z" fill="white"/>
<path d="M161.306 111.94H37.2988V32.4328H161.306V111.94ZM38.385 110.854H160.22V33.519H38.385V110.854Z" fill="#EBEBEB"/>
<path d="M161.306 43.9461H37.2988V32.4328H161.306V43.9461ZM38.385 42.86H160.22V33.519H38.385V42.86Z" fill="#EBEBEB"/>
<path d="M47.6174 38.2329C47.6174 38.7532 47.4629 39.2619 47.1736 39.6944C46.8843 40.1268 46.4732 40.4637 45.9922 40.6624C45.5113 40.861 44.9822 40.9124 44.4721 40.8101C43.9619 40.7078 43.4936 40.4564 43.1264 40.0877C42.7592 39.719 42.5097 39.2496 42.4095 38.739C42.3093 38.2284 42.363 37.6996 42.5636 37.2195C42.7642 36.7394 43.1028 36.3296 43.5365 36.0421C43.9701 35.7546 44.4794 35.6022 44.9997 35.6044C45.3444 35.6044 45.6857 35.6725 46.004 35.8047C46.3223 35.9369 46.6113 36.1307 46.8545 36.3749C47.0978 36.6191 47.2904 36.909 47.4213 37.2278C47.5522 37.5467 47.6188 37.8882 47.6174 38.2329Z" fill="#C7C7C7"/>
<path d="M58.3163 38.2329C58.3142 38.7502 58.1589 39.2552 57.8699 39.6843C57.581 40.1133 57.1714 40.4471 56.6929 40.6436C56.2144 40.84 55.6884 40.8903 55.1814 40.7881C54.6743 40.6859 54.2089 40.4357 53.8439 40.0692C53.4789 39.7027 53.2307 39.2363 53.1306 38.7288C53.0304 38.2213 53.0829 37.6955 53.2813 37.2179C53.4798 36.7402 53.8153 36.332 54.2455 36.0448C54.6758 35.7577 55.1814 35.6044 55.6987 35.6044C56.0434 35.6044 56.3846 35.6725 56.7029 35.8047C57.0212 35.937 57.3103 36.1307 57.5535 36.375C57.7967 36.6192 57.9893 36.909 58.1202 37.2279C58.2511 37.5467 58.3178 37.8883 58.3163 38.2329Z" fill="#EBEBEB"/>
<path d="M66.4087 40.8832C67.8544 40.8832 69.0263 39.7112 69.0263 38.2655C69.0263 36.8198 67.8544 35.6479 66.4087 35.6479C64.963 35.6479 63.791 36.8198 63.791 38.2655C63.791 39.7112 64.963 40.8832 66.4087 40.8832Z" fill="#FABB03"/>
<path d="M27.5671 209.304C26.2978 204.106 26.5985 198.647 28.4312 193.62C30.2639 188.592 33.5462 184.221 37.8631 181.059C42.18 177.897 47.3376 176.086 52.6838 175.855C58.0299 175.624 63.3245 176.984 67.898 179.762C72.4714 182.54 76.1184 186.612 78.3778 191.463C80.6371 196.313 81.4073 201.725 80.591 207.014C79.7747 212.302 77.4085 217.23 73.7917 221.174C70.1748 225.117 65.4698 227.9 60.2715 229.17C56.8196 230.015 53.2351 230.171 49.7229 229.629C46.2106 229.088 42.8396 227.859 39.8023 226.015C36.765 224.17 34.1211 221.744 32.0217 218.877C29.9223 216.01 28.4086 212.757 27.5671 209.304Z" fill="#EBEBEB"/>
<path d="M67.657 206.263C63.5731 214.507 53.841 219.394 53.841 219.394C53.841 219.394 44.0655 214.507 40.0359 206.263C36.6362 199.387 38.7868 191.958 44.1633 190.329C51.8642 188.004 53.841 201.418 53.841 201.418C53.841 201.418 55.8178 188.004 63.5296 190.329C68.9061 191.958 71.0567 199.387 67.657 206.263Z" fill="white"/>
<path d="M405.368 50.6044C401.089 53.237 396.163 54.6308 391.139 54.6308C386.115 54.6308 381.189 53.237 376.91 50.6044C371.904 47.5089 368.043 42.8651 365.914 37.3774C363.785 31.8897 363.504 25.8575 365.113 20.1955C366.722 14.5335 370.134 9.55065 374.83 6.00269C379.527 2.45473 385.253 0.535187 391.139 0.535187C397.025 0.535187 402.751 2.45473 407.447 6.00269C412.144 9.55065 415.556 14.5335 417.165 20.1955C418.774 25.8575 418.492 31.8897 416.364 37.3774C414.235 42.8651 410.374 47.5089 405.368 50.6044Z" fill="#EBEBEB"/>
<path d="M391.139 32.7261C395.686 32.7261 399.373 29.04 399.373 24.493C399.373 19.946 395.686 16.2599 391.139 16.2599C386.592 16.2599 382.906 19.946 382.906 24.493C382.906 29.04 386.592 32.7261 391.139 32.7261Z" fill="white"/>
<path d="M405.368 47.2047V50.6043C401.089 53.237 396.163 54.6308 391.139 54.6308C386.115 54.6308 381.189 53.237 376.91 50.6043V47.2047C376.91 43.431 378.409 39.8118 381.078 37.1434C383.746 34.475 387.365 32.9759 391.139 32.9759C394.913 32.9759 398.532 34.475 401.2 37.1434C403.869 39.8118 405.368 43.431 405.368 47.2047Z" fill="white"/>
<path d="M51.1689 393.213L101.676 392.953L152.193 392.855L253.206 392.67L354.22 392.855L404.737 392.953L455.244 393.213L404.737 393.474L354.22 393.572L253.206 393.756L152.193 393.572L101.676 393.474L51.1689 393.213Z" fill="#263238"/>
<path d="M140.951 455.788C209.229 455.788 264.579 447.818 264.579 437.986C264.579 428.154 209.229 420.184 140.951 420.184C72.674 420.184 17.3242 428.154 17.3242 437.986C17.3242 447.818 72.674 455.788 140.951 455.788Z" fill="#EBEBEB"/>
<path d="M376.791 455.787C445.068 455.787 500.418 447.817 500.418 437.985C500.418 428.153 445.068 420.183 376.791 420.183C308.513 420.183 253.164 428.153 253.164 437.985C253.164 447.817 308.513 455.787 376.791 455.787Z" fill="#EBEBEB"/>
<path d="M437.681 66.3538H73.2515V337.558H437.681V66.3538Z" fill="#37474F"/>
<path d="M419.282 83.9931H91.6616V278.742H419.282V83.9931Z" fill="white"/>
<path d="M437.681 297.555H73.2515V337.558H437.681V297.555Z" fill="#C7C7C7"/>
<path d="M333.193 386.447H177.751V399.437H333.193V386.447Z" fill="#37474F"/>
<path d="M314.673 386.457H196.26L199.268 363.909L199.41 362.844L199.692 360.737L199.833 359.673L200.116 357.555L200.159 357.229L200.257 356.49L200.55 354.372L200.68 353.318L202.788 337.569H308.146L310.122 352.417L310.231 353.134L310.557 355.599L310.644 356.316L310.774 357.229L310.98 358.782L311.067 359.488L311.393 361.964L311.502 362.67L314.673 386.457Z" fill="#C7C7C7"/>
<path d="M419.282 83.9931H91.6616V94.5289H419.282V83.9931Z" fill="#263238"/>
<path d="M100.058 89.2827C100.058 89.8009 99.9038 90.3074 99.6157 90.7381C99.3275 91.1688 98.9181 91.5043 98.4391 91.7021C97.9602 91.8999 97.4333 91.9511 96.9252 91.8493C96.4172 91.7474 95.9508 91.497 95.5851 91.1298C95.2195 90.7626 94.971 90.2952 94.8712 89.7867C94.7715 89.2782 94.8249 88.7516 95.0247 88.2734C95.2244 87.7953 95.5616 87.3873 95.9935 87.1009C96.4254 86.8146 96.9326 86.6629 97.4508 86.6651C97.794 86.6651 98.1339 86.7329 98.4509 86.8645C98.7679 86.9962 99.0557 87.1892 99.2979 87.4324C99.5401 87.6756 99.7319 87.9643 99.8623 88.2818C99.9926 88.5993 100.059 88.9395 100.058 89.2827Z" fill="#C7C7C7"/>
<path d="M110.692 89.2827C110.692 89.8009 110.538 90.3074 110.25 90.7381C109.962 91.1688 109.552 91.5043 109.073 91.7021C108.594 91.8999 108.068 91.9511 107.56 91.8493C107.051 91.7474 106.585 91.497 106.219 91.1298C105.854 90.7626 105.605 90.2952 105.506 89.7867C105.406 89.2782 105.459 88.7516 105.659 88.2734C105.859 87.7953 106.196 87.3873 106.628 87.1009C107.06 86.8146 107.567 86.6629 108.085 86.6651C108.428 86.6651 108.768 86.7329 109.085 86.8645C109.402 86.9962 109.69 87.1892 109.932 87.4324C110.174 87.6756 110.366 87.9643 110.497 88.2818C110.627 88.5993 110.693 88.9395 110.692 89.2827Z" fill="white"/>
<path d="M121.369 89.2827C121.369 89.8004 121.215 90.3065 120.927 90.737C120.64 91.1675 120.231 91.503 119.753 91.7011C119.274 91.8992 118.748 91.9511 118.24 91.8501C117.733 91.7491 117.266 91.4997 116.9 91.1337C116.534 90.7676 116.285 90.3012 116.184 89.7934C116.083 89.2856 116.134 88.7593 116.333 88.281C116.531 87.8027 116.866 87.3938 117.297 87.1062C117.727 86.8186 118.233 86.665 118.751 86.665C119.445 86.665 120.111 86.9408 120.602 87.4317C121.093 87.9226 121.369 88.5885 121.369 89.2827Z" fill="#FABB03"/>
<path d="M261.951 314.868C261.949 316.175 261.559 317.452 260.83 318.538C260.102 319.623 259.068 320.468 257.859 320.965C256.65 321.462 255.321 321.589 254.04 321.331C252.759 321.072 251.583 320.439 250.662 319.512C249.741 318.584 249.116 317.405 248.865 316.122C248.615 314.839 248.751 313.511 249.256 312.305C249.761 311.1 250.613 310.071 251.703 309.35C252.793 308.629 254.073 308.247 255.38 308.254C257.127 308.262 258.8 308.963 260.032 310.203C261.264 311.443 261.954 313.121 261.951 314.868Z" fill="#37474F"/>
<path d="M310.774 357.229H200.159L200.257 356.49L200.55 354.372L200.681 353.318L202.788 337.569H308.146L310.122 352.417L310.231 353.134L310.557 355.599L310.644 356.316L310.774 357.229Z" fill="#A6A6A6"/>
<path d="M419.282 94.5181H91.6616V138.171H419.282V94.5181Z" fill="#FABB03"/>
<path d="M400.317 261.603H267.936V168.573H400.317V261.603ZM269.022 260.517H399.231V169.659H269.022V260.517Z" fill="#EBEBEB"/>
<path d="M267.667 167.75L267.048 168.641L398.482 260.004L399.101 259.113L267.667 167.75Z" fill="#EBEBEB"/>
<path d="M268.794 261.505L268.164 260.614C269.424 259.735 394.29 172.57 399.449 168.681L400.101 169.55C394.93 173.45 270.054 260.625 268.794 261.505Z" fill="#EBEBEB"/>
<path d="M317.628 94.5181H193.306V132.642H317.628V94.5181Z" fill="#263238"/>
<path d="M244.453 150.173H158.201V151.933H244.453V150.173Z" fill="#EBEBEB"/>
<path d="M224.859 154.605H158.201V156.364H224.859V154.605Z" fill="#EBEBEB"/>
<path d="M239.283 159.036H158.201V160.796H239.283V159.036Z" fill="#EBEBEB"/>
<path d="M246.376 163.468H158.201V165.227H246.376V163.468Z" fill="#EBEBEB"/>
<path d="M203.917 167.899H158.201V169.659H203.917V167.899Z" fill="#EBEBEB"/>
<path d="M244.725 172.342H158.201V174.101H244.725V172.342Z" fill="#EBEBEB"/>
<path d="M230.224 176.773H158.201V178.533H230.224V176.773Z" fill="#EBEBEB"/>
<path d="M248.733 181.205H158.201V182.964H248.733V181.205Z" fill="#EBEBEB"/>
<path d="M244.725 185.636H158.201V187.396H244.725V185.636Z" fill="#EBEBEB"/>
<path d="M248.733 190.068H158.201V191.828H248.733V190.068Z" fill="#EBEBEB"/>
<path d="M123.878 106.455H111.159V108.215H123.878V106.455Z" fill="white"/>
<path d="M123.878 110.887H111.159V112.646H123.878V110.887Z" fill="white"/>
<path d="M123.878 115.318H111.159V117.078H123.878V115.318Z" fill="white"/>
<path d="M399.775 150.173H268.479V159.916H399.775V150.173Z" fill="#FABB03"/>
<path d="M152.813 150.162H111.159V191.828H152.813V150.162Z" fill="#A6A6A6"/>
<path d="M131.991 170.995C136.148 170.995 139.518 167.625 139.518 163.468C139.518 159.311 136.148 155.941 131.991 155.941C127.834 155.941 124.464 159.311 124.464 163.468C124.464 167.625 127.834 170.995 131.991 170.995Z" fill="white"/>
<path d="M145.004 184.246V191.849H118.936V184.246C118.936 180.789 120.309 177.474 122.753 175.03C125.197 172.585 128.513 171.212 131.97 171.212C135.426 171.212 138.742 172.585 141.186 175.03C143.63 177.474 145.004 180.789 145.004 184.246Z" fill="white"/>
<path d="M219.319 123.877V116.274C219.317 116.18 219.335 116.087 219.37 116C219.404 115.914 219.456 115.834 219.522 115.768C219.588 115.701 219.666 115.648 219.752 115.612C219.839 115.576 219.931 115.557 220.025 115.557H221.861C222.512 115.557 223.136 115.816 223.596 116.276C224.057 116.736 224.315 117.361 224.315 118.012C224.316 118.546 224.14 119.065 223.816 119.489C224.326 119.805 224.72 120.279 224.937 120.839C225.154 121.399 225.182 122.014 225.017 122.592C224.853 123.169 224.504 123.677 224.025 124.038C223.545 124.4 222.961 124.595 222.36 124.594H220.025C219.931 124.594 219.839 124.575 219.752 124.539C219.666 124.503 219.588 124.45 219.522 124.383C219.456 124.317 219.404 124.238 219.37 124.151C219.335 124.064 219.317 123.971 219.319 123.877ZM220.742 119.044H221.828C222.105 119.027 222.364 118.905 222.554 118.703C222.744 118.501 222.849 118.235 222.849 117.957C222.849 117.687 222.741 117.427 222.55 117.236C222.358 117.044 222.099 116.937 221.828 116.937H220.742V119.044ZM220.742 123.149H222.36C222.535 123.149 222.708 123.115 222.87 123.047C223.031 122.98 223.178 122.882 223.301 122.757C223.424 122.633 223.522 122.486 223.588 122.324C223.654 122.162 223.687 121.988 223.685 121.813C223.685 121.461 223.546 121.123 223.298 120.873C223.05 120.622 222.713 120.48 222.36 120.477H220.742V123.149Z" fill="white"/>
<path d="M226.987 123.877V116.274C226.986 116.18 227.003 116.087 227.038 116C227.073 115.914 227.124 115.834 227.19 115.768C227.256 115.701 227.334 115.648 227.42 115.612C227.507 115.576 227.6 115.557 227.693 115.557C227.883 115.557 228.066 115.633 228.2 115.767C228.335 115.901 228.41 116.084 228.41 116.274V123.16H231.918C232.108 123.166 232.287 123.245 232.419 123.381C232.551 123.517 232.624 123.699 232.624 123.888C232.622 124.074 232.546 124.252 232.414 124.384C232.283 124.516 232.105 124.591 231.918 124.594H227.693C227.599 124.595 227.506 124.578 227.419 124.542C227.332 124.507 227.253 124.454 227.187 124.387C227.121 124.32 227.069 124.24 227.035 124.152C227 124.065 226.984 123.971 226.987 123.877Z" fill="white"/>
<path d="M240.858 116.676C241.692 117.556 242.157 118.722 242.157 119.934C242.157 121.147 241.692 122.313 240.858 123.193C240.466 123.623 239.99 123.967 239.459 124.204C238.928 124.442 238.354 124.567 237.773 124.572C237.18 124.57 236.593 124.447 236.05 124.21C235.506 123.972 235.017 123.626 234.612 123.193C233.792 122.306 233.337 121.142 233.337 119.934C233.337 118.726 233.792 117.563 234.612 116.676C235.014 116.239 235.503 115.89 236.047 115.653C236.591 115.415 237.179 115.294 237.773 115.296C238.355 115.296 238.931 115.419 239.462 115.657C239.994 115.895 240.469 116.242 240.858 116.676ZM240.695 119.934C240.692 119.098 240.378 118.293 239.815 117.675C239.553 117.388 239.235 117.158 238.879 117.001C238.524 116.844 238.14 116.763 237.751 116.763C237.363 116.763 236.978 116.844 236.623 117.001C236.268 117.158 235.949 117.388 235.687 117.675C235.114 118.287 234.799 119.096 234.808 119.934C234.802 120.769 235.117 121.573 235.687 122.183C235.945 122.476 236.263 122.711 236.619 122.872C236.974 123.033 237.361 123.116 237.751 123.116C238.142 123.116 238.528 123.033 238.884 122.872C239.239 122.711 239.557 122.476 239.815 122.183C240.385 121.573 240.7 120.769 240.695 119.934Z" fill="white"/>
<path d="M244.312 119.956C244.317 119.337 244.445 118.726 244.687 118.157C244.929 117.588 245.282 117.072 245.724 116.639C246.165 116.206 246.688 115.865 247.262 115.635C247.837 115.404 248.45 115.289 249.069 115.296C250.134 115.293 251.17 115.645 252.012 116.296C252.099 116.351 252.173 116.423 252.23 116.509C252.287 116.594 252.326 116.691 252.343 116.792C252.361 116.893 252.357 116.997 252.332 117.097C252.308 117.197 252.262 117.29 252.199 117.371C252.136 117.452 252.057 117.52 251.967 117.568C251.876 117.617 251.777 117.647 251.674 117.655C251.572 117.663 251.469 117.65 251.372 117.616C251.275 117.582 251.186 117.528 251.111 117.458C250.525 117.009 249.807 116.765 249.069 116.763C248.638 116.759 248.211 116.84 247.812 117.002C247.413 117.165 247.05 117.404 246.745 117.708C246.44 117.994 246.197 118.34 246.031 118.724C245.865 119.108 245.779 119.521 245.779 119.94C245.779 120.358 245.865 120.772 246.031 121.156C246.197 121.54 246.44 121.885 246.745 122.172C247.05 122.475 247.413 122.715 247.812 122.877C248.211 123.039 248.638 123.121 249.069 123.117C249.691 123.109 250.301 122.941 250.839 122.628V120.858H248.993C248.798 120.855 248.612 120.776 248.474 120.638C248.336 120.5 248.257 120.314 248.254 120.119C248.254 120.023 248.273 119.928 248.311 119.839C248.348 119.751 248.403 119.671 248.472 119.604C248.541 119.537 248.622 119.485 248.712 119.45C248.801 119.416 248.897 119.399 248.993 119.402H251.567C251.663 119.399 251.759 119.416 251.848 119.45C251.938 119.485 252.019 119.537 252.088 119.604C252.157 119.671 252.212 119.751 252.249 119.839C252.287 119.928 252.306 120.023 252.306 120.119V122.954C252.312 123.026 252.312 123.099 252.306 123.171V123.236C252.256 123.364 252.169 123.474 252.056 123.551C251.216 124.201 250.185 124.552 249.123 124.55C248.505 124.566 247.89 124.46 247.313 124.237C246.737 124.015 246.209 123.68 245.762 123.253C245.315 122.826 244.957 122.315 244.708 121.749C244.459 121.184 244.324 120.574 244.312 119.956Z" fill="white"/>
<path d="M262.113 121.075H260.517V123.877C260.517 124.067 260.441 124.25 260.307 124.384C260.172 124.518 259.99 124.594 259.8 124.594C259.61 124.594 259.427 124.518 259.293 124.384C259.159 124.25 259.083 124.067 259.083 123.877V116.274C259.083 116.084 259.159 115.901 259.293 115.767C259.427 115.633 259.61 115.557 259.8 115.557H262.113C262.491 115.533 262.869 115.587 263.225 115.716C263.581 115.844 263.907 116.043 264.183 116.302C264.459 116.562 264.678 116.874 264.829 117.222C264.979 117.569 265.056 117.943 265.056 118.321C265.056 118.7 264.979 119.074 264.829 119.421C264.678 119.768 264.459 120.081 264.183 120.34C263.907 120.599 263.581 120.799 263.225 120.927C262.869 121.055 262.491 121.109 262.113 121.086V121.075ZM260.517 119.695H262.113C262.298 119.712 262.485 119.69 262.66 119.631C262.836 119.572 262.998 119.476 263.135 119.351C263.272 119.226 263.381 119.074 263.456 118.904C263.531 118.734 263.57 118.55 263.57 118.365C263.57 118.179 263.531 117.996 263.456 117.826C263.381 117.656 263.272 117.504 263.135 117.378C262.998 117.253 262.836 117.158 262.66 117.099C262.485 117.04 262.298 117.018 262.113 117.034H260.517V119.695Z" fill="white"/>
<path d="M273.736 116.676C274.57 117.556 275.035 118.722 275.035 119.934C275.035 121.147 274.57 122.313 273.736 123.193C273.344 123.623 272.868 123.967 272.338 124.204C271.807 124.442 271.233 124.567 270.651 124.572C270.058 124.57 269.472 124.447 268.928 124.21C268.385 123.972 267.895 123.626 267.491 123.193C266.671 122.306 266.215 121.142 266.215 119.934C266.215 118.726 266.671 117.563 267.491 116.676C267.895 116.242 268.385 115.896 268.928 115.659C269.472 115.422 270.058 115.298 270.651 115.296C271.234 115.296 271.809 115.419 272.341 115.657C272.872 115.895 273.348 116.242 273.736 116.676ZM273.573 119.934C273.57 119.098 273.257 118.293 272.693 117.675C272.432 117.388 272.113 117.158 271.758 117.001C271.402 116.844 271.018 116.763 270.63 116.763C270.241 116.763 269.857 116.844 269.501 117.001C269.146 117.158 268.827 117.388 268.566 117.675C267.993 118.287 267.678 119.096 267.686 119.934C267.681 120.769 267.995 121.573 268.566 122.183C268.824 122.476 269.141 122.711 269.497 122.872C269.853 123.033 270.239 123.116 270.63 123.116C271.02 123.116 271.406 123.033 271.762 122.872C272.118 122.711 272.435 122.476 272.693 122.183C273.264 121.573 273.578 120.769 273.573 119.934Z" fill="white"/>
<path d="M277.233 122.346C277.346 122.208 277.508 122.12 277.686 122.102C277.863 122.083 278.04 122.136 278.178 122.248C278.871 122.838 279.736 123.189 280.644 123.247C281.22 123.258 281.785 123.091 282.262 122.769C282.422 122.669 282.556 122.532 282.653 122.369C282.749 122.207 282.805 122.024 282.816 121.835C282.817 121.689 282.775 121.546 282.697 121.422C282.6 121.266 282.47 121.133 282.316 121.031C281.765 120.731 281.166 120.529 280.546 120.434C279.972 120.336 279.414 120.164 278.884 119.923C278.397 119.709 277.98 119.363 277.679 118.924C277.483 118.596 277.382 118.22 277.385 117.838C277.397 117.466 277.497 117.101 277.676 116.775C277.856 116.448 278.109 116.169 278.417 115.959C279.072 115.501 279.855 115.261 280.655 115.275C281.682 115.339 282.664 115.718 283.468 116.361C283.612 116.458 283.713 116.608 283.747 116.779C283.782 116.95 283.748 117.127 283.652 117.273C283.606 117.348 283.545 117.413 283.473 117.464C283.401 117.515 283.319 117.55 283.233 117.569C283.146 117.587 283.057 117.588 282.971 117.57C282.884 117.553 282.802 117.519 282.729 117.469C282.14 116.985 281.415 116.697 280.655 116.643C280.139 116.631 279.633 116.783 279.21 117.078C279.072 117.168 278.957 117.288 278.872 117.429C278.787 117.57 278.736 117.728 278.721 117.892C278.712 118.018 278.743 118.143 278.808 118.251C278.899 118.386 279.017 118.501 279.156 118.587C279.652 118.885 280.202 119.081 280.774 119.163C281.389 119.264 281.989 119.447 282.555 119.706C283.082 119.935 283.531 120.313 283.848 120.792C284.047 121.12 284.152 121.495 284.152 121.878C284.145 122.274 284.042 122.663 283.853 123.01C283.664 123.358 283.394 123.656 283.066 123.877C282.369 124.372 281.531 124.631 280.676 124.616C279.479 124.55 278.335 124.096 277.418 123.323C277.339 123.273 277.272 123.207 277.22 123.13C277.168 123.053 277.132 122.966 277.115 122.874C277.098 122.783 277.099 122.688 277.12 122.598C277.14 122.507 277.179 122.421 277.233 122.346Z" fill="white"/>
<path d="M291.462 116.98H289.409V123.877C289.409 124.064 289.335 124.244 289.202 124.376C289.07 124.509 288.89 124.583 288.703 124.583C288.516 124.583 288.336 124.509 288.204 124.376C288.072 124.244 287.997 124.064 287.997 123.877V116.98H285.955C285.766 116.977 285.585 116.901 285.451 116.767C285.318 116.633 285.241 116.452 285.238 116.263C285.237 116.168 285.254 116.075 285.29 115.987C285.325 115.899 285.378 115.82 285.445 115.753C285.512 115.686 285.592 115.633 285.679 115.598C285.767 115.562 285.861 115.545 285.955 115.546H291.462C291.652 115.546 291.835 115.622 291.969 115.756C292.103 115.891 292.179 116.073 292.179 116.263C292.176 116.452 292.1 116.633 291.966 116.767C291.832 116.901 291.651 116.977 291.462 116.98Z" fill="white"/>
<path d="M305.05 127.288H205.872V128.602H305.05V127.288Z" fill="white"/>
<path d="M174.884 197.878H111.159V261.603H174.884V197.878Z" fill="#EBEBEB"/>
<path d="M111.159 242.486H174.873V197.867H111.159V242.486Z" fill="#EBEBEB"/>
<path d="M118.609 210.553C118.609 211.597 118.919 212.618 119.499 213.486C120.079 214.354 120.903 215.03 121.868 215.43C122.833 215.829 123.894 215.934 124.918 215.73C125.942 215.527 126.883 215.024 127.621 214.286C128.359 213.547 128.862 212.607 129.065 211.583C129.269 210.559 129.165 209.497 128.765 208.533C128.366 207.568 127.689 206.744 126.821 206.164C125.953 205.584 124.932 205.274 123.888 205.274C123.195 205.273 122.507 205.408 121.866 205.673C121.225 205.938 120.643 206.327 120.152 206.817C119.662 207.308 119.273 207.89 119.008 208.531C118.744 209.172 118.608 209.859 118.609 210.553Z" fill="#DBDBDB"/>
<path d="M139.453 232.787H174.884L157.168 208.772L139.453 232.787Z" fill="#C7C7C7"/>
<path d="M125.561 232.895H154.811L140.192 217.266L125.561 232.895Z" fill="#DBDBDB"/>
<path d="M174.873 232.874H111.159V242.486H174.873V232.874Z" fill="#DBDBDB"/>
<path d="M170.366 246.918H115.688V248.677H170.366V246.918Z" fill="white"/>
<path d="M153.573 251.349H115.688V253.109H153.573V251.349Z" fill="white"/>
<path d="M161.763 255.781H115.688V257.541H161.763V255.781Z" fill="white"/>
<path d="M248.732 197.878H185.007V261.603H248.732V197.878Z" fill="#EBEBEB"/>
<path d="M185.007 242.486H248.722V197.867H185.007V242.486Z" fill="#DBDBDB"/>
<path d="M216.864 232.895C223.558 232.895 228.985 227.468 228.985 220.774C228.985 214.079 223.558 208.652 216.864 208.652C210.169 208.652 204.742 214.079 204.742 220.774C204.742 227.468 210.169 232.895 216.864 232.895Z" fill="#EBEBEB"/>
<path d="M211.064 214.192V227.356L224.999 220.774L211.064 214.192Z" fill="white"/>
<path d="M244.214 246.918H189.537V248.677H244.214V246.918Z" fill="white"/>
<path d="M227.422 251.349H189.537V253.109H227.422V251.349Z" fill="white"/>
<path d="M235.612 255.781H189.537V257.541H235.612V255.781Z" fill="white"/>
<path d="M399.829 106.455H334.453V117.078H399.829V106.455Z" fill="white"/>
<path d="M399.829 106.455H389.207V117.078H399.829V106.455Z" fill="#263238"/>
<path d="M394.865 110.747L393.887 111.488L396.898 115.462L397.876 114.721L394.865 110.747Z" fill="white"/>
<path d="M395.952 109.094C396.271 109.514 396.459 110.02 396.491 110.546C396.524 111.073 396.4 111.598 396.134 112.054C395.869 112.51 395.475 112.878 395.001 113.11C394.527 113.343 393.995 113.429 393.472 113.36C392.949 113.29 392.458 113.067 392.062 112.719C391.665 112.371 391.38 111.913 391.244 111.404C391.107 110.894 391.124 110.355 391.293 109.855C391.462 109.355 391.775 108.917 392.193 108.595C392.758 108.163 393.471 107.973 394.176 108.067C394.88 108.161 395.519 108.53 395.952 109.094Z" fill="white"/>
<path d="M395.104 109.746C395.299 109.998 395.415 110.302 395.436 110.619C395.458 110.937 395.385 111.254 395.227 111.53C395.068 111.806 394.831 112.029 394.546 112.17C394.261 112.311 393.94 112.365 393.625 112.324C393.309 112.282 393.013 112.148 392.773 111.939C392.534 111.729 392.362 111.453 392.28 111.145C392.197 110.838 392.208 110.513 392.311 110.212C392.413 109.91 392.603 109.646 392.856 109.453C393.193 109.195 393.619 109.081 394.041 109.136C394.462 109.19 394.844 109.41 395.104 109.746Z" fill="#263238"/>
<path d="M220.437 439.441C218.374 440.125 159.612 439.951 157.331 438.539C156.484 438.007 156.006 429.426 155.734 419.064C155.669 416.827 155.626 414.524 155.582 412.167C155.582 409.386 155.506 406.573 155.485 403.836C155.419 391.552 155.582 380.733 155.582 380.733H193.87V403.836V412.167L193.674 419.064C193.674 419.064 216.158 429.209 218.439 431.012C220.72 432.815 222.49 438.767 220.437 439.441Z" fill="#F7A9A0"/>
<path d="M220.437 439.441C218.373 440.125 159.612 439.951 157.331 438.539C156.484 438.007 156.006 429.426 155.734 419.064C155.669 416.827 155.626 414.524 155.582 412.167C155.582 409.386 155.506 406.573 155.484 403.836H193.848V412.167L193.652 419.064C193.652 419.064 216.136 429.209 218.417 431.012C220.698 432.815 222.49 438.767 220.437 439.441Z" fill="white"/>
<path d="M220.622 439.527C219.286 439.973 194.239 440.06 176.002 439.68C171.777 439.593 167.921 439.473 164.804 439.343C160.514 439.147 157.635 438.908 157.201 438.615C156.169 437.953 155.67 425.375 155.441 412.102H193.902L193.707 419.032C193.707 419.032 216.277 429.252 218.58 431.066C220.883 432.88 222.675 438.843 220.622 439.527Z" fill="#FABB03"/>
<path d="M219.775 437.16C209.858 436.888 169.811 436.725 160.036 437.214C159.96 437.214 159.96 437.268 160.036 437.279C169.811 437.757 209.858 437.594 219.775 437.279C219.981 437.323 219.981 437.17 219.775 437.16Z" fill="#263238"/>
<path d="M195.075 416.838C191.176 416.099 186.386 416.685 183.41 419.455C183.301 419.564 183.41 419.727 183.583 419.683C187.311 418.483 191.156 417.686 195.053 417.305C195.102 417.289 195.144 417.259 195.175 417.219C195.206 417.178 195.223 417.129 195.226 417.079C195.228 417.028 195.215 416.978 195.188 416.935C195.161 416.891 195.122 416.858 195.075 416.838Z" fill="#263238"/>
<path d="M197.889 418.543C193.989 417.804 189.199 418.391 186.223 421.16C186.104 421.269 186.223 421.432 186.386 421.389C190.119 420.201 193.968 419.414 197.867 419.042C197.9 419.044 197.933 419.039 197.963 419.028C197.994 419.016 198.023 418.999 198.047 418.977C198.071 418.955 198.091 418.928 198.104 418.898C198.118 418.868 198.126 418.836 198.128 418.803C198.129 418.771 198.124 418.738 198.113 418.707C198.102 418.676 198.084 418.648 198.062 418.624C198.04 418.599 198.013 418.58 197.983 418.566C197.954 418.552 197.921 418.544 197.889 418.543Z" fill="#263238"/>
<path d="M200.691 420.248C196.791 419.51 192.001 420.096 189.036 422.866C188.917 422.974 189.036 423.137 189.199 423.094C192.932 421.906 196.781 421.12 200.68 420.748C200.746 420.749 200.81 420.724 200.858 420.678C200.906 420.633 200.934 420.57 200.935 420.503C200.937 420.437 200.912 420.373 200.866 420.325C200.82 420.277 200.757 420.25 200.691 420.248Z" fill="#263238"/>
<path d="M203.504 421.953C199.605 421.215 194.815 421.801 191.85 424.571C191.73 424.68 191.85 424.843 192.013 424.799C195.742 423.612 199.587 422.822 203.483 422.442C203.539 422.433 203.591 422.405 203.629 422.362C203.668 422.319 203.69 422.264 203.692 422.207C203.695 422.149 203.678 422.093 203.643 422.047C203.609 422 203.56 421.968 203.504 421.953Z" fill="#263238"/>
<path d="M202.299 407.844C200.778 405.672 197.954 406.671 196.292 408.029C193.53 410.418 191.446 413.494 190.253 416.946C190.248 416.962 190.247 416.979 190.249 416.995C190.252 417.012 190.258 417.027 190.267 417.041C190.277 417.054 190.289 417.066 190.304 417.074C190.318 417.082 190.334 417.086 190.351 417.087C190.349 417.163 190.364 417.238 190.395 417.307C190.427 417.375 190.474 417.436 190.533 417.483C190.592 417.531 190.661 417.564 190.735 417.58C190.809 417.596 190.886 417.595 190.959 417.576C194.218 416.392 197.769 415.523 200.539 413.394C202.157 412.145 203.743 409.843 202.299 407.844ZM195.478 414.785C193.903 415.404 192.317 415.947 190.764 416.62C191.89 414.851 193.104 413.14 194.402 411.494C195.044 410.724 195.737 409.998 196.477 409.321C197.639 408.235 202.244 406.063 201.538 410.31C201.158 412.612 197.346 414.046 195.478 414.785Z" fill="#263238"/>
<path d="M180.347 415.903C183.605 417.283 187.255 417.218 190.665 417.565C190.742 417.565 190.817 417.547 190.885 417.513C190.953 417.478 191.012 417.429 191.057 417.368C191.103 417.306 191.133 417.235 191.146 417.16C191.159 417.085 191.154 417.008 191.132 416.935C191.148 416.93 191.162 416.921 191.174 416.909C191.186 416.897 191.194 416.883 191.2 416.867C191.205 416.851 191.206 416.835 191.204 416.818C191.202 416.802 191.196 416.786 191.187 416.772C189.171 413.732 186.392 411.275 183.127 409.647C181.205 408.735 178.196 408.561 177.251 410.961C176.306 413.362 178.468 415.132 180.347 415.903ZM178.587 413.112C176.849 409.147 181.846 410.158 183.247 410.885C184.155 411.374 185.029 411.922 185.865 412.525C187.581 413.753 189.123 415.208 190.665 416.588C189.004 416.316 187.32 416.197 185.647 415.99C183.594 415.74 179.554 415.306 178.587 413.112Z" fill="#263238"/>
<path d="M142.82 217.602C142.82 217.602 153.16 319.93 153.41 321.222C153.41 321.396 153.519 323.395 153.616 326.577C154.17 344.195 155.55 399.122 155.55 399.122H197.812C197.812 399.122 195.064 334.061 193.468 318.887C191.447 299.532 178.75 217.602 178.75 217.602H142.82Z" fill="#455A64"/>
<path d="M158.439 324.839C157.136 302.66 155.177 280.538 152.563 258.475C151.086 246.038 149.304 233.656 147.534 221.263C147.534 221.154 147.338 221.154 147.36 221.263C150.619 243.323 152.943 265.556 154.963 287.758C156.984 309.959 158.352 332.16 159.254 354.416C159.775 367.026 160.155 379.636 160.568 392.247C160.579 392.3 160.609 392.348 160.651 392.382C160.694 392.416 160.747 392.435 160.801 392.435C160.856 392.435 160.909 392.416 160.951 392.382C160.994 392.348 161.023 392.3 161.035 392.247C160.405 369.763 159.797 347.28 158.439 324.839Z" fill="#263238"/>
<path d="M195.097 392.323C193.956 392.216 192.811 392.169 191.665 392.182C190.405 392.182 189.134 392.127 187.863 392.073C185.423 391.986 182.979 391.925 180.532 391.888C175.601 391.801 170.659 391.834 165.738 391.986L161.676 392.127C160.231 392.182 158.776 392.312 157.331 392.312C157.223 392.312 157.234 392.442 157.331 392.442C159.808 392.442 162.317 392.649 164.804 392.746C167.291 392.844 169.692 392.877 172.136 392.909C177.056 392.975 182.009 392.909 186.929 392.757C188.276 392.757 189.634 392.681 190.992 392.638L193.164 392.551C193.805 392.562 194.447 392.54 195.086 392.486C195.099 392.491 195.113 392.494 195.127 392.493C195.141 392.492 195.155 392.488 195.167 392.481C195.178 392.473 195.189 392.463 195.196 392.451C195.203 392.439 195.207 392.426 195.208 392.412C195.209 392.398 195.207 392.384 195.201 392.371C195.196 392.359 195.187 392.347 195.176 392.339C195.165 392.33 195.152 392.324 195.139 392.321C195.125 392.318 195.111 392.319 195.097 392.323Z" fill="#263238"/>
<path d="M142.82 217.602C142.82 217.602 153.16 319.93 153.41 321.222C153.41 321.396 153.519 323.395 153.616 326.577L173.515 217.602H142.82Z" fill="#263238"/>
<path d="M71.6327 411.874C69.7645 410.788 31.4446 366.135 31.097 363.507C30.9449 362.508 37.1252 356.555 44.7935 349.582C46.4445 348.062 48.052 346.432 49.9202 344.955C52.2012 343.098 54.5147 341.251 56.7631 339.524C66.5385 331.921 74.9998 325.926 74.9998 325.926L99.2973 354.09L82.0055 368.156L74.9129 373.934L69.5581 378.279C69.5581 378.279 76.5747 401.924 76.6833 404.846C76.7919 407.768 73.49 412.96 71.6327 411.874Z" fill="#F7A9A0"/>
<path d="M71.6327 411.874C69.7645 410.788 31.4446 366.135 31.097 363.507C30.9449 362.508 37.1252 356.555 44.7935 349.582C46.4445 348.062 48.052 346.432 49.9202 344.955C52.2012 343.098 54.5147 341.251 56.7631 339.524C64.2902 348.214 75.2279 360.498 82.0055 368.156L74.9129 373.934L69.5581 378.279C69.5581 378.279 76.5747 401.924 76.6833 404.846C76.7919 407.768 73.49 412.96 71.6327 411.874Z" fill="white"/>
<path d="M71.6871 412.08C69.8189 410.994 31.3143 366.081 30.9233 363.442C30.7495 362.214 39.9494 353.666 49.8552 344.781L74.9782 373.858L69.5473 378.203C69.5473 378.203 76.5966 401.979 76.716 404.922C76.8355 407.866 73.5553 413.199 71.6871 412.08Z" fill="#FABB03"/>
<path d="M72.9037 409.897C66.6366 402.207 40.6229 371.816 33.8018 364.702C33.7475 364.647 33.704 364.702 33.8018 364.702C39.8409 372.446 66.1043 402.631 72.7843 409.951C72.9037 410.158 73.0558 410.049 72.9037 409.897Z" fill="#263238"/>
<path d="M72.1762 377.92C70.1993 374.477 66.6367 371.251 62.5853 370.795C62.4224 370.795 62.4007 371.001 62.5202 371.077C65.8656 373.113 68.9826 375.502 71.8177 378.203C71.8605 378.225 71.9088 378.235 71.9568 378.23C72.0049 378.226 72.0507 378.208 72.0886 378.178C72.1265 378.148 72.1549 378.108 72.1705 378.062C72.186 378.016 72.188 377.967 72.1762 377.92Z" fill="#263238"/>
<path d="M72.7299 381.157C70.7422 377.725 67.1796 374.488 63.1282 374.043C62.9761 374.043 62.9544 374.249 63.063 374.314C66.4016 376.358 69.5114 378.754 72.3389 381.461C72.382 381.504 72.4391 381.529 72.4996 381.533C72.5601 381.536 72.6199 381.518 72.6677 381.481C72.7156 381.443 72.7483 381.39 72.7597 381.33C72.7711 381.271 72.7605 381.209 72.7299 381.157Z" fill="#263238"/>
<path d="M73.2728 384.405C71.2852 380.962 67.7225 377.736 63.6711 377.279C63.5191 377.279 63.4974 377.486 63.606 377.562C66.9549 379.605 70.0723 382.005 72.9035 384.72C72.9489 384.752 73.004 384.769 73.0599 384.767C73.1158 384.764 73.1693 384.743 73.2119 384.707C73.2544 384.671 73.2836 384.621 73.2946 384.566C73.3057 384.512 73.298 384.455 73.2728 384.405Z" fill="#263238"/>
<path d="M73.8158 387.641C71.8281 384.209 68.2655 380.972 64.2141 380.527C64.062 380.527 64.0403 380.733 64.1489 380.799C67.4923 382.853 70.6056 385.26 73.4356 387.978C73.4578 388.003 73.4846 388.023 73.5145 388.038C73.5445 388.053 73.5771 388.061 73.6104 388.063C73.6436 388.065 73.677 388.061 73.7085 388.05C73.7401 388.039 73.7691 388.022 73.7941 388C73.819 387.978 73.8394 387.951 73.854 387.921C73.8686 387.891 73.8772 387.858 73.8792 387.825C73.8812 387.792 73.8766 387.758 73.8658 387.727C73.8549 387.695 73.8379 387.666 73.8158 387.641Z" fill="#263238"/>
<path d="M83.7652 377.507C84.3626 374.977 81.7884 373.424 79.6921 373.076C76.077 372.554 72.3882 372.988 68.9934 374.336C68.9818 374.346 68.9725 374.359 68.9662 374.373C68.9599 374.387 68.9566 374.402 68.9566 374.417C68.9566 374.433 68.9599 374.448 68.9662 374.462C68.9725 374.476 68.9818 374.489 68.9934 374.499C68.9327 374.544 68.8834 374.603 68.8495 374.671C68.8155 374.739 68.7979 374.814 68.7979 374.89C68.7979 374.966 68.8155 375.041 68.8495 375.108C68.8834 375.176 68.9327 375.235 68.9934 375.281C72.002 376.954 74.9998 379.104 78.4321 379.799C80.3655 380.212 83.1461 379.908 83.7652 377.507ZM73.9897 376.878C72.4908 376.095 71.0462 375.237 69.5256 374.51C71.611 374.271 73.6747 373.945 75.7819 373.912C76.7972 373.881 77.8134 373.921 78.8231 374.032C80.3764 374.227 85.0795 376.204 81.3756 378.507C79.3554 379.756 75.7819 377.812 73.9897 376.878Z" fill="#263238"/>
<path d="M63.2694 366.146C64.3556 369.481 66.7777 372.24 68.7545 375.053C68.8042 375.111 68.8666 375.156 68.9368 375.185C69.0071 375.215 69.0832 375.227 69.1592 375.222C69.2352 375.217 69.3088 375.194 69.3744 375.155C69.4399 375.116 69.4954 375.063 69.5366 374.998C69.5582 375.003 69.5806 375 69.6003 374.99C69.6201 374.98 69.6359 374.964 69.6452 374.944C70.6329 371.43 70.6779 367.717 69.7755 364.18C69.2107 362.127 67.3968 359.727 64.9421 360.596C62.4874 361.465 62.6503 364.202 63.2694 366.146ZM64.2144 362.996C66.0717 359.075 68.559 363.539 68.9392 365.071C69.1492 366.063 69.2944 367.068 69.3737 368.08C69.504 370.173 69.5258 372.272 69.4388 374.369C68.5482 372.924 67.5489 371.577 66.6148 370.165C65.5178 368.503 63.2042 365.169 64.2144 362.996Z" fill="#263238"/>
<path d="M178.696 217.602C178.696 217.602 176.1 233.08 166.151 241.064C166.151 241.064 142.809 311.849 137.574 319.43C128.884 331.986 85.6766 365.256 85.6766 365.256L57.7622 332.888C57.7622 332.888 99.6665 303.116 102.947 298.587C105.119 295.578 121.477 250.057 121.183 248.482C117.795 229.713 126.267 217.559 126.267 217.559L178.696 217.602Z" fill="#455A64"/>
<path d="M129.569 220.361C127.72 224.096 126.401 228.069 125.648 232.168C125.29 234.238 125.105 236.334 125.094 238.435C125.094 240.694 125.333 242.943 125.409 245.191C125.504 247.493 125.27 249.798 124.713 252.034C124.181 254.206 123.508 256.378 122.867 258.486C121.542 262.83 120.137 267.175 118.653 271.52C115.698 280.144 112.44 288.648 108.877 297.034C108.14 299.001 107.087 300.836 105.76 302.464C104.214 304.018 102.518 305.415 100.698 306.635L89.4239 315.086L66.7448 332.106V332.16C66.495 332.345 66.7448 332.768 67.0055 332.584C74.6086 326.903 79.3986 323.286 87.0018 317.605L98.5043 309.014C100.318 307.656 102.165 306.331 103.935 304.93C105.499 303.749 106.816 302.273 107.813 300.585C108.804 298.726 109.678 296.807 110.43 294.839C111.321 292.667 112.201 290.571 113.048 288.431C114.721 284.239 116.314 280.017 117.827 275.766C119.341 271.516 120.789 267.171 122.172 262.732C122.856 260.56 123.53 258.323 124.181 256.118C124.861 254.009 125.398 251.857 125.789 249.677C126.462 245.213 125.474 240.705 125.691 236.219C125.876 231.878 126.757 227.595 128.298 223.533C128.708 222.478 129.172 221.444 129.688 220.437C129.764 220.339 129.612 220.253 129.569 220.361Z" fill="#263238"/>
<path d="M144.123 220.893C143.388 223.886 141.695 226.556 139.301 228.497C136.645 230.579 133.441 231.843 130.079 232.135C129.514 232.211 129.503 233.069 130.079 233.048C136.954 232.776 143.7 228.062 144.384 220.883C144.416 220.709 144.156 220.709 144.123 220.893Z" fill="#263238"/>
<path d="M172.527 236.078C170.079 237.196 167.757 238.569 165.597 240.173C163.305 241.748 161.198 243.551 158.993 245.234C158.978 245.249 158.968 245.268 158.966 245.288C158.964 245.309 158.969 245.33 158.981 245.347C158.993 245.364 159.011 245.376 159.031 245.381C159.051 245.387 159.072 245.385 159.091 245.376C161.415 243.898 163.848 242.595 166.151 241.031C168.46 239.625 170.641 238.019 172.668 236.23C172.674 236.21 172.675 236.189 172.67 236.168C172.666 236.147 172.656 236.128 172.641 236.113C172.627 236.098 172.609 236.086 172.589 236.08C172.568 236.074 172.547 236.073 172.527 236.078Z" fill="#263238"/>
<path d="M172.831 221.708C172.537 223.294 172.146 224.869 171.81 226.455C171.473 228.04 171.245 229.452 170.854 230.919C170.532 232.339 169.812 233.639 168.779 234.666C168.193 235.209 167.552 235.687 166.933 236.176C166.596 236.447 166.238 236.708 165.847 236.98C165.847 236.762 165.923 236.556 165.966 236.339C166.064 235.73 166.173 235.122 166.27 234.525C166.498 233.178 166.716 231.842 166.911 230.495C167.324 227.856 167.693 225.184 168.247 222.566C168.247 222.468 168.106 222.425 168.073 222.566C167.422 225.151 166.694 227.715 166.118 230.332C165.836 231.614 164.837 237.935 164.793 238.392C164.75 238.848 164.706 239.315 164.695 239.782C164.63 240.25 164.63 240.725 164.695 241.194C164.695 241.313 164.858 241.292 164.902 241.194C165.091 240.756 165.226 240.296 165.304 239.825C165.423 239.369 165.521 238.913 165.608 238.457C165.608 238.294 165.608 238.12 165.684 237.946C166.303 237.577 166.879 237.066 167.465 236.654C168.052 236.241 168.736 235.752 169.322 235.253C170.425 234.327 171.22 233.088 171.603 231.701C171.985 230.209 172.232 228.686 172.342 227.15C172.548 225.358 172.69 223.544 172.939 221.719C172.925 221.705 172.907 221.696 172.887 221.694C172.867 221.692 172.847 221.697 172.831 221.708Z" fill="#263238"/>
<path d="M89.6088 358.988C88.9897 358.054 88.175 357.185 87.4365 356.306C86.6979 355.426 85.8072 354.361 85.0143 353.373C83.4828 351.461 81.9296 349.582 80.3547 347.703C77.2482 343.934 73.9897 340.187 70.6118 336.603C69.6885 335.603 68.7653 334.615 67.8312 333.626C66.8971 332.638 65.8 331.563 64.8551 330.466C64.7899 330.39 64.6922 330.466 64.7573 330.563C66.3974 332.421 67.8746 334.474 69.4278 336.396C70.9811 338.319 72.5343 340.176 74.1201 342.044C77.2917 345.813 80.5719 349.517 83.8956 353.112C84.8297 354.101 85.7312 355.111 86.6544 356.11C87.1432 356.642 87.6428 357.196 88.1425 357.685C88.6421 358.174 88.9679 358.673 89.4567 359.108C89.4726 359.128 89.4958 359.141 89.5212 359.144C89.5467 359.147 89.5723 359.14 89.5925 359.124C89.6127 359.108 89.6257 359.085 89.6288 359.06C89.6318 359.034 89.6246 359.009 89.6088 358.988Z" fill="#263238"/>
<path d="M165.934 194.239C163.223 195.48 160.381 196.409 157.462 197.009C163.099 191.252 166.238 175.883 165.217 177.936C160.34 187.711 151.021 197.487 148.403 197.487C142.049 196.668 136.134 193.801 131.557 189.319C138.573 182.965 142.168 167.443 141.582 168.301C135.325 177.458 126.071 181.433 124.725 181.085C120.901 175.068 119.424 169.637 120.25 169.322C126.31 167.074 132.979 159.058 139.333 150.412C145.611 141.897 149.815 133.37 157.451 126.267C164.424 119.75 174.927 120.782 179.695 126.158C192.175 140.224 169.768 192.468 165.934 194.239Z" fill="#263238"/>
<path d="M166.727 123.388C162.306 123.388 157.929 126.332 154.877 129.33C150.814 133.327 147.588 138.182 143.961 142.559C136.911 151.231 128.552 158.751 119.185 164.847C119.142 164.872 119.11 164.912 119.097 164.96C119.084 165.008 119.09 165.059 119.115 165.103C119.139 165.146 119.18 165.177 119.228 165.191C119.276 165.204 119.327 165.198 119.37 165.173C128.972 161.057 136.683 153.66 143.45 145.774C146.904 141.734 149.967 137.367 153.226 133.251C155.007 130.954 157.093 128.911 159.428 127.179C161.65 125.69 164.152 124.666 166.781 124.17C166.868 124.144 166.944 124.089 166.996 124.014C167.048 123.939 167.073 123.849 167.066 123.758C167.06 123.667 167.023 123.581 166.961 123.514C166.899 123.446 166.817 123.402 166.727 123.388Z" fill="#263238"/>
<path d="M166.661 169.539C169.616 175.655 190.123 195.227 206.991 201.299C213.182 203.526 239.88 197.117 246.201 194.445C253.598 191.306 248.678 172.852 243.953 172.874C238.044 172.874 212.726 178.967 207.317 178.837C200.734 178.674 185.463 168.616 172.483 163.566C165.793 160.97 164.381 164.815 166.661 169.539Z" fill="#F7A9A0"/>
<path d="M246.201 194.445C248.58 193.576 259.137 188.623 261.766 186.592C264.395 184.561 271.542 178.164 270.195 175.991C268.848 173.819 266.599 175.524 266.599 175.524C266.599 175.524 269.185 172.342 267.62 170.278C266.056 168.214 262.668 170.984 262.668 170.984C262.668 170.984 265.079 167.53 263.384 165.553C261.69 163.576 258.725 166.954 258.725 166.954C258.725 166.954 261.082 163.902 259.007 162.892C256.509 161.665 252.794 167.802 249.72 169.833C249.025 170.289 234.916 178.153 234.916 178.153L246.201 194.445Z" fill="#F7A9A0"/>
<path d="M258.985 166.705C256.237 171.212 254.26 172.711 249.612 175.014C249.525 175.014 249.612 175.209 249.666 175.166C254.423 173.319 257.182 171.81 259.202 166.835C259.311 166.585 259.116 166.498 258.985 166.705Z" fill="#263238"/>
<path d="M262.874 170.626C259.615 175.057 257.443 176.697 252.794 179.467C252.729 179.467 252.794 179.63 252.859 179.597C257.682 177.251 260.397 175.676 263.069 170.821C263.189 170.604 262.982 170.419 262.874 170.626Z" fill="#263238"/>
<path d="M266.35 175.655C262.885 179.717 260.626 181.618 255.727 183.725C255.715 183.729 255.704 183.736 255.694 183.744C255.685 183.753 255.677 183.763 255.671 183.775C255.666 183.786 255.662 183.799 255.662 183.812C255.661 183.825 255.663 183.838 255.667 183.85C255.671 183.862 255.678 183.873 255.687 183.883C255.695 183.892 255.706 183.9 255.717 183.905C255.729 183.911 255.741 183.914 255.754 183.915C255.767 183.916 255.78 183.914 255.792 183.909C260.283 182.707 264.119 179.785 266.469 175.774C266.643 175.492 266.567 175.405 266.35 175.655Z" fill="#263238"/>
<path d="M230.734 177.392C232.731 174.903 234.909 172.565 237.251 170.398C239.576 168.54 250.774 164.815 251.719 167.139C252.936 170.202 246.897 173.656 243.714 174.916C243.714 174.916 246.538 181.998 242.726 185.398C238.913 188.797 230.734 177.392 230.734 177.392Z" fill="#F7A9A0"/>
<path d="M251.74 168.138C250.828 171.734 246.549 173.156 243.562 174.655C243.517 174.675 243.477 174.705 243.447 174.743C243.416 174.781 243.395 174.826 243.385 174.874C243.376 174.922 243.378 174.972 243.392 175.019C243.405 175.066 243.43 175.109 243.464 175.144C244.441 178.196 244.941 182.747 242.899 185.474C242.834 185.55 242.899 185.647 243.008 185.582C245.604 182.986 245.473 178.446 244.181 175.177C247.276 173.7 251.501 172.081 251.784 168.16C251.773 168.128 251.74 168.117 251.74 168.138Z" fill="#263238"/>
<path d="M219.253 177.088C219.253 177.088 223.164 175.915 223.522 177.001C223.88 178.088 221.882 179.652 221.882 179.652C221.882 179.652 224.608 179.652 224.956 181.379C225.303 183.106 222.447 184.203 222.447 184.203C222.447 184.203 225.401 185.05 225.499 186.277C225.629 187.928 223.109 188.797 223.109 188.797C223.109 188.797 225.977 189.025 226.085 190.644C226.194 192.262 223.587 193.055 223.587 193.055C223.587 193.055 226.607 193.435 226.9 194.652C227.237 196.096 224.271 197.389 224.271 197.389C224.271 197.389 227.128 197.856 227.302 199.105C227.476 200.354 224.652 201.386 223.174 201.397L219.253 177.088Z" fill="white"/>
<path d="M223.674 201.603C223.674 201.603 209.174 202.429 207.132 201.701C204.909 200.901 202.733 199.976 200.615 198.931C184.55 191.1 171.821 177.371 167.932 172.342C163.837 167.03 163.826 160.633 170.724 162.631C171.234 162.784 171.81 162.979 172.364 163.218C180.879 166.748 204.329 178.294 206.763 178.479C209.196 178.663 220.003 176.534 220.003 176.534L223.674 201.603Z" fill="#FABB03"/>
<path d="M200.593 198.985C184.528 191.154 171.799 177.425 167.91 172.396C163.815 167.085 163.804 160.687 170.702 162.686L200.593 198.985Z" fill="#263238"/>
<path d="M180.77 203.645L181.053 228.54C178.021 228.709 174.982 228.709 171.951 228.54C163.945 228.163 155.967 227.336 148.055 226.064C140.224 224.836 131.002 223.055 120.412 220.47C120.412 220.47 139.268 176.393 154.083 163.251C154.424 162.946 154.76 162.664 155.093 162.403L155.289 162.24C162.077 156.907 168.953 159.829 173.167 164.587C174.253 165.771 185.115 185.061 185.408 191.871C185.615 197.899 180.77 203.645 180.77 203.645Z" fill="#FABB03"/>
<path d="M171.951 228.562C163.946 228.185 155.968 227.358 148.056 226.085C149.142 214.474 152.857 175.035 154.051 163.272C154.392 162.968 154.728 162.686 155.061 162.425L171.951 228.562Z" fill="#263238"/>
<path d="M151.292 172.526C153.334 186.744 158.493 215.495 166.498 222.49C177.013 231.69 201.343 233.352 208.555 233.873C211.694 234.101 214.42 213.323 212.085 210.912C209.75 208.5 184.779 207.675 182.606 206.513C180.434 205.35 169.572 183.844 164.218 172.841C157.44 159.08 150.488 166.922 151.292 172.526Z" fill="#F7A9A0"/>
<path d="M231.201 214.518C235.133 214.594 240.379 211.444 241.183 214.257C241.9 216.766 238.055 218.602 238.055 218.602C238.055 218.602 243.051 217.939 243.062 220.861C243.073 223.783 238.435 224.912 238.435 224.912C238.435 224.912 243.062 224.554 242.867 227.465C242.671 230.376 238.413 231.69 238.413 231.69C238.413 231.69 239.738 232.287 238.674 234.275C237.142 237.121 230.267 238.326 226.52 238.109C222.772 237.892 209.25 234.297 207.186 233.764L208.413 209.738C208.413 209.738 215.245 207.067 218.884 206.132C222.523 205.198 235.339 205.448 235.491 208.631C235.644 211.813 226.585 211.487 224.358 211.889C222.132 212.291 221.838 212.878 222.979 213.486C225.685 214.065 228.436 214.411 231.201 214.518Z" fill="#F7A9A0"/>
<path d="M237.838 218.591C232.298 220.763 229.496 220.763 223.718 219.677C223.609 219.677 223.544 219.818 223.718 219.851C229.246 221.447 232.755 221.958 237.979 218.884C238.207 218.699 238.098 218.536 237.838 218.591Z" fill="#263238"/>
<path d="M238.653 224.76C232.7 226.509 229.67 226.531 223.566 225.846C223.479 225.846 223.457 225.977 223.566 225.998C229.496 227.193 233.004 227.639 238.718 225.108C238.957 224.956 238.924 224.673 238.653 224.76Z" fill="#263238"/>
<path d="M238.337 231.646C232.461 232.928 229.127 233.091 223.294 231.646C223.265 231.638 223.234 231.641 223.208 231.655C223.181 231.669 223.161 231.694 223.153 231.722C223.144 231.751 223.147 231.782 223.162 231.809C223.176 231.835 223.2 231.855 223.229 231.864C228.078 233.843 233.51 233.843 238.359 231.864C238.707 231.701 238.707 231.57 238.337 231.646Z" fill="#263238"/>
<path d="M192.751 206.252C192.751 206.252 197.194 206.361 197.204 207.61C197.215 208.859 194.609 209.782 194.609 209.782C194.609 209.782 197.411 210.749 197.204 212.617C196.998 214.485 193.653 214.691 193.653 214.691C193.653 214.691 196.433 216.57 196.118 217.885C195.706 219.633 192.795 219.688 192.795 219.688C192.795 219.688 195.695 220.893 195.249 222.61C194.804 224.326 191.85 224.261 191.85 224.261C191.85 224.261 194.847 225.673 194.739 227.03C194.609 228.638 191.1 228.985 191.1 228.985C191.1 228.985 193.892 230.43 193.653 231.788C193.414 233.145 190.134 233.254 188.602 232.765L192.751 206.252Z" fill="white"/>
<path d="M194.608 206.056L189.71 233.211C189.71 233.211 169.203 227.964 164.847 221.458C159.416 213.334 152.346 187.787 150.803 174.177C149.261 160.568 158.863 160.188 164.456 171.321C169.887 182.128 181.422 203.591 182.324 204.514C183.497 205.752 194.608 206.056 194.608 206.056Z" fill="#FABB03"/>
<path d="M180.901 201.755C180.347 200.669 179.25 198.377 178.729 197.411C177.642 195.412 176.502 193.413 175.362 191.426C174.221 189.438 173.102 187.44 171.929 185.474C171.723 185.148 171.538 184.8 171.332 184.463C171.332 184.224 170.463 181.466 170.333 180.77C170.333 180.662 170.137 180.694 170.17 180.77C170.345 181.452 170.472 182.145 170.55 182.845C170.55 182.975 170.55 183.106 170.637 183.236C169.887 181.944 169.138 180.64 168.377 179.391C168.323 179.293 168.171 179.391 168.225 179.467C169.735 182.182 170.561 183.92 171.701 186.136C172.842 188.352 173.993 190.405 175.155 192.523C176.317 194.641 177.534 196.748 178.729 198.844C179.423 200.102 180.18 201.324 180.999 202.505C181.52 203.243 181.52 202.83 180.901 201.755Z" fill="#263238"/>
<path d="M161.079 161.415C161.318 162.349 165.901 168.388 170.202 168.127C171.604 168.03 171.451 160.361 171.451 160.361L171.571 159.797L173.222 151.835L163.805 146.002L162.447 145.231C162.447 145.231 162.143 147.403 161.785 150.195C161.785 150.325 161.785 150.456 161.785 150.586C161.753 150.733 161.731 150.882 161.719 151.031C161.654 151.444 161.6 151.868 161.546 152.28C161.491 152.693 161.47 152.91 161.448 153.247C161.426 153.584 161.383 153.91 161.339 154.246C161.086 156.627 160.999 159.022 161.079 161.415Z" fill="#F7A9A0"/>
<path d="M161.785 150.195C162.619 152.409 163.926 154.415 165.614 156.073C167.302 157.732 169.331 159.002 171.56 159.797L173.211 151.835L163.794 146.002L162.436 145.231C162.436 145.231 162.143 147.447 161.785 150.195Z" fill="#263238"/>
<path d="M161.079 143.852C161.079 143.852 157.82 139.507 155.876 140.593C153.932 141.679 156.354 148.196 158.743 148.978C159.042 149.107 159.364 149.173 159.689 149.174C160.014 149.174 160.336 149.109 160.635 148.983C160.934 148.856 161.205 148.67 161.43 148.436C161.656 148.202 161.832 147.924 161.948 147.621L161.079 143.852Z" fill="#F7A9A0"/>
<path d="M156.636 142.429C156.636 142.429 156.582 142.429 156.636 142.494C157.411 142.855 158.102 143.376 158.663 144.021C159.225 144.667 159.644 145.423 159.894 146.241C159.793 146.079 159.658 145.94 159.498 145.834C159.339 145.727 159.158 145.657 158.969 145.626C158.78 145.595 158.586 145.605 158.401 145.655C158.216 145.705 158.044 145.794 157.896 145.915C157.896 145.915 157.896 146.024 157.896 146.013C158.185 145.913 158.498 145.905 158.792 145.991C159.086 146.077 159.346 146.251 159.536 146.491C159.85 146.897 160.123 147.334 160.351 147.794C160.427 147.947 160.698 147.86 160.633 147.686C160.622 145.535 158.917 142.592 156.636 142.429Z" fill="#263238"/>
<path d="M183.823 138.986C185.343 153.171 177.012 155.691 173.949 156.006C171.18 156.31 161.687 156.951 158.743 142.972C155.8 128.993 161.882 123.823 168.193 122.813C174.503 121.803 182.302 124.8 183.823 138.986Z" fill="#F7A9A0"/>
<path d="M180.977 137.074C180.648 137.037 180.322 136.982 179.999 136.911C179.65 136.899 179.314 136.774 179.044 136.553C178.976 136.464 178.939 136.355 178.939 136.243C178.939 136.131 178.976 136.023 179.044 135.934C179.198 135.771 179.394 135.652 179.609 135.591C179.825 135.53 180.054 135.528 180.271 135.586C180.728 135.639 181.15 135.86 181.455 136.205C181.524 136.287 181.566 136.388 181.576 136.495C181.586 136.602 181.564 136.709 181.513 136.803C181.461 136.897 181.382 136.973 181.287 137.021C181.191 137.07 181.083 137.088 180.977 137.074Z" fill="#263238"/>
<path d="M171.114 137.78C171.451 137.726 171.744 137.617 172.07 137.541C172.42 137.501 172.748 137.349 173.004 137.107C173.072 137.018 173.109 136.909 173.109 136.797C173.109 136.685 173.072 136.577 173.004 136.488C172.837 136.339 172.633 136.237 172.413 136.193C172.194 136.149 171.967 136.165 171.755 136.238C171.322 136.334 170.938 136.58 170.669 136.933C170.614 137.014 170.582 137.109 170.577 137.207C170.571 137.305 170.592 137.403 170.638 137.49C170.684 137.577 170.752 137.65 170.836 137.701C170.92 137.752 171.016 137.779 171.114 137.78Z" fill="#263238"/>
<path d="M173.146 141.299C173.146 141.299 173.07 141.354 173.08 141.397C173.167 142.364 173.08 143.482 172.244 143.863V143.917C173.319 143.7 173.385 142.201 173.146 141.299Z" fill="#263238"/>
<path d="M172.223 140.333C170.659 140.333 170.724 143.439 172.168 143.461C173.613 143.482 173.537 140.333 172.223 140.333Z" fill="#263238"/>
<path d="M171.603 140.517C171.343 140.702 171.082 141.028 170.745 141.06C170.409 141.093 170.072 140.789 169.811 140.474H169.757C169.757 141.071 170.007 141.679 170.658 141.755C171.31 141.831 171.658 141.288 171.745 140.669C171.821 140.615 171.745 140.452 171.603 140.517Z" fill="#263238"/>
<path d="M179.217 140.734C179.217 140.734 179.304 140.734 179.293 140.821C179.293 141.788 179.424 142.907 180.304 143.211C180.304 143.211 180.304 143.276 180.304 143.211C179.228 143.135 179.055 141.647 179.217 140.734Z" fill="#263238"/>
<path d="M180.075 139.703C181.639 139.572 181.802 142.7 180.357 142.831C178.913 142.961 178.772 139.822 180.075 139.703Z" fill="#263238"/>
<path d="M180.738 139.876C180.999 140.028 181.259 140.322 181.553 140.322C181.846 140.322 182.128 139.974 182.335 139.637C182.335 139.637 182.335 139.637 182.389 139.637C182.389 140.235 182.27 140.876 181.694 141.017C181.118 141.158 180.771 140.658 180.608 140.061C180.564 139.985 180.64 139.811 180.738 139.876Z" fill="#263238"/>
<path d="M173.786 148.739C174.014 148.978 174.232 149.293 174.59 149.337C174.963 149.341 175.333 149.267 175.676 149.12C175.676 149.12 175.741 149.12 175.676 149.12C175.532 149.308 175.34 149.453 175.12 149.541C174.901 149.629 174.661 149.656 174.427 149.619C174.234 149.556 174.063 149.441 173.932 149.285C173.801 149.13 173.717 148.941 173.689 148.739C173.678 148.729 173.754 148.707 173.786 148.739Z" fill="#263238"/>
<path d="M177.729 145.101C177.729 145.101 177.979 146.545 178.001 147.273C178.001 147.338 177.838 147.371 177.599 147.393C177.008 147.533 176.391 147.506 175.815 147.314C175.239 147.122 174.728 146.773 174.34 146.306C174.34 146.241 174.34 146.165 174.449 146.209C175.337 146.775 176.385 147.038 177.436 146.958C177.436 146.774 176.936 144.503 177.045 144.493C177.578 144.522 178.104 144.624 178.609 144.797C178.175 141.766 177.262 138.845 176.882 135.825C176.889 135.806 176.901 135.789 176.918 135.777C176.934 135.766 176.954 135.759 176.974 135.759C176.995 135.759 177.014 135.766 177.031 135.777C177.047 135.789 177.06 135.806 177.067 135.825C178.133 138.932 178.89 142.138 179.326 145.394C179.424 145.676 178.001 145.209 177.729 145.101Z" fill="#263238"/>
<path d="M159.58 143.917C161.926 143.917 162.089 138.975 162.089 138.975C162.089 138.975 166.824 138.627 167.867 131.687C167.889 133.741 167.312 135.756 166.205 137.487C166.205 137.487 174.493 135.955 177.48 128.689C177.48 128.689 176.394 132.36 175.123 133.729C177.196 132.917 178.934 131.428 180.054 129.503C180.054 129.503 181.824 133.425 183.041 134.456C183.041 134.456 181.564 119.847 168.128 122.454C168.128 122.454 159.688 123.671 157.158 130.622C154.627 137.574 159.58 143.917 159.58 143.917Z" fill="#263238"/>
<path d="M161.969 159.406C160.231 159.569 157.342 160.199 153.714 163.609C153.714 163.609 162.61 169.377 170.268 168.605C173.005 168.334 173.526 163.729 173.526 163.729C172.032 162.208 170.223 161.034 168.226 160.287C166.23 159.54 164.094 159.239 161.969 159.406Z" fill="#F7A9A0"/>
<path d="M337.699 439.68C339.763 440.375 398.839 440.581 401.099 439.169C401.957 438.637 402.489 430.034 402.836 419.618C402.912 417.37 402.978 415.045 403.021 412.688L407.811 381.19L368.34 380.929L364.614 412.428L364.766 419.368C364.766 419.368 342.109 429.404 339.785 431.218C337.46 433.032 335.635 439.028 337.699 439.68Z" fill="#DD6A57"/>
<path d="M337.699 439.68C339.763 440.375 398.839 440.581 401.099 439.169C402.185 438.517 402.706 425.95 403.021 412.688L364.593 412.438L364.745 419.379C364.745 419.379 342.087 429.415 339.763 431.229C337.438 433.043 335.635 439.028 337.699 439.68Z" fill="white"/>
<path d="M337.699 439.68C339.763 440.375 398.839 440.581 401.099 439.169C401.957 438.637 402.489 430.034 402.836 419.618L364.745 419.379C364.745 419.379 342.087 429.415 339.763 431.229C337.438 433.043 335.635 439.028 337.699 439.68Z" fill="#FABB03"/>
<path d="M338.557 437.312C348.452 437.105 388.423 437.203 398.231 437.746C398.307 437.746 398.307 437.811 398.231 437.811C388.455 438.235 348.452 437.811 338.557 437.475C338.34 437.475 338.34 437.322 338.557 437.312Z" fill="#263238"/>
<path d="M343.586 429.122C344.687 429.097 345.782 429.301 346.8 429.719C347.819 430.138 348.74 430.763 349.506 431.555C350.884 432.977 351.661 434.875 351.678 436.855C351.678 436.91 351.569 436.91 351.559 436.855C351.227 434.894 350.269 433.093 348.828 431.723C347.386 430.352 345.54 429.485 343.564 429.252C343.547 429.249 343.532 429.24 343.522 429.226C343.511 429.211 343.507 429.194 343.51 429.176C343.513 429.159 343.523 429.144 343.537 429.133C343.551 429.123 343.569 429.119 343.586 429.122Z" fill="#263238"/>
<path d="M360.9 420.346C364.864 420.346 369.459 421.725 371.903 424.973C372 425.092 371.816 425.234 371.707 425.168C368.251 423.34 364.61 421.883 360.845 420.824C360.795 420.803 360.753 420.767 360.725 420.72C360.697 420.673 360.685 420.618 360.692 420.564C360.698 420.51 360.721 420.459 360.759 420.42C360.797 420.381 360.846 420.354 360.9 420.346Z" fill="#263238"/>
<path d="M357.836 421.53C361.801 421.53 366.395 422.898 368.839 426.157C368.937 426.276 368.752 426.417 368.644 426.352C365.188 424.523 361.546 423.066 357.782 422.008C357.731 421.987 357.689 421.951 357.661 421.904C357.634 421.857 357.622 421.802 357.628 421.748C357.634 421.694 357.658 421.643 357.695 421.604C357.733 421.565 357.782 421.539 357.836 421.53Z" fill="#263238"/>
<path d="M354.774 422.735C358.738 422.735 363.322 424.104 365.776 427.362C365.874 427.482 365.689 427.612 365.57 427.558C362.115 425.726 358.474 424.269 354.708 423.213C354.658 423.192 354.616 423.155 354.588 423.107C354.561 423.059 354.551 423.004 354.558 422.949C354.565 422.895 354.591 422.845 354.629 422.806C354.668 422.767 354.719 422.742 354.774 422.735Z" fill="#263238"/>
<path d="M351.711 423.898C355.676 423.898 360.259 425.266 362.714 428.514C362.812 428.644 362.627 428.774 362.507 428.72C359.055 426.883 355.413 425.427 351.646 424.375C351.595 424.354 351.553 424.317 351.526 424.269C351.499 424.221 351.488 424.166 351.495 424.112C351.503 424.057 351.528 424.007 351.567 423.968C351.606 423.929 351.657 423.905 351.711 423.898Z" fill="#263238"/>
<path d="M395.744 428.34C400.186 428.34 400.153 435.27 395.689 435.248C391.225 435.226 391.279 428.307 395.744 428.34Z" fill="#263238"/>
<path d="M356.946 415.567C359.118 418.336 362.377 420.085 365.147 422.084C365.213 422.121 365.287 422.143 365.363 422.146C365.439 422.15 365.514 422.136 365.584 422.106C365.654 422.075 365.715 422.029 365.764 421.97C365.812 421.912 365.846 421.843 365.863 421.769C365.879 421.772 365.895 421.772 365.91 421.768C365.926 421.764 365.94 421.757 365.952 421.746C365.964 421.735 365.973 421.722 365.978 421.707C365.983 421.692 365.985 421.676 365.983 421.66C365.704 418.022 364.475 414.52 362.42 411.504C361.193 409.777 358.662 408.137 356.653 409.799C354.643 411.461 355.708 413.948 356.946 415.567ZM356.772 412.308C357.185 407.964 361.063 411.32 361.921 412.634C362.462 413.491 362.944 414.384 363.365 415.306C364.256 417.218 364.875 419.216 365.538 421.193C364.212 420.107 362.811 419.216 361.454 418.217C359.868 417.011 356.555 414.654 356.772 412.286V412.308Z" fill="#263238"/>
<path d="M380.071 419.14C379.766 416.544 376.812 415.979 374.727 416.37C371.141 417.106 367.813 418.778 365.081 421.215C365.068 421.224 365.057 421.236 365.049 421.25C365.042 421.264 365.038 421.28 365.038 421.296C365.038 421.312 365.042 421.328 365.049 421.342C365.057 421.357 365.068 421.369 365.081 421.378C365.042 421.443 365.018 421.516 365.011 421.592C365.005 421.668 365.017 421.744 365.045 421.815C365.074 421.886 365.118 421.949 365.176 421.999C365.233 422.05 365.301 422.086 365.375 422.105C368.764 422.638 372.315 423.637 375.769 423.116C377.844 422.811 380.353 421.584 380.071 419.14ZM370.73 421.866C369.057 421.638 367.406 421.334 365.722 421.171C367.601 420.237 369.426 419.227 371.403 418.478C372.342 418.096 373.308 417.784 374.292 417.543C375.824 417.185 380.918 417.478 378.224 420.867C376.747 422.735 372.685 422.138 370.73 421.866Z" fill="#263238"/>
<path d="M465.844 235.524C465.844 235.524 419.987 313.554 418.759 319.028C416.869 327.446 406.866 410.57 406.866 410.57L359.14 409.701C359.14 409.701 367.373 336.407 375.161 312.262C380.776 294.883 421.247 237.186 421.247 237.186L465.844 235.524Z" fill="#FABB03"/>
<path d="M363.484 402.402C370.338 402.402 394.625 402.076 403.749 402.924C403.766 402.924 403.782 402.931 403.795 402.943C403.807 402.955 403.814 402.972 403.814 402.989C403.814 403.006 403.807 403.023 403.795 403.035C403.782 403.047 403.766 403.054 403.749 403.054C400.599 403.51 370.327 402.804 363.484 402.587C363.47 402.592 363.454 402.594 363.438 402.591C363.423 402.589 363.408 402.583 363.396 402.574C363.383 402.565 363.373 402.553 363.365 402.539C363.358 402.526 363.354 402.51 363.354 402.495C363.354 402.479 363.358 402.464 363.365 402.45C363.373 402.436 363.383 402.424 363.396 402.415C363.408 402.406 363.423 402.4 363.438 402.398C363.454 402.396 363.47 402.397 363.484 402.402Z" fill="#263238"/>
<path d="M458.025 242.682C455.016 247.396 451.844 252.012 448.77 256.693C445.697 261.375 442.634 266.045 439.614 270.748C433.561 280.162 427.659 289.658 421.91 299.238C419.111 303.647 416.719 308.3 414.763 313.141C412.951 317.999 411.591 323.013 410.7 328.12C409.766 333.235 409.147 338.406 408.528 343.576C407.913 349.086 407.297 354.593 406.682 360.096L402.913 393.887C402.75 395.266 402.598 396.646 402.467 398.036C402.467 398.232 402.804 398.275 402.837 398.036C404.238 386.849 405.4 375.618 406.682 364.365C407.312 358.782 407.945 353.203 408.582 347.627C409.169 342.435 409.734 337.243 410.537 332.084C411.284 326.996 412.41 321.972 413.905 317.052C415.552 311.955 417.764 307.059 420.498 302.454C426.026 292.917 431.881 283.543 437.735 274.213C443.589 264.883 449.596 255.379 455.765 246.114C456.537 244.963 457.297 243.822 458.09 242.704C458.231 242.682 458.079 242.595 458.025 242.682Z" fill="#263238"/>
<path d="M425.298 446.24C427.47 446.381 486.123 430.925 487.915 428.981C487.993 428.864 488.042 428.73 488.057 428.59C488.285 426.667 485.287 419.466 483.18 410.255C483.049 409.669 481.952 406.867 480.399 403.098C476.152 392.714 468.56 374.912 468.56 374.912L430.251 384.72L444.371 413.047L446.283 419.716C446.283 419.716 426.992 435.194 425.168 437.54C423.343 439.886 423.136 446.088 425.298 446.24Z" fill="#DD6A57"/>
<path d="M425.298 446.24C427.47 446.381 486.123 430.925 487.915 428.981C487.993 428.864 488.042 428.73 488.057 428.59C488.285 426.667 485.287 419.466 483.18 410.255C483.049 409.669 481.952 406.867 480.399 403.098L444.371 413.047L446.283 419.716C446.283 419.716 426.992 435.194 425.168 437.54C423.343 439.886 423.136 446.088 425.298 446.24Z" fill="white"/>
<path d="M425.309 446.229C427.481 446.381 486.134 430.925 487.915 428.981C488.611 428.253 487.09 420.291 483.191 410.255L446.261 419.716C446.261 419.716 426.992 435.194 425.168 437.54C423.343 439.886 423.137 446.088 425.309 446.229Z" fill="#FABB03"/>
<path d="M425.537 443.731C435.052 441.015 473.73 430.925 483.354 428.959C483.43 428.959 483.44 428.959 483.354 429.024C473.98 431.924 435.226 441.7 425.559 443.894C425.363 443.937 425.331 443.796 425.537 443.731Z" fill="#263238"/>
<path d="M428.318 434.52C429.377 434.219 430.488 434.14 431.579 434.288C432.671 434.435 433.72 434.807 434.661 435.378C436.361 436.396 437.602 438.03 438.126 439.94C438.126 439.994 438.039 440.027 438.007 439.94C437.191 438.126 435.809 436.625 434.068 435.664C432.327 434.702 430.32 434.331 428.351 434.607C428.264 434.683 428.242 434.553 428.318 434.52Z" fill="#263238"/>
<path d="M442.818 421.649C446.641 420.563 451.442 420.791 454.646 423.311C454.766 423.409 454.646 423.583 454.494 423.561C450.686 422.669 446.793 422.192 442.883 422.138C442.824 422.136 442.767 422.113 442.723 422.074C442.679 422.034 442.651 421.98 442.643 421.921C442.635 421.863 442.648 421.803 442.68 421.753C442.712 421.703 442.761 421.666 442.818 421.649Z" fill="#263238"/>
<path d="M440.157 423.561C443.98 422.475 448.781 422.714 451.985 425.223C452.105 425.32 451.985 425.505 451.833 425.472C448.025 424.581 444.132 424.104 440.222 424.05C440.163 424.048 440.106 424.025 440.062 423.985C440.018 423.946 439.99 423.892 439.982 423.833C439.974 423.774 439.987 423.715 440.019 423.665C440.051 423.615 440.1 423.578 440.157 423.561Z" fill="#263238"/>
<path d="M437.496 425.483C441.32 424.397 446.12 424.636 449.325 427.156C449.444 427.243 449.325 427.428 449.172 427.395C445.361 426.503 441.464 426.026 437.551 425.972C437.492 425.968 437.437 425.944 437.394 425.903C437.352 425.863 437.325 425.809 437.319 425.75C437.312 425.692 437.327 425.633 437.359 425.585C437.391 425.536 437.44 425.5 437.496 425.483Z" fill="#263238"/>
<path d="M434.835 427.406C438.658 426.32 443.459 426.559 446.652 429.079C446.782 429.176 446.652 429.35 446.511 429.318C442.699 428.426 438.803 427.949 434.889 427.895C434.83 427.891 434.775 427.866 434.733 427.826C434.69 427.785 434.664 427.731 434.657 427.673C434.651 427.615 434.665 427.556 434.697 427.507C434.73 427.458 434.778 427.423 434.835 427.406Z" fill="#263238"/>
<path d="M478.553 420.487C482.898 419.401 484.581 426.081 480.269 427.189C475.957 428.296 474.23 421.649 478.553 420.487Z" fill="#263238"/>
<path d="M437.789 418.021C440.548 420.194 444.143 421.008 447.358 422.192C447.431 422.211 447.508 422.212 447.582 422.196C447.656 422.18 447.725 422.147 447.784 422.099C447.843 422.052 447.89 421.992 447.922 421.923C447.953 421.854 447.969 421.779 447.966 421.704C447.983 421.703 447.999 421.698 448.013 421.69C448.028 421.682 448.04 421.671 448.05 421.657C448.059 421.643 448.065 421.628 448.068 421.611C448.07 421.595 448.069 421.578 448.064 421.562C446.867 418.118 444.789 415.047 442.036 412.656C440.396 411.298 437.539 410.353 436.019 412.471C434.498 414.589 436.171 416.772 437.789 418.021ZM436.779 414.882C436.084 410.614 440.678 412.84 441.84 413.894C442.582 414.588 443.275 415.332 443.915 416.121C445.213 417.764 446.427 419.471 447.554 421.236C446 420.563 444.415 420.02 442.84 419.401C440.971 418.662 437.17 417.239 436.768 414.882H436.779Z" fill="#263238"/>
<path d="M461.055 415.578C460.099 413.155 457.102 413.351 455.19 414.263C451.923 415.893 449.144 418.354 447.131 421.399C447.119 421.409 447.11 421.42 447.104 421.433C447.098 421.446 447.094 421.461 447.094 421.475C447.094 421.49 447.098 421.504 447.104 421.518C447.11 421.531 447.119 421.542 447.131 421.551C447.109 421.624 447.104 421.701 447.117 421.776C447.13 421.852 447.16 421.923 447.206 421.984C447.251 422.045 447.31 422.095 447.378 422.129C447.446 422.163 447.521 422.181 447.598 422.181C451.008 421.834 454.701 421.888 457.905 420.509C459.839 419.705 461.957 417.88 461.055 415.578ZM452.724 420.563C451.041 420.78 449.368 420.9 447.706 421.171C449.281 419.792 450.791 418.347 452.496 417.12C453.313 416.517 454.17 415.969 455.06 415.48C456.45 414.752 461.457 413.731 459.719 417.652C458.753 419.911 454.712 420.357 452.724 420.563Z" fill="#263238"/>
<path d="M441.764 411.233L484.635 399.98C484.635 399.98 443.589 319.191 443.926 313.608C444.219 308.666 473.991 265.307 475.642 257.193C478.335 243.909 471.862 232.048 465.595 224.695L421.247 237.197C423.629 242.05 427.047 246.322 431.261 249.709C431.261 249.709 403.39 296.252 402.684 311.556C401.978 326.86 441.764 411.233 441.764 411.233Z" fill="#FABB03"/>
<path d="M440.939 403.239C447.163 401.457 445.349 401.881 451.595 400.176C454.647 399.339 474.719 393.854 477.662 393.572C477.728 393.572 477.749 393.67 477.662 393.691C474.925 394.93 454.766 400.056 451.692 400.838C445.425 402.435 447.206 401.924 440.918 403.423C440.874 403.456 440.831 403.282 440.939 403.239Z" fill="#263238"/>
<path d="M424.451 247.928C428.715 249.501 432.836 251.438 436.768 253.717C436.794 253.737 436.813 253.765 436.821 253.797C436.828 253.828 436.825 253.862 436.811 253.891C436.797 253.921 436.773 253.944 436.743 253.958C436.714 253.972 436.68 253.975 436.649 253.967C432.51 252.153 428.285 250.426 424.256 248.406C424.201 248.374 424.16 248.324 424.14 248.265C424.12 248.205 424.122 248.14 424.145 248.082C424.169 248.024 424.213 247.976 424.269 247.948C424.326 247.919 424.39 247.912 424.451 247.928Z" fill="#263238"/>
<path d="M429.665 246.831C429.981 247.609 430.246 248.408 430.458 249.221C430.685 249.85 430.792 250.517 430.773 251.186C430.773 251.306 430.577 251.317 430.512 251.186C430.138 250.596 429.86 249.951 429.687 249.275C429.415 248.536 429.122 247.798 428.883 247.102C428.847 246.999 428.853 246.885 428.901 246.786C428.949 246.687 429.034 246.612 429.138 246.576C429.242 246.54 429.355 246.546 429.454 246.594C429.553 246.642 429.629 246.727 429.665 246.831Z" fill="#263238"/>
<path d="M429.664 242.812C429.491 242.139 429.306 241.454 429.121 240.781C428.937 240.108 428.676 239.38 428.535 238.674C428.535 238.554 428.339 238.609 428.361 238.674C428.535 239.358 428.622 240.075 428.741 240.77C428.861 241.465 428.991 242.15 429.132 242.845C429.393 244.142 429.719 245.425 430.11 246.69C429.414 246.637 428.738 246.429 428.133 246.081C427.544 245.592 427.123 244.932 426.927 244.192C426.656 243.42 426.406 242.638 426.113 241.867C425.757 241.03 425.47 240.166 425.255 239.282C425.255 239.163 425.059 239.217 425.081 239.282C425.427 241.141 425.959 242.96 426.667 244.713C426.971 245.408 427.199 246.114 427.883 246.462C428.635 246.78 429.445 246.939 430.262 246.929C430.349 246.929 430.49 246.929 430.468 246.798C430.267 245.457 429.999 244.127 429.664 242.812Z" fill="#263238"/>
<path d="M430.403 251.23C428.72 254.282 426.786 257.204 424.972 260.18C423.158 263.156 421.54 266.045 419.889 269.032C416.573 275.05 413.51 281.204 410.7 287.497C409.31 290.603 407.999 293.742 406.768 296.914C405.446 300.089 404.357 303.356 403.51 306.69C402.72 309.998 402.572 313.427 403.075 316.791C403.692 320.216 404.567 323.589 405.693 326.881C407.992 334.472 410.79 341.903 414.067 349.126C414.176 349.365 414.578 349.18 414.491 348.941C412.145 342.327 409.712 335.744 407.615 329.054C405.573 322.537 403.151 315.835 404.281 308.949C404.901 305.639 405.843 302.398 407.094 299.271C408.289 296.013 409.581 292.874 410.939 289.734C413.633 283.532 416.663 277.515 419.748 271.509C421.475 268.142 423.3 264.829 425.048 261.472C426.797 258.116 428.524 254.641 430.479 251.382C430.61 251.219 430.457 251.121 430.403 251.23Z" fill="#263238"/>
<path d="M462.695 244.724C462 244.365 460.935 244.724 460.175 244.724C459.197 244.76 458.217 244.731 457.242 244.637C456.282 244.544 455.328 244.392 454.386 244.181C453.431 244.027 452.524 243.655 451.736 243.095C450.478 241.905 449.453 240.49 448.716 238.924C447.79 237.31 447.078 235.583 446.598 233.786C446.598 233.678 446.424 233.786 446.435 233.84C446.62 234.851 446.717 235.872 446.989 236.871C447.251 237.818 447.593 238.74 448.01 239.63C448.639 241.394 449.704 242.971 451.106 244.213C452.681 245.397 454.864 245.614 456.764 245.756C457.849 245.835 458.938 245.835 460.023 245.756C460.816 245.691 462.13 245.756 462.717 245.115C462.747 245.091 462.771 245.06 462.787 245.025C462.803 244.99 462.81 244.952 462.808 244.914C462.806 244.875 462.794 244.838 462.775 244.805C462.755 244.772 462.728 244.744 462.695 244.724Z" fill="#263238"/>
<path d="M473.991 390.715C468.597 379.723 463.325 368.662 458.177 357.533C453.028 346.403 447.992 335.19 443.068 323.894C441.718 321.246 440.644 318.465 439.864 315.596C439.191 312.446 440.168 309.611 441.493 306.787C443.978 301.631 446.752 296.619 449.803 291.776C452.822 286.889 456.005 282.12 459.144 277.32C462.406 272.628 465.398 267.754 468.104 262.722C470.674 257.977 471.752 252.568 471.2 247.2C470.505 241.769 468.159 236.697 465.65 231.918L463.629 228.138C463.629 228.04 463.434 228.138 463.488 228.225C466.291 233.243 468.984 238.511 470.288 244.137C470.965 246.918 471.174 249.792 470.907 252.642C470.559 255.524 469.745 258.33 468.495 260.951C466.171 266.078 462.923 270.792 459.806 275.495C456.689 280.198 453.474 285.064 450.422 289.919C447.311 294.786 444.461 299.815 441.884 304.984C440.586 307.25 439.69 309.723 439.234 312.294C438.93 315.129 439.962 317.855 441.059 320.419C445.827 331.595 450.834 342.674 455.939 353.71C461.044 364.745 466.323 375.78 471.689 386.74L473.731 390.878C473.829 391.052 474.078 390.889 473.991 390.715Z" fill="#263238"/>
<path d="M428.285 186.69C424.375 192.251 402.684 210.466 383.361 211.531C376.79 211.9 346.204 192.577 340.393 188.917C333.593 184.637 347.127 166.759 351.797 167.541C357.619 168.518 381.558 188.96 385.653 189.069C392.235 189.243 409.875 182.747 423.495 179.869C430.512 178.348 431.337 182.411 428.285 186.69Z" fill="#DD6A57"/>
<path d="M428.318 188.667C423.517 195.868 407.442 207.675 407.442 207.675L405.27 202.765L397.764 186.473C397.764 186.473 412.525 181.705 422.246 179.565C423.392 179.296 424.558 179.122 425.733 179.043C431.891 178.642 432.424 182.476 428.318 188.667Z" fill="#EBEBEB"/>
<path d="M409.994 183.681C410.186 184.36 410.277 185.062 410.266 185.767C410.282 186.472 410.191 187.175 409.994 187.852C409.632 186.485 409.632 185.048 409.994 183.681Z" fill="white"/>
<path d="M408.007 192.11C406.644 192.472 405.21 192.472 403.847 192.11C405.21 191.748 406.644 191.748 408.007 192.11Z" fill="white"/>
<path d="M429.078 180.455C428.4 180.647 427.697 180.738 426.993 180.727C426.288 180.744 425.584 180.652 424.907 180.455C426.274 180.094 427.711 180.094 429.078 180.455Z" fill="white"/>
<path d="M417.586 188.917C418.196 189.267 418.755 189.698 419.248 190.198C419.755 190.686 420.187 191.246 420.53 191.86C419.312 191.149 418.298 190.135 417.586 188.917Z" fill="white"/>
<path d="M409.614 198.844C410.223 199.195 410.783 199.626 411.276 200.126C411.783 200.614 412.215 201.174 412.558 201.788C411.946 201.445 411.387 201.017 410.896 200.517C410.392 200.022 409.961 199.459 409.614 198.844Z" fill="white"/>
<path d="M428.318 188.667C423.517 195.868 407.442 207.675 407.442 207.675L405.27 202.765C411.233 195.749 420.476 185.126 425.733 179.011C431.891 178.642 432.424 182.476 428.318 188.667Z" fill="#C7C7C7"/>
<path d="M410.363 204.416C409.125 201.418 403.575 189.308 402.195 186.777C402.098 186.592 401.967 186.614 402.043 186.777C404.459 192.799 407.196 198.688 410.244 204.416C410.287 204.481 410.396 204.416 410.363 204.416Z" fill="#263238"/>
<path d="M418.89 239.456C421.062 240.987 423.81 243.268 437.756 242.486C438.625 242.432 439.505 242.345 440.396 242.215C453.658 240.162 471.015 227.313 472.014 226.379C472.014 226.379 456.373 190.785 431.945 176.882C428.926 175.166 423.256 176.882 419.932 179.532C418.738 180.477 415.338 188.222 415.305 194.836C415.273 201.451 416.706 237.935 418.89 239.456Z" fill="#EBEBEB"/>
<path d="M426.808 195.781C426.999 196.459 427.091 197.162 427.08 197.867C427.092 198.568 427 199.267 426.808 199.941C426.621 199.266 426.53 198.567 426.536 197.867C426.53 197.162 426.621 196.46 426.808 195.781Z" fill="white"/>
<path d="M432.423 219.677C432.785 221.044 432.785 222.481 432.423 223.848C432.061 222.481 432.061 221.044 432.423 219.677Z" fill="white"/>
<path d="M449.802 204.894C450.164 206.261 450.164 207.698 449.802 209.065C449.44 207.698 449.44 206.261 449.802 204.894Z" fill="white"/>
<path d="M418.032 216.516C418.223 217.194 418.315 217.897 418.303 218.602C418.315 219.303 418.224 220.002 418.032 220.676C417.845 220.001 417.753 219.302 417.76 218.602C417.754 217.897 417.845 217.195 418.032 216.516Z" fill="white"/>
<path d="M439.875 200.56C439.197 200.752 438.494 200.843 437.789 200.832C437.088 200.843 436.389 200.752 435.715 200.56C436.391 200.375 437.089 200.283 437.789 200.289C438.494 200.282 439.196 200.374 439.875 200.56Z" fill="white"/>
<path d="M454.636 219.058C453.273 219.42 451.839 219.42 450.476 219.058C451.839 218.696 453.273 218.696 454.636 219.058Z" fill="white"/>
<path d="M432.195 233.743C430.832 234.105 429.398 234.105 428.035 233.743C429.398 233.381 430.832 233.381 432.195 233.743Z" fill="white"/>
<path d="M458.328 230.908C457.653 231.093 456.955 231.185 456.254 231.179C455.55 231.186 454.848 231.094 454.168 230.908C454.847 230.716 455.549 230.625 456.254 230.636C456.955 230.625 457.654 230.716 458.328 230.908Z" fill="white"/>
<path d="M429.078 180.455C428.4 180.647 427.697 180.738 426.993 180.727C426.288 180.744 425.584 180.652 424.907 180.455C426.274 180.094 427.711 180.094 429.078 180.455Z" fill="white"/>
<path d="M436.323 183.16C437.541 183.871 438.555 184.885 439.266 186.103C438.65 185.763 438.09 185.331 437.604 184.822C437.098 184.334 436.666 183.774 436.323 183.16Z" fill="white"/>
<path d="M458.002 206.36C459.221 207.072 460.235 208.086 460.946 209.304C459.721 208.601 458.706 207.585 458.002 206.36Z" fill="white"/>
<path d="M423.333 208.848C424.551 209.559 425.565 210.573 426.276 211.791C425.66 211.451 425.1 211.019 424.614 210.51C424.108 210.022 423.676 209.462 423.333 208.848Z" fill="white"/>
<path d="M443.22 225.607C443.831 225.955 444.39 226.386 444.882 226.889C445.388 227.377 445.82 227.937 446.163 228.551C445.552 228.208 444.992 227.78 444.501 227.28C444.001 226.783 443.57 226.22 443.22 225.607Z" fill="white"/>
<path d="M417.586 188.917C418.196 189.267 418.755 189.698 419.248 190.198C419.755 190.686 420.187 191.246 420.53 191.86C419.312 191.149 418.298 190.135 417.586 188.917Z" fill="white"/>
<path d="M415.827 204.894C416.174 204.282 416.605 203.723 417.109 203.232C417.602 202.732 418.161 202.301 418.771 201.951C418.428 202.568 417.996 203.132 417.489 203.623C416.998 204.123 416.438 204.551 415.827 204.894Z" fill="white"/>
<path d="M462.901 222.62C463.247 222.008 463.679 221.449 464.183 220.959C464.677 220.458 465.236 220.027 465.845 219.677C465.505 220.296 465.073 220.86 464.563 221.35C464.072 221.85 463.513 222.278 462.901 222.62Z" fill="white"/>
<path d="M418.39 229.724C419.101 228.506 420.115 227.492 421.334 226.78C420.991 227.398 420.559 227.961 420.052 228.453C419.561 228.953 419.001 229.381 418.39 229.724Z" fill="white"/>
<path d="M444.969 195.531C445.312 194.92 445.739 194.361 446.24 193.87C446.731 193.363 447.295 192.931 447.912 192.588C447.201 193.806 446.187 194.82 444.969 195.531Z" fill="white"/>
<path d="M438.375 240.075C438.719 239.461 439.15 238.901 439.657 238.413C440.151 237.913 440.71 237.482 441.319 237.132C440.979 237.747 440.547 238.308 440.037 238.793C439.549 239.3 438.989 239.732 438.375 240.075Z" fill="white"/>
<path d="M438.397 213.258C439.109 212.039 440.123 211.025 441.341 210.314C440.646 211.545 439.628 212.563 438.397 213.258Z" fill="white"/>
<path d="M423.474 188.917C426.852 188.765 430.914 182.4 431.935 177.838C431.22 175.664 430.394 173.529 429.458 171.44C428.666 169.387 427.829 167.096 427.21 164.923C427.091 164.478 425.809 165.727 425.809 165.727L423.213 167.193L414.632 172.059C416.171 174.532 417.4 177.184 418.293 179.956C418.377 180.254 418.431 180.559 418.456 180.868C418.456 180.868 418.456 180.966 418.456 181.02C418.684 182.791 420.204 189.058 423.474 188.917Z" fill="#DD6A57"/>
<path d="M418.455 180.879C418.455 180.879 418.455 180.977 418.455 181.031C418.935 180.968 419.408 180.859 419.867 180.705C428.904 177.914 426.743 166.02 426.743 166.02L423.191 167.204L414.61 172.07C416.149 174.543 417.378 177.195 418.271 179.967C418.362 180.264 418.424 180.57 418.455 180.879Z" fill="#263238"/>
<path d="M428.079 151.542C429.773 156.473 427.634 170.951 424.201 174.275C419.227 179.098 410.841 179.836 406.681 173.797C402.641 167.943 405.758 149.13 409.614 146.089C415.251 141.592 425.537 144.264 428.079 151.542Z" fill="#DD6A57"/>
<path d="M414.654 161.361C414.654 161.361 414.719 161.426 414.708 161.458C414.545 162.436 414.513 163.631 415.349 164.022C415.349 164.022 415.349 164.087 415.349 164.076C414.274 163.772 414.328 162.262 414.654 161.361Z" fill="#263238"/>
<path d="M415.664 160.47C417.25 160.579 416.924 163.728 415.458 163.642C413.991 163.555 414.339 160.383 415.664 160.47Z" fill="#263238"/>
<path d="M408.648 160.611C408.648 160.611 408.572 160.611 408.561 160.698C408.496 161.676 408.246 162.794 407.333 163.022V163.077C408.431 163.044 408.746 161.556 408.648 160.611Z" fill="#263238"/>
<path d="M407.876 159.503C406.312 159.221 405.867 162.371 407.311 162.631C408.756 162.892 409.19 159.731 407.876 159.503Z" fill="#263238"/>
<path d="M417.065 159.156C416.66 158.99 416.265 158.801 415.881 158.591C415.444 158.448 415.064 158.171 414.795 157.798C414.734 157.661 414.72 157.508 414.755 157.363C414.79 157.217 414.873 157.087 414.991 156.994C415.246 156.844 415.536 156.765 415.832 156.765C416.128 156.765 416.419 156.844 416.674 156.994C417.244 157.219 417.71 157.649 417.978 158.2C418.034 158.329 418.051 158.472 418.026 158.611C418.001 158.75 417.936 158.879 417.839 158.981C417.741 159.083 417.616 159.154 417.478 159.185C417.341 159.216 417.197 159.206 417.065 159.156Z" fill="#263238"/>
<path d="M406.822 157.776C407.257 157.738 407.689 157.672 408.115 157.581C408.577 157.579 409.024 157.423 409.386 157.135C409.476 157.017 409.524 156.872 409.524 156.723C409.524 156.574 409.476 156.429 409.386 156.31C409.181 156.093 408.922 155.935 408.636 155.851C408.35 155.767 408.046 155.76 407.757 155.832C407.154 155.883 406.592 156.158 406.182 156.603C406.088 156.714 406.031 156.85 406.016 156.994C406.002 157.137 406.031 157.282 406.1 157.409C406.17 157.536 406.276 157.639 406.405 157.704C406.533 157.77 406.679 157.795 406.822 157.776Z" fill="#263238"/>
<path d="M413.85 167.183C413.562 167.545 413.202 167.845 412.793 168.061C412.383 168.278 411.934 168.408 411.472 168.442C411.069 168.475 410.663 168.453 410.266 168.377H410.038L409.821 168.323C409.771 168.305 409.728 168.273 409.697 168.231C409.666 168.188 409.648 168.137 409.647 168.084C409.642 168.052 409.642 168.019 409.647 167.986V167.91C409.712 167.15 409.897 166.009 409.897 166.009C409.614 166.118 408.137 166.607 408.202 166.216C408.64 162.821 409.422 159.481 410.538 156.245C410.538 156.222 410.547 156.2 410.563 156.183C410.579 156.167 410.601 156.158 410.624 156.158C410.647 156.158 410.67 156.167 410.686 156.183C410.702 156.2 410.711 156.222 410.711 156.245C410.32 159.384 409.386 162.436 408.952 165.575C409.475 165.399 410.019 165.293 410.57 165.26C410.679 165.26 410.168 167.432 410.168 167.802C410.78 167.929 411.411 167.931 412.023 167.808C412.635 167.684 413.216 167.439 413.731 167.085C413.85 167.041 413.959 167.117 413.85 167.183Z" fill="#263238"/>
<path d="M410.7 168.041C411.061 168.622 411.566 169.101 412.167 169.431C412.502 169.6 412.881 169.661 413.253 169.605C414.056 169.485 414.143 168.768 414.067 168.138C414.022 167.804 413.938 167.476 413.817 167.161C412.899 167.78 411.807 168.088 410.7 168.041Z" fill="#263238"/>
<path d="M412.21 169.431C412.545 169.601 412.925 169.661 413.296 169.605C414.1 169.485 414.187 168.768 414.111 168.138C413.694 168.105 413.279 168.215 412.933 168.45C412.587 168.685 412.332 169.031 412.21 169.431Z" fill="#FF99BA"/>
<path d="M426.776 163.62C424.288 163.403 424.701 157.298 424.701 157.298C424.701 157.298 420.911 156.505 419.194 151.216C419.194 151.216 414.198 154.159 410.103 153.29C403.695 151.933 404.108 143.515 406.573 141.918C410.06 139.605 416.055 143.298 416.055 143.298C416.055 143.298 425.342 140.995 427.905 147.317C429.097 147.434 430.199 148 430.989 148.899C431.78 149.798 432.199 150.964 432.163 152.161C432.315 156.712 428.633 163.783 426.776 163.62Z" fill="#263238"/>
<path d="M425.57 158.037C423.727 157.667 422.061 156.692 420.835 155.267C420.179 154.494 419.719 153.574 419.492 152.586C419.265 151.597 419.279 150.569 419.531 149.587C419.525 149.57 419.514 149.556 419.499 149.546C419.485 149.535 419.467 149.53 419.45 149.53C419.432 149.53 419.415 149.535 419.4 149.546C419.385 149.556 419.374 149.57 419.368 149.587C419.049 150.611 418.96 151.692 419.106 152.755C419.252 153.818 419.631 154.835 420.215 155.734C420.805 156.589 421.609 157.273 422.547 157.718C423.486 158.162 424.525 158.351 425.559 158.265C425.59 158.267 425.619 158.256 425.642 158.236C425.664 158.215 425.677 158.187 425.679 158.156C425.68 158.126 425.67 158.097 425.649 158.074C425.629 158.052 425.6 158.038 425.57 158.037Z" fill="#263238"/>
<path d="M432.576 149.511C431.348 147.86 429.415 147.556 427.503 147.566C427.395 147.566 427.395 147.751 427.503 147.74C428.458 147.732 429.397 147.981 430.223 148.46C431.049 148.94 431.73 149.633 432.196 150.466C432.571 151.254 432.785 152.108 432.824 152.98C432.863 153.851 432.727 154.721 432.424 155.539C431.601 158.747 429.615 161.534 426.852 163.359C426.852 163.359 426.852 163.468 426.852 163.435C428.422 162.51 429.787 161.273 430.863 159.801C431.939 158.329 432.702 156.654 433.108 154.876C433.51 153.149 433.694 151.031 432.576 149.511Z" fill="#263238"/>
<path d="M416.294 143.591C415.522 142.261 414.289 141.26 412.829 140.778C411.054 140.242 409.142 140.381 407.463 141.169C406.794 141.501 406.226 142.005 405.815 142.629C405.405 143.253 405.168 143.975 405.128 144.721C405.082 146.455 405.63 148.153 406.681 149.532C406.681 149.532 406.768 149.532 406.747 149.532C405.91 148.242 405.493 146.724 405.552 145.188C405.59 144.452 405.836 143.742 406.261 143.141C406.685 142.539 407.272 142.07 407.952 141.788C410.635 140.702 414.469 140.995 416.153 143.732C416.207 143.797 416.348 143.7 416.294 143.591Z" fill="#263238"/>
<path d="M425.363 163.37C425.363 163.37 428.546 158.678 430.675 159.807C432.804 160.937 430.458 167.715 427.992 168.671C427.684 168.814 427.35 168.895 427.011 168.907C426.671 168.919 426.333 168.862 426.015 168.74C425.698 168.619 425.409 168.434 425.164 168.199C424.92 167.963 424.725 167.68 424.592 167.367L425.363 163.37Z" fill="#DD6A57"/>
<path d="M262.428 261.679H394.397V169.268H262.428V261.679Z" fill="#263238"/>
<path d="M288.778 206.469C294.819 206.469 299.716 201.572 299.716 195.531C299.716 189.491 294.819 184.594 288.778 184.594C282.737 184.594 277.84 189.491 277.84 195.531C277.84 201.572 282.737 206.469 288.778 206.469Z" fill="#FABB03"/>
<path d="M321.016 241.574H394.408L357.706 191.828L321.016 241.574Z" fill="#C7C7C7"/>
<path d="M292.254 241.802H352.84L322.547 209.423L292.254 241.802Z" fill="white"/>
<path d="M394.386 241.759H262.417V261.668H394.386V241.759Z" fill="#FABB03"/>
<path d="M440.472 188.124C443.893 197.693 439.005 232.798 433.216 240.195C424.625 251.208 407.648 261.342 401.153 264.503C398.329 265.882 385.61 245.56 388.379 243.659C394.321 239.575 413.296 229.843 414.903 227.91C416.511 225.977 425.157 207.403 428.622 196.943C433.27 182.91 438.745 183.269 440.472 188.124Z" fill="#DD6A57"/>
<path d="M401.142 264.557C392.138 269.695 374.227 268.902 371.815 268.185C369.741 267.566 368.666 267.218 368.666 267.218C364.907 266.132 363.897 264.079 363.897 264.079C363.897 264.079 359.194 264.144 358.684 261.299C358.108 258.127 364.821 258.659 368.698 256.693C377.583 252.197 388.955 243.312 391.388 241.759L401.142 264.557Z" fill="#DD6A57"/>
<path d="M381.298 258.518C378.714 259.871 376.039 261.043 373.293 262.026C370.224 262.909 367.095 263.566 363.93 263.992C363.91 263.992 363.891 264 363.876 264.015C363.862 264.029 363.854 264.048 363.854 264.068C363.854 264.089 363.862 264.108 363.876 264.122C363.891 264.136 363.91 264.144 363.93 264.144C370.13 263.963 376.163 262.089 381.374 258.724C381.387 258.707 381.396 258.686 381.399 258.665C381.402 258.643 381.4 258.621 381.392 258.6C381.385 258.58 381.372 258.561 381.356 258.547C381.339 258.533 381.319 258.523 381.298 258.518Z" fill="#263238"/>
<path d="M384.784 263.493C379.657 265.647 374.189 266.876 368.633 267.121C368.633 267.121 368.633 267.121 368.633 267.121C374.275 267.514 379.915 266.333 384.925 263.71C385.045 263.677 384.969 263.417 384.784 263.493Z" fill="#263238"/>
<path d="M379.028 250.6C379.951 249.514 379.419 249.058 376.975 249.514C374.531 249.97 365.255 253.782 364.191 250.437C363.126 247.092 376.302 241.878 380.418 241.444C384.139 241.252 387.87 241.361 391.573 241.769C389.216 243.29 383.622 247.537 379.028 250.6Z" fill="#DD6A57"/>
<path d="M430.903 190.513C436.909 177.892 442.384 181.237 442.851 193.772C443.034 202.448 442.649 211.127 441.699 219.753L419.976 213.518L430.903 190.513Z" fill="#EBEBEB"/>
<path d="M426.808 195.781C426.999 196.459 427.091 197.162 427.08 197.867C427.092 198.568 427 199.267 426.808 199.941C426.621 199.266 426.53 198.567 426.536 197.867C426.53 197.162 426.621 196.46 426.808 195.781Z" fill="white"/>
<path d="M439.875 200.56C439.197 200.752 438.494 200.843 437.789 200.832C437.088 200.843 436.389 200.752 435.715 200.56C436.391 200.375 437.089 200.283 437.789 200.289C438.494 200.282 439.196 200.374 439.875 200.56Z" fill="white"/>
<path d="M436.323 183.16C437.541 183.871 438.555 184.885 439.266 186.103C438.65 185.763 438.09 185.331 437.604 184.822C437.098 184.334 436.666 183.774 436.323 183.16Z" fill="white"/>
<path d="M423.333 208.848C424.551 209.559 425.565 210.573 426.276 211.791C425.66 211.451 425.1 211.019 424.614 210.51C424.108 210.022 423.676 209.462 423.333 208.848Z" fill="white"/>
<path d="M438.397 213.258C439.109 212.039 440.123 211.025 441.341 210.314C440.646 211.545 439.628 212.563 438.397 213.258Z" fill="white"/>
<path d="M428.828 194.369C428.014 196.02 427.156 197.628 426.297 199.29C426.45 198.507 426.569 197.736 426.656 196.943H426.602C426.471 197.563 426.33 198.171 426.211 198.79L426.048 199.681C426.043 199.746 426.043 199.811 426.048 199.876C425.385 201.147 424.723 202.429 424.103 203.721C423.354 205.263 422.648 206.817 421.931 208.381C421.214 209.945 420.552 211.846 419.759 213.421C420.442 213.699 421.152 213.91 421.877 214.05C422.072 214.127 422.17 213.931 421.964 213.909C421.757 213.888 420.15 213.225 420.128 213.214C420.834 211.639 421.725 210.151 422.485 208.609C423.245 207.066 424.006 205.535 424.723 203.971C426.2 200.81 427.492 197.573 428.948 194.402C428.904 194.347 428.839 194.326 428.828 194.369Z" fill="#263238"/>
<path d="M443.818 201.885C443.611 202.537 443.383 203.178 443.22 203.841L443.025 204.655C443.101 202.396 443.177 200.148 443.242 197.888C442.938 201.57 442.612 205.253 442.373 208.946C442.031 212.48 441.868 216.029 441.884 219.579C441.231 219.42 440.566 219.315 439.896 219.264C440.61 219.578 441.363 219.793 442.134 219.905C442.581 216.22 442.839 212.515 442.905 208.804C442.905 207.783 442.981 206.773 443.025 205.763C443.144 205.133 443.318 204.514 443.492 203.895C443.665 203.276 443.785 202.57 443.926 201.907C443.894 201.864 443.828 201.853 443.818 201.885Z" fill="#263238"/>
<path d="M440.852 216.364C437.789 215.278 425.092 211.27 422.29 210.586C422.094 210.531 422.018 210.586 422.214 210.716C428.303 212.975 434.51 214.9 440.809 216.484C440.823 216.485 440.838 216.482 440.851 216.475C440.864 216.467 440.873 216.455 440.878 216.441C440.883 216.427 440.883 216.412 440.879 216.398C440.874 216.384 440.865 216.372 440.852 216.364Z" fill="#263238"/>
<path d="M328.25 184.767C331.248 185.68 330.618 181.618 330.618 181.618C330.618 181.618 332.942 187.244 336.407 187.048C339.872 186.853 338.796 181.911 338.742 181.563C338.862 181.857 341.143 186.994 344.597 186.364C348.051 185.734 346.4 180.933 346.28 180.684C346.487 180.922 349.278 184.094 351.787 183.03C356.132 181.205 349.213 172.907 349.712 169.138L355.795 169.322C355.99 169.322 356.197 169.322 356.392 169.224L356.62 166.118C354.676 165.328 352.799 164.383 351.005 163.294C348.713 162.012 346.497 160.839 344.857 160.807C344.117 160.767 343.384 160.966 342.766 161.375C342.148 161.784 341.678 162.38 341.425 163.077C341.425 163.077 339.644 160.253 336.907 160.655C335.505 160.861 334.593 163.294 334.593 163.294C334.158 162.676 333.56 162.191 332.866 161.892C332.172 161.593 331.409 161.492 330.661 161.6C328.739 161.991 328.109 164.369 328.109 164.369C328.109 164.369 325.676 162.936 323.84 163.978C320.136 166.02 321.82 182.791 328.25 184.767Z" fill="#DD6A57"/>
<path d="M350.494 168.779L355.795 169.268C355.99 169.268 356.196 169.268 356.392 169.17C363.083 167.954 367.254 160.307 362.398 159.753C358.706 159.33 354.73 164.217 351.005 163.24L350.494 168.779Z" fill="#DD6A57"/>
<path d="M334.549 163.142C334.549 163.077 334.441 163.077 334.43 163.142C333.56 169.622 335.04 176.199 338.601 181.683C338.731 181.868 339.035 181.911 338.905 181.683C336.656 177.87 334.669 168.573 334.549 163.142Z" fill="#263238"/>
<path d="M346.671 180.923C343.249 175.492 341.891 169.572 341.381 163.261C341.381 163.175 341.261 163.196 341.24 163.261C340.653 166.422 341.403 170.408 342.239 173.461C342.969 176.321 344.433 178.942 346.486 181.064C346.616 181.118 346.747 181.031 346.671 180.923Z" fill="#263238"/>
</svg>
