<svg width="50" height="50" viewBox="0 0 50 50" fill="none" xmlns="http://www.w3.org/2000/svg">
<path d="M20.8334 4.16675H29.1667C30.2718 4.16675 31.3316 4.60573 32.113 5.38714C32.8944 6.16854 33.3334 7.22835 33.3334 8.33341V12.5001H41.6667C42.7718 12.5001 43.8316 12.9391 44.613 13.7205C45.3944 14.5019 45.8334 15.5617 45.8334 16.6667V39.5834C45.8334 40.6885 45.3944 41.7483 44.613 42.5297C43.8316 43.3111 42.7718 43.7501 41.6667 43.7501H8.3334C6.0209 43.7501 4.16673 41.8751 4.16673 39.5834V16.6667C4.16673 14.3542 6.0209 12.5001 8.3334 12.5001H16.6667V8.33341C16.6667 6.02091 18.5209 4.16675 20.8334 4.16675ZM29.1667 12.5001V8.33341H20.8334V12.5001H29.1667Z" fill="#FABB03"/>
</svg>
