<svg width="559" height="505" viewBox="0 0 559 505" fill="none" xmlns="http://www.w3.org/2000/svg">
<ellipse cx="311.67" cy="476.913" rx="246.481" ry="27.7081" fill="#656565"/>
<ellipse opacity="0.21" rx="134.913" ry="4.6011" transform="matrix(1 0 0 -1 310.975 474.311)" fill="#0E0E0E"/>
<path d="M113.66 52.9712C163.441 111.527 220.078 323.728 242.175 422.509L237.05 422.898C209.033 294.642 197.491 281.586 175.047 276.274C132.624 267.131 130.67 214.818 134.996 189.804C98.0716 158.091 105.387 85.3684 113.66 52.9712Z" fill="#656565"/>
<path opacity="0.5" d="M128.178 100.28C158.637 156.893 186.453 239.049 196.553 273.05C193.045 262.637 186.903 246.327 179.557 227.472C178.766 227.504 177.39 227.259 175.633 226.822C168.02 225.412 156.298 222.469 150.132 218.18C156.647 220.686 168.922 225.152 175.633 226.822C177.122 227.098 178.454 227.315 179.557 227.472C175.412 216.834 170.883 205.386 166.229 193.73C166.108 193.735 165.96 193.729 165.787 193.713C160.235 193.468 148.405 191.784 142.074 186.758C148.731 189.013 162.309 193.392 165.787 193.713C165.939 193.72 166.086 193.726 166.229 193.73C162.271 183.819 158.221 173.758 154.238 163.918C153.067 163.965 151.641 163.861 150.045 163.643C142.286 162.943 130.445 160.927 124.009 156.495C129.973 158.653 142.114 162.558 150.045 163.643C151.643 163.787 153.069 163.876 154.238 163.918C150.629 155.002 147.075 146.267 143.692 137.988C135.007 136.084 117.132 130.727 115.113 124.525C116.387 126.644 123.885 132.304 143.692 137.988C137.789 123.541 132.41 110.484 128.178 100.28Z" fill="white"/>
<path d="M0 227.998C127.054 245.472 203.942 354.589 226.505 406.964L223.269 407.52C202.241 362.532 109.368 344.808 87.9701 334.588C70.8521 326.411 81.894 305.375 89.5546 295.879C66.5308 309.14 56.1946 309.404 45.4564 299.789C36.8658 292.096 11.5727 248.723 0 227.998Z" fill="#656565"/>
<path opacity="0.5" d="M19.8549 239.52C100.766 262.043 179.456 342.82 208.868 380.663C193.433 363.035 178.165 347.339 163.349 333.416C156.33 330.767 135.721 330.995 126.293 331.44C143.215 327.445 158.048 331.093 163.349 333.416C157.19 327.629 151.109 322.147 145.126 316.961C124.297 314.383 106.848 318.751 100.727 321.257C113.602 314.501 135.691 315.578 145.126 316.961C139.754 312.304 134.461 307.884 129.262 303.694C113.058 303.694 99.8122 305.955 95.2148 307.086C103.681 301.481 121.44 302.489 129.262 303.694C113.365 290.883 98.3481 280.218 84.6318 271.462C71.7887 270.086 51.7577 272.036 43.3476 273.183C54.4315 268.92 75.4887 270.259 84.6318 271.462C78.6123 267.62 72.8434 264.145 67.3606 261.018C47.826 257.813 35.867 259.683 32.3294 261.018C41.0807 257.151 59.3299 259.407 67.3606 261.018C46.9433 249.373 30.4946 242.552 19.8549 239.52C19.2505 239.352 18.6461 239.187 18.0415 239.025C18.6257 239.177 19.2303 239.342 19.8549 239.52Z" fill="white"/>
<path d="M459.67 86.5488C353.506 158.502 332.915 290.39 335.89 347.34L339.038 346.405C337.959 296.756 413.369 239.723 428.024 221.08C439.749 206.166 420.53 192.199 409.455 187.079C435.971 188.768 445.355 184.426 450.722 171.048C455.016 160.346 458.476 110.256 459.67 86.5488Z" fill="#656565"/>
<path opacity="0.5" d="M451.451 100.449C443.436 108.695 431.247 122.88 418.223 140.917C415.039 145.925 411.833 151.182 408.647 156.578C409.013 156.216 409.721 155.702 410.702 155.069C419.092 149.026 435.299 138.674 446.718 135.943C436.69 140.915 417.377 150.757 410.702 155.069C409.951 155.609 409.264 156.115 408.647 156.578C392.226 184.391 376.361 215.884 366.941 236.003C379.203 200.49 399.569 166.751 418.223 140.917C430.432 121.712 442.316 106.158 451.451 100.449Z" fill="white"/>
<circle cx="101.939" cy="403.548" r="11.5151" fill="#656565"/>
<circle cx="155.353" cy="419.68" r="6.9807" fill="#656565"/>
<circle cx="83.241" cy="360.268" r="6.9807" fill="#656565"/>
<circle cx="31.7989" cy="328.473" r="2.713" fill="#656565"/>
<circle cx="50.9792" cy="362.981" r="3.63105" fill="#656565"/>
<circle cx="274.482" cy="55.4975" r="11.5151" fill="#656565"/>
<circle cx="257.689" cy="28.3442" r="5.27777" fill="#656565"/>
<circle cx="276.907" cy="2.16974" r="2.16974" fill="#656565"/>
<rect x="205.076" y="93.9128" width="214.695" height="383" rx="19.1692" fill="#333333"/>
<rect x="214.277" y="103.113" width="196.292" height="364.598" rx="10.7347" fill="white"/>
<rect x="262.967" y="93.9121" width="98.5295" height="18.4024" rx="9.2012" fill="#333333"/>
<rect x="294.405" y="103.113" width="36.038" height="3.83383" rx="1.91692" fill="white"/>
<path d="M221.179 129.974L395.29 183.932L388.333 225.885L228.463 171.882L221.179 129.974Z" fill="#292929"/>
<path d="M229.872 183.952L386.519 237.939L379.568 279.889L236.825 225.869L229.872 183.952Z" fill="#292929"/>
<path d="M238.61 237.944L377.424 292.161L370.747 333.891L245.676 279.864L238.61 237.944Z" fill="#292929"/>
<path d="M221.111 129.912H404.041L396.819 171.912H228.439L221.111 129.912Z" fill="#FABB03"/>
<path d="M229.836 183.912H395.316L388.365 225.912H236.787L229.836 183.912Z" fill="#FABB03"/>
<path d="M238.577 237.912H386.554L379.594 279.912H245.637L238.577 237.912Z" fill="#FABB03"/>
<path d="M247.554 291.912H377.598L370.763 333.912H254.388L247.554 291.912Z" fill="#FABB03"/>
<path d="M286.916 156.912H284.5V147.504H281.396V145.488H290.02V147.504H286.916V156.912ZM295.657 148.016C296.638 148.016 297.433 148.4 298.041 149.168C298.649 149.925 298.953 151.045 298.953 152.528C298.953 154.011 298.638 155.141 298.009 155.92C297.379 156.688 296.574 157.072 295.593 157.072C294.963 157.072 294.462 156.96 294.089 156.736C293.715 156.501 293.411 156.24 293.177 155.952H293.049C293.134 156.4 293.177 156.827 293.177 157.232V160.752H290.793V148.176H292.729L293.065 149.312H293.177C293.411 148.96 293.726 148.656 294.121 148.4C294.515 148.144 295.027 148.016 295.657 148.016ZM294.889 149.92C294.27 149.92 293.833 150.112 293.577 150.496C293.331 150.88 293.198 151.467 293.177 152.256V152.512C293.177 153.355 293.299 154.005 293.545 154.464C293.801 154.912 294.259 155.136 294.921 155.136C295.465 155.136 295.865 154.912 296.121 154.464C296.387 154.005 296.521 153.349 296.521 152.496C296.521 150.779 295.977 149.92 294.889 149.92ZM304.502 148C305.675 148 306.571 148.256 307.19 148.768C307.819 149.269 308.134 150.043 308.134 151.088V156.912H306.47L306.006 155.728H305.942C305.568 156.197 305.174 156.539 304.758 156.752C304.342 156.965 303.771 157.072 303.046 157.072C302.267 157.072 301.622 156.848 301.11 156.4C300.598 155.941 300.342 155.243 300.342 154.304C300.342 153.376 300.667 152.693 301.318 152.256C301.968 151.808 302.944 151.563 304.246 151.52L305.766 151.472V151.088C305.766 150.629 305.643 150.293 305.398 150.08C305.163 149.867 304.832 149.76 304.406 149.76C303.979 149.76 303.563 149.824 303.158 149.952C302.752 150.069 302.347 150.219 301.942 150.4L301.158 148.784C301.627 148.539 302.144 148.347 302.71 148.208C303.286 148.069 303.883 148 304.502 148ZM304.838 152.896C304.07 152.917 303.536 153.056 303.238 153.312C302.939 153.568 302.79 153.904 302.79 154.32C302.79 154.683 302.896 154.944 303.11 155.104C303.323 155.253 303.6 155.328 303.942 155.328C304.454 155.328 304.886 155.179 305.238 154.88C305.59 154.571 305.766 154.139 305.766 153.584V152.864L304.838 152.896ZM316.958 148.128C318.473 148.256 319.63 148.72 320.43 149.52C321.23 150.309 321.63 151.317 321.63 152.544C321.63 153.771 321.241 154.784 320.462 155.584C319.683 156.384 318.515 156.848 316.958 156.976V160.752H314.75V156.976C313.246 156.837 312.083 156.368 311.262 155.568C310.451 154.768 310.046 153.76 310.046 152.544C310.046 151.296 310.425 150.277 311.182 149.488C311.95 148.688 313.139 148.235 314.75 148.128V144.752H316.958V148.128ZM314.75 149.92C314.057 150.016 313.507 150.304 313.102 150.784C312.697 151.264 312.494 151.851 312.494 152.544C312.494 153.259 312.691 153.856 313.086 154.336C313.481 154.805 314.035 155.083 314.75 155.168V149.92ZM316.958 155.168C317.673 155.083 318.222 154.805 318.606 154.336C318.99 153.856 319.182 153.259 319.182 152.544C319.182 151.851 318.985 151.269 318.59 150.8C318.195 150.32 317.651 150.037 316.958 149.952V155.168ZM325.909 151.632C325.909 151.813 325.899 152.037 325.877 152.304C325.867 152.571 325.851 152.843 325.829 153.12C325.819 153.397 325.803 153.643 325.781 153.856C325.76 154.069 325.744 154.219 325.733 154.304L329.765 148.176H332.629V156.912H330.325V153.424C330.325 153.136 330.336 152.821 330.357 152.48C330.379 152.128 330.4 151.803 330.421 151.504C330.453 151.195 330.475 150.96 330.485 150.8L326.469 156.912H323.605V148.176H325.909V151.632ZM340.849 148.176H343.473L340.017 152.368L343.777 156.912H341.073L337.505 152.48V156.912H335.121V148.176H337.505V152.416L340.849 148.176Z" fill="white"/>
<path d="M299.056 210.912H296.64V201.504H293.84C293.776 201.995 293.707 202.528 293.632 203.104C293.568 203.68 293.493 204.267 293.408 204.864C293.333 205.451 293.253 206.011 293.168 206.544C293.083 207.067 292.997 207.531 292.912 207.936C292.773 208.597 292.587 209.163 292.352 209.632C292.128 210.101 291.813 210.459 291.408 210.704C291.013 210.949 290.496 211.072 289.856 211.072C289.44 211.072 289.056 211.013 288.704 210.896V208.912C288.843 208.955 288.976 208.992 289.104 209.024C289.243 209.056 289.392 209.072 289.552 209.072C289.861 209.072 290.096 208.912 290.256 208.592C290.427 208.261 290.597 207.648 290.768 206.752C290.832 206.411 290.923 205.877 291.04 205.152C291.157 204.427 291.285 203.579 291.424 202.608C291.573 201.627 291.712 200.587 291.84 199.488H299.056V210.912ZM304.05 205.632C304.05 205.813 304.039 206.037 304.018 206.304C304.007 206.571 303.991 206.843 303.97 207.12C303.959 207.397 303.943 207.643 303.922 207.856C303.9 208.069 303.884 208.219 303.874 208.304L307.906 202.176H310.77V210.912H308.466V207.424C308.466 207.136 308.476 206.821 308.498 206.48C308.519 206.128 308.54 205.803 308.562 205.504C308.594 205.195 308.615 204.96 308.626 204.8L304.61 210.912H301.746V202.176H304.05V205.632ZM321.117 202.176V209.168H322.397V214.048H320.253V210.912H314.381V214.048H312.237V209.168H312.973C313.357 208.581 313.683 207.915 313.949 207.168C314.216 206.411 314.429 205.605 314.589 204.752C314.749 203.899 314.867 203.04 314.941 202.176H321.117ZM316.941 203.968C316.813 204.939 316.637 205.861 316.413 206.736C316.189 207.6 315.875 208.411 315.469 209.168H318.733V203.968H316.941ZM323.886 210.912V202.176H326.27V205.552H327.422C328.756 205.552 329.742 205.765 330.382 206.192C331.022 206.619 331.342 207.264 331.342 208.128C331.342 208.971 331.044 209.648 330.446 210.16C329.849 210.661 328.868 210.912 327.502 210.912H323.886ZM332.606 210.912V202.176H334.99V210.912H332.606ZM327.374 209.264C327.844 209.264 328.222 209.179 328.51 209.008C328.809 208.837 328.958 208.555 328.958 208.16C328.958 207.52 328.42 207.2 327.342 207.2H326.27V209.264H327.374Z" fill="white"/>
<path d="M275.006 264.912V253.488H284.046V264.912H281.63V255.504H277.422V264.912H275.006ZM291.6 256.016C292.581 256.016 293.376 256.4 293.984 257.168C294.592 257.925 294.896 259.045 294.896 260.528C294.896 262.011 294.581 263.141 293.952 263.92C293.322 264.688 292.517 265.072 291.536 265.072C290.906 265.072 290.405 264.96 290.032 264.736C289.658 264.501 289.354 264.24 289.12 263.952H288.992C289.077 264.4 289.12 264.827 289.12 265.232V268.752H286.736V256.176H288.672L289.008 257.312H289.12C289.354 256.96 289.669 256.656 290.064 256.4C290.458 256.144 290.97 256.016 291.6 256.016ZM290.832 257.92C290.213 257.92 289.776 258.112 289.52 258.496C289.274 258.88 289.141 259.467 289.12 260.256V260.512C289.12 261.355 289.242 262.005 289.488 262.464C289.744 262.912 290.202 263.136 290.864 263.136C291.408 263.136 291.808 262.912 292.064 262.464C292.33 262.005 292.464 261.349 292.464 260.496C292.464 258.779 291.92 257.92 290.832 257.92ZM304.797 260.528C304.797 261.979 304.413 263.099 303.645 263.888C302.887 264.677 301.853 265.072 300.541 265.072C299.73 265.072 299.005 264.896 298.365 264.544C297.735 264.192 297.239 263.68 296.877 263.008C296.514 262.325 296.333 261.499 296.333 260.528C296.333 259.077 296.711 257.963 297.469 257.184C298.226 256.405 299.266 256.016 300.589 256.016C301.41 256.016 302.135 256.192 302.765 256.544C303.394 256.896 303.89 257.408 304.253 258.08C304.615 258.741 304.797 259.557 304.797 260.528ZM298.765 260.528C298.765 261.392 298.903 262.048 299.181 262.496C299.469 262.933 299.933 263.152 300.573 263.152C301.202 263.152 301.655 262.933 301.933 262.496C302.221 262.048 302.365 261.392 302.365 260.528C302.365 259.664 302.221 259.019 301.933 258.592C301.655 258.155 301.197 257.936 300.557 257.936C299.927 257.936 299.469 258.155 299.181 258.592C298.903 259.019 298.765 259.664 298.765 260.528ZM314.623 256.176V263.168H315.903V268.048H313.759V264.912H307.887V268.048H305.743V263.168H306.479C306.863 262.581 307.188 261.915 307.455 261.168C307.721 260.411 307.935 259.605 308.095 258.752C308.255 257.899 308.372 257.04 308.447 256.176H314.623ZM310.447 257.968C310.319 258.939 310.143 259.861 309.919 260.736C309.695 261.6 309.38 262.411 308.975 263.168H312.239V257.968H310.447ZM320.976 256C322.149 256 323.045 256.256 323.664 256.768C324.293 257.269 324.608 258.043 324.608 259.088V264.912H322.944L322.48 263.728H322.416C322.042 264.197 321.648 264.539 321.232 264.752C320.816 264.965 320.245 265.072 319.52 265.072C318.741 265.072 318.096 264.848 317.584 264.4C317.072 263.941 316.816 263.243 316.816 262.304C316.816 261.376 317.141 260.693 317.792 260.256C318.442 259.808 319.418 259.563 320.72 259.52L322.24 259.472V259.088C322.24 258.629 322.117 258.293 321.872 258.08C321.637 257.867 321.306 257.76 320.88 257.76C320.453 257.76 320.037 257.824 319.632 257.952C319.226 258.069 318.821 258.219 318.416 258.4L317.632 256.784C318.101 256.539 318.618 256.347 319.184 256.208C319.76 256.069 320.357 256 320.976 256ZM321.312 260.896C320.544 260.917 320.01 261.056 319.712 261.312C319.413 261.568 319.264 261.904 319.264 262.32C319.264 262.683 319.37 262.944 319.584 263.104C319.797 263.253 320.074 263.328 320.416 263.328C320.928 263.328 321.36 263.179 321.712 262.88C322.064 262.571 322.24 262.139 322.24 261.584V260.864L321.312 260.896ZM339.464 256.176L336.248 260.368L339.768 264.912H337.224L333.896 260.48V264.912H331.672V260.48L328.344 264.912H325.8L329.32 260.368L326.104 256.176H328.568L331.672 260.416V256.176H333.896V260.416L337 256.176H339.464ZM343.321 259.632C343.321 259.813 343.31 260.037 343.289 260.304C343.278 260.571 343.262 260.843 343.241 261.12C343.23 261.397 343.214 261.643 343.193 261.856C343.171 262.069 343.155 262.219 343.145 262.304L347.177 256.176H350.041V264.912H347.737V261.424C347.737 261.136 347.747 260.821 347.769 260.48C347.79 260.128 347.811 259.803 347.833 259.504C347.865 259.195 347.886 258.96 347.897 258.8L343.881 264.912H341.017V256.176H343.321V259.632Z" fill="white"/>
<path d="M275.016 318.912V307.488H284.056V318.912H281.64V309.504H277.432V318.912H275.016ZM291.61 310.016C292.591 310.016 293.386 310.4 293.994 311.168C294.602 311.925 294.906 313.045 294.906 314.528C294.906 316.011 294.591 317.141 293.962 317.92C293.332 318.688 292.527 319.072 291.546 319.072C290.916 319.072 290.415 318.96 290.042 318.736C289.668 318.501 289.364 318.24 289.13 317.952H289.002C289.087 318.4 289.13 318.827 289.13 319.232V322.752H286.746V310.176H288.682L289.018 311.312H289.13C289.364 310.96 289.679 310.656 290.074 310.4C290.468 310.144 290.98 310.016 291.61 310.016ZM290.842 311.92C290.223 311.92 289.786 312.112 289.53 312.496C289.284 312.88 289.151 313.467 289.13 314.256V314.512C289.13 315.355 289.252 316.005 289.498 316.464C289.754 316.912 290.212 317.136 290.874 317.136C291.418 317.136 291.818 316.912 292.074 316.464C292.34 316.005 292.474 315.349 292.474 314.496C292.474 312.779 291.93 311.92 290.842 311.92ZM299.175 313.632C299.175 313.813 299.164 314.037 299.143 314.304C299.132 314.571 299.116 314.843 299.095 315.12C299.084 315.397 299.068 315.643 299.047 315.856C299.025 316.069 299.009 316.219 298.999 316.304L303.031 310.176H305.895V318.912H303.591V315.424C303.591 315.136 303.601 314.821 303.623 314.48C303.644 314.128 303.665 313.803 303.687 313.504C303.719 313.195 303.74 312.96 303.751 312.8L299.735 318.912H296.871V310.176H299.175V313.632ZM307.858 313.68C307.858 311.749 308.221 310.251 308.946 309.184C309.682 308.117 310.893 307.435 312.578 307.136C313.144 307.04 313.714 306.96 314.29 306.896C314.877 306.821 315.48 306.747 316.098 306.672L316.37 308.752C316.008 308.795 315.608 308.843 315.17 308.896C314.744 308.949 314.317 309.003 313.89 309.056C313.474 309.099 313.101 309.147 312.77 309.2C312.237 309.285 311.794 309.419 311.442 309.6C311.09 309.771 310.818 310.048 310.626 310.432C310.445 310.816 310.333 311.371 310.29 312.096H310.402C310.53 311.893 310.706 311.691 310.93 311.488C311.165 311.285 311.453 311.115 311.794 310.976C312.136 310.837 312.525 310.768 312.962 310.768C314.008 310.768 314.834 311.088 315.442 311.728C316.061 312.368 316.37 313.323 316.37 314.592C316.37 315.584 316.189 316.411 315.826 317.072C315.464 317.733 314.962 318.235 314.322 318.576C313.682 318.907 312.941 319.072 312.098 319.072C310.808 319.072 309.778 318.608 309.01 317.68C308.242 316.752 307.858 315.419 307.858 313.68ZM312.242 317.136C312.744 317.136 313.149 316.965 313.458 316.624C313.778 316.283 313.938 315.675 313.938 314.8C313.938 314.107 313.821 313.557 313.586 313.152C313.362 312.736 312.968 312.528 312.402 312.528C312.061 312.528 311.741 312.613 311.442 312.784C311.154 312.944 310.909 313.131 310.706 313.344C310.504 313.547 310.365 313.723 310.29 313.872C310.29 314.416 310.349 314.939 310.466 315.44C310.584 315.941 310.781 316.352 311.058 316.672C311.346 316.981 311.741 317.136 312.242 317.136ZM318.34 318.912V310.176H320.724V313.552H321.876C323.209 313.552 324.196 313.765 324.836 314.192C325.476 314.619 325.796 315.264 325.796 316.128C325.796 316.971 325.497 317.648 324.9 318.16C324.302 318.661 323.321 318.912 321.956 318.912H318.34ZM327.06 318.912V310.176H329.444V318.912H327.06ZM321.828 317.264C322.297 317.264 322.676 317.179 322.964 317.008C323.262 316.837 323.412 316.555 323.412 316.16C323.412 315.52 322.873 315.2 321.796 315.2H320.724V317.264H321.828ZM339.757 318.912H337.373V311.968H335.181C335.043 313.675 334.856 315.051 334.621 316.096C334.397 317.131 334.083 317.888 333.677 318.368C333.272 318.837 332.728 319.072 332.045 319.072C331.491 319.072 331.037 318.987 330.685 318.816V316.912C330.931 317.019 331.187 317.072 331.453 317.072C331.645 317.072 331.821 316.976 331.981 316.784C332.141 316.592 332.291 316.245 332.429 315.744C332.579 315.243 332.712 314.544 332.829 313.648C332.947 312.741 333.053 311.584 333.149 310.176H339.757V318.912ZM346.31 313.552C347.654 313.552 348.646 313.765 349.286 314.192C349.936 314.619 350.262 315.264 350.262 316.128C350.262 316.971 349.963 317.648 349.366 318.16C348.768 318.661 347.782 318.912 346.406 318.912H342.246V310.176H344.63V313.552H346.31ZM347.878 316.16C347.878 315.52 347.339 315.2 346.262 315.2H344.63V317.264H346.294C346.763 317.264 347.142 317.179 347.43 317.008C347.728 316.837 347.878 316.555 347.878 316.16Z" fill="white"/>
<rect x="290.144" y="410.344" width="43.5" height="6.5" rx="0.75" fill="#659603" stroke="#4A6D03" stroke-width="0.5"/>
<path d="M291.513 410.427C291.513 412.094 291.513 415.319 291.513 416.723" stroke="#4A6D03" stroke-width="0.5" stroke-linecap="round"/>
<path d="M294.231 410.427C294.231 412.094 294.231 415.319 294.231 416.723" stroke="#4A6D03" stroke-width="0.5" stroke-linecap="round"/>
<path d="M296.948 410.427C296.948 412.094 296.948 415.319 296.948 416.723" stroke="#4A6D03" stroke-width="0.5" stroke-linecap="round"/>
<path d="M299.666 410.427C299.666 412.094 299.666 415.319 299.666 416.723" stroke="#4A6D03" stroke-width="0.5" stroke-linecap="round"/>
<path d="M302.383 410.427C302.383 412.094 302.383 415.319 302.383 416.723" stroke="#4A6D03" stroke-width="0.5" stroke-linecap="round"/>
<path d="M305.101 410.427C305.101 412.094 305.101 415.319 305.101 416.723" stroke="#4A6D03" stroke-width="0.5" stroke-linecap="round"/>
<path d="M307.818 410.427C307.818 412.094 307.818 415.319 307.818 416.723" stroke="#4A6D03" stroke-width="0.5" stroke-linecap="round"/>
<path d="M310.535 410.427C310.535 412.094 310.535 415.319 310.535 416.723" stroke="#4A6D03" stroke-width="0.5" stroke-linecap="round"/>
<path d="M313.253 410.427C313.253 412.094 313.253 415.319 313.253 416.723" stroke="#4A6D03" stroke-width="0.5" stroke-linecap="round"/>
<path d="M315.97 410.427C315.97 412.094 315.97 415.319 315.97 416.723" stroke="#4A6D03" stroke-width="0.5" stroke-linecap="round"/>
<path d="M318.688 410.427C318.688 412.094 318.688 415.319 318.688 416.723" stroke="#4A6D03" stroke-width="0.5" stroke-linecap="round"/>
<path d="M321.405 410.427C321.405 412.094 321.405 415.319 321.405 416.723" stroke="#4A6D03" stroke-width="0.5" stroke-linecap="round"/>
<path d="M324.122 410.427C324.122 412.094 324.122 415.319 324.122 416.723" stroke="#4A6D03" stroke-width="0.5" stroke-linecap="round"/>
<path d="M326.84 410.427C326.84 412.094 326.84 415.319 326.84 416.723" stroke="#4A6D03" stroke-width="0.5" stroke-linecap="round"/>
<path d="M329.557 410.427C329.557 412.094 329.557 415.319 329.557 416.723" stroke="#4A6D03" stroke-width="0.5" stroke-linecap="round"/>
<path d="M332.275 410.427C332.275 412.094 332.275 415.319 332.275 416.723" stroke="#4A6D03" stroke-width="0.5" stroke-linecap="round"/>
<rect x="291.144" y="430.973" width="43.5" height="6.5" rx="0.75" fill="#659603" stroke="#4A6D03" stroke-width="0.5"/>
<path d="M292.513 431.056C292.513 432.722 292.513 435.948 292.513 437.352" stroke="#4A6D03" stroke-width="0.5" stroke-linecap="round"/>
<path d="M295.231 431.056C295.231 432.722 295.231 435.948 295.231 437.352" stroke="#4A6D03" stroke-width="0.5" stroke-linecap="round"/>
<path d="M297.948 431.056C297.948 432.722 297.948 435.948 297.948 437.352" stroke="#4A6D03" stroke-width="0.5" stroke-linecap="round"/>
<path d="M300.666 431.056C300.666 432.722 300.666 435.948 300.666 437.352" stroke="#4A6D03" stroke-width="0.5" stroke-linecap="round"/>
<path d="M303.383 431.056C303.383 432.722 303.383 435.948 303.383 437.352" stroke="#4A6D03" stroke-width="0.5" stroke-linecap="round"/>
<path d="M306.101 431.056C306.101 432.722 306.101 435.948 306.101 437.352" stroke="#4A6D03" stroke-width="0.5" stroke-linecap="round"/>
<path d="M308.818 431.056C308.818 432.722 308.818 435.948 308.818 437.352" stroke="#4A6D03" stroke-width="0.5" stroke-linecap="round"/>
<path d="M311.535 431.056C311.535 432.722 311.535 435.948 311.535 437.352" stroke="#4A6D03" stroke-width="0.5" stroke-linecap="round"/>
<path d="M314.253 431.056C314.253 432.722 314.253 435.948 314.253 437.352" stroke="#4A6D03" stroke-width="0.5" stroke-linecap="round"/>
<path d="M316.97 431.056C316.97 432.722 316.97 435.948 316.97 437.352" stroke="#4A6D03" stroke-width="0.5" stroke-linecap="round"/>
<path d="M319.688 431.056C319.688 432.722 319.688 435.948 319.688 437.352" stroke="#4A6D03" stroke-width="0.5" stroke-linecap="round"/>
<path d="M322.405 431.056C322.405 432.722 322.405 435.948 322.405 437.352" stroke="#4A6D03" stroke-width="0.5" stroke-linecap="round"/>
<path d="M325.122 431.056C325.122 432.722 325.122 435.948 325.122 437.352" stroke="#4A6D03" stroke-width="0.5" stroke-linecap="round"/>
<path d="M327.84 431.056C327.84 432.722 327.84 435.948 327.84 437.352" stroke="#4A6D03" stroke-width="0.5" stroke-linecap="round"/>
<path d="M330.557 431.056C330.557 432.722 330.557 435.948 330.557 437.352" stroke="#4A6D03" stroke-width="0.5" stroke-linecap="round"/>
<path d="M333.275 431.056C333.275 432.722 333.275 435.948 333.275 437.352" stroke="#4A6D03" stroke-width="0.5" stroke-linecap="round"/>
<rect x="289.144" y="403.344" width="43.5" height="6.5" rx="0.75" fill="#659603" stroke="#4A6D03" stroke-width="0.5"/>
<path d="M290.648 403.427C290.648 405.094 290.648 408.319 290.648 409.723" stroke="#4A6D03" stroke-width="0.5" stroke-linecap="round"/>
<path d="M293.366 403.427C293.366 405.094 293.366 408.319 293.366 409.723" stroke="#4A6D03" stroke-width="0.5" stroke-linecap="round"/>
<path d="M296.083 403.427C296.083 405.094 296.083 408.319 296.083 409.723" stroke="#4A6D03" stroke-width="0.5" stroke-linecap="round"/>
<path d="M298.801 403.427C298.801 405.094 298.801 408.319 298.801 409.723" stroke="#4A6D03" stroke-width="0.5" stroke-linecap="round"/>
<path d="M301.518 403.427C301.518 405.094 301.518 408.319 301.518 409.723" stroke="#4A6D03" stroke-width="0.5" stroke-linecap="round"/>
<path d="M304.236 403.427C304.236 405.094 304.236 408.319 304.236 409.723" stroke="#4A6D03" stroke-width="0.5" stroke-linecap="round"/>
<path d="M306.953 403.427C306.953 405.094 306.953 408.319 306.953 409.723" stroke="#4A6D03" stroke-width="0.5" stroke-linecap="round"/>
<path d="M309.67 403.427C309.67 405.094 309.67 408.319 309.67 409.723" stroke="#4A6D03" stroke-width="0.5" stroke-linecap="round"/>
<path d="M312.388 403.427C312.388 405.094 312.388 408.319 312.388 409.723" stroke="#4A6D03" stroke-width="0.5" stroke-linecap="round"/>
<path d="M315.105 403.427C315.105 405.094 315.105 408.319 315.105 409.723" stroke="#4A6D03" stroke-width="0.5" stroke-linecap="round"/>
<path d="M317.823 403.427C317.823 405.094 317.823 408.319 317.823 409.723" stroke="#4A6D03" stroke-width="0.5" stroke-linecap="round"/>
<path d="M320.54 403.427C320.54 405.094 320.54 408.319 320.54 409.723" stroke="#4A6D03" stroke-width="0.5" stroke-linecap="round"/>
<path d="M323.257 403.427C323.257 405.094 323.257 408.319 323.257 409.723" stroke="#4A6D03" stroke-width="0.5" stroke-linecap="round"/>
<path d="M325.975 403.427C325.975 405.094 325.975 408.319 325.975 409.723" stroke="#4A6D03" stroke-width="0.5" stroke-linecap="round"/>
<path d="M328.692 403.427C328.692 405.094 328.692 408.319 328.692 409.723" stroke="#4A6D03" stroke-width="0.5" stroke-linecap="round"/>
<path d="M331.41 403.427C331.41 405.094 331.41 408.319 331.41 409.723" stroke="#4A6D03" stroke-width="0.5" stroke-linecap="round"/>
<rect x="291.144" y="396.344" width="43.5" height="6.5" rx="0.75" fill="#659603" stroke="#4A6D03" stroke-width="0.5"/>
<path d="M292.648 396.427C292.648 398.094 292.648 401.319 292.648 402.723" stroke="#4A6D03" stroke-width="0.5" stroke-linecap="round"/>
<path d="M295.366 396.427C295.366 398.094 295.366 401.319 295.366 402.723" stroke="#4A6D03" stroke-width="0.5" stroke-linecap="round"/>
<path d="M298.083 396.427C298.083 398.094 298.083 401.319 298.083 402.723" stroke="#4A6D03" stroke-width="0.5" stroke-linecap="round"/>
<path d="M300.801 396.427C300.801 398.094 300.801 401.319 300.801 402.723" stroke="#4A6D03" stroke-width="0.5" stroke-linecap="round"/>
<path d="M303.518 396.427C303.518 398.094 303.518 401.319 303.518 402.723" stroke="#4A6D03" stroke-width="0.5" stroke-linecap="round"/>
<path d="M306.236 396.427C306.236 398.094 306.236 401.319 306.236 402.723" stroke="#4A6D03" stroke-width="0.5" stroke-linecap="round"/>
<path d="M308.953 396.427C308.953 398.094 308.953 401.319 308.953 402.723" stroke="#4A6D03" stroke-width="0.5" stroke-linecap="round"/>
<path d="M311.67 396.427C311.67 398.094 311.67 401.319 311.67 402.723" stroke="#4A6D03" stroke-width="0.5" stroke-linecap="round"/>
<path d="M314.388 396.427C314.388 398.094 314.388 401.319 314.388 402.723" stroke="#4A6D03" stroke-width="0.5" stroke-linecap="round"/>
<path d="M317.105 396.427C317.105 398.094 317.105 401.319 317.105 402.723" stroke="#4A6D03" stroke-width="0.5" stroke-linecap="round"/>
<path d="M319.823 396.427C319.823 398.094 319.823 401.319 319.823 402.723" stroke="#4A6D03" stroke-width="0.5" stroke-linecap="round"/>
<path d="M322.54 396.427C322.54 398.094 322.54 401.319 322.54 402.723" stroke="#4A6D03" stroke-width="0.5" stroke-linecap="round"/>
<path d="M325.257 396.427C325.257 398.094 325.257 401.319 325.257 402.723" stroke="#4A6D03" stroke-width="0.5" stroke-linecap="round"/>
<path d="M327.975 396.427C327.975 398.094 327.975 401.319 327.975 402.723" stroke="#4A6D03" stroke-width="0.5" stroke-linecap="round"/>
<path d="M330.692 396.427C330.692 398.094 330.692 401.319 330.692 402.723" stroke="#4A6D03" stroke-width="0.5" stroke-linecap="round"/>
<path d="M333.41 396.427C333.41 398.094 333.41 401.319 333.41 402.723" stroke="#4A6D03" stroke-width="0.5" stroke-linecap="round"/>
<rect x="291.144" y="417.344" width="43.5" height="6.5" rx="0.75" fill="#659603" stroke="#4A6D03" stroke-width="0.5"/>
<path d="M292.648 417.427C292.648 419.094 292.648 422.319 292.648 423.723" stroke="#4A6D03" stroke-width="0.5" stroke-linecap="round"/>
<path d="M295.366 417.427C295.366 419.094 295.366 422.319 295.366 423.723" stroke="#4A6D03" stroke-width="0.5" stroke-linecap="round"/>
<path d="M298.083 417.427C298.083 419.094 298.083 422.319 298.083 423.723" stroke="#4A6D03" stroke-width="0.5" stroke-linecap="round"/>
<path d="M300.801 417.427C300.801 419.094 300.801 422.319 300.801 423.723" stroke="#4A6D03" stroke-width="0.5" stroke-linecap="round"/>
<path d="M303.518 417.427C303.518 419.094 303.518 422.319 303.518 423.723" stroke="#4A6D03" stroke-width="0.5" stroke-linecap="round"/>
<path d="M306.236 417.427C306.236 419.094 306.236 422.319 306.236 423.723" stroke="#4A6D03" stroke-width="0.5" stroke-linecap="round"/>
<path d="M308.953 417.427C308.953 419.094 308.953 422.319 308.953 423.723" stroke="#4A6D03" stroke-width="0.5" stroke-linecap="round"/>
<path d="M311.67 417.427C311.67 419.094 311.67 422.319 311.67 423.723" stroke="#4A6D03" stroke-width="0.5" stroke-linecap="round"/>
<path d="M314.388 417.427C314.388 419.094 314.388 422.319 314.388 423.723" stroke="#4A6D03" stroke-width="0.5" stroke-linecap="round"/>
<path d="M317.105 417.427C317.105 419.094 317.105 422.319 317.105 423.723" stroke="#4A6D03" stroke-width="0.5" stroke-linecap="round"/>
<path d="M319.823 417.427C319.823 419.094 319.823 422.319 319.823 423.723" stroke="#4A6D03" stroke-width="0.5" stroke-linecap="round"/>
<path d="M322.54 417.427C322.54 419.094 322.54 422.319 322.54 423.723" stroke="#4A6D03" stroke-width="0.5" stroke-linecap="round"/>
<path d="M325.257 417.427C325.257 419.094 325.257 422.319 325.257 423.723" stroke="#4A6D03" stroke-width="0.5" stroke-linecap="round"/>
<path d="M327.975 417.427C327.975 419.094 327.975 422.319 327.975 423.723" stroke="#4A6D03" stroke-width="0.5" stroke-linecap="round"/>
<path d="M330.692 417.427C330.692 419.094 330.692 422.319 330.692 423.723" stroke="#4A6D03" stroke-width="0.5" stroke-linecap="round"/>
<path d="M333.41 417.427C333.41 419.094 333.41 422.319 333.41 423.723" stroke="#4A6D03" stroke-width="0.5" stroke-linecap="round"/>
<rect x="291.144" y="437.973" width="43.5" height="6.5" rx="0.75" fill="#659603" stroke="#4A6D03" stroke-width="0.5"/>
<path d="M292.648 438.056C292.648 439.722 292.648 442.948 292.648 444.352" stroke="#4A6D03" stroke-width="0.5" stroke-linecap="round"/>
<path d="M295.366 438.056C295.366 439.722 295.366 442.948 295.366 444.352" stroke="#4A6D03" stroke-width="0.5" stroke-linecap="round"/>
<path d="M298.083 438.056C298.083 439.722 298.083 442.948 298.083 444.352" stroke="#4A6D03" stroke-width="0.5" stroke-linecap="round"/>
<path d="M300.801 438.056C300.801 439.722 300.801 442.948 300.801 444.352" stroke="#4A6D03" stroke-width="0.5" stroke-linecap="round"/>
<path d="M303.518 438.056C303.518 439.722 303.518 442.948 303.518 444.352" stroke="#4A6D03" stroke-width="0.5" stroke-linecap="round"/>
<path d="M306.236 438.056C306.236 439.722 306.236 442.948 306.236 444.352" stroke="#4A6D03" stroke-width="0.5" stroke-linecap="round"/>
<path d="M308.953 438.056C308.953 439.722 308.953 442.948 308.953 444.352" stroke="#4A6D03" stroke-width="0.5" stroke-linecap="round"/>
<path d="M311.67 438.056C311.67 439.722 311.67 442.948 311.67 444.352" stroke="#4A6D03" stroke-width="0.5" stroke-linecap="round"/>
<path d="M314.388 438.056C314.388 439.722 314.388 442.948 314.388 444.352" stroke="#4A6D03" stroke-width="0.5" stroke-linecap="round"/>
<path d="M317.105 438.056C317.105 439.722 317.105 442.948 317.105 444.352" stroke="#4A6D03" stroke-width="0.5" stroke-linecap="round"/>
<path d="M319.823 438.056C319.823 439.722 319.823 442.948 319.823 444.352" stroke="#4A6D03" stroke-width="0.5" stroke-linecap="round"/>
<path d="M322.54 438.056C322.54 439.722 322.54 442.948 322.54 444.352" stroke="#4A6D03" stroke-width="0.5" stroke-linecap="round"/>
<path d="M325.257 438.056C325.257 439.722 325.257 442.948 325.257 444.352" stroke="#4A6D03" stroke-width="0.5" stroke-linecap="round"/>
<path d="M327.975 438.056C327.975 439.722 327.975 442.948 327.975 444.352" stroke="#4A6D03" stroke-width="0.5" stroke-linecap="round"/>
<path d="M330.692 438.056C330.692 439.722 330.692 442.948 330.692 444.352" stroke="#4A6D03" stroke-width="0.5" stroke-linecap="round"/>
<path d="M333.41 438.056C333.41 439.722 333.41 442.948 333.41 444.352" stroke="#4A6D03" stroke-width="0.5" stroke-linecap="round"/>
<rect x="291.144" y="424.344" width="43.5" height="6.5" rx="0.75" fill="#659603" stroke="#4A6D03" stroke-width="0.5"/>
<path d="M292.648 424.427C292.648 426.094 292.648 429.319 292.648 430.723" stroke="#4A6D03" stroke-width="0.5" stroke-linecap="round"/>
<path d="M295.366 424.427C295.366 426.094 295.366 429.319 295.366 430.723" stroke="#4A6D03" stroke-width="0.5" stroke-linecap="round"/>
<path d="M298.083 424.427C298.083 426.094 298.083 429.319 298.083 430.723" stroke="#4A6D03" stroke-width="0.5" stroke-linecap="round"/>
<path d="M300.801 424.427C300.801 426.094 300.801 429.319 300.801 430.723" stroke="#4A6D03" stroke-width="0.5" stroke-linecap="round"/>
<path d="M303.518 424.427C303.518 426.094 303.518 429.319 303.518 430.723" stroke="#4A6D03" stroke-width="0.5" stroke-linecap="round"/>
<path d="M306.236 424.427C306.236 426.094 306.236 429.319 306.236 430.723" stroke="#4A6D03" stroke-width="0.5" stroke-linecap="round"/>
<path d="M308.953 424.427C308.953 426.094 308.953 429.319 308.953 430.723" stroke="#4A6D03" stroke-width="0.5" stroke-linecap="round"/>
<path d="M311.67 424.427C311.67 426.094 311.67 429.319 311.67 430.723" stroke="#4A6D03" stroke-width="0.5" stroke-linecap="round"/>
<path d="M314.388 424.427C314.388 426.094 314.388 429.319 314.388 430.723" stroke="#4A6D03" stroke-width="0.5" stroke-linecap="round"/>
<path d="M317.105 424.427C317.105 426.094 317.105 429.319 317.105 430.723" stroke="#4A6D03" stroke-width="0.5" stroke-linecap="round"/>
<path d="M319.823 424.427C319.823 426.094 319.823 429.319 319.823 430.723" stroke="#4A6D03" stroke-width="0.5" stroke-linecap="round"/>
<path d="M322.54 424.427C322.54 426.094 322.54 429.319 322.54 430.723" stroke="#4A6D03" stroke-width="0.5" stroke-linecap="round"/>
<path d="M325.257 424.427C325.257 426.094 325.257 429.319 325.257 430.723" stroke="#4A6D03" stroke-width="0.5" stroke-linecap="round"/>
<path d="M327.975 424.427C327.975 426.094 327.975 429.319 327.975 430.723" stroke="#4A6D03" stroke-width="0.5" stroke-linecap="round"/>
<path d="M330.692 424.427C330.692 426.094 330.692 429.319 330.692 430.723" stroke="#4A6D03" stroke-width="0.5" stroke-linecap="round"/>
<path d="M333.41 424.427C333.41 426.094 333.41 429.319 333.41 430.723" stroke="#4A6D03" stroke-width="0.5" stroke-linecap="round"/>
<rect x="291.144" y="444.973" width="43.5" height="6.5" rx="0.75" fill="#659603" stroke="#4A6D03" stroke-width="0.5"/>
<path d="M292.648 445.056C292.648 446.722 292.648 449.948 292.648 451.352" stroke="#4A6D03" stroke-width="0.5" stroke-linecap="round"/>
<path d="M295.366 445.056C295.366 446.722 295.366 449.948 295.366 451.352" stroke="#4A6D03" stroke-width="0.5" stroke-linecap="round"/>
<path d="M298.083 445.056C298.083 446.722 298.083 449.948 298.083 451.352" stroke="#4A6D03" stroke-width="0.5" stroke-linecap="round"/>
<path d="M300.801 445.056C300.801 446.722 300.801 449.948 300.801 451.352" stroke="#4A6D03" stroke-width="0.5" stroke-linecap="round"/>
<path d="M303.518 445.056C303.518 446.722 303.518 449.948 303.518 451.352" stroke="#4A6D03" stroke-width="0.5" stroke-linecap="round"/>
<path d="M306.236 445.056C306.236 446.722 306.236 449.948 306.236 451.352" stroke="#4A6D03" stroke-width="0.5" stroke-linecap="round"/>
<path d="M308.953 445.056C308.953 446.722 308.953 449.948 308.953 451.352" stroke="#4A6D03" stroke-width="0.5" stroke-linecap="round"/>
<path d="M311.67 445.056C311.67 446.722 311.67 449.948 311.67 451.352" stroke="#4A6D03" stroke-width="0.5" stroke-linecap="round"/>
<path d="M314.388 445.056C314.388 446.722 314.388 449.948 314.388 451.352" stroke="#4A6D03" stroke-width="0.5" stroke-linecap="round"/>
<path d="M317.105 445.056C317.105 446.722 317.105 449.948 317.105 451.352" stroke="#4A6D03" stroke-width="0.5" stroke-linecap="round"/>
<path d="M319.823 445.056C319.823 446.722 319.823 449.948 319.823 451.352" stroke="#4A6D03" stroke-width="0.5" stroke-linecap="round"/>
<path d="M322.54 445.056C322.54 446.722 322.54 449.948 322.54 451.352" stroke="#4A6D03" stroke-width="0.5" stroke-linecap="round"/>
<path d="M325.257 445.056C325.257 446.722 325.257 449.948 325.257 451.352" stroke="#4A6D03" stroke-width="0.5" stroke-linecap="round"/>
<path d="M327.975 445.056C327.975 446.722 327.975 449.948 327.975 451.352" stroke="#4A6D03" stroke-width="0.5" stroke-linecap="round"/>
<path d="M330.692 445.056C330.692 446.722 330.692 449.948 330.692 451.352" stroke="#4A6D03" stroke-width="0.5" stroke-linecap="round"/>
<path d="M333.41 445.056C333.41 446.722 333.41 449.948 333.41 451.352" stroke="#4A6D03" stroke-width="0.5" stroke-linecap="round"/>
<rect x="341.637" y="430.973" width="43.5" height="6.5" rx="0.75" fill="#659603" stroke="#4A6D03" stroke-width="0.5"/>
<path d="M342.921 431.094C342.921 432.75 342.921 435.956 342.921 437.352" stroke="#4A6D03" stroke-width="0.5" stroke-linecap="round"/>
<path d="M345.638 431.094C345.638 432.75 345.638 435.956 345.638 437.352" stroke="#4A6D03" stroke-width="0.5" stroke-linecap="round"/>
<path d="M348.356 431.094C348.356 432.75 348.356 435.956 348.356 437.352" stroke="#4A6D03" stroke-width="0.5" stroke-linecap="round"/>
<path d="M351.073 431.094C351.073 432.75 351.073 435.956 351.073 437.352" stroke="#4A6D03" stroke-width="0.5" stroke-linecap="round"/>
<path d="M353.791 431.094C353.791 432.75 353.791 435.956 353.791 437.352" stroke="#4A6D03" stroke-width="0.5" stroke-linecap="round"/>
<path d="M356.508 431.094C356.508 432.75 356.508 435.956 356.508 437.352" stroke="#4A6D03" stroke-width="0.5" stroke-linecap="round"/>
<path d="M359.225 431.094C359.225 432.75 359.225 435.956 359.225 437.352" stroke="#4A6D03" stroke-width="0.5" stroke-linecap="round"/>
<path d="M361.943 431.094C361.943 432.75 361.943 435.956 361.943 437.352" stroke="#4A6D03" stroke-width="0.5" stroke-linecap="round"/>
<path d="M364.66 431.094C364.66 432.75 364.66 435.956 364.66 437.352" stroke="#4A6D03" stroke-width="0.5" stroke-linecap="round"/>
<path d="M367.378 431.094C367.378 432.75 367.378 435.956 367.378 437.352" stroke="#4A6D03" stroke-width="0.5" stroke-linecap="round"/>
<path d="M370.095 431.094C370.095 432.75 370.095 435.956 370.095 437.352" stroke="#4A6D03" stroke-width="0.5" stroke-linecap="round"/>
<path d="M372.812 431.094C372.812 432.75 372.812 435.956 372.812 437.352" stroke="#4A6D03" stroke-width="0.5" stroke-linecap="round"/>
<path d="M375.53 431.094C375.53 432.75 375.53 435.956 375.53 437.352" stroke="#4A6D03" stroke-width="0.5" stroke-linecap="round"/>
<path d="M378.247 431.094C378.247 432.75 378.247 435.956 378.247 437.352" stroke="#4A6D03" stroke-width="0.5" stroke-linecap="round"/>
<path d="M380.965 431.094C380.965 432.75 380.965 435.956 380.965 437.352" stroke="#4A6D03" stroke-width="0.5" stroke-linecap="round"/>
<path d="M383.682 431.094C383.682 432.75 383.682 435.956 383.682 437.352" stroke="#4A6D03" stroke-width="0.5" stroke-linecap="round"/>
<rect x="341.637" y="416.936" width="43.5" height="6.5" rx="0.75" fill="#659603" stroke="#4A6D03" stroke-width="0.5"/>
<path d="M342.921 417.147C342.921 418.738 342.921 421.819 342.921 423.16" stroke="#4A6D03" stroke-width="0.5" stroke-linecap="round"/>
<path d="M345.638 417.147C345.638 418.738 345.638 421.819 345.638 423.16" stroke="#4A6D03" stroke-width="0.5" stroke-linecap="round"/>
<path d="M348.356 417.147C348.356 418.738 348.356 421.819 348.356 423.16" stroke="#4A6D03" stroke-width="0.5" stroke-linecap="round"/>
<path d="M351.073 417.147C351.073 418.738 351.073 421.819 351.073 423.16" stroke="#4A6D03" stroke-width="0.5" stroke-linecap="round"/>
<path d="M353.791 417.147C353.791 418.738 353.791 421.819 353.791 423.16" stroke="#4A6D03" stroke-width="0.5" stroke-linecap="round"/>
<path d="M356.508 417.147C356.508 418.738 356.508 421.819 356.508 423.16" stroke="#4A6D03" stroke-width="0.5" stroke-linecap="round"/>
<path d="M359.225 417.147C359.225 418.738 359.225 421.819 359.225 423.16" stroke="#4A6D03" stroke-width="0.5" stroke-linecap="round"/>
<path d="M361.943 417.147C361.943 418.738 361.943 421.819 361.943 423.16" stroke="#4A6D03" stroke-width="0.5" stroke-linecap="round"/>
<path d="M364.66 417.147C364.66 418.738 364.66 421.819 364.66 423.16" stroke="#4A6D03" stroke-width="0.5" stroke-linecap="round"/>
<path d="M367.378 417.147C367.378 418.738 367.378 421.819 367.378 423.16" stroke="#4A6D03" stroke-width="0.5" stroke-linecap="round"/>
<path d="M370.095 417.147C370.095 418.738 370.095 421.819 370.095 423.16" stroke="#4A6D03" stroke-width="0.5" stroke-linecap="round"/>
<path d="M372.812 417.147C372.812 418.738 372.812 421.819 372.812 423.16" stroke="#4A6D03" stroke-width="0.5" stroke-linecap="round"/>
<path d="M375.53 417.147C375.53 418.738 375.53 421.819 375.53 423.16" stroke="#4A6D03" stroke-width="0.5" stroke-linecap="round"/>
<path d="M378.247 417.147C378.247 418.738 378.247 421.819 378.247 423.16" stroke="#4A6D03" stroke-width="0.5" stroke-linecap="round"/>
<path d="M380.965 417.147C380.965 418.738 380.965 421.819 380.965 423.16" stroke="#4A6D03" stroke-width="0.5" stroke-linecap="round"/>
<path d="M383.682 417.147C383.682 418.738 383.682 421.819 383.682 423.16" stroke="#4A6D03" stroke-width="0.5" stroke-linecap="round"/>
<rect x="341.637" y="437.973" width="43.5" height="6.5" rx="0.75" fill="#659603" stroke="#4A6D03" stroke-width="0.5"/>
<path d="M343.142 438.056C343.142 439.722 343.142 442.948 343.142 444.352" stroke="#4A6D03" stroke-width="0.5" stroke-linecap="round"/>
<path d="M345.859 438.056C345.859 439.722 345.859 442.948 345.859 444.352" stroke="#4A6D03" stroke-width="0.5" stroke-linecap="round"/>
<path d="M348.576 438.056C348.576 439.722 348.576 442.948 348.576 444.352" stroke="#4A6D03" stroke-width="0.5" stroke-linecap="round"/>
<path d="M351.294 438.056C351.294 439.722 351.294 442.948 351.294 444.352" stroke="#4A6D03" stroke-width="0.5" stroke-linecap="round"/>
<path d="M354.011 438.056C354.011 439.722 354.011 442.948 354.011 444.352" stroke="#4A6D03" stroke-width="0.5" stroke-linecap="round"/>
<path d="M356.729 438.056C356.729 439.722 356.729 442.948 356.729 444.352" stroke="#4A6D03" stroke-width="0.5" stroke-linecap="round"/>
<path d="M359.446 438.056C359.446 439.722 359.446 442.948 359.446 444.352" stroke="#4A6D03" stroke-width="0.5" stroke-linecap="round"/>
<path d="M362.164 438.056C362.164 439.722 362.164 442.948 362.164 444.352" stroke="#4A6D03" stroke-width="0.5" stroke-linecap="round"/>
<path d="M364.881 438.056C364.881 439.722 364.881 442.948 364.881 444.352" stroke="#4A6D03" stroke-width="0.5" stroke-linecap="round"/>
<path d="M367.598 438.056C367.598 439.722 367.598 442.948 367.598 444.352" stroke="#4A6D03" stroke-width="0.5" stroke-linecap="round"/>
<path d="M370.316 438.056C370.316 439.722 370.316 442.948 370.316 444.352" stroke="#4A6D03" stroke-width="0.5" stroke-linecap="round"/>
<path d="M373.033 438.056C373.033 439.722 373.033 442.948 373.033 444.352" stroke="#4A6D03" stroke-width="0.5" stroke-linecap="round"/>
<path d="M375.751 438.056C375.751 439.722 375.751 442.948 375.751 444.352" stroke="#4A6D03" stroke-width="0.5" stroke-linecap="round"/>
<path d="M378.468 438.056C378.468 439.722 378.468 442.948 378.468 444.352" stroke="#4A6D03" stroke-width="0.5" stroke-linecap="round"/>
<path d="M381.185 438.056C381.185 439.722 381.185 442.948 381.185 444.352" stroke="#4A6D03" stroke-width="0.5" stroke-linecap="round"/>
<path d="M383.903 438.056C383.903 439.722 383.903 442.948 383.903 444.352" stroke="#4A6D03" stroke-width="0.5" stroke-linecap="round"/>
<rect x="341.637" y="423.936" width="43.5" height="6.5" rx="0.75" fill="#659603" stroke="#4A6D03" stroke-width="0.5"/>
<path d="M343.142 424.019C343.142 425.685 343.142 428.911 343.142 430.315" stroke="#4A6D03" stroke-width="0.5" stroke-linecap="round"/>
<path d="M345.859 424.019C345.859 425.685 345.859 428.911 345.859 430.315" stroke="#4A6D03" stroke-width="0.5" stroke-linecap="round"/>
<path d="M348.576 424.019C348.576 425.685 348.576 428.911 348.576 430.315" stroke="#4A6D03" stroke-width="0.5" stroke-linecap="round"/>
<path d="M351.294 424.019C351.294 425.685 351.294 428.911 351.294 430.315" stroke="#4A6D03" stroke-width="0.5" stroke-linecap="round"/>
<path d="M354.011 424.019C354.011 425.685 354.011 428.911 354.011 430.315" stroke="#4A6D03" stroke-width="0.5" stroke-linecap="round"/>
<path d="M356.729 424.019C356.729 425.685 356.729 428.911 356.729 430.315" stroke="#4A6D03" stroke-width="0.5" stroke-linecap="round"/>
<path d="M359.446 424.019C359.446 425.685 359.446 428.911 359.446 430.315" stroke="#4A6D03" stroke-width="0.5" stroke-linecap="round"/>
<path d="M362.164 424.019C362.164 425.685 362.164 428.911 362.164 430.315" stroke="#4A6D03" stroke-width="0.5" stroke-linecap="round"/>
<path d="M364.881 424.019C364.881 425.685 364.881 428.911 364.881 430.315" stroke="#4A6D03" stroke-width="0.5" stroke-linecap="round"/>
<path d="M367.598 424.019C367.598 425.685 367.598 428.911 367.598 430.315" stroke="#4A6D03" stroke-width="0.5" stroke-linecap="round"/>
<path d="M370.316 424.019C370.316 425.685 370.316 428.911 370.316 430.315" stroke="#4A6D03" stroke-width="0.5" stroke-linecap="round"/>
<path d="M373.033 424.019C373.033 425.685 373.033 428.911 373.033 430.315" stroke="#4A6D03" stroke-width="0.5" stroke-linecap="round"/>
<path d="M375.751 424.019C375.751 425.685 375.751 428.911 375.751 430.315" stroke="#4A6D03" stroke-width="0.5" stroke-linecap="round"/>
<path d="M378.468 424.019C378.468 425.685 378.468 428.911 378.468 430.315" stroke="#4A6D03" stroke-width="0.5" stroke-linecap="round"/>
<path d="M381.185 424.019C381.185 425.685 381.185 428.911 381.185 430.315" stroke="#4A6D03" stroke-width="0.5" stroke-linecap="round"/>
<path d="M383.903 424.019C383.903 425.685 383.903 428.911 383.903 430.315" stroke="#4A6D03" stroke-width="0.5" stroke-linecap="round"/>
<rect x="341.637" y="444.973" width="43.5" height="6.5" rx="0.75" fill="#659603" stroke="#4A6D03" stroke-width="0.5"/>
<path d="M343.142 445.056C343.142 446.722 343.142 449.948 343.142 451.352" stroke="#4A6D03" stroke-width="0.5" stroke-linecap="round"/>
<path d="M345.859 445.056C345.859 446.722 345.859 449.948 345.859 451.352" stroke="#4A6D03" stroke-width="0.5" stroke-linecap="round"/>
<path d="M348.576 445.056C348.576 446.722 348.576 449.948 348.576 451.352" stroke="#4A6D03" stroke-width="0.5" stroke-linecap="round"/>
<path d="M351.294 445.056C351.294 446.722 351.294 449.948 351.294 451.352" stroke="#4A6D03" stroke-width="0.5" stroke-linecap="round"/>
<path d="M354.011 445.056C354.011 446.722 354.011 449.948 354.011 451.352" stroke="#4A6D03" stroke-width="0.5" stroke-linecap="round"/>
<path d="M356.729 445.056C356.729 446.722 356.729 449.948 356.729 451.352" stroke="#4A6D03" stroke-width="0.5" stroke-linecap="round"/>
<path d="M359.446 445.056C359.446 446.722 359.446 449.948 359.446 451.352" stroke="#4A6D03" stroke-width="0.5" stroke-linecap="round"/>
<path d="M362.164 445.056C362.164 446.722 362.164 449.948 362.164 451.352" stroke="#4A6D03" stroke-width="0.5" stroke-linecap="round"/>
<path d="M364.881 445.056C364.881 446.722 364.881 449.948 364.881 451.352" stroke="#4A6D03" stroke-width="0.5" stroke-linecap="round"/>
<path d="M367.598 445.056C367.598 446.722 367.598 449.948 367.598 451.352" stroke="#4A6D03" stroke-width="0.5" stroke-linecap="round"/>
<path d="M370.316 445.056C370.316 446.722 370.316 449.948 370.316 451.352" stroke="#4A6D03" stroke-width="0.5" stroke-linecap="round"/>
<path d="M373.033 445.056C373.033 446.722 373.033 449.948 373.033 451.352" stroke="#4A6D03" stroke-width="0.5" stroke-linecap="round"/>
<path d="M375.751 445.056C375.751 446.722 375.751 449.948 375.751 451.352" stroke="#4A6D03" stroke-width="0.5" stroke-linecap="round"/>
<path d="M378.468 445.056C378.468 446.722 378.468 449.948 378.468 451.352" stroke="#4A6D03" stroke-width="0.5" stroke-linecap="round"/>
<path d="M381.185 445.056C381.185 446.722 381.185 449.948 381.185 451.352" stroke="#4A6D03" stroke-width="0.5" stroke-linecap="round"/>
<path d="M383.903 445.056C383.903 446.722 383.903 449.948 383.903 451.352" stroke="#4A6D03" stroke-width="0.5" stroke-linecap="round"/>
<rect x="240.651" y="437.973" width="43.5" height="6.5" rx="0.75" fill="#659603" stroke="#4A6D03" stroke-width="0.5"/>
<path d="M242.155 438.056C242.155 439.722 242.155 442.948 242.155 444.352" stroke="#4A6D03" stroke-width="0.5" stroke-linecap="round"/>
<path d="M244.873 438.056C244.873 439.722 244.873 442.948 244.873 444.352" stroke="#4A6D03" stroke-width="0.5" stroke-linecap="round"/>
<path d="M247.59 438.056C247.59 439.722 247.59 442.948 247.59 444.352" stroke="#4A6D03" stroke-width="0.5" stroke-linecap="round"/>
<path d="M250.308 438.056C250.308 439.722 250.308 442.948 250.308 444.352" stroke="#4A6D03" stroke-width="0.5" stroke-linecap="round"/>
<path d="M253.025 438.056C253.025 439.722 253.025 442.948 253.025 444.352" stroke="#4A6D03" stroke-width="0.5" stroke-linecap="round"/>
<path d="M255.742 438.056C255.742 439.722 255.742 442.948 255.742 444.352" stroke="#4A6D03" stroke-width="0.5" stroke-linecap="round"/>
<path d="M258.46 438.056C258.46 439.722 258.46 442.948 258.46 444.352" stroke="#4A6D03" stroke-width="0.5" stroke-linecap="round"/>
<path d="M261.177 438.056C261.177 439.722 261.177 442.948 261.177 444.352" stroke="#4A6D03" stroke-width="0.5" stroke-linecap="round"/>
<path d="M263.895 438.056C263.895 439.722 263.895 442.948 263.895 444.352" stroke="#4A6D03" stroke-width="0.5" stroke-linecap="round"/>
<path d="M266.612 438.056C266.612 439.722 266.612 442.948 266.612 444.352" stroke="#4A6D03" stroke-width="0.5" stroke-linecap="round"/>
<path d="M269.329 438.056C269.329 439.722 269.329 442.948 269.329 444.352" stroke="#4A6D03" stroke-width="0.5" stroke-linecap="round"/>
<path d="M272.047 438.056C272.047 439.722 272.047 442.948 272.047 444.352" stroke="#4A6D03" stroke-width="0.5" stroke-linecap="round"/>
<path d="M274.764 438.056C274.764 439.722 274.764 442.948 274.764 444.352" stroke="#4A6D03" stroke-width="0.5" stroke-linecap="round"/>
<path d="M277.482 438.056C277.482 439.722 277.482 442.948 277.482 444.352" stroke="#4A6D03" stroke-width="0.5" stroke-linecap="round"/>
<path d="M280.199 438.056C280.199 439.722 280.199 442.948 280.199 444.352" stroke="#4A6D03" stroke-width="0.5" stroke-linecap="round"/>
<path d="M282.916 438.056C282.916 439.722 282.916 442.948 282.916 444.352" stroke="#4A6D03" stroke-width="0.5" stroke-linecap="round"/>
<rect x="240.651" y="430.973" width="43.5" height="6.5" rx="0.75" fill="#659603" stroke="#4A6D03" stroke-width="0.5"/>
<path d="M242.155 431.056C242.155 432.722 242.155 435.948 242.155 437.352" stroke="#4A6D03" stroke-width="0.5" stroke-linecap="round"/>
<path d="M244.873 431.056C244.873 432.722 244.873 435.948 244.873 437.352" stroke="#4A6D03" stroke-width="0.5" stroke-linecap="round"/>
<path d="M247.59 431.056C247.59 432.722 247.59 435.948 247.59 437.352" stroke="#4A6D03" stroke-width="0.5" stroke-linecap="round"/>
<path d="M250.308 431.056C250.308 432.722 250.308 435.948 250.308 437.352" stroke="#4A6D03" stroke-width="0.5" stroke-linecap="round"/>
<path d="M253.025 431.056C253.025 432.722 253.025 435.948 253.025 437.352" stroke="#4A6D03" stroke-width="0.5" stroke-linecap="round"/>
<path d="M255.742 431.056C255.742 432.722 255.742 435.948 255.742 437.352" stroke="#4A6D03" stroke-width="0.5" stroke-linecap="round"/>
<path d="M258.46 431.056C258.46 432.722 258.46 435.948 258.46 437.352" stroke="#4A6D03" stroke-width="0.5" stroke-linecap="round"/>
<path d="M261.177 431.056C261.177 432.722 261.177 435.948 261.177 437.352" stroke="#4A6D03" stroke-width="0.5" stroke-linecap="round"/>
<path d="M263.895 431.056C263.895 432.722 263.895 435.948 263.895 437.352" stroke="#4A6D03" stroke-width="0.5" stroke-linecap="round"/>
<path d="M266.612 431.056C266.612 432.722 266.612 435.948 266.612 437.352" stroke="#4A6D03" stroke-width="0.5" stroke-linecap="round"/>
<path d="M269.329 431.056C269.329 432.722 269.329 435.948 269.329 437.352" stroke="#4A6D03" stroke-width="0.5" stroke-linecap="round"/>
<path d="M272.047 431.056C272.047 432.722 272.047 435.948 272.047 437.352" stroke="#4A6D03" stroke-width="0.5" stroke-linecap="round"/>
<path d="M274.764 431.056C274.764 432.722 274.764 435.948 274.764 437.352" stroke="#4A6D03" stroke-width="0.5" stroke-linecap="round"/>
<path d="M277.482 431.056C277.482 432.722 277.482 435.948 277.482 437.352" stroke="#4A6D03" stroke-width="0.5" stroke-linecap="round"/>
<path d="M280.199 431.056C280.199 432.722 280.199 435.948 280.199 437.352" stroke="#4A6D03" stroke-width="0.5" stroke-linecap="round"/>
<path d="M282.916 431.056C282.916 432.722 282.916 435.948 282.916 437.352" stroke="#4A6D03" stroke-width="0.5" stroke-linecap="round"/>
<rect x="240.651" y="444.973" width="43.5" height="6.5" rx="0.75" fill="#659603" stroke="#4A6D03" stroke-width="0.5"/>
<path d="M242.155 445.056C242.155 446.722 242.155 449.948 242.155 451.352" stroke="#4A6D03" stroke-width="0.5" stroke-linecap="round"/>
<path d="M244.873 445.056C244.873 446.722 244.873 449.948 244.873 451.352" stroke="#4A6D03" stroke-width="0.5" stroke-linecap="round"/>
<path d="M247.59 445.056C247.59 446.722 247.59 449.948 247.59 451.352" stroke="#4A6D03" stroke-width="0.5" stroke-linecap="round"/>
<path d="M250.308 445.056C250.308 446.722 250.308 449.948 250.308 451.352" stroke="#4A6D03" stroke-width="0.5" stroke-linecap="round"/>
<path d="M253.025 445.056C253.025 446.722 253.025 449.948 253.025 451.352" stroke="#4A6D03" stroke-width="0.5" stroke-linecap="round"/>
<path d="M255.742 445.056C255.742 446.722 255.742 449.948 255.742 451.352" stroke="#4A6D03" stroke-width="0.5" stroke-linecap="round"/>
<path d="M258.46 445.056C258.46 446.722 258.46 449.948 258.46 451.352" stroke="#4A6D03" stroke-width="0.5" stroke-linecap="round"/>
<path d="M261.177 445.056C261.177 446.722 261.177 449.948 261.177 451.352" stroke="#4A6D03" stroke-width="0.5" stroke-linecap="round"/>
<path d="M263.895 445.056C263.895 446.722 263.895 449.948 263.895 451.352" stroke="#4A6D03" stroke-width="0.5" stroke-linecap="round"/>
<path d="M266.612 445.056C266.612 446.722 266.612 449.948 266.612 451.352" stroke="#4A6D03" stroke-width="0.5" stroke-linecap="round"/>
<path d="M269.329 445.056C269.329 446.722 269.329 449.948 269.329 451.352" stroke="#4A6D03" stroke-width="0.5" stroke-linecap="round"/>
<path d="M272.047 445.056C272.047 446.722 272.047 449.948 272.047 451.352" stroke="#4A6D03" stroke-width="0.5" stroke-linecap="round"/>
<path d="M274.764 445.056C274.764 446.722 274.764 449.948 274.764 451.352" stroke="#4A6D03" stroke-width="0.5" stroke-linecap="round"/>
<path d="M277.482 445.056C277.482 446.722 277.482 449.948 277.482 451.352" stroke="#4A6D03" stroke-width="0.5" stroke-linecap="round"/>
<path d="M280.199 445.056C280.199 446.722 280.199 449.948 280.199 451.352" stroke="#4A6D03" stroke-width="0.5" stroke-linecap="round"/>
<path d="M282.916 445.056C282.916 446.722 282.916 449.948 282.916 451.352" stroke="#4A6D03" stroke-width="0.5" stroke-linecap="round"/>
<rect x="251.189" y="427.548" width="20.4573" height="3.05684" rx="0.352712" fill="#C19103" stroke="#684E02" stroke-width="0.235142"/>
<path d="M251.897 427.587C251.897 428.371 251.897 429.888 251.897 430.548" stroke="#684E02" stroke-width="0.235142" stroke-linecap="round"/>
<path d="M253.175 427.588C253.175 428.371 253.175 429.888 253.175 430.549" stroke="#684E02" stroke-width="0.235142" stroke-linecap="round"/>
<path d="M254.453 427.588C254.453 428.371 254.453 429.888 254.453 430.549" stroke="#684E02" stroke-width="0.235142" stroke-linecap="round"/>
<path d="M255.731 427.588C255.731 428.371 255.731 429.888 255.731 430.549" stroke="#684E02" stroke-width="0.235142" stroke-linecap="round"/>
<path d="M257.009 427.588C257.009 428.371 257.009 429.888 257.009 430.549" stroke="#684E02" stroke-width="0.235142" stroke-linecap="round"/>
<path d="M258.287 427.588C258.287 428.371 258.287 429.888 258.287 430.549" stroke="#684E02" stroke-width="0.235142" stroke-linecap="round"/>
<path d="M259.565 427.588C259.565 428.371 259.565 429.888 259.565 430.549" stroke="#684E02" stroke-width="0.235142" stroke-linecap="round"/>
<path d="M260.843 427.588C260.843 428.371 260.843 429.888 260.843 430.549" stroke="#684E02" stroke-width="0.235142" stroke-linecap="round"/>
<path d="M262.121 427.588C262.121 428.371 262.121 429.888 262.121 430.549" stroke="#684E02" stroke-width="0.235142" stroke-linecap="round"/>
<path d="M263.398 427.588C263.398 428.371 263.398 429.888 263.398 430.549" stroke="#684E02" stroke-width="0.235142" stroke-linecap="round"/>
<path d="M264.676 427.588C264.676 428.371 264.676 429.888 264.676 430.549" stroke="#684E02" stroke-width="0.235142" stroke-linecap="round"/>
<path d="M265.954 427.588C265.954 428.371 265.954 429.888 265.954 430.549" stroke="#684E02" stroke-width="0.235142" stroke-linecap="round"/>
<path d="M267.232 427.588C267.232 428.371 267.232 429.888 267.232 430.549" stroke="#684E02" stroke-width="0.235142" stroke-linecap="round"/>
<path d="M268.51 427.588C268.51 428.371 268.51 429.888 268.51 430.549" stroke="#684E02" stroke-width="0.235142" stroke-linecap="round"/>
<path d="M269.788 427.588C269.788 428.371 269.788 429.888 269.788 430.549" stroke="#684E02" stroke-width="0.235142" stroke-linecap="round"/>
<path d="M271.066 427.588C271.066 428.371 271.066 429.888 271.066 430.549" stroke="#684E02" stroke-width="0.235142" stroke-linecap="round"/>
<rect x="250.189" y="424.419" width="20.4573" height="3.05684" rx="0.352712" fill="#C19103" stroke="#684E02" stroke-width="0.235142"/>
<path d="M250.897 424.458C250.897 425.242 250.897 426.759 250.897 427.419" stroke="#684E02" stroke-width="0.235142" stroke-linecap="round"/>
<path d="M252.175 424.459C252.175 425.243 252.175 426.759 252.175 427.42" stroke="#684E02" stroke-width="0.235142" stroke-linecap="round"/>
<path d="M253.453 424.459C253.453 425.243 253.453 426.759 253.453 427.42" stroke="#684E02" stroke-width="0.235142" stroke-linecap="round"/>
<path d="M254.731 424.459C254.731 425.243 254.731 426.759 254.731 427.42" stroke="#684E02" stroke-width="0.235142" stroke-linecap="round"/>
<path d="M256.009 424.459C256.009 425.243 256.009 426.759 256.009 427.42" stroke="#684E02" stroke-width="0.235142" stroke-linecap="round"/>
<path d="M257.287 424.459C257.287 425.243 257.287 426.759 257.287 427.42" stroke="#684E02" stroke-width="0.235142" stroke-linecap="round"/>
<path d="M258.565 424.459C258.565 425.243 258.565 426.759 258.565 427.42" stroke="#684E02" stroke-width="0.235142" stroke-linecap="round"/>
<path d="M259.843 424.459C259.843 425.243 259.843 426.759 259.843 427.42" stroke="#684E02" stroke-width="0.235142" stroke-linecap="round"/>
<path d="M261.121 424.459C261.121 425.243 261.121 426.759 261.121 427.42" stroke="#684E02" stroke-width="0.235142" stroke-linecap="round"/>
<path d="M262.398 424.459C262.398 425.243 262.398 426.759 262.398 427.42" stroke="#684E02" stroke-width="0.235142" stroke-linecap="round"/>
<path d="M263.676 424.459C263.676 425.243 263.676 426.759 263.676 427.42" stroke="#684E02" stroke-width="0.235142" stroke-linecap="round"/>
<path d="M264.954 424.459C264.954 425.243 264.954 426.759 264.954 427.42" stroke="#684E02" stroke-width="0.235142" stroke-linecap="round"/>
<path d="M266.232 424.459C266.232 425.243 266.232 426.759 266.232 427.42" stroke="#684E02" stroke-width="0.235142" stroke-linecap="round"/>
<path d="M267.51 424.459C267.51 425.243 267.51 426.759 267.51 427.42" stroke="#684E02" stroke-width="0.235142" stroke-linecap="round"/>
<path d="M268.788 424.459C268.788 425.243 268.788 426.759 268.788 427.42" stroke="#684E02" stroke-width="0.235142" stroke-linecap="round"/>
<path d="M270.066 424.459C270.066 425.243 270.066 426.759 270.066 427.42" stroke="#684E02" stroke-width="0.235142" stroke-linecap="round"/>
<rect x="250.189" y="421.29" width="20.4573" height="3.05684" rx="0.352712" fill="#C19103" stroke="#684E02" stroke-width="0.235142"/>
<path d="M250.897 421.329C250.897 422.113 250.897 423.63 250.897 424.291" stroke="#684E02" stroke-width="0.235142" stroke-linecap="round"/>
<path d="M252.175 421.33C252.175 422.114 252.175 423.63 252.175 424.291" stroke="#684E02" stroke-width="0.235142" stroke-linecap="round"/>
<path d="M253.453 421.33C253.453 422.114 253.453 423.63 253.453 424.291" stroke="#684E02" stroke-width="0.235142" stroke-linecap="round"/>
<path d="M254.731 421.33C254.731 422.114 254.731 423.63 254.731 424.291" stroke="#684E02" stroke-width="0.235142" stroke-linecap="round"/>
<path d="M256.009 421.33C256.009 422.114 256.009 423.63 256.009 424.291" stroke="#684E02" stroke-width="0.235142" stroke-linecap="round"/>
<path d="M257.287 421.33C257.287 422.114 257.287 423.63 257.287 424.291" stroke="#684E02" stroke-width="0.235142" stroke-linecap="round"/>
<path d="M258.565 421.33C258.565 422.114 258.565 423.63 258.565 424.291" stroke="#684E02" stroke-width="0.235142" stroke-linecap="round"/>
<path d="M259.843 421.33C259.843 422.114 259.843 423.63 259.843 424.291" stroke="#684E02" stroke-width="0.235142" stroke-linecap="round"/>
<path d="M261.121 421.33C261.121 422.114 261.121 423.63 261.121 424.291" stroke="#684E02" stroke-width="0.235142" stroke-linecap="round"/>
<path d="M262.398 421.33C262.398 422.114 262.398 423.63 262.398 424.291" stroke="#684E02" stroke-width="0.235142" stroke-linecap="round"/>
<path d="M263.676 421.33C263.676 422.114 263.676 423.63 263.676 424.291" stroke="#684E02" stroke-width="0.235142" stroke-linecap="round"/>
<path d="M264.954 421.33C264.954 422.114 264.954 423.63 264.954 424.291" stroke="#684E02" stroke-width="0.235142" stroke-linecap="round"/>
<path d="M266.232 421.33C266.232 422.114 266.232 423.63 266.232 424.291" stroke="#684E02" stroke-width="0.235142" stroke-linecap="round"/>
<path d="M267.51 421.33C267.51 422.114 267.51 423.63 267.51 424.291" stroke="#684E02" stroke-width="0.235142" stroke-linecap="round"/>
<path d="M268.788 421.33C268.788 422.114 268.788 423.63 268.788 424.291" stroke="#684E02" stroke-width="0.235142" stroke-linecap="round"/>
<path d="M270.066 421.33C270.066 422.114 270.066 423.63 270.066 424.291" stroke="#684E02" stroke-width="0.235142" stroke-linecap="round"/>
<rect x="252.189" y="418.162" width="20.4573" height="3.05684" rx="0.352712" fill="#C19103" stroke="#684E02" stroke-width="0.235142"/>
<path d="M252.897 418.201C252.897 418.984 252.897 420.501 252.897 421.162" stroke="#684E02" stroke-width="0.235142" stroke-linecap="round"/>
<path d="M254.175 418.201C254.175 418.985 254.175 420.502 254.175 421.162" stroke="#684E02" stroke-width="0.235142" stroke-linecap="round"/>
<path d="M255.453 418.201C255.453 418.985 255.453 420.502 255.453 421.162" stroke="#684E02" stroke-width="0.235142" stroke-linecap="round"/>
<path d="M256.731 418.201C256.731 418.985 256.731 420.502 256.731 421.162" stroke="#684E02" stroke-width="0.235142" stroke-linecap="round"/>
<path d="M258.009 418.201C258.009 418.985 258.009 420.502 258.009 421.162" stroke="#684E02" stroke-width="0.235142" stroke-linecap="round"/>
<path d="M259.287 418.201C259.287 418.985 259.287 420.502 259.287 421.162" stroke="#684E02" stroke-width="0.235142" stroke-linecap="round"/>
<path d="M260.565 418.201C260.565 418.985 260.565 420.502 260.565 421.162" stroke="#684E02" stroke-width="0.235142" stroke-linecap="round"/>
<path d="M261.843 418.201C261.843 418.985 261.843 420.502 261.843 421.162" stroke="#684E02" stroke-width="0.235142" stroke-linecap="round"/>
<path d="M263.121 418.201C263.121 418.985 263.121 420.502 263.121 421.162" stroke="#684E02" stroke-width="0.235142" stroke-linecap="round"/>
<path d="M264.398 418.201C264.398 418.985 264.398 420.502 264.398 421.162" stroke="#684E02" stroke-width="0.235142" stroke-linecap="round"/>
<path d="M265.676 418.201C265.676 418.985 265.676 420.502 265.676 421.162" stroke="#684E02" stroke-width="0.235142" stroke-linecap="round"/>
<path d="M266.954 418.201C266.954 418.985 266.954 420.502 266.954 421.162" stroke="#684E02" stroke-width="0.235142" stroke-linecap="round"/>
<path d="M268.232 418.201C268.232 418.985 268.232 420.502 268.232 421.162" stroke="#684E02" stroke-width="0.235142" stroke-linecap="round"/>
<path d="M269.51 418.201C269.51 418.985 269.51 420.502 269.51 421.162" stroke="#684E02" stroke-width="0.235142" stroke-linecap="round"/>
<path d="M270.788 418.201C270.788 418.985 270.788 420.502 270.788 421.162" stroke="#684E02" stroke-width="0.235142" stroke-linecap="round"/>
<path d="M272.066 418.201C272.066 418.985 272.066 420.502 272.066 421.162" stroke="#684E02" stroke-width="0.235142" stroke-linecap="round"/>
<rect x="251.189" y="415.026" width="20.4573" height="3.05684" rx="0.352712" fill="#C19103" stroke="#684E02" stroke-width="0.235142"/>
<path d="M251.897 415.065C251.897 415.849 251.897 417.365 251.897 418.026" stroke="#684E02" stroke-width="0.235142" stroke-linecap="round"/>
<path d="M253.175 415.065C253.175 415.849 253.175 417.366 253.175 418.026" stroke="#684E02" stroke-width="0.235142" stroke-linecap="round"/>
<path d="M254.453 415.065C254.453 415.849 254.453 417.366 254.453 418.026" stroke="#684E02" stroke-width="0.235142" stroke-linecap="round"/>
<path d="M255.731 415.065C255.731 415.849 255.731 417.366 255.731 418.026" stroke="#684E02" stroke-width="0.235142" stroke-linecap="round"/>
<path d="M257.009 415.065C257.009 415.849 257.009 417.366 257.009 418.026" stroke="#684E02" stroke-width="0.235142" stroke-linecap="round"/>
<path d="M258.287 415.065C258.287 415.849 258.287 417.366 258.287 418.026" stroke="#684E02" stroke-width="0.235142" stroke-linecap="round"/>
<path d="M259.565 415.065C259.565 415.849 259.565 417.366 259.565 418.026" stroke="#684E02" stroke-width="0.235142" stroke-linecap="round"/>
<path d="M260.843 415.065C260.843 415.849 260.843 417.366 260.843 418.026" stroke="#684E02" stroke-width="0.235142" stroke-linecap="round"/>
<path d="M262.121 415.065C262.121 415.849 262.121 417.366 262.121 418.026" stroke="#684E02" stroke-width="0.235142" stroke-linecap="round"/>
<path d="M263.398 415.065C263.398 415.849 263.398 417.366 263.398 418.026" stroke="#684E02" stroke-width="0.235142" stroke-linecap="round"/>
<path d="M264.676 415.065C264.676 415.849 264.676 417.366 264.676 418.026" stroke="#684E02" stroke-width="0.235142" stroke-linecap="round"/>
<path d="M265.954 415.065C265.954 415.849 265.954 417.366 265.954 418.026" stroke="#684E02" stroke-width="0.235142" stroke-linecap="round"/>
<path d="M267.232 415.065C267.232 415.849 267.232 417.366 267.232 418.026" stroke="#684E02" stroke-width="0.235142" stroke-linecap="round"/>
<path d="M268.51 415.065C268.51 415.849 268.51 417.366 268.51 418.026" stroke="#684E02" stroke-width="0.235142" stroke-linecap="round"/>
<path d="M269.788 415.065C269.788 415.849 269.788 417.366 269.788 418.026" stroke="#684E02" stroke-width="0.235142" stroke-linecap="round"/>
<path d="M271.066 415.065C271.066 415.849 271.066 417.366 271.066 418.026" stroke="#684E02" stroke-width="0.235142" stroke-linecap="round"/>
<rect x="345.398" y="410.217" width="20.4573" height="3.05684" rx="0.352712" fill="#C19103" stroke="#684E02" stroke-width="0.235142"/>
<path d="M346.106 410.256C346.106 411.04 346.106 412.557 346.106 413.217" stroke="#684E02" stroke-width="0.235142" stroke-linecap="round"/>
<path d="M347.384 410.257C347.384 411.04 347.384 412.557 347.384 413.218" stroke="#684E02" stroke-width="0.235142" stroke-linecap="round"/>
<path d="M348.662 410.257C348.662 411.04 348.662 412.557 348.662 413.218" stroke="#684E02" stroke-width="0.235142" stroke-linecap="round"/>
<path d="M349.94 410.257C349.94 411.04 349.94 412.557 349.94 413.218" stroke="#684E02" stroke-width="0.235142" stroke-linecap="round"/>
<path d="M351.218 410.257C351.218 411.04 351.218 412.557 351.218 413.218" stroke="#684E02" stroke-width="0.235142" stroke-linecap="round"/>
<path d="M352.496 410.257C352.496 411.04 352.496 412.557 352.496 413.218" stroke="#684E02" stroke-width="0.235142" stroke-linecap="round"/>
<path d="M353.774 410.257C353.774 411.04 353.774 412.557 353.774 413.218" stroke="#684E02" stroke-width="0.235142" stroke-linecap="round"/>
<path d="M355.052 410.257C355.052 411.04 355.052 412.557 355.052 413.218" stroke="#684E02" stroke-width="0.235142" stroke-linecap="round"/>
<path d="M356.329 410.257C356.329 411.04 356.329 412.557 356.329 413.218" stroke="#684E02" stroke-width="0.235142" stroke-linecap="round"/>
<path d="M357.607 410.257C357.607 411.04 357.607 412.557 357.607 413.218" stroke="#684E02" stroke-width="0.235142" stroke-linecap="round"/>
<path d="M358.885 410.257C358.885 411.04 358.885 412.557 358.885 413.218" stroke="#684E02" stroke-width="0.235142" stroke-linecap="round"/>
<path d="M360.163 410.257C360.163 411.04 360.163 412.557 360.163 413.218" stroke="#684E02" stroke-width="0.235142" stroke-linecap="round"/>
<path d="M361.441 410.257C361.441 411.04 361.441 412.557 361.441 413.218" stroke="#684E02" stroke-width="0.235142" stroke-linecap="round"/>
<path d="M362.719 410.257C362.719 411.04 362.719 412.557 362.719 413.218" stroke="#684E02" stroke-width="0.235142" stroke-linecap="round"/>
<path d="M363.997 410.257C363.997 411.04 363.997 412.557 363.997 413.218" stroke="#684E02" stroke-width="0.235142" stroke-linecap="round"/>
<path d="M365.275 410.257C365.275 411.04 365.275 412.557 365.275 413.218" stroke="#684E02" stroke-width="0.235142" stroke-linecap="round"/>
<rect x="343.997" y="406.926" width="20.4573" height="3.05684" rx="0.352712" fill="#C19103" stroke="#684E02" stroke-width="0.235142"/>
<path d="M344.705 406.965C344.705 407.749 344.705 409.266 344.705 409.926" stroke="#684E02" stroke-width="0.235142" stroke-linecap="round"/>
<path d="M345.983 406.966C345.983 407.749 345.983 409.266 345.983 409.927" stroke="#684E02" stroke-width="0.235142" stroke-linecap="round"/>
<path d="M347.261 406.966C347.261 407.749 347.261 409.266 347.261 409.927" stroke="#684E02" stroke-width="0.235142" stroke-linecap="round"/>
<path d="M348.539 406.966C348.539 407.749 348.539 409.266 348.539 409.927" stroke="#684E02" stroke-width="0.235142" stroke-linecap="round"/>
<path d="M349.817 406.966C349.817 407.749 349.817 409.266 349.817 409.927" stroke="#684E02" stroke-width="0.235142" stroke-linecap="round"/>
<path d="M351.095 406.966C351.095 407.749 351.095 409.266 351.095 409.927" stroke="#684E02" stroke-width="0.235142" stroke-linecap="round"/>
<path d="M352.373 406.966C352.373 407.749 352.373 409.266 352.373 409.927" stroke="#684E02" stroke-width="0.235142" stroke-linecap="round"/>
<path d="M353.651 406.966C353.651 407.749 353.651 409.266 353.651 409.927" stroke="#684E02" stroke-width="0.235142" stroke-linecap="round"/>
<path d="M354.929 406.966C354.929 407.749 354.929 409.266 354.929 409.927" stroke="#684E02" stroke-width="0.235142" stroke-linecap="round"/>
<path d="M356.207 406.966C356.207 407.749 356.207 409.266 356.207 409.927" stroke="#684E02" stroke-width="0.235142" stroke-linecap="round"/>
<path d="M357.484 406.966C357.484 407.749 357.484 409.266 357.484 409.927" stroke="#684E02" stroke-width="0.235142" stroke-linecap="round"/>
<path d="M358.762 406.966C358.762 407.749 358.762 409.266 358.762 409.927" stroke="#684E02" stroke-width="0.235142" stroke-linecap="round"/>
<path d="M360.04 406.966C360.04 407.749 360.04 409.266 360.04 409.927" stroke="#684E02" stroke-width="0.235142" stroke-linecap="round"/>
<path d="M361.318 406.966C361.318 407.749 361.318 409.266 361.318 409.927" stroke="#684E02" stroke-width="0.235142" stroke-linecap="round"/>
<path d="M362.596 406.966C362.596 407.749 362.596 409.266 362.596 409.927" stroke="#684E02" stroke-width="0.235142" stroke-linecap="round"/>
<path d="M363.874 406.966C363.874 407.749 363.874 409.266 363.874 409.927" stroke="#684E02" stroke-width="0.235142" stroke-linecap="round"/>
<rect x="344.573" y="413.51" width="20.4573" height="3.05684" rx="0.352712" fill="#C19103" stroke="#684E02" stroke-width="0.235142"/>
<path d="M345.281 413.549C345.281 414.333 345.281 415.85 345.281 416.51" stroke="#684E02" stroke-width="0.235142" stroke-linecap="round"/>
<path d="M346.559 413.55C346.559 414.333 346.559 415.85 346.559 416.511" stroke="#684E02" stroke-width="0.235142" stroke-linecap="round"/>
<path d="M347.837 413.55C347.837 414.333 347.837 415.85 347.837 416.511" stroke="#684E02" stroke-width="0.235142" stroke-linecap="round"/>
<path d="M349.115 413.55C349.115 414.333 349.115 415.85 349.115 416.511" stroke="#684E02" stroke-width="0.235142" stroke-linecap="round"/>
<path d="M350.392 413.55C350.392 414.333 350.392 415.85 350.392 416.511" stroke="#684E02" stroke-width="0.235142" stroke-linecap="round"/>
<path d="M351.67 413.55C351.67 414.333 351.67 415.85 351.67 416.511" stroke="#684E02" stroke-width="0.235142" stroke-linecap="round"/>
<path d="M352.948 413.55C352.948 414.333 352.948 415.85 352.948 416.511" stroke="#684E02" stroke-width="0.235142" stroke-linecap="round"/>
<path d="M354.226 413.55C354.226 414.333 354.226 415.85 354.226 416.511" stroke="#684E02" stroke-width="0.235142" stroke-linecap="round"/>
<path d="M355.504 413.55C355.504 414.333 355.504 415.85 355.504 416.511" stroke="#684E02" stroke-width="0.235142" stroke-linecap="round"/>
<path d="M356.782 413.55C356.782 414.333 356.782 415.85 356.782 416.511" stroke="#684E02" stroke-width="0.235142" stroke-linecap="round"/>
<path d="M358.06 413.55C358.06 414.333 358.06 415.85 358.06 416.511" stroke="#684E02" stroke-width="0.235142" stroke-linecap="round"/>
<path d="M359.338 413.55C359.338 414.333 359.338 415.85 359.338 416.511" stroke="#684E02" stroke-width="0.235142" stroke-linecap="round"/>
<path d="M360.616 413.55C360.616 414.333 360.616 415.85 360.616 416.511" stroke="#684E02" stroke-width="0.235142" stroke-linecap="round"/>
<path d="M361.894 413.55C361.894 414.333 361.894 415.85 361.894 416.511" stroke="#684E02" stroke-width="0.235142" stroke-linecap="round"/>
<path d="M363.172 413.55C363.172 414.333 363.172 415.85 363.172 416.511" stroke="#684E02" stroke-width="0.235142" stroke-linecap="round"/>
<path d="M364.45 413.55C364.45 414.333 364.45 415.85 364.45 416.511" stroke="#684E02" stroke-width="0.235142" stroke-linecap="round"/>
<rect x="297.665" y="392.918" width="20.4573" height="3.05684" rx="0.352712" fill="#C19103" stroke="#684E02" stroke-width="0.235142"/>
<path d="M298.372 392.957C298.372 393.741 298.372 395.258 298.372 395.918" stroke="#684E02" stroke-width="0.235142" stroke-linecap="round"/>
<path d="M299.65 392.958C299.65 393.742 299.65 395.258 299.65 395.919" stroke="#684E02" stroke-width="0.235142" stroke-linecap="round"/>
<path d="M300.928 392.958C300.928 393.742 300.928 395.258 300.928 395.919" stroke="#684E02" stroke-width="0.235142" stroke-linecap="round"/>
<path d="M302.206 392.958C302.206 393.742 302.206 395.258 302.206 395.919" stroke="#684E02" stroke-width="0.235142" stroke-linecap="round"/>
<path d="M303.484 392.958C303.484 393.742 303.484 395.258 303.484 395.919" stroke="#684E02" stroke-width="0.235142" stroke-linecap="round"/>
<path d="M304.762 392.958C304.762 393.742 304.762 395.258 304.762 395.919" stroke="#684E02" stroke-width="0.235142" stroke-linecap="round"/>
<path d="M306.04 392.958C306.04 393.742 306.04 395.258 306.04 395.919" stroke="#684E02" stroke-width="0.235142" stroke-linecap="round"/>
<path d="M307.318 392.958C307.318 393.742 307.318 395.258 307.318 395.919" stroke="#684E02" stroke-width="0.235142" stroke-linecap="round"/>
<path d="M308.596 392.958C308.596 393.742 308.596 395.258 308.596 395.919" stroke="#684E02" stroke-width="0.235142" stroke-linecap="round"/>
<path d="M309.874 392.958C309.874 393.742 309.874 395.258 309.874 395.919" stroke="#684E02" stroke-width="0.235142" stroke-linecap="round"/>
<path d="M311.152 392.958C311.152 393.742 311.152 395.258 311.152 395.919" stroke="#684E02" stroke-width="0.235142" stroke-linecap="round"/>
<path d="M312.43 392.958C312.43 393.742 312.43 395.258 312.43 395.919" stroke="#684E02" stroke-width="0.235142" stroke-linecap="round"/>
<path d="M313.708 392.958C313.708 393.742 313.708 395.258 313.708 395.919" stroke="#684E02" stroke-width="0.235142" stroke-linecap="round"/>
<path d="M314.986 392.958C314.986 393.742 314.986 395.258 314.986 395.919" stroke="#684E02" stroke-width="0.235142" stroke-linecap="round"/>
<path d="M316.264 392.958C316.264 393.742 316.264 395.258 316.264 395.919" stroke="#684E02" stroke-width="0.235142" stroke-linecap="round"/>
<path d="M317.542 392.958C317.542 393.742 317.542 395.258 317.542 395.919" stroke="#684E02" stroke-width="0.235142" stroke-linecap="round"/>
<circle cx="311.535" cy="366.611" r="18.7715" fill="#659603" stroke="#4A6D03"/>
<path d="M320.295 370.608C320.295 372.21 319.716 373.6 318.558 374.778C317.419 375.936 315.759 376.68 313.577 377.008V380.222H310.102V377.124C308.654 377.027 307.283 376.786 305.99 376.4C304.696 375.994 303.625 375.502 302.775 374.923L304.658 370.695C305.565 371.293 306.617 371.776 307.814 372.143C309.011 372.51 310.189 372.693 311.347 372.693C313.548 372.693 314.648 372.143 314.648 371.042C314.648 370.463 314.33 370.038 313.693 369.768C313.075 369.478 312.071 369.179 310.681 368.87C309.156 368.542 307.882 368.195 306.858 367.828C305.835 367.442 304.957 366.834 304.223 366.003C303.49 365.173 303.123 364.053 303.123 362.644C303.123 360.984 303.721 359.565 304.918 358.387C306.115 357.19 307.843 356.457 310.102 356.186V353.001H313.577V356.128C314.677 356.225 315.73 356.418 316.734 356.708C317.757 356.997 318.664 357.374 319.456 357.837L317.689 362.094C315.759 361.051 313.886 360.53 312.071 360.53C310.932 360.53 310.102 360.704 309.581 361.051C309.059 361.38 308.799 361.814 308.799 362.355C308.799 362.895 309.108 363.301 309.725 363.571C310.343 363.841 311.337 364.121 312.708 364.411C314.253 364.739 315.527 365.096 316.531 365.482C317.554 365.849 318.432 366.447 319.166 367.278C319.919 368.088 320.295 369.199 320.295 370.608Z" fill="#FABB03"/>
<path d="M284.677 364.055H261.603M289.366 348.985L276.729 341.43M339.117 364.055L371.226 362.429M335.73 379.126L352.362 390.369M293.273 382.894L281.534 393.572M332.605 346.563L340.795 339.65" stroke="#FABB03" stroke-width="2" stroke-linecap="round"/>
<path d="M390.826 450.759C387.212 450.81 238.536 450.508 238.536 450.508C235.351 450.508 226.81 451.188 226.81 452.669L398.855 452.938C398.855 452.938 394.44 450.709 390.826 450.759Z" fill="#9B9B9B"/>
</svg>
