<svg width="28" height="22" viewBox="0 0 28 22" fill="none" xmlns="http://www.w3.org/2000/svg">
<path d="M2.33333 0H25.6667C26.8917 0 28 1.11654 28 2.35062V18.8049C28 20.039 26.8917 21.1556 25.6667 21.1556H2.33333C1.10833 21.1556 0 20.039 0 18.8049V2.35062C0 1.11654 1.10833 0 2.33333 0ZM16.3333 3.52593V4.70123H25.6667V3.52593H16.3333ZM16.3333 5.87654V7.05185H25.0833H25.6667V5.87654H16.3333ZM16.3333 8.22716V9.40247H24.5V8.22716H16.3333ZM9.33333 12.8226C7 12.8226 2.33333 14.1037 2.33333 16.4543V17.6296H16.3333V16.4543C16.3333 14.1037 11.6667 12.8226 9.33333 12.8226ZM9.33333 3.52593C8.40508 3.52593 7.51484 3.89741 6.85846 4.55864C6.20208 5.21988 5.83333 6.11672 5.83333 7.05185C5.83333 7.98698 6.20208 8.88382 6.85846 9.54506C7.51484 10.2063 8.40508 10.5778 9.33333 10.5778C10.2616 10.5778 11.1518 10.2063 11.8082 9.54506C12.4646 8.88382 12.8333 7.98698 12.8333 7.05185C12.8333 6.11672 12.4646 5.21988 11.8082 4.55864C11.1518 3.89741 10.2616 3.52593 9.33333 3.52593Z" fill="white"/>
</svg>
