<svg width="121" height="121" viewBox="0 0 121 121" fill="none" xmlns="http://www.w3.org/2000/svg">
<path d="M121 63.5482C120.965 63.719 120.941 63.8919 120.928 64.0657C120.903 65.6113 120.723 67.1399 120.523 68.677C119.549 76.1473 117.131 83.1378 113.517 89.7294C112.985 90.6986 112.415 91.6473 111.861 92.6046C111.794 92.7208 111.716 92.8318 111.642 92.9462C111.336 92.9189 111.052 92.8975 110.767 92.8685C109.341 92.7225 107.916 92.5594 106.5 92.3296C104.733 92.0488 102.984 91.665 101.262 91.1802C93.3532 88.9309 86.8153 84.6117 81.6483 78.2224C79.1457 75.1405 77.1155 71.7666 75.4314 68.1792C74.4117 66.0022 73.5215 63.767 72.7656 61.4851C72.7271 61.3681 72.6895 61.2511 72.6537 61.1435C72.7391 61.0103 72.875 61.0359 72.9954 61.0231C74.6415 60.8527 76.2536 60.4418 77.7803 59.8036C79.3302 59.1465 80.7639 58.2437 82.0259 57.1299C82.7938 56.4712 83.5007 55.7447 84.1381 54.9592C85.5479 53.1847 86.434 51.1805 86.7014 48.9303C87.185 44.8613 86.0691 41.3012 83.182 38.3551C80.9328 36.0289 78.0171 34.4572 74.8367 33.8565C73.9105 33.68 72.9716 33.5786 72.0291 33.5533C71.8941 33.549 71.7582 33.5533 71.6018 33.5533C71.5784 33.6336 71.561 33.7155 71.5497 33.7984C71.542 33.9487 71.5497 34.099 71.5497 34.2493V92.9044C71.4687 92.9283 71.3858 92.9451 71.3019 92.9547C70.9875 92.9599 70.6731 92.9547 70.3621 92.9547H63.8419C63.6941 92.9547 63.5454 92.9453 63.3753 92.9394C63.3617 92.8437 63.3446 92.7686 63.3412 92.6892C63.3352 92.5807 63.3412 92.4705 63.3412 92.3612C63.3412 70.0146 63.3412 47.6676 63.3412 25.3204C63.3412 25.1325 63.3181 24.9412 63.3788 24.7372C63.4737 24.7243 63.5692 24.7166 63.665 24.7141C65.2355 24.7542 66.8068 24.791 68.3772 24.8405C68.9642 24.8593 69.5512 24.902 70.1365 24.943C72.358 25.0992 74.5796 25.3272 76.7447 25.8601C82.5702 27.2922 87.4123 30.2665 91.0308 35.1075C92.6568 37.2651 93.8248 39.7319 94.4631 42.3566C94.8665 44.0452 95.056 45.7778 95.027 47.5136C94.9775 52.0891 93.4839 56.1539 90.707 59.7669C88.7418 62.3288 86.3169 64.3595 83.4956 65.923C83.352 66.0024 83.2085 66.0819 83.0684 66.163C83.0397 66.1838 83.0131 66.2072 82.9889 66.233C83.003 66.2917 83.0228 66.3489 83.0479 66.4038C85.1284 70.0826 87.5345 73.5197 90.5524 76.5017C92.4979 78.4223 94.6477 80.0721 97.0546 81.3812C98.1141 81.9576 99.2343 82.3905 100.357 82.8167C102.711 83.6997 105.137 84.376 107.609 84.838C107.689 84.8532 107.77 84.8638 107.852 84.8696C107.898 84.8681 107.943 84.8615 107.987 84.8499C108.049 84.7372 108.118 84.6202 108.179 84.4998C108.529 83.8166 108.869 83.1335 109.228 82.4597C109.844 81.2983 110.301 80.0687 110.755 78.8398C111.838 75.8913 112.655 72.8512 113.193 69.7564C113.42 68.4661 113.59 67.1664 113.725 65.8615C113.98 63.2781 114.052 60.6799 113.94 58.0864C113.893 56.8584 113.786 55.6338 113.647 54.4144C113.363 51.8904 112.896 49.3904 112.251 46.9338C110.245 39.3149 106.724 32.4739 101.69 26.4109C95.3141 18.7561 87.4191 13.2832 78.005 9.99204C75.3472 9.06701 72.6181 8.36072 69.8451 7.88023C68.2832 7.60099 66.7136 7.39348 65.1346 7.25941C62.7649 7.04995 60.3834 7.00772 58.0078 7.13303C57.0534 7.18853 56.0981 7.2466 55.1463 7.33456C53.9082 7.44813 52.677 7.61978 51.4517 7.83156C48.8929 8.26729 46.3702 8.89298 43.9045 9.70341C34.5148 12.8163 26.576 18.106 20.088 25.5723C14.9887 31.4458 11.3545 38.1222 9.1854 45.6016C8.56189 47.7384 8.07671 49.9131 7.73286 52.1121C7.44805 53.9487 7.25466 55.7946 7.1527 57.65C7.06726 59.2887 7.05871 60.9274 7.11425 62.5653C7.16637 64.0802 7.29625 65.5908 7.48251 67.0964C8.29999 73.7968 10.395 80.2785 13.6541 86.1906C16.0777 90.5883 19.1031 94.6268 22.6427 98.1894C23.5843 99.1603 24.6005 100.056 25.682 100.868C25.7896 100.949 25.9033 101.02 26.0434 101.116C26.0679 101.044 26.0862 100.969 26.0981 100.894C26.1049 100.744 26.0981 100.593 26.0981 100.443C26.0981 85.5001 26.0981 70.556 26.0981 55.6108C26.0981 54.8046 26.0981 53.9985 26.1331 53.1932C26.2724 49.8338 26.785 46.5376 27.8838 43.3489C30.0857 36.9657 34.1674 32.1434 40.0168 28.8028C42.5101 27.3801 45.1699 26.3597 47.9349 25.6048C49.0815 25.2914 50.2418 25.036 51.4081 24.8097C51.5534 24.7816 51.7021 24.7645 51.8755 24.738C51.899 24.8167 51.9153 24.8972 51.9242 24.9788C51.9293 25.3341 51.9242 25.6893 51.9242 26.0445V32.8975C51.8435 32.9279 51.761 32.9535 51.6773 32.9743C50.0484 33.2557 48.444 33.664 46.8788 34.1955C45.7721 34.5805 44.6966 35.0498 43.6618 35.5994C40.4218 37.3215 38.0468 39.8549 36.5367 43.1995C35.7865 44.8685 35.2381 46.6209 34.903 48.4197C34.5219 50.4612 34.3271 52.5332 34.3212 54.6099C34.3212 54.7577 34.3288 54.9045 34.3331 55.0728C34.4365 55.0847 34.5143 55.1001 34.5895 55.1027C34.7262 55.1078 34.8629 55.1027 34.9996 55.1027H59.6842C59.8629 55.0899 60.0425 55.0988 60.2191 55.1291C60.2354 55.1849 60.2465 55.2421 60.2524 55.2999C60.2524 57.9472 60.2524 60.5944 60.2524 63.2638C60.1704 63.2851 60.087 63.3008 60.0029 63.3108C59.8525 63.3185 59.7021 63.3108 59.5518 63.3108H34.9116C34.7407 63.3108 34.5604 63.3168 34.363 63.3193C34.3439 63.4021 34.3299 63.4859 34.3212 63.5704C34.3143 63.7207 34.3212 63.871 34.3212 64.0213C34.3212 80.823 34.3212 97.6244 34.3212 114.426V114.951C34.1648 115.017 34.0691 114.917 33.9657 114.865C31.9924 113.893 30.0694 112.822 28.2043 111.656C23.3741 108.611 19.0866 104.925 15.2963 100.665C9.86276 94.586 5.72571 87.464 3.13771 79.7339C2.18822 76.9125 1.45359 74.0233 0.940108 71.0911C0.65729 69.4772 0.435137 67.8547 0.283047 66.2236C0.151465 64.8214 0.0856731 63.4167 0.0275715 62.0111C-0.0339478 60.5893 0.0215905 59.17 0.0728565 57.7516C0.118996 56.4826 0.227509 55.2171 0.363364 53.9532C1.68781 41.6266 6.7881 30.0093 14.9674 20.6886C21.3375 13.4209 29.0069 7.97417 37.9756 4.34831C41.5739 2.89489 45.3071 1.8005 49.1208 1.0811C50.5306 0.816379 51.9473 0.598623 53.3708 0.427833C56.6023 0.0424098 59.8598 -0.0818155 63.1113 0.0563663C64.6399 0.119558 66.1651 0.246797 67.686 0.426125C75.1683 1.29705 82.4189 3.57165 89.0571 7.13047C103.162 14.6751 113.715 27.4823 118.419 42.7648C119.172 45.2189 119.765 47.7191 120.194 50.2497C120.461 51.8118 120.667 53.3817 120.812 54.9592C120.872 55.6108 120.888 56.2674 120.924 56.9233C120.934 57.1129 120.924 57.3067 121.002 57.4869L121 63.5482Z" fill="white"/>
<path d="M58.516 121.004C58.3545 120.981 58.1947 120.949 58.0324 120.938C56.9831 120.868 55.9304 120.83 54.8838 120.734C51.9175 120.462 48.9757 119.969 46.0831 119.259C43.2443 118.562 40.4598 117.66 37.7515 116.56C37.602 116.499 37.455 116.43 37.3191 116.372C37.2645 115.966 37.2687 109.019 37.3251 108.672C37.4413 108.718 37.555 108.758 37.6626 108.805C39.02 109.447 40.4031 110.032 41.8118 110.559C44.7805 111.668 47.8428 112.51 50.9619 113.073C52.4546 113.343 53.9524 113.557 55.4648 113.693C57.642 113.898 59.8298 113.97 62.0157 113.906C63.1906 113.868 64.3637 113.805 65.5343 113.7C66.8262 113.582 68.1124 113.416 69.3929 113.201C71.8994 112.783 74.3721 112.184 76.7915 111.408C85.9681 108.447 93.791 103.391 100.26 96.2389C100.728 95.7265 101.167 95.1809 101.62 94.6523C101.646 94.6215 101.678 94.5968 101.731 94.5472C104.231 95.1126 106.741 95.6853 109.262 96.2654C109.251 96.449 109.131 96.5515 109.045 96.6676C108.057 97.9929 107.015 99.2738 105.918 100.51C99.2115 108.057 91.1354 113.615 81.6899 117.185C78.6075 118.343 75.4329 119.239 72.1997 119.863C70.6048 120.173 68.9993 120.42 67.3833 120.603C65.9436 120.763 64.5013 120.885 63.053 120.933C62.9051 120.947 62.7582 120.969 62.613 121L58.516 121.004Z" fill="white"/>
</svg>
