<svg width="50" height="50" viewBox="0 0 50 50" fill="none" xmlns="http://www.w3.org/2000/svg">
<path d="M31.125 40.6251L25 37.0209L18.875 40.6251L20.5 33.6667L15.1042 29.0001L22.2083 28.3959L25 21.8751L27.7917 28.3959L34.8958 29.0001L29.5 33.6667L31.125 40.6251ZM41.6667 4.16675H8.33334V8.33342L18.4583 15.9167C14.9259 17.4242 12.0224 20.1054 10.239 23.507C8.45566 26.9085 7.9018 30.8216 8.67113 34.5844C9.44045 38.3473 11.4858 41.729 14.4611 44.1576C17.4365 46.5862 21.1593 47.9126 25 47.9126C28.8407 47.9126 32.5635 46.5862 35.5389 44.1576C38.5143 41.729 40.5596 38.3473 41.3289 34.5844C42.0982 30.8216 41.5443 26.9085 39.761 23.507C37.9776 20.1054 35.0742 17.4242 31.5417 15.9167L41.6667 8.33342V4.16675ZM37.5 31.2501C37.5011 33.6173 36.83 35.9362 35.5648 37.937C34.2995 39.9377 32.4922 41.5381 30.353 42.5518C28.2138 43.5655 25.8307 43.951 23.481 43.6633C21.1313 43.3757 18.9116 42.4267 17.0801 40.9268C15.2487 39.427 13.8808 37.4379 13.1355 35.191C12.3903 32.9441 12.2985 30.5318 12.8706 28.2348C13.4428 25.9377 14.6554 23.8503 16.3675 22.2155C18.0796 20.5807 20.2207 19.4656 22.5417 19.0001C24.1636 18.6667 25.8364 18.6667 27.4583 19.0001C30.2894 19.568 32.8366 21.0984 34.6671 23.3315C36.4977 25.5646 37.4986 28.3626 37.5 31.2501ZM26.3125 14.5834H23.6875L15.3542 8.33342H34.8125L26.3125 14.5834Z" fill="#FABB03"/>
</svg>
