<svg width="27" height="29" viewBox="0 0 27 29" fill="none" xmlns="http://www.w3.org/2000/svg">
<path d="M15.9375 7.375C18.7388 7.375 21.4255 8.48783 23.4063 10.4687C25.3872 12.4495 26.5 15.1362 26.5 17.9375C26.5 20.7388 25.3872 23.4255 23.4063 25.4063C21.4255 27.3872 18.7388 28.5 15.9375 28.5H10.25V25.25H15.9375C20 25.25 23.25 22 23.25 17.9375C23.25 13.875 20 10.625 15.9375 10.625H6.72375L11.7288 15.6462L9.4375 17.9375L0.5 9L9.4375 0.0625L11.745 2.35375L6.72375 7.375H15.9375ZM3.75 25.25H7V28.5H3.75V25.25Z" fill="#FABB03"/>
</svg>
