<svg width="40" height="40" viewBox="0 0 40 40" fill="none" xmlns="http://www.w3.org/2000/svg">
<path d="M31.6667 3.33337L23.3334 10.8334V29.1667L31.6667 21.6667V3.33337ZM10.8334 8.33337C7.58341 8.33337 4.08341 9.00004 1.66675 10.8334V35.2667C1.66675 35.6834 2.08341 36.1 2.50008 36.1C2.66675 36.1 2.75008 35.9834 2.91675 35.9834C5.16675 34.9 8.41675 34.1667 10.8334 34.1667C14.0834 34.1667 17.5834 34.8334 20.0001 36.6667C22.2501 35.25 26.3334 34.1667 29.1667 34.1667C31.9167 34.1667 34.7501 34.6834 37.0834 35.9334C37.2501 36.0167 37.3334 35.9834 37.5001 35.9834C37.9167 35.9834 38.3334 35.5667 38.3334 35.15V10.8334C37.3334 10.0834 36.2501 9.58337 35.0001 9.16671V31.6667C33.1667 31.0834 31.1667 30.8334 29.1667 30.8334C26.3334 30.8334 22.2501 31.9167 20.0001 33.3334V10.8334C17.5834 9.00004 14.0834 8.33337 10.8334 8.33337Z" fill="#FABB03"/>
</svg>
