<svg width="505" height="487" viewBox="0 0 505 487" fill="none" xmlns="http://www.w3.org/2000/svg">
<path d="M252.061 486.642C391.27 486.642 504.121 427.613 504.121 354.797C504.121 281.981 391.27 222.952 252.061 222.952C112.851 222.952 0 281.981 0 354.797C0 427.613 112.851 486.642 252.061 486.642Z" fill="#F5F5F5"/>
<path d="M165.637 377.043L179.555 385.11C181.153 385.921 182.921 386.344 184.714 386.344C186.507 386.344 188.275 385.921 189.873 385.11L324.757 307.23C327.605 305.586 327.605 302.917 324.757 301.272L310.875 293.253C309.276 292.442 307.509 292.019 305.716 292.019C303.923 292.019 302.155 292.442 300.556 293.253L165.673 371.133C162.789 372.73 162.789 375.399 165.637 377.043Z" fill="#E0E0E0"/>
<path d="M421.249 403.889C455.304 403.889 482.911 388.775 482.911 370.132C482.911 351.489 455.304 336.375 421.249 336.375C387.193 336.375 359.586 351.489 359.586 370.132C359.586 388.775 387.193 403.889 421.249 403.889Z" fill="#E0E0E0"/>
<path d="M41.0846 402.792C60.4115 412.003 91.7493 412.003 111.076 402.792C130.403 393.582 130.403 378.652 111.076 369.429C91.7493 360.206 60.4115 360.218 41.0846 369.429C21.7576 378.64 21.7576 393.582 41.0846 402.792Z" fill="#E0E0E0"/>
<path d="M321.146 18.8631C320.813 16.48 318.894 15.5983 316.583 16.9448L189.707 90.1893C188.365 91.0671 187.248 92.2481 186.447 93.637C185.646 95.0259 185.183 96.5837 185.095 98.1846V378.199C185.095 380.904 186.859 382.143 189.123 381.142C187.749 381.728 186.264 382.006 184.772 381.957C183.279 381.908 181.816 381.532 180.484 380.856L175.194 377.818C173.848 376.943 172.728 375.762 171.925 374.373C171.122 372.984 170.658 371.425 170.57 369.822V89.82C170.655 88.2169 171.118 86.6566 171.921 85.2669C172.725 83.8772 173.846 82.6975 175.194 81.8247L302.058 8.58007C303.486 7.85195 305.066 7.47235 306.669 7.47235C308.272 7.47235 309.852 7.85195 311.28 8.58007L316.583 11.6066C317.818 12.4196 318.865 13.488 319.652 14.7398C320.439 15.9916 320.949 17.3977 321.146 18.8631Z" fill="#455A64"/>
<path d="M316.583 16.9209L189.707 90.1893C188.365 91.067 187.248 92.248 186.447 93.6369C185.646 95.0258 185.183 96.5837 185.095 98.1846V378.199C185.095 381.13 187.169 382.333 189.707 380.856L316.583 307.564C317.924 306.685 319.04 305.504 319.841 304.115C320.642 302.727 321.105 301.169 321.194 299.568V19.5542C321.194 16.6707 319.121 15.4672 316.583 16.9209ZM314.545 273.188C314.545 275.702 312.782 277.298 310.589 278.561L195.235 345.157C193.055 346.42 191.279 345.407 191.279 342.881V124.923C191.356 123.549 191.754 122.213 192.441 121.021C193.128 119.829 194.085 118.814 195.235 118.06L310.625 51.4758C312.817 50.2128 314.581 51.2375 314.581 53.7517L314.545 273.188Z" fill="#37474F"/>
<path d="M189.087 381.094C187.714 381.68 186.228 381.959 184.736 381.909C183.244 381.86 181.78 381.484 180.448 380.808L175.158 377.77C173.814 376.893 172.695 375.713 171.892 374.324C171.089 372.935 170.624 371.377 170.535 369.775V89.8199C170.594 88.2083 171.062 86.6381 171.893 85.2563L186.418 93.5971C185.588 94.9754 185.121 96.5413 185.06 98.1489V378.163C185.095 380.856 186.859 382.095 189.087 381.094Z" fill="#263238"/>
<path d="M253.145 59.7333C254.849 58.7443 256.243 59.5426 256.243 61.5206C256.182 62.5944 255.87 63.6389 255.332 64.5701C254.794 65.5014 254.045 66.2934 253.145 66.8826C251.441 67.8596 250.047 67.0613 250.047 65.0952C250.107 64.0212 250.419 62.9764 250.957 62.045C251.495 61.1136 252.244 60.3217 253.145 59.7333Z" fill="#263238"/>
<path d="M251.048 337.448C250.279 337.457 249.522 337.259 248.855 336.876C247.282 335.97 246.472 334.112 246.472 331.645C246.62 329.019 247.382 326.465 248.699 324.188C250.015 321.911 251.848 319.976 254.05 318.538C256.183 317.346 258.233 317.12 259.794 318.026C261.355 318.931 262.177 320.79 262.177 323.256C262.032 325.883 261.271 328.438 259.954 330.716C258.637 332.993 256.803 334.928 254.599 336.364C253.531 337.031 252.306 337.405 251.048 337.448ZM257.554 318.633C256.506 318.679 255.488 318.995 254.599 319.551C252.569 320.879 250.88 322.666 249.667 324.766C248.454 326.867 247.752 329.223 247.616 331.645C247.616 333.671 248.259 335.16 249.451 335.851C250.643 336.542 252.251 336.352 254.003 335.339C256.034 334.009 257.724 332.221 258.937 330.118C260.15 328.015 260.851 325.657 260.985 323.233C260.985 321.207 260.342 319.718 259.15 319.038C258.645 318.756 258.072 318.62 257.494 318.645L257.554 318.633Z" fill="#E6E6E6"/>
<path d="M241.206 78.5479L265.037 64.7616C266.466 63.9395 267.622 64.5233 267.622 66.0604C267.559 66.9285 267.292 67.7694 266.843 68.5148C266.394 69.2602 265.775 69.889 265.037 70.35L241.206 84.1362C239.776 84.9584 238.62 84.3745 238.62 82.8374C238.683 81.9694 238.95 81.1284 239.399 80.3831C239.848 79.6377 240.467 79.0089 241.206 78.5479Z" fill="#263238"/>
<path d="M314.545 273.211C314.545 275.726 312.782 277.322 310.589 278.585L195.235 345.181C193.055 346.444 191.28 345.431 191.28 342.905V124.923C191.356 123.549 191.754 122.213 192.441 121.021C193.128 119.829 194.085 118.814 195.235 118.06L310.625 51.4759C312.818 50.2128 314.581 51.2376 314.581 53.7517L314.545 273.211Z" fill="#FABB03"/>
<path opacity="0.75" d="M314.545 273.211C314.545 275.726 312.782 277.322 310.589 278.585L195.235 345.181C193.055 346.444 191.28 345.431 191.28 342.905V124.923C191.356 123.549 191.754 122.213 192.441 121.021C193.128 119.829 194.085 118.814 195.235 118.06L310.625 51.4759C312.818 50.2128 314.581 51.2376 314.581 53.7517L314.545 273.211Z" fill="white"/>
<path d="M310.625 51.4759L195.271 118.06C194.121 118.814 193.164 119.829 192.477 121.021C191.79 122.213 191.392 123.549 191.315 124.923V139.651L314.581 68.4674V53.7517C314.546 51.2376 312.782 50.2128 310.625 51.4759Z" fill="#FABB03"/>
<path d="M191.28 326.831V342.905C191.28 345.431 193.055 346.48 195.235 345.181L310.625 278.585C312.818 277.322 314.581 275.726 314.581 273.211V255.672L191.28 326.831Z" fill="#FABB03"/>
<path opacity="0.15" d="M201.42 327.081L287.616 277.275C289.606 276.083 291.191 277.06 291.191 279.36C291.125 280.609 290.768 281.826 290.147 282.912C289.526 283.999 288.66 284.925 287.616 285.615L201.42 335.422C199.43 336.614 197.845 335.637 197.845 333.337C197.911 332.088 198.268 330.871 198.889 329.784C199.51 328.698 200.376 327.772 201.42 327.081Z" fill="black"/>
<path d="M297.375 270.292V272.83C297.375 273.402 297.673 273.795 298.03 273.712L302.094 272.77C302.451 272.687 302.451 272.89 302.094 273.223L298.03 276.965C297.623 277.413 297.391 277.992 297.375 278.597V281.135C297.375 281.707 297.661 281.838 298.007 281.433L307.646 270.161C307.98 269.756 307.98 269.422 307.646 269.422L298.007 269.267C297.661 269.267 297.375 269.72 297.375 270.292Z" fill="#455A64"/>
<path d="M218.161 179.746L212.036 176.172C211.916 176.122 211.815 176.034 211.75 175.921L210.63 173.955L214.205 171.858L214.098 172.168L218.161 179.746Z" fill="#E0E0E0"/>
<path d="M213.705 172.192L217.947 179.532C218 179.652 218.09 179.754 218.204 179.821C218.317 179.888 218.449 179.917 218.581 179.905C218.712 179.894 218.837 179.841 218.937 179.755C219.037 179.668 219.107 179.553 219.138 179.424L223.618 166.484L213.705 172.192Z" fill="#F0F0F0"/>
<path d="M258.018 119.025C257.962 117.996 257.664 116.995 257.149 116.102C256.633 115.21 255.915 114.452 255.051 113.889C254.13 113.414 253.109 113.166 252.072 113.166C251.036 113.166 250.014 113.414 249.094 113.889L201.169 141.557C200.307 142.121 199.59 142.879 199.074 143.771C198.559 144.663 198.26 145.664 198.202 146.693V170.976C198.258 172.005 198.556 173.007 199.072 173.899C199.587 174.791 200.306 175.55 201.169 176.112C202.09 176.587 203.112 176.836 204.148 176.836C205.185 176.836 206.206 176.587 207.127 176.112L255.361 148.254C258.03 146.74 258.054 145.215 258.054 143.321L258.018 119.025Z" fill="#F0F0F0"/>
<path d="M198.202 170.976C198.258 172.005 198.556 173.007 199.072 173.899C199.587 174.791 200.306 175.55 201.169 176.112C202.001 176.535 202.914 176.777 203.847 176.82C204.78 176.863 205.711 176.707 206.579 176.362C205.185 176.898 204.124 176.1 204.124 174.408V150.112C204.156 149.08 204.456 148.074 204.994 147.193L199.036 143.773C198.503 144.657 198.203 145.661 198.167 146.693L198.202 170.976Z" fill="#E0E0E0"/>
<path d="M257.911 118.203C257.565 117.011 256.421 116.546 255.051 117.333L207.091 145.001C206.213 145.543 205.494 146.307 205.006 147.217L199.048 143.797C199.542 142.895 200.26 142.135 201.134 141.593L249.093 113.925C250.016 113.455 251.037 113.21 252.072 113.21C253.108 113.21 254.128 113.455 255.051 113.925C255.795 114.405 256.433 115.032 256.925 115.767C257.416 116.503 257.752 117.332 257.911 118.203Z" fill="#FAFAFA"/>
<path d="M212.084 155.903L246.353 136.076C247.342 135.504 248.14 135.766 248.14 136.66C248.069 137.211 247.871 137.738 247.561 138.2C247.251 138.661 246.837 139.044 246.353 139.317L212.084 159.144C211.095 159.716 210.297 159.454 210.297 158.56C210.367 158.009 210.566 157.482 210.876 157.021C211.186 156.559 211.6 156.177 212.084 155.903Z" fill="#455A64"/>
<path d="M212.084 162.933L235.915 149.088C236.916 148.516 237.714 148.778 237.714 149.672C237.642 150.224 237.442 150.752 237.129 151.213C236.817 151.675 236.401 152.057 235.915 152.329L212.084 166.174C211.095 166.746 210.297 166.484 210.297 165.591C210.367 165.039 210.566 164.512 210.876 164.051C211.186 163.589 211.6 163.207 212.084 162.933Z" fill="#455A64"/>
<path d="M212.084 148.897L246.353 129.022C247.342 128.45 248.14 128.712 248.14 129.606C248.069 130.157 247.871 130.684 247.561 131.146C247.251 131.607 246.837 131.99 246.353 132.263L212.084 152.138C211.095 152.71 210.297 152.448 210.297 151.554C210.367 151.003 210.566 150.475 210.876 150.014C211.186 149.553 211.6 149.17 212.084 148.897Z" fill="#455A64"/>
<path d="M211.655 182.332L207.902 180.187C207.258 179.894 206.549 179.777 205.845 179.848C205.142 179.919 204.47 180.176 203.898 180.592C202.34 181.561 201.037 182.889 200.097 184.465C198.947 186.247 198.293 188.303 198.203 190.422C198.13 191.129 198.247 191.842 198.54 192.489C198.833 193.135 199.292 193.693 199.871 194.104L203.624 196.261C204.276 196.592 205.006 196.735 205.735 196.674C206.463 196.613 207.16 196.351 207.747 195.916C209.404 194.836 210.783 193.381 211.773 191.669C212.762 189.957 213.334 188.036 213.442 186.061C213.519 185.335 213.392 184.602 213.077 183.944C212.761 183.285 212.269 182.727 211.655 182.332Z" fill="#455A64"/>
<path d="M207.902 180.163C207.258 179.87 206.548 179.753 205.845 179.824C205.142 179.896 204.47 180.152 203.898 180.568C202.342 181.54 201.04 182.868 200.097 184.441C198.946 186.223 198.292 188.28 198.202 190.399C198.128 191.105 198.243 191.819 198.536 192.466C198.829 193.114 199.29 193.671 199.871 194.081L203.588 196.213C203.057 195.791 202.638 195.243 202.37 194.62C202.102 193.996 201.992 193.315 202.051 192.639C202.161 190.663 202.734 188.741 203.723 187.027C204.713 185.313 206.091 183.856 207.747 182.773C208.301 182.382 208.943 182.133 209.616 182.048C210.289 181.962 210.973 182.044 211.607 182.284L207.902 180.163Z" fill="#37474F"/>
<path d="M207.508 184.524C208.557 183.917 209.403 184.405 209.403 185.609C209.368 186.267 209.178 186.908 208.849 187.48C208.52 188.051 208.06 188.537 207.508 188.897C206.46 189.493 205.614 189.005 205.614 187.801C205.647 187.144 205.836 186.504 206.165 185.934C206.495 185.364 206.955 184.881 207.508 184.524Z" fill="white"/>
<path d="M207.759 194.891C209.23 193.959 210.43 192.656 211.238 191.114V190.959C211.238 188.969 209.844 188.17 208.128 189.159L207.056 189.779C206.191 190.346 205.465 191.099 204.931 191.984C204.397 192.869 204.068 193.862 203.969 194.891C204.052 194.983 204.144 195.067 204.244 195.141C204.793 195.436 205.415 195.569 206.037 195.524C206.659 195.48 207.256 195.26 207.759 194.891Z" fill="white"/>
<path d="M218.161 267.897L212.036 264.322C211.918 264.27 211.818 264.183 211.75 264.072L210.63 262.106L214.205 259.997L214.098 260.319L218.161 267.897Z" fill="#E0E0E0"/>
<path d="M213.705 260.343L217.947 267.683C218 267.803 218.09 267.904 218.204 267.971C218.317 268.038 218.449 268.068 218.581 268.056C218.712 268.044 218.837 267.992 218.937 267.905C219.037 267.819 219.107 267.704 219.138 267.575L223.618 254.635L213.705 260.343Z" fill="#F0F0F0"/>
<path d="M258.018 207.176C257.962 206.147 257.664 205.145 257.149 204.253C256.633 203.361 255.915 202.603 255.051 202.04C254.128 201.57 253.108 201.325 252.072 201.325C251.037 201.325 250.016 201.57 249.093 202.04L201.133 229.708C200.27 230.27 199.551 231.029 199.036 231.921C198.52 232.813 198.222 233.814 198.167 234.843V259.127C198.224 260.156 198.523 261.156 199.038 262.048C199.554 262.94 200.271 263.699 201.133 264.263C202.054 264.738 203.076 264.986 204.112 264.986C205.149 264.986 206.17 264.738 207.091 264.263L255.325 236.404C257.994 234.879 258.018 233.354 258.018 231.471V207.176Z" fill="#F0F0F0"/>
<path d="M198.202 259.127C198.26 260.156 198.559 261.156 199.074 262.048C199.589 262.94 200.307 263.699 201.169 264.263C202.001 264.686 202.914 264.927 203.847 264.971C204.78 265.014 205.711 264.858 206.579 264.513C205.185 265.037 204.124 264.251 204.124 262.559V238.251C204.161 237.22 204.461 236.215 204.994 235.332L199.036 231.924C198.501 232.807 198.202 233.812 198.167 234.843L198.202 259.127Z" fill="#E0E0E0"/>
<path d="M257.911 206.377C257.565 205.114 256.421 204.721 255.051 205.508L207.091 233.175C206.211 233.715 205.491 234.48 205.006 235.392L199.048 231.972C199.542 231.069 200.26 230.31 201.134 229.767L249.093 202.088C250.018 201.623 251.038 201.382 252.072 201.382C253.107 201.382 254.127 201.623 255.051 202.088C255.795 202.57 256.433 203.199 256.925 203.937C257.417 204.674 257.752 205.505 257.911 206.377Z" fill="#FAFAFA"/>
<path d="M212.084 244.054L246.353 224.167C247.342 223.595 248.14 223.857 248.14 224.763C248.068 225.312 247.868 225.837 247.558 226.296C247.248 226.755 246.835 227.136 246.353 227.408L212.084 247.283C211.095 247.867 210.297 247.605 210.297 246.699C210.369 246.15 210.568 245.625 210.879 245.166C211.189 244.707 211.601 244.326 212.084 244.054Z" fill="#455A64"/>
<path d="M212.084 251.072L235.915 237.238C236.916 236.667 237.714 236.929 237.714 237.822C237.642 238.375 237.442 238.903 237.129 239.364C236.817 239.826 236.401 240.207 235.915 240.479L212.084 254.313C211.095 254.885 210.297 254.623 210.297 253.73C210.367 253.178 210.566 252.651 210.876 252.19C211.186 251.728 211.6 251.346 212.084 251.072Z" fill="#455A64"/>
<path d="M212.084 237.048L246.353 217.173C247.342 216.589 248.14 216.851 248.14 217.757C248.069 218.308 247.871 218.835 247.561 219.297C247.251 219.758 246.837 220.14 246.353 220.414L212.084 240.289C211.095 240.861 210.297 240.599 210.297 239.705C210.367 239.154 210.566 238.626 210.876 238.165C211.186 237.704 211.6 237.321 212.084 237.048Z" fill="#455A64"/>
<path d="M211.655 270.483L207.901 268.338C207.258 268.045 206.548 267.928 205.845 267.999C205.141 268.07 204.469 268.327 203.898 268.743C202.34 269.712 201.036 271.04 200.097 272.616C198.946 274.397 198.292 276.454 198.202 278.573C198.13 279.28 198.246 279.993 198.539 280.64C198.832 281.286 199.291 281.844 199.87 282.255L203.624 284.4C204.273 284.736 205.004 284.882 205.733 284.823C206.462 284.764 207.159 284.502 207.746 284.066C209.405 282.986 210.785 281.529 211.775 279.815C212.764 278.101 213.336 276.177 213.442 274.2C213.518 273.476 213.391 272.745 213.075 272.088C212.759 271.432 212.268 270.876 211.655 270.483Z" fill="#455A64"/>
<path d="M207.902 268.338C207.258 268.045 206.548 267.928 205.845 267.999C205.142 268.07 204.47 268.327 203.898 268.743C202.342 269.715 201.04 271.042 200.097 272.616C198.946 274.397 198.292 276.454 198.202 278.573C198.128 279.28 198.243 279.994 198.536 280.641C198.829 281.288 199.29 281.846 199.871 282.255L203.588 284.376C203.054 283.956 202.634 283.409 202.365 282.784C202.097 282.16 201.989 281.478 202.051 280.802C202.134 278.681 202.788 276.622 203.946 274.844C204.885 273.265 206.188 271.933 207.747 270.959C208.301 270.568 208.943 270.319 209.616 270.234C210.289 270.149 210.973 270.23 211.607 270.471L207.902 268.338Z" fill="#37474F"/>
<path d="M207.508 272.663C208.557 272.067 209.403 272.556 209.403 273.759C209.368 274.416 209.178 275.056 208.849 275.625C208.519 276.195 208.06 276.678 207.508 277.036C206.46 277.644 205.614 277.155 205.614 275.952C205.649 275.293 205.839 274.652 206.168 274.081C206.497 273.51 206.956 273.024 207.508 272.663Z" fill="white"/>
<path d="M207.759 283.042C209.23 282.106 210.43 280.799 211.238 279.253V279.062C211.238 277.072 209.844 276.274 208.128 277.263L207.056 277.882C206.191 278.446 205.465 279.198 204.931 280.08C204.397 280.963 204.068 281.955 203.969 282.982C204.049 283.081 204.141 283.169 204.244 283.244C204.789 283.546 205.408 283.687 206.03 283.651C206.652 283.615 207.252 283.404 207.759 283.042Z" fill="white"/>
<path d="M289.833 184.608L283.708 181.033C283.587 180.984 283.487 180.896 283.422 180.783L282.29 178.817L285.936 176.72L285.817 177.041L289.833 184.608Z" fill="#FABB03"/>
<g opacity="0.1">
<path opacity="0.1" d="M289.833 184.608L283.708 181.033C283.587 180.984 283.487 180.896 283.422 180.783L282.29 178.817L285.936 176.72L285.817 177.041L289.833 184.608Z" fill="black"/>
</g>
<path d="M285.376 177.053L289.618 184.393C289.672 184.514 289.761 184.615 289.875 184.682C289.989 184.749 290.121 184.779 290.252 184.767C290.384 184.755 290.508 184.702 290.608 184.616C290.708 184.53 290.779 184.414 290.81 184.286L295.29 171.358L285.376 177.053Z" fill="#FABB03"/>
<path d="M308.588 136.135C308.532 135.108 308.236 134.107 307.722 133.215C307.209 132.323 306.493 131.564 305.633 131C304.71 130.53 303.689 130.285 302.654 130.285C301.618 130.285 300.597 130.53 299.675 131L251.751 158.715C250.887 159.275 250.167 160.03 249.652 160.921C249.136 161.811 248.839 162.811 248.784 163.839V188.135C248.839 189.162 249.136 190.162 249.652 191.053C250.167 191.943 250.887 192.699 251.751 193.258C252.673 193.728 253.694 193.973 254.73 193.973C255.765 193.973 256.786 193.728 257.708 193.258L305.859 165.352C308.516 163.839 308.54 162.314 308.54 160.419L308.588 136.135Z" fill="#FABB03"/>
<path d="M264.727 171.822L298.984 151.947C299.973 151.375 300.783 151.638 300.783 152.531C300.711 153.084 300.511 153.612 300.198 154.073C299.886 154.534 299.47 154.916 298.984 155.188L264.727 175.063C263.738 175.635 262.927 175.373 262.927 174.48C263 173.927 263.2 173.399 263.512 172.938C263.825 172.476 264.241 172.094 264.727 171.822Z" fill="#455A64"/>
<path d="M275.105 172.74L298.936 158.894C299.925 158.322 300.735 158.584 300.735 159.478C300.663 160.03 300.463 160.558 300.15 161.02C299.838 161.481 299.422 161.863 298.936 162.135L275.105 175.981C274.116 176.553 273.306 176.291 273.306 175.397C273.378 174.845 273.578 174.317 273.89 173.855C274.203 173.394 274.619 173.012 275.105 172.74Z" fill="#455A64"/>
<path d="M264.727 164.816L298.984 144.941C299.973 144.369 300.783 144.631 300.783 145.525C300.711 146.077 300.511 146.605 300.198 147.067C299.886 147.528 299.47 147.91 298.984 148.182L264.727 168.057C263.738 168.629 262.927 168.367 262.927 167.473C263 166.921 263.2 166.393 263.512 165.931C263.825 165.47 264.241 165.088 264.727 164.816Z" fill="#455A64"/>
<path opacity="0.1" d="M248.784 188.099C248.839 189.127 249.136 190.127 249.652 191.017C250.167 191.908 250.887 192.663 251.751 193.223C252.587 193.64 253.501 193.879 254.435 193.922C255.369 193.965 256.301 193.812 257.172 193.473C255.778 193.997 254.718 193.199 254.718 191.507V167.223C254.753 166.191 255.052 165.186 255.587 164.304L249.63 160.884C249.096 161.767 248.797 162.772 248.76 163.803L248.784 188.099Z" fill="black"/>
<path opacity="0.3" d="M308.492 135.29C308.147 134.038 307.003 133.633 305.632 134.42L257.661 162.087C256.785 162.633 256.067 163.397 255.575 164.304L249.618 160.896C250.109 159.989 250.828 159.225 251.703 158.68L299.651 131.012C300.574 130.544 301.595 130.3 302.63 130.3C303.665 130.3 304.685 130.544 305.609 131.012C306.355 131.491 306.996 132.118 307.492 132.853C307.987 133.589 308.328 134.418 308.492 135.29Z" fill="white"/>
<path d="M306.788 175.397L303.047 173.252C302.403 172.959 301.694 172.842 300.99 172.913C300.287 172.985 299.615 173.241 299.043 173.657C297.482 174.623 296.178 175.951 295.242 177.53C294.088 179.31 293.434 181.368 293.348 183.488C293.273 184.193 293.387 184.906 293.678 185.553C293.969 186.2 294.426 186.758 295.004 187.17L298.769 189.326C299.421 189.657 300.151 189.801 300.88 189.74C301.608 189.679 302.305 189.416 302.892 188.981C304.55 187.9 305.931 186.444 306.92 184.729C307.91 183.015 308.481 181.091 308.587 179.115C308.663 178.389 308.535 177.656 308.217 177C307.899 176.343 307.404 175.788 306.788 175.397Z" fill="#455A64"/>
<path d="M303.047 173.264C302.403 172.971 301.694 172.854 300.99 172.925C300.287 172.996 299.615 173.253 299.043 173.669C297.482 174.635 296.178 175.963 295.242 177.542C294.088 179.322 293.434 181.38 293.348 183.5C293.273 184.205 293.387 184.918 293.678 185.565C293.969 186.212 294.426 186.77 295.004 187.181L298.721 189.314C298.194 188.889 297.779 188.341 297.513 187.717C297.247 187.094 297.138 186.415 297.196 185.74C297.28 183.62 297.935 181.561 299.091 179.782C300.027 178.2 301.331 176.867 302.892 175.897C303.446 175.506 304.088 175.257 304.761 175.172C305.434 175.087 306.118 175.168 306.752 175.409L303.047 173.264Z" fill="#37474F"/>
<path d="M302.57 177.78C303.607 177.172 304.465 177.673 304.465 178.876C304.428 179.533 304.237 180.171 303.908 180.741C303.579 181.31 303.121 181.794 302.57 182.153C301.522 182.761 300.676 182.272 300.676 181.057C300.712 180.4 300.902 179.761 301.231 179.192C301.56 178.623 302.019 178.139 302.57 177.78Z" fill="#FABB03"/>
<path d="M302.809 188.17C304.287 187.238 305.491 185.931 306.3 184.381V184.238C306.3 182.248 304.906 181.45 303.19 182.439L302.118 183.059C301.254 183.624 300.527 184.375 299.991 185.258C299.455 186.14 299.123 187.131 299.02 188.159C299.109 188.252 299.205 188.34 299.305 188.421C299.853 188.716 300.473 188.849 301.093 188.805C301.714 188.76 302.309 188.54 302.809 188.17Z" fill="#FABB03"/>
<path d="M288.081 252.204L284.637 250.214C284.603 250.203 284.572 250.184 284.545 250.159C284.518 250.135 284.497 250.105 284.483 250.071L283.839 248.963L285.889 247.772L285.829 247.962L288.081 252.204Z" fill="#FABB03"/>
<g opacity="0.1">
<path opacity="0.1" d="M288.081 252.204L284.637 250.214C284.603 250.203 284.572 250.184 284.545 250.159C284.518 250.135 284.497 250.105 284.483 250.071L283.839 248.963L285.889 247.772L285.829 247.962L288.081 252.204Z" fill="black"/>
</g>
<path d="M285.603 247.962L287.986 252.085C288.02 252.143 288.07 252.191 288.131 252.222C288.191 252.252 288.259 252.265 288.326 252.259C288.394 252.253 288.458 252.228 288.511 252.186C288.565 252.145 288.606 252.089 288.629 252.026L291.143 244.757L285.603 247.962Z" fill="#FABB03"/>
<path d="M304.25 227.432C304.193 226.405 303.894 225.406 303.379 224.516C302.863 223.626 302.145 222.87 301.284 222.308C300.361 221.839 299.34 221.594 298.305 221.594C297.269 221.594 296.248 221.839 295.326 222.308L278.346 232.103C277.486 232.665 276.77 233.422 276.256 234.312C275.743 235.202 275.447 236.2 275.391 237.227V243.709C275.445 244.737 275.74 245.738 276.254 246.63C276.767 247.523 277.484 248.281 278.346 248.844C279.267 249.32 280.289 249.568 281.325 249.568C282.362 249.568 283.383 249.32 284.304 248.844L301.558 238.859C304.227 237.346 304.25 235.821 304.25 233.938V227.432Z" fill="#FABB03"/>
<path opacity="0.1" d="M275.427 243.709C275.481 244.737 275.776 245.738 276.29 246.63C276.803 247.523 277.52 248.281 278.382 248.844C279.216 249.268 280.131 249.509 281.066 249.552C282 249.595 282.934 249.439 283.803 249.094C282.409 249.631 281.349 248.832 281.349 247.14V240.658C281.386 239.627 281.685 238.622 282.219 237.739L276.261 234.319C275.727 235.202 275.428 236.207 275.391 237.239L275.427 243.709Z" fill="black"/>
<path opacity="0.3" d="M304.143 226.634C303.797 225.371 302.654 224.977 301.283 225.764L284.304 235.558C283.426 236.096 282.707 236.857 282.218 237.763L276.261 234.355C276.759 233.453 277.476 232.691 278.346 232.139L295.326 222.344C296.25 221.88 297.27 221.638 298.304 221.638C299.339 221.638 300.359 221.88 301.283 222.344C302.028 222.826 302.665 223.455 303.157 224.193C303.649 224.931 303.984 225.761 304.143 226.634Z" fill="white"/>
<path d="M287.902 238.823C287.429 239.131 287.036 239.546 286.754 240.035C286.473 240.524 286.311 241.072 286.282 241.635C286.282 242.66 286.997 243.089 287.902 242.565C288.373 242.258 288.766 241.845 289.047 241.358C289.329 240.872 289.492 240.326 289.523 239.765C289.523 238.728 288.796 238.311 287.902 238.823Z" fill="#455A64"/>
<path d="M293.026 235.856C292.553 236.164 292.16 236.579 291.878 237.068C291.597 237.557 291.435 238.105 291.406 238.668C291.406 239.693 292.132 240.122 293.026 239.598C293.497 239.291 293.89 238.878 294.171 238.392C294.453 237.905 294.616 237.359 294.647 236.798C294.647 235.761 293.944 235.344 293.026 235.856Z" fill="#455A64"/>
<path d="M298.162 232.889C297.69 233.196 297.298 233.609 297.016 234.096C296.735 234.582 296.572 235.128 296.541 235.69C296.541 236.726 297.268 237.143 298.162 236.631C298.639 236.32 299.035 235.899 299.317 235.404C299.599 234.908 299.759 234.353 299.782 233.783C299.782 232.794 299.055 232.377 298.162 232.889Z" fill="#455A64"/>
<path d="M306.788 244.185L303.047 242.04C302.403 241.747 301.694 241.63 300.99 241.702C300.287 241.773 299.615 242.03 299.043 242.446C297.482 243.411 296.178 244.74 295.242 246.318C294.088 248.099 293.434 250.156 293.348 252.276C293.273 252.981 293.387 253.694 293.678 254.341C293.969 254.988 294.426 255.546 295.004 255.958L298.769 258.114C299.421 258.446 300.151 258.589 300.88 258.528C301.608 258.467 302.305 258.204 302.892 257.769C304.549 256.69 305.928 255.235 306.918 253.523C307.907 251.811 308.479 249.889 308.587 247.915C308.664 247.187 308.536 246.453 308.219 245.794C307.901 245.135 307.405 244.578 306.788 244.185Z" fill="#455A64"/>
<path d="M303.047 242.04C302.403 241.747 301.694 241.63 300.99 241.702C300.287 241.773 299.615 242.03 299.043 242.446C297.482 243.411 296.178 244.74 295.242 246.318C294.088 248.099 293.434 250.156 293.348 252.276C293.273 252.981 293.387 253.694 293.678 254.341C293.969 254.988 294.426 255.546 295.004 255.958L298.721 258.091C298.194 257.665 297.779 257.117 297.513 256.494C297.247 255.87 297.138 255.191 297.196 254.516C297.28 252.396 297.935 250.338 299.091 248.558C300.03 246.979 301.333 245.647 302.892 244.674C303.446 244.283 304.088 244.034 304.761 243.949C305.434 243.863 306.118 243.945 306.752 244.185L303.047 242.04Z" fill="#37474F"/>
<path d="M302.57 246.568C303.607 245.973 304.465 246.461 304.465 247.665C304.428 248.321 304.237 248.96 303.908 249.529C303.579 250.098 303.121 250.582 302.57 250.941C301.522 251.549 300.676 251.06 300.676 249.845C300.712 249.188 300.902 248.549 301.231 247.98C301.56 247.411 302.019 246.927 302.57 246.568Z" fill="#FABB03"/>
<path d="M302.809 256.947C304.287 256.014 305.491 254.707 306.3 253.158V253.015C306.3 251.025 304.906 250.226 303.19 251.215L302.118 251.835C301.254 252.4 300.527 253.152 299.991 254.034C299.455 254.916 299.123 255.908 299.02 256.935C299.109 257.028 299.205 257.116 299.305 257.197C299.853 257.492 300.473 257.625 301.093 257.581C301.714 257.536 302.309 257.317 302.809 256.947Z" fill="#FABB03"/>
<path d="M410.227 200.539L404.102 196.964C403.983 196.907 403.884 196.816 403.816 196.702L402.696 194.736L406.331 192.639L406.211 192.961L410.227 200.539Z" fill="#E0E0E0"/>
<path d="M405.771 192.984L410.012 200.324C410.066 200.445 410.156 200.546 410.269 200.613C410.383 200.68 410.515 200.71 410.647 200.698C410.778 200.686 410.903 200.633 411.003 200.547C411.103 200.461 411.173 200.345 411.204 200.217L415.637 187.313L405.771 192.984Z" fill="#F0F0F0"/>
<path d="M450.037 139.817C449.979 138.789 449.68 137.788 449.165 136.896C448.65 136.004 447.932 135.246 447.07 134.682C446.149 134.206 445.127 133.958 444.091 133.958C443.054 133.958 442.033 134.206 441.112 134.682L393.152 162.338C392.29 162.902 391.572 163.66 391.057 164.552C390.541 165.444 390.243 166.445 390.185 167.473V191.757C390.241 192.786 390.539 193.787 391.054 194.68C391.57 195.572 392.289 196.33 393.152 196.893C394.075 197.362 395.095 197.607 396.131 197.607C397.166 197.607 398.187 197.362 399.11 196.893L447.344 169.022C450.001 167.509 450.037 165.984 450.037 164.089V139.817Z" fill="#F0F0F0"/>
<path d="M390.269 191.769C390.325 192.798 390.622 193.799 391.138 194.692C391.653 195.584 392.372 196.342 393.236 196.905C394.07 197.323 394.983 197.561 395.915 197.602C396.847 197.643 397.778 197.486 398.645 197.143C397.251 197.679 396.191 196.881 396.191 195.189V170.905C396.226 169.873 396.525 168.868 397.061 167.986L391.103 164.566C390.569 165.449 390.27 166.454 390.233 167.485L390.269 191.769Z" fill="#E0E0E0"/>
<path d="M450.037 138.971C449.691 137.72 448.547 137.315 447.177 138.102L399.157 165.769C398.279 166.312 397.56 167.076 397.072 167.986L391.115 164.578C391.606 163.671 392.325 162.907 393.2 162.362L441.148 134.694C442.071 134.226 443.092 133.982 444.127 133.982C445.162 133.982 446.182 134.226 447.105 134.694C447.861 135.168 448.511 135.793 449.015 136.529C449.519 137.264 449.867 138.096 450.037 138.971Z" fill="#F5F5F5"/>
<path d="M404.15 176.696L438.407 156.821C439.408 156.249 440.206 156.511 440.206 157.405C440.134 157.957 439.934 158.485 439.622 158.946C439.309 159.408 438.893 159.79 438.407 160.062L404.15 179.937C403.161 180.509 402.363 180.247 402.363 179.353C402.434 178.802 402.632 178.274 402.942 177.813C403.253 177.352 403.666 176.969 404.15 176.696Z" fill="#455A64"/>
<path d="M404.15 183.738L427.981 169.892C428.97 169.32 429.78 169.582 429.78 170.476C429.708 171.028 429.508 171.556 429.196 172.018C428.883 172.479 428.467 172.861 427.981 173.133L404.15 186.979C403.161 187.551 402.363 187.289 402.363 186.395C402.434 185.844 402.632 185.316 402.942 184.855C403.253 184.394 403.666 184.011 404.15 183.738Z" fill="#455A64"/>
<path d="M404.15 169.69L438.407 149.814C439.408 149.243 440.206 149.505 440.206 150.398C440.134 150.951 439.934 151.479 439.622 151.94C439.309 152.401 438.893 152.783 438.407 153.055L404.15 172.931C403.161 173.502 402.363 173.24 402.363 172.347C402.434 171.795 402.632 171.268 402.942 170.807C403.253 170.345 403.666 169.963 404.15 169.69Z" fill="#455A64"/>
<path d="M74.3052 107.3L80.4297 103.725C80.5511 103.672 80.6516 103.579 80.7157 103.463L81.9073 101.497L78.2611 99.4L78.3803 99.7217L74.3052 107.3Z" fill="#FABB03"/>
<g opacity="0.1">
<path opacity="0.1" d="M74.3052 107.3L80.4297 103.725C80.5511 103.672 80.6516 103.579 80.7157 103.463L81.9073 101.497L78.2611 99.4L78.3803 99.7217L74.3052 107.3Z" fill="black"/>
</g>
<path d="M78.7614 99.7336L74.5194 107.074C74.4661 107.194 74.3762 107.295 74.2624 107.362C74.1486 107.429 74.0167 107.459 73.8852 107.447C73.7537 107.435 73.6292 107.383 73.5292 107.296C73.4293 107.21 73.3588 107.095 73.3279 106.966L68.8477 94.038L78.7614 99.7336Z" fill="#FABB03"/>
<path d="M55.55 58.8158C55.605 57.7882 55.9025 56.7882 56.4182 55.8976C56.9339 55.0071 57.6531 54.2513 58.517 53.6921C59.4397 53.2223 60.4605 52.9774 61.4959 52.9774C62.5313 52.9774 63.552 53.2223 64.4748 53.6921L112.447 81.3599C113.307 81.9218 114.023 82.6785 114.536 83.5687C115.05 84.4588 115.346 85.4575 115.402 86.4836V110.779C115.346 111.805 115.05 112.804 114.536 113.694C114.023 114.584 113.307 115.341 112.447 115.903C111.524 116.373 110.503 116.618 109.468 116.618C108.432 116.618 107.412 116.373 106.489 115.903L58.231 88.0326C55.5739 86.5193 55.55 84.9941 55.55 83.1115V58.8158Z" fill="#FABB03"/>
<path d="M99.4109 94.5027L65.1657 74.6277C64.1768 74.0557 63.3784 74.3179 63.3784 75.2116C63.4492 75.7629 63.6476 76.2902 63.9579 76.7515C64.2682 77.2127 64.6817 77.5953 65.1657 77.8687L99.4228 97.7438C100.424 98.3157 101.222 98.0536 101.222 97.1599C101.149 96.6063 100.947 96.0776 100.632 95.6162C100.318 95.1547 99.8993 94.7734 99.4109 94.5027Z" fill="#455A64"/>
<path d="M88.9967 95.4202L65.1657 81.5744C64.1768 81.0025 63.3784 81.2646 63.3784 82.1583C63.4457 82.7139 63.6424 83.2459 63.9529 83.7116C64.2633 84.1772 64.6788 84.5635 65.1657 84.8393L88.9967 98.6851C89.9857 99.257 90.796 98.9949 90.796 98.1012C90.7275 97.5445 90.5289 97.0117 90.2163 96.546C89.9037 96.0802 89.486 95.6946 88.9967 95.4202Z" fill="#455A64"/>
<path d="M99.4109 87.4964L65.1657 67.6213C64.1768 67.0494 63.3784 67.3115 63.3784 68.2052C63.4492 68.7566 63.6476 69.2839 63.9579 69.7451C64.2682 70.2064 64.6817 70.5889 65.1657 70.8624L99.4109 90.797C100.412 91.3689 101.21 91.1068 101.21 90.2131C101.147 89.6501 100.951 89.1102 100.638 88.6378C100.325 88.1655 99.9046 87.7743 99.4109 87.4964Z" fill="#455A64"/>
<path opacity="0.1" d="M115.354 110.779C115.298 111.805 115.002 112.804 114.489 113.694C113.975 114.584 113.259 115.341 112.399 115.903C111.565 116.327 110.65 116.568 109.715 116.611C108.78 116.654 107.847 116.498 106.977 116.153C108.371 116.677 109.432 115.879 109.432 114.199V89.9034C109.395 88.8721 109.096 87.8673 108.562 86.9841L114.52 83.5762C115.056 84.454 115.356 85.4556 115.39 86.4836L115.354 110.779Z" fill="black"/>
<path opacity="0.3" d="M55.6335 57.9817C55.9791 56.7187 57.123 56.3255 58.4933 57.1119L106.477 84.8393C107.355 85.377 108.074 86.1376 108.562 87.0436L114.52 83.6358C114.022 82.734 113.305 81.9719 112.435 81.4195L64.4391 53.6921C63.5158 53.2242 62.4953 52.9803 61.4602 52.9803C60.4251 52.9803 59.4046 53.2242 58.4813 53.6921C57.7402 54.1763 57.1055 54.8063 56.6159 55.5438C56.1263 56.2813 55.792 57.1108 55.6335 57.9817Z" fill="white"/>
<path d="M358.001 120.812L351.4 116.999C351.269 116.945 351.16 116.849 351.09 116.725L349.899 114.604L353.819 112.34L353.7 112.686L358.001 120.812Z" fill="#263238"/>
<path d="M353.199 112.662L357.763 120.574C357.834 120.672 357.929 120.751 358.04 120.801C358.15 120.851 358.272 120.871 358.393 120.858C358.514 120.846 358.629 120.803 358.728 120.732C358.826 120.661 358.905 120.565 358.954 120.455L363.721 106.514L353.199 112.662Z" fill="#37474F"/>
<path d="M407.391 18.4938C407.332 17.3858 407.012 16.3075 406.457 15.3467C405.902 14.3859 405.128 13.5698 404.197 12.965L401.6 11.4636C400.611 10.9584 399.517 10.695 398.407 10.695C397.296 10.695 396.202 10.9584 395.213 11.4636L333.836 46.9122C332.906 47.5171 332.132 48.3331 331.577 49.2939C331.022 50.2547 330.702 51.3331 330.643 52.441V111.637C330.702 112.745 331.022 113.824 331.577 114.784C332.132 115.745 332.906 116.561 333.836 117.166L336.434 118.667C337.423 119.173 338.517 119.436 339.627 119.436C340.738 119.436 341.832 119.173 342.821 118.667L404.495 83.0043C407.367 81.3719 407.391 79.7275 407.391 77.69V18.4938Z" fill="#37474F"/>
<path d="M330.643 111.637C330.702 112.745 331.022 113.823 331.577 114.784C332.132 115.745 332.906 116.561 333.836 117.166L336.434 118.667C337.333 119.122 338.318 119.381 339.324 119.428C340.33 119.476 341.335 119.31 342.273 118.941C340.771 119.501 339.627 118.644 339.627 116.832V57.6242C339.666 56.5123 339.99 55.4289 340.569 54.4785L331.584 49.2953C331.004 50.245 330.68 51.3287 330.643 52.441V111.637Z" fill="#263238"/>
<path d="M407.284 17.5882C406.914 16.2298 405.675 15.8008 404.197 16.6468L342.797 52.0955C341.852 52.6807 341.076 53.5021 340.545 54.4786L331.561 49.2953C332.095 48.3214 332.87 47.5009 333.813 46.9122L395.225 11.4636C396.217 10.9685 397.31 10.7108 398.418 10.7108C399.527 10.7108 400.62 10.9685 401.612 11.4636L404.221 12.965C405.018 13.4887 405.699 14.1684 406.226 14.963C406.752 15.7576 407.112 16.6506 407.284 17.5882Z" fill="#455A64"/>
<path d="M345.955 61.5921C345.976 61.2477 346.077 60.913 346.251 60.615C346.425 60.317 346.666 60.064 346.955 59.8763L397.608 30.5999C397.918 30.4474 398.258 30.3682 398.603 30.3682C398.948 30.3682 399.289 30.4474 399.598 30.5999L400.718 31.2433C401.004 31.4337 401.242 31.6876 401.414 31.9853C401.585 32.283 401.686 32.6162 401.707 32.9591V71.8275C401.686 72.172 401.585 72.507 401.414 72.8066C401.243 73.1062 401.004 73.3623 400.718 73.5552L350.054 102.832C349.744 102.984 349.404 103.063 349.059 103.063C348.714 103.063 348.373 102.984 348.064 102.832L346.955 102.188C346.666 101.998 346.424 101.743 346.251 101.443C346.077 101.143 345.976 100.806 345.955 100.46V61.5921Z" fill="#FABB03"/>
<path opacity="0.4" d="M345.955 61.5921C345.976 61.2477 346.077 60.913 346.251 60.615C346.425 60.317 346.666 60.064 346.955 59.8763L397.608 30.5999C397.918 30.4474 398.258 30.3682 398.603 30.3682C398.948 30.3682 399.289 30.4474 399.598 30.5999L400.718 31.2433C401.004 31.4337 401.242 31.6876 401.414 31.9853C401.585 32.283 401.686 32.6162 401.707 32.9591V71.8275C401.686 72.172 401.585 72.507 401.414 72.8066C401.243 73.1062 401.004 73.3623 400.718 73.5552L350.054 102.832C349.744 102.984 349.404 103.063 349.059 103.063C348.714 103.063 348.373 102.984 348.064 102.832L346.955 102.188C346.666 101.998 346.424 101.743 346.251 101.443C346.077 101.143 345.976 100.806 345.955 100.46V61.5921Z" fill="white"/>
<path d="M350.602 63.1411L346.252 60.6151C346.073 60.9106 345.97 61.2466 345.955 61.5921V100.46C345.976 100.806 346.077 101.143 346.251 101.443C346.424 101.743 346.666 101.998 346.955 102.188L348.064 102.832C348.373 102.984 348.714 103.063 349.059 103.063C349.404 103.063 349.744 102.984 350.054 102.832L350.602 102.51V63.1411Z" fill="#FABB03"/>
<path opacity="0.3" d="M350.602 63.1411L346.252 60.6151C346.073 60.9106 345.97 61.2466 345.955 61.5921V100.46C345.976 100.806 346.077 101.143 346.251 101.443C346.424 101.743 346.666 101.998 346.955 102.188L348.064 102.832C348.373 102.984 348.714 103.063 349.059 103.063C349.404 103.063 349.744 102.984 350.054 102.832L350.602 102.51V63.1411Z" fill="black"/>
<path d="M401.755 32.9592V71.8395C401.735 72.1621 401.645 72.4765 401.49 72.7606C401.336 73.0446 401.121 73.2915 400.861 73.4838H400.802L350.054 102.832C349.955 102.899 349.842 102.941 349.723 102.954C349.604 102.966 349.485 102.949 349.374 102.903C349.268 102.833 349.184 102.734 349.131 102.618C349.079 102.502 349.06 102.374 349.076 102.248V63.3914C349.066 63.2524 349.089 63.1128 349.145 62.9852C349.201 62.8575 349.288 62.7456 349.398 62.6596C349.507 62.5735 349.636 62.5158 349.774 62.4918C349.911 62.4677 350.052 62.4779 350.185 62.5215L371.513 67.5856L374.302 68.2529C374.632 68.3136 374.973 68.2835 375.287 68.166C375.602 68.0486 375.879 67.848 376.089 67.5856L379.318 63.0816L401.1 32.7566C401.457 32.2323 401.755 32.3277 401.755 32.9592Z" fill="#FABB03"/>
<path d="M400.766 73.5553H400.826C401.064 73.3853 401.263 73.1658 401.41 72.9118C401.594 72.6135 401.701 72.2733 401.719 71.9228L379.271 63.1411L394.296 77.3325L400.766 73.5553Z" fill="#FABB03"/>
<path opacity="0.2" d="M400.766 73.5553H400.826C401.064 73.3853 401.263 73.1658 401.41 72.9118C401.594 72.6135 401.701 72.2733 401.719 71.9228L379.271 63.1411L394.296 77.3325L400.766 73.5553Z" fill="black"/>
<path d="M349.065 102.248C349.048 102.374 349.067 102.502 349.12 102.618C349.172 102.734 349.256 102.833 349.363 102.903C349.473 102.949 349.593 102.966 349.711 102.954C349.83 102.941 349.943 102.899 350.042 102.832L367.498 92.7511L371.49 67.5737L349.053 101.604L349.065 102.248Z" fill="#FABB03"/>
<path opacity="0.2" d="M349.065 102.248C349.048 102.374 349.067 102.502 349.12 102.618C349.172 102.734 349.256 102.833 349.363 102.903C349.473 102.949 349.593 102.966 349.711 102.954C349.83 102.941 349.943 102.899 350.042 102.832L367.498 92.7511L371.49 67.5737L349.053 101.604L349.065 102.248Z" fill="black"/>
<path d="M401.445 72.8403C401.299 73.0943 401.1 73.3138 400.861 73.4838L350.054 102.832C349.955 102.899 349.842 102.941 349.723 102.954C349.605 102.966 349.485 102.949 349.375 102.903L373.658 64.142C374.146 63.3681 374.895 62.7947 375.77 62.5258C376.644 62.2569 377.586 62.3103 378.425 62.6764L401.445 72.8403Z" fill="#FABB03"/>
<path opacity="0.3" d="M349.47 62.45L372.586 72.6378C373.421 73.0178 374.366 73.0798 375.244 72.8121C376.121 72.5445 376.871 71.9655 377.352 71.1841L401.493 32.4111L349.47 62.45Z" fill="black"/>
<path d="M349.47 62.45L372.705 71.1364C373.509 71.4352 374.39 71.4516 375.204 71.1831C376.018 70.9146 376.717 70.3771 377.185 69.6589L401.493 32.4111L349.47 62.45Z" fill="#FABB03"/>
<path d="M420.796 3.81386L415.482 0.656251C413.647 -0.380398 411.121 -0.225496 408.332 1.3831C402.72 4.62411 398.168 12.5122 398.168 19.0061C398.168 22.2352 399.3 24.5111 401.135 25.5835L406.128 28.4432L407.022 26.9419C408.05 26.695 409.034 26.2932 409.941 25.7503C415.565 22.4974 420.117 14.6093 420.117 8.12727C420.115 7.25159 420.007 6.37936 419.795 5.52969L420.796 3.81386Z" fill="#F28F8F"/>
<path d="M413.384 4.33813C407.772 7.57915 403.22 15.4672 403.22 21.9492C403.22 28.4313 407.772 31.0765 413.384 27.8236C418.997 24.5707 423.56 16.6945 423.56 10.2125C423.56 3.73044 419.056 1.09712 413.384 4.33813Z" fill="#FFA8A7"/>
<path d="M409.75 16.3609C409.684 16.2632 409.658 16.1435 409.679 16.0272C409.702 15.8792 409.754 15.7373 409.834 15.6102L412.789 10.844L413.063 10.4389C413.158 10.2943 413.285 10.1723 413.432 10.0814L415.1 9.10433C415.141 9.07767 415.189 9.06348 415.237 9.06348C415.286 9.06348 415.334 9.07767 415.374 9.10433C415.412 9.14112 415.442 9.18584 415.46 9.23529C415.479 9.28473 415.486 9.33768 415.482 9.3903V21.3058C415.479 21.4474 415.442 21.5863 415.374 21.7109C415.312 21.8334 415.217 21.9365 415.1 22.0088L413.301 23.0574C413.264 23.0864 413.217 23.1021 413.17 23.1021C413.123 23.1021 413.077 23.0864 413.039 23.0574C413.001 23.0206 412.972 22.9759 412.953 22.9264C412.935 22.877 412.927 22.824 412.932 22.7714V14.7165L411.287 17.326C411.228 17.4388 411.131 17.5272 411.013 17.5763C410.978 17.6043 410.934 17.6195 410.888 17.6195C410.843 17.6195 410.799 17.6043 410.763 17.5763L409.75 16.3609Z" fill="white"/>
<path d="M433.784 315.035C430.888 311.675 428.553 306.908 427.516 305.919C424.501 303.048 421.439 262.38 421.439 262.38C428.481 262.142 432.258 264.763 433.474 270.173C434.689 275.583 439.515 301.749 439.515 301.749" fill="#FFA8A7"/>
<path d="M390.876 318.061C387.373 325.139 378.722 346.444 375.291 361.184C372.073 374.982 370.822 384.538 375.291 387.874C379.759 391.211 392.544 389.185 400.647 371.943C403.185 366.546 412.729 349.888 412.729 349.888C412.729 349.888 419.783 347.35 422.261 345.443C422.261 345.443 445.806 346.122 457.245 343.787C468.684 341.451 480.85 327.463 476.167 326.092C467.743 323.614 451.323 321.815 432.318 320.587L390.876 318.061Z" fill="#37474F"/>
<path d="M445.973 340.832C440.826 342.023 433.2 340.427 428.886 339.176C429.151 337.661 429.102 336.107 428.743 334.612C428.504 336.628 427.856 338.575 426.837 340.331C426.134 340.737 425.526 341.07 425.097 341.285C422.237 342.75 414.373 346.766 412.92 345.503C410.722 342.668 407.603 340.691 404.102 339.914C406.569 341.571 413.706 346.682 411.168 352.616L412.729 349.888C412.729 349.888 419.783 347.35 422.261 345.443C422.261 345.443 435.368 345.824 446.855 345.038L460.415 335.649C460.415 335.649 453.873 335.267 445.973 340.832Z" fill="#263238"/>
<path d="M432.783 357.311C430.316 359.539 426.551 361.327 423.906 360.778C421.26 360.23 417.471 359.968 415.994 365.247C414.314 371.204 408.844 374.886 405.842 378.175C402.839 381.464 403.78 386.397 405.353 389.805C407.998 395.548 411.859 392.08 414.004 388.434C416.149 384.788 422.44 378.104 425.478 375.327C428.846 371.98 432.429 368.856 436.202 365.974L432.783 357.311Z" fill="#FFA8A7"/>
<path d="M468.243 325.651C482.983 324.15 483.281 333.146 479.491 339.235C475.404 345.789 459.807 353.879 452.169 357.764C444.531 361.648 433.867 367.749 433.867 367.749C431.587 365.315 430.154 362.21 429.78 358.896C438.121 353.033 446.331 337.972 460.331 335.649L468.243 325.651Z" fill="#37474F"/>
<path d="M424.883 360.874C424.555 360.867 424.228 360.835 423.906 360.778C421.26 360.218 417.471 359.968 415.994 365.247C414.314 371.204 408.844 374.886 405.842 378.175C402.839 381.464 403.78 386.397 405.353 389.805C407.998 395.548 411.859 392.08 414.004 388.434C415.173 386.603 416.484 384.866 417.924 383.239C417.262 384.028 416.324 384.534 415.301 384.656C414.279 384.778 413.248 384.505 412.419 383.894C411.335 382.953 412.133 379.641 414.147 377.412C416.161 375.184 423.489 360.695 424.883 360.874Z" fill="#263238"/>
<path d="M426.718 359.134C429.411 358.455 433.367 357.49 434.999 355.345C436.631 353.2 440.015 351.115 444.603 354.153C449.798 357.573 456.304 356.763 460.737 357.251C465.169 357.74 467.683 362.113 468.732 365.711C470.507 371.788 465.407 369.715 461.404 368.369C457.4 367.022 448.094 365.759 444.15 366.283C440.206 366.808 430.316 369.31 430.316 369.31L426.718 359.134Z" fill="#FFA8A7"/>
<path d="M459.497 367.785C460.2 367.963 460.856 368.142 461.404 368.333C465.408 369.679 470.507 371.753 468.732 365.676C467.683 362.101 465.157 357.716 460.737 357.216C456.316 356.715 449.798 357.537 444.603 354.118C440.016 351.115 436.632 353.188 434.999 355.309C434.808 355.549 434.596 355.772 434.368 355.976C434.368 355.976 439.646 357.609 445.461 359.289C451.276 360.969 461.118 363.876 461.487 365.378C461.761 366.498 461.952 367.856 459.497 367.785Z" fill="#263238"/>
<path d="M372.872 383.918C373.729 389.161 379.604 391.687 392.199 389.161C404.793 386.635 431.925 369.417 431.925 369.417C431.925 369.417 433.593 360.54 426.706 358.598C426.706 358.598 420.438 359.789 410.215 361.958C405.6 362.975 401.041 364.236 396.56 365.735C389.649 375.006 382.452 371.264 379.878 374.529C375.553 379.998 372.872 383.918 372.872 383.918Z" fill="#37474F"/>
<path d="M405.27 363.162C400.055 364.264 395.07 366.255 390.53 369.048C390.53 369.048 396.977 361.493 406.938 360.135L405.27 363.162Z" fill="#263238"/>
<path d="M430.388 295.458C430.96 300.82 432.282 320.587 432.282 320.587C428.124 334.612 395.833 331.788 389.589 320.79C391.585 316.222 393.206 311.5 394.439 306.67L391.007 291.668C391.007 291.668 399.217 284.186 391.007 268.91L401.862 265.657L421.439 262.38C424.74 262.559 430.34 270.125 432.497 275.654C433.867 279.193 434.975 286.378 430.388 295.458Z" fill="#FABB03"/>
<path opacity="0.15" d="M413.456 330.096C399.908 329.524 393.664 321.195 393.807 319.003C394.298 315.791 394.967 312.608 395.809 309.47L400.885 311.46L396.703 305.359L393.807 292.36C396.869 287.867 395.356 279.741 395.356 279.741L394.51 279.241C395.499 287.581 391.007 291.668 391.007 291.668L394.439 306.67C393.205 311.492 391.583 316.206 389.589 320.766C392.902 326.629 403.566 330.167 413.456 330.096Z" fill="black"/>
<path d="M413.301 257.173L406.152 257.364C403.793 257.429 401.445 257.028 399.242 256.186C397.038 255.343 395.022 254.074 393.309 252.452C391.596 250.83 390.22 248.886 389.258 246.731C388.297 244.577 387.77 242.254 387.706 239.896C387.629 237.07 388.108 234.257 389.118 231.618C390.127 228.978 391.647 226.563 393.59 224.51C395.533 222.457 397.861 220.808 400.442 219.655C403.022 218.503 405.805 217.87 408.63 217.792C411.455 217.715 414.268 218.194 416.908 219.204C419.548 220.213 421.963 221.733 424.016 223.676C426.068 225.619 427.718 227.947 428.87 230.528C430.023 233.108 430.656 235.891 430.733 238.716C430.865 243.474 429.103 248.09 425.835 251.55C422.566 255.011 418.059 257.033 413.301 257.173Z" fill="#263238"/>
<path d="M391.245 229.434L385.895 227.563C385.999 227.201 386.175 226.864 386.414 226.573C386.654 226.283 386.95 226.044 387.286 225.873C387.621 225.702 387.988 225.602 388.364 225.579C388.74 225.556 389.116 225.611 389.47 225.74C390.182 226.012 390.764 226.546 391.094 227.233C391.424 227.92 391.478 228.708 391.245 229.434Z" fill="#263238"/>
<path d="M391.186 228.052L389.542 222.642C389.892 222.51 390.266 222.452 390.64 222.471C391.014 222.49 391.38 222.586 391.715 222.753C392.05 222.919 392.348 223.153 392.589 223.439C392.83 223.726 393.009 224.059 393.116 224.417C393.33 225.155 393.248 225.947 392.888 226.626C392.527 227.304 391.917 227.816 391.186 228.052Z" fill="#263238"/>
<path d="M422.19 227.063C424.501 228.35 427.468 233.986 427.516 245.985C427.516 256.148 424.335 258.746 422.75 259.509C421.165 260.271 417.912 259.926 414.802 259.509L414.862 263.715C414.862 263.715 420.45 269.827 420.248 272.628C420.045 275.428 413.098 276.881 409.023 274.26C406.068 272.11 403.495 269.48 401.409 266.479L401.099 252.395C401.099 252.395 399.324 254.218 396.154 251.597C393.545 249.428 392.58 245.639 394.522 243.613C395.022 243.11 395.636 242.734 396.311 242.517C396.987 242.299 397.704 242.246 398.404 242.363C399.104 242.48 399.766 242.762 400.334 243.187C400.903 243.612 401.361 244.167 401.671 244.805C401.671 244.805 406.616 244.805 413.098 241.051C415.604 239.595 417.732 237.57 419.311 235.141C420.89 232.711 421.876 229.944 422.19 227.063Z" fill="#FFA8A7"/>
<path d="M416.101 243.732C416.125 243.905 416.113 244.08 416.066 244.248C416.019 244.415 415.939 244.572 415.829 244.707C415.72 244.842 415.584 244.954 415.43 245.035C415.276 245.115 415.107 245.164 414.933 245.177C414.76 245.19 414.586 245.167 414.421 245.11C414.257 245.053 414.106 244.964 413.977 244.846C413.849 244.729 413.746 244.586 413.675 244.427C413.603 244.269 413.565 244.097 413.563 243.923C413.539 243.751 413.551 243.575 413.598 243.408C413.645 243.24 413.725 243.084 413.835 242.949C413.944 242.813 414.08 242.702 414.234 242.621C414.388 242.54 414.557 242.492 414.731 242.479C414.904 242.466 415.079 242.488 415.243 242.545C415.407 242.602 415.558 242.692 415.687 242.809C415.815 242.927 415.918 243.069 415.989 243.228C416.061 243.387 416.099 243.558 416.101 243.732Z" fill="#263238"/>
<path d="M416.673 252.335L419.664 253.205C419.616 253.406 419.527 253.594 419.404 253.759C419.281 253.925 419.126 254.063 418.947 254.167C418.769 254.27 418.572 254.337 418.367 254.362C418.163 254.387 417.955 254.371 417.757 254.313C417.355 254.189 417.017 253.913 416.815 253.544C416.612 253.175 416.561 252.741 416.673 252.335Z" fill="#F28F8F"/>
<path d="M426.468 239.526L423.822 237.81C423.927 237.633 424.067 237.479 424.233 237.358C424.399 237.236 424.588 237.149 424.788 237.103C424.988 237.056 425.196 237.05 425.399 237.086C425.601 237.121 425.795 237.198 425.967 237.31C426.32 237.544 426.568 237.905 426.662 238.318C426.755 238.731 426.685 239.163 426.468 239.526Z" fill="#263238"/>
<path d="M425.955 242.541C425.973 242.713 425.956 242.887 425.906 243.052C425.855 243.217 425.772 243.371 425.661 243.503C425.549 243.635 425.413 243.744 425.259 243.822C425.104 243.9 424.936 243.947 424.764 243.959C424.423 243.982 424.087 243.87 423.828 243.647C423.569 243.424 423.409 243.108 423.381 242.767C423.369 242.6 423.39 242.432 423.442 242.272C423.495 242.113 423.578 241.965 423.688 241.838C423.797 241.711 423.931 241.606 424.08 241.531C424.23 241.455 424.394 241.41 424.561 241.397C424.729 241.384 424.897 241.405 425.056 241.458C425.216 241.51 425.363 241.593 425.491 241.703C425.618 241.813 425.722 241.946 425.798 242.096C425.873 242.246 425.919 242.409 425.931 242.577L425.955 242.541Z" fill="#263238"/>
<path d="M420.176 241.337L420.319 249.654L424.335 248.296L420.176 241.337Z" fill="#F28F8F"/>
<path d="M414.755 259.497C411.478 259.151 404.698 257.399 403.578 254.73C404.041 256.061 404.897 257.22 406.032 258.055C408.082 259.723 414.814 261.475 414.814 261.475L414.755 259.497Z" fill="#F28F8F"/>
<path d="M393.223 354.63V355.595C393.217 356.076 393.338 356.55 393.575 356.969C393.811 357.387 394.155 357.736 394.57 357.978L420.403 372.837C420.814 373.079 421.283 373.206 421.761 373.206C422.239 373.206 422.708 373.079 423.119 372.837L470.507 345.431C470.926 345.192 471.274 344.845 471.513 344.426C471.752 344.006 471.874 343.531 471.866 343.048V342.393L421.761 371.312L393.223 354.63Z" fill="#EBEBEB"/>
<path d="M471.866 342.44L443.769 326.212C443.522 326.07 443.243 325.996 442.959 325.996C442.674 325.996 442.395 326.07 442.148 326.212L393.402 354.368C393.348 354.399 393.302 354.444 393.271 354.499C393.239 354.553 393.223 354.615 393.223 354.678C393.223 354.74 393.239 354.802 393.271 354.857C393.302 354.911 393.348 354.956 393.402 354.987L421.761 371.371L471.866 342.44Z" fill="#FAFAFA"/>
<path d="M439.491 301.701C443.268 307.194 451.836 319.134 455.684 325.973C457.901 329.917 455.112 333.742 449.059 332.122C445.068 331.061 439.336 321.493 433.784 315.011" fill="#FFA8A7"/>
<path d="M421.511 368.976L406.354 360.242L450.668 334.648L465.908 343.346L421.511 368.976Z" fill="#E0E0E0"/>
<path d="M414.052 344.657L414.338 344.824L421.761 349.113L434.975 341.487L435.249 341.332L427.54 336.876L414.052 344.657Z" fill="#E0E0E0"/>
<path d="M414.337 344.824L421.761 349.113L434.975 341.487L427.54 337.198L414.337 344.824Z" fill="#E6E6E6"/>
<path d="M421.761 371.359V373.194C422.239 373.196 422.708 373.069 423.119 372.825L470.507 345.419C470.926 345.18 471.273 344.833 471.512 344.414C471.751 343.994 471.873 343.519 471.865 343.036V342.381L421.761 371.359Z" fill="#EBEBEB"/>
<g opacity="0.5">
<path opacity="0.5" d="M421.761 371.359V373.194C422.239 373.196 422.708 373.069 423.119 372.825L470.507 345.419C470.926 345.18 471.273 344.833 471.512 344.414C471.751 343.994 471.873 343.519 471.865 343.036V342.381L421.761 371.359Z" fill="#E0E0E0"/>
</g>
<path d="M422.523 371.764C422.971 371.937 423.452 372.007 423.93 371.97C424.408 371.933 424.872 371.79 425.288 371.55L472.473 344.311C472.885 344.076 473.239 343.752 473.51 343.363C473.78 342.973 473.959 342.527 474.034 342.059L479.205 311.234C479.217 311.059 479.217 310.884 479.205 310.709C479.207 310.285 479.124 309.864 478.963 309.472C478.801 309.079 478.564 308.722 478.264 308.422L429.232 336.745C428.923 336.915 428.656 337.153 428.45 337.439C428.244 337.725 428.104 338.054 428.04 338.401L422.523 371.764Z" fill="#FABB03"/>
<g opacity="0.7">
<path opacity="0.7" d="M422.523 371.764C422.971 371.937 423.452 372.007 423.93 371.97C424.408 371.933 424.872 371.79 425.288 371.55L472.473 344.311C472.885 344.076 473.239 343.752 473.51 343.363C473.78 342.973 473.959 342.527 474.034 342.059L479.205 311.234C479.217 311.059 479.217 310.884 479.205 310.709C479.207 310.285 479.124 309.864 478.963 309.472C478.801 309.079 478.564 308.722 478.264 308.422L429.232 336.745C428.923 336.915 428.656 337.153 428.45 337.439C428.244 337.725 428.104 338.054 428.04 338.401L422.523 371.764Z" fill="white"/>
</g>
<path d="M421.761 371.371L422.082 371.55C422.225 371.631 422.372 371.703 422.523 371.764L428.112 338.401C428.175 338.054 428.315 337.725 428.521 337.439C428.727 337.153 428.994 336.915 429.303 336.745L478.336 308.422C478.135 308.236 477.915 308.073 477.68 307.933L428.541 336.292C428.23 336.464 427.962 336.703 427.756 336.991C427.55 337.28 427.411 337.611 427.349 337.96L421.761 371.371Z" fill="#FAFAFA"/>
<path d="M449.107 343.322C449.846 340.745 451.554 338.554 453.873 337.21C456.149 335.887 457.722 336.495 457.376 338.556C456.63 341.132 454.924 343.325 452.61 344.681C450.322 345.991 448.761 345.384 449.107 343.322Z" fill="#FABB03"/>
<path d="M397.251 349.054C394.653 347.266 378.103 335.22 371.489 330.096C364.602 324.758 365.019 323.042 365.853 319.193C367.498 311.591 377.936 287.653 380.807 280.551C384.025 272.628 384.763 271.627 391.007 268.91C395.32 272.318 397.727 280.671 391.925 292.181L380.104 319.992C380.104 319.992 387.98 328.332 392.639 332.741C397.298 337.15 401.409 342.095 404.889 342.476C407.653 342.774 412.55 342.965 413.599 343.93C416.163 346.516 418.551 349.271 420.748 352.175C421.737 353.796 424.084 357.096 420.748 358.133C417.71 359.086 415.231 357.788 412.753 356.096C411.595 355.259 410.492 354.347 409.452 353.367C406.98 353.643 404.483 353.148 402.303 351.949C400.396 350.9 397.251 349.054 397.251 349.054Z" fill="#FFA8A7"/>
<path d="M388.481 279.741H388.827C390.504 279.74 392.165 279.403 393.711 278.751C395.256 278.099 396.656 277.144 397.827 275.943C398.999 274.741 399.918 273.318 400.531 271.756C401.144 270.194 401.439 268.526 401.397 266.849L401.076 253.444C399.422 253.442 397.785 253.766 396.257 254.398C394.729 255.03 393.34 255.956 392.171 257.125C391.001 258.293 390.073 259.681 389.44 261.208C388.807 262.736 388.481 264.373 388.481 266.026V279.741Z" fill="#263238"/>
<path d="M54.0011 235.225C52.8096 237.787 48.9728 241.504 44.5283 236.714C38.0343 229.696 27.3342 204.781 27.3342 204.781L34.3644 201.528L48.663 221.093L56.3008 229.577" fill="#FFA8A7"/>
<path d="M55.8957 187.384C52.5236 198.692 45.7437 223.881 45.7437 223.881L54.0011 235.225C55.476 232.319 56.7346 229.308 57.7664 226.217C59.2082 222.285 63.9744 206.592 63.9744 206.592C63.9744 206.592 62.9616 183.952 66.5005 180.926C68.4095 179.236 70.6154 177.915 73.0063 177.029C67.3703 177.482 58.9699 177.029 55.8957 187.384Z" fill="#FFA8A7"/>
<path d="M40.048 189.016C38.1773 185.537 37.6649 185.382 36.6045 184.62C35.544 183.857 28.6807 182.844 25.8805 182.606C22.5442 182.32 21.3645 182.94 22.3059 185.799C24.2838 191.924 30.2893 204.924 31.6357 206.723C32.5175 207.914 32.6962 208.987 36.4019 209.356C39.8931 209.69 44.2781 209.881 45.5649 209.964C46.8518 210.047 48.6391 210.357 47.4833 206.568C46.0096 202.274 44.3073 198.062 42.3835 193.95C40.9417 190.887 40.048 189.016 40.048 189.016Z" fill="#263238"/>
<path d="M27.3343 204.781C25.9402 198.632 21.8532 192.961 24.1648 190.887L25.3563 193.604C25.3563 193.604 33.0061 195.439 36.6999 195.153C40.3937 194.867 43.4083 193.961 44.4211 194.7C46.5659 196.213 47.1855 202.648 41.0371 204.995C35.8658 206.973 27.3343 204.781 27.3343 204.781Z" fill="#FFA8A7"/>
<path d="M73.5068 175.016C66.7388 175.087 59.2916 177.554 56.7297 182.856C54.1679 188.159 49.4255 207.569 49.4255 207.569C51.3903 209.365 53.7095 210.73 56.2338 211.575C58.758 212.421 61.4313 212.728 64.0816 212.478L73.5068 175.016Z" fill="#FABB03"/>
<path opacity="0.1" d="M73.5068 175.016C66.7388 175.087 59.2916 177.554 56.7297 182.856C54.1679 188.159 49.4255 207.569 49.4255 207.569C51.3903 209.365 53.7095 210.73 56.2338 211.575C58.758 212.421 61.4313 212.728 64.0816 212.478L73.5068 175.016Z" fill="black"/>
<path d="M102.914 370.43H93.5486V384.061H102.914V370.43Z" fill="#FFA8A7"/>
<path d="M69.9929 353.558L60.6328 353.88L61.1014 367.503L70.4614 367.181L69.9929 353.558Z" fill="#FFA8A7"/>
<path d="M102.295 237.358C102.295 246.306 103.486 304.084 103.486 304.084C103.701 306.646 106.108 311.389 105.595 321.267C104.88 334.695 103.725 371.967 103.725 371.967C103.725 371.967 99.3277 376.328 93.1317 371.967C93.1317 371.967 84.6597 321.314 82.9797 308.017C81.5141 296.411 79.0356 264.882 79.0356 264.882L74.2694 302.726C74.2694 302.726 75.7946 311.46 76.1282 317.609C76.4619 323.757 70.6352 358.61 70.6352 358.61C69.1193 359.56 67.3803 360.096 65.5923 360.163C63.8043 360.23 62.0301 359.826 60.4475 358.991C60.4475 358.991 56.8728 307.754 55.8719 302.202C54.871 296.649 58.5052 237.358 58.5052 237.358H102.295Z" fill="#37474F"/>
<path d="M88.1986 175.397C89.2948 175.659 98.3148 177.78 102.295 179.127V237.358C95.7291 244.507 72.8395 247.831 58.5051 237.358V191.721C58.5051 184.429 62.5564 175.671 73.745 175.04L88.1986 175.397Z" fill="#EBEBEB"/>
<path d="M91.3801 138.125C92.1325 138.039 92.8948 138.125 93.609 138.377C94.3233 138.629 94.9709 139.04 95.5029 139.579C97.2783 141.39 96.9089 144.75 95.5029 152.46L90.0217 153.091L91.3801 138.125Z" fill="#263238"/>
<path d="M59.4108 135.897C58.2318 135.902 57.0642 135.667 55.9791 135.206C54.2991 134.241 53.8582 136.147 54.7876 137.804C55.3956 138.993 56.2989 140.007 57.4109 140.748C58.5229 141.488 59.8064 141.931 61.1386 142.034C61.1386 141.795 62.7114 137.744 62.7114 137.744L59.4108 135.897Z" fill="#263238"/>
<path d="M88.7825 153.091C89.5928 153.58 90.7605 152.019 91.7614 150.97C92.7623 149.922 96.0391 148.48 97.7191 151.924C99.3992 155.367 96.2774 160.062 93.6917 160.872C89.2591 162.266 88.5919 159.418 88.5919 159.418L88.1987 175.397C87.2229 177.539 85.7336 179.406 83.8628 180.834C81.9921 182.262 79.7978 183.206 77.4747 183.583C69.5986 184.655 71.2191 178.15 73.8047 174.968V170.095C71.8353 170.407 69.8383 170.511 67.847 170.404C64.5702 169.904 62.5208 167.318 61.5318 163.779C59.9351 158.108 59.3274 153.52 60.6858 142.332C62.1633 130.082 76.4023 129.963 84.0997 134.801C91.7971 139.639 88.7825 153.091 88.7825 153.091Z" fill="#FFA8A7"/>
<path d="M88.7826 154.462C89.1877 154.462 90.7486 151.888 91.7614 150.97C93.1675 149.683 91.3563 138.125 91.3563 138.125C91.3563 138.125 92.7742 133.74 89.9979 130.833C87.2216 127.926 81.8477 128.45 77.9275 128.283C73.1016 128.305 68.3218 127.344 63.8792 125.459C58.3027 123.076 57.9214 122.754 57.1946 125.197C56.4677 127.64 56.2413 133.264 59.5777 137.017L62.354 138.042C62.354 138.042 63.8434 139.365 69.0505 139.996C73.854 140.359 78.6811 140.272 83.4682 139.734C84.9815 139.519 85.3032 140.985 86.1135 144.977C86.8165 148.492 87.4123 154.438 88.7826 154.462Z" fill="#263238"/>
<path d="M91.3801 139.031L96.3012 136.386C96.14 136.058 95.9141 135.766 95.6373 135.527C95.3604 135.288 95.0382 135.108 94.69 134.996C94.3418 134.885 93.9747 134.845 93.6107 134.879C93.2467 134.913 92.8933 135.02 92.5717 135.194C91.9197 135.56 91.4326 136.161 91.2109 136.875C90.9893 137.589 91.0498 138.36 91.3801 139.031Z" fill="#263238"/>
<path d="M73.7571 170.142C73.7571 170.142 81.0494 168.677 83.5993 167.318C85.1165 166.543 86.3629 165.326 87.1739 163.827C86.7898 165.322 86.109 166.724 85.1721 167.95C83.3133 170.333 73.8047 172.085 73.8047 172.085L73.7571 170.142Z" fill="#F28F8F"/>
<path d="M75.5085 151.268C75.5202 151.555 75.6159 151.832 75.7839 152.066C75.9519 152.299 76.1847 152.477 76.4533 152.579C76.7219 152.681 77.0145 152.702 77.2948 152.638C77.5751 152.575 77.8306 152.431 78.0297 152.224C78.2287 152.017 78.3625 151.756 78.4144 151.473C78.4663 151.191 78.434 150.899 78.3215 150.635C78.209 150.37 78.0214 150.145 77.7818 149.986C77.5423 149.828 77.2614 149.743 76.9741 149.743C76.7775 149.746 76.5834 149.788 76.4031 149.867C76.2228 149.945 76.0598 150.058 75.9235 150.2C75.7873 150.342 75.6805 150.509 75.6092 150.693C75.538 150.876 75.5037 151.072 75.5085 151.268Z" fill="#263238"/>
<path d="M77.0815 145.751L80.2153 147.479C80.4366 147.05 80.4846 146.552 80.3493 146.089C80.214 145.625 79.9058 145.231 79.4885 144.989C79.2817 144.874 79.0539 144.803 78.8188 144.78C78.5837 144.757 78.3463 144.781 78.1211 144.853C77.8959 144.924 77.6876 145.041 77.5088 145.195C77.3301 145.35 77.1847 145.539 77.0815 145.751Z" fill="#263238"/>
<path d="M74.4241 161.361L71.1235 162.612C71.1944 162.837 71.3102 163.045 71.464 163.223C71.6177 163.402 71.8062 163.548 72.0179 163.651C72.2296 163.755 72.4602 163.814 72.6956 163.826C72.9311 163.838 73.1665 163.802 73.3875 163.72C73.8297 163.534 74.1839 163.186 74.3768 162.747C74.5697 162.308 74.5867 161.812 74.4241 161.361Z" fill="#F28F8F"/>
<path d="M62.4731 146.967L65.3328 144.774C65.1991 144.581 65.0276 144.418 64.8286 144.293C64.6297 144.169 64.4075 144.087 64.1755 144.051C63.9436 144.015 63.7069 144.027 63.4798 144.086C63.2526 144.145 63.0398 144.249 62.8544 144.393C62.4742 144.692 62.2229 145.125 62.1521 145.604C62.0812 146.083 62.196 146.57 62.4731 146.967Z" fill="#263238"/>
<path d="M63.3547 150.851C63.3664 151.138 63.4621 151.415 63.6301 151.649C63.7981 151.882 64.0309 152.06 64.2995 152.162C64.5681 152.264 64.8607 152.284 65.141 152.221C65.4213 152.158 65.6768 152.014 65.8758 151.807C66.0749 151.6 66.2087 151.339 66.2606 151.056C66.3125 150.774 66.2802 150.482 66.1677 150.218C66.0552 149.953 65.8676 149.728 65.628 149.569C65.3884 149.411 65.1076 149.326 64.8203 149.326C64.6237 149.329 64.4296 149.371 64.2493 149.449C64.069 149.528 63.906 149.641 63.7697 149.783C63.6335 149.925 63.5266 150.092 63.4554 150.276C63.3842 150.459 63.3499 150.655 63.3547 150.851Z" fill="#263238"/>
<path d="M70.8019 149.469L70.3253 158.251L65.7378 156.69L70.8019 149.469Z" fill="#F28F8F"/>
<path d="M93.5485 379.438V378.104C92.6549 378.485 90.5697 386.444 86.852 389.817C83.897 392.509 79.8696 395.619 78.8448 398.622C77.8201 401.625 84.457 403.472 87.1857 402.983C90.3909 402.411 95.9436 400.159 97.3377 398.062C98.7318 395.965 99.3871 392.891 100.519 391.354C101.651 389.817 104.261 388.113 104.88 386.337C105.214 385.36 104.809 383.227 104.344 381.416C103.879 379.605 103.438 377.949 102.866 378.104V379.152C101.537 380.199 99.888 380.758 98.1956 380.737C96.8611 380.749 93.5366 380.487 93.5485 379.438Z" fill="#263238"/>
<path d="M60.9955 364.615C60.5069 364.615 60.1137 365.318 59.0413 366.474C57.441 368.095 55.5802 369.436 53.5364 370.442C50.0332 372.193 43.2175 374.898 40.1314 376.28C38.2011 377.15 38.2964 379.474 40.2863 380.796C42.2762 382.119 47.0901 383.084 52.8572 381.785C56.0029 381.082 60.1018 378.211 62.6875 378.342C65.2731 378.473 70.1347 378.461 72.0411 377.15C73.9476 375.84 73.2327 373.016 72.6488 370.597C72.065 367.951 71.219 363.912 70.3491 364.091V364.925C69.2291 366.629 63.4977 367.308 61.0193 366.116L60.9955 364.615Z" fill="#263238"/>
<path d="M119.501 230.804C120.084 227.992 113.781 200.074 111.315 191.245L100.388 203.994L107.108 231.543C105.856 239.248 104.024 246.848 101.627 254.278C101.189 255.431 100.34 256.381 99.2442 256.947C96.3249 258.508 95.0857 260.224 92.8337 262.285C91.0702 263.894 89.6403 264.227 89.8191 264.799C90.0953 265.424 90.5971 265.922 91.2243 266.194C91.8515 266.466 92.5581 266.491 93.2031 266.265C94.6482 265.806 96.0357 265.183 97.3378 264.406C96.195 266.865 94.6664 269.126 92.8099 271.102C88.5679 275.63 88.1986 278.573 96.0985 279.169C101.043 279.55 105.202 276.786 109.67 266.062C110.957 263 112.578 258.532 113.793 254.492C116.653 244.972 118.154 237.358 119.501 230.804Z" fill="#FFA8A7"/>
<path d="M96.6705 195.987C93.6916 189.148 95.1811 181.14 98.4817 178.03C106.823 179.472 109.003 183.44 111.315 191.245C114.889 203.279 116.665 211.096 116.665 211.096C114.568 213.884 106.215 217.125 102.295 215.934L96.6705 195.987Z" fill="#FABB03"/>
<path opacity="0.1" d="M96.6705 195.987C93.6916 189.148 95.1811 181.14 98.4817 178.03C106.823 179.472 109.003 183.44 111.315 191.245C114.889 203.279 116.665 211.096 116.665 211.096C114.568 213.884 106.215 217.125 102.295 215.934L96.6705 195.987Z" fill="black"/>
<path opacity="0.1" d="M102.295 215.934L98.4817 202.409L102.295 227.849V215.934Z" fill="black"/>
<path d="M78.9999 264.918C74.1614 263.409 69.712 260.859 65.9644 257.447C65.9644 257.447 68.4785 262.154 75.9615 266.539L75.5563 292.276L78.9999 264.918Z" fill="#263238"/>
</svg>
