<svg width="150" height="128" viewBox="0 0 150 128" fill="none" xmlns="http://www.w3.org/2000/svg">
<path d="M28 39.9752V93.9255L83.2191 62.0461L83.2156 13L42.1586 36.7057L40.7399 32.617L28 39.9752Z" fill="#FABB03"/>
<path opacity="0.7" d="M28 39.9752V93.9255L83.2191 62.0461L83.2156 13L42.1586 36.7057L40.7399 32.617L28 39.9752Z" fill="black"/>
<path d="M28 93.9255L30.8303 44.8794L86.0494 13L83.2191 62.0461L28 93.9255Z" fill="#E0E0E0"/>
<path d="M28 93.9253L32.2455 45.6983L87.4646 13.8154L83.2191 62.0458L28 93.9253Z" fill="#FABB03"/>
<path opacity="0.7" d="M28 93.9253L32.2455 45.6983L87.4646 13.8154L83.2191 62.0458L28 93.9253Z" fill="black"/>
<path d="M36.4944 44.879V98.8328L91.7135 66.9499V17.9038L50.653 41.6095L49.2378 37.5208L36.4944 44.879Z" fill="#FABB03"/>
<path opacity="0.5" d="M36.4944 44.879V98.8328L91.7135 66.9499V17.9038L50.653 41.6095L49.2378 37.5208L36.4944 44.879Z" fill="black"/>
<path d="M36.4944 98.8328L39.3248 49.7832L94.5438 17.9038L91.7135 66.9499L36.4944 98.8328Z" fill="#E0E0E0"/>
<path d="M36.4944 98.8335L40.7399 50.6031L95.959 18.7202L91.7135 66.9506L36.4944 98.8335Z" fill="#FABB03"/>
<path opacity="0.5" d="M36.4944 98.8335L40.7399 50.6031L95.959 18.7202L91.7135 66.9506L36.4944 98.8335Z" fill="black"/>
<path d="M83.2051 116C73.2921 110.276 64.097 104.055 59.9003 96.7557L72.6577 89.3906L83.2051 116Z" fill="#E0E0E0"/>
<path d="M46.4041 50.6026V104.553L101.623 72.6735V23.6274L60.5626 47.3331L59.1475 43.2445L46.4041 50.6026Z" fill="#FABB03"/>
<path opacity="0.2" d="M46.4041 50.6026V104.553L101.623 72.6735V23.6274L60.5626 47.3331L59.1475 43.2445L46.4041 50.6026Z" fill="black"/>
<path d="M46.4041 104.553L56.3137 61.2306L111.533 29.3477L101.623 72.6738L46.4041 104.553Z" fill="#FABB03"/>
<path d="M59.9143 64.6212V96.7551L72.6577 89.397V57.2666L59.9143 64.6212Z" fill="#FABB03"/>
<path opacity="0.2" d="M59.9143 64.6212V96.7551L72.6577 89.397V57.2666L59.9143 64.6212Z" fill="black"/>
<path d="M83.2295 115.79C82.1455 114.982 71.6956 106.996 66.3836 95.5739C60.7299 83.43 60.7369 69.2645 60.7369 63.935V63.7677L98.6185 41.8989C98.6185 47.2772 98.6185 61.4637 104.297 73.6494C109.487 84.8033 119.536 92.6878 121.129 93.8938L83.2295 115.79Z" fill="white"/>
<path d="M98.4443 42.213C98.4443 47.8179 98.5523 61.7324 104.14 73.7369C109.156 84.5074 118.692 92.2525 120.815 93.8872L83.24 115.582C81.7726 114.477 71.7166 106.624 66.5439 95.515C60.8972 83.406 60.8972 69.2683 60.8972 63.9458V63.8796L98.4303 42.2095L98.4443 42.213ZM98.7789 41.6065L60.5487 63.6809C60.5487 68.6967 60.4441 83.27 66.2128 95.6614C71.8909 107.823 83.2052 116 83.2052 116L121.446 93.9221C121.446 93.9221 110.118 85.7448 104.457 73.5835C98.6848 61.1922 98.7928 46.6188 98.7928 41.603L98.7789 41.6065Z" fill="#FABB03"/>
<path opacity="0.7" d="M98.4443 42.213C98.4443 47.8179 98.5523 61.7324 104.14 73.7369C109.156 84.5074 118.692 92.2525 120.815 93.8872L83.24 115.582C81.7726 114.477 71.7166 106.624 66.5439 95.515C60.8972 83.406 60.8972 69.2683 60.8972 63.9458V63.8796L98.4303 42.2095L98.4443 42.213ZM98.7789 41.6065L60.5487 63.6809C60.5487 68.6967 60.4441 83.27 66.2128 95.6614C71.8909 107.823 83.2052 116 83.2052 116L121.446 93.9221C121.446 93.9221 110.118 85.7448 104.457 73.5835C98.6848 61.1922 98.7928 46.6188 98.7928 41.603L98.7789 41.6065Z" fill="white"/>
<path d="M94.4672 49.0099L82.3791 55.9811C82.1371 56.1143 81.9309 56.304 81.778 56.534C81.625 56.764 81.5299 57.0275 81.5007 57.3022C81.5181 57.7449 81.9399 57.8703 82.4383 57.581L94.5299 50.6098C94.769 50.4779 94.9731 50.2907 95.1253 50.064C95.2775 49.8372 95.3733 49.5774 95.4048 49.3062C95.3839 48.8461 94.9691 48.7206 94.4672 49.0099Z" fill="#455A64"/>
<path d="M94.7251 53.7677L82.637 60.7389C82.3979 60.8675 82.1952 61.0544 82.0477 61.2823C81.9003 61.5103 81.8128 61.7718 81.7935 62.0425C81.8318 62.4713 82.271 62.5863 82.7695 62.297L94.861 55.3258C95.099 55.1977 95.3003 55.0111 95.4461 54.7837C95.5918 54.5562 95.6772 54.2953 95.6941 54.0256C95.6592 53.5934 95.227 53.4888 94.7251 53.7677Z" fill="#455A64"/>
<path d="M95.2096 58.3925L83.118 65.3637C82.6196 65.653 82.2571 66.2281 82.3163 66.6429C82.3756 67.0577 82.8322 67.1658 83.3341 66.8765L95.4257 59.9052C95.9242 59.6159 96.2797 59.0443 96.217 58.6295C96.1542 58.2147 95.7081 58.1032 95.2096 58.3925Z" fill="#455A64"/>
<path d="M95.9346 62.8788L83.843 69.85C83.3446 70.1393 82.9995 70.704 83.0832 71.1083C83.1668 71.5127 83.6409 71.6033 84.1288 71.314L96.2169 64.3428C96.7189 64.0535 97.0535 63.4923 96.9698 63.088C96.8862 62.6836 96.4505 62.5895 95.9346 62.8788Z" fill="#455A64"/>
<path d="M96.9176 67.2149L84.826 74.1861C84.3276 74.4754 84.0034 75.0261 84.1289 75.413C84.2544 75.7999 84.7319 75.8871 85.2303 75.5978L97.3219 68.6265C97.8238 68.3372 98.1376 67.79 98.019 67.3996C97.9005 67.0092 97.416 66.9256 96.9176 67.2149Z" fill="#455A64"/>
<path d="M98.1933 71.3941L68.7259 88.4074C68.2275 88.6967 67.9242 89.2335 68.0602 89.6064C68.1961 89.9794 68.7155 90.0491 69.2139 89.7598L98.6813 72.7465C99.1832 72.4572 99.4725 71.9239 99.3366 71.5475C99.2006 71.171 98.6743 71.1048 98.1933 71.3941Z" fill="#455A64"/>
<path d="M99.7444 75.3856L70.2805 92.3989C69.7786 92.6882 69.5032 93.211 69.6705 93.5666C69.8378 93.9221 70.3676 93.9778 70.8765 93.6885L100.344 76.6753C100.846 76.386 101.114 75.8631 100.947 75.5076C100.78 75.1521 100.246 75.0998 99.7444 75.3856Z" fill="#455A64"/>
<path d="M101.679 79.1877L72.2115 96.201C71.7096 96.4903 71.4621 96.9992 71.6608 97.3373C71.8595 97.6754 72.4276 97.7102 72.9296 97.4209L102.376 80.4077C102.874 80.1218 103.115 79.6164 102.916 79.2783C102.718 78.9402 102.167 78.8984 101.679 79.1877Z" fill="#455A64"/>
<path d="M103.934 82.7853L74.4702 99.7951C73.9683 100.084 73.7452 100.583 73.9718 100.9C74.1983 101.217 74.7944 101.249 75.2963 100.956L104.76 83.9426C105.262 83.6533 105.478 83.1618 105.252 82.8411C105.025 82.5204 104.436 82.496 103.934 82.7853Z" fill="#455A64"/>
<path d="M106.506 86.2045L77.0391 103.214C76.5407 103.504 76.342 103.988 76.5929 104.291C76.8439 104.595 77.4609 104.609 77.9628 104.319L107.43 87.299C107.929 87.0097 108.127 86.5321 107.869 86.2289C107.611 85.9256 107.008 85.9047 106.506 86.2045Z" fill="#455A64"/>
<path d="M109.347 89.4601L79.8903 106.47C79.3884 106.759 79.1932 107.233 79.486 107.516C79.7788 107.798 80.3992 107.805 80.8977 107.516L110.365 90.5023C110.867 90.213 111.041 89.7459 110.762 89.4566C110.484 89.1673 109.856 89.1743 109.347 89.4601Z" fill="#455A64"/>
<path d="M112.484 92.5728L83.0169 109.583C82.5185 109.872 82.3547 110.335 82.6684 110.611C82.9821 110.886 83.6234 110.876 84.1254 110.586L113.568 93.5732C114.067 93.2839 114.224 92.8307 113.917 92.5519C113.61 92.273 112.972 92.2835 112.484 92.5728Z" fill="#455A64"/>
<path d="M77.9977 58.522L64.097 66.5389C64.2504 71.5756 64.8255 78.8396 66.9309 86.1559L80.835 78.139C78.7262 70.8227 78.151 63.5552 77.9977 58.522Z" fill="#FABB03"/>
<path opacity="0.8" d="M77.9977 58.522L64.097 66.5389C64.2504 71.5756 64.8255 78.8396 66.9309 86.1559L80.835 78.139C78.7262 70.8227 78.151 63.5552 77.9977 58.522Z" fill="white"/>
<path d="M69.7647 65.4302C69.7834 65.1051 69.7328 64.7797 69.6162 64.4756C69.4997 64.1716 69.3197 63.8958 69.0884 63.6665L64.097 66.5456C64.1389 67.8771 64.2086 69.3655 64.3306 70.9689C64.9799 71.0435 65.6366 70.9221 66.2163 70.6203C68.1787 69.721 69.7647 67.3891 69.7647 65.4302Z" fill="#FABB03"/>
<path opacity="0.6" d="M69.7647 65.4302C69.7834 65.1051 69.7328 64.7797 69.6162 64.4756C69.4997 64.1716 69.3197 63.8958 69.0884 63.6665L64.097 66.5456C64.1389 67.8771 64.2086 69.3655 64.3306 70.9689C64.9799 71.0435 65.6366 70.9221 66.2163 70.6203C68.1787 69.721 69.7647 67.3891 69.7647 65.4302Z" fill="white"/>
<path d="M79.6533 73.3292C78.7262 72.1615 76.8404 68.5539 76.0353 66.9819C76.0036 66.9198 75.9541 66.8685 75.893 66.8349C75.8319 66.8012 75.7622 66.7866 75.6928 66.793C75.6233 66.7993 75.5574 66.8264 75.5035 66.8706C75.4496 66.9149 75.4102 66.9743 75.3904 67.0412C74.5193 70.0187 74.0137 73.0912 73.8846 76.1909C72.7238 75.2693 71.7258 74.1594 70.9323 72.9074C70.8985 72.8589 70.8515 72.8211 70.7969 72.7984C70.7423 72.7757 70.6823 72.7691 70.6241 72.7794C70.5658 72.7896 70.5117 72.8163 70.4682 72.8563C70.4246 72.8963 70.3933 72.9479 70.3781 73.005C68.8584 78.8574 69.6217 84.6156 69.6217 84.6156L80.835 78.1393C80.3679 76.522 79.981 74.9117 79.6533 73.3292Z" fill="#FABB03"/>
<path opacity="0.6" d="M79.6533 73.3292C78.7262 72.1615 76.8404 68.5539 76.0353 66.9819C76.0036 66.9198 75.9541 66.8685 75.893 66.8349C75.8319 66.8012 75.7622 66.7866 75.6928 66.793C75.6233 66.7993 75.5574 66.8264 75.5035 66.8706C75.4496 66.9149 75.4102 66.9743 75.3904 67.0412C74.5193 70.0187 74.0137 73.0912 73.8846 76.1909C72.7238 75.2693 71.7258 74.1594 70.9323 72.9074C70.8985 72.8589 70.8515 72.8211 70.7969 72.7984C70.7423 72.7757 70.6823 72.7691 70.6241 72.7794C70.5658 72.7896 70.5117 72.8163 70.4682 72.8563C70.4246 72.8963 70.3933 72.9479 70.3781 73.005C68.8584 78.8574 69.6217 84.6156 69.6217 84.6156L80.835 78.1393C80.3679 76.522 79.981 74.9117 79.6533 73.3292Z" fill="white"/>
</svg>
