<svg width="150" height="128" viewBox="0 0 150 128" fill="none" xmlns="http://www.w3.org/2000/svg">
<path d="M131.927 66.4383C130.859 62.7408 128.951 59.3404 126.35 56.5031C123.282 53.134 119.691 50.2822 115.714 48.0579C111.094 45.4409 106.182 43.379 101.078 41.9151C95.4623 40.2934 89.701 39.226 83.8769 38.7282C77.8582 38.1785 71.802 38.1785 65.7833 38.7282C59.9567 39.2267 54.1929 40.2941 48.5741 41.9151C43.4681 43.3792 38.5528 45.4411 33.9304 48.0579C29.9525 50.2806 26.3606 53.1326 23.2941 56.5031C20.6938 59.3404 18.785 62.7408 17.717 66.4383C16.7727 69.8586 16.7727 73.4709 17.717 76.8913C18.7832 80.5871 20.6923 83.9853 23.2941 86.8184C26.36 90.1918 29.9519 93.0465 33.9304 95.2717C38.5444 97.8866 43.4518 99.9458 48.5502 101.406C54.1722 103.025 59.9385 104.092 65.7674 104.593C71.7864 105.135 77.8419 105.135 83.861 104.593C89.6899 104.092 95.4561 103.025 101.078 101.406C106.178 99.9466 111.086 97.8844 115.698 95.2637C119.682 93.0432 123.28 90.1911 126.35 86.8184C128.952 83.9853 130.861 80.5871 131.927 76.8913C132.872 73.4709 132.872 69.8586 131.927 66.4383Z" fill="#CBCBCB"/>
<path d="M17 66.4307H132.628V72.3264L17 71.9997V66.4307Z" fill="#CBCBCB"/>
<path d="M65.7993 33.4785L74.8341 66.431L48.5901 36.6973C54.2077 35.0655 59.9716 33.9874 65.7993 33.4785Z" fill="white"/>
<path d="M83.861 33.4782L74.8261 66.4307L65.7993 33.4782C71.8074 32.9304 77.8529 32.9304 83.861 33.4782Z" fill="white"/>
<path d="M101.062 36.6973L74.8261 66.431L83.861 33.4785C89.6861 33.9867 95.4474 35.0648 101.062 36.6973Z" fill="white"/>
<path d="M126.35 51.2852C128.951 54.1254 130.859 57.5284 131.927 61.2282L74.8421 66.4468L126.35 51.2852Z" fill="white"/>
<path d="M131.927 61.228C132.871 64.6457 132.871 68.2554 131.927 71.6731L74.8421 66.4466L131.927 61.228Z" fill="white"/>
<path d="M131.927 71.6733C130.86 75.3709 128.951 78.7713 126.35 81.6084L74.8421 66.4707L131.927 71.6733Z" fill="white"/>
<path d="M126.35 81.6079C123.278 84.9753 119.684 87.8267 115.706 90.0532L74.8182 66.4463L126.35 81.6079Z" fill="white"/>
<path d="M74.8261 66.4546L101.078 96.1962C95.4562 97.8149 89.6899 98.8822 83.861 99.3831L74.8102 66.4307L74.8261 66.4546Z" fill="white"/>
<path d="M74.8102 66.4629L83.861 99.3835C77.8527 99.9273 71.8075 99.9273 65.7993 99.3835L74.8102 66.4629Z" fill="white"/>
<path d="M74.8022 66.4546L65.7993 99.3831C59.9704 98.8822 54.2041 97.8149 48.5821 96.1962L74.8022 66.4546Z" fill="white"/>
<path d="M74.8022 66.4546L48.5104 96.1962C43.4267 94.7265 38.5331 92.6648 33.9304 90.0535L74.8022 66.4546Z" fill="white"/>
<path d="M74.7943 66.4463L23.2861 81.584C20.6856 78.7469 18.7768 75.3465 17.7091 71.6489L74.7943 66.4463Z" fill="white"/>
<path d="M74.7943 66.4466L17.7091 71.6731C16.7651 68.2554 16.7651 64.6457 17.7091 61.228L74.7943 66.4466Z" fill="white"/>
<path d="M74.7943 66.4385L17.7091 61.22C18.777 57.5201 20.6857 54.1171 23.2861 51.2769L74.7943 66.4385Z" fill="white"/>
<path d="M33.9303 42.8159L74.7943 66.4069L23.2941 51.2691C26.3594 47.8951 29.9514 45.0404 33.9303 42.8159Z" fill="white"/>
<path d="M115.698 42.8156L74.8261 66.4065L101.062 36.6729C106.167 38.1334 111.08 40.1954 115.698 42.8156Z" fill="white"/>
<path d="M115.698 42.8159C119.682 45.0459 123.28 47.9059 126.35 51.2851L74.85 66.4228L115.698 42.8159Z" fill="white"/>
<path d="M74.8022 66.4385L33.9304 90.0534C29.9512 87.829 26.357 84.9773 23.2861 81.6081L74.7943 66.4704L74.8022 66.4385Z" fill="white"/>
<path d="M48.5582 36.6968L74.8022 66.4305L33.9304 42.8156C38.5474 40.2051 43.4576 38.1512 48.5582 36.6968Z" fill="white"/>
<path d="M74.8261 66.4546L115.698 90.0535C111.083 92.6677 106.176 94.7295 101.078 96.1962L74.8261 66.4546Z" fill="white"/>
<path d="M90.187 46.0027L96.7759 38.5295C96.7759 29.7655 86.0679 29.5504 81.3354 29.1282C76.6029 28.7059 68.4843 25.9891 68.4843 35.964L70.747 44.2181C77.2803 43.7983 83.8392 44.4004 90.187 46.0027Z" fill="#FABB03"/>
<path opacity="0.6" d="M90.187 46.0027L96.7759 38.5295C96.7759 29.7655 86.0679 29.5504 81.3354 29.1282C76.6029 28.7059 68.4843 25.9891 68.4843 35.964L70.747 44.2181C77.2803 43.7983 83.8392 44.4004 90.187 46.0027Z" fill="white"/>
<path d="M90.187 34.2669L96.7759 26.8016C87.5499 24.4005 77.9917 23.5338 68.4843 24.2362L70.747 32.4584C77.2816 32.0464 83.8405 32.6566 90.187 34.2669Z" fill="#FABB03"/>
<path opacity="0.8" d="M90.187 34.2669L96.7759 26.8016C87.5499 24.4005 77.9917 23.5338 68.4843 24.2362L70.747 32.4584C77.2816 32.0464 83.8405 32.6566 90.187 34.2669Z" fill="white"/>
<path d="M70.747 32.4904V44.2341L68.4843 35.98V24.2363L70.747 32.4904Z" fill="#FABB03"/>
<path d="M96.7759 26.8013L90.187 34.2666V46.0182L96.7759 38.545V26.8013Z" fill="#FABB03"/>
<g opacity="0.6">
<path opacity="0.6" d="M70.747 32.4904V44.2341L68.4843 35.98V24.2363L70.747 32.4904Z" fill="white"/>
<path opacity="0.6" d="M96.7759 26.8018L90.187 34.267V46.0187L96.7759 38.5455V26.8018Z" fill="white"/>
</g>
<path d="M93.4057 35.2154V46.9591C96.1548 47.8466 98.8079 49.0076 101.325 50.4248C103.522 51.672 105.54 53.2104 107.324 54.998L120.247 51.1976C117.678 48.5749 114.752 46.3273 111.555 44.5211C108.026 42.4974 104.249 34.2912 93.4057 35.2154Z" fill="#FABB03"/>
<path opacity="0.6" d="M93.4057 35.2154V46.9591C96.1548 47.8466 98.8079 49.0076 101.325 50.4248C103.522 51.672 105.54 53.2104 107.324 54.998L120.247 51.1976C117.678 48.5749 114.752 46.3273 111.555 44.5211C108.026 42.4974 104.249 34.2912 93.4057 35.2154Z" fill="black"/>
<path d="M99.9946 27.7578L93.4057 35.2151C96.1574 36.0958 98.8111 37.2571 101.325 38.6809C103.522 39.9281 105.54 41.4664 107.324 43.2541L120.247 39.4537C117.682 36.8262 114.755 34.5781 111.555 32.7772C107.892 30.6955 104.016 29.0127 99.9946 27.7578Z" fill="#FABB03"/>
<path opacity="0.3" d="M99.9946 27.7578L93.4057 35.2151C96.1574 36.0958 98.8111 37.2571 101.325 38.6809C103.522 39.9281 105.54 41.4664 107.324 43.2541L120.247 39.4537C117.682 36.8262 114.755 34.5781 111.555 32.7772C107.892 30.6955 104.016 29.0127 99.9946 27.7578Z" fill="black"/>
<path d="M107.324 43.2541L120.247 39.4458V51.1975L107.324 54.9978V43.2541Z" fill="#FABB03"/>
<path opacity="0.6" d="M107.324 43.2541L120.247 39.4458V51.1975L107.324 54.9978V43.2541Z" fill="black"/>
<path d="M126.733 53.6751H122.367C122.207 53.4679 122.072 53.2608 121.912 53.0537L108.974 45.0864V56.8381C111.73 60.3835 112.774 64.2556 112.057 68.0559L126.35 69.3865C126.592 68.2014 126.712 66.9947 126.709 65.7853L126.733 53.6751Z" fill="#FABB03"/>
<path opacity="0.6" d="M126.733 53.6751H122.367C122.207 53.4679 122.072 53.2608 121.912 53.0537L108.974 45.0864V56.8381C111.73 60.3835 112.774 64.2556 112.057 68.0559L126.35 69.3865C126.592 68.2014 126.712 66.9947 126.709 65.7853L126.733 53.6751Z" fill="black"/>
<path d="M112.049 56.3602L126.35 57.6429C127.513 52.1216 126.04 46.441 121.905 41.3101L108.966 45.1104C111.722 48.6559 112.806 52.5359 112.049 56.3602Z" fill="#FABB03"/>
<path opacity="0.3" d="M112.049 56.3602L126.35 57.6429C127.513 52.1216 126.04 46.441 121.905 41.3101L108.966 45.1104C111.722 48.6559 112.806 52.5359 112.049 56.3602Z" fill="black"/>
<path d="M126.35 57.6426V69.3942L112.049 68.0796V56.3359L126.35 57.6426Z" fill="#FABB03"/>
<path opacity="0.6" d="M126.35 57.6426V69.3942L112.049 68.0796V56.3359L126.35 57.6426Z" fill="black"/>
<path d="M67.1776 44.5688V32.8172C59.2104 29.1443 44.3754 32.8729 39.4039 43.8119L49.6338 49.7236C55.1286 46.9755 61.0696 45.2299 67.1776 44.5688Z" fill="#FABB03"/>
<path opacity="0.3" d="M67.1776 44.5688V32.8172C59.2104 29.1443 44.3754 32.8729 39.4039 43.8119L49.6338 49.7236C55.1286 46.9755 61.0696 45.2299 67.1776 44.5688Z" fill="black"/>
<path d="M67.1776 32.817L64.907 24.5391C55.2746 25.6226 46.4549 28.2757 39.4118 32.0681L49.6418 37.9718C55.1341 35.2246 61.0723 33.479 67.1776 32.817Z" fill="#FABB03"/>
<path opacity="0.1" d="M67.1776 32.817L64.907 24.5391C55.2746 25.6226 46.4549 28.2757 39.4118 32.0681L49.6418 37.9718C55.1341 35.2246 61.0723 33.479 67.1776 32.817Z" fill="black"/>
<path d="M49.6338 37.9716V49.7233L39.4039 43.8116V32.0679L49.6338 37.9716Z" fill="#263238"/>
<path d="M38.9337 39.4536L36.8304 45.2777C29.9547 49.5322 25.6125 54.6551 23.8279 60.017L38.1689 61.3237C39.4835 57.6508 42.4792 54.1531 47.1161 51.2053V39.4536H38.9337Z" fill="#FABB03"/>
<path opacity="0.3" d="M38.9337 39.4536L36.8304 45.2777C29.9547 49.5322 25.6125 54.6551 23.8279 60.017L38.1689 61.3237C39.4835 57.6508 42.4792 54.1531 47.1161 51.2053V39.4536H38.9337Z" fill="black"/>
<path d="M47.0842 39.4533L36.8304 33.5337C29.9547 37.7802 25.6125 42.9111 23.8279 48.2651L38.1689 49.5797C39.4516 45.9068 42.4473 42.4012 47.0842 39.4533Z" fill="#FABB03"/>
<path opacity="0.1" d="M47.0842 39.4533L36.8304 33.5337C29.9547 37.7802 25.6125 42.9111 23.8279 48.2651L38.1689 49.5797C39.4516 45.9068 42.4473 42.4012 47.0842 39.4533Z" fill="black"/>
<path d="M23.8279 48.2656V60.0173L38.137 61.3239V49.5802L23.8279 48.2656Z" fill="#263238"/>
<path d="M37.5714 63.3875V51.6359L33.3169 51.2534L22.8958 53.9702V65.706C22.9625 70.369 24.653 74.8628 27.6761 78.4137L40.6149 74.6133C37.914 71.0679 36.8623 67.1879 37.5714 63.3875Z" fill="#FABB03"/>
<path opacity="0.3" d="M37.5714 63.3875V51.6359L33.3169 51.2534L22.8958 53.9702V65.706C22.9625 70.369 24.653 74.8628 27.6761 78.4137L40.6149 74.6133C37.914 71.0679 36.8623 67.1879 37.5714 63.3875Z" fill="black"/>
<path d="M27.7239 66.6697L40.6627 62.8613V74.613L27.7239 78.4133V66.6697Z" fill="#263238"/>
<path d="M37.5794 51.6353L23.2384 50.3286C22.0752 55.8579 23.5491 61.5305 27.6841 66.6694L40.6229 62.8611C37.914 59.3157 36.8623 55.4356 37.5794 51.6353Z" fill="#FABB03"/>
<path opacity="0.1" d="M37.5794 51.6353L23.2384 50.3286C22.0752 55.8579 23.5491 61.5305 27.6841 66.6694L40.6229 62.8611C37.914 59.3157 36.8623 55.4356 37.5794 51.6353Z" fill="black"/>
<path d="M52.8844 78.3973C46.8213 74.8996 43.7938 70.3185 43.7938 65.7373V53.9697H105.835V65.7134C105.835 70.3025 102.807 74.8837 96.744 78.3813C84.6338 85.3925 65.0025 85.3925 52.8844 78.3973Z" fill="#CBCBCB"/>
<path d="M74.4279 68.9281C91.5578 68.9281 105.444 60.9093 105.444 51.0177C105.444 41.1261 91.5578 33.1074 74.4279 33.1074C57.298 33.1074 43.4114 41.1261 43.4114 51.0177C43.4114 60.9093 57.298 68.9281 74.4279 68.9281Z" fill="white"/>
<path d="M49.6338 81.7595V80.2616L29.3731 68.5259V80.2616C31.9435 82.8867 34.8726 85.1345 38.0733 86.9382C41.7362 89.0199 45.6119 90.7026 49.6338 91.9575L56.2147 84.5002C53.9515 83.7636 51.7508 82.8471 49.6338 81.7595Z" fill="#FABB03"/>
<path opacity="0.3" d="M49.6338 81.7595V80.2616L29.3731 68.5259V80.2616C31.9435 82.8867 34.8726 85.1345 38.0733 86.9382C41.7362 89.0199 45.6119 90.7026 49.6338 91.9575L56.2147 84.5002C53.9515 83.7636 51.7508 82.8471 49.6338 81.7595Z" fill="black"/>
<path d="M48.2714 69.2908C46.0723 68.0469 44.0516 66.5112 42.2641 64.7256L29.3412 68.5259C31.9136 71.1487 34.8425 73.3963 38.0415 75.2025C41.706 77.2809 45.5813 78.9635 49.6019 80.2219L56.1828 72.7565C53.4337 71.8759 50.7826 70.7146 48.2714 69.2908Z" fill="#FABB03"/>
<path opacity="0.1" d="M48.2714 69.2908C46.0723 68.0469 44.0516 66.5112 42.2641 64.7256L29.3412 68.5259C31.9136 71.1487 34.8425 73.3963 38.0415 75.2025C41.706 77.2809 45.5813 78.9635 49.6019 80.2219L56.1828 72.7565C53.4337 71.8759 50.7826 70.7146 48.2714 69.2908Z" fill="black"/>
<path d="M49.6338 91.9658V80.2221L56.2147 72.7568V84.5085L49.6338 91.9658Z" fill="#263238"/>
<path d="M52.8525 81.1699V92.9216C62.0785 95.3227 71.6367 96.1894 81.1442 95.487V83.7433L52.8525 81.1699Z" fill="#FABB03"/>
<path opacity="0.1" d="M52.8525 81.1699V92.9216C62.0785 95.3227 71.6367 96.1894 81.1442 95.487V83.7433L52.8525 81.1699Z" fill="black"/>
<path d="M59.4255 73.7046L52.8366 81.1699C62.0628 83.5698 71.6204 84.4392 81.1282 83.7433L78.8815 75.4813C72.3432 75.9053 65.7788 75.3059 59.4255 73.7046Z" fill="#FABB03"/>
<path opacity="0.2" d="M59.4255 73.7046L52.8366 81.1699C62.0628 83.5698 71.6204 84.4392 81.1282 83.7433L78.8815 75.4813C72.3432 75.9053 65.7788 75.3059 59.4255 73.7046Z" fill="white"/>
<path d="M102.544 80.262L112.806 86.1896C119.682 81.9431 124.024 76.8122 125.808 71.4502V59.7065L111.467 70.1436C110.177 73.8165 107.181 77.3221 102.544 80.262Z" fill="#FABB03"/>
<path opacity="0.1" d="M102.544 80.262L112.806 86.1896C119.682 81.9431 124.024 76.8122 125.808 71.4502V59.7065L111.467 70.1436C110.177 73.8165 107.181 77.3221 102.544 80.262Z" fill="black"/>
<path d="M102.544 68.5183L112.806 74.4459C119.682 70.1914 124.024 65.0685 125.808 59.7065L111.467 58.3999C110.177 62.0728 107.181 65.5704 102.544 68.5183Z" fill="#FABB03"/>
<path opacity="0.2" d="M102.544 68.5183L112.806 74.4459C119.682 70.1914 124.024 65.0685 125.808 59.7065L111.467 58.3999C110.177 62.0728 107.181 65.5704 102.544 68.5183Z" fill="white"/>
<path d="M112.798 74.4457V86.1894L102.544 80.2697V68.5181L112.798 74.4457Z" fill="#FABB03"/>
<path opacity="0.3" d="M112.798 74.4457V86.1894L102.544 80.2697V68.5181L112.798 74.4457Z" fill="black"/>
<path d="M84.7215 83.4485V86.6354C83.9646 86.7549 83.2157 86.8585 82.4508 86.9461L84.7215 95.2161C94.0033 94.1803 102.879 91.6707 110.217 87.703V75.9194L84.7215 83.4485Z" fill="#FABB03"/>
<path opacity="0.1" d="M84.7215 83.4485V86.6354C83.9646 86.7549 83.2157 86.8585 82.4508 86.9461L84.7215 95.2161C94.0033 94.1803 102.879 91.6707 110.217 87.703V75.9194L84.7215 83.4485Z" fill="black"/>
<path d="M82.4508 75.1624L84.7215 83.4484C94.0033 82.4126 102.879 79.9109 110.217 75.9432L99.9628 70.0156C94.4819 72.7689 88.5498 74.5124 82.4508 75.1624Z" fill="#FABB03"/>
<path opacity="0.2" d="M82.4508 75.1624L84.7215 83.4484C94.0033 82.4126 102.879 79.9109 110.217 75.9432L99.9628 70.0156C94.4819 72.7689 88.5498 74.5124 82.4508 75.1624Z" fill="white"/>
<path d="M84.7215 83.4246V95.1683L82.4508 86.9143V75.1626L84.7215 83.4246Z" fill="#FABB03"/>
<path opacity="0.3" d="M84.7215 83.4246V95.1683L82.4508 86.9143V75.1626L84.7215 83.4246Z" fill="black"/>
</svg>
