<svg width="150" height="128" viewBox="0 0 150 128" fill="none" xmlns="http://www.w3.org/2000/svg">
<g clip-path="url(#clip0)">
<path d="M60.0936 13.7049C52.5558 15.4532 46.1366 22.1634 42.6123 33.4306C35.5643 55.95 42.7722 88.1028 58.7066 105.258C66.7006 113.864 75.3733 117.048 82.9173 115.244C84.88 114.774 87.4713 114.252 89.4562 113.79C96.9868 112.034 103.406 105.324 106.93 94.0642C113.974 71.5485 106.766 39.3957 90.8318 22.2407C82.8701 13.669 74.2429 10.4714 66.7341 12.2431" fill="#FABB03"/>
<path opacity="0.2" d="M59.0099 105.281C66.9875 113.88 75.6424 117.061 83.1708 115.258C85.1295 114.789 87.7155 114.268 89.6963 113.806C97.2115 112.052 103.617 105.348 107.134 94.1057L59.0099 105.281Z" fill="black"/>
<path opacity="0.1" d="M45.7396 83.1696C48.9253 91.648 53.3796 99.3499 58.8679 105.264L107.02 94.0895C109.445 86.3209 110.18 77.4048 109.46 68.3452L45.7396 83.1696Z" fill="black"/>
<path opacity="0.4" d="M109.272 68.2971C107.866 51.1314 101.185 33.4574 90.7442 22.2121C82.7877 13.643 74.1664 10.4463 66.6627 12.2175L60.0409 13.6943C52.5082 15.4421 46.0933 22.1502 42.5714 33.414C37.9582 48.1589 39.4571 67.0292 45.5113 83.1129L109.272 68.2971Z" fill="white"/>
<path d="M49.2136 31.9734C42.1721 54.4945 49.3736 86.649 65.3066 103.801C81.2397 120.953 99.8723 116.602 106.917 94.0845C113.962 71.5673 106.769 39.398 90.8169 22.2565C74.8647 5.11502 56.2431 9.47072 49.2136 31.9734Z" fill="#FABB03"/>
<path d="M56.4194 39.7301C51.1382 56.6228 56.5398 80.7491 68.4971 93.6135C80.4543 106.478 94.4268 103.216 99.708 86.3233C104.989 69.4306 99.5957 45.2896 87.6496 32.4293C75.7034 19.569 61.7081 22.8377 56.4194 39.7301Z" fill="#FAFAFA"/>
<path d="M62.9824 46.7962C59.2978 58.565 63.0683 75.3766 71.3828 84.3273C79.6972 93.278 89.4484 91.0148 93.1294 79.2422C96.8104 67.4695 93.0435 50.6617 84.7291 41.711C76.4146 32.7603 66.6635 35.0235 62.9824 46.7962Z" fill="#FABB03"/>
<path d="M69.7149 54.0429C67.6772 60.5548 69.7463 69.8438 74.3719 74.8232C78.9974 79.8026 84.3664 78.5366 86.4159 72.0138C88.4654 65.491 86.3665 56.1935 81.7554 51.2295C77.1442 46.2656 71.7566 47.5273 69.7149 54.0429Z" fill="#FAFAFA"/>
<path d="M74.5413 59.2385C73.6826 61.9857 74.5635 65.9089 76.5081 68.0025C78.4527 70.096 80.7256 69.5679 81.5843 66.8207C82.443 64.0734 81.566 60.1466 79.6214 58.0531C77.6767 55.9595 75.4039 56.4876 74.5413 59.2385Z" fill="#B1B1B1"/>
</g>
<defs>
<clipPath id="clip0">
<rect width="150" height="128" fill="white"/>
</clipPath>
</defs>
</svg>
