<svg width="50" height="50" viewBox="0 0 50 50" fill="none" xmlns="http://www.w3.org/2000/svg">
<path d="M20.8333 16.6667C20.8333 16.1142 21.0528 15.5843 21.4435 15.1936C21.8342 14.8029 22.3641 14.5834 22.9166 14.5834C23.4692 14.5834 23.9991 14.8029 24.3898 15.1936C24.7805 15.5843 25 16.1142 25 16.6667V25.9792L27.5208 26.2501L37.8125 30.8126C38.9166 31.3126 39.5833 32.4167 39.5833 33.6251V42.7084C39.5208 44.4167 38.1666 45.7709 36.4583 45.8334H22.9166C22.125 45.8334 21.375 45.5209 20.8333 44.9376L10.625 36.1876L12.1666 34.5834C12.5625 34.1459 13.125 33.9167 13.7083 33.9167H14.1666L20.8333 37.5001V16.6667ZM22.9166 8.33341C25.1268 8.33341 27.2464 9.21139 28.8092 10.7742C30.372 12.337 31.25 14.4566 31.25 16.6667C31.25 19.7917 29.5833 22.4376 27.0833 23.8751V21.3334C28.3541 20.1876 29.1666 18.5209 29.1666 16.6667C29.1666 15.0091 28.5081 13.4194 27.336 12.2473C26.1639 11.0752 24.5742 10.4167 22.9166 10.4167C21.259 10.4167 19.6693 11.0752 18.4972 12.2473C17.3251 13.4194 16.6666 15.0091 16.6666 16.6667C16.6666 18.5209 17.4791 20.1876 18.75 21.3334V23.8751C16.25 22.4376 14.5833 19.7917 14.5833 16.6667C14.5833 14.4566 15.4613 12.337 17.0241 10.7742C18.5869 9.21139 20.7065 8.33341 22.9166 8.33341ZM22.9166 4.16675C26.2318 4.16675 29.4113 5.48371 31.7555 7.82791C34.0997 10.1721 35.4166 13.3515 35.4166 16.6667C35.4166 20.2084 33.9375 23.3959 31.5833 25.6876L29.5 24.7501C31.8333 22.8334 33.3333 19.9167 33.3333 16.6667C33.3333 13.9041 32.2358 11.2546 30.2823 9.30105C28.3288 7.34755 25.6793 6.25008 22.9166 6.25008C20.154 6.25008 17.5044 7.34755 15.5509 9.30105C13.5974 11.2546 12.5 13.9041 12.5 16.6667C12.5 20.9376 15.0625 24.6042 18.75 26.2084V28.4584C13.8958 26.7292 10.4166 22.1042 10.4166 16.6667C10.4166 13.3515 11.7336 10.1721 14.0778 7.82791C16.422 5.48371 19.6014 4.16675 22.9166 4.16675Z" fill="#FABB03"/>
</svg>
