<svg width="345" height="317" viewBox="0 0 345 317" fill="none" xmlns="http://www.w3.org/2000/svg">
<path d="M172.466 317C267.717 317 344.932 272.428 344.932 217.445C344.932 162.462 267.717 117.889 172.466 117.889C77.2158 117.889 0 162.462 0 217.445C0 272.428 77.2158 317 172.466 317Z" fill="#F5F5F5"/>
<path d="M19.819 197.721L207.953 306.338C209.086 306.911 210.338 307.21 211.607 307.21C212.877 307.21 214.128 306.911 215.261 306.338L317.674 247.21C319.691 246.041 319.691 244.155 317.674 242.986L129.54 134.369C128.407 133.796 127.155 133.498 125.886 133.498C124.616 133.498 123.365 133.796 122.232 134.369L19.819 193.497C17.7947 194.666 17.7947 196.552 19.819 197.721Z" fill="#E0E0E0"/>
<path d="M33.9525 185.977L41.5235 182.564C41.5235 182.564 44.8266 167.415 44.8632 155.43C44.907 138.622 36.1668 117.429 22.8372 120.841C9.50758 124.254 26.535 143.13 29.2754 157.702C32.0159 172.274 33.9525 185.977 33.9525 185.977Z" fill="#FABB03"/>
<path opacity="0.15" d="M33.9525 185.977L41.5235 182.564C41.5235 182.564 44.8266 167.415 44.8632 155.43C44.907 138.622 36.1668 117.429 22.8372 120.841C9.50758 124.254 26.535 143.13 29.2754 157.702C32.0159 172.274 33.9525 185.977 33.9525 185.977Z" fill="black"/>
<path d="M37.8914 184.618C37.8346 184.611 37.7797 184.592 37.7301 184.564C37.6805 184.535 37.637 184.497 37.6023 184.451C37.5676 184.406 37.5424 184.354 37.528 184.298C37.5136 184.243 37.5105 184.185 37.5187 184.128C42.5246 147.194 25.9576 126.688 25.8261 126.484C25.789 126.44 25.761 126.389 25.7439 126.334C25.7267 126.279 25.7207 126.222 25.7261 126.165C25.7316 126.107 25.7484 126.052 25.7756 126.001C25.8028 125.951 25.8398 125.906 25.8845 125.87C25.9739 125.797 26.0886 125.762 26.2035 125.773C26.3184 125.784 26.4244 125.84 26.4984 125.928C26.6665 126.133 43.4746 146.939 38.4176 184.245C38.4098 184.305 38.3897 184.363 38.3585 184.415C38.3272 184.467 38.2856 184.512 38.2362 184.547C38.1867 184.582 38.1306 184.606 38.0712 184.619C38.0119 184.631 37.9507 184.631 37.8914 184.618Z" fill="white"/>
<path d="M29.2316 188.096L34.5809 185.663C34.5809 185.663 36.5102 175.235 32.6443 161.934C29.2827 150.359 19.0736 140.011 13.2784 141.377C7.48327 142.744 7.21288 146.741 9.52949 151.184C11.8461 155.628 27.4484 167.24 29.2316 188.096Z" fill="#FABB03"/>
<path opacity="0.2" d="M29.2316 188.096L34.5809 185.663C34.5809 185.663 36.5102 175.235 32.6443 161.934C29.2827 150.359 19.0736 140.011 13.2784 141.377C7.48327 142.744 7.21288 146.741 9.52949 151.184C11.8461 155.628 27.4484 167.24 29.2316 188.096Z" fill="white"/>
<path d="M31.994 187.248C31.8802 187.236 31.7759 187.179 31.7035 187.09C31.6311 187.001 31.5964 186.888 31.6066 186.773C34.0767 163.344 13.6731 145.287 13.4685 145.118C13.3822 145.043 13.3295 144.936 13.322 144.822C13.3144 144.707 13.3527 144.594 13.4283 144.508C13.5039 144.422 13.6106 144.369 13.725 144.362C13.8395 144.354 13.9522 144.392 14.0385 144.468C14.2504 144.651 34.9902 163.008 32.4763 186.854C32.4708 186.912 32.4539 186.968 32.4267 187.019C32.3994 187.07 32.3623 187.115 32.3174 187.152C32.2726 187.188 32.2209 187.216 32.1654 187.232C32.1099 187.249 32.0516 187.255 31.994 187.248Z" fill="white"/>
<path d="M281.463 57.592C281.47 57.194 281.416 56.7973 281.303 56.4155L285.578 51.5192L280.097 48.4426C279.578 48.0845 278.84 48.0406 277.839 48.6253L268.338 54.1427L267.06 54.8735C267.284 53.7714 267.435 52.6558 267.513 51.5338C267.549 51.0661 267.557 50.6203 267.557 50.1745L267.732 50.2622L270.94 46.5133L265.459 43.4293C263.618 42.3039 260.504 44.5255 260.504 45.4244C260.504 46.506 260.972 52.1696 260.504 53.7919C260.037 55.4143 255.14 66.6027 255.14 66.6027V67.3335V89.9148L273.008 79.5815C275.354 78.2222 276.984 75.3283 276.984 73.3698C277.01 72.493 276.848 71.6208 276.509 70.812C278.029 69.9351 279.541 66.7634 279.541 65.4188C279.541 63.3872 278.847 62.861 278.847 62.861C280.381 61.519 281.321 59.6249 281.463 57.592Z" fill="#FABB03"/>
<path opacity="0.1" d="M281.463 57.592C281.47 57.194 281.416 56.7973 281.303 56.4155L285.578 51.5192L280.097 48.4426C279.578 48.0845 278.84 48.0406 277.839 48.6253L268.338 54.1427L267.06 54.8735C267.284 53.7714 267.435 52.6558 267.513 51.5338C267.549 51.0661 267.557 50.6203 267.557 50.1745L267.732 50.2622L270.94 46.5133L265.459 43.4293C263.618 42.3039 260.504 44.5255 260.504 45.4244C260.504 46.506 260.972 52.1696 260.504 53.7919C260.037 55.4143 255.14 66.6027 255.14 66.6027V67.3335V89.9148L273.008 79.5815C275.354 78.2222 276.984 75.3283 276.984 73.3698C277.01 72.493 276.848 71.6208 276.509 70.812C278.029 69.9351 279.541 66.7634 279.541 65.4188C279.541 63.3872 278.847 62.861 278.847 62.861C280.381 61.519 281.321 59.6249 281.463 57.592Z" fill="black"/>
<path d="M260.789 93.1232L255.133 89.8566L255.119 66.5298L260.768 69.7964L260.789 93.1232Z" fill="#E0E0E0"/>
<path d="M260.789 93.1232L255.133 89.8566L255.119 66.5298L260.768 69.7964L260.789 93.1232Z" fill="#FABB03"/>
<path opacity="0.3" d="M260.789 93.1232L255.133 89.8566L255.119 66.5298L260.768 69.7964L260.789 93.1232Z" fill="black"/>
<path d="M285.395 69.0655C285.395 72.0763 283.678 73.136 282.158 74.0129C282.488 74.829 282.645 75.7052 282.618 76.5853C282.618 78.5292 280.996 81.4377 278.657 82.7824L260.789 93.1158V70.7828V69.7963C260.789 69.7963 265.7 58.6079 266.161 56.9782C266.621 55.3486 266.161 49.6703 266.161 48.6253C266.161 47.5803 270.597 44.5767 272.007 47.6753C273.417 50.7738 273.534 53.9308 272.738 58.0525L283.539 51.8042C285.819 50.4888 286.754 52.3743 286.754 53.8504C286.754 55.9478 285.775 58.016 284.474 58.8052C284.474 58.8052 286.959 58.9294 286.959 61.8234C286.938 62.7383 286.711 63.6368 286.296 64.4526C285.881 65.2684 285.289 65.9806 284.562 66.537C284.562 66.537 285.395 67.0485 285.395 69.0655Z" fill="#FABB03"/>
<path d="M250.412 102.257L258.217 97.7558L258.195 70.6069L250.412 75.1086V102.257Z" fill="#37474F"/>
<path d="M250.412 102.258L244.756 98.9984V71.8496L250.412 75.1089V102.258Z" fill="#263238"/>
<path d="M252.546 67.3477L258.195 70.607L250.412 75.1086L244.756 71.8493L252.546 67.3477Z" fill="#455A64"/>
<path d="M266.132 56.9781C265.671 58.6078 260.76 69.7962 260.76 69.7962L255.119 66.6172C255.119 66.6172 260.015 55.4215 260.483 53.8065C260.95 52.1915 260.483 46.4986 260.483 45.439L266.139 48.6252C266.132 49.736 266.607 55.3631 266.132 56.9781Z" fill="#FABB03"/>
<path opacity="0.2" d="M266.132 56.9781C265.671 58.6078 260.76 69.7962 260.76 69.7962L255.119 66.6172C255.119 66.6172 260.015 55.4215 260.483 53.8065C260.95 52.1915 260.483 46.4986 260.483 45.439L266.139 48.6252C266.132 49.736 266.607 55.3631 266.132 56.9781Z" fill="black"/>
<path d="M332.443 80.6852L327.065 77.3309C325.077 76.0593 322.052 76.1909 318.617 78.0617C313.867 80.5975 309.672 86.9992 307.86 92.429L304.008 90.032C302.057 88.6216 299.317 88.322 296.225 89.9736C295.845 90.1782 295.495 90.4047 295.085 90.6386L294.494 91.0405C294.325 91.1574 294.15 91.2671 293.982 91.3913C293.814 91.5155 293.456 91.7932 293.2 91.9978L292.908 92.2244C292.608 92.4729 292.308 92.7359 292.016 93.0063L291.885 93.1306C291.556 93.4302 291.242 93.7444 290.927 94.066C289.963 95.0608 289.083 96.1339 288.296 97.2741C286.104 100.417 284.716 103.924 284.642 107.037C284.452 112.833 287.909 116.647 292.228 119.154L296.474 121.792C298.992 123.405 301.736 124.637 304.615 125.446L311.682 127.573L319.114 117.7C326.224 108.273 334.76 95.206 335.045 86.4658C335.14 83.6815 334.146 81.701 332.443 80.6852Z" fill="#FABB03"/>
<path d="M296.386 121.777L292.199 119.161C287.887 116.654 284.423 112.84 284.613 107.045C284.715 103.939 286.126 100.416 288.304 97.2812L293.821 100.709C291.629 103.844 290.233 107.366 290.131 110.472C289.963 115.675 292.71 119.278 296.386 121.777Z" fill="#FABB03"/>
<g opacity="0.3">
<path opacity="0.3" d="M296.386 121.777L292.199 119.161C287.887 116.654 284.423 112.84 284.613 107.045C284.715 103.939 286.126 100.416 288.304 97.2812L293.821 100.709C291.629 103.844 290.233 107.366 290.131 110.472C289.963 115.675 292.71 119.278 296.386 121.777Z" fill="black"/>
</g>
<path d="M332.421 80.6486C330.426 79.4939 327.467 79.6766 324.134 81.4597C318.405 84.5144 313.465 93.1962 312.573 98.9987C312.032 93.9489 307.501 90.3242 301.772 93.3935C298.592 95.181 295.87 97.6827 293.821 100.701L288.304 97.274L288.581 96.8794C288.662 96.7698 288.735 96.6675 288.823 96.5578L289.436 95.754C290.031 95.0205 290.665 94.3204 291.336 93.6566C291.497 93.4812 291.673 93.3204 291.841 93.1597L292.206 92.8235C293.438 91.7087 294.797 90.7424 296.255 89.9442C297.569 89.2003 299.056 88.8148 300.566 88.8261C301.815 88.8598 303.025 89.2698 304.038 90.0027L307.86 92.3558C309.665 86.9333 313.867 80.5389 318.624 78.0031C322.059 76.1615 325.077 76.03 327.065 77.2723L332.421 80.6486Z" fill="#FABB03"/>
<path opacity="0.1" d="M332.421 80.6486C330.426 79.4939 327.467 79.6766 324.134 81.4597C318.405 84.5144 313.465 93.1962 312.573 98.9987C312.032 93.9489 307.501 90.3242 301.772 93.3935C298.592 95.181 295.87 97.6827 293.821 100.701L288.304 97.274L288.581 96.8794C288.662 96.7698 288.735 96.6675 288.823 96.5578L289.436 95.754C290.031 95.0205 290.665 94.3204 291.336 93.6566C291.497 93.4812 291.673 93.3204 291.841 93.1597L292.206 92.8235C293.438 91.7087 294.797 90.7424 296.255 89.9442C297.569 89.2003 299.056 88.8148 300.566 88.8261C301.815 88.8598 303.025 89.2698 304.038 90.0027L307.86 92.3558C309.665 86.9333 313.867 80.5389 318.624 78.0031C322.059 76.1615 325.077 76.03 327.065 77.2723L332.421 80.6486Z" fill="black"/>
<path d="M245.143 24.3851L239.735 21.0234L237.66 25.2036L240.583 28.3971C240.583 28.3971 240.759 29.0256 242.184 27.9221C243.329 26.8853 244.325 25.695 245.143 24.3851Z" fill="#FABB03"/>
<path opacity="0.3" d="M245.143 24.3851L239.735 21.0234L237.66 25.2036L240.583 28.3971C240.583 28.3971 240.759 29.0256 242.184 27.9221C243.329 26.8853 244.325 25.695 245.143 24.3851Z" fill="black"/>
<path d="M241.058 31.7734C241.058 38.3505 239.165 46.3892 235.658 53.7848C231.653 62.2474 225.558 69.9718 217.826 74.1081C213.398 76.4758 209.342 76.9728 205.98 75.9204L200.572 72.5588C204.08 71.2214 207.639 68.3275 210.708 64.3447L207.391 62.2766C206.247 61.4903 205.46 60.2852 205.198 58.9223C206.001 58.6825 206.76 58.3175 207.449 57.8407L205.257 56.4668C203.598 55.4364 202.662 53.0979 202.816 50.0432C204.018 50.2319 205.248 50.0187 206.316 49.4366C205.976 49.3154 205.654 49.1482 205.359 48.9397C202.801 47.12 202.37 42.1726 204.343 37.057L209.736 40.4114C212.718 41.2152 216.314 40.9229 220.114 39.1398C219.186 33.3446 223.095 25.1963 228.152 22.4924C230.403 21.2939 232.398 21.4474 233.758 22.6824C235.637 21.1829 237.332 19.4658 238.807 17.5669L244.215 20.9285C243.522 23.6513 242.279 26.2031 240.561 28.4264C242.224 27.2689 243.747 25.9226 245.099 24.4144C244.007 26.9989 242.653 29.4648 241.058 31.7734Z" fill="#FABB03"/>
<path d="M241.058 31.7736C241.058 38.3507 239.165 46.3894 235.658 53.785C231.653 62.2475 225.558 69.972 217.826 74.1083C213.398 76.476 209.342 76.9729 205.98 75.9206C210.109 74.3421 214.304 70.6224 217.673 65.4922C214.253 67.2315 211.461 65.8284 210.599 62.2841C211.915 61.8656 213.123 61.1619 214.136 60.2232C210.409 61.239 207.953 58.1917 208.195 53.405C209.399 53.5937 210.631 53.3805 211.702 52.7984C211.429 52.7 211.167 52.5726 210.92 52.4184C208.209 50.7084 207.705 45.644 209.729 40.4189C210.307 43.1447 215.364 45.2494 219.734 45.1836C223.958 45.1178 225.412 42.6624 225.492 42.5089C224.564 36.7138 228.481 28.5655 233.531 25.8615C235.775 24.663 237.77 24.8165 239.136 26.0442C241.018 24.547 242.713 22.8296 244.186 20.9287C243.493 23.6514 242.25 26.2033 240.532 28.4266C242.195 27.2691 243.718 25.9228 245.07 24.4146C243.987 26.9979 242.643 29.4637 241.058 31.7736Z" fill="#FABB03"/>
<path opacity="0.1" d="M244.222 20.8993C242.749 22.7972 241.056 24.5143 239.18 26.0149C238.83 25.6944 238.42 25.446 237.974 25.2841L233.765 22.6971C235.644 21.1976 237.34 19.4804 238.815 17.5815L244.222 20.8993Z" fill="black"/>
<path opacity="0.3" d="M214.165 60.2227C213.152 61.1614 211.944 61.8651 210.628 62.2835L205.228 58.9219C206.03 58.6822 206.79 58.3172 207.478 57.8403L210.54 59.7404L210.635 59.8062L210.774 59.8939C211.288 60.1757 211.853 60.3502 212.436 60.4067C213.019 60.4633 213.607 60.4007 214.165 60.2227Z" fill="black"/>
<path opacity="0.1" d="M225.529 42.5012C225.368 42.7862 223.877 45.0882 219.785 45.154C215.4 45.2198 210.358 43.1151 209.78 40.3892C210.707 40.6366 211.658 40.7788 212.616 40.8131C215.228 40.8517 217.813 40.2707 220.158 39.1177L225.529 42.5012Z" fill="black"/>
<path opacity="0.2" d="M209.736 40.4188L204.336 37.0645C202.363 42.18 202.794 47.1274 205.352 48.9471L205.717 49.1736L206.214 49.4879L210.935 52.411C208.275 50.7156 207.734 45.6512 209.736 40.4188Z" fill="black"/>
<path opacity="0.3" d="M211.732 52.7978C210.661 53.3799 209.428 53.593 208.224 53.4043L202.823 50.0427C203.989 50.2262 205.184 50.0289 206.229 49.48L210.95 52.4031C211.197 52.5596 211.459 52.6918 211.732 52.7978Z" fill="black"/>
<path opacity="0.3" d="M217.702 65.4921C214.304 70.6076 210.109 74.3419 206.009 75.9204L200.602 72.5588C204.109 71.2141 207.668 68.3275 210.738 64.3447L212.842 65.6528C214.121 66.4567 215.802 66.4567 217.702 65.4921Z" fill="black"/>
<path opacity="0.2" d="M238.011 25.3202C236.783 24.8159 235.241 24.9621 233.568 25.8537C228.518 28.5576 224.601 36.7059 225.529 42.501L220.128 39.1394C219.2 33.3442 223.11 25.1959 228.167 22.492C230.418 21.2935 232.413 21.447 233.772 22.682L238.011 25.3202Z" fill="black"/>
<path opacity="0.2" d="M210.54 59.7405L207.478 57.8405L205.286 56.4666C203.627 55.4362 202.692 53.0977 202.845 50.043L208.246 53.4046C208.078 56.3716 208.962 58.6663 210.54 59.7405Z" fill="black"/>
<path opacity="0.2" d="M212.66 65.5501L210.708 64.3517L207.391 62.2908C206.244 61.5039 205.456 60.2954 205.198 58.9292L210.599 62.2908C210.857 63.5957 211.591 64.7577 212.66 65.5501Z" fill="black"/>
<path d="M313.092 160.451L313.896 159.15L309.811 156.468C306.31 153.983 301.239 154.093 295.604 157.367C285.095 163.476 276.604 178.289 276.64 190.442C276.64 196.201 278.584 200.33 281.719 202.435L285.753 205.095L286.426 203.991C289.181 204.181 292.352 203.363 295.728 201.397C306.245 195.287 314.729 180.482 314.729 168.321C314.782 165.608 314.222 162.918 313.092 160.451Z" fill="#FABB03"/>
<path opacity="0.2" d="M313.092 160.451L313.896 159.15L309.811 156.468C306.31 153.983 301.239 154.093 295.604 157.367C285.095 163.476 276.604 178.289 276.64 190.442C276.64 196.201 278.584 200.33 281.719 202.435L285.753 205.095L286.426 203.991C289.181 204.181 292.352 203.363 295.728 201.397C306.245 195.287 314.729 180.482 314.729 168.321C314.782 165.608 314.222 162.918 313.092 160.451Z" fill="black"/>
<path d="M318.858 171.047C318.895 183.2 310.403 198.014 299.857 204.123C289.312 210.232 280.798 205.329 280.769 193.161C280.74 180.993 289.224 166.195 299.733 160.086C310.242 153.976 318.821 158.902 318.858 171.047Z" fill="#FABB03"/>
<path d="M315.701 172.904C315.701 183.032 308.656 195.375 299.901 200.469C291.146 205.563 284.014 201.47 283.985 191.341C283.955 181.213 291.03 168.87 299.792 163.776C308.554 158.682 315.657 162.768 315.701 172.904Z" fill="white"/>
<path d="M312.5 174.738C312.5 182.842 306.858 192.715 299.857 196.793C292.856 200.871 287.164 197.604 287.142 189.485C287.12 181.366 292.776 171.508 299.784 167.43C306.793 163.352 312.485 166.662 312.5 174.738Z" fill="#FABB03"/>
<path d="M309.343 176.587C309.343 182.667 305.112 190.07 299.843 193.132C294.574 196.194 290.343 193.731 290.299 187.658C290.255 181.585 294.523 174.168 299.799 171.113C305.075 168.058 309.321 170.514 309.343 176.587Z" fill="white"/>
<path d="M299.806 174.782C296.298 176.82 293.47 181.761 293.485 185.809C293.5 189.858 296.342 191.502 299.85 189.463C303.358 187.424 306.186 182.484 306.171 178.436C306.157 174.387 303.314 172.743 299.806 174.782Z" fill="#FABB03"/>
<path d="M299.814 178.45C298.892 179.058 298.126 179.874 297.577 180.832C297.029 181.791 296.714 182.865 296.657 183.967C296.657 185.992 298.082 186.81 299.835 185.794C300.759 185.188 301.527 184.372 302.077 183.414C302.626 182.455 302.943 181.38 303 180.277C302.992 178.253 301.567 177.434 299.814 178.45Z" fill="white"/>
<path d="M331.581 198.488L327.342 196.727L324.712 196.603V197.078L328.731 199.401L331.581 198.963V198.488Z" fill="#FABB03"/>
<path d="M324.712 196.603L327.342 196.727L331.581 198.488L328.731 198.926L324.712 196.603Z" fill="#FABB03"/>
<path opacity="0.2" d="M328.731 199.402V198.927L331.581 198.488V198.963L328.731 199.402Z" fill="black"/>
<path opacity="0.1" d="M328.731 198.926L324.712 196.603V197.078L328.731 199.401V198.926Z" fill="black"/>
<path d="M306.654 183.902L300.142 182.119V183.025L303.007 186.913L304.578 185.407L306.654 184.808V183.902Z" fill="#37474F"/>
<path d="M300.142 182.119L303.007 186.006L304.578 184.508L306.654 183.902L300.142 182.119Z" fill="#455A64"/>
<path d="M303.007 186.006V186.913L304.578 185.407V184.508L303.007 186.006Z" fill="#263238"/>
<path d="M304.578 184.508L306.654 183.902V184.808L304.578 185.407V184.508Z" fill="#263238"/>
<path d="M304.856 184.501C304.81 184.472 304.757 184.457 304.703 184.457C304.648 184.457 304.595 184.472 304.549 184.501C304.425 184.581 304.321 184.689 304.245 184.815C304.17 184.942 304.123 185.084 304.111 185.231C304.104 185.286 304.113 185.342 304.136 185.392C304.159 185.443 304.196 185.486 304.242 185.516L330.755 200.863L331.354 199.781L304.856 184.501Z" fill="#455A64"/>
<path d="M304.206 184.932C304.148 185.048 304.115 185.175 304.111 185.305C304.104 185.36 304.113 185.416 304.136 185.466C304.159 185.516 304.196 185.559 304.242 185.59L330.755 200.936L331.026 200.447L304.206 184.932Z" fill="#37474F"/>
<path d="M331.047 199.848C330.925 199.929 330.822 200.036 330.747 200.163C330.673 200.29 330.628 200.432 330.616 200.578C330.616 200.856 330.806 200.973 331.047 200.834C331.171 200.754 331.274 200.646 331.349 200.52C331.424 200.393 331.468 200.25 331.479 200.103C331.486 199.826 331.296 199.709 331.047 199.848Z" fill="#263238"/>
<path d="M328.446 199.563V199.088L324.434 196.764V197.246L324.646 198.759L327.686 201.214L328.446 199.57V199.563Z" fill="#FABB03"/>
<path opacity="0.2" d="M324.434 196.764L324.653 198.284L324.646 198.759L324.434 197.246V196.764Z" fill="black"/>
<path opacity="0.2" d="M328.446 199.087L327.686 200.732V201.207L328.446 199.562V199.087Z" fill="black"/>
<path opacity="0.1" d="M324.653 198.284L327.686 200.732V201.207L324.646 198.759L324.653 198.284Z" fill="black"/>
<path d="M331.406 164.799L327.167 166.56L324.544 166.684V166.209L328.556 163.885L331.406 164.324V164.799Z" fill="#FABB03"/>
<path d="M324.544 166.684L327.167 166.56L331.406 164.799L328.556 164.36L324.544 166.684Z" fill="#FABB03"/>
<path opacity="0.2" d="M328.556 163.885V164.36L331.406 164.799V164.324L328.556 163.885Z" fill="black"/>
<path opacity="0.1" d="M328.556 164.36L324.544 166.684V166.209L328.556 163.885V164.36Z" fill="black"/>
<path d="M306.478 179.385L299.974 181.169V180.262L302.832 176.382L304.403 177.88L306.478 178.479V179.385Z" fill="#37474F"/>
<path d="M299.974 181.169L302.832 177.281L304.403 178.786L306.478 179.385L299.974 181.169Z" fill="#455A64"/>
<path d="M302.832 177.281V176.382L304.403 177.88V178.786L302.832 177.281Z" fill="#263238"/>
<path d="M304.403 178.786L306.478 179.385V178.479L304.403 177.88V178.786Z" fill="#263238"/>
<path d="M304.681 178.786C304.635 178.816 304.582 178.832 304.527 178.832C304.473 178.832 304.419 178.816 304.374 178.786C304.25 178.705 304.146 178.598 304.07 178.471C303.994 178.344 303.948 178.202 303.935 178.055C303.93 178 303.939 177.944 303.962 177.894C303.985 177.844 304.021 177.801 304.067 177.77L330.58 162.423L331.179 163.498L304.681 178.786Z" fill="#455A64"/>
<path d="M304.008 178.355C303.944 178.241 303.909 178.113 303.906 177.982C303.9 177.927 303.909 177.872 303.933 177.822C303.956 177.771 303.992 177.728 304.038 177.697L330.551 162.351L330.821 162.833L304.008 178.355Z" fill="#37474F"/>
<path d="M330.879 163.44C330.756 163.359 330.653 163.251 330.578 163.125C330.504 162.998 330.459 162.856 330.448 162.709C330.448 162.431 330.638 162.314 330.879 162.453C331.003 162.534 331.106 162.641 331.18 162.768C331.255 162.895 331.3 163.037 331.311 163.184C331.311 163.462 331.121 163.579 330.879 163.44Z" fill="#263238"/>
<path d="M328.271 163.725V164.2L324.258 166.524V166.041L324.47 164.529L327.511 162.073L328.271 163.725Z" fill="#FABB03"/>
<path opacity="0.2" d="M324.258 166.523L324.478 165.003L324.47 164.528L324.258 166.041V166.523Z" fill="black"/>
<path opacity="0.2" d="M328.271 164.199L327.51 162.555V162.08L328.271 163.724V164.199Z" fill="black"/>
<path opacity="0.1" d="M324.478 165.003L327.51 162.555V162.08L324.47 164.528L324.478 165.003Z" fill="black"/>
<path d="M255.579 177.792L252.429 169.717L254.965 162.409V157.893L247.204 162.373V166.853L250.544 174.782C250.597 174.869 250.676 174.939 250.77 174.979L255.579 177.792Z" fill="#FABB03"/>
<path opacity="0.2" d="M255.579 177.792L252.429 169.717L254.965 162.409V157.893L247.204 162.373V166.853L250.544 174.782C250.597 174.869 250.676 174.939 250.77 174.979L255.579 177.792Z" fill="black"/>
<path d="M274.309 143.496C274.268 142.689 274.035 141.903 273.631 141.203C273.227 140.503 272.663 139.909 271.985 139.469L271.123 138.892C270.403 138.528 269.606 138.338 268.799 138.338C267.992 138.338 267.196 138.528 266.475 138.892L234.854 157.162C234.176 157.601 233.612 158.196 233.208 158.896C232.804 159.595 232.572 160.381 232.53 161.188V171.872C232.572 172.679 232.804 173.465 233.208 174.165C233.612 174.865 234.176 175.459 234.854 175.899L235.746 176.447C236.465 176.814 237.262 177.005 238.069 177.005C238.877 177.005 239.674 176.814 240.393 176.447L252.086 169.687L255.404 177.624C255.451 177.706 255.521 177.773 255.605 177.817C255.689 177.861 255.784 177.879 255.879 177.871C255.974 177.863 256.064 177.827 256.139 177.769C256.214 177.711 256.271 177.633 256.303 177.543L259.825 165.2L271.985 158.177C272.663 157.737 273.227 157.143 273.631 156.443C274.035 155.743 274.268 154.958 274.309 154.151V143.496Z" fill="#FABB03"/>
<path opacity="0.2" d="M232.501 171.888C232.542 172.695 232.775 173.48 233.179 174.18C233.583 174.88 234.147 175.474 234.825 175.914L235.716 176.462C236.371 176.793 237.089 176.981 237.822 177.014C238.555 177.046 239.287 176.923 239.969 176.652C238.873 177.062 238.04 176.448 238.04 175.118V164.47C238.066 163.66 238.3 162.869 238.72 162.175L233.18 158.945C232.762 159.637 232.528 160.425 232.501 161.233V171.888Z" fill="black"/>
<path opacity="0.5" d="M274.236 142.838C273.966 141.852 273.059 141.537 271.985 142.151L240.364 160.421C239.673 160.841 239.108 161.439 238.727 162.153L233.188 158.93C233.575 158.219 234.139 157.62 234.824 157.191L266.438 138.921C267.16 138.557 267.957 138.367 268.766 138.367C269.574 138.367 270.372 138.557 271.094 138.921L271.985 139.469C272.567 139.851 273.066 140.346 273.453 140.925C273.84 141.504 274.106 142.154 274.236 142.838Z" fill="white"/>
<path d="M242.359 171.551C242.082 171.66 241.774 171.66 241.497 171.551C241.444 171.513 241.402 171.462 241.374 171.403C241.346 171.345 241.333 171.28 241.336 171.215C241.346 170.936 241.408 170.661 241.519 170.404C241.588 170.168 241.732 169.961 241.928 169.812C242.026 169.767 242.134 169.747 242.242 169.754H242.556C242.855 169.739 243.145 169.654 243.404 169.505C243.659 169.358 243.885 169.165 244.069 168.935C244.257 168.715 244.358 168.435 244.354 168.146C244.364 167.973 244.312 167.802 244.208 167.663C244.109 167.568 243.98 167.508 243.842 167.495C243.636 167.479 243.428 167.479 243.221 167.495C242.743 167.545 242.262 167.426 241.862 167.159C241.701 166.976 241.581 166.761 241.509 166.528C241.437 166.295 241.415 166.049 241.445 165.807C241.462 165.033 241.717 164.282 242.176 163.659C242.665 162.954 243.307 162.369 244.054 161.949C244.334 161.783 244.634 161.653 244.946 161.561C245.179 161.474 245.429 161.439 245.677 161.459C245.83 161.459 245.903 161.576 245.903 161.759C245.891 162.008 245.841 162.254 245.757 162.489C245.709 162.712 245.585 162.911 245.406 163.052C245.292 163.105 245.172 163.142 245.048 163.162C244.767 163.208 244.495 163.302 244.244 163.44C243.973 163.578 243.741 163.785 243.572 164.039C243.459 164.214 243.393 164.415 243.382 164.623C243.382 164.93 243.462 165.113 243.623 165.186C243.86 165.259 244.107 165.289 244.354 165.274H244.639C245.078 165.234 245.515 165.359 245.867 165.625C246.011 165.802 246.118 166.007 246.182 166.227C246.246 166.446 246.265 166.676 246.239 166.903C246.235 167.405 246.136 167.901 245.947 168.365C245.732 168.899 245.428 169.393 245.048 169.827C244.619 170.313 244.113 170.725 243.55 171.047C243.176 171.265 242.776 171.435 242.359 171.551Z" fill="white"/>
<path d="M247.102 168.518V160.626C247.102 160.363 247.343 160.092 247.833 159.822L248.351 159.522C248.819 159.252 249.082 159.245 249.082 159.522V162.57L251.194 161.349V158.302C251.194 158.039 251.435 157.776 251.925 157.498L252.429 157.206C252.904 156.928 253.16 156.928 253.16 157.206V165.106C253.16 165.369 252.919 165.632 252.429 165.91L251.925 166.202C251.45 166.48 251.194 166.48 251.194 166.202V162.986L249.082 164.207V167.393C249.082 167.656 248.848 167.927 248.351 168.197L247.833 168.497C247.343 168.774 247.102 168.782 247.102 168.518Z" fill="white"/>
<path d="M253.825 164.762C253.829 164.681 253.841 164.6 253.862 164.521L255.762 155.576C255.82 155.313 256.069 155.057 256.492 154.801L257.296 154.334C257.749 154.078 258.027 154.041 258.027 154.239L259.927 160.984C259.927 161.094 259.927 161.159 259.927 161.196C259.927 161.379 259.744 161.569 259.394 161.773L258.743 162.153C258.349 162.38 258.129 162.416 258.086 162.27L257.764 160.947L255.893 162.029L255.557 163.724C255.557 163.922 255.33 164.119 254.98 164.324L254.337 164.689C254.022 164.923 253.825 164.945 253.825 164.762ZM257.64 159.566L257.084 157.272C257.026 157.008 256.975 156.723 256.931 156.417L256.872 156.453C256.829 156.804 256.785 157.147 256.726 157.476L256.178 160.399L257.64 159.566Z" fill="white"/>
<path d="M260.694 160.669V152.901C260.69 152.747 260.73 152.594 260.811 152.463C260.91 152.322 261.04 152.207 261.191 152.126L263.245 150.935C263.773 150.553 264.423 150.379 265.072 150.446C265.532 150.548 265.766 151.045 265.766 151.907C265.734 152.941 265.314 153.924 264.59 154.662V154.713C264.682 154.713 264.775 154.731 264.86 154.768C264.945 154.804 265.023 154.858 265.086 154.925C265.238 155.08 265.35 155.267 265.415 155.473L266.146 157.417L266.183 157.549C266.183 157.768 265.927 158.024 265.415 158.316L264.984 158.572C264.553 158.82 264.305 158.85 264.253 158.667L263.603 156.701C263.58 156.645 263.545 156.594 263.501 156.553C263.457 156.511 263.405 156.48 263.347 156.46C263.184 156.463 263.025 156.516 262.894 156.613L262.602 156.782V159.566C262.602 159.829 262.353 160.107 261.871 160.392L261.447 160.633C260.943 160.925 260.694 160.932 260.694 160.669ZM263.281 154.589C263.487 154.459 263.65 154.271 263.749 154.048C263.882 153.768 263.947 153.46 263.939 153.15C263.939 152.806 263.873 152.594 263.749 152.506C263.67 152.464 263.58 152.445 263.49 152.453C263.401 152.461 263.315 152.495 263.245 152.55L262.595 152.93V154.969L263.281 154.589Z" fill="white"/>
<path d="M267.169 157.162C267.096 157.162 267.06 157.016 267.06 156.848V149.233C267.055 149.078 267.093 148.923 267.169 148.788C267.256 148.656 267.374 148.548 267.513 148.473L271.167 146.376C271.291 146.303 271.379 146.296 271.437 146.376C271.511 146.504 271.542 146.653 271.525 146.8V147.18C271.531 147.357 271.501 147.533 271.437 147.699C271.382 147.827 271.287 147.935 271.167 148.006L268.974 149.255V151.046L270.896 149.935C271.02 149.862 271.115 149.862 271.167 149.935C271.24 150.061 271.271 150.207 271.254 150.351V150.731C271.261 150.909 271.232 151.085 271.167 151.25C271.114 151.381 271.019 151.489 270.896 151.557L268.974 152.668V154.663L271.167 153.406C271.291 153.333 271.379 153.333 271.43 153.406C271.496 153.537 271.524 153.684 271.51 153.83V154.21C271.515 154.386 271.488 154.562 271.43 154.729C271.378 154.855 271.285 154.961 271.167 155.028L267.513 157.133C267.461 157.162 267.403 157.18 267.344 157.185C267.285 157.19 267.225 157.182 267.169 157.162Z" fill="white"/>
<path d="M222.891 156.065L219.741 147.99L222.277 140.682V136.203L214.523 140.682V145.155L217.856 153.084C217.908 153.174 217.987 153.245 218.082 153.288L222.891 156.065Z" fill="#FABB03"/>
<path opacity="0.2" d="M222.891 156.065L219.741 147.99L222.277 140.682V136.203L214.523 140.682V145.155L217.856 153.084C217.908 153.174 217.987 153.245 218.082 153.288L222.891 156.065Z" fill="black"/>
<path d="M244.025 120.345C243.983 119.538 243.751 118.753 243.347 118.053C242.943 117.353 242.379 116.759 241.701 116.319L240.81 115.771C240.089 115.407 239.293 115.217 238.486 115.217C237.678 115.217 236.882 115.407 236.162 115.771L199.674 136.839C198.996 137.279 198.432 137.874 198.028 138.573C197.624 139.273 197.391 140.059 197.35 140.866V151.543C197.394 152.35 197.628 153.136 198.032 153.836C198.435 154.537 198.998 155.133 199.674 155.577L200.565 156.118C201.285 156.485 202.081 156.676 202.889 156.676C203.697 156.676 204.493 156.485 205.213 156.118L219.354 147.969L222.686 155.891C222.734 155.973 222.804 156.04 222.889 156.083C222.974 156.126 223.069 156.145 223.164 156.135C223.258 156.126 223.348 156.09 223.423 156.031C223.498 155.972 223.554 155.893 223.585 155.803L227.1 143.497L241.716 135.056C242.394 134.616 242.958 134.022 243.362 133.322C243.766 132.622 243.998 131.837 244.04 131.03L244.025 120.345Z" fill="#FABB03"/>
<path opacity="0.2" d="M197.35 151.543C197.394 152.35 197.628 153.136 198.031 153.836C198.435 154.537 198.998 155.133 199.674 155.577L200.565 156.118C201.22 156.448 201.938 156.636 202.671 156.669C203.404 156.702 204.136 156.578 204.818 156.308C203.722 156.724 202.889 156.103 202.889 154.78V144.096C202.918 143.286 203.152 142.497 203.569 141.801L198.044 138.571C197.627 139.267 197.393 140.056 197.364 140.866L197.35 151.543Z" fill="black"/>
<path opacity="0.5" d="M243.952 119.687C243.682 118.701 242.775 118.387 241.701 119L205.213 140.069C204.524 140.494 203.959 141.094 203.576 141.808L198.044 138.578C198.434 137.867 199 137.268 199.688 136.839L236.162 115.77C236.884 115.406 237.681 115.216 238.489 115.216C239.298 115.216 240.095 115.406 240.817 115.77L241.709 116.318C242.29 116.7 242.789 117.195 243.174 117.774C243.56 118.353 243.825 119.004 243.952 119.687Z" fill="white"/>
<path d="M206.674 150.534V143.54C206.669 143.399 206.705 143.259 206.777 143.138C206.855 143.02 206.96 142.923 207.084 142.853L210.138 141.092C210.248 141.026 210.328 141.026 210.38 141.092C210.446 141.207 210.474 141.34 210.46 141.472V141.815C210.464 141.975 210.437 142.134 210.38 142.283C210.33 142.397 210.246 142.491 210.138 142.553L208.406 143.555V145.177L210.036 144.234C210.146 144.168 210.226 144.168 210.285 144.234C210.348 144.348 210.373 144.478 210.358 144.607V144.95C210.365 145.11 210.34 145.269 210.285 145.418C210.233 145.534 210.146 145.631 210.036 145.696L208.406 146.639V149.562C208.406 149.796 208.187 150.037 207.763 150.292L207.318 150.548C206.886 150.76 206.674 150.767 206.674 150.534Z" fill="white"/>
<path d="M211.198 144.387C211.198 141.742 212.163 139.857 214.121 138.731C215.064 138.19 215.787 138.095 216.277 138.453C216.767 138.812 217.008 139.674 217.008 141.033C217.047 142.22 216.796 143.399 216.277 144.468C215.781 145.388 215.033 146.149 214.121 146.66C212.126 147.8 211.198 147.04 211.198 144.387ZM214.757 144.629C214.941 144.329 215.065 143.996 215.122 143.649C215.213 143.121 215.255 142.585 215.247 142.049C215.261 141.559 215.22 141.068 215.122 140.587C215.042 140.273 214.918 140.083 214.757 140.032C214.646 140.009 214.531 140.011 214.42 140.036C214.309 140.061 214.205 140.11 214.114 140.178C213.854 140.326 213.632 140.531 213.464 140.777C213.273 141.077 213.146 141.413 213.091 141.764C212.994 142.289 212.95 142.823 212.959 143.357C212.942 143.848 212.986 144.339 213.091 144.819C213.171 145.14 213.295 145.323 213.464 145.374C213.577 145.393 213.693 145.39 213.804 145.363C213.916 145.337 214.021 145.288 214.114 145.221C214.359 145.072 214.566 144.87 214.72 144.629H214.757Z" fill="white"/>
<path d="M218.119 144.146C218.053 144.146 218.016 144.022 218.016 143.869V136.875C218.016 136.641 218.236 136.393 218.667 136.144L219.105 135.881C219.536 135.633 219.748 135.633 219.748 135.881V141.866L221.407 140.909C221.524 140.843 221.612 140.836 221.663 140.909C221.726 141.025 221.751 141.158 221.736 141.289V141.632C221.743 141.792 221.718 141.951 221.663 142.1C221.611 142.218 221.521 142.316 221.407 142.378L218.433 144.095C218.287 144.161 218.184 144.183 218.119 144.146Z" fill="white"/>
<path d="M222.65 141.537C222.584 141.501 222.547 141.413 222.547 141.252V134.259C222.547 134.025 222.766 133.784 223.19 133.528L223.636 133.272C224.067 133.024 224.279 133.016 224.279 133.272V139.257L225.938 138.307C226.055 138.234 226.135 138.227 226.194 138.307C226.257 138.421 226.283 138.551 226.267 138.68V139.023C226.274 139.183 226.249 139.342 226.194 139.491C226.137 139.608 226.049 139.707 225.938 139.776L222.964 141.486C222.818 141.545 222.715 141.567 222.65 141.537Z" fill="white"/>
<path d="M226.647 135.45C226.647 132.799 227.621 130.914 229.57 129.794C230.52 129.245 231.236 129.15 231.726 129.516C232.216 129.881 232.457 130.736 232.457 132.095C232.5 133.283 232.249 134.463 231.726 135.53C231.232 136.452 230.484 137.213 229.57 137.723C227.626 138.858 226.652 138.1 226.647 135.45ZM230.213 135.684C230.398 135.385 230.523 135.052 230.579 134.704C230.667 134.178 230.706 133.645 230.696 133.111C230.713 132.621 230.674 132.131 230.579 131.65C230.498 131.328 230.374 131.145 230.213 131.087C230.1 131.068 229.984 131.072 229.873 131.098C229.761 131.125 229.656 131.173 229.563 131.24C229.306 131.386 229.086 131.588 228.92 131.832C228.731 132.136 228.602 132.474 228.54 132.826C228.443 133.349 228.398 133.88 228.408 134.412C228.391 134.903 228.435 135.394 228.54 135.874C228.627 136.195 228.752 136.385 228.92 136.436C229.032 136.456 229.146 136.452 229.257 136.426C229.368 136.399 229.472 136.351 229.563 136.283C229.818 136.135 230.036 135.93 230.199 135.684H230.213Z" fill="white"/>
<path d="M234.364 134.844C234.348 134.85 234.331 134.852 234.314 134.85C234.298 134.848 234.282 134.842 234.267 134.833C234.253 134.823 234.242 134.811 234.233 134.797C234.224 134.782 234.219 134.766 234.218 134.749L232.756 128.464C232.752 128.433 232.752 128.401 232.756 128.369C232.759 128.345 232.759 128.32 232.756 128.296C232.756 128.106 232.976 127.88 233.414 127.631L233.736 127.441C234.174 127.185 234.415 127.163 234.466 127.375L234.985 131.175L235.088 131.906L235.19 132.717L235.387 131.256C235.413 131.14 235.43 131.023 235.438 130.905L236.118 126.301C236.133 126.202 236.182 126.111 236.257 126.045C236.373 125.936 236.503 125.842 236.644 125.768L237.2 125.446C237.317 125.37 237.445 125.314 237.58 125.278C237.66 125.278 237.704 125.278 237.718 125.38L238.383 129.202L238.632 130.766L238.785 129.487L238.851 128.939L239.385 124.554C239.385 124.306 239.648 124.058 240.115 123.824L240.371 123.67C240.81 123.422 241.029 123.392 241.029 123.582C241.033 123.641 241.033 123.699 241.029 123.758L239.567 131.738C239.567 131.906 239.363 132.089 239.048 132.272L238.318 132.695C238.025 132.864 237.857 132.885 237.821 132.747L237.09 129.268L236.966 128.15L236.776 129.392L236.008 133.777C236.008 133.945 235.811 134.12 235.511 134.296L234.781 134.72C234.651 134.787 234.51 134.829 234.364 134.844Z" fill="white"/>
<path d="M157.361 100.314L188.054 82.5921C188.164 82.5074 188.299 82.4614 188.438 82.4614C188.576 82.4614 188.711 82.5074 188.821 82.5921C189.004 82.7383 190.736 83.6518 190.926 83.7906C191.041 83.8933 191.13 84.0216 191.186 84.1651C191.241 84.3085 191.263 84.4632 191.248 84.6164V112.24C191.242 112.637 191.143 113.027 190.959 113.378C190.775 113.73 190.511 114.034 190.188 114.265L184.802 117.378L156.63 101.118C156.797 100.789 157.05 100.512 157.361 100.314Z" fill="#FABB03"/>
<path opacity="0.5" d="M157.361 100.314L188.054 82.5921C188.164 82.5074 188.299 82.4614 188.438 82.4614C188.576 82.4614 188.711 82.5074 188.821 82.5921C189.004 82.7383 190.736 83.6518 190.926 83.7906C191.041 83.8933 191.13 84.0216 191.186 84.1651C191.241 84.3085 191.263 84.4632 191.248 84.6164V112.24C191.242 112.637 191.143 113.027 190.959 113.378C190.775 113.73 190.511 114.034 190.188 114.265L184.802 117.378L156.63 101.118C156.797 100.789 157.05 100.512 157.361 100.314Z" fill="white"/>
<path d="M158.786 132.03C158.574 131.891 156.827 130.927 156.637 130.795C156.518 130.693 156.426 130.565 156.367 130.42C156.309 130.275 156.286 130.118 156.301 129.962V102.353C156.312 101.925 156.427 101.505 156.637 101.132L184.809 117.392L159.502 132.008C159.398 132.081 159.274 132.121 159.147 132.125C159.02 132.129 158.895 132.096 158.786 132.03Z" fill="#FABB03"/>
<path opacity="0.2" d="M158.786 132.03C158.574 131.891 156.827 130.927 156.637 130.795C156.518 130.693 156.426 130.565 156.367 130.42C156.309 130.275 156.286 130.118 156.301 129.962V102.353C156.312 101.925 156.427 101.505 156.637 101.132L184.809 117.392L159.502 132.008C159.398 132.081 159.274 132.121 159.147 132.125C159.02 132.129 158.895 132.096 158.786 132.03Z" fill="black"/>
<path d="M159.502 131.986L190.195 114.264C190.518 114.033 190.782 113.73 190.966 113.378C191.15 113.027 191.249 112.637 191.255 112.24V84.6163C191.255 83.8416 190.78 83.4835 190.195 83.8197L159.502 101.541C159.179 101.772 158.915 102.076 158.731 102.427C158.547 102.779 158.448 103.169 158.442 103.566V131.189C158.442 131.964 158.917 132.315 159.502 131.986Z" fill="#FABB03"/>
<path opacity="0.2" d="M158.442 131.19V130.641L171.136 109.609L158.581 102.667L158.676 102.44L174.308 108.93C174.637 109.061 175.039 108.82 175.397 108.301L190.984 83.8052C191.02 83.8385 191.052 83.8752 191.079 83.9148L178.568 105.298L191.255 111.677V112.218C191.248 112.653 191.14 113.081 190.941 113.468L177.925 106.401L176.076 109.551C175.346 110.801 174.352 111.378 173.621 110.969L171.779 109.946L158.786 132.008C158.669 131.908 158.577 131.782 158.517 131.64C158.457 131.497 158.432 131.343 158.442 131.19Z" fill="black"/>
<path d="M164.983 104.793L195.676 87.0717C195.788 86.9887 195.924 86.9438 196.063 86.9438C196.203 86.9438 196.339 86.9887 196.451 87.0717C196.626 87.2252 198.365 88.1387 198.555 88.2702C198.67 88.3744 198.759 88.504 198.815 88.6487C198.871 88.7933 198.892 88.949 198.877 89.1033V116.727C198.869 117.124 198.77 117.513 198.586 117.864C198.402 118.216 198.139 118.519 197.817 118.751L192.424 121.857L164.26 105.597C164.427 105.271 164.676 104.994 164.983 104.793Z" fill="#FABB03"/>
<path opacity="0.5" d="M164.983 104.793L195.676 87.0717C195.788 86.9887 195.924 86.9438 196.063 86.9438C196.203 86.9438 196.339 86.9887 196.451 87.0717C196.626 87.2252 198.365 88.1387 198.555 88.2702C198.67 88.3744 198.759 88.504 198.815 88.6487C198.871 88.7933 198.892 88.949 198.877 89.1033V116.727C198.869 117.124 198.77 117.513 198.586 117.864C198.402 118.216 198.139 118.519 197.817 118.751L192.424 121.857L164.26 105.597C164.427 105.271 164.676 104.994 164.983 104.793Z" fill="white"/>
<path d="M166.401 136.511C166.196 136.379 164.45 135.407 164.26 135.283C164.14 135.18 164.047 135.05 163.988 134.904C163.93 134.757 163.908 134.599 163.923 134.442V106.819C163.936 106.391 164.051 105.972 164.26 105.598L192.424 121.858L167.124 136.474C167.02 136.549 166.896 136.592 166.768 136.598C166.64 136.605 166.512 136.574 166.401 136.511Z" fill="#FABB03"/>
<path opacity="0.2" d="M166.401 136.511C166.196 136.379 164.45 135.407 164.26 135.283C164.14 135.18 164.047 135.05 163.988 134.904C163.93 134.757 163.908 134.599 163.923 134.442V106.819C163.936 106.391 164.051 105.972 164.26 105.598L192.424 121.858L167.124 136.474C167.02 136.549 166.896 136.592 166.768 136.598C166.64 136.605 166.512 136.574 166.401 136.511Z" fill="black"/>
<path d="M167.124 136.474L197.817 118.752C198.139 118.52 198.402 118.216 198.586 117.865C198.77 117.513 198.869 117.124 198.877 116.728V89.1039C198.877 88.322 198.402 87.9639 197.817 88.3L167.124 106.022C166.803 106.254 166.54 106.558 166.356 106.909C166.172 107.26 166.072 107.649 166.065 108.046V135.67C166.065 136.452 166.54 136.81 167.124 136.474Z" fill="#FABB03"/>
<path opacity="0.2" d="M166.065 135.67V135.129L178.751 114.097L166.225 107.154C166.253 107.077 166.284 107.001 166.32 106.928L181.923 113.432C182.259 113.571 182.653 113.322 183.012 112.803L198.599 88.3145C198.636 88.3431 198.668 88.3776 198.694 88.4168L186.19 109.807L198.877 116.179V116.728C198.871 117.161 198.761 117.588 198.555 117.97L185.54 110.903L183.698 114.046C182.968 115.295 181.974 115.873 181.243 115.507L179.394 114.484L166.401 136.51C166.283 136.406 166.191 136.276 166.133 136.13C166.075 135.984 166.051 135.826 166.065 135.67Z" fill="black"/>
<path d="M172.598 109.281L203.291 91.5589C203.403 91.4747 203.538 91.4292 203.678 91.4292C203.818 91.4292 203.954 91.4747 204.066 91.5589C204.241 91.7051 205.973 92.6186 206.163 92.7574C206.279 92.859 206.369 92.9871 206.425 93.1309C206.481 93.2747 206.501 93.4298 206.484 93.5832V121.207C206.48 121.604 206.382 121.995 206.198 122.347C206.014 122.698 205.749 123.002 205.425 123.231L200.039 126.344L171.867 110.084C172.034 109.756 172.287 109.478 172.598 109.281Z" fill="#FABB03"/>
<path opacity="0.5" d="M172.598 109.281L203.291 91.5589C203.403 91.4747 203.538 91.4292 203.678 91.4292C203.818 91.4292 203.954 91.4747 204.066 91.5589C204.241 91.7051 205.973 92.6186 206.163 92.7574C206.279 92.859 206.369 92.9871 206.425 93.1309C206.481 93.2747 206.501 93.4298 206.484 93.5832V121.207C206.48 121.604 206.382 121.995 206.198 122.347C206.014 122.698 205.749 123.002 205.425 123.231L200.039 126.344L171.867 110.084C172.034 109.756 172.287 109.478 172.598 109.281Z" fill="white"/>
<path d="M174.023 140.996C173.811 140.858 172.064 139.893 171.874 139.761C171.755 139.66 171.663 139.531 171.604 139.386C171.546 139.241 171.523 139.084 171.538 138.928V111.304C171.549 110.876 171.664 110.457 171.874 110.084L200.046 126.344L174.739 140.96C174.636 141.035 174.513 141.078 174.386 141.084C174.259 141.091 174.133 141.06 174.023 140.996Z" fill="#FABB03"/>
<path opacity="0.2" d="M174.023 140.996C173.811 140.858 172.064 139.893 171.874 139.761C171.755 139.66 171.663 139.531 171.604 139.386C171.546 139.241 171.523 139.084 171.538 138.928V111.304C171.549 110.876 171.664 110.457 171.874 110.084L200.046 126.344L174.739 140.96C174.636 141.035 174.513 141.078 174.386 141.084C174.259 141.091 174.133 141.06 174.023 140.996Z" fill="black"/>
<path d="M174.739 140.953L205.432 123.232C205.756 123.002 206.021 122.699 206.205 122.347C206.389 121.995 206.488 121.605 206.492 121.207V93.5835C206.492 92.8089 206.024 92.4508 205.432 92.787L174.739 110.509C174.416 110.74 174.152 111.043 173.968 111.395C173.784 111.746 173.685 112.136 173.679 112.533V140.157C173.679 140.931 174.154 141.289 174.739 140.953Z" fill="#FABB03"/>
<path opacity="0.2" d="M173.679 140.156V139.623L186.351 118.576L173.818 111.634L173.913 111.407L189.523 117.918C189.852 118.05 190.254 117.809 190.612 117.29L206.199 92.7939C206.233 92.8263 206.265 92.8605 206.294 92.8963L193.805 114.286L206.492 120.666V121.207C206.484 121.642 206.376 122.07 206.178 122.457L193.162 115.39L191.321 118.54C190.59 119.789 189.589 120.367 188.858 119.957L187.016 118.934L174.023 140.997C173.902 140.894 173.808 140.765 173.749 140.618C173.689 140.472 173.665 140.314 173.679 140.156Z" fill="black"/>
<path d="M306.427 246.202L218.966 296.692C217.584 297.491 216.021 297.926 214.425 297.956C212.829 297.987 211.251 297.612 209.839 296.867L33.7552 195.164C30.9782 193.563 28.7273 189.982 28.7273 187.125C28.7273 184.267 30.9782 180.73 33.7478 179.123L120.894 128.881C122.451 128.095 124.171 127.686 125.915 127.686C127.659 127.686 129.379 128.095 130.936 128.881L306.427 230.241C309.204 231.842 311.455 235.423 311.455 238.244C311.455 241.064 309.204 244.601 306.427 246.202Z" fill="#FABB03"/>
<path opacity="0.5" d="M120.894 128.88L33.7478 179.188C30.9782 180.796 28.7273 184.376 28.7273 187.19C28.7273 190.003 30.9782 193.592 33.7552 195.229L209.875 296.903C211.233 297.599 212.734 297.969 214.26 297.985V176.959L130.95 128.88C129.391 128.092 127.669 127.682 125.922 127.682C124.176 127.682 122.453 128.092 120.894 128.88Z" fill="black"/>
<path opacity="0.4" d="M218.966 296.691L306.427 246.201C309.204 244.601 311.455 241.02 311.455 238.206C311.455 235.393 309.204 231.805 306.427 230.204L214.209 176.959V297.948C215.879 297.965 217.523 297.531 218.966 296.691Z" fill="black"/>
<path d="M216.884 287.696C215.511 288.391 213.994 288.753 212.455 288.753C210.916 288.753 209.399 288.391 208.026 287.696L33.7333 187.066C29.9843 184.874 29.9843 181.366 33.7333 179.203L120.887 128.88C122.444 128.095 124.164 127.686 125.908 127.686C127.652 127.686 129.371 128.095 130.928 128.88L306.42 230.241C309.182 231.834 309.182 234.443 306.42 236.036L216.884 287.696Z" fill="#FABB03"/>
<path opacity="0.3" d="M216.884 287.696C215.511 288.391 213.994 288.753 212.455 288.753C210.916 288.753 209.399 288.391 208.026 287.696L33.7333 187.066C29.9843 184.874 29.9843 181.366 33.7333 179.203L120.887 128.88C122.444 128.095 124.164 127.686 125.908 127.686C127.652 127.686 129.371 128.095 130.928 128.88L306.42 230.241C309.182 231.834 309.182 234.443 306.42 236.036L216.884 287.696Z" fill="black"/>
<path d="M208.421 277.567C206.942 278.316 205.307 278.706 203.649 278.706C201.991 278.706 200.356 278.316 198.877 277.567L48.8971 190.975C46.259 189.455 46.259 186.985 48.8971 185.465L130.884 138.161C132.365 137.415 133.999 137.027 135.656 137.027C137.314 137.027 138.948 137.415 140.428 138.161L290.408 224.723C293.032 226.236 293.032 228.721 290.408 230.233L208.421 277.567Z" fill="#37474F"/>
<path d="M135.364 137.015C133.799 137.025 132.261 137.419 130.884 138.162L48.8971 185.466C46.259 186.986 46.259 189.456 48.8971 190.976L65.1499 200.359L135.364 155.518V137.015Z" fill="#263238"/>
<path d="M140.487 141.713C139.007 140.967 137.372 140.579 135.715 140.579C134.057 140.579 132.423 140.967 130.943 141.713L48.9629 189.046C48.4892 189.305 48.0639 189.644 47.7059 190.048C48.0556 190.413 48.4569 190.726 48.8971 190.976L198.877 277.567C200.356 278.316 201.991 278.707 203.649 278.707C205.307 278.707 206.942 278.316 208.421 277.567L290.408 230.241C290.871 229.982 291.289 229.649 291.643 229.254C291.303 228.88 290.906 228.562 290.467 228.312L140.487 141.713Z" fill="#455A64"/>
<path d="M78.8668 163.322L93.3949 154.969C94.2645 154.472 94.3084 153.683 93.4899 153.216C93.0143 152.985 92.4911 152.87 91.9628 152.881C91.4345 152.891 90.9161 153.025 90.4498 153.274L75.9217 161.663C75.0521 162.16 75.0082 162.95 75.8267 163.417C76.3051 163.642 76.8298 163.751 77.3581 163.734C77.8864 163.718 78.4034 163.577 78.8668 163.322Z" fill="#37474F"/>
<path d="M103.816 148.941C103.994 148.88 104.149 148.766 104.258 148.613C104.368 148.46 104.426 148.277 104.426 148.089C104.426 147.901 104.368 147.718 104.258 147.565C104.149 147.413 103.994 147.298 103.816 147.238C103.362 147.011 102.862 146.893 102.354 146.893C101.847 146.893 101.347 147.011 100.893 147.238C100.715 147.298 100.56 147.413 100.451 147.565C100.341 147.718 100.282 147.901 100.282 148.089C100.282 148.277 100.341 148.46 100.451 148.613C100.56 148.766 100.715 148.88 100.893 148.941C101.347 149.168 101.847 149.286 102.354 149.286C102.862 149.286 103.362 149.168 103.816 148.941Z" fill="#37474F"/>
<path d="M109.706 145.535C109.884 145.475 110.039 145.36 110.148 145.208C110.258 145.055 110.317 144.872 110.317 144.684C110.317 144.496 110.258 144.313 110.148 144.16C110.039 144.007 109.884 143.893 109.706 143.833C109.252 143.605 108.752 143.487 108.244 143.487C107.737 143.487 107.237 143.605 106.783 143.833C106.605 143.893 106.45 144.007 106.341 144.16C106.231 144.313 106.172 144.496 106.172 144.684C106.172 144.872 106.231 145.055 106.341 145.208C106.45 145.36 106.605 145.475 106.783 145.535C107.237 145.762 107.737 145.88 108.244 145.88C108.752 145.88 109.252 145.762 109.706 145.535Z" fill="#37474F"/>
<path d="M62.5848 172.742C62.7628 172.682 62.9174 172.567 63.0269 172.415C63.1364 172.262 63.1953 172.079 63.1953 171.891C63.1953 171.703 63.1364 171.52 63.0269 171.367C62.9174 171.214 62.7628 171.1 62.5848 171.04C62.131 170.813 61.6306 170.694 61.1232 170.694C60.6158 170.694 60.1154 170.813 59.6616 171.04C59.4837 171.1 59.329 171.214 59.2195 171.367C59.11 171.52 59.0511 171.703 59.0511 171.891C59.0511 172.079 59.11 172.262 59.2195 172.415C59.329 172.567 59.4837 172.682 59.6616 172.742C60.1154 172.969 60.6158 173.088 61.1232 173.088C61.6306 173.088 62.131 172.969 62.5848 172.742Z" fill="#37474F"/>
<path d="M68.4749 169.337C68.6529 169.277 68.8076 169.162 68.9171 169.009C69.0266 168.857 69.0855 168.674 69.0855 168.486C69.0855 168.298 69.0266 168.115 68.9171 167.962C68.8076 167.809 68.6529 167.695 68.4749 167.634C68.0212 167.407 67.5208 167.289 67.0134 167.289C66.506 167.289 66.0056 167.407 65.5518 167.634C65.3738 167.695 65.2192 167.809 65.1097 167.962C65.0002 168.115 64.9413 168.298 64.9413 168.486C64.9413 168.674 65.0002 168.857 65.1097 169.009C65.2192 169.162 65.3738 169.277 65.5518 169.337C66.0056 169.564 66.506 169.682 67.0134 169.682C67.5208 169.682 68.0212 169.564 68.4749 169.337Z" fill="#37474F"/>
<path d="M88.9882 221.325C89.4364 221.605 89.8123 221.986 90.0854 222.438C90.3584 222.89 90.5208 223.4 90.5594 223.927C90.5763 224.105 90.5452 224.284 90.4694 224.446C90.3936 224.608 90.2758 224.747 90.1282 224.848L89.0248 225.484C88.8415 225.563 88.6406 225.594 88.4419 225.572C88.2432 225.55 88.0537 225.477 87.892 225.359L67.4738 213.564C67.0256 213.285 66.6496 212.904 66.3766 212.452C66.1036 212 65.9412 211.489 65.9026 210.963C65.8864 210.792 65.9141 210.619 65.9831 210.462C66.0522 210.305 66.1603 210.168 66.2972 210.064C66.4945 209.94 67.2399 209.516 67.4299 209.406C67.6145 209.327 67.8165 209.296 68.0163 209.318C68.2162 209.34 68.4069 209.413 68.57 209.53L88.9882 221.325Z" fill="#FABB03"/>
<path opacity="0.4" d="M88.9882 221.325C89.4364 221.605 89.8123 221.986 90.0854 222.438C90.3584 222.89 90.5208 223.4 90.5594 223.927C90.5763 224.105 90.5452 224.284 90.4694 224.446C90.3936 224.608 90.2758 224.747 90.1282 224.848L89.0248 225.484C88.8415 225.563 88.6406 225.594 88.4419 225.572C88.2432 225.55 88.0537 225.477 87.892 225.359L67.4738 213.564C67.0256 213.285 66.6496 212.904 66.3766 212.452C66.1036 212 65.9412 211.489 65.9026 210.963C65.8864 210.792 65.9141 210.619 65.9831 210.462C66.0522 210.305 66.1603 210.168 66.2972 210.064C66.4945 209.94 67.2399 209.516 67.4299 209.406C67.6145 209.327 67.8165 209.296 68.0163 209.318C68.2162 209.34 68.4069 209.413 68.57 209.53L88.9882 221.325Z" fill="black"/>
<path d="M87.892 221.954L67.4738 210.166C66.6041 209.662 65.9026 210.02 65.9026 210.963C65.9412 211.489 66.1036 212 66.3766 212.452C66.6497 212.904 67.0256 213.285 67.4738 213.564L87.892 225.359C88.7617 225.856 89.4632 225.498 89.4632 224.563C89.4252 224.035 89.2631 223.523 88.99 223.07C88.717 222.617 88.3408 222.234 87.892 221.954Z" fill="#FABB03"/>
<path opacity="0.3" d="M87.892 221.954L67.4738 210.166C66.6041 209.662 65.9026 210.02 65.9026 210.963C65.9412 211.489 66.1036 212 66.3766 212.452C66.6497 212.904 67.0256 213.285 67.4738 213.564L87.892 225.359C88.7617 225.856 89.4632 225.498 89.4632 224.563C89.4252 224.035 89.2631 223.523 88.99 223.07C88.717 222.617 88.3408 222.234 87.892 221.954Z" fill="black"/>
<path d="M61.6567 205.541C62.1033 205.823 62.4775 206.206 62.7491 206.659C63.0207 207.112 63.1822 207.623 63.2206 208.149C63.2402 208.327 63.2102 208.506 63.1341 208.667C63.058 208.828 62.9387 208.965 62.7894 209.063C62.5994 209.165 61.8906 209.596 61.6932 209.706C61.5089 209.783 61.308 209.811 61.1098 209.788C60.9115 209.765 60.7224 209.691 60.5605 209.574L50.936 204.013C50.4878 203.734 50.1119 203.353 49.8389 202.901C49.5658 202.448 49.4034 201.938 49.3648 201.412C49.3486 201.241 49.3763 201.068 49.4454 200.911C49.5145 200.754 49.6226 200.617 49.7595 200.513L50.8922 199.855C51.0758 199.775 51.2773 199.745 51.4763 199.768C51.6753 199.791 51.8646 199.866 52.0249 199.987L61.6567 205.541Z" fill="#FABB03"/>
<path opacity="0.4" d="M61.6567 205.541C62.1033 205.823 62.4775 206.206 62.7491 206.659C63.0207 207.112 63.1822 207.623 63.2206 208.149C63.2402 208.327 63.2102 208.506 63.1341 208.667C63.058 208.828 62.9387 208.965 62.7894 209.063C62.5994 209.165 61.8906 209.596 61.6932 209.706C61.5089 209.783 61.308 209.811 61.1098 209.788C60.9115 209.765 60.7224 209.691 60.5605 209.574L50.936 204.013C50.4878 203.734 50.1119 203.353 49.8389 202.901C49.5658 202.448 49.4034 201.938 49.3648 201.412C49.3486 201.241 49.3763 201.068 49.4454 200.911C49.5145 200.754 49.6226 200.617 49.7595 200.513L50.8922 199.855C51.0758 199.775 51.2773 199.745 51.4763 199.768C51.6753 199.791 51.8646 199.866 52.0249 199.987L61.6567 205.541Z" fill="black"/>
<path d="M60.5605 206.176L50.936 200.615C50.0664 200.118 49.3648 200.468 49.3648 201.411C49.4034 201.938 49.5658 202.448 49.8389 202.9C50.1119 203.352 50.4878 203.733 50.936 204.013L60.5605 209.574C61.4302 210.078 62.1317 209.72 62.1317 208.777C62.0931 208.251 61.9307 207.741 61.6577 207.289C61.3847 206.836 61.0087 206.455 60.5605 206.176Z" fill="#FABB03"/>
<path opacity="0.3" d="M60.5605 206.176L50.936 200.615C50.0664 200.118 49.3648 200.468 49.3648 201.411C49.4034 201.938 49.5658 202.448 49.8389 202.9C50.1119 203.352 50.4878 203.733 50.936 204.013L60.5605 209.574C61.4302 210.078 62.1317 209.72 62.1317 208.777C62.0931 208.251 61.9307 207.741 61.6577 207.289C61.3847 206.836 61.0087 206.455 60.5605 206.176Z" fill="black"/>
<path d="M169.667 238.85V239.442C169.694 239.954 169.84 240.453 170.093 240.898C170.347 241.344 170.702 241.723 171.129 242.007L202.926 260.364C203.385 260.599 203.893 260.721 204.409 260.721C204.925 260.721 205.433 260.599 205.893 260.364L258.546 229.964C258.974 229.681 259.329 229.301 259.583 228.856C259.837 228.41 259.982 227.911 260.008 227.399V226.807C259.981 226.295 259.835 225.796 259.582 225.35C259.328 224.905 258.973 224.525 258.546 224.242L226.749 205.884C226.29 205.65 225.782 205.528 225.266 205.528C224.75 205.528 224.242 205.65 223.782 205.884L171.129 236.285C170.701 236.568 170.346 236.947 170.092 237.393C169.838 237.839 169.693 238.338 169.667 238.85Z" fill="#FABB03"/>
<path d="M169.667 238.85V239.442C169.694 239.954 169.84 240.453 170.093 240.898C170.347 241.344 170.702 241.723 171.129 242.007L202.926 260.364C203.385 260.599 203.893 260.721 204.409 260.721C204.925 260.721 205.433 260.599 205.893 260.364L258.546 229.964C258.974 229.681 259.329 229.301 259.583 228.856C259.837 228.41 259.982 227.911 260.008 227.399V226.807C259.981 226.295 259.835 225.796 259.582 225.35C259.328 224.905 258.973 224.525 258.546 224.242L226.749 205.884C226.29 205.65 225.782 205.528 225.266 205.528C224.75 205.528 224.242 205.65 223.782 205.884L171.129 236.285C170.701 236.568 170.346 236.947 170.092 237.393C169.838 237.839 169.693 238.338 169.667 238.85Z" fill="#FABB03"/>
<path opacity="0.3" d="M258.568 224.242L226.771 205.884C226.312 205.65 225.803 205.528 225.288 205.528C224.772 205.528 224.264 205.65 223.804 205.884L204.431 217.087V260.744C204.941 260.752 205.444 260.628 205.893 260.386L258.546 229.986C258.974 229.703 259.329 229.323 259.583 228.878C259.837 228.432 259.982 227.933 260.008 227.42V226.829C259.987 226.315 259.846 225.813 259.596 225.363C259.346 224.914 258.994 224.53 258.568 224.242Z" fill="white"/>
<path opacity="0.15" d="M258.568 224.242L226.771 205.884C226.312 205.65 225.803 205.528 225.288 205.528C224.772 205.528 224.264 205.65 223.804 205.884L204.431 217.087V260.744C204.941 260.752 205.444 260.628 205.893 260.386L258.546 229.986C258.974 229.703 259.329 229.323 259.583 228.878C259.837 228.432 259.982 227.933 260.008 227.42V226.829C259.987 226.315 259.846 225.813 259.596 225.363C259.346 224.914 258.994 224.53 258.568 224.242Z" fill="black"/>
<path opacity="0.3" d="M204.431 217.087L171.151 236.307C170.723 236.589 170.368 236.969 170.114 237.415C169.86 237.86 169.714 238.359 169.689 238.872V239.464C169.716 239.976 169.861 240.474 170.115 240.92C170.369 241.365 170.724 241.745 171.151 242.029L202.947 260.386C203.396 260.629 203.899 260.752 204.409 260.744L204.431 217.087Z" fill="white"/>
<path opacity="0.2" d="M204.431 217.087L171.151 236.307C170.723 236.589 170.368 236.969 170.114 237.415C169.86 237.86 169.714 238.359 169.689 238.872V239.464C169.716 239.976 169.861 240.474 170.115 240.92C170.369 241.365 170.724 241.745 171.151 242.029L202.947 260.386C203.396 260.629 203.899 260.752 204.409 260.744L204.431 217.087Z" fill="black"/>
<path d="M197.854 253.415L171.151 237.995C170.97 237.936 170.813 237.822 170.701 237.669C170.589 237.515 170.529 237.33 170.529 237.14C170.529 236.95 170.589 236.765 170.701 236.611C170.813 236.458 170.97 236.344 171.151 236.285L223.804 205.884C224.264 205.65 224.772 205.528 225.288 205.528C225.803 205.528 226.312 205.65 226.771 205.884L258.568 224.242C258.749 224.3 258.906 224.414 259.018 224.568C259.129 224.722 259.189 224.907 259.189 225.097C259.189 225.286 259.129 225.471 259.018 225.625C258.906 225.779 258.749 225.893 258.568 225.952L249.835 230.972L246.773 232.741L205.914 256.331C205.455 256.565 204.947 256.687 204.431 256.687C203.915 256.687 203.407 256.565 202.947 256.331L200.361 254.832L197.854 253.415Z" fill="#FABB03"/>
<path opacity="0.3" d="M197.854 253.415L171.151 237.995C170.97 237.936 170.813 237.822 170.701 237.669C170.589 237.515 170.529 237.33 170.529 237.14C170.529 236.95 170.589 236.765 170.701 236.611C170.813 236.458 170.97 236.344 171.151 236.285L223.804 205.884C224.264 205.65 224.772 205.528 225.288 205.528C225.803 205.528 226.312 205.65 226.771 205.884L258.568 224.242C258.749 224.3 258.906 224.414 259.018 224.568C259.129 224.722 259.189 224.907 259.189 225.097C259.189 225.286 259.129 225.471 259.018 225.625C258.906 225.779 258.749 225.893 258.568 225.952L249.835 230.972L246.773 232.741L205.914 256.331C205.455 256.565 204.947 256.687 204.431 256.687C203.915 256.687 203.407 256.565 202.947 256.331L200.361 254.832L197.854 253.415Z" fill="white"/>
<path opacity="0.15" d="M222.101 227.8L258.568 224.241L222.423 226.287L226.771 205.884C226.274 205.625 225.716 205.506 225.156 205.54L218.338 233.164L170.552 237.103C170.547 237.3 170.602 237.494 170.709 237.659C170.816 237.824 170.97 237.954 171.151 238.031L209.737 235.751L204.424 256.71L211.198 235.671L217.775 235.283C218.589 235.243 219.363 234.923 219.968 234.377C220.534 233.875 220.923 233.203 221.078 232.463L222.101 227.8Z" fill="black"/>
<path opacity="0.3" d="M181.967 236.124L218.353 233.127L219.653 227.909L220.384 224.986L225.193 205.518C224.719 205.524 224.253 205.642 223.833 205.862L197.525 221.062L171.217 236.262C171.061 236.334 170.925 236.443 170.821 236.579C170.716 236.716 170.646 236.875 170.617 237.044L177.925 236.445L181.967 236.124Z" fill="white"/>
<path d="M219.237 201.528C222.562 199.606 227.955 199.606 231.28 201.528C234.605 203.45 234.605 206.564 231.28 208.478C227.955 210.393 222.562 210.4 219.237 208.478C215.912 206.556 215.941 203.45 219.237 201.528Z" fill="#F28F8F"/>
<path d="M221.078 206.125C220.989 206.121 220.902 206.091 220.83 206.037C220.803 206.019 220.782 205.994 220.77 205.964C220.758 205.933 220.756 205.9 220.764 205.869L221.261 203.676C221.261 203.625 221.261 203.559 221.32 203.479C221.352 203.392 221.418 203.321 221.502 203.282L222.715 202.551C222.798 202.505 222.891 202.482 222.986 202.485C223.08 202.482 223.174 202.504 223.256 202.551L229.709 206.278C229.741 206.29 229.768 206.311 229.787 206.338C229.807 206.365 229.818 206.398 229.819 206.431C229.816 206.465 229.804 206.496 229.785 206.523C229.766 206.55 229.739 206.572 229.709 206.585L228.401 207.316C228.318 207.362 228.225 207.384 228.131 207.382C228.036 207.385 227.942 207.362 227.86 207.316L223.475 204.802L223.183 206.008C223.183 206.066 223.125 206.117 223.044 206.154C222.954 206.191 222.856 206.206 222.759 206.198L221.078 206.125Z" fill="#FAFAFA"/>
<path d="M139.318 226.828L162.871 213.236L178.948 217.218C179.294 217.303 179.658 217.279 179.989 217.15C180.321 217.021 180.605 216.792 180.802 216.496C180.999 216.2 181.1 215.85 181.092 215.494C181.083 215.138 180.965 214.794 180.753 214.507L174.717 206.381L198.263 192.781C200.002 191.772 200.002 190.128 198.263 189.127L151.164 161.912C150.182 161.419 149.098 161.162 147.999 161.162C146.901 161.162 145.817 161.419 144.835 161.912L85.8824 195.982C84.1431 196.983 84.1431 198.627 85.8824 199.636L133.004 226.828C133.982 227.323 135.064 227.581 136.161 227.581C137.258 227.581 138.339 227.323 139.318 226.828Z" fill="#FAFAFA"/>
<path d="M110.24 190.975C111.627 190.161 113.113 189.528 114.661 189.09C116.037 188.699 117.45 188.455 118.878 188.359C120.137 188.276 121.401 188.352 122.641 188.586C123.695 188.784 124.721 189.11 125.696 189.557C126.67 190.045 127.674 190.578 128.707 191.158C129.739 191.738 130.66 192.315 131.469 192.89C132.147 193.355 132.72 193.957 133.15 194.658C133.552 195.314 133.695 196.095 133.552 196.851C133.347 197.752 132.906 198.582 132.273 199.255C131.32 200.278 130.204 201.134 128.97 201.791C127.591 202.602 126.118 203.243 124.585 203.698C123.218 204.096 121.811 204.341 120.39 204.429C119.131 204.51 117.866 204.431 116.627 204.195C115.57 204.001 114.542 203.677 113.565 203.231C112.59 202.743 111.589 202.21 110.561 201.63C109.533 201.05 108.61 200.471 107.791 199.891C107.114 199.431 106.543 198.83 106.118 198.13C105.717 197.474 105.574 196.693 105.716 195.937C105.919 195.033 106.349 194.196 106.966 193.504C107.905 192.48 109.012 191.625 110.24 190.975ZM125.184 195.93C124.892 195.703 124.582 195.5 124.256 195.323L122.853 194.512L121.443 193.701C121.109 193.496 120.759 193.318 120.398 193.168C119.596 192.803 118.728 192.609 117.847 192.598C116.735 192.622 115.652 192.956 114.719 193.562C113.557 194.235 112.995 194.834 113.038 195.367C113.089 195.668 113.204 195.955 113.375 196.207C113.547 196.459 113.771 196.671 114.032 196.829C114.319 197.053 114.62 197.261 114.931 197.45C115.355 197.72 115.815 197.998 116.305 198.276C116.795 198.553 117.27 198.824 117.767 199.072C118.117 199.265 118.478 199.439 118.848 199.591C119.65 199.956 120.518 200.15 121.399 200.161C122.51 200.135 123.593 199.801 124.527 199.197C125.688 198.524 126.251 197.925 126.2 197.384C126.149 197.082 126.031 196.795 125.855 196.543C125.68 196.292 125.45 196.082 125.184 195.93ZM135.583 177.792C135.545 177.476 135.593 177.155 135.722 176.864C135.979 176.477 136.338 176.168 136.76 175.972L140.363 173.889C140.771 173.645 141.227 173.493 141.7 173.444C142.095 173.397 142.495 173.471 142.847 173.656C142.922 173.706 142.988 173.768 143.045 173.838C143.109 173.923 143.154 174.02 143.176 174.123L147.32 210.787C147.353 211.101 147.302 211.419 147.174 211.708C146.925 212.101 146.567 212.413 146.143 212.607L142.54 214.689C142.133 214.933 141.676 215.083 141.203 215.128C140.809 215.18 140.408 215.108 140.056 214.923C139.976 214.874 139.907 214.809 139.851 214.733C139.79 214.647 139.745 214.55 139.72 214.448L135.583 177.792ZM154.518 186.503C155.907 185.69 157.392 185.054 158.939 184.61C160.315 184.216 161.728 183.971 163.156 183.879C164.415 183.796 165.68 183.872 166.92 184.106C167.974 184.304 168.999 184.63 169.974 185.078C170.949 185.565 171.952 186.096 172.985 186.671C174.018 187.246 174.939 187.826 175.748 188.41C176.425 188.873 176.998 189.473 177.428 190.171C177.829 190.827 177.972 191.608 177.83 192.364C177.627 193.269 177.185 194.104 176.551 194.783C175.596 195.803 174.481 196.66 173.248 197.318C171.871 198.131 170.398 198.77 168.863 199.218C167.5 199.62 166.095 199.866 164.676 199.949C163.417 200.033 162.152 199.957 160.912 199.723C159.856 199.523 158.828 199.197 157.85 198.751C156.871 198.276 155.87 197.75 154.847 197.158C153.824 196.566 152.903 195.988 152.077 195.418C151.401 194.953 150.831 194.35 150.404 193.65C150 192.995 149.857 192.213 150.002 191.458C150.205 190.553 150.635 189.716 151.251 189.024C152.187 188.002 153.292 187.149 154.518 186.503ZM169.463 191.45C169.17 191.226 168.859 191.026 168.535 190.851L167.132 190.047L165.721 189.236C165.385 189.032 165.036 188.851 164.676 188.695C163.872 188.337 163.005 188.144 162.126 188.125C161.013 188.157 159.929 188.49 158.991 189.09C157.836 189.762 157.273 190.369 157.317 190.902C157.367 191.203 157.482 191.49 157.654 191.742C157.825 191.994 158.049 192.206 158.311 192.364C158.596 192.59 158.894 192.8 159.202 192.992C159.634 193.263 160.094 193.54 160.584 193.818C161.073 194.096 161.548 194.366 162.045 194.615C162.542 194.863 162.878 195.031 163.127 195.133C163.93 195.492 164.798 195.686 165.677 195.703C166.789 195.671 167.87 195.334 168.805 194.731C169.967 194.066 170.522 193.46 170.479 192.926C170.428 192.621 170.311 192.33 170.136 192.075C169.96 191.82 169.73 191.606 169.463 191.45Z" fill="#FABB03"/>
<path d="M50.9726 47.9671L60.5605 42.4277V86.5382C60.5605 88.1971 62.4825 89.856 62.4825 89.856L52.8945 95.3953C52.8945 95.3953 50.9726 93.7291 50.9726 92.0702V47.9671Z" fill="#37474F"/>
<path d="M39.3165 47.8726L43.3577 52.9881V72.1567C43.3502 77.5229 41.8305 82.7784 38.973 87.3206L52.858 95.3592C51.8098 94.5426 51.1205 93.3501 50.936 92.0342V54.6031L39.3165 47.8726Z" fill="#455A64"/>
<path d="M38.973 87.3564V89.5707L52.8945 97.6094V95.3951L38.973 87.3564Z" fill="#FABB03"/>
<path d="M52.8945 97.6101L62.4825 92.0707V89.8564L52.8945 95.3958V97.6101Z" fill="#FABB03"/>
<path opacity="0.1" d="M52.8945 97.6101L62.4825 92.0707V89.8564L52.8945 95.3958V97.6101Z" fill="black"/>
<path d="M50.5341 24.6767C48.9044 23.6975 46.639 23.8217 44.1324 25.2687L44.0374 25.3198C39.0826 28.1918 35.0779 35.1197 35.0779 40.871V40.966C35.0779 43.8892 36.1594 45.9792 37.8841 46.8708L45.1408 51.1386L57.2427 28.6376L50.5341 24.6767Z" fill="#FABB03"/>
<path opacity="0.8" d="M50.5341 24.6767C48.9044 23.6975 46.639 23.8217 44.1324 25.2687L44.0374 25.3198C39.0826 28.1918 35.0779 35.1197 35.0779 40.871V40.966C35.0779 43.8892 36.1594 45.9792 37.8841 46.8708L45.1408 51.1386L57.2427 28.6376L50.5341 24.6767Z" fill="#FAFAFA"/>
<path opacity="0.2" d="M37.8695 46.8859L45.1262 51.1537L49.1456 43.6924L35.8964 36.041C35.3758 37.5993 35.0997 39.2288 35.0779 40.8715V40.9665C35.0779 43.9408 36.1448 45.9944 37.8695 46.8859Z" fill="#FABB03"/>
<path d="M66.2022 30.1951C64.3606 29.1428 61.8759 29.1793 59.1281 30.524C58.8358 30.6628 58.5435 30.8163 58.2512 30.9917C57.9589 31.1671 57.5569 31.4082 57.2208 31.6421C56.6477 32.0379 56.0987 32.4674 55.5765 32.9283C54.5745 33.7908 53.6502 34.7396 52.8141 35.7637C50.4855 38.6038 48.7598 41.8885 47.7424 45.4175C47.2677 47.0815 47.0218 48.8025 47.0117 50.533C47.0117 54.0335 48.2102 56.5182 50.1614 57.7313L43.2262 53.7338C41.9397 52.9045 40.8877 51.7586 40.1711 50.4061C39.4546 49.0535 39.0974 47.5396 39.1338 46.0094C39.1482 44.3639 39.3792 42.7275 39.8207 41.1423C40.8167 37.5276 42.5593 34.1618 44.9362 31.2621C45.7703 30.2362 46.6948 29.2872 47.6986 28.4266C48.2237 27.9451 48.7777 27.4961 49.3575 27.082C49.701 26.8481 50.0444 26.6289 50.3879 26.4316C50.7314 26.2342 50.9798 26.11 51.2795 25.9712C52.5104 25.3906 53.8583 25.1005 55.2191 25.1233C56.5799 25.1461 57.9173 25.4812 59.1281 26.1027L59.3255 26.2123L59.5739 26.3585L66.2022 30.1951Z" fill="#FABB03"/>
<path opacity="0.1" d="M43.2116 53.6896C41.9251 52.8603 40.8731 51.7144 40.1566 50.3619C39.44 49.0093 39.0828 47.4954 39.1192 45.9652C39.1336 44.3197 39.3646 42.6833 39.8061 41.0981L47.7279 45.4098C47.2531 47.0739 47.0072 48.7949 46.9971 50.5253C46.9971 54.0258 48.1956 56.5105 50.1468 57.7236L43.2116 53.6896Z" fill="black"/>
<path d="M69.5054 37.488C69.5054 44.6717 64.4702 53.3973 58.2512 56.9855C55.1308 58.7978 52.2953 58.9513 50.2564 57.7162L50.1468 57.6505C48.1956 56.4374 46.9971 53.9527 46.9971 50.4522C46.9971 43.2759 52.0322 34.5429 58.2512 30.9547C61.3498 29.1643 64.1633 28.9889 66.2022 30.1582C68.2411 31.3274 69.5054 33.8925 69.5054 37.488Z" fill="#FABB03"/>
<path opacity="0.2" d="M69.5054 37.488C69.5054 44.6717 64.4702 53.3973 58.2512 56.9855C55.1308 58.7978 52.2953 58.9513 50.2564 57.7162L50.1468 57.6505C48.1956 56.4374 46.9971 53.9527 46.9971 50.4522C46.9971 43.2759 52.0322 34.5429 58.2512 30.9547C61.3498 29.1643 64.1633 28.9889 66.2022 30.1582C68.2411 31.3274 69.5054 33.8925 69.5054 37.488Z" fill="black"/>
<path d="M104.021 35.6319C104.021 35.6319 92.6641 41.4782 82.9665 58.2864C81.2214 61.3014 79.6832 64.4315 78.3625 67.6551C73.4955 79.6035 73.8974 87.8395 73.8974 87.8395C70.5139 79.545 66.3045 70.9656 59.2816 64.3958C56.5349 61.8376 53.6539 59.4275 50.651 57.1756C48.7948 56.094 47.7278 53.7555 47.7278 50.5254C47.7517 48.2587 48.1696 46.0133 48.9629 43.8898C49.483 42.4617 50.1286 41.0824 50.8922 39.7682C52.7275 36.4383 55.384 33.6333 58.6093 31.6199C61.4082 30.0048 63.9806 29.771 65.8368 30.8379C69.2883 32.3128 72.8156 33.6032 76.404 34.7038C85.612 37.4954 95.1488 36.845 104.021 35.6319Z" fill="#FABB03"/>
<path opacity="0.8" d="M104.021 35.6319C104.021 35.6319 92.6641 41.4782 82.9665 58.2864C81.2214 61.3014 79.6832 64.4315 78.3625 67.6551C73.4955 79.6035 73.8974 87.8395 73.8974 87.8395C70.5139 79.545 66.3045 70.9656 59.2816 64.3958C56.5349 61.8376 53.6539 59.4275 50.651 57.1756C48.7948 56.094 47.7278 53.7555 47.7278 50.5254C47.7517 48.2587 48.1696 46.0133 48.9629 43.8898C49.483 42.4617 50.1286 41.0824 50.8922 39.7682C52.7275 36.4383 55.384 33.6333 58.6093 31.6199C61.4082 30.0048 63.9806 29.771 65.8368 30.8379C69.2883 32.3128 72.8156 33.6032 76.404 34.7038C85.612 37.4954 95.1488 36.845 104.021 35.6319Z" fill="#FAFAFA"/>
<path opacity="0.2" d="M78.3625 67.6257C73.4955 79.5741 73.8974 87.8101 73.8974 87.8101C70.5139 79.5156 66.3045 70.9362 59.2816 64.3664C56.5349 61.8082 53.6539 59.3981 50.651 57.1462C48.7948 56.0646 47.7278 53.7261 47.7278 50.496C47.7551 48.2391 48.1729 46.0039 48.9629 43.8896C57.5935 48.1867 71.515 56.1304 78.3625 67.6257Z" fill="#FABB03"/>
<path d="M125.418 51.8333C125.418 59.3239 123.109 67.5161 119.272 75.0871C114.354 84.8139 106.936 93.4372 98.6565 98.2311C83.8581 106.774 71.8658 99.8462 71.8658 82.7676C71.9068 78.6695 72.5042 74.5959 73.6416 70.6585C76.6214 60.2657 82.1969 50.8022 89.8432 43.1589C90.8907 42.1309 91.965 41.1565 93.066 40.2357C93.5264 39.8557 93.9941 39.5049 94.4618 39.1322C95.1268 38.628 95.7919 38.1456 96.4715 37.6706C97.1511 37.1956 97.9258 36.7864 98.6565 36.3698C113.418 27.8123 125.418 34.7548 125.418 51.8333Z" fill="#FABB03"/>
<path opacity="0.1" d="M119.272 75.0873C114.354 84.8141 106.936 93.4374 98.6566 98.2314C83.8581 106.774 71.8658 99.8464 71.8658 82.7679C71.9068 78.6697 72.5042 74.5961 73.6416 70.6587C74.6428 72.8511 78.2383 76.0227 79.8533 73.8084C78.8598 77.3043 78.3363 80.9169 78.2968 84.551C78.2968 89.4619 79.3929 93.4228 81.4611 96.0098C82.3154 97.0928 83.4132 97.959 84.6652 98.538C85.9172 99.1171 87.2882 99.3926 88.6667 99.3422C91.5898 99.3422 95.0099 98.2679 98.525 96.2363C105.592 92.1585 112.088 84.8287 116.7 76.505C116.671 76.5269 117.591 77.3016 119.272 75.0873Z" fill="black"/>
<path d="M123.584 52.7907C123.584 60.3324 120.938 68.868 116.671 76.5267C112.059 84.8285 105.563 92.1583 98.4958 96.258C94.9807 98.2896 91.5752 99.3639 88.6374 99.3639C87.2589 99.4143 85.888 99.1388 84.636 98.5597C83.3839 97.9807 82.2862 97.1145 81.4319 96.0315C79.3637 93.4445 78.2675 89.4544 78.2675 84.5727C78.3071 80.9386 78.8306 77.326 79.8241 73.8301C80.1968 72.4416 80.6426 71.0531 81.1469 69.6646C82.0425 67.2089 83.097 64.8142 84.3039 62.4956L85.0347 61.034C85.4658 60.2447 85.9116 59.4628 86.3793 58.6955C87.9511 56.0887 89.7173 53.6043 91.6629 51.2633L91.7287 51.1903C92.9817 49.686 94.3162 48.2515 95.7261 46.8932C96.7297 45.9188 97.748 45.0273 98.7808 44.2185C99.2193 43.8677 99.6578 43.5316 100.096 43.21C100.63 42.8227 101.17 42.4792 101.711 42.0919C102.252 41.7046 102.778 41.4196 103.312 41.1054C106.834 39.0665 110.247 37.9995 113.177 37.9995C119.711 38.0434 123.584 43.5389 123.584 52.7907Z" fill="#FABB03"/>
<path opacity="0.3" d="M123.584 52.7907C123.584 60.3324 120.938 68.868 116.671 76.5267C112.059 84.8285 105.563 92.1583 98.4958 96.258C94.9807 98.2896 91.5752 99.3639 88.6374 99.3639C87.2589 99.4143 85.888 99.1388 84.636 98.5597C83.3839 97.9807 82.2862 97.1145 81.4319 96.0315C79.3637 93.4445 78.2675 89.4544 78.2675 84.5727C78.3071 80.9386 78.8306 77.326 79.8241 73.8301C80.1968 72.4416 80.6426 71.0531 81.1469 69.6646C82.0425 67.2089 83.097 64.8142 84.3039 62.4956L85.0347 61.034C85.4658 60.2447 85.9116 59.4628 86.3793 58.6955C87.9511 56.0887 89.7173 53.6043 91.6629 51.2633L91.7287 51.1903C92.9817 49.686 94.3162 48.2515 95.7261 46.8932C96.7297 45.9188 97.748 45.0273 98.7808 44.2185C99.2193 43.8677 99.6578 43.5316 100.096 43.21C100.63 42.8227 101.17 42.4792 101.711 42.0919C102.252 41.7046 102.778 41.4196 103.312 41.1054C106.834 39.0665 110.247 37.9995 113.177 37.9995C119.711 38.0434 123.584 43.5389 123.584 52.7907Z" fill="black"/>
<path d="M100.849 56.9852L91.451 74.5242C88.8055 73.5303 84.3404 71.9445 80.701 71.0164C80.8472 70.5487 81.008 70.0956 81.1834 69.6279C82.0772 67.1715 83.1319 64.7767 84.3404 62.4589C84.5889 61.9765 84.8446 61.5015 85.0712 60.9973C85.5023 60.208 85.9481 59.4261 86.4158 58.6661C87.9859 56.0582 89.7522 53.5736 91.6994 51.2339C91.7252 51.2105 91.7474 51.1835 91.7652 51.1535C92.0502 50.8174 92.3352 50.4812 92.6202 50.1597C95.158 52.6714 97.9115 54.9553 100.849 56.9852Z" fill="#FABB03"/>
<g opacity="0.6">
<path opacity="0.6" d="M100.849 56.9852L91.451 74.5242C88.8055 73.5303 84.3404 71.9445 80.701 71.0164C80.8472 70.5487 81.008 70.0956 81.1834 69.6279C82.0772 67.1715 83.1319 64.7767 84.3404 62.4589C84.5889 61.9765 84.8446 61.5015 85.0712 60.9973C85.5023 60.208 85.9481 59.4261 86.4158 58.6661C87.9859 56.0582 89.7522 53.5736 91.6994 51.2339C91.7252 51.2105 91.7474 51.1835 91.7652 51.1535C92.0502 50.8174 92.3352 50.4812 92.6202 50.1597C95.158 52.6714 97.9115 54.9553 100.849 56.9852Z" fill="#FAFAFA"/>
</g>
<path d="M92.2037 74.4883C90.0771 74.4883 88.8128 72.7709 88.8128 69.8989V69.8112C88.8128 65.2949 91.9918 59.7775 95.9088 57.5193L95.9819 57.4755C96.8757 56.9195 97.8973 56.6025 98.9489 56.5547C101.068 56.5547 102.34 58.272 102.34 61.1514V61.239C102.34 65.7553 99.1535 71.2655 95.2438 73.5236L95.1707 73.5675C94.2784 74.1268 93.2559 74.4441 92.2037 74.4883Z" fill="#FABB03"/>
<g opacity="0.8">
<path opacity="0.8" d="M92.2037 74.4883C90.0771 74.4883 88.8128 72.7709 88.8128 69.8989V69.8112C88.8128 65.2949 91.9918 59.7775 95.9088 57.5193L95.9819 57.4755C96.8757 56.9195 97.8973 56.6025 98.9489 56.5547C101.068 56.5547 102.34 58.272 102.34 61.1514V61.239C102.34 65.7553 99.1535 71.2655 95.2438 73.5236L95.1707 73.5675C94.2784 74.1268 93.2559 74.4441 92.2037 74.4883Z" fill="#FAFAFA"/>
</g>
<path d="M102.31 25.0645C101.75 25.0645 101.213 24.842 100.817 24.4459C100.421 24.0498 100.199 23.5126 100.199 22.9525V2.4904C100.199 1.93027 100.421 1.39308 100.817 0.997003C101.213 0.60093 101.75 0.378418 102.31 0.378418C102.871 0.378418 103.408 0.60093 103.804 0.997003C104.2 1.39308 104.422 1.93027 104.422 2.4904V22.9525C104.422 23.5126 104.2 24.0498 103.804 24.4459C103.408 24.842 102.871 25.0645 102.31 25.0645Z" fill="#E0E0E0"/>
<path d="M83.7411 30.0482C83.371 30.049 83.0071 29.9521 82.6864 29.7673C82.3656 29.5826 82.0992 29.3165 81.9142 28.9959L71.6831 11.2962C71.4021 10.8117 71.325 10.2353 71.4689 9.69397C71.6128 9.15262 71.9659 8.69061 72.4504 8.40958C72.935 8.12854 73.5113 8.0515 74.0527 8.1954C74.594 8.3393 75.056 8.69236 75.337 9.1769L85.5681 26.8766C85.7546 27.1982 85.8529 27.5632 85.8532 27.9349C85.8534 28.3067 85.7555 28.6718 85.5694 28.9936C85.3833 29.3154 85.1156 29.5824 84.7933 29.7675C84.471 29.9527 84.1055 30.0495 83.7338 30.0482H83.7411Z" fill="#E0E0E0"/>
<path d="M64.3972 128.544C64.0269 128.542 63.6637 128.443 63.3437 128.256C63.0237 128.07 62.7581 127.803 62.5733 127.482C62.3885 127.162 62.291 126.798 62.2904 126.428C62.2899 126.058 62.3863 125.694 62.5702 125.372L72.8012 107.673C72.9334 107.42 73.1152 107.198 73.3357 107.018C73.5562 106.838 73.8108 106.704 74.0842 106.625C74.3576 106.546 74.6442 106.523 74.9268 106.557C75.2093 106.591 75.482 106.683 75.7285 106.825C75.9749 106.967 76.19 107.158 76.3609 107.386C76.5317 107.614 76.6548 107.873 76.7227 108.15C76.7905 108.426 76.8018 108.714 76.7559 108.995C76.7099 109.275 76.6076 109.544 76.4552 109.785L66.2241 127.484C66.0388 127.805 65.7726 128.072 65.4521 128.258C65.1315 128.444 64.7678 128.542 64.3972 128.544Z" fill="#E0E0E0"/>
<path d="M102.31 131.277C101.75 131.277 101.213 131.055 100.817 130.659C100.421 130.263 100.199 129.726 100.199 129.165V108.703C100.199 108.143 100.421 107.606 100.817 107.21C101.213 106.814 101.75 106.591 102.31 106.591C102.871 106.591 103.408 106.814 103.804 107.21C104.2 107.606 104.422 108.143 104.422 108.703V129.165C104.422 129.726 104.2 130.263 103.804 130.659C103.408 131.055 102.871 131.277 102.31 131.277Z" fill="#E0E0E0"/>
<path d="M131.162 112.175C130.795 112.172 130.434 112.074 130.116 111.889C129.798 111.704 129.534 111.44 129.35 111.122L119.119 93.4225C118.865 92.9397 118.809 92.3778 118.96 91.8542C119.112 91.3306 119.46 90.8859 119.932 90.6131C120.404 90.3403 120.963 90.2605 121.493 90.3905C122.022 90.5205 122.481 90.8502 122.773 91.3105L133.004 109.01C133.188 109.332 133.284 109.696 133.283 110.066C133.283 110.436 133.185 110.8 133.001 111.12C132.816 111.441 132.55 111.708 132.23 111.894C131.91 112.081 131.547 112.18 131.177 112.182L131.162 112.175Z" fill="#E0E0E0"/>
<path d="M152.245 91.0767C151.876 91.0773 151.514 90.9816 151.193 90.799L133.493 80.5679C133.253 80.4288 133.043 80.2437 132.875 80.0233C132.706 79.803 132.583 79.5516 132.512 79.2835C132.44 79.0155 132.423 78.736 132.459 78.4611C132.496 78.1862 132.587 77.9212 132.726 77.6813C132.865 77.4414 133.05 77.2312 133.27 77.0628C133.491 76.8944 133.742 76.771 134.01 76.6998C134.278 76.6285 134.558 76.6108 134.833 76.6475C135.108 76.6843 135.373 76.7748 135.613 76.914L153.305 87.145C153.707 87.3781 154.021 87.7372 154.198 88.1666C154.375 88.5961 154.406 89.072 154.285 89.5206C154.164 89.9693 153.899 90.3656 153.53 90.6482C153.161 90.9308 152.71 91.084 152.245 91.084V91.0767Z" fill="#E0E0E0"/>
<path d="M159.97 62.262H139.508C138.948 62.262 138.41 62.0395 138.014 61.6435C137.618 61.2474 137.396 60.7102 137.396 60.1501C137.396 59.5899 137.618 59.0527 138.014 58.6567C138.41 58.2606 138.948 58.0381 139.508 58.0381H159.97C160.53 58.0381 161.067 58.2606 161.463 58.6567C161.859 59.0527 162.082 59.5899 162.082 60.1501C162.082 60.7102 161.859 61.2474 161.463 61.6435C161.067 62.0395 160.53 62.262 159.97 62.262Z" fill="#E0E0E0"/>
<path d="M134.553 43.6634C134.086 43.6663 133.631 43.5143 133.26 43.2313C132.889 42.9483 132.621 42.5501 132.5 42.0992C132.379 41.6482 132.411 41.1699 132.591 40.7389C132.77 40.3079 133.088 39.9486 133.493 39.7172L151.193 29.4861C151.433 29.3337 151.702 29.2314 151.983 29.1854C152.264 29.1395 152.551 29.1508 152.828 29.2186C153.104 29.2865 153.364 29.4096 153.592 29.5804C153.819 29.7513 154.01 29.9664 154.153 30.2128C154.295 30.4593 154.386 30.732 154.421 31.0145C154.455 31.2971 154.432 31.5837 154.353 31.8571C154.273 32.1305 154.14 32.3851 153.96 32.6056C153.78 32.826 153.557 33.0078 153.305 33.1401L135.613 43.3711C135.292 43.5617 134.926 43.6626 134.553 43.6634Z" fill="#E0E0E0"/>
<path d="M120.938 30.0482C120.568 30.047 120.204 29.9483 119.884 29.7621C119.564 29.5758 119.298 29.3086 119.114 28.9873C118.929 28.6659 118.833 28.3018 118.834 27.9313C118.834 27.5608 118.933 27.1971 119.119 26.8766L129.35 9.1769C129.631 8.69236 130.093 8.3393 130.634 8.1954C131.175 8.0515 131.752 8.12854 132.236 8.40958C132.721 8.69061 133.074 9.15262 133.218 9.69397C133.362 10.2353 133.285 10.8117 133.004 11.2962L122.773 28.9959C122.587 29.3176 122.319 29.5844 121.997 29.7692C121.675 29.954 121.31 30.0503 120.938 30.0482Z" fill="#E0E0E0"/>
</svg>
