<svg width="850" height="277" viewBox="0 0 850 277" fill="none" xmlns="http://www.w3.org/2000/svg">
<path d="M711.73 154.779C639.747 166.59 651.96 242.588 715.228 242.724C742.041 243.025 759.758 233.505 768.887 221.65C756.447 224.966 734.363 224.845 722.974 221.455C768.887 221.65 813.224 197.643 825.145 171.227C805.684 180.794 771.209 189.638 742.743 188.97C799.21 180.661 841.797 148.894 847.749 122.023C815.991 144.045 772.972 144.491 711.73 154.779Z" fill="#AADA91"/>
<path d="M158.692 68.4821C227.53 92.4037 202.277 165.307 139.645 154.47C113.334 149.943 97.395 137.739 90.867 124.149C102.624 129.789 124.389 133.309 136.371 132.06C90.867 124.149 51.4087 92.8575 44.5963 64.8938C62.0971 77.8777 94.4286 92.4119 122.989 96.5697C67.9744 78.7458 31.4958 39.874 30.6523 12.365C57.9873 39.6704 100.002 47.6758 158.692 68.4821Z" fill="#AADA91"/>
<path d="M285.802 125.247L300.813 113.365L294.69 100.699L301.759 101.617L306.665 113.037L306.772 113.05L310.005 102.689L315.825 103.445L312.555 113.802L312.662 113.816L323.714 104.47L331.283 105.453L317.689 115.921L324.394 130.26L317.218 129.328L311.801 116.535L311.694 116.521L308.079 128.141L302.26 127.385L305.91 115.77L305.803 115.756L293.37 126.23L285.802 125.247ZM326.151 130.488L333.897 105.792L339.716 106.548L336.447 116.905L336.554 116.919L347.963 107.62L355.531 108.603L341.58 119.024L348.856 133.438L341.466 132.478L335.692 119.639L335.585 119.625L331.97 131.244L326.151 130.488ZM359.381 125.475L367.624 118.197L370.326 120.871L364.164 126.387L366.446 132.855L362.58 134.386L359.381 125.475ZM367.355 126.693L375.633 119.419L378.371 122.098L372.209 127.614L374.442 133.894L370.577 135.425L367.355 126.693ZM378.968 137.604C377.802 137.452 376.781 137.211 375.904 136.879L377.638 131.913C378.093 132.141 378.57 132.288 379.069 132.353C380.545 132.545 381.889 131.884 383.102 130.372C384.339 128.863 385.619 125.992 386.944 121.759L389.674 113.038L408.595 115.496L400.885 140.197L394.959 139.427L401.108 119.751L393.861 118.81L392.614 122.822C390.782 128.732 388.817 132.772 386.719 134.944C384.646 137.119 382.062 138.006 378.968 137.604ZM402.557 140.414L421.941 117.23L427.724 117.981L429.224 143.878L422.977 143.067L422.774 137.922L413.028 136.656L409.34 141.295L402.557 140.414ZM416.184 132.201L422.789 133.059L422.632 123.927L416.184 132.201ZM431.508 144.175L439.254 119.479L445.109 120.24L440.02 136.495L440.163 136.514L454.962 121.52L461.209 122.331L453.463 147.027L447.609 146.266L452.61 130.399L452.503 130.385L437.862 145L431.508 144.175ZM450.902 118.959C449.117 118.727 447.744 118.113 446.785 117.117C445.849 116.125 445.438 114.813 445.554 113.182L448.774 112.983C448.805 114.609 449.629 115.527 451.248 115.737C452.128 115.851 452.918 115.736 453.616 115.391C454.314 115.046 454.83 114.52 455.164 113.813L458.049 114.805C457.454 116.398 456.507 117.545 455.205 118.248C453.931 118.929 452.496 119.166 450.902 118.959ZM458.771 147.717L466.517 123.021L472.443 123.79L469.482 133.171L479.335 134.451L482.261 125.066L488.223 125.84L480.477 150.536L474.55 149.766L477.789 139.369L467.971 138.094L464.697 148.486L458.771 147.717ZM485.79 151.226L493.536 126.531L509.708 128.631L508.157 133.585L497.661 132.221L496.169 137.001L506.165 138.3L504.687 142.972L494.691 141.674L493.058 146.979L504.553 148.473L502.997 153.462L485.79 151.226ZM506.743 153.948L514.489 129.253L522.807 130.333C525.758 130.716 527.951 131.631 529.384 133.075C530.818 134.52 531.391 136.349 531.104 138.563C530.724 141.49 529.453 143.539 527.292 144.711C525.158 145.861 522.342 146.209 518.843 145.755L515.594 145.333L512.633 154.714L506.743 153.948ZM517.028 140.727L519.562 141.056C522.942 141.496 524.776 140.608 525.063 138.395C525.199 137.348 524.937 136.575 524.275 136.078C523.641 135.56 522.669 135.216 521.36 135.046L518.932 134.731L517.028 140.727ZM548.055 150.24L539.812 157.518L537.075 154.839L543.237 149.323L540.991 142.86L544.816 141.36L548.055 150.24ZM540.045 149.018L531.803 156.296L529.065 153.617L535.223 148.137L532.994 141.821L536.855 140.326L540.045 149.018ZM251.732 165.19L259.478 140.495L265.297 141.25L262.028 151.608L262.135 151.622L273.544 142.322L281.112 143.305L267.162 153.727L274.437 168.14L267.048 167.18L261.273 154.341L261.166 154.327L257.551 165.946L251.732 165.19ZM275.962 168.338L283.708 143.642L292.026 144.723C294.977 145.106 297.17 146.02 298.604 147.465C300.038 148.91 300.611 150.739 300.323 152.952C299.943 155.88 298.672 157.929 296.511 159.1C294.377 160.251 291.561 160.599 288.063 160.145L284.814 159.723L281.853 169.103L275.962 168.338ZM286.247 155.117L288.782 155.446C292.161 155.885 293.995 154.998 294.283 152.785C294.419 151.737 294.156 150.965 293.494 150.468C292.86 149.95 291.888 149.606 290.579 149.436L288.151 149.12L286.247 155.117ZM299.877 171.88C298.521 171.704 297.467 171.434 296.715 171.07L298.217 166.219C298.763 166.484 299.56 166.684 300.607 166.82C301.631 166.953 302.496 166.812 303.204 166.395C303.914 165.955 304.777 165.184 305.791 164.081L306.002 163.855L302.181 146.042L308.857 146.909L310.856 159.185L320.067 148.365L327.207 149.293L311.946 165.607C310.821 166.816 309.887 167.76 309.146 168.438C308.404 169.116 307.517 169.799 306.484 170.488C305.477 171.156 304.439 171.602 303.369 171.826C302.303 172.026 301.139 172.044 299.877 171.88ZM321.563 174.262L329.309 149.566L344.839 151.584L343.243 156.604L333.64 155.356L327.49 175.032L321.563 174.262ZM339.238 176.812C338.072 176.661 337.051 176.419 336.174 176.087L337.908 171.121C338.363 171.35 338.84 171.497 339.34 171.562C340.815 171.753 342.16 171.093 343.372 169.581C344.609 168.071 345.89 165.2 347.214 160.968L349.944 152.247L368.865 154.705L361.155 179.405L355.229 178.635L361.379 158.96L354.132 158.018L352.884 162.031C351.052 167.94 349.087 171.981 346.99 174.153C344.916 176.328 342.332 177.214 339.238 176.812ZM379.487 182.44C375.679 181.945 372.799 180.543 370.849 178.232C368.922 175.925 368.18 173.069 368.622 169.666C369.181 165.358 371.07 161.901 374.289 159.294C377.508 156.687 381.271 155.663 385.579 156.222C389.363 156.714 392.207 158.112 394.11 160.416C396.036 162.724 396.779 165.579 396.337 168.983C395.774 173.314 393.895 176.785 390.7 179.395C387.532 181.985 383.794 183 379.487 182.44ZM380.504 177.127C383.026 177.455 385.173 176.765 386.944 175.059C388.714 173.353 389.766 171.215 390.1 168.644C390.338 166.812 389.963 165.226 388.976 163.888C387.991 162.526 386.499 161.715 384.5 161.455C382.025 161.134 379.876 161.835 378.055 163.558C376.261 165.261 375.198 167.386 374.867 169.933C374.629 171.765 375.003 173.363 375.987 174.725C376.975 176.063 378.481 176.864 380.504 177.127ZM408.437 186.237C404.89 185.777 402.2 184.411 400.365 182.139C398.534 179.844 397.833 177.043 398.263 173.734C398.831 169.355 400.752 165.841 404.025 163.193C407.297 160.544 411.063 159.497 415.324 160.05C417.275 160.304 419.003 160.879 420.508 161.777C422.037 162.677 423.145 163.741 423.833 164.967L418.932 168.324C418.112 166.62 416.62 165.628 414.454 165.346C412.003 165.028 409.843 165.727 407.974 167.445C406.132 169.142 405.044 171.275 404.71 173.846C404.475 175.655 404.826 177.237 405.763 178.593C406.703 179.925 408.149 180.718 410.101 180.972C412.362 181.265 414.421 180.601 416.277 178.979L419.087 183.337C416.176 185.815 412.625 186.781 408.437 186.237ZM422.77 187.845C421.414 187.669 420.36 187.399 419.608 187.035L421.11 182.184C421.656 182.449 422.453 182.649 423.5 182.785C424.524 182.918 425.389 182.776 426.097 182.36C426.807 181.92 427.67 181.149 428.684 180.046L428.895 179.819L425.074 162.007L431.75 162.874L433.749 175.15L442.96 164.33L450.1 165.258L434.839 181.572C433.714 182.781 432.781 183.724 432.039 184.402C431.298 185.081 430.41 185.764 429.377 186.453C428.37 187.121 427.332 187.567 426.262 187.791C425.196 187.991 424.032 188.009 422.77 187.845ZM449.438 190.874L455.588 171.198L448.519 170.28L450.115 165.26L470.036 167.847L468.475 172.872L461.55 171.973L455.364 191.644L449.438 190.874ZM477.243 195.139C473.435 194.645 470.556 193.242 468.605 190.932C466.679 188.624 465.936 185.769 466.378 182.365C466.938 178.057 468.827 174.6 472.046 171.993C475.265 169.386 479.028 168.362 483.336 168.922C487.12 169.413 489.963 170.811 491.866 173.116C493.793 175.423 494.535 178.279 494.093 181.682C493.531 186.014 491.652 189.484 488.457 192.095C485.289 194.684 481.551 195.699 477.243 195.139ZM478.26 189.826C480.783 190.154 482.93 189.465 484.7 187.759C486.471 186.052 487.523 183.914 487.857 181.344C488.095 179.511 487.72 177.926 486.732 176.587C485.748 175.225 484.256 174.414 482.256 174.154C479.781 173.833 477.633 174.534 475.812 176.258C474.017 177.961 472.955 180.085 472.624 182.632C472.386 184.465 472.759 186.062 473.744 187.424C474.732 188.763 476.237 189.563 478.26 189.826ZM507.174 198.374L510.031 189.234C508.035 189.507 506.086 189.52 504.182 189.273C499.493 188.664 497.405 186.384 497.918 182.433C498.005 181.767 498.171 181.05 498.416 180.283L501.033 171.874L506.887 172.635L504.52 180.241C504.344 180.848 504.241 181.27 504.21 181.508C504.086 182.46 504.272 183.174 504.767 183.649C505.285 184.128 506.152 184.446 507.365 184.604C509.15 184.836 510.535 184.798 511.519 184.49L514.92 173.678L520.846 174.448L513.1 199.144L507.174 198.374ZM518.436 199.837L526.182 175.141L532.109 175.911L529.148 185.292L539.001 186.572L541.926 177.187L547.888 177.961L540.142 202.657L534.216 201.887L537.454 191.49L527.637 190.214L524.363 200.607L518.436 199.837ZM558.51 205.696C554.702 205.202 551.822 203.799 549.872 201.489C547.945 199.181 547.203 196.326 547.645 192.922C548.204 188.615 550.094 185.157 553.312 182.55C556.531 179.943 560.294 178.919 564.602 179.479C568.386 179.97 571.23 181.368 573.133 183.673C575.06 185.98 575.802 188.836 575.36 192.239C574.797 196.571 572.918 200.042 569.723 202.652C566.555 205.241 562.817 206.256 558.51 205.696ZM559.527 200.383C562.049 200.711 564.196 200.022 565.967 198.316C567.737 196.609 568.789 194.471 569.123 191.901C569.361 190.068 568.987 188.483 567.999 187.144C567.014 185.782 565.522 184.971 563.523 184.711C561.048 184.39 558.899 185.091 557.078 186.815C555.284 188.518 554.221 190.643 553.89 193.189C553.652 195.022 554.026 196.619 555.01 197.981C555.998 199.32 557.504 200.12 559.527 200.383Z" fill="#AADA91"/>
</svg>
