<svg width="1376" height="755" viewBox="0 0 1376 755" fill="none" xmlns="http://www.w3.org/2000/svg">
<circle cx="47" cy="508.032" r="46.5" stroke="#D1B8F6"/>
<path d="M160.112 418.288L139.432 471.664L84.4856 450.376L64.1097 502.967" stroke="#F0E68A" stroke-linecap="round" stroke-linejoin="round"/>
<path d="M112.529 705.897L99.9045 671.616L135.905 677.824L112.529 705.897Z" stroke="#F7323F"/>
<circle cx="1129.15" cy="481.368" r="46.5" transform="rotate(-12.9991 1129.15 481.368)" stroke="#F7323F"/>
<rect x="1020.69" y="526.015" width="116.247" height="40.9295" rx="20.4647" transform="rotate(-31.4859 1020.69 526.015)" stroke="#FFBF9E"/>
<path d="M1060.06 67.0414L1024.53 52.1533L1039.85 15.5722L1004.84 0.903005" stroke="#AADA91" stroke-linecap="round" stroke-linejoin="round"/>
<path d="M1334.73 354.519L1319.91 314.281L1362.17 321.567L1334.73 354.519Z" stroke="#096D47"/>
<g clip-path="url(#clip0)">
<path d="M679.45 249.11C677.883 247.253 675.827 245.872 673.515 245.125C671.203 244.377 668.728 244.292 666.37 244.88C657.5 246.78 651.65 256.76 649.67 264.95C648.611 269.137 648.5 273.508 649.346 277.743C650.192 281.978 651.973 285.971 654.56 289.43C652.533 293.869 651.036 298.531 650.1 303.32C649.835 304.286 649.863 305.309 650.179 306.26C650.495 307.21 651.086 308.046 651.876 308.661C652.667 309.276 653.622 309.643 654.621 309.716C655.62 309.789 656.618 309.564 657.49 309.07C658.66 308.402 659.519 307.298 659.88 306C660.79 303.8 661.62 301.49 662.64 299.31C663.45 297.56 664.59 297.13 666.21 296.12C669.957 293.704 673.236 290.632 675.89 287.05C681.47 279.44 682.99 270.67 682.89 261.55C683.163 257.136 681.952 252.757 679.45 249.11V249.11Z" fill="#AADA91"/>
<path d="M924.43 565.16C923.65 549.57 920.15 536.65 909.73 524.61C891.23 503.47 867.67 491.66 842.07 482.97C833.246 478.832 824.091 475.44 814.7 472.83C792.78 466.57 769.41 463.78 748.15 455.09C738.01 451.09 724.51 442.09 735.91 430.61C738.165 428.344 740.899 426.612 743.91 425.54C753.935 424.651 764.026 424.839 774.01 426.1C795.07 427.98 816.51 427.72 837.65 427.7C853.56 427.7 869.48 427.34 885.39 426.84C885.81 426.84 886.22 426.84 886.64 426.84C887.042 426.89 887.449 426.89 887.85 426.84C892.773 426.757 897.514 424.965 901.26 421.77C902.37 420.96 903.46 420.14 904.5 419.44C914.24 412.72 918.37 410.31 917.91 398.12C916.77 368.12 915.78 338.26 916.54 308.23C916.521 306.293 915.877 304.413 914.705 302.871C913.532 301.328 911.892 300.206 910.03 299.67C901.36 297.67 890.59 293.53 881.57 294.39C880.742 294.169 879.888 294.061 879.03 294.07C815.86 295.43 752.7 289.53 689.57 293.74C688.383 293.8 687.22 294.099 686.15 294.62C683.916 294.493 681.72 295.249 680.037 296.725C678.354 298.2 677.317 300.278 677.15 302.51C676.826 303.088 676.562 303.698 676.36 304.33C674.259 304.661 672.343 305.725 670.952 307.334C669.561 308.943 668.784 310.993 668.76 313.12C669.12 318.85 669.42 324.55 669.76 330.28C669.295 329.487 668.643 328.821 667.86 328.34C667.077 327.859 666.188 327.577 665.27 327.52C659.52 326.93 653.69 332.43 650.85 336.97C650.462 337.566 650.127 338.195 649.85 338.85C649.178 335.027 648.174 331.269 646.85 327.62C646.57 326.88 646.29 326.12 645.98 325.36C647.18 323.696 647.9 321.735 648.06 319.69C648.412 313.211 647.368 306.731 645 300.69C643.535 295.112 640.128 290.24 635.39 286.95C633.044 285.429 630.313 284.607 627.517 284.58C624.721 284.554 621.975 285.324 619.6 286.8C608.53 294.56 614.53 310.42 620.6 319.32C622.354 322.19 624.654 324.687 627.37 326.67C628.835 327.642 630.527 328.218 632.28 328.34C633.535 328.374 634.789 328.247 636.01 327.96C637.971 333.307 639.492 338.806 640.56 344.4C640.74 345.042 641.043 345.643 641.45 346.17C641.857 346.695 642.363 347.133 642.94 347.46C643.521 347.788 644.159 348.002 644.82 348.09C645.49 348.176 646.171 348.125 646.82 347.94C647.686 347.719 648.471 347.254 649.08 346.6C649.61 349.142 650.78 351.507 652.48 353.47C654.325 355.395 656.389 357.097 658.63 358.54C660.193 359.471 661.515 360.755 662.49 362.29L662.77 363.29V363.62C662.336 364.167 661.812 364.637 661.22 365.01C658.68 366.92 656.15 368.74 653.62 370.62C652.903 371.04 652.3 371.631 651.864 372.339C651.429 373.047 651.174 373.852 651.123 374.681C651.071 375.511 651.225 376.341 651.57 377.098C651.915 377.854 652.44 378.514 653.1 379.02C653.635 379.424 654.243 379.719 654.89 379.89C655.542 380.065 656.223 380.105 656.89 380.01C657.551 379.92 658.187 379.699 658.76 379.36L665.71 374.29C668.041 372.882 670.032 370.977 671.54 368.71C672.207 386.783 672.587 404.87 672.68 422.97C672.69 423.48 672.74 423.988 672.83 424.49C650.73 433.16 626.83 447 632.28 469C636.16 484.94 652.28 491.27 665.61 497.53C674.02 501.48 682.41 505.72 690.95 509.16C702.46 513.16 713.4 518.97 724.88 523.86C733.693 528.018 742.267 532.665 750.56 537.78C756.95 541.38 763.84 544.1 768.3 550.25C783.13 571.01 756.21 584.19 736.14 587.76C712.14 596.63 465.38 609.48 437.63 610.82C399.16 612.67 360.63 613.05 322.12 611.51C286.26 610.09 250.35 607.93 215.28 617.13C207.675 618.559 200.588 621.99 194.75 627.07C181.75 638.95 192.95 651.32 206.64 653.6C241.43 659.35 278.46 654.92 312.64 663.31L271.36 674.56C257.88 678.23 231.8 680.14 227.47 696.94C223.34 712.94 240.32 718.15 252.58 719.06C261.65 719.74 270.7 718.88 279.75 719.36C277.081 719.913 274.58 721.088 272.45 722.79C264.01 729.93 267.38 741.79 276.68 746.28C284.01 749.83 293.81 749.28 301.75 749.73C311.53 750.297 321.327 750.7 331.14 750.94C342.474 751.2 353.807 751.2 365.14 750.94C427.53 753.04 489.93 755.55 552.37 754.77C592.92 754.26 633.47 752.36 673.79 748C698.79 745.29 724.19 742.45 748.17 734.92C762.152 731.642 775.773 726.979 788.83 721L789.91 720.75C821.938 712.557 851.88 697.704 877.78 677.16C893.734 664.945 906.132 648.687 913.69 630.07C916.93 624.683 919.483 618.911 921.29 612.89C925.73 597.62 925.22 580.87 924.43 565.16ZM888.34 320.16C889.77 319.775 891.055 318.98 892.038 317.873C893.021 316.766 893.658 315.395 893.87 313.93C895.47 314.33 897.04 314.79 898.58 315.22C898.25 332.12 898.25 349.03 898.71 365.91C898.96 375.03 899.71 384.2 899.83 393.35C899.83 397.53 900.03 398.98 898.83 400.73C898.751 399.165 898.58 397.606 898.32 396.06C897.41 391 891.76 389.12 887.4 389.88H885.27C885.224 389.654 885.157 389.434 885.07 389.22C885.6 385.78 884.41 380.43 884.23 376.98C884.1 374.67 884.03 372.44 884.05 370.24C885.547 368.726 886.467 366.737 886.649 364.616C886.832 362.495 886.266 360.377 885.05 358.63C885.65 355.463 886.564 352.365 887.78 349.38C888.159 348.447 888.343 347.447 888.32 346.44C888.307 345.434 888.093 344.442 887.69 343.52C887.284 342.6 886.701 341.768 885.973 341.073C885.246 340.378 884.389 339.834 883.45 339.47C884.552 332.904 886.187 326.44 888.34 320.14V320.16ZM667.86 353.42C665.942 351.78 663.939 350.242 661.86 348.81C660.377 347.874 659.252 346.465 658.67 344.81C658.704 344.063 658.891 343.331 659.22 342.66C659.557 342.026 660.012 341.463 660.56 341C661.65 339.83 663.48 337.78 665.15 337.93C666.188 337.955 667.205 337.645 668.053 337.047C668.901 336.45 669.535 335.595 669.86 334.61C670.27 342.22 670.6 349.82 670.93 357.42C670.124 355.933 669.088 354.583 667.86 353.42V353.42Z" fill="#AADA91"/>
<path d="M646.3 395.69C646.011 394.986 645.79 394.256 645.641 393.51C645.65 393.467 645.65 393.423 645.641 393.38C645.641 393.16 645.641 392.94 645.641 392.72C645.56 391.254 645.56 389.786 645.641 388.32C645.946 385.214 645.606 382.078 644.641 379.11C643.904 377.198 642.757 375.47 641.28 374.05C639.811 372.622 638.041 371.539 636.1 370.88C632.586 369.919 628.918 369.651 625.3 370.09C623.956 370.09 622.666 370.624 621.715 371.575C620.765 372.526 620.23 373.815 620.23 375.16C620.23 376.505 620.765 377.794 621.715 378.745C622.666 379.696 623.956 380.23 625.3 380.23C627 380.23 628.69 379.98 630.37 380.03H631.31L633.081 380.48L633.94 380.99L634.57 381.62L634.901 382.23C634.949 382.543 635.036 382.849 635.16 383.14C635.14 383.36 635.14 383.58 635.16 383.8V385.8C635.16 387.09 635.16 388.33 635.03 389.7C634.789 392.643 635.17 395.604 636.151 398.39C636.536 399.64 637.364 400.707 638.48 401.39C639.351 401.889 640.349 402.122 641.35 402.06C642.1 402.01 642.83 401.793 643.486 401.426C644.142 401.06 644.708 400.552 645.143 399.939C645.579 399.327 645.873 398.625 646.004 397.885C646.135 397.145 646.099 396.385 645.901 395.66L646.3 395.69Z" fill="#AADA91"/>
<path d="M645.64 393.48V393.23C645.649 393.273 645.649 393.317 645.64 393.36V393.48Z" fill="#AADA91"/>
<path d="M755.56 308.84H674.81V325.52H755.56V308.84Z" fill="black"/>
<path d="M910.67 310L886.09 305.21L889.09 421.65L911.66 409.2L910.67 310Z" fill="black"/>
<path d="M734.77 328.61C730.97 328.35 715.51 328.86 711.71 328.61C711.579 328.621 711.455 328.678 711.36 328.77C711.268 328.86 711.211 328.981 711.2 329.11C711.2 337.48 710.69 374.98 710.69 379.04C710.44 379.04 710.44 379.29 710.69 379.55C710.693 379.618 710.722 379.682 710.77 379.73C710.821 379.773 710.884 379.798 710.95 379.8C715 379.8 730.71 380.05 734.52 380.05C735.28 380.05 734.52 345.33 735.02 329.11L734.77 328.61ZM734.56 379.55C730.75 379.29 715.3 379.29 711.49 379.04C710.99 374.98 712 337.98 712 329.88C715.8 329.88 731 329.62 734.81 329.37C734.77 337.73 734.26 377.52 734.56 379.55Z" fill="#020202"/>
<path d="M734.56 380.66H710.95C710.763 380.661 710.58 380.601 710.43 380.49C710.28 380.38 710.168 380.226 710.11 380.05C710.006 379.922 709.934 379.771 709.9 379.61C709.859 379.449 709.859 379.281 709.9 379.12C709.939 379.048 709.983 378.978 710.03 378.91C710.03 376.73 710.03 369.79 710.23 361.7C710.36 349.49 710.56 334.29 710.56 329.34C710.565 329.039 710.687 328.752 710.899 328.54C711.112 328.327 711.399 328.205 711.7 328.2H723.18C727.9 328.2 732.87 328.08 734.79 328.2H735.15L735.65 329.2V329.35C735.42 336.83 735.48 348.26 735.5 358.35C735.5 374.63 735.5 378.93 735.22 380.2V380.45C735.19 380.547 735.138 380.636 735.07 380.71L734.89 380.91L734.56 380.66ZM712.06 378.41C714.24 378.41 718.72 378.58 723.06 378.63C727.4 378.68 731.63 378.76 733.86 378.86C733.86 375.52 733.86 362.64 734.01 346.42C734.01 339.42 734.14 333.2 734.14 330.03C729.75 330.26 717.06 330.46 712.59 330.48C712.59 333.48 712.59 339.2 712.37 345.69C712.11 358.69 711.81 374.58 712.04 378.43L712.06 378.41Z" fill="black"/>
<path d="M828.61 416.67H829.61C829.3 410.11 829.61 354.58 829.3 326.07H828.56C828.31 336 828.99 411.07 828.61 416.67Z" fill="#020202"/>
<path d="M827.93 417.33V416.65C828.13 413.53 827.93 388.49 827.93 366.37C827.93 347.94 827.75 330.53 827.93 326.1V325.52H829.93V326.17C830.08 340.42 830.08 361.3 830.08 379.7C830.08 398.1 830.08 413.48 830.23 416.75V417.41L827.93 417.33Z" fill="black"/>
<path d="M802.33 417.41C802.33 417.41 803.24 333.02 803.55 326.41C805.88 326.41 821.92 326.41 828.55 326.08V325.78C828.55 325.27 818.41 325.53 744.41 325.78C744.41 325.78 743.9 325.78 743.9 326.03C743.9 342.51 744.66 385.08 744.9 389.64C744.9 389.64 744.77 392.94 744.75 397.25C744.99 397.617 745.102 398.053 745.07 398.49C745.07 399.86 744.85 401.23 744.72 402.59C744.72 410.2 744.72 418.1 744.9 418.1H745.15C763.4 418.1 823.46 417.6 828.53 417.1V416.72C822 416.75 805.78 417.41 802.33 417.41ZM770.71 417.89C770.296 417.95 769.875 417.95 769.46 417.89H745.62C745.62 406.21 744.4 333.5 744.4 327.29C753.6 327.14 762.72 327.04 771.82 326.96C771.791 327.068 771.791 327.182 771.82 327.29C772.1 356.54 772.4 417.89 772.4 417.89H771.31C771.113 417.94 770.907 417.94 770.71 417.89V417.89ZM773.24 417.89C773.24 412.06 773.24 334.26 772.63 327.29C772.66 327.172 772.66 327.048 772.63 326.93C782.54 326.93 792.47 326.76 802.46 326.58C801.85 349.95 801.24 410.58 801.24 417.15C801.12 417.41 773.24 417.76 773.24 417.76V417.89Z" fill="#020202"/>
<path d="M745.16 418.67H744.65L744.48 418.5C744.25 418.27 744.07 418.09 744.1 402.5L744.45 398.35C744.458 398.041 744.371 397.737 744.2 397.48V397.15C744.105 394.616 744.155 392.078 744.35 389.55C744.1 384.69 743.35 342.08 743.35 325.94C743.35 325.43 743.83 325.05 744.49 325.05L794.16 324.88C828.47 324.73 828.5 324.73 828.98 325.23L829.18 325.41V326.63H828.56C822.75 326.9 809.98 326.93 804.13 326.96C803.82 336.36 803.04 408.96 802.96 416.64C804.96 416.64 808.96 416.47 813.1 416.34C818.65 416.16 824.93 415.96 828.46 415.91H829.17V416.59C829.17 417.02 829.17 417.38 828.69 417.53L828.3 417.66C821.56 418.19 763.71 418.67 745.16 418.67ZM746.25 417.1H769.46C769.854 417.159 770.255 417.159 770.65 417.1C770.751 417.13 770.859 417.13 770.96 417.1H771.77C771.77 410.52 771.47 354.84 771.19 327.44C762.65 327.44 753.88 327.62 745.19 327.77C745.19 331.57 745.42 345.23 745.65 360.89C745.87 383.73 746.25 409.48 746.28 417.13L746.25 417.1ZM773.25 327.44C773.8 335.35 773.83 401.98 773.83 417.13C783.66 417.13 797.73 416.72 800.46 416.5C800.46 408.16 801.07 350.61 801.68 327.09C792.17 327.27 782.56 327.44 773.27 327.44H773.25ZM802.39 356.56C802.19 371.77 801.98 388.16 801.88 400.17C802.03 387.91 802.18 371.08 802.41 356.56H802.39Z" fill="black"/>
<path d="M833.56 422.25H832.98V420.8H854.141V422.07H844.56L833.56 422.25Z" fill="black"/>
<path d="M690.67 304.05V300.76H682.31C682.31 302.28 682.13 302.07 682.06 300.58H681.45V304.05H690.67Z" fill="#020202"/>
<path d="M680.89 304.79V300H682.74V300.2H691.38V304.79H681.83H680.89ZM682.13 303.39H689.99V301.39H682.89C682.89 302.08 682.64 302.39 682.16 302.39L682.13 303.39Z" fill="black"/>
<path d="M910.65 306.56C906.59 306.05 890.37 302.76 886.57 301.49V304.94C891.13 306.2 907.66 309.25 910.65 310.01C910.67 308.77 910.65 307.62 910.65 306.56Z" fill="#020202"/>
<path d="M911.31 310.77L910.52 310.59C909.38 310.31 906.24 309.68 902.59 308.97C896.66 307.8 889.26 306.43 886.45 305.55H885.99V300.63L886.8 300.88C890.6 302.15 906.8 305.45 910.8 305.95H911.36L911.31 310.77ZM887.23 304.46C890.3 305.24 897.23 306.61 902.84 307.73C905.84 308.31 908.54 308.84 910.04 309.17V307.17C905.55 306.51 891.94 303.77 887.23 302.4V304.46Z" fill="black"/>
<path d="M681.63 309.3V304.05C681.506 304.062 681.39 304.115 681.3 304.2C681.213 304.291 681.157 304.406 681.14 304.53V304.79C681.14 307.32 680.94 305.39 680.84 300.6H679.84C679.84 303.54 679.97 306.6 680.04 309.73C680.536 309.483 681.077 309.336 681.63 309.3V309.3Z" fill="#020202"/>
<path d="M679.35 310.72L679.12 300H681.35V303.44H682.03L682.18 309.98H681.56C681.052 310.008 680.554 310.13 680.09 310.34L679.35 310.72ZM680.51 306.48V308.82H680.94V306.69C680.77 306.58 680.54 306.58 680.54 306.48H680.51Z" fill="black"/>
<path d="M708.23 420.78C708.39 400.86 708.23 331.42 708.23 326.58H736.87C736.87 344.32 737.2 400.51 737.23 420.65H737.71C737.94 420.48 738.16 420.65 738.44 420.65C738.44 408.26 737.89 366.22 737.89 325.65C737.89 324.89 740.67 325.14 708.23 325.14C707.98 325.14 707.47 325.4 707.47 325.65C707.02 343.94 707.2 403.83 707.47 420.86C707.718 420.794 707.974 420.767 708.23 420.78V420.78Z" fill="#020202"/>
<path d="M708.87 421.54H708.13C707.895 421.5 707.655 421.5 707.42 421.54H706.72V420.8C706.49 403.8 706.31 343.64 706.72 325.59C706.72 324.86 707.63 324.45 708.08 324.45H726.66C737.96 324.45 737.94 324.45 738.29 324.91C738.349 325.028 738.38 325.158 738.38 325.29C738.38 325.422 738.349 325.552 738.29 325.67C738.29 355.32 738.54 386.34 738.7 404.89V421.08H738.22C738.037 421.13 737.843 421.13 737.66 421.08H737.23L736.42 421.34V420.48C736.42 411.78 736.42 396.42 736.27 380.33C736.27 359.22 736.09 337.4 736.06 327.11H708.69V335.63C708.69 356.28 708.87 404.63 708.69 420.7L708.87 421.54ZM708.03 326H737.2V325.77H708.03V326Z" fill="black"/>
<path d="M622.25 608.47C612.74 609.1 603.249 609.73 593.789 610.16C565.579 611.94 461.79 614.7 417.02 615.71C416.177 615.77 415.332 615.77 414.49 615.71V615.92C406.89 616.17 268.77 615.92 258.89 615.92C258.69 615.927 258.501 616.01 258.36 616.151C258.219 616.292 258.137 616.481 258.13 616.68C258.1 616.778 258.1 616.882 258.13 616.98C258.161 617.078 258.216 617.168 258.29 617.24C258.359 617.317 258.449 617.373 258.55 617.4C258.651 617.425 258.758 617.425 258.86 617.4C319.68 618.4 368.44 618.4 409.16 617.75C411.491 617.329 413.868 617.211 416.23 617.4C457.54 616.64 490.33 615.4 519.63 614.4C607.09 611.25 608.05 610.59 622.34 609.53C622.4 609.357 622.422 609.173 622.407 608.99C622.391 608.808 622.338 608.631 622.25 608.47V608.47Z" fill="#020202"/>
<path d="M350.27 618.88C322.39 618.88 292.27 618.63 259.04 618.1C258.853 618.114 258.666 618.087 258.49 618.02C258.314 617.956 258.153 617.853 258.02 617.72C257.887 617.587 257.785 617.427 257.72 617.25C257.658 617.074 257.631 616.887 257.64 616.7C257.653 616.324 257.806 615.967 258.07 615.7C258.201 615.567 258.356 615.461 258.528 615.389C258.7 615.317 258.884 615.28 259.07 615.28H276.28C314.67 615.28 402.99 615.46 413.89 615.28L414.65 615.08H417.03C460.57 614.08 565.51 611.27 593.82 609.5C603.37 609.07 613.1 608.44 622.25 607.8H622.79L622.96 608.46L623.19 609.46L623.42 610.23H622.56L617.49 610.63C606.49 611.52 596.03 612.35 519.8 615.09L507.58 615.52C481.58 616.43 452.08 617.52 416.35 618.05C414.012 617.875 411.661 617.99 409.35 618.39C391.02 618.88 371.36 618.88 350.27 618.88ZM259.04 616.58H258.91L259.04 616.7C317.33 617.64 366.57 617.7 409.35 617.06C411.698 616.63 414.092 616.509 416.47 616.7C451.95 616 481.56 615 507.56 614.17L519.8 613.74C586.7 611.33 602.9 610.39 613.31 609.61C606.9 610.01 600.31 610.39 593.85 610.7C565.56 612.47 460.56 615.26 417.02 616.25H415.27L414.64 616.45C408.46 616.65 315.81 616.45 276.2 616.45L259.04 616.58Z" fill="black"/>
<path d="M915.49 563.53C910.9 537.68 891.39 516.65 869.09 502.71C824.48 474.83 760.87 475.34 731.73 466.22C725.256 464.681 719.531 460.91 715.56 455.57C713.705 452.548 712.832 449.027 713.059 445.488C713.287 441.95 714.604 438.57 716.83 435.81C721.228 429.972 726.737 425.061 733.04 421.36V421.21L769.51 421.46C769.937 421.36 770.382 421.36 770.81 421.46V421.21L833.65 421.54C832.65 392.27 833.17 318.32 833.65 310.46C836.7 310.46 871.42 309.96 885.35 309.46C885.35 332.01 885.61 407.03 885.86 421.73C883.86 421.57 868.12 421.73 854.18 421.73C879.18 421.88 889.03 421.93 889.18 421.73C896.54 417.16 904.18 413.11 911.74 409.31L911.23 310.22L910.75 310.07C910.75 338.7 911 402.52 911.23 409.56C903.766 412.867 896.542 416.69 889.61 421C888.83 398.19 887.38 346.72 886.83 318.31V304.86H885.1V308.43C869.1 308.92 800.1 309.2 748.63 309.35C782.63 309.52 820.07 309.7 832.9 309.7C831.63 338.59 832.64 412.85 832.9 420.96C830.16 421.46 802.18 421.21 772.07 420.96H771.67C770.404 420.88 769.135 420.88 767.87 420.96C767.652 420.973 767.436 420.909 767.26 420.78H766.7C766.623 420.79 766.546 420.79 766.47 420.78L692.65 420C692.23 417.174 692.069 414.315 692.17 411.46C692.059 411.285 691.991 411.086 691.97 410.88C691.61 407.88 691.97 404.88 691.61 401.88V401.68C691.23 379.73 690.88 346.91 690.8 325.78H690.27C690.14 347.6 690.27 373.93 691.1 402.44C691.26 404.69 691.23 406.97 691.23 409.25V413.25C691.23 415.48 691.38 417.74 691.38 420.12L684.79 419.87V415.56C684.66 415.242 684.593 414.903 684.59 414.56V410.02C684.613 409.247 684.563 408.474 684.44 407.71V400.34C683.58 377.02 682.74 349.88 682.11 324.87C681.509 324.848 680.92 324.702 680.38 324.44C680.99 350.94 681.73 379.96 682.38 399.32H682.23V399.5C682.34 400.741 682.34 401.989 682.23 403.23C682.23 404.62 682.36 406.01 682.46 407.41H682.84C682.781 411.556 682.948 415.702 683.34 419.83C683.399 420.007 683.498 420.168 683.63 420.3C683.766 420.432 683.93 420.531 684.11 420.59L703.11 420.84C688.177 423.388 673.988 429.192 661.55 437.84C654.636 441.853 648.671 447.31 644.06 453.84C642.214 456.826 641.279 460.286 641.369 463.796C641.46 467.306 642.572 470.713 644.57 473.6C662.82 501.23 736.31 499.71 773.06 539.75C777.37 544.31 781.67 549.38 782.69 555.75C783.188 560.351 782.398 565.001 780.41 569.18C773.31 583.63 756.33 591.49 741.89 596.05C709.95 605.93 675.74 604.92 642.8 606.95L634.38 607.5V608.67C642.16 608.24 653.38 607.67 671.38 606.95C704.07 605.68 752.22 602.89 774.77 578.56C782.89 569.95 786.94 557.56 780.35 547.9C753.74 508.36 695.96 502.79 664.79 487.84C654.4 483.02 639.19 473.9 641.98 460.21C643.75 451.34 652.12 445.01 659.21 440.21C673.914 429.592 691.114 422.958 709.14 420.95H730.93C721.56 427.03 709.39 436.66 711.42 449.33C715.98 476.45 775.79 468.85 835.09 488.62C876.91 502.55 914.16 533.98 915.93 576.05C916.357 582.887 916.273 589.746 915.68 596.57C907.06 677.67 788.68 714.67 708.68 728.57C617.68 744.57 502.39 746.31 410.4 740.73C410.231 740.731 410.069 740.8 409.95 740.92C409.892 740.979 409.846 741.05 409.815 741.127C409.784 741.204 409.769 741.287 409.77 741.37C409.768 741.452 409.782 741.533 409.813 741.609C409.844 741.685 409.891 741.753 409.95 741.81C410.069 741.93 410.231 741.999 410.4 742C531.28 749.1 704.12 746.31 816.13 699.17C831.36 693.01 846.031 685.549 859.98 676.87C883.04 661.67 904.07 640.87 912.98 614.02C917.829 597.631 918.69 580.319 915.49 563.53V563.53ZM888.56 421.61H887.04V367.71C887.64 391.56 888.34 413.61 888.56 421.61Z" fill="#020202"/>
<path d="M510.13 745.8C472.4 745.8 438.08 744.45 410.36 742.8C410.199 742.797 410.039 742.763 409.89 742.7C409.598 742.562 409.372 742.314 409.26 742.01C409.203 741.86 409.179 741.7 409.19 741.54C409.186 741.376 409.213 741.213 409.27 741.06C409.328 740.909 409.413 740.77 409.52 740.65C409.634 740.532 409.77 740.436 409.92 740.37C410.066 740.306 410.222 740.272 410.38 740.27C516.82 746.73 628.38 742.19 708.57 728.13C767.57 717.84 905.76 684.49 915.11 596.65C915.699 589.859 915.782 583.033 915.36 576.23C913.46 531.29 872.56 501.9 834.95 489.35C811.95 481.75 789.1 478.17 769.06 475.08C737 470.17 713.81 466.59 710.95 449.56C708.95 437.22 719.77 427.92 728.95 421.69H709.3C691.408 423.702 674.336 430.291 659.73 440.82C651.87 446.17 644.4 452.22 642.73 460.46C640.68 470.46 648.26 479.54 665.18 487.4C675.655 491.958 686.415 495.833 697.39 499C727.65 508.53 761.96 519.27 781.02 547.65C788.02 557.79 783.22 570.79 775.39 579.11C751.77 604.45 699.59 606.6 671.49 607.69C655.35 608.35 643.26 608.91 634.57 609.41H633.96V608.5C633.94 608.274 633.94 608.046 633.96 607.82V607.21L634.56 607H636.05L643 606.54C650.25 606.11 657.67 605.8 664.87 605.54C690.54 604.54 717.1 603.41 741.94 595.71C761.65 589.5 774.48 580.5 780.08 569.17C782.03 565.107 782.802 560.579 782.31 556.1C781.31 549.89 776.88 544.8 772.83 540.49C753.37 519.27 723.41 509.77 697 501.36C673.36 493.75 652.93 487.36 644.29 474.27C642.237 471.274 641.095 467.749 641.001 464.118C640.907 460.488 641.865 456.908 643.76 453.81C648.428 447.198 654.482 441.683 661.5 437.65C672.345 430.127 684.521 424.735 697.38 421.76L684.38 421.58C684.034 421.521 683.715 421.353 683.47 421.1C683.221 420.851 683.06 420.528 683.01 420.18C682.609 416.243 682.432 412.287 682.48 408.33H682.22L682.1 407.79C682.1 406.4 681.94 404.98 681.87 403.59C681.98 402.366 681.98 401.134 681.87 399.91V398.91H682C681.26 377.85 680.5 347.06 680 324.78V323.78L680.94 324.21C681.387 324.45 681.884 324.58 682.39 324.59H683.02V325.2C683.7 351.81 684.52 378.42 685.35 400.2V414.88C685.348 415.147 685.399 415.413 685.5 415.66V419.59L690.83 419.8C690.83 417.89 690.83 416.04 690.7 414.22V408.47C690.7 406.57 690.7 404.61 690.57 402.71V401.71C689.89 376.85 689.57 351.4 689.76 326.01V325.38H691.56V326C691.56 348.33 692.04 381.76 692.37 402V402.25C692.37 403.52 692.5 404.94 692.52 406.25C692.502 407.859 692.569 409.468 692.72 411.07C692.749 411.192 692.792 411.309 692.85 411.42V411.73C692.782 414.369 692.909 417.01 693.23 419.63L766.52 420.37L766.7 420.88V420.37H767.56C768.506 420.32 769.454 420.32 770.4 420.37H773.72C801.31 420.6 827.47 420.82 832.16 420.37C831.85 409.5 830.94 339.07 832.16 310.31C818.01 310.31 779.16 310.13 748.53 309.95V308.69C791.76 308.69 866.39 308.3 884.36 307.8V304.05H887.36V318.05C887.92 346.3 889.36 396.84 890.12 419.62C896.642 415.621 903.416 412.05 910.4 408.93C910.14 400.05 909.92 338.57 909.92 309.84V309.02L910.68 309.23C911.24 309.23 911.68 309.46 911.68 309.99L912.21 409.48L911.85 409.66H911.7L911.35 409.81C902.65 414.17 895.66 418.05 889.35 421.95H854.03V420.8H885.03C884.77 404.69 884.54 332.28 884.54 309.85C870.99 310.34 839.59 310.79 834.06 310.85C833.58 321.14 833.12 392.85 834.06 421.27V421.93H830.56L771.21 421.62V422H770.45C770.123 421.912 769.778 421.912 769.45 422H769.27L733.41 421.74L733.13 421.92C726.899 425.562 721.459 430.414 717.13 436.19C714.991 438.853 713.723 442.109 713.5 445.518C713.276 448.926 714.107 452.321 715.88 455.24C719.772 460.447 725.373 464.118 731.7 465.61C741.07 468.55 753.85 470.45 768.7 472.68C799.98 477.37 838.9 483.2 869.29 502.18C884.29 511.58 910.42 532.06 915.94 563.43C919.206 580.386 918.338 597.88 913.41 614.43C905.53 638.28 887.61 659.55 860.19 677.64C846.257 686.345 831.595 693.826 816.37 700C728.99 736.72 608.11 745.8 510.13 745.8ZM464.31 743.9C518.09 745.39 583.63 744.68 648.38 737.64C587.216 743.59 525.738 745.681 464.31 743.9V743.9ZM756.31 591.31C751.687 593.477 746.919 595.321 742.04 596.83C717.04 604.44 690.39 605.65 664.64 606.72C657.44 607.02 650.02 607.33 642.8 607.72H642.29C649.89 607.34 659.6 606.91 671.36 606.42C693.39 605.65 730.31 604.21 756.34 591.31H756.31ZM801.56 479.5C813.003 481.723 824.295 484.659 835.37 488.29C867.99 499.16 903.01 522.6 913.55 557.76C906.07 530.23 882.68 512.14 868.8 503.37C848.56 490.65 824.56 483.86 801.56 479.5ZM732.17 421.21L731.36 421.74C722.16 427.74 710.15 437.1 712.13 449.62C712.549 451.989 713.454 454.245 714.788 456.246C716.122 458.248 717.856 459.952 719.88 461.25C718.092 459.745 716.479 458.045 715.07 456.18C713.147 453.043 712.236 449.389 712.462 445.716C712.687 442.043 714.038 438.529 716.33 435.65C720.638 429.845 726.039 424.94 732.23 421.21H732.17ZM703.17 420.93V421.44L706.17 420.96L703.17 420.93ZM885.96 308.69V309.35C885.96 331.04 886.19 405.04 886.45 421.06V367.84H887.45C886.97 349.84 886.52 331.62 886.26 318.32V305.65H885.78V309L885.96 308.69ZM887.71 421H887.97L887.81 416.29V413.4L887.71 421ZM683.07 407.07H683.48V407.6C683.432 411.719 683.599 415.838 683.98 419.94C684.055 420.03 684.142 420.107 684.24 420.17V415.91C684.101 415.546 684.03 415.16 684.03 414.77V410.26L683.86 407.14V400.58C683.04 378.86 682.23 352.28 681.55 325.67H681.09C681.6 348.12 682.36 378.89 683.09 399.62V400.4H682.96C683.02 401.449 683.02 402.501 682.96 403.55C682.89 404.64 683.07 405.85 683.07 407.07ZM833.48 309.7H833.61C835.4 309.7 846.99 309.55 859.25 309.32L833.5 309.5V309.7H833.48Z" fill="black"/>
<path d="M885.05 304.76V301.47C850.26 301.47 730.05 300.83 690.9 300.76V304.05L885.05 304.76Z" fill="#020202"/>
<path d="M885.81 305.39L690.14 304.63L690.27 300.07H690.88C714.37 300.07 766.78 300.33 813.03 300.5C843.59 300.5 871.11 300.76 885.03 300.78H885.66L885.81 305.39ZM691.56 303.44L884.56 304.13V302.13C870.47 302.13 843.28 301.98 813.2 301.85C767.36 301.67 715.43 301.47 691.68 301.42L691.56 303.44Z" fill="black"/>
<path d="M691.21 309.35H748.56C724.11 309.2 701.42 309.04 690.91 308.94V309.37L691.21 309.35Z" fill="#020202"/>
<path d="M691.13 310L690.29 309.8V308.23H690.93C700.63 308.23 722.17 308.48 748.58 308.63V309.9H691.18L691.13 310Z" fill="black"/>
<path d="M621.56 372.63C624.78 372.63 627.65 372.78 630.56 372.93C632.482 372.831 634.392 373.281 636.068 374.229C637.743 375.176 639.114 376.582 640.02 378.28C641.19 380.814 641.51 383.659 640.93 386.39C640.509 387.906 640.544 389.512 641.032 391.008C641.519 392.504 642.437 393.823 643.67 394.8C642.795 394.657 641.998 394.211 641.418 393.54C640.839 392.869 640.514 392.016 640.5 391.13C640.37 389.28 640.5 387.4 640.5 385.55C640.539 384.146 640.462 382.741 640.27 381.35C639.967 379.113 638.834 377.072 637.097 375.631C635.359 374.19 633.144 373.454 630.89 373.57C628.36 373.57 625.83 373.36 623.44 373.21C622.794 373.083 622.164 372.888 621.56 372.63V372.63Z" fill="black"/>
<path d="M657.73 372.4C658.583 372.077 659.392 371.651 660.14 371.13C665.38 366.7 665.74 363.3 661.73 357.57C660.16 355.34 658.64 353.09 657.22 350.78C655.688 348.727 654.924 346.201 655.063 343.642C655.202 341.084 656.234 338.655 657.98 336.78C660.473 334.069 663.145 331.53 665.98 329.18L666.92 330.18C665.75 331.25 664.69 332.44 663.44 333.4C656.25 339.05 655.51 345.67 660.91 353.07C663.173 355.977 665.008 359.193 666.36 362.62C667.65 366.2 663.82 372.33 660 373.62C659.57 373.77 659 373.46 658.45 373.36L657.73 372.4Z" fill="black"/>
<path d="M645.06 315.48C644.659 311.323 643.553 307.265 641.79 303.48C640.513 299.97 638.548 296.751 636.01 294.01C634.43 292.203 632.28 290.99 629.916 290.57C627.553 290.15 625.117 290.549 623.01 291.7C621.325 292.392 619.89 293.578 618.893 295.103C617.897 296.628 617.387 298.419 617.43 300.24C617.47 301.734 617.702 303.216 618.12 304.65C619.315 309.466 621.442 314.001 624.38 318C626.96 321.583 630.618 324.246 634.82 325.6C635.911 326.05 637.094 326.231 638.27 326.13C639.442 326.024 640.571 325.636 641.56 325C642.561 324.373 643.389 323.507 643.97 322.48C644.57 321.465 644.914 320.318 644.97 319.14C645.118 317.926 645.148 316.7 645.06 315.48V315.48ZM635.93 304.33C635.12 303.42 634.29 302.51 633.4 301.57C631.98 299.95 630.56 298.3 629.17 296.65C629.02 296.47 628.79 296.32 628.71 296.09C628.617 295.845 628.617 295.575 628.71 295.33C628.821 295.27 628.945 295.239 629.07 295.24C629.193 295.24 629.313 295.271 629.42 295.33C631.015 295.891 632.456 296.816 633.631 298.031C634.806 299.246 635.682 300.718 636.19 302.33C636.295 302.947 636.335 303.574 636.31 304.2L635.93 304.33ZM639.46 309.93C639.266 309.924 639.077 309.869 638.91 309.77C638.746 309.666 638.612 309.521 638.52 309.35C638.52 309.04 638.52 308.35 638.82 308.21C638.95 308.14 639.093 308.099 639.24 308.09C639.386 308.077 639.532 308.094 639.67 308.14C639.806 308.19 639.932 308.264 640.04 308.36C640.146 308.459 640.231 308.578 640.29 308.71C640.325 308.851 640.325 308.999 640.29 309.14C640.268 309.287 640.213 309.427 640.13 309.55C640.04 309.664 639.927 309.759 639.8 309.83C639.671 309.898 639.526 309.932 639.38 309.93H639.46Z" fill="black"/>
<path d="M646.78 343V342.64C646.077 341.321 645.501 339.938 645.06 338.51C644.35 335.37 644.42 332.05 642.65 329.11L644.75 327.92C644.005 327.109 643.154 326.402 642.22 325.82C641.74 325.59 640.9 326.2 640.14 326.45L640.77 329.97L642.37 329.44C643.525 332.079 644.203 334.903 644.37 337.78C644.478 339.764 645.34 341.631 646.78 343V343Z" fill="black"/>
<path d="M673.11 283.7C675.447 280.24 677.163 276.399 678.18 272.35C679.412 268.821 679.928 265.081 679.7 261.35C679.656 258.924 678.773 256.588 677.202 254.74C675.63 252.891 673.467 251.644 671.08 251.21C669.345 250.665 667.485 250.665 665.75 251.21C664.019 251.762 662.495 252.825 661.38 254.26C660.462 255.439 659.702 256.734 659.12 258.11C656.99 262.601 655.761 267.466 655.5 272.43C655.18 276.893 656.317 281.339 658.74 285.1C659.297 286.146 660.096 287.045 661.07 287.72C662.544 288.733 664.338 289.17 666.113 288.949C667.888 288.727 669.52 287.863 670.7 286.52C671.594 285.646 672.401 284.689 673.11 283.66V283.7Z" stroke="black" stroke-width="0.5" stroke-miterlimit="10"/>
<path d="M656.84 306.66V306.18C656.616 304.234 657.122 302.274 658.26 300.68L658.39 300.45C658.74 299.82 659.12 299.16 659.5 298.55C660.688 296.905 661.55 295.049 662.04 293.08L660.36 292.44L662.42 288.74H662.67L663.4 288.95C664.04 289.12 664.65 289.28 664.88 289.71C665.171 290.463 665.349 291.255 665.41 292.06L665.56 293.06V293.51L663.03 293.08C662.559 295.219 661.698 297.253 660.49 299.08C660.01 299.9 659.49 300.76 659.07 301.62C658.677 302.553 658.372 303.52 658.16 304.51C658.095 304.979 657.974 305.439 657.8 305.88H657.42L656.84 306.66ZM658.01 302.35C657.591 303.137 657.339 304.001 657.27 304.89C657.297 304.726 657.34 304.565 657.4 304.41C657.558 303.711 657.761 303.022 658.01 302.35V302.35ZM662.44 292.47L664.72 292.85V292.24C664.67 291.501 664.501 290.775 664.22 290.09C664.22 289.91 663.61 289.78 663.22 289.68L662.69 289.53L661.24 292.06L662.53 292.55L662.44 292.47Z" fill="black"/>
<path d="M913 235.81L915.11 235.31C917.037 234.772 919.081 234.825 920.978 235.462C922.875 236.098 924.537 237.289 925.75 238.88C926.383 239.66 926.926 240.509 927.37 241.41C927.513 241.747 927.762 242.028 928.08 242.21C928.386 242.373 928.735 242.44 929.08 242.4C933.42 242.07 937.77 241.67 942.08 241.64C946.39 241.61 951.25 241.9 955.84 242.15C959.26 242.35 962.66 242.71 965.98 243.04C967.772 243.22 969.555 243.491 971.32 243.85C975.07 244.63 978.8 245.47 982.55 246.38C984.83 246.94 987.09 247.62 989.37 248.15C989.916 248.27 990.407 248.566 990.769 248.992C991.13 249.418 991.341 249.952 991.37 250.51C991.427 251.013 991.322 251.521 991.07 251.96C990.817 252.408 990.423 252.759 989.95 252.96C987.325 254.482 984.546 255.722 981.66 256.66C975.961 258.69 970.148 260.383 964.25 261.73C962.672 262.101 961.072 262.372 959.46 262.54C955.28 262.99 951.08 263.33 946.79 263.81C941.835 264.12 936.864 264.05 931.92 263.6C927.23 263.4 922.69 262.36 918.08 261.75C917.591 261.675 917.09 261.744 916.64 261.95C916.191 262.152 915.809 262.478 915.54 262.89C914.041 265.095 911.923 266.806 909.453 267.808C906.983 268.81 904.271 269.058 901.66 268.52C899.988 268.283 898.382 267.708 896.94 266.83C895.494 265.96 894.237 264.811 893.24 263.45C892.892 262.945 892.42 262.539 891.87 262.27C891.318 262.008 890.709 261.891 890.1 261.93C881.03 262.11 871.96 262.29 862.88 262.36H839.69C838.815 262.462 837.928 262.331 837.12 261.98C836.327 261.632 835.638 261.084 835.12 260.39C834.404 259.329 834.062 258.06 834.149 256.783C834.236 255.506 834.747 254.294 835.6 253.34C837.481 251.28 839.909 249.796 842.6 249.06C846.651 247.814 850.935 247.516 855.12 248.19C857.5 248.6 859.86 249.06 862.24 249.51L863.15 249.72C866.45 250.17 867.61 249.18 867.69 245.84C867.599 244.369 867.958 242.904 868.719 241.642C869.48 240.379 870.607 239.378 871.95 238.77C873.415 238.282 874.926 237.947 876.46 237.77C877.256 237.686 878.045 237.542 878.82 237.34C879.432 237.19 879.966 236.816 880.318 236.293C880.669 235.77 880.813 235.134 880.72 234.51C880.74 233.764 880.697 233.018 880.59 232.28C880.556 229.539 881.412 226.86 883.03 224.646C884.647 222.432 886.938 220.802 889.56 220C892.088 219.073 894.817 218.828 897.47 219.29C901.033 219.97 904.319 221.681 906.92 224.21C909.577 226.882 911.475 230.212 912.42 233.86C912.56 234.39 912.78 235 913 235.81ZM939.34 262.47L944.1 262.2C946.33 262.02 948.56 261.69 950.79 261.69C955.307 261.51 959.8 260.941 964.22 259.99C967.458 259.399 970.645 258.553 973.75 257.46C978.36 255.96 982.9 254.26 987.44 252.62C988.44 252.26 989.72 251.85 989.56 250.62C989.4 249.39 988.12 249.41 987.18 249.2C983.25 248.27 979.33 247.3 975.37 246.49C971.85 245.78 968.3 245.15 964.73 244.69C961.16 244.23 957.33 243.96 953.6 243.76C949.87 243.56 946.38 243.35 942.81 243.45C937.89 243.58 933 243.98 928.11 244.31C927.74 244.376 927.358 244.313 927.03 244.13C926.707 243.951 926.454 243.67 926.31 243.33C926.156 243.004 926.019 242.67 925.9 242.33C925.026 240.268 923.414 238.605 921.38 237.668C919.346 236.73 917.035 236.585 914.9 237.26C914.494 237.403 914.096 237.57 913.71 237.76C912.34 238.3 911.97 238.09 911.59 236.68C911.21 235.27 910.93 233.89 910.47 232.54C907.78 224.54 898.89 218.48 890.04 221.7C887.919 222.259 886.018 223.45 884.589 225.115C883.16 226.779 882.271 228.839 882.04 231.02C881.998 232.325 882.042 233.631 882.17 234.93C882.28 235.838 882.027 236.753 881.464 237.474C880.902 238.196 880.077 238.665 879.17 238.78C877.78 239.08 876.36 239.34 874.97 239.51C873.367 239.59 871.858 240.292 870.764 241.466C869.67 242.641 869.077 244.195 869.11 245.8V247.29C869.128 247.92 869.002 248.546 868.74 249.12C868.478 249.694 868.084 250.198 867.59 250.59C867.1 250.988 866.523 251.264 865.906 251.396C865.289 251.528 864.65 251.512 864.04 251.35C862.62 251.17 861.23 250.82 859.81 250.56C857.301 250.008 854.764 249.594 852.21 249.32C847.452 249.062 842.721 250.198 838.6 252.59C837.342 253.291 836.358 254.398 835.81 255.73C835.579 256.252 835.47 256.82 835.49 257.39C835.517 257.961 835.682 258.517 835.97 259.01C836.25 259.508 836.649 259.931 837.13 260.24C837.612 260.55 838.16 260.741 838.73 260.8C840.208 260.999 841.698 261.092 843.19 261.08C847.6 261.08 852 260.93 856.41 260.88C867.79 260.7 879.22 260.57 890.53 260.35C891.294 260.278 892.064 260.417 892.755 260.752C893.446 261.087 894.033 261.605 894.45 262.25C895.835 264.223 897.795 265.721 900.062 266.54C902.329 267.36 904.793 267.461 907.12 266.83C909.098 266.497 910.924 265.561 912.35 264.15C913.158 263.292 913.903 262.376 914.58 261.41C915.82 259.66 916.07 259.53 918.1 260.07C918.455 260.184 918.82 260.268 919.19 260.32C923.32 260.78 927.35 261.81 931.53 261.97C934.141 261.974 936.749 262.141 939.34 262.47Z" fill="white"/>
<path d="M534.82 208.69C533.22 206.917 532.176 204.712 531.82 202.35C531.653 201.619 531.653 200.861 531.82 200.13C532.057 199.021 532.66 198.023 533.532 197.298C534.405 196.572 535.495 196.161 536.63 196.13C539.031 195.981 541.439 196.249 543.75 196.92L546.66 197.75C546.784 197.363 546.868 196.964 546.91 196.56C547.089 193.86 548.046 191.27 549.667 189.103C551.287 186.936 553.501 185.285 556.04 184.35C558.58 183.242 561.36 182.798 564.12 183.06C566.882 183.326 569.533 184.282 571.83 185.84C574.542 187.464 576.858 189.671 578.61 192.302C580.363 194.933 581.507 197.922 581.96 201.05C581.932 201.364 581.994 201.68 582.14 201.96C582.258 202.12 582.385 202.274 582.52 202.42L583.91 201.89C585.91 201.12 587.79 200.16 589.79 199.58C591.929 198.87 594.24 198.87 596.38 199.58C597.823 200.011 599.093 200.888 600.009 202.084C600.925 203.279 601.439 204.734 601.48 206.24C601.51 207.241 601.326 208.236 600.94 209.16C600.94 209.4 600.94 209.65 600.94 209.89C601.422 209.92 601.907 209.92 602.39 209.89C608.135 209.29 613.932 209.401 619.65 210.22C622.414 210.601 625.108 211.379 627.65 212.53C628.53 212.959 629.379 213.45 630.19 214C631.039 214.561 631.718 215.344 632.151 216.265C632.585 217.186 632.758 218.208 632.65 219.22C632.541 220.231 632.154 221.192 631.533 221.997C630.912 222.801 630.08 223.419 629.13 223.78C627.09 224.529 624.974 225.049 622.82 225.33C618.699 225.9 614.52 225.9 610.4 225.33C606.75 225 603.07 224.84 599.4 224.49C596.51 224.21 593.63 223.75 590.74 223.37C590.065 223.334 589.395 223.234 588.74 223.07C587.963 222.91 587.158 222.963 586.408 223.221C585.659 223.48 584.993 223.935 584.48 224.54C583.127 225.931 581.441 226.954 579.583 227.512C577.725 228.07 575.755 228.145 573.86 227.73C572.836 227.578 571.864 227.188 571.02 226.59C570.184 225.988 569.5 225.201 569.02 224.29C568.814 223.83 568.463 223.45 568.02 223.21C567.558 222.983 567.034 222.916 566.53 223.02C564 223.02 561.47 223.27 558.93 223.27H535.3C530.03 223.27 524.73 223.27 519.46 223.02L504.56 222.35H500.63C499.775 222.298 498.927 222.161 498.1 221.94C497.621 221.792 497.197 221.507 496.88 221.12C496.565 220.731 496.374 220.258 496.33 219.76C496.247 219.293 496.321 218.811 496.54 218.39C496.759 217.969 497.11 217.632 497.54 217.43C498.843 216.701 500.208 216.088 501.62 215.6C504.885 214.628 508.232 213.959 511.62 213.6C515.766 213.242 519.931 213.148 524.09 213.32C525.516 213.378 526.937 213.542 528.34 213.81C529 213.81 529.59 213.81 529.84 213.1C530.241 212.007 530.908 211.032 531.781 210.262C532.654 209.491 533.705 208.951 534.84 208.69H534.82ZM538.44 210.31C538.141 210.39 537.837 210.45 537.53 210.49C533.75 210.49 532.46 211.25 531.27 214.69C531.182 215.056 530.961 215.377 530.65 215.59C530.343 215.802 529.967 215.888 529.6 215.83L527.36 215.6C525.14 215.43 522.93 215.2 520.67 215.1C516.827 215.006 512.985 215.294 509.2 215.96C506.743 216.324 504.306 216.814 501.9 217.43C500.638 217.763 499.444 218.311 498.37 219.05C497.51 219.61 497.69 220.5 498.68 220.88C499.318 221.128 499.995 221.263 500.68 221.28C503.85 221.43 507.01 221.56 510.18 221.64C516.18 221.79 522.09 221.94 528.05 222.02C541.18 222.19 554.28 222.55 567.38 221.51C567.749 221.451 568.127 221.499 568.47 221.65C568.812 221.796 569.104 222.039 569.31 222.35L570.07 223.35C570.605 224.119 571.289 224.775 572.08 225.277C572.871 225.78 573.755 226.121 574.679 226.279C575.603 226.437 576.549 226.41 577.463 226.199C578.376 225.988 579.238 225.597 580 225.05C581.316 224.122 582.562 223.099 583.73 221.99C584.041 221.641 584.437 221.38 584.88 221.23C585.323 221.079 585.798 221.041 586.26 221.12C589 221.63 591.76 222.01 594.52 222.37C597.28 222.73 599.82 222.98 602.52 223.23C606.09 223.58 609.67 224.07 613.24 224.17C616.624 224.23 620.008 224.11 623.38 223.81C625.253 223.751 627.077 223.199 628.67 222.21C629.241 221.912 629.729 221.476 630.089 220.942C630.449 220.408 630.669 219.791 630.73 219.15C630.785 218.508 630.682 217.862 630.429 217.269C630.176 216.676 629.782 216.154 629.28 215.75C628.079 214.669 626.651 213.872 625.1 213.42C620.505 212.053 615.733 211.379 610.94 211.42C607.36 211.42 603.76 211.82 600.16 212.03H597.56L597.33 211.6C597.617 211.111 597.952 210.652 598.33 210.23C599.207 209.428 599.75 208.325 599.85 207.14C600.1 203.76 598.3 201.53 594.09 200.95C591.732 200.59 589.321 200.982 587.2 202.07C585.81 202.78 584.44 203.49 583.09 204.25C581.29 205.25 580.86 205.08 580.56 203.11C580.39 201.756 580.109 200.418 579.72 199.11C577.19 191.86 572.8 186.62 565 185.02C563.02 184.592 560.969 184.616 559 185.09C557.04 185.55 555.211 186.449 553.65 187.72C552.088 188.991 550.828 190.593 549.96 192.41C549.098 194.229 548.657 196.218 548.67 198.23C548.618 198.902 548.524 199.57 548.39 200.23C547.5 199.85 546.89 199.59 546.28 199.29C543.58 197.99 540.55 197.54 537.59 198C536.367 198.271 535.301 199.013 534.624 200.065C533.946 201.118 533.711 202.395 533.97 203.62C534.354 205.585 535.501 207.319 537.16 208.44C537.83 208.79 538.62 209.19 538.44 210.31Z" fill="white"/>
</g>
<defs>
<clipPath id="clip0">
<rect width="802.51" height="571.92" fill="white" transform="translate(189 183)"/>
</clipPath>
</defs>
</svg>
