<svg width="220" height="220" viewBox="0 0 220 220" fill="none" xmlns="http://www.w3.org/2000/svg">
<circle cx="110" cy="110" r="105.5" fill="white" stroke="#096D47" stroke-width="9"/>
<path d="M74.8413 77.745L54.6016 87.6016C55.6616 88.2893 56.5158 89.2512 57.0735 90.385L72.7688 122.614L95.329 111.627L79.6337 79.3983C79.2153 78.5456 78.4764 77.8931 77.5785 77.5833C76.6806 77.2735 75.6965 77.3316 74.8413 77.745ZM67.4431 95.3032C67.7618 95.148 68.1194 95.0908 68.4706 95.1388C68.8219 95.1868 69.151 95.3379 69.4163 95.573C69.6817 95.808 69.8714 96.1165 69.9615 96.4594C70.0515 96.8022 70.0379 97.1641 69.9223 97.4992C69.8066 97.8343 69.5942 98.1276 69.3119 98.342C69.0296 98.5564 68.6901 98.6823 68.3362 98.7038C67.9824 98.7252 67.6301 98.6412 67.324 98.4624C67.0179 98.2837 66.7716 98.0181 66.6164 97.6994C66.4083 97.272 66.3785 96.7795 66.5335 96.3301C66.6885 95.8807 67.0157 95.5113 67.4431 95.3032ZM83.3899 103.486C83.0712 103.641 82.7136 103.699 82.3624 103.651C82.0111 103.603 81.682 103.451 81.4167 103.216C81.1513 102.981 80.9616 102.673 80.8716 102.33C80.7815 101.987 80.7951 101.625 80.9108 101.29C81.0264 100.955 81.2388 100.662 81.5211 100.447C81.8034 100.233 82.1429 100.107 82.4968 100.086C82.8506 100.064 83.2029 100.148 83.509 100.327C83.8151 100.506 84.0614 100.771 84.2166 101.09C84.4247 101.517 84.4545 102.01 84.2995 102.459C84.1445 102.909 83.8173 103.278 83.3899 103.486ZM79.5979 92.793L74.6378 107.17C74.4718 107.614 74.1419 107.977 73.7161 108.184C73.2903 108.392 72.8011 108.428 72.3495 108.285C71.8994 108.127 71.5298 107.799 71.321 107.37C71.1123 106.941 71.0814 106.448 71.2352 105.996L76.1952 91.6191C76.2723 91.3957 76.3926 91.1897 76.5494 91.0127C76.7061 90.8358 76.8961 90.6915 77.1086 90.588C77.3211 90.4846 77.5518 90.4239 77.7877 90.4097C78.0237 90.3954 78.2601 90.4277 78.4835 90.5048C78.7069 90.5818 78.913 90.7022 79.0899 90.8589C79.2668 91.0156 79.4111 91.2056 79.5146 91.4181C79.6181 91.6306 79.6787 91.8614 79.693 92.0973C79.7073 92.3332 79.6749 92.5696 79.5979 92.793Z" fill="#096D47"/>
<path d="M134.62 110.435L131.397 112.004L132.967 115.227L136.19 113.658L134.62 110.435Z" fill="#096D47"/>
<path d="M128.343 97.5434L125.12 99.1129L126.69 102.336L129.913 100.766L128.343 97.5434Z" fill="#096D47"/>
<path d="M115.295 42.0951L89.5121 54.6514C86.8421 55.9516 85.7318 59.1701 87.032 61.84L93.3101 74.7316C94.6104 77.4015 97.8288 78.5119 100.499 77.2116L126.282 64.6554C128.952 63.3551 130.062 60.1367 128.762 57.4667L122.484 44.5752C121.184 41.9053 117.965 40.7949 115.295 42.0951Z" fill="#096D47"/>
<path d="M66.3644 121.745C65.937 121.954 65.6098 122.323 65.4548 122.772C65.2997 123.222 65.3296 123.714 65.5377 124.142L68.6768 130.587C68.8849 131.015 69.2543 131.342 69.7037 131.497C70.153 131.652 70.6456 131.622 71.073 131.414L103.302 115.719C103.729 115.511 104.056 115.141 104.211 114.692C104.367 114.242 104.337 113.75 104.129 113.323L100.989 106.877C100.781 106.449 100.412 106.122 99.9626 105.967C99.5132 105.812 99.0207 105.842 98.5933 106.05L96.9818 106.835L99.3361 111.669C99.5443 112.097 99.5741 112.589 99.4191 113.039C99.264 113.488 98.9368 113.857 98.5095 114.065L72.7263 126.622C72.2989 126.83 71.8064 126.86 71.357 126.705C70.9076 126.55 70.5382 126.222 70.3301 125.795L67.9758 120.961L66.3644 121.745Z" fill="#096D47"/>
<path d="M49.0579 90.3012C48.2031 90.7175 47.5487 91.4562 47.2386 92.355C46.9286 93.2537 46.9882 94.2389 47.4045 95.0936L50.5436 101.539L56.9893 98.4003L53.8503 91.9546C53.434 91.0998 52.6952 90.4454 51.7965 90.1353C50.8977 89.8253 49.9126 89.8849 49.0579 90.3012Z" fill="#096D47"/>
<path d="M115.451 103.821L112.229 105.391L113.798 108.614L117.021 107.044L115.451 103.821Z" fill="#096D47"/>
<path d="M121.729 116.713L118.506 118.282L120.075 121.505L123.298 119.936L121.729 116.713Z" fill="#096D47"/>
<path d="M141.986 77.5814C140.783 75.7823 138.968 74.4796 136.879 73.914C134.79 73.3485 132.566 73.5582 130.619 74.5046L129.379 75.1089L130.163 76.7203C130.783 78.0031 130.87 79.4792 130.406 80.8261C129.941 82.173 128.962 83.2813 127.683 83.9089L114.792 90.1871C113.509 90.8071 112.033 90.8942 110.686 90.4296C109.339 89.9649 108.231 88.9861 107.603 87.707L106.818 86.0956L90.7038 93.9432L95.4124 103.612L97.0239 102.827C98.3067 102.207 99.7828 102.12 101.13 102.585C102.477 103.049 103.585 104.028 104.212 105.307L107.352 111.753C107.972 113.036 108.059 114.512 107.594 115.859C107.129 117.206 106.151 118.314 104.872 118.942L72.6426 134.637C71.3598 135.257 69.8837 135.344 68.5368 134.879C67.1899 134.415 66.0816 133.436 65.454 132.157L62.3149 125.711C61.6949 124.428 61.6077 122.952 62.0724 121.605C62.5371 120.258 63.5159 119.15 64.795 118.522L66.4064 117.738L61.6978 108.069L60.457 108.673C58.5137 109.621 56.9784 111.239 56.1341 113.229C55.2898 115.219 55.1934 117.447 55.8627 119.503L68.6252 158.523L164.828 111.673L141.986 77.5814ZM127.306 119.978C127.514 120.405 127.544 120.898 127.389 121.347C127.234 121.797 126.907 122.166 126.479 122.374L120.034 125.513C119.606 125.721 119.114 125.751 118.664 125.596C118.215 125.441 117.845 125.114 117.637 124.686L114.498 118.241C114.29 117.813 114.26 117.321 114.415 116.871C114.57 116.422 114.898 116.053 115.325 115.844L121.771 112.705C122.198 112.497 122.691 112.467 123.14 112.622C123.589 112.777 123.959 113.105 124.167 113.532L127.306 119.978ZM121.028 107.086C121.236 107.514 121.266 108.006 121.111 108.456C120.956 108.905 120.629 109.274 120.201 109.482L113.755 112.622C113.328 112.83 112.835 112.86 112.386 112.704C111.937 112.549 111.567 112.222 111.359 111.795L108.22 105.349C108.012 104.922 107.982 104.429 108.137 103.98C108.292 103.53 108.619 103.161 109.047 102.953L115.493 99.8138C115.92 99.6057 116.413 99.5758 116.862 99.7309C117.311 99.8859 117.681 100.213 117.889 100.64L121.028 107.086ZM140.198 113.7C140.406 114.127 140.436 114.62 140.28 115.069C140.125 115.518 139.798 115.888 139.371 116.096L132.925 119.235C132.498 119.443 132.005 119.473 131.556 119.318C131.106 119.163 130.737 118.836 130.529 118.408L127.39 111.963C127.182 111.535 127.152 111.043 127.307 110.593C127.462 110.144 127.789 109.774 128.217 109.566L134.662 106.427C135.09 106.219 135.582 106.189 136.032 106.344C136.481 106.499 136.85 106.827 137.059 107.254L140.198 113.7ZM133.919 100.808C134.128 101.236 134.157 101.728 134.002 102.177C133.847 102.627 133.52 102.996 133.093 103.204L126.647 106.343C126.22 106.552 125.727 106.581 125.278 106.426C124.828 106.271 124.459 105.944 124.251 105.517L121.112 99.071C120.904 98.6436 120.874 98.151 121.029 97.7016C121.184 97.2523 121.511 96.8829 121.938 96.6748L128.384 93.5357C128.812 93.3276 129.304 93.2977 129.753 93.4528C130.203 93.6078 130.572 93.935 130.78 94.3624L133.919 100.808ZM153.089 107.422C153.297 107.849 153.327 108.342 153.172 108.791C153.017 109.24 152.69 109.61 152.262 109.818L145.817 112.957C145.389 113.165 144.897 113.195 144.447 113.04C143.998 112.885 143.629 112.558 143.42 112.13L140.281 105.684C140.073 105.257 140.043 104.764 140.198 104.315C140.353 103.866 140.681 103.496 141.108 103.288L147.554 100.149C147.981 99.941 148.474 99.9112 148.923 100.066C149.373 100.221 149.742 100.548 149.95 100.976L153.089 107.422ZM146.811 94.53C147.019 94.9574 147.049 95.45 146.894 95.8994C146.739 96.3487 146.412 96.7181 145.984 96.9262L139.539 100.065C139.111 100.273 138.619 100.303 138.169 100.148C137.72 99.9932 137.35 99.666 137.142 99.2386L134.003 92.7928C133.795 92.3655 133.765 91.8729 133.92 91.4235C134.075 90.9742 134.403 90.6048 134.83 90.3966L141.276 87.2576C141.703 87.0494 142.196 87.0196 142.645 87.1746C143.094 87.3297 143.464 87.6569 143.672 88.0843L146.811 94.53Z" fill="#096D47"/>
<path d="M109.286 156.664L138.292 142.538C138.72 142.33 139.047 141.961 139.202 141.511C139.357 141.062 139.327 140.569 139.119 140.142C138.911 139.714 138.542 139.387 138.092 139.232C137.643 139.077 137.15 139.107 136.723 139.315L107.717 153.441C107.29 153.649 106.962 154.018 106.807 154.468C106.652 154.917 106.682 155.41 106.89 155.837C107.098 156.265 107.468 156.592 107.917 156.747C108.367 156.902 108.859 156.872 109.286 156.664Z" fill="#096D47"/>
<path d="M110.826 86.1376C111.034 86.5649 111.404 86.8921 111.853 87.0472C112.302 87.2022 112.795 87.1724 113.222 86.9642L126.114 80.6861C126.541 80.478 126.869 80.1086 127.024 79.6592C127.179 79.2098 127.149 78.7173 126.941 78.2899L123.017 70.2327L106.902 78.0803L110.826 86.1376Z" fill="#096D47"/>
<path d="M147.512 104.157L144.289 105.726L145.859 108.949L149.081 107.38L147.512 104.157Z" fill="#096D47"/>
<path d="M69.9531 161.864L74.6617 171.532C75.7024 173.669 77.5493 175.305 79.7962 176.081C82.0431 176.856 84.5059 176.707 86.6428 175.666L167.215 136.428C169.352 135.387 170.988 133.54 171.763 131.293C172.538 129.046 172.389 126.583 171.348 124.447L166.64 114.778L69.9531 161.864ZM139.862 145.761L110.856 159.887C109.574 160.511 108.097 160.601 106.748 160.136C105.4 159.67 104.292 158.689 103.668 157.407C103.043 156.125 102.954 154.647 103.419 153.299C103.884 151.951 104.866 150.842 106.148 150.218L135.154 136.092C136.436 135.468 137.914 135.378 139.262 135.843C140.61 136.309 141.718 137.29 142.342 138.572C142.967 139.854 143.056 141.332 142.591 142.68C142.126 144.028 141.145 145.137 139.862 145.761Z" fill="#096D47"/>
<path d="M141.234 91.2652L138.011 92.8347L139.58 96.0576L142.803 94.4881L141.234 91.2652Z" fill="#096D47"/>
</svg>
