<svg width="144" height="44" viewBox="0 0 144 44" fill="none" xmlns="http://www.w3.org/2000/svg">
<path d="M4 0H140C142.209 0 144 1.791 144 4V40C144 42.209 142.209 44 140 44H4C1.791 44 0 42.209 0 40V4C0 1.791 1.791 0 4 0Z" fill="black"/>
<path d="M30.168 11.178C31.034 10.079 31.665 8.56699 31.502 7.04199C30.208 7.08999 28.667 7.90999 27.749 9.01599C26.922 9.96899 26.204 11.541 26.41 13.019C27.817 13.114 29.263 12.285 30.168 11.178ZM33.914 23.194L33.893 23.153C33.49 22.328 33.306 21.038 33.461 19.993V19.954H33.462C33.624 18.586 34.49 17.185 35.183 16.677C35.191 16.671 35.201 16.664 35.21 16.656V16.653H35.212C35.366 16.481 35.804 16.123 36.1 15.906C35.007 14.272 33.218 13.39 31.396 13.362C29.559 13.205 27.652 14.544 26.623 14.514C25.628 14.545 24.125 13.336 22.54 13.412L22.524 13.41C22.488 13.41 22.203 13.426 22.203 13.426C20.101 13.479 18.238 14.738 17.18 16.647V16.653H17.174V16.647C16.755 17.335 16.253 18.939 16.178 19.954V20.008C16.077 20.652 16.175 22.368 16.288 23.194C16.293 23.209 16.294 23.223 16.295 23.235L16.297 23.233C16.386 24.056 16.797 25.646 17.105 26.423V26.43H17.103C17.399 27.289 18.225 28.9 18.759 29.724V29.73H18.765C19.842 31.303 21.111 33.07 22.783 32.994C24.398 32.932 24.993 31.903 26.939 31.919C28.884 31.903 29.422 32.945 31.126 32.952C32.863 32.876 33.94 31.305 35.018 29.73C35.546 28.919 36.374 27.357 36.666 26.43H36.67C36.703 26.332 36.752 26.181 36.787 26.072C35.645 25.743 34.363 24.213 33.914 23.194ZM52.122 9.53099C52.122 9.99999 51.973 10.381 51.675 10.674C51.377 10.967 50.966 11.153 50.442 11.231V11.27C51.038 11.351 51.489 11.539 51.797 11.832C52.105 12.125 52.258 12.508 52.258 12.979C52.258 13.646 52.009 14.167 51.511 14.54C51.013 14.912 50.31 15.099 49.402 15.099C48.572 15.099 47.892 14.97 47.361 14.713V13.94C47.674 14.089 48.011 14.206 48.374 14.287C48.737 14.368 49.086 14.409 49.421 14.409C50.066 14.409 50.553 14.287 50.883 14.043C51.213 13.799 51.379 13.447 51.379 12.988C51.379 12.551 51.196 12.221 50.83 11.997C50.464 11.773 49.918 11.66 49.192 11.66H48.128V10.962H49.149C49.816 10.962 50.333 10.842 50.699 10.604C51.065 10.364 51.248 10.03 51.248 9.59999C51.248 9.25099 51.116 8.97299 50.852 8.76499C50.588 8.55699 50.233 8.45199 49.788 8.45199C49.43 8.45199 49.106 8.49299 48.816 8.57399C48.526 8.65499 48.191 8.81599 47.81 9.05699L47.4 8.50099C47.729 8.25699 48.097 8.07199 48.506 7.94699C48.915 7.82099 49.339 7.75899 49.778 7.75899C50.51 7.75899 51.084 7.91899 51.499 8.23999C51.915 8.56099 52.122 8.99099 52.122 9.53099ZM56.961 15L56.8 14.238H56.761C56.494 14.573 56.228 14.801 55.963 14.92C55.698 15.038 55.366 15.098 54.969 15.098C54.438 15.098 54.023 14.961 53.721 14.688C53.419 14.415 53.269 14.026 53.269 13.521C53.269 12.44 54.133 11.874 55.862 11.822L56.77 11.793V11.46C56.77 11.04 56.68 10.731 56.499 10.529C56.318 10.33 56.029 10.229 55.632 10.229C55.186 10.229 54.681 10.366 54.118 10.639L53.869 10.019C54.133 9.87499 54.422 9.76299 54.736 9.68199C55.05 9.60099 55.365 9.55999 55.681 9.55999C56.319 9.55999 56.792 9.70199 57.099 9.98499C57.406 10.268 57.56 10.722 57.56 11.347V15H56.961ZM55.13 14.429C55.634 14.429 56.031 14.29 56.319 14.014C56.607 13.738 56.751 13.35 56.751 12.852V12.369L55.94 12.403C55.295 12.425 54.831 12.526 54.546 12.704C54.261 12.881 54.119 13.157 54.119 13.531C54.119 13.824 54.208 14.047 54.385 14.2C54.562 14.353 54.811 14.429 55.13 14.429ZM62.454 10.342H60.042V15H59.231V9.64799H62.454V10.342ZM66.004 15.098C65.656 15.098 65.337 15.034 65.049 14.905C64.761 14.777 64.519 14.579 64.324 14.312H64.265C64.304 14.625 64.324 14.92 64.324 15.201V17.403H63.513V9.64799H64.172L64.284 10.38H64.323C64.531 10.087 64.774 9.87499 65.051 9.74499C65.328 9.61499 65.645 9.54999 66.003 9.54999C66.712 9.54999 67.26 9.79199 67.646 10.278C68.032 10.764 68.225 11.443 68.225 12.319C68.225 13.198 68.029 13.881 67.637 14.367C67.245 14.854 66.701 15.098 66.004 15.098ZM65.887 10.239C65.34 10.239 64.945 10.39 64.7 10.693C64.455 10.996 64.33 11.477 64.324 12.138V12.319C64.324 13.071 64.449 13.609 64.7 13.933C64.95 14.256 65.353 14.418 65.906 14.418C66.368 14.418 66.73 14.23 66.992 13.856C67.254 13.482 67.385 12.965 67.385 12.308C67.385 11.641 67.254 11.129 66.992 10.772C66.73 10.418 66.362 10.239 65.887 10.239ZM68.792 9.64799H69.661L70.833 12.7C71.09 13.396 71.25 13.899 71.312 14.209H71.351C71.393 14.043 71.482 13.759 71.617 13.357C71.752 12.955 72.194 11.718 72.943 9.64799H73.812L71.512 15.742C71.284 16.345 71.018 16.771 70.714 17.023C70.41 17.276 70.036 17.402 69.593 17.402C69.345 17.402 69.101 17.375 68.861 17.319V16.67C69.04 16.709 69.24 16.729 69.462 16.729C70.019 16.729 70.416 16.416 70.653 15.791L70.951 15.029L68.792 9.64799ZM75.701 11.87C76.713 11.87 77.22 11.59 77.22 11.03C77.22 10.503 76.81 10.239 75.99 10.239C75.739 10.239 75.511 10.261 75.306 10.307C75.101 10.353 74.832 10.444 74.5 10.58L74.212 9.92099C74.766 9.67399 75.369 9.54999 76.024 9.54999C76.639 9.54999 77.124 9.67599 77.479 9.92899C77.834 10.181 78.011 10.525 78.011 10.961C78.011 11.56 77.678 11.952 77.01 12.138V12.177C77.42 12.297 77.719 12.469 77.908 12.693C78.097 12.916 78.191 13.195 78.191 13.53C78.191 14.025 77.992 14.41 77.593 14.685C77.194 14.959 76.643 15.097 75.94 15.097C75.169 15.097 74.573 14.982 74.153 14.75V14.008C74.749 14.288 75.351 14.428 75.96 14.428C76.429 14.428 76.783 14.347 77.022 14.187C77.262 14.025 77.381 13.793 77.381 13.491C77.381 12.869 76.875 12.558 75.862 12.558H75.12V11.87H75.701ZM80.271 9.64799V13.042L80.237 13.931L80.222 14.209L83.118 9.64799H84.129V15H83.372V11.729L83.387 11.084L83.411 10.449L80.521 15H79.51V9.64799H80.271ZM89.456 10.342H87.718V15H86.907V10.342H85.188V9.64799H89.456V10.342ZM92.776 15.098C91.985 15.098 91.361 14.857 90.904 14.375C90.446 13.894 90.217 13.225 90.217 12.368C90.217 11.506 90.429 10.82 90.855 10.312C91.279 9.80399 91.849 9.54999 92.566 9.54999C93.236 9.54999 93.767 9.77099 94.158 10.212C94.549 10.652 94.744 11.234 94.744 11.957V12.47H91.057C91.074 13.098 91.232 13.575 91.533 13.901C91.835 14.226 92.259 14.389 92.805 14.389C93.381 14.389 93.951 14.269 94.514 14.028V14.751C94.228 14.875 93.956 14.963 93.701 15.018C93.446 15.07 93.138 15.098 92.776 15.098ZM92.557 10.229C92.127 10.229 91.785 10.369 91.53 10.649C91.274 10.929 91.124 11.316 91.078 11.811H93.876C93.876 11.3 93.763 10.909 93.534 10.636C93.305 10.365 92.98 10.229 92.557 10.229ZM103.064 10.991C103.064 11.34 102.964 11.603 102.763 11.785C102.564 11.965 102.283 12.087 101.921 12.148V12.192C102.376 12.254 102.71 12.387 102.919 12.592C103.13 12.797 103.234 13.08 103.234 13.442C103.234 13.94 103.051 14.324 102.684 14.594C102.319 14.865 101.784 14.999 101.08 14.999H98.722V9.64799H101.071C102.4 9.64799 103.064 10.096 103.064 10.991ZM102.273 11.069C102.273 10.808 102.173 10.624 101.972 10.515C101.773 10.406 101.468 10.351 101.062 10.351H99.534V11.86H100.906C101.408 11.86 101.76 11.798 101.966 11.674C102.172 11.55 102.273 11.35 102.273 11.069ZM102.425 13.389C102.425 13.099 102.315 12.889 102.096 12.756C101.875 12.625 101.512 12.559 101.004 12.559H99.534V14.322H101.023C101.957 14.321 102.425 14.011 102.425 13.389ZM56.844 35L55.244 30.913H50.094L48.512 35H47L52.08 22.098H53.337L58.391 35H56.844ZM54.778 29.568L53.284 25.587C53.091 25.083 52.891 24.465 52.686 23.733C52.557 24.296 52.373 24.914 52.132 25.587L50.62 29.568H54.778ZM64.42 35.176C63.793 35.176 63.22 35.06 62.702 34.828C62.183 34.598 61.748 34.241 61.397 33.761H61.292C61.362 34.324 61.397 34.857 61.397 35.361V39.325H59.938V25.367H61.125L61.327 26.685H61.397C61.772 26.158 62.209 25.777 62.707 25.542C63.205 25.307 63.776 25.19 64.421 25.19C65.698 25.19 66.684 25.627 67.379 26.5C68.074 27.373 68.421 28.598 68.421 30.174C68.421 31.756 68.068 32.986 67.362 33.861C66.654 34.738 65.674 35.176 64.42 35.176ZM64.209 26.431C63.225 26.431 62.513 26.703 62.073 27.248C61.633 27.793 61.408 28.66 61.396 29.85V30.175C61.396 31.529 61.622 32.497 62.073 33.08C62.524 33.663 63.248 33.954 64.244 33.954C65.076 33.954 65.728 33.617 66.2 32.943C66.672 32.269 66.908 31.34 66.908 30.157C66.908 28.956 66.672 28.035 66.2 27.392C65.728 26.752 65.064 26.431 64.209 26.431ZM75.45 35.176C74.823 35.176 74.25 35.06 73.732 34.828C73.212 34.598 72.778 34.241 72.426 33.761H72.321C72.391 34.324 72.426 34.857 72.426 35.361V39.325H70.967V25.367H72.154L72.356 26.685H72.426C72.801 26.158 73.238 25.777 73.736 25.542C74.234 25.307 74.805 25.19 75.45 25.19C76.727 25.19 77.713 25.627 78.408 26.5C79.101 27.373 79.449 28.598 79.449 30.174C79.449 31.756 79.095 32.986 78.39 33.861C77.684 34.738 76.704 35.176 75.45 35.176ZM75.239 26.431C74.255 26.431 73.543 26.703 73.103 27.248C72.663 27.793 72.438 28.66 72.426 29.85V30.175C72.426 31.529 72.652 32.497 73.103 33.08C73.554 33.663 74.278 33.954 75.274 33.954C76.106 33.954 76.757 33.617 77.23 32.943C77.701 32.269 77.937 31.34 77.937 30.157C77.937 28.956 77.701 28.035 77.23 27.392C76.758 26.752 76.095 26.431 75.239 26.431ZM94.145 31.581C94.145 32.712 93.735 33.594 92.915 34.227C92.095 34.86 90.981 35.176 89.575 35.176C88.052 35.176 86.88 34.98 86.059 34.587V33.146C86.586 33.369 87.161 33.544 87.782 33.673C88.403 33.802 89.018 33.866 89.628 33.866C90.624 33.866 91.374 33.678 91.878 33.299C92.382 32.922 92.634 32.396 92.634 31.722C92.634 31.277 92.544 30.912 92.366 30.627C92.186 30.344 91.887 30.081 91.47 29.841C91.05 29.601 90.413 29.328 89.558 29.024C88.363 28.596 87.509 28.089 86.995 27.503C86.483 26.917 86.226 26.152 86.226 25.209C86.226 24.219 86.598 23.431 87.342 22.845C88.086 22.259 89.071 21.966 90.295 21.966C91.572 21.966 92.747 22.2 93.819 22.669L93.353 23.97C92.292 23.525 91.261 23.302 90.259 23.302C89.468 23.302 88.85 23.472 88.405 23.812C87.96 24.152 87.737 24.624 87.737 25.227C87.737 25.672 87.819 26.038 87.983 26.321C88.147 26.606 88.423 26.866 88.814 27.104C89.203 27.34 89.799 27.603 90.602 27.89C91.95 28.37 92.876 28.886 93.384 29.437C93.891 29.987 94.145 30.702 94.145 31.581ZM99.664 33.972C99.922 33.972 100.171 33.953 100.411 33.914C100.651 33.877 100.842 33.837 100.982 33.796V34.912C100.824 34.988 100.591 35.051 100.283 35.101C99.976 35.15 99.699 35.175 99.453 35.175C97.59 35.175 96.658 34.194 96.658 32.231V26.501H95.278V25.798L96.658 25.192L97.273 23.135H98.117V25.367H100.912V26.501H98.117V32.17C98.117 32.75 98.255 33.195 98.53 33.506C98.805 33.817 99.184 33.972 99.664 33.972ZM111.222 30.175C111.222 31.745 110.826 32.972 110.035 33.854C109.244 34.736 108.151 35.176 106.757 35.176C105.896 35.176 105.131 34.974 104.463 34.57C103.795 34.166 103.279 33.586 102.916 32.83C102.553 32.074 102.371 31.189 102.371 30.176C102.371 28.606 102.764 27.383 103.549 26.507C104.334 25.631 105.424 25.193 106.819 25.193C108.167 25.193 109.237 25.641 110.032 26.538C110.824 27.433 111.222 28.646 111.222 30.175ZM103.883 30.175C103.883 31.405 104.129 32.343 104.621 32.988C105.113 33.633 105.837 33.955 106.792 33.955C107.747 33.955 108.473 33.634 108.967 32.993C109.463 32.35 109.71 31.412 109.71 30.176C109.71 28.951 109.463 28.022 108.967 27.386C108.473 26.75 107.741 26.432 106.775 26.432C105.82 26.432 105.099 26.745 104.613 27.372C104.127 27.999 103.883 28.933 103.883 30.175ZM118.174 25.191C118.602 25.191 118.986 25.226 119.325 25.296L119.123 26.65C118.725 26.562 118.373 26.518 118.068 26.518C117.289 26.518 116.623 26.834 116.068 27.467C115.515 28.1 115.238 28.888 115.238 29.831V35H113.779V25.367H114.983L115.15 27.151H115.22C115.577 26.524 116.008 26.041 116.512 25.701C117.016 25.361 117.57 25.191 118.174 25.191ZM125.196 35.176C123.772 35.176 122.648 34.742 121.826 33.875C121.002 33.008 120.591 31.804 120.591 30.263C120.591 28.71 120.973 27.477 121.738 26.563C122.502 25.649 123.529 25.192 124.818 25.192C126.025 25.192 126.98 25.589 127.683 26.383C128.386 27.177 128.738 28.224 128.738 29.525V30.448H122.102C122.131 31.579 122.417 32.437 122.958 33.023C123.501 33.609 124.264 33.902 125.248 33.902C126.285 33.902 127.311 33.685 128.324 33.252V34.553C127.808 34.776 127.321 34.935 126.86 35.032C126.402 35.127 125.847 35.176 125.196 35.176ZM124.801 26.413C124.028 26.413 123.41 26.665 122.951 27.169C122.49 27.673 122.22 28.37 122.138 29.261H127.174C127.174 28.341 126.969 27.637 126.559 27.147C126.148 26.658 125.563 26.413 124.801 26.413Z" fill="white"/>
</svg>
