<svg width="2716" height="4195" viewBox="0 0 2716 4195" fill="none" xmlns="http://www.w3.org/2000/svg">
<mask id="mask0" mask-type="alpha" maskUnits="userSpaceOnUse" x="0" y="0" width="2716" height="4195">
<path d="M0 1046.27L1034.77 0H2716V1472.14L0 4194.29V1046.27Z" fill="#C4C4C4"/>
</mask>
<g mask="url(#mask0)">
<path d="M2147.34 -825.968L2065.32 -908L-1645 2802.99L-1562.98 2885.02L2147.34 -825.968Z" fill="#E8E8E8" fill-opacity="0.3"/>
<path d="M2259.34 -644.968L2177.32 -727L-1533 2983.99L-1450.98 3066.02L2259.34 -644.968Z" fill="#E8E8E8" fill-opacity="0.3"/>
<path d="M2536.34 -612.968L2454.32 -695L-1256 3015.99L-1173.98 3098.02L2536.34 -612.968Z" fill="#E8E8E8" fill-opacity="0.3"/>
<path d="M2690.34 -441.968L2608.32 -524L-1102 3186.99L-1019.98 3269.02L2690.34 -441.968Z" fill="#E8E8E8" fill-opacity="0.3"/>
<path d="M3333.34 -768.968L3251.32 -851L-459 2859.99L-376.983 2942.02L3333.34 -768.968Z" fill="#E8E8E8" fill-opacity="0.3"/>
<path d="M3500.3 -632.968L3418.28 -715L-480 3183.99L-397.983 3266.02L3500.3 -632.968Z" fill="#E8E8E8" fill-opacity="0.3"/>
<path d="M3548.3 -363.617L3466.28 -445.648L-432 3453.34L-349.983 3535.37L3548.3 -363.617Z" fill="#E8E8E8" fill-opacity="0.3"/>
<path d="M3546.3 -55.9682L3464.28 -138L-434 3760.99L-351.983 3843.02L3546.3 -55.9682Z" fill="#E8E8E8" fill-opacity="0.3"/>
<path d="M3365.3 437.032L3283.28 355L-615 4253.99L-532.983 4336.02L3365.3 437.032Z" fill="#E8E8E8" fill-opacity="0.3"/>
<path d="M3433.73 684.663L3351.71 602.631L-546.565 4501.62L-464.548 4583.65L3433.73 684.663Z" fill="#E8E8E8" fill-opacity="0.3"/>
</g>
</svg>
