<svg width="1920" height="4656" viewBox="0 0 1920 4656" fill="none" xmlns="http://www.w3.org/2000/svg">
<mask id="mask0" mask-type="alpha" maskUnits="userSpaceOnUse" x="0" y="0" width="1920" height="4656">
<rect width="1920" height="4656" fill="#C4C4C4"/>
</mask>
<g mask="url(#mask0)">
<rect width="1920" height="4656" fill="white"/>
<path d="M1926 4656L-0.000137854 4656L-0.000249152 3142.25L1926 1156L1926 4656Z" fill="#AADA91"/>
<rect x="1352.91" y="-619" width="110.828" height="3709.35" transform="rotate(45 1352.91 -619)" fill="#E8E8E8" fill-opacity="0.5"/>
<rect x="1590.4" y="-546.623" width="110.828" height="3709.35" transform="rotate(45 1590.4 -546.623)" fill="#E8E8E8" fill-opacity="0.5"/>
<rect x="1708.91" y="-390.559" width="110.828" height="3709.35" transform="rotate(45 1708.91 -390.559)" fill="#E8E8E8" fill-opacity="0.5"/>
<rect x="2181.03" y="-589.596" width="110.828" height="3709.35" transform="rotate(45 2181.03 -589.596)" fill="#E8E8E8" fill-opacity="0.5"/>
<rect x="2375.54" y="-490.078" width="110.828" height="3709.35" transform="rotate(45 2375.54 -490.078)" fill="#E8E8E8" fill-opacity="0.5"/>
<rect x="2481.85" y="-297.824" width="110.828" height="3709.35" transform="rotate(45 2481.85 -297.824)" fill="#E8E8E8" fill-opacity="0.5"/>
<rect x="2506.73" y="-17.3613" width="110.828" height="3709.35" transform="rotate(45 2506.73 -17.3613)" fill="#E8E8E8" fill-opacity="0.5"/>
<rect x="2490.89" y="301.553" width="110.828" height="3709.35" transform="rotate(45 2490.89 301.553)" fill="#E8E8E8" fill-opacity="0.5"/>
<rect x="3004.5" y="2269" width="132.825" height="4445.57" transform="rotate(45 3004.5 2269)" fill="white" fill-opacity="0.2"/>
<rect x="3096.66" y="2529.23" width="132.825" height="4445.57" transform="rotate(45 3096.66 2529.23)" fill="white" fill-opacity="0.2"/>
<rect x="3096.66" y="2897.89" width="132.825" height="4445.57" transform="rotate(45 3096.66 2897.89)" fill="white" fill-opacity="0.2"/>
<path d="M1926 4656H0V4277.68L1926 4648V4656Z" fill="#202020"/>
</g>
</svg>
