<svg width="973" height="290" viewBox="0 0 973 290" fill="none" xmlns="http://www.w3.org/2000/svg">
<path d="M834.959 170.833C762.975 182.645 775.189 258.643 838.457 258.779C865.27 259.08 882.986 249.56 892.115 237.705C879.675 241.021 857.591 240.899 846.203 237.509C892.116 237.705 936.452 213.698 948.373 187.282C928.912 196.849 894.437 205.692 865.971 205.025C922.439 196.716 965.026 164.949 970.978 138.078C939.22 160.1 896.2 160.546 834.959 170.833Z" fill="#AADA91"/>
<path d="M159.207 61.765C228.045 85.6866 202.792 158.59 140.161 147.753C113.85 143.226 97.9106 131.021 91.3826 117.432C103.14 123.072 124.905 126.592 136.887 125.343C91.3826 117.432 51.9243 86.1404 45.1119 58.1767C62.6127 71.1606 94.9442 85.6948 123.505 89.8526C68.4901 72.0287 32.0114 33.1569 31.168 5.64789C58.5029 32.9533 100.518 40.9587 159.207 61.765Z" fill="#AADA91"/>
<path d="M335.977 129.01L343.722 104.314L349.649 105.084L346.688 114.464L356.541 115.744L359.466 106.359L365.428 107.134L357.682 131.829L351.756 131.06L354.994 120.662L345.177 119.387L341.903 129.78L335.977 129.01ZM376.05 134.869C372.242 134.374 369.362 132.972 367.412 130.661C365.485 128.354 364.743 125.498 365.185 122.095C365.744 117.787 367.634 114.33 370.852 111.723C374.071 109.115 377.834 108.092 382.142 108.651C385.926 109.143 388.77 110.541 390.673 112.845C392.6 115.153 393.342 118.008 392.9 121.412C392.337 125.743 390.458 129.214 387.263 131.824C384.095 134.414 380.358 135.429 376.05 134.869ZM377.067 129.556C379.589 129.883 381.736 129.194 383.507 127.488C385.277 125.782 386.329 123.644 386.663 121.073C386.901 119.241 386.527 117.655 385.539 116.317C384.554 114.955 383.062 114.144 381.063 113.884C378.588 113.562 376.439 114.264 374.618 115.987C372.824 117.69 371.761 119.815 371.43 122.362C371.192 124.194 371.566 125.792 372.55 127.154C373.538 128.492 375.044 129.293 377.067 129.556ZM392.664 136.374L400.41 111.678L410.299 112.963C412.322 113.225 414.001 113.903 415.335 114.996C416.669 116.089 417.214 117.576 416.97 119.456C416.757 121.098 416.09 122.415 414.969 123.407C413.847 124.399 412.438 125.002 410.74 125.218L410.731 125.289C412.036 125.676 413.041 126.412 413.748 127.496C414.481 128.559 414.753 129.817 414.564 131.269C414.24 133.768 413.002 135.567 410.85 136.667C408.698 137.767 405.992 138.105 402.732 137.682L392.664 136.374ZM399.783 132.434L403.246 132.884C404.722 133.076 405.959 132.958 406.958 132.531C407.958 132.104 408.536 131.284 408.694 130.07C408.799 129.261 408.572 128.59 408.011 128.058C407.451 127.525 406.6 127.185 405.458 127.036L401.602 126.535L399.783 132.434ZM402.944 122.353L406.585 122.826C407.609 122.959 408.544 122.839 409.391 122.465C410.266 122.07 410.774 121.325 410.916 120.231C411.117 118.684 410.087 117.763 407.826 117.47L404.577 117.048L402.944 122.353ZM416.371 139.454L424.117 114.758L430.043 115.528L427.195 124.596L429.445 124.888C432.443 125.278 434.682 126.21 436.16 127.685C437.639 129.16 438.231 131.027 437.937 133.288C437.548 136.287 436.259 138.383 434.071 139.575C431.886 140.743 428.997 141.094 425.403 140.627L416.371 139.454ZM423.78 135.515L426.065 135.812C429.635 136.276 431.573 135.33 431.879 132.973C432.018 131.902 431.747 131.105 431.065 130.581C430.386 130.033 429.356 129.669 427.976 129.49L425.762 129.202L423.78 135.515ZM438.184 142.287L445.894 117.587L451.856 118.361L444.11 143.057L438.184 142.287ZM449.422 143.747L457.168 119.051L463.022 119.812L457.934 136.068L458.077 136.086L472.876 121.092L479.123 121.903L471.377 146.599L465.522 145.839L470.524 129.971L470.417 129.957L455.776 144.573L449.422 143.747ZM468.816 118.531C467.031 118.3 465.658 117.686 464.699 116.69C463.763 115.697 463.352 114.385 463.467 112.754L466.688 112.555C466.719 114.181 467.543 115.099 469.162 115.309C470.042 115.424 470.832 115.308 471.53 114.963C472.228 114.618 472.744 114.093 473.078 113.386L475.962 114.377C475.368 115.97 474.421 117.118 473.119 117.82C471.845 118.501 470.41 118.739 468.816 118.531ZM495.661 150.444L496.595 147.443C490.125 145.828 487.27 142.093 488.031 136.238C488.436 133.121 489.932 130.641 492.519 128.798C495.106 126.956 498.64 126.205 503.121 126.546L503.797 124.419L509.723 125.189L508.993 127.454C512.323 128.273 514.676 129.632 516.051 131.529C517.45 133.429 517.973 135.735 517.621 138.449C517.206 141.638 515.704 144.165 513.114 146.031C510.524 147.897 506.977 148.659 502.471 148.315L501.587 151.213L495.661 150.444ZM498.16 142.382L501.516 131.637C500.263 131.595 499.158 131.718 498.201 132.005C497.244 132.292 496.489 132.702 495.936 133.236C495.385 133.745 494.961 134.307 494.664 134.922C494.369 135.513 494.174 136.177 494.078 136.915C493.899 138.295 494.172 139.456 494.896 140.397C495.621 141.339 496.709 142 498.16 142.382ZM504.072 143.259C506.51 143.31 508.316 142.818 509.491 141.785C510.669 140.728 511.368 139.355 511.587 137.665C511.751 136.403 511.456 135.324 510.701 134.428C509.949 133.507 508.86 132.857 507.433 132.478L504.072 143.259ZM530.459 154.928C526.651 154.433 523.772 153.031 521.821 150.72C519.895 148.413 519.152 145.557 519.594 142.154C520.154 137.846 522.043 134.389 525.262 131.781C528.48 129.174 532.244 128.151 536.552 128.71C540.336 129.202 543.179 130.6 545.082 132.904C547.009 135.212 547.751 138.067 547.309 141.47C546.747 145.802 544.868 149.273 541.673 151.883C538.505 154.473 534.767 155.488 530.459 154.928ZM531.476 149.615C533.999 149.942 536.146 149.253 537.916 147.547C539.687 145.841 540.739 143.703 541.073 141.132C541.311 139.3 540.936 137.714 539.948 136.376C538.964 135.014 537.472 134.203 535.472 133.943C532.997 133.621 530.849 134.322 529.028 136.046C527.233 137.749 526.171 139.874 525.84 142.421C525.602 144.253 525.975 145.851 526.96 147.213C527.948 148.551 529.453 149.352 531.476 149.615ZM547.074 156.433L554.82 131.737L563.138 132.817C566.089 133.201 568.282 134.115 569.715 135.56C571.149 137.004 571.722 138.833 571.435 141.047C571.055 143.974 569.784 146.024 567.623 147.195C565.489 148.346 562.673 148.694 559.174 148.239L555.925 147.817L552.964 157.198L547.074 156.433ZM557.359 143.212L559.893 143.541C563.273 143.98 565.107 143.093 565.394 140.879C565.53 139.832 565.267 139.06 564.606 138.562C563.972 138.044 563 137.7 561.691 137.53L559.263 137.215L557.359 143.212ZM569.805 159.386L577.551 134.69L585.869 135.77L586.668 152.537L586.81 152.556L597.471 137.278L606.289 138.423L598.543 163.119L592.724 162.363L598.396 144.694L598.253 144.676L586.084 161.5L581.907 160.958L580.903 142.422L580.76 142.403L575.374 160.109L569.805 159.386ZM600.226 163.338L619.61 140.154L625.393 140.905L626.894 166.802L620.646 165.99L620.443 160.845L610.697 159.579L607.009 164.219L600.226 163.338ZM613.853 155.125L620.458 155.983L620.301 146.85L613.853 155.125ZM631.334 167.379L637.484 147.703L630.416 146.785L632.012 141.765L651.932 144.352L650.372 149.377L643.446 148.478L637.26 168.149L631.334 167.379ZM257.019 163.812C253.473 163.351 250.783 161.985 248.948 159.714C247.116 157.419 246.416 154.617 246.845 151.309C247.414 146.93 249.335 143.416 252.607 140.768C255.88 138.119 259.646 137.072 263.906 137.625C265.858 137.879 267.586 138.454 269.091 139.351C270.62 140.252 271.728 141.316 272.416 142.542L267.515 145.899C266.695 144.195 265.203 143.203 263.037 142.921C260.585 142.603 258.425 143.302 256.556 145.02C254.715 146.717 253.627 148.85 253.293 151.421C253.058 153.23 253.409 154.812 254.346 156.168C255.286 157.5 256.732 158.293 258.684 158.547C260.945 158.84 263.003 158.176 264.86 156.554L267.67 160.912C264.758 163.39 261.208 164.356 257.019 163.812ZM281.724 166.985C277.916 166.49 275.037 165.088 273.086 162.777C271.159 160.47 270.417 157.614 270.859 154.211C271.419 149.903 273.308 146.446 276.527 143.839C279.745 141.232 283.508 140.208 287.816 140.768C291.6 141.259 294.444 142.657 296.347 144.961C298.274 147.269 299.016 150.124 298.574 153.528C298.011 157.859 296.133 161.33 292.938 163.94C289.77 166.53 286.032 167.545 281.724 166.985ZM282.741 161.672C285.264 162 287.41 161.31 289.181 159.604C290.952 157.898 292.004 155.76 292.338 153.189C292.576 151.357 292.201 149.771 291.213 148.433C290.228 147.071 288.736 146.26 286.737 146C284.262 145.679 282.114 146.38 280.293 148.103C278.498 149.806 277.436 151.931 277.105 154.478C276.867 156.31 277.24 157.908 278.225 159.27C279.213 160.608 280.718 161.409 282.741 161.672ZM298.339 168.49L306.085 143.794L315.973 145.079C317.996 145.342 319.675 146.019 321.009 147.112C322.344 148.205 322.889 149.692 322.645 151.572C322.431 153.214 321.764 154.532 320.643 155.523C319.522 156.515 318.112 157.119 316.414 157.334L316.405 157.405C317.71 157.792 318.716 158.528 319.422 159.612C320.155 160.675 320.427 161.933 320.239 163.385C319.914 165.884 318.676 167.683 316.524 168.783C314.373 169.883 311.667 170.221 308.406 169.798L298.339 168.49ZM305.457 164.55L308.92 165C310.396 165.192 311.633 165.074 312.633 164.647C313.632 164.221 314.211 163.4 314.368 162.187C314.473 161.377 314.246 160.706 313.686 160.174C313.126 159.641 312.275 159.301 311.132 159.152L307.276 158.651L305.457 164.55ZM308.618 154.47L312.26 154.943C313.283 155.076 314.219 154.955 315.066 154.581C315.94 154.186 316.448 153.442 316.59 152.347C316.791 150.8 315.761 149.879 313.5 149.586L310.252 149.164L308.618 154.47ZM322.046 171.57L329.792 146.874L338.11 147.954C341.061 148.338 343.253 149.252 344.687 150.697C346.121 152.141 346.694 153.97 346.407 156.184C346.026 159.111 344.756 161.161 342.595 162.332C340.461 163.483 337.645 163.831 334.146 163.376L330.897 162.954L327.936 172.335L322.046 171.57ZM332.331 158.349L334.865 158.678C338.245 159.117 340.078 158.23 340.366 156.016C340.502 154.969 340.239 154.197 339.578 153.699C338.943 153.181 337.972 152.837 336.663 152.667L334.235 152.352L332.331 158.349ZM344.776 174.523L352.522 149.827L368.695 151.928L367.144 156.881L356.648 155.518L355.156 160.297L365.152 161.596L363.673 166.268L353.677 164.97L352.044 170.276L363.54 171.769L361.984 176.758L344.776 174.523ZM365.729 177.245L373.475 152.549L381.793 153.629L382.592 170.396L382.735 170.414L393.396 155.137L402.214 156.282L394.468 180.978L388.649 180.222L394.32 162.553L394.177 162.535L382.009 179.359L377.832 178.817L376.827 160.281L376.684 160.262L371.299 177.968L365.729 177.245ZM399.756 181.665L407.502 156.969L423.674 159.07L422.123 164.023L411.627 162.66L410.135 167.439L420.131 168.738L418.653 173.41L408.657 172.112L407.024 177.418L418.519 178.911L416.963 183.9L399.756 181.665ZM420.709 184.387L428.455 159.691L434.381 160.461L431.42 169.841L441.273 171.121L444.198 161.736L450.16 162.511L442.414 187.207L436.488 186.437L439.727 176.039L429.909 174.764L426.635 185.157L420.709 184.387ZM447.728 187.897L455.474 163.201L461.4 163.971L458.439 173.351L468.292 174.631L471.218 165.246L477.179 166.021L469.433 190.716L463.507 189.947L466.746 179.549L456.928 178.274L453.654 188.667L447.728 187.897ZM474.747 191.407L482.493 166.711L488.419 167.481L485.571 176.549L487.82 176.842C490.819 177.231 493.058 178.163 494.536 179.638C496.014 181.113 496.607 182.981 496.313 185.242C495.923 188.24 494.635 190.336 492.447 191.528C490.262 192.696 487.373 193.047 483.779 192.58L474.747 191.407ZM482.156 187.468L484.441 187.765C488.011 188.229 489.949 187.283 490.255 184.927C490.394 183.856 490.123 183.058 489.44 182.534C488.761 181.986 487.732 181.622 486.351 181.443L484.138 181.155L482.156 187.468ZM496.56 194.24L504.27 169.54L510.232 170.314L502.486 195.01L496.56 194.24ZM504.37 195.255L517.957 183.443L513.937 170.796L520.613 171.663L522.751 180.072L530.216 172.91L537.392 173.843L525.114 184.518L529.646 198.538L522.827 197.653L520.252 188.134L511.724 196.21L504.37 195.255ZM541.231 200.044L548.977 175.348L570.54 178.149L562.794 202.845L556.868 202.075L563.054 182.404L553.343 181.142L547.157 200.813L541.231 200.044ZM581.165 205.885C577.357 205.39 574.478 203.987 572.527 201.677C570.6 199.369 569.858 196.514 570.3 193.111C570.86 188.803 572.749 185.345 575.967 182.738C579.186 180.131 582.949 179.107 587.257 179.667C591.041 180.159 593.885 181.557 595.788 183.861C597.715 186.168 598.457 189.024 598.015 192.427C597.452 196.759 595.574 200.23 592.379 202.84C589.211 205.429 585.473 206.444 581.165 205.885ZM582.182 200.571C584.705 200.899 586.851 200.21 588.622 198.504C590.392 196.798 591.445 194.659 591.779 192.089C592.017 190.256 591.642 188.671 590.654 187.332C589.669 185.97 588.177 185.159 586.178 184.9C583.703 184.578 581.555 185.279 579.733 187.003C577.939 188.706 576.877 190.831 576.546 193.377C576.308 195.21 576.681 196.807 577.666 198.17C578.654 199.508 580.159 200.309 582.182 200.571ZM597.78 207.39L605.525 182.694L611.345 183.45L608.075 193.807L608.182 193.821L619.591 184.521L627.16 185.504L613.209 195.926L620.485 210.339L613.095 209.379L607.321 196.54L607.214 196.526L603.599 208.145L597.78 207.39ZM624.274 211.267C622.918 211.091 621.864 210.821 621.112 210.457L622.614 205.606C623.16 205.871 623.957 206.071 625.004 206.207C626.028 206.34 626.893 206.198 627.601 205.782C628.311 205.342 629.174 204.57 630.188 203.468L630.399 203.241L626.578 185.429L633.254 186.296L635.253 198.572L644.464 187.752L651.604 188.68L636.343 204.994C635.218 206.203 634.285 207.146 633.543 207.824C632.802 208.503 631.914 209.186 630.881 209.874C629.874 210.542 628.836 210.988 627.766 211.212C626.7 211.413 625.536 211.431 624.274 211.267ZM645.961 213.649L653.707 188.953L675.269 191.754L667.523 216.45L661.597 215.68L667.783 196.009L658.072 194.747L651.887 214.418L645.961 213.649ZM685.894 219.49C682.086 218.995 679.207 217.592 677.256 215.282C675.33 212.974 674.587 210.119 675.029 206.716C675.589 202.408 677.478 198.95 680.697 196.343C683.916 193.736 687.679 192.712 691.987 193.272C695.771 193.764 698.614 195.162 700.517 197.466C702.444 199.773 703.187 202.629 702.744 206.032C702.182 210.364 700.303 213.835 697.108 216.445C693.94 219.034 690.202 220.049 685.894 219.49ZM686.911 214.176C689.434 214.504 691.581 213.815 693.351 212.109C695.122 210.403 696.174 208.264 696.508 205.694C696.746 203.861 696.371 202.276 695.383 200.938C694.399 199.575 692.907 198.764 690.908 198.505C688.432 198.183 686.284 198.884 684.463 200.608C682.669 202.311 681.606 204.436 681.275 206.982C681.037 208.815 681.41 210.412 682.395 211.775C683.383 213.113 684.888 213.914 686.911 214.176ZM702.509 220.995L710.255 196.299L716.074 197.055L712.804 207.412L712.912 207.426L724.321 198.126L731.889 199.109L717.938 209.531L725.214 223.944L717.824 222.984L712.05 210.145L711.943 210.131L708.328 221.751L702.509 220.995Z" fill="#AADA91"/>
</svg>
