<svg width="27" height="17" viewBox="0 0 27 17" fill="none" xmlns="http://www.w3.org/2000/svg">
<path d="M26.73 0H0.27C0.1215 0 0 0.0869318 0 0.193182V1.73864C0 1.84489 0.1215 1.93182 0.27 1.93182H26.73C26.8785 1.93182 27 1.84489 27 1.73864V0.193182C27 0.0869318 26.8785 0 26.73 0ZM26.73 15.0682H0.27C0.1215 15.0682 0 15.1551 0 15.2614V16.8068C0 16.9131 0.1215 17 0.27 17H26.73C26.8785 17 27 16.9131 27 16.8068V15.2614C27 15.1551 26.8785 15.0682 26.73 15.0682ZM26.73 7.53409H0.27C0.1215 7.53409 0 7.62102 0 7.72727V9.27273C0 9.37898 0.1215 9.46591 0.27 9.46591H26.73C26.8785 9.46591 27 9.37898 27 9.27273V7.72727C27 7.62102 26.8785 7.53409 26.73 7.53409Z" fill="white"/>
</svg>
