<svg width="20" height="27" viewBox="0 0 20 27" fill="none" xmlns="http://www.w3.org/2000/svg">
<path d="M9.30661 26.6477C9.46117 26.8678 9.72139 27 10 27C10.2786 27 10.5388 26.8678 10.6934 26.6477C12.6656 23.8398 15.5704 20.3719 17.5946 16.845C19.2132 14.025 20 11.6198 20 9.49219C20 4.2582 15.514 0 10 0C4.486 0 0 4.2582 0 9.49219C0 11.6198 0.786833 14.025 2.40539 16.845C4.42811 20.3692 7.3385 23.8456 9.30661 26.6477ZM10 1.58203C14.595 1.58203 18.3333 5.13053 18.3333 9.49219C18.3333 11.3486 17.6129 13.5062 16.1311 16.0882C14.3862 19.1282 11.8963 22.2121 10 24.8046C8.10394 22.2125 5.61389 19.1284 3.86894 16.0882C2.38706 13.5062 1.66667 11.3486 1.66667 9.49219C1.66667 5.13053 5.405 1.58203 10 1.58203Z" fill="#011F3A"/>
<path d="M10 14.2383C12.757 14.2383 15 12.1092 15 9.49219C15 6.87519 12.757 4.74609 10 4.74609C7.243 4.74609 5 6.87519 5 9.49219C5 12.1092 7.243 14.2383 10 14.2383ZM10 6.32812C11.838 6.32812 13.3333 7.74752 13.3333 9.49219C13.3333 11.2369 11.838 12.6562 10 12.6562C8.162 12.6562 6.66667 11.2369 6.66667 9.49219C6.66667 7.74752 8.162 6.32812 10 6.32812Z" fill="#011F3A"/>
</svg>
