<svg width="32" height="33" viewBox="0 0 32 33" fill="none" xmlns="http://www.w3.org/2000/svg">
<path d="M20.9113 0H11.0887C2.12493 0 0 2.12526 0 11.0903V20.9145C0 29.8796 2.12493 32.0049 11.0887 32.0049H20.9113C29.8751 32.0049 32 29.8796 32 20.9145V11.0903C32 2.12526 29.8541 0 20.9113 0ZM25.8332 22.8308H23.5103C22.6303 22.8308 22.3593 22.1327 20.7764 20.5285C19.4014 19.1953 18.7924 19.0183 18.4534 19.0183C17.9744 19.0183 17.8384 19.1533 17.8384 19.8104V21.9097C17.8384 22.4727 17.6614 22.8108 16.1715 22.8108C13.7076 22.8108 10.9737 21.3206 9.05672 18.5443C6.16581 14.4758 5.37483 11.4284 5.37483 10.7983C5.37483 10.4593 5.50983 10.1422 6.16081 10.1422H8.48874C9.07772 10.1422 9.30171 10.4133 9.5307 11.0433C10.6817 14.3667 12.5986 17.2781 13.3896 17.2781C13.6816 17.2781 13.8166 17.1431 13.8166 16.398V12.9656C13.7276 11.3824 12.8946 11.2464 12.8946 10.6843C12.8946 10.4133 13.1186 10.1422 13.4776 10.1422H17.1385C17.6334 10.1422 17.8154 10.4133 17.8154 10.9963V15.6269C17.8154 16.127 18.0394 16.304 18.1744 16.304C18.4664 16.304 18.7164 16.127 19.2574 15.5849C20.9293 13.7097 22.1273 10.8183 22.1273 10.8183C22.2833 10.4793 22.5543 10.1622 23.1433 10.1622H25.4712C26.1692 10.1622 26.3252 10.5213 26.1692 11.0213C25.8772 12.3755 23.0283 16.397 23.0283 16.397C22.7833 16.803 22.6893 16.9801 23.0283 17.4331C23.2783 17.7722 24.0912 18.4752 24.6322 19.1053C25.6272 20.2355 26.3922 21.1836 26.5962 21.8397C26.8252 22.4907 26.4872 22.8298 25.8302 22.8298L25.8332 22.8308Z" fill="white"/>
</svg>
