<svg width="20" height="20" viewBox="0 0 20 20" fill="none" xmlns="http://www.w3.org/2000/svg">
<path d="M15.8148 12.3889C15.4047 11.9625 14.9101 11.7346 14.386 11.7346C13.866 11.7346 13.3672 11.9583 12.9402 12.3847L11.6044 13.7143C11.4945 13.6552 11.3846 13.6004 11.2789 13.5455C11.1267 13.4695 10.983 13.3977 10.8604 13.3218C9.60912 12.5282 8.47197 11.494 7.38133 10.1559C6.85292 9.48891 6.49783 8.92749 6.23997 8.35762C6.5866 8.04103 6.90788 7.71178 7.2207 7.39519C7.33906 7.277 7.45743 7.15458 7.57579 7.03639C8.46352 6.14993 8.46352 5.00177 7.57579 4.11531L6.42174 2.96293C6.29069 2.83207 6.15542 2.69699 6.0286 2.56191C5.77496 2.3002 5.50864 2.03004 5.23387 1.77677C4.82382 1.37153 4.33346 1.15625 3.81773 1.15625C3.302 1.15625 2.80318 1.37153 2.38045 1.77677C2.37622 1.78099 2.37622 1.78099 2.372 1.78521L0.934717 3.23308C0.393623 3.7734 0.0850313 4.4319 0.0173947 5.19594C-0.0840603 6.42853 0.279487 7.5767 0.558488 8.32808C1.24331 10.1727 2.26631 11.8823 3.79236 13.7143C5.64392 15.922 7.8717 17.6654 10.4165 18.8937C11.3888 19.3539 12.6866 19.8984 14.1365 19.9913C14.2253 19.9955 14.3183 19.9997 14.4029 19.9997C15.3794 19.9997 16.1995 19.6493 16.842 18.9528C16.8462 18.9444 16.8547 18.9402 16.8589 18.9317C17.0787 18.6658 17.3324 18.4252 17.5987 18.1677C17.7805 17.9946 17.9665 17.8131 18.1482 17.6232C18.5667 17.1884 18.7866 16.6818 18.7866 16.1626C18.7866 15.6392 18.5625 15.1369 18.1356 14.7148L15.8148 12.3889ZM17.3281 16.8338C17.3239 16.8338 17.3239 16.838 17.3281 16.8338C17.1633 17.0111 16.9942 17.1715 16.8124 17.3488C16.5376 17.6105 16.2586 17.8849 15.9966 18.193C15.5696 18.6489 15.0665 18.8642 14.4071 18.8642C14.3437 18.8642 14.276 18.8642 14.2126 18.86C12.9571 18.7798 11.7904 18.2901 10.9153 17.8722C8.5227 16.7156 6.42174 15.0736 4.67587 12.9925C3.23436 11.2576 2.27054 9.65353 1.63222 7.93128C1.23908 6.8802 1.09535 6.06129 1.15876 5.28881C1.20104 4.79493 1.39126 4.38547 1.74213 4.03511L3.18363 2.59568C3.39077 2.40151 3.61059 2.29598 3.82618 2.29598C4.0925 2.29598 4.30809 2.45638 4.44337 2.59146C4.44759 2.59568 4.45182 2.5999 4.45605 2.60412C4.71391 2.84473 4.9591 3.09378 5.21696 3.35972C5.34801 3.4948 5.48328 3.62988 5.61855 3.76918L6.7726 4.92156C7.2207 5.36901 7.2207 5.78269 6.7726 6.23014C6.65001 6.35255 6.53165 6.47497 6.40906 6.59316C6.05396 6.95618 5.71578 7.29388 5.34801 7.62314C5.33955 7.63158 5.3311 7.6358 5.32687 7.64424C4.96332 8.00726 5.03096 8.36185 5.10705 8.60245C5.11128 8.61512 5.11551 8.62778 5.11973 8.64044C5.41987 9.36649 5.8426 10.0503 6.48515 10.865L6.48938 10.8692C7.65611 12.3045 8.88625 13.4231 10.2432 14.28C10.4165 14.3897 10.5941 14.4784 10.7632 14.5628C10.9153 14.6388 11.0591 14.7105 11.1817 14.7865C11.1986 14.795 11.2155 14.8076 11.2324 14.8161C11.3761 14.8878 11.5114 14.9216 11.6509 14.9216C12.0018 14.9216 12.2216 14.7021 12.2934 14.6303L13.7392 13.1867C13.8829 13.0432 14.1112 12.8701 14.3775 12.8701C14.6396 12.8701 14.8552 13.0347 14.9862 13.1782C14.9905 13.1825 14.9905 13.1825 14.9947 13.1867L17.3239 15.5126C17.7593 15.9431 17.7593 16.3864 17.3281 16.8338Z" fill="#011F3A"/>
<path d="M10.8076 4.75742C11.9152 4.94316 12.9213 5.46659 13.7245 6.26861C14.5276 7.07064 15.0476 8.07529 15.2378 9.18125C15.2843 9.45985 15.5253 9.65402 15.8001 9.65402C15.8339 9.65402 15.8635 9.6498 15.8973 9.64558C16.2101 9.59492 16.4172 9.29944 16.3665 8.98707C16.1382 7.64895 15.5042 6.42902 14.5361 5.46236C13.5681 4.49571 12.3464 3.86253 11.0063 3.63458C10.6935 3.58393 10.4018 3.79077 10.3469 4.09891C10.2919 4.40706 10.4948 4.70677 10.8076 4.75742Z" fill="#011F3A"/>
<path d="M19.9914 8.82256C19.6152 6.61909 18.5753 4.61402 16.9773 3.01841C15.3794 1.42279 13.3715 0.384375 11.1648 0.00868786C10.8562 -0.0461878 10.5645 0.164872 10.5096 0.47302C10.4589 0.785389 10.666 1.07665 10.9788 1.13153C12.9487 1.465 14.7453 2.39789 16.1742 3.82044C17.603 5.2472 18.533 7.04121 18.8669 9.0083C18.9134 9.28689 19.1544 9.48107 19.4292 9.48107C19.463 9.48107 19.4926 9.47685 19.5264 9.47263C19.835 9.4262 20.0464 9.13071 19.9914 8.82256Z" fill="#011F3A"/>
</svg>
