<svg width="20" height="16" viewBox="0 0 20 16" fill="none" xmlns="http://www.w3.org/2000/svg">
<path d="M17.619 0H2.38095C1.06622 0.000523212 0.000595238 1.24958 0 2.7904V13.2096C0.000595238 14.7504 1.06622 15.9997 2.38095 16H17.619C18.9338 15.9997 19.9994 14.7504 20 13.2096V2.7904C19.9994 1.24958 18.9338 0.000523212 17.619 0ZM2.38095 1.11616H17.619C18.3049 1.11825 18.8935 1.68872 19.0238 2.4777L10 8.37121L0.976191 2.4777C1.10655 1.68872 1.69509 1.11825 2.38095 1.11616ZM17.619 14.8784H2.38095C1.59301 14.8756 0.954613 14.1276 0.952381 13.2042V3.73914L9.76667 9.49836C9.8381 9.5444 9.9183 9.56951 10 9.57108C10.082 9.57213 10.1625 9.54702 10.2333 9.49836L19.0476 3.73914V13.2042C19.047 14.1285 18.4077 14.8776 17.619 14.8784Z" fill="#011F3A"/>
</svg>
