<svg width="32" height="33" viewBox="0 0 32 33" fill="none" xmlns="http://www.w3.org/2000/svg">
<path d="M5.84301 0C2.60624 0 0 2.60663 0 5.84389V26.161C0 29.3982 2.60624 32.0048 5.84301 32.0048H16.853V19.4929H13.545V14.9883H16.853V11.1397C16.853 8.11604 18.8076 5.33981 23.31 5.33981C25.133 5.33981 26.481 5.51485 26.481 5.51485L26.375 9.7215C26.375 9.7215 25.0002 9.7085 23.5 9.7085C21.8764 9.7085 21.616 10.4567 21.616 11.6988V14.9883H26.504L26.291 19.493H21.616V32.0049H26.157C29.3938 32.0049 32 29.3983 32 26.161V5.84392C32 2.60666 29.3938 3.20048e-05 26.157 3.20048e-05L5.84301 0Z" fill="white"/>
</svg>
