<svg width="296" height="76" viewBox="0 0 296 76" fill="none" xmlns="http://www.w3.org/2000/svg">
<path d="M121.936 21.8137C121.936 21.8137 117.114 18.5992 111.603 18.5992C107.699 18.5992 105.173 20.6656 105.173 24.569C105.173 35.1309 125.151 32.6052 125.151 48.6777C125.151 58.0916 117.344 63.3726 107.699 63.3726C96.4469 63.3726 92.7727 57.4028 92.7727 57.4028L95.758 53.0403C95.758 53.0403 99.6618 57.6324 107.24 57.6324C112.062 57.6324 114.818 54.8771 114.818 50.7442C114.818 41.3303 95.0691 42.9375 95.0691 27.5538C95.0691 18.5992 101.728 13.0886 111.144 13.0886C118.033 13.0886 123.314 16.5327 123.314 16.5327L121.936 21.8137ZM143.752 62.6838H133.189V14.007H143.752V62.6838ZM208.05 62.6838H197.716L197.257 25.9466H197.027L183.249 62.6838H175.441L161.663 25.9466H161.434L161.204 62.6838H154.774L155.463 14.007H168.093L181.871 49.8258H182.101L195.879 14.007H207.59L208.05 62.6838ZM250.073 62.6838H219.302V14.007H248.925V19.288H229.865V35.3605H246.628V40.6415H229.865V57.1732H250.073V62.6838ZM268.673 39.0342L253.977 14.007H267.066L276.251 31.4572H276.481L287.044 14.007H294.393L279.926 36.5085L296 62.6838H282.911L272.348 44.0856H272.118L260.866 62.6838H253.058L268.673 39.0342ZM30.5415 18.8288C24.571 18.8288 19.519 23.6505 19.519 29.8499C19.519 36.0493 24.571 40.8711 30.5415 40.8711H44.3196C47.5345 40.8711 49.8309 43.3968 49.8309 46.3816C49.8309 49.5961 47.3049 51.8922 44.3196 51.8922H30.5415C18.1412 51.8922 8.26687 42.0191 8.26687 29.6203C8.26687 17.2215 18.3708 7.34841 30.5415 7.34841H72.7944C69.8092 2.98587 64.7572 0.000976562 59.0163 0.000976562H16.5337C7.34833 0.000976563 0 7.34841 0 16.5327V57.1732H45.2382C51.2087 57.1732 56.2607 52.3514 56.2607 46.152C56.2607 39.9526 51.2087 35.1309 45.2382 35.1309H31.46C28.2452 35.1309 25.9488 32.6052 25.9488 29.6203C25.9488 26.6354 28.4748 24.1097 31.46 24.1097H45.2382C57.6385 24.1097 67.5128 33.9829 67.5128 46.3816C67.5128 58.7804 57.4088 68.6535 45.2382 68.6535H2.75562C5.74088 73.0161 10.7929 76.001 16.5337 76.001H59.2459C68.4313 76.001 75.7797 68.6535 75.7797 59.4693V18.8288H30.5415Z" fill="#00437E"/>
</svg>
