<svg width="150" height="150" viewBox="0 0 150 150" fill="none" xmlns="http://www.w3.org/2000/svg">
<circle cx="75" cy="75" r="75" fill="url(#paint0_linear)"/>
<path d="M75 102L63.1627 95.6492C59.7881 93.8427 56.966 91.1457 54.9994 87.8476C53.0329 84.5495 51.9959 80.7748 52 76.9286V51.8571C52.001 50.8345 52.4052 49.854 53.1239 49.1309C53.8426 48.4077 54.817 48.001 55.8333 48H94.1667C95.183 48.001 96.1574 48.4077 96.8761 49.1309C97.5948 49.854 97.999 50.8345 98 51.8571V76.9286C98.004 80.7748 96.9671 84.5495 95.0006 87.8476C93.034 91.1457 90.2119 93.8427 86.8373 95.6492L75 102ZM55.8333 51.8571V76.9286C55.8302 80.0756 56.6788 83.1641 58.2881 85.8626C59.8975 88.561 62.2068 90.7676 64.9682 92.2453L75 97.6279L85.0318 92.2472C87.7935 90.7693 90.103 88.5625 91.7124 85.8637C93.3217 83.1649 94.1702 80.076 94.1667 76.9286V51.8571H55.8333Z" fill="white"/>
<path d="M75 92.8913V55.7143H90.3333V76.5525C90.3332 78.997 89.6735 81.3956 88.4245 83.4923C87.1755 85.589 85.3842 87.3051 83.2417 88.4576L75 92.8913Z" fill="white"/>
<defs>
<linearGradient id="paint0_linear" x1="75" y1="0" x2="75" y2="150" gradientUnits="userSpaceOnUse">
<stop stop-color="#285599"/>
<stop offset="1" stop-color="#2273BA"/>
</linearGradient>
</defs>
</svg>
