<svg width="150" height="150" viewBox="0 0 150 150" fill="none" xmlns="http://www.w3.org/2000/svg">
<circle cx="75" cy="75" r="75" fill="url(#paint0_linear)"/>
<path d="M97.434 76.3196C98.442 74.9727 99 73.3224 99 71.6054C99 68.8812 97.494 66.3027 95.07 64.8647C94.446 64.4946 93.7355 64.2998 93.012 64.3005H78.624L78.984 56.8439C79.068 55.0419 78.438 53.3309 77.214 52.0265C76.6133 51.3835 75.8886 50.872 75.0847 50.5234C74.2808 50.1749 73.4147 49.9968 72.54 50C69.42 50 66.66 52.1236 65.832 55.1632L60.678 74.0323H52.92C51.858 74.0323 51 74.8999 51 75.9738V98.0585C51 99.1324 51.858 100 52.92 100H88.998C89.55 100 90.09 99.8908 90.588 99.6724C93.444 98.4407 95.286 95.6195 95.286 92.4888C95.286 91.7243 95.178 90.972 94.962 90.2439C95.97 88.897 96.528 87.2467 96.528 85.5297C96.528 84.7652 96.42 84.0129 96.204 83.2848C97.212 81.9379 97.77 80.2876 97.77 78.5706C97.758 77.8061 97.65 77.0477 97.434 76.3196ZM55.32 95.6316V78.4007H60.18V95.6316H55.32ZM93.504 74.2143L92.19 75.3671L93.024 76.9082C93.2988 77.4158 93.4412 77.9858 93.438 78.5645C93.438 79.5656 93.006 80.5182 92.262 81.1734L90.948 82.3262L91.782 83.8673C92.0568 84.3749 92.1992 84.9449 92.196 85.5236C92.196 86.5247 91.764 87.4773 91.02 88.1325L89.706 89.2853L90.54 90.8264C90.8148 91.334 90.9572 91.904 90.954 92.4827C90.954 93.8418 90.162 95.0674 88.938 95.6255H64.02V78.2065L69.99 56.3342C70.1439 55.7736 70.4744 55.279 70.9313 54.9254C71.3882 54.5718 71.9466 54.3784 72.522 54.3745C72.978 54.3745 73.428 54.508 73.788 54.781C74.382 55.23 74.7 55.9095 74.664 56.6315L74.088 68.6689H92.952C94.02 69.3302 94.68 70.4466 94.68 71.6054C94.68 72.6065 94.248 73.553 93.504 74.2143Z" fill="white"/>
<defs>
<linearGradient id="paint0_linear" x1="75" y1="0" x2="75" y2="150" gradientUnits="userSpaceOnUse">
<stop stop-color="#285599"/>
<stop offset="1" stop-color="#2273BA"/>
</linearGradient>
</defs>
</svg>
