<svg width="150" height="150" viewBox="0 0 150 150" fill="none" xmlns="http://www.w3.org/2000/svg">
<circle cx="75" cy="75" r="75" fill="url(#paint0_linear)"/>
<path d="M88.3437 75.0002C88.3372 72.8992 88.112 70.8046 87.6719 68.7502H93.2969C93.0072 67.8933 92.6573 67.0579 92.25 66.2502H87.0156C86.0316 62.9628 84.5054 59.8628 82.5 57.0783C81.2187 56.5396 79.8828 56.1414 78.5156 55.8908C81.263 58.8428 83.3368 62.356 84.5937 66.1877H76.1719V55.6252H73.8281V66.2033H65.4062C66.6657 62.3646 68.745 58.8458 71.5 55.8908C70.1387 56.1372 68.808 56.5301 67.5312 57.0627C65.5179 59.8355 63.9812 62.9248 62.9844 66.2033H57.7187C57.304 67.0257 56.9489 67.8769 56.6562 68.7502H62.3281C61.8879 70.8046 61.6628 72.8992 61.6562 75.0002C61.6606 77.2983 61.9226 79.5886 62.4375 81.8283H56.9062C57.2295 82.7041 57.6159 83.5553 58.0625 84.3752H63.1094C64.066 87.3686 65.4841 90.1943 67.3125 92.7502C68.6218 93.3118 69.9896 93.7258 71.3906 93.9846C68.8405 91.2029 66.8793 87.9343 65.625 84.3752H73.8437V94.2814H76.1875V84.3752H84.375C83.1164 87.9358 81.1498 91.2046 78.5937 93.9846C80.0013 93.7169 81.3744 93.2923 82.6875 92.7189C84.513 90.1727 85.931 87.3577 86.8906 84.3752H91.8906C92.3351 83.5705 92.7215 82.735 93.0469 81.8752H87.5C88.0394 79.6226 88.3224 77.3163 88.3437 75.0002ZM73.8281 81.8283H64.8594C63.7593 77.5281 63.7111 73.0261 64.7187 68.7033H73.8281V81.8283ZM85.1406 81.8283H76.1719V68.7502H85.2812C85.7301 70.8029 85.9502 72.899 85.9375 75.0002C85.9502 77.3002 85.6826 79.5931 85.1406 81.8283Z" fill="white"/>
<path d="M75 50C70.0555 50 65.222 51.4662 61.1108 54.2133C56.9995 56.9603 53.7952 60.8648 51.903 65.4329C50.0108 70.0011 49.5157 75.0277 50.4804 79.8773C51.445 84.7268 53.826 89.1814 57.3223 92.6777C60.8187 96.174 65.2732 98.555 70.1227 99.5196C74.9723 100.484 79.9989 99.9892 84.5671 98.097C89.1352 96.2048 93.0397 93.0005 95.7867 88.8892C98.5338 84.778 100 79.9445 100 75C100 68.3696 97.3661 62.0107 92.6777 57.3223C87.9893 52.6339 81.6304 50 75 50ZM75 96.875C70.6735 96.875 66.4442 95.592 62.8469 93.1884C59.2496 90.7847 56.4458 87.3683 54.7901 83.3712C53.1345 79.3741 52.7013 74.9757 53.5453 70.7324C54.3894 66.4891 56.4728 62.5913 59.532 59.532C62.5913 56.4728 66.4891 54.3894 70.7324 53.5453C74.9757 52.7013 79.3741 53.1345 83.3712 54.7901C87.3683 56.4458 90.7847 59.2496 93.1884 62.8469C95.5921 66.4442 96.875 70.6735 96.875 75C96.875 80.8016 94.5703 86.3656 90.468 90.4679C86.3656 94.5703 80.8016 96.875 75 96.875Z" fill="white"/>
<defs>
<linearGradient id="paint0_linear" x1="75" y1="0" x2="75" y2="150" gradientUnits="userSpaceOnUse">
<stop stop-color="#285599"/>
<stop offset="1" stop-color="#2273BA"/>
</linearGradient>
</defs>
</svg>
