<svg width="150" height="150" viewBox="0 0 150 150" fill="none" xmlns="http://www.w3.org/2000/svg">
<circle cx="75" cy="75" r="75" fill="url(#paint0_linear)"/>
<path d="M100.255 67.3107L84.0665 64.9383L76.83 50.1444C76.6323 49.7394 76.3072 49.4115 75.9055 49.2122C74.8981 48.7107 73.674 49.1286 73.1703 50.1444L65.9337 64.9383L49.7456 67.3107C49.2993 67.375 48.8912 67.5871 48.5788 67.9086C48.2011 68.3001 47.993 68.8267 48.0002 69.3728C48.0074 69.9189 48.2292 70.4398 48.6171 70.8211L60.3294 82.336L57.5623 98.5957C57.4974 98.9739 57.5389 99.3629 57.6821 99.7186C57.8253 100.074 58.0645 100.382 58.3725 100.608C58.6805 100.833 59.045 100.967 59.4247 100.995C59.8044 101.022 60.1841 100.942 60.5207 100.762L75.0001 93.0858L89.4796 100.762C89.8749 100.975 90.3339 101.045 90.7739 100.968C91.8832 100.775 92.6292 99.7144 92.4379 98.5957L89.6708 82.336L101.383 70.8211C101.702 70.506 101.912 70.0946 101.976 69.6445C102.148 68.5194 101.37 67.4778 100.255 67.3107Z" fill="white"/>
<defs>
<linearGradient id="paint0_linear" x1="75" y1="0" x2="75" y2="150" gradientUnits="userSpaceOnUse">
<stop stop-color="#285599"/>
<stop offset="1" stop-color="#2273BA"/>
</linearGradient>
</defs>
</svg>
