<svg width="50" height="50" viewBox="0 0 50 50" fill="none" xmlns="http://www.w3.org/2000/svg">
<g clip-path="url(#clip0)">
<path d="M47.6109 16.7315C47.6109 13.3735 44.8887 10.6513 41.5307 10.6513C41.371 10.6513 41.2133 10.6594 41.0566 10.6715C41.0566 10.6647 41.0571 10.6581 41.0571 10.6513C41.0571 7.55479 38.5469 5.04453 35.4504 5.04453C34.4787 5.04453 33.5649 5.29189 32.7682 5.72686C31.7437 2.41006 28.6535 0 25.0003 0C21.3471 0 18.257 2.41006 17.2324 5.72686C16.4356 5.29189 15.5219 5.04453 14.5502 5.04453C11.4536 5.04453 8.94346 7.55479 8.94346 10.6513C8.94346 10.658 8.94394 10.6646 8.94394 10.6715C8.7874 10.6594 8.62969 10.6513 8.46992 10.6513C5.11191 10.6513 2.38965 13.3734 2.38965 16.7315C2.38965 19.3031 3.98701 21.5003 6.24297 22.3891C6.09287 22.9512 6.01172 23.5415 6.01172 24.151C6.01172 27.9145 9.0627 30.9654 12.8262 30.9654C14.8192 30.9654 16.6122 30.1096 17.8582 28.7456C19.2364 31.2739 21.9179 32.9896 25.0003 32.9896C28.0827 32.9896 30.7642 31.2739 32.1424 28.7456C33.3885 30.1096 35.1813 30.9654 37.1744 30.9654C40.9379 30.9654 43.9889 27.9146 43.9889 24.151C43.9889 23.5415 43.9077 22.9513 43.7576 22.3891C46.0136 21.5003 47.6109 19.3032 47.6109 16.7315Z" fill="#348021"/>
<path d="M47.6103 16.7315C47.6103 15.4809 47.2322 14.3187 46.5849 13.3523C46.7211 13.848 46.7953 14.3694 46.7953 14.9084C46.7953 17.247 45.425 19.2643 43.4441 20.2045C43.2353 20.3036 43.129 20.5363 43.1747 20.7628C43.2591 21.1823 43.3039 21.616 43.3039 22.0604C43.3039 25.6883 40.3629 28.6292 36.7351 28.6292C35.0357 28.6292 33.4873 27.9837 32.3211 26.9248C32.0918 26.7166 31.7319 26.7682 31.5625 27.0275C30.1635 29.1668 27.7468 30.5805 24.9997 30.5805C22.2526 30.5805 19.8359 29.1668 18.4369 27.0275C18.2674 26.7682 17.9076 26.7166 17.6783 26.9248C16.5121 27.9838 14.9637 28.6292 13.2644 28.6292C9.63652 28.6292 6.69551 25.6882 6.69551 22.0604C6.69551 21.616 6.74023 21.1823 6.82471 20.7628C6.87031 20.5362 6.76406 20.3036 6.55527 20.2044C4.57432 19.2642 3.2041 17.2469 3.2041 14.9083C3.2041 14.3693 3.27832 13.8479 3.41455 13.3522C2.76719 14.3187 2.38916 15.4808 2.38916 16.7314C2.38916 19.303 3.98652 21.5001 6.24248 22.3889C6.0542 23.0942 5.97432 23.8438 6.02725 24.62C6.25732 27.9978 8.98164 30.725 12.3599 30.9496C14.5382 31.0945 16.5153 30.2147 17.8577 28.7452C19.2359 31.2736 21.9174 32.9893 24.9998 32.9893C28.0822 32.9893 30.7637 31.2736 32.1419 28.7452C33.4841 30.2145 35.4608 31.0942 37.6388 30.9496C41.0172 30.7254 43.742 27.9984 43.9724 24.6202C44.0253 23.8439 43.9455 23.0942 43.7571 22.3887C46.0129 21.5002 47.6103 19.3032 47.6103 16.7315Z" fill="#2E701B"/>
<path d="M32.142 28.7455C31.2405 30.3993 29.7812 31.7052 28.0171 32.4108C27.1085 33.9622 26.1127 35.7885 25.4644 37.3484C25.293 37.7611 24.7068 37.7611 24.5353 37.3484C23.8871 35.7885 22.8913 33.9622 21.9827 32.4108C20.2186 31.7052 18.7594 30.3993 17.8578 28.7455C17.1253 29.5473 16.2027 30.1716 15.1626 30.5516C17.0524 34.4213 19.2587 40.3585 20.2189 48.2688C20.339 49.2575 21.1809 50 22.1768 50H27.823C28.8189 50 29.6608 49.2575 29.7808 48.2688C30.7411 40.3585 32.9474 34.4213 34.8372 30.5516C33.7971 30.1717 32.8745 29.5473 32.142 28.7455Z" fill="#98DB7C"/>
<path d="M32.1418 28.7455C31.2403 30.3993 29.7811 31.7051 28.0169 32.4108C27.5395 33.226 27.0387 34.117 26.5762 35.0054L33.9157 32.5591C34.2267 31.8379 34.5357 31.1682 34.8369 30.5516C33.7969 30.1717 32.8743 29.5473 32.1418 28.7455Z" fill="#82D361"/>
<path d="M21.9827 32.4108C20.2186 31.7052 18.7594 30.3993 17.8578 28.7455C17.1253 29.5473 16.2027 30.1716 15.1626 30.5516C15.4085 31.0552 15.6598 31.5944 15.9129 32.1677L23.6204 35.3887C23.1058 34.3751 22.5289 33.3434 21.9827 32.4108Z" fill="#82D361"/>
<path d="M32.4533 13.8446C32.1056 15.5714 30.5805 16.8719 28.7512 16.8719C27.6718 16.8719 26.6983 16.4188 26.0102 15.6927C25.7749 15.4444 25.3736 15.4875 25.2007 15.7825C24.4551 17.0537 23.0745 17.9073 21.4942 17.9073C19.3829 17.9073 17.6287 16.3832 17.2687 14.3755C17.1818 14.7082 17.2335 14.897 17.2335 14.897C17.212 15.071 17.1997 15.2476 17.1997 15.4273C17.1997 17.7991 19.1224 19.7218 21.4941 19.7218C23.3532 19.7218 24.9359 18.5403 25.5336 16.8874C26.1984 17.9666 27.3905 18.6863 28.7511 18.6863C30.8369 18.6863 32.5278 16.9954 32.5278 14.9095C32.5279 14.9096 32.5809 14.4302 32.4533 13.8446Z" fill="#2E701B"/>
</g>
<defs>
<clipPath id="clip0">
<rect width="50" height="50" fill="white"/>
</clipPath>
</defs>
</svg>
