<svg width="31" height="15" viewBox="0 0 31 15" fill="none" xmlns="http://www.w3.org/2000/svg">
<path d="M0.354818 6.64373L0.355906 6.64258L6.67672 0.352254C7.15024 -0.118976 7.91615 -0.117222 8.3875 0.356367C8.85879 0.829895 8.85698 1.5958 8.38345 2.06709L4.13966 6.29032H29.7581C30.4262 6.29032 30.9678 6.83189 30.9678 7.5C30.9678 8.16811 30.4262 8.70968 29.7581 8.70968H4.13972L8.38339 12.9329C8.85692 13.4042 8.85873 14.1701 8.38744 14.6436C7.91609 15.1173 7.15012 15.1189 6.67665 14.6477L0.355846 8.35742L0.354757 8.35627C-0.119013 7.88341 -0.1175 7.11502 0.354818 6.64373Z" fill="#C4C4C4"/>
</svg>
