<svg width="30" height="30" viewBox="0 0 30 30" fill="none" xmlns="http://www.w3.org/2000/svg">
<path d="M29.9815 29.2238L29.2315 26.2238C28.8757 24.7684 27.7969 23.598 26.3753 23.125L20.8752 21.2925C19.534 20.7337 18.9203 18.5738 18.7877 17.7537C19.8097 16.9039 20.4673 15.6947 20.6252 14.375C20.6027 14.1496 20.6559 13.923 20.7765 13.7312C20.9713 13.6824 21.1309 13.5428 21.2052 13.3562C21.5651 12.4848 21.791 11.5639 21.8752 10.625C21.8754 10.5739 21.8691 10.5231 21.8565 10.4738C21.7669 10.1089 21.5524 9.78691 21.2502 9.56373V6.24996C21.2502 4.23621 20.6352 3.40998 19.9877 2.93121C19.864 1.96125 18.8253 0 15.0003 0C11.6067 0.136641 8.88691 2.85645 8.75027 6.25002V9.56379C8.44804 9.78697 8.23353 10.1089 8.144 10.4738C8.13134 10.5232 8.12507 10.5741 8.12525 10.625C8.20939 11.5645 8.43527 12.4857 8.79527 13.3576C8.84941 13.5342 8.99138 13.6701 9.17027 13.7163C9.24029 13.7513 9.37154 13.9326 9.37154 14.3751C9.53039 15.6986 10.1918 16.9105 11.2191 17.7601C11.0878 18.5788 10.4778 20.7376 9.17408 21.2826L3.62531 23.1251C2.20482 23.598 1.1267 24.7672 0.770328 26.2213L0.0203282 29.2213C-0.0645742 29.5559 0.137809 29.896 0.472379 29.9809C0.522359 29.9936 0.573746 30.0001 0.625309 30.0001H29.3753C29.7205 30 30.0002 29.7201 30.0002 29.3749C30.0001 29.3239 29.9938 29.2731 29.9815 29.2238Z" fill="white"/>
</svg>
