<svg width="30" height="30" viewBox="0 0 30 30" fill="none" xmlns="http://www.w3.org/2000/svg">
<path d="M24.6708 22.5625L19.8861 21.366L19.6101 20.2606C21.379 20.0208 23.0946 19.4836 24.6845 18.672C24.8618 18.5657 24.9749 18.3787 24.9868 18.1724C24.9993 17.966 24.9103 17.7664 24.7482 17.6378C24.7258 17.6228 22.4939 15.7794 22.4939 9.39221C22.4939 4.00544 21.2337 1.27398 18.747 1.27398H18.3723C17.5096 0.346921 16.2586 -0.116403 15.0001 0.0250412C12.6533 0.0250412 7.50638 2.38434 7.50638 9.39221C7.50638 15.7794 5.27448 17.6228 5.25826 17.6353C4.9821 17.8419 4.92567 18.2332 5.13221 18.5095C5.18069 18.5743 5.24134 18.6291 5.31072 18.6707C6.89921 19.49 8.61715 20.0292 10.389 20.2644L10.1129 21.3672L5.32951 22.5637C2.20193 23.3419 0.00807757 26.1526 0.0127026 29.3755C0.0127026 29.7204 0.292313 30 0.6372 30H29.3632C29.7081 30 29.9877 29.7204 29.9877 29.3755C29.9928 26.1521 27.7989 23.3407 24.6708 22.5625Z" fill="white"/>
</svg>
