<svg width="20" height="20" viewBox="0 0 20 20" fill="none" xmlns="http://www.w3.org/2000/svg">
<path d="M9.99984 18.3333C5.39746 18.3333 1.6665 14.6024 1.6665 9.99999C1.6665 5.39762 5.39746 1.66666 9.99984 1.66666C14.6022 1.66666 18.3332 5.39762 18.3332 9.99999C18.3281 14.6003 14.6001 18.3283 9.99984 18.3333ZM9.9865 16.6667H9.99984C13.6804 16.663 16.6617 13.6773 16.6598 9.99666C16.658 6.31606 13.6738 3.33333 9.99317 3.33333C6.31257 3.33333 3.32835 6.31606 3.3265 9.99666C3.32466 13.6773 6.30591 16.663 9.9865 16.6667ZM7.09484 12.3867L5.9165 11.2083L10.0415 7.08332L14.1665 11.2083L12.9882 12.3858L10.0415 9.43999L7.09567 12.3867H7.09484Z" fill="#FF003D"/>
</svg>
