<svg width="20" height="20" viewBox="0 0 20 20" fill="none" xmlns="http://www.w3.org/2000/svg">
<path d="M9.99984 18.3333C5.39746 18.3333 1.6665 14.6024 1.6665 9.99999C1.6665 5.39762 5.39746 1.66666 9.99984 1.66666C14.6022 1.66666 18.3332 5.39762 18.3332 9.99999C18.3281 14.6003 14.6001 18.3283 9.99984 18.3333ZM9.99984 3.33332C6.31794 3.33332 3.33317 6.31809 3.33317 9.99999C3.33317 13.6819 6.31794 16.6667 9.99984 16.6667C13.6817 16.6667 16.6665 13.6819 16.6665 9.99999C16.6624 6.31981 13.68 3.33746 9.99984 3.33332ZM9.95817 12.9167L5.83317 8.79166L7.0115 7.61332L9.95817 10.5592L12.9048 7.61332L14.0832 8.79166L9.95817 12.9167Z" fill="#FF003D"/>
</svg>
