<svg width="51" height="50" viewBox="0 0 51 50" fill="none" xmlns="http://www.w3.org/2000/svg">
<path d="M46.9956 16.9899C46.9956 13.7368 44.3534 11.0997 41.0939 11.0997C40.9389 11.0997 40.7858 11.1075 40.6338 11.1192C40.6338 11.1127 40.6343 11.1063 40.6343 11.0997C40.6343 8.1 38.1978 5.66816 35.1921 5.66816C34.249 5.66816 33.362 5.90781 32.5886 6.3292C31.5942 3.11602 28.5948 0.78125 25.0488 0.78125C21.5029 0.78125 18.5035 3.11602 17.509 6.3291C16.7357 5.90781 15.8487 5.66807 14.9055 5.66807C11.8999 5.66807 9.46338 8.0998 9.46338 11.0996C9.46338 11.1062 9.46387 11.1126 9.46387 11.1191C9.31191 11.1074 9.15878 11.0996 9.00379 11.0996C5.74431 11.0996 3.10205 13.7367 3.10205 16.9898C3.10205 19.4812 4.65253 21.6096 6.84225 22.4706C6.69656 23.0152 6.61779 23.587 6.61779 24.1774C6.61779 27.8233 9.57913 30.7789 13.2321 30.7789C15.1667 30.7789 16.907 29.9497 18.1165 28.6284C19.4542 31.0777 22.057 32.7398 25.0488 32.7398C28.0407 32.7398 30.6434 31.0777 31.9812 28.6284C33.1907 29.9498 34.931 30.7789 36.8655 30.7789C40.5185 30.7789 43.4799 27.8233 43.4799 24.1774C43.4799 23.587 43.4011 23.0152 43.2554 22.4706C45.4452 21.6097 46.9956 19.4813 46.9956 16.9899Z" fill="white"/>
<path d="M46.9957 16.9898C46.9957 15.7783 46.6288 14.6525 46.0004 13.7162C46.1327 14.1965 46.2047 14.7015 46.2047 15.2237C46.2047 17.4891 44.8747 19.4434 42.9519 20.3543C42.7492 20.4503 42.646 20.6756 42.6903 20.8952C42.7722 21.3015 42.8157 21.7217 42.8157 22.1522C42.8157 25.6668 39.9611 28.5158 36.4397 28.5158C34.7902 28.5158 33.2873 27.8905 32.1554 26.8646C31.9328 26.6629 31.5835 26.7129 31.419 26.964C30.061 29.0366 27.7153 30.406 25.0488 30.406C22.3824 30.406 20.0367 29.0366 18.6788 26.964C18.5142 26.7129 18.165 26.6629 17.9424 26.8646C16.8104 27.8905 15.3075 28.5158 13.6581 28.5158C10.1368 28.5158 7.28207 25.6668 7.28207 22.1522C7.28207 21.7217 7.32552 21.3015 7.40742 20.8952C7.45164 20.6757 7.34861 20.4503 7.14587 20.3543C5.22308 19.4434 3.89305 17.4891 3.89305 15.2237C3.89305 14.7015 3.96506 14.1964 4.09735 13.7162C3.46898 14.6524 3.10205 15.7783 3.10205 16.9898C3.10205 19.4811 4.65253 21.6095 6.84225 22.4706C6.65947 23.1539 6.58198 23.88 6.63335 24.6319C6.85663 27.9042 9.50105 30.5462 12.7801 30.7638C14.8945 30.9042 16.8135 30.0519 18.1166 28.6284C19.4543 31.0777 22.0571 32.7398 25.0489 32.7398C28.0408 32.7398 30.6435 31.0777 31.9813 28.6284C33.2841 30.0517 35.2028 30.904 37.3168 30.7639C40.596 30.5467 43.2408 27.9048 43.4644 24.6324C43.5158 23.8803 43.4383 23.154 43.2555 22.4706C45.4453 21.6095 46.9957 19.4811 46.9957 16.9898Z" fill="white"/>
<path d="M31.981 28.6283C31.1059 30.2304 29.6896 31.4955 27.9772 32.1791C26.8403 34.1164 25.5628 36.4964 25.0485 38.1955C24.5342 36.4964 23.2567 34.1164 22.1199 32.1791C20.4076 31.4955 18.9912 30.2304 18.1161 28.6283C17.4051 29.4052 16.5096 30.0098 15.5 30.378C17.334 34.126 19.475 39.8762 20.4074 47.5373C20.5241 48.4967 21.34 49.2185 22.3083 49.2185H27.7888C28.7571 49.2185 29.5729 48.4967 29.6897 47.5373C30.6221 39.8762 32.763 34.126 34.5971 30.378C33.5875 30.0098 32.692 29.4051 31.981 28.6283Z" fill="white"/>
<path d="M31.9808 28.6283C31.1058 30.2304 29.6895 31.4955 27.977 32.1791C27.5136 32.9687 27.0275 33.8319 26.5786 34.6926L33.7028 32.3226C34.0045 31.6239 34.3046 30.9753 34.5969 30.3779C33.5874 30.0098 32.6919 29.4051 31.9808 28.6283Z" fill="white"/>
<path d="M22.1204 32.1791C20.4081 31.4955 18.9917 30.2304 18.1166 28.6283C17.4056 29.4052 16.5101 30.0098 15.5005 30.378C15.7391 30.8657 15.9831 31.3882 16.2288 31.9435L23.71 35.0639C23.2104 34.0819 22.6506 33.0825 22.1204 32.1791Z" fill="white"/>
<path d="M32.2833 14.1934C31.9459 15.8661 30.4655 17.126 28.6899 17.126C27.6422 17.126 26.6974 16.6871 26.0294 15.9837C25.801 15.7433 25.4116 15.785 25.2437 16.0707C24.5199 17.3021 23.1799 18.1291 21.646 18.1291C19.5967 18.1291 17.894 16.6526 17.5445 14.7076C17.4602 15.0299 17.5103 15.2129 17.5103 15.2129C17.4895 15.3813 17.4775 15.5525 17.4775 15.7266C17.4775 18.0242 19.3438 19.8868 21.6459 19.8868C23.4504 19.8868 24.9867 18.7423 25.5667 17.141C26.212 18.1865 27.3692 18.8837 28.6898 18.8837C30.7145 18.8837 32.3557 17.2456 32.3557 15.225C32.3558 15.2251 32.4072 14.7607 32.2833 14.1934Z" fill="white"/>
<path d="M47.7738 16.9743C47.7738 13.3929 44.9161 10.465 41.357 10.3427C40.9941 7.27988 38.3766 4.89648 35.2119 4.89648C34.4624 4.89648 33.7181 5.03311 33.0213 5.2957C32.4282 3.88857 31.4556 2.63857 30.2256 1.71865C28.7224 0.594336 26.9323 0 25.0487 0C23.1652 0 21.3751 0.594336 19.8719 1.71865C18.642 2.63857 17.6693 3.88857 17.0762 5.2957C16.3794 5.03311 15.6351 4.89648 14.8856 4.89648C11.7209 4.89648 9.10341 7.27998 8.7405 10.3428C7.7542 10.3772 6.78004 10.6316 5.90939 11.0834C5.55391 11.2679 5.41135 11.7183 5.59618 12.073C5.78102 12.4278 6.23229 12.5698 6.58777 12.3856C7.32847 12.0013 8.13062 11.8064 8.9723 11.8064C9.26134 11.8064 9.56926 11.8768 9.82904 11.7106C10.0465 11.5716 10.1756 11.3203 10.1681 11.0635C10.173 8.47148 12.2874 6.36436 14.8856 6.36436C15.6741 6.36436 16.4543 6.5623 17.1418 6.93691C17.544 7.15615 18.0619 6.94531 18.1967 6.50937C19.13 3.49375 21.8837 1.46768 25.0487 1.46768C28.2138 1.46768 30.9675 3.49375 31.9008 6.50918C32.0356 6.94512 32.5535 7.15596 32.9557 6.93672C33.6431 6.56211 34.4234 6.36416 35.2119 6.36416C37.8101 6.36416 39.9245 8.47119 39.9294 11.0633C39.9217 11.3197 40.0507 11.5724 40.2685 11.7106C40.5285 11.8758 40.8362 11.8063 41.1252 11.8063C43.9804 11.8063 46.3033 14.1247 46.3033 16.9743C46.3033 19.1115 45.0151 20.999 43.0215 21.7829C42.6738 21.9196 42.4842 22.2948 42.5806 22.6551C42.7133 23.1511 42.7806 23.6628 42.7806 24.1759C42.7806 25.642 42.2368 27.0464 41.2496 28.1303C41.0016 28.4024 40.9969 28.8304 41.2403 29.1072C41.5259 29.4322 42.0464 29.4373 42.3378 29.1176C43.5717 27.7629 44.2512 26.008 44.2512 24.1759C44.2512 23.7446 44.2132 23.3143 44.1377 22.8901C46.366 21.7654 47.7738 19.5064 47.7738 16.9743Z" fill="black"/>
<path d="M39.1065 29.6258C38.4025 29.9116 37.6564 30.0564 36.8888 30.0564C35.238 30.0564 33.6521 29.358 32.5376 28.1406C32.2026 27.7743 31.5865 27.8497 31.3492 28.2843C30.0903 30.5894 27.6762 32.0212 25.0489 32.0212C22.4216 32.0212 20.0075 30.5893 18.7486 28.2843C18.5111 27.8495 17.8953 27.7744 17.5602 28.1406C16.4458 29.3581 14.8598 30.0564 13.209 30.0564C9.9602 30.0564 7.31706 27.4183 7.31706 24.1758C7.31706 23.6627 7.38438 23.151 7.51706 22.655C7.61344 22.2948 7.42381 21.9197 7.07616 21.7829C5.08253 20.9991 3.79437 19.1116 3.79437 16.9743C3.79437 15.9457 4.09623 14.9524 4.66726 14.1017C4.89329 13.765 4.80317 13.3091 4.4657 13.0835C4.12842 12.8579 3.67167 12.948 3.44555 13.2847C2.71169 14.3779 2.32373 15.6537 2.32373 16.9743C2.32373 19.5064 3.73165 21.7654 5.95982 22.89C5.88438 23.3141 5.84632 23.7446 5.84632 24.1757C5.84632 28.2276 9.14914 31.524 13.2089 31.524C13.8498 31.524 14.4826 31.4391 15.0926 31.2774C15.8037 32.7861 16.4532 34.3862 17.0258 36.0441C17.1618 36.4376 17.6128 36.6407 17.9992 36.4841C18.356 36.3396 18.5414 35.9284 18.4161 35.5658C17.8397 33.8969 17.1873 32.2834 16.4731 30.7583C17.002 30.4972 17.5009 30.1742 17.9559 29.7917C18.8805 31.1171 20.1484 32.1411 21.6011 32.7722C23.0041 35.1815 23.9524 37.1367 24.345 38.4337C24.437 38.7375 24.7309 38.9553 25.0489 38.9553C25.3669 38.9553 25.6608 38.7375 25.7528 38.4337C26.1454 37.1367 27.0937 35.1816 28.4967 32.7722C29.9494 32.1412 31.2173 31.1171 32.1419 29.7917C32.5968 30.1742 33.0957 30.4971 33.6245 30.7582C31.9369 34.3662 29.8777 40.0275 28.9691 47.4931C28.897 48.0855 28.3921 48.5321 27.7946 48.5321H22.3033C21.7057 48.5321 21.2009 48.0855 21.1287 47.493C20.7479 44.3635 20.1356 41.3055 19.3091 38.4041C19.1981 38.0143 18.791 37.7878 18.4008 37.899C18.0102 38.0098 17.7836 38.4156 17.8946 38.8055C18.7003 41.6337 19.2972 44.6161 19.6689 47.6699C19.8303 48.9983 20.963 49.9999 22.3032 49.9999H27.7945C29.1348 49.9999 30.2674 48.9983 30.4289 47.67C31.3234 40.3203 33.3562 34.778 35.005 31.2775C35.615 31.4392 36.2479 31.5241 36.8888 31.5241C37.8473 31.5241 38.7799 31.3428 39.6605 30.9853C40.0366 30.8326 40.2176 30.4045 40.0646 30.029C39.9116 29.6536 39.4828 29.4731 39.1065 29.6258ZM25.0489 36.1773C24.6804 35.3526 24.2069 34.4155 23.6316 33.3714C24.0956 33.4483 24.5691 33.4888 25.0489 33.4888C25.5286 33.4888 26.0022 33.4483 26.4662 33.3714C25.8909 34.4155 25.4174 35.3525 25.0489 36.1773Z" fill="black"/>
<path d="M17.5858 14.4652C17.1823 14.4151 16.8157 14.7014 16.7659 15.1035C16.7405 15.3095 16.7275 15.5129 16.7275 15.7081C16.7275 18.4113 18.931 20.6105 21.6394 20.6105C23.2923 20.6105 24.8132 19.775 25.7128 18.4469C26.5147 19.1861 27.5689 19.6054 28.6971 19.6054C31.1278 19.6054 33.1055 17.6317 33.1055 15.2056C33.1055 15.1926 33.1052 15.1797 33.1049 15.176C33.0951 14.7709 32.7603 14.4546 32.3522 14.4598C31.9463 14.4695 31.625 14.8057 31.6346 15.211L31.6348 15.2156C31.6295 16.8279 30.3137 18.1377 28.697 18.1377C27.6696 18.1377 26.7339 17.6155 26.1938 16.7406C25.8772 16.2275 25.0813 16.31 24.8762 16.876C24.3851 18.2318 23.0843 19.1428 21.6393 19.1428C19.7418 19.1428 18.1981 17.6021 18.1981 15.7082C18.1981 15.5709 18.207 15.432 18.2254 15.2835C18.2752 14.8812 17.9887 14.5149 17.5858 14.4652Z" fill="black"/>
</svg>
