<svg width="30" height="30" viewBox="0 0 30 30" fill="none" xmlns="http://www.w3.org/2000/svg">
<circle cx="15" cy="15" r="15" fill="#FF003D"/>
<path d="M13.8672 17.6713C13.8672 16.851 13.9668 16.1976 14.166 15.7113C14.3652 15.225 14.7285 14.7474 15.2559 14.2787C15.7891 13.8041 16.1436 13.4203 16.3193 13.1273C16.4951 12.8285 16.583 12.515 16.583 12.1869C16.583 11.1967 16.126 10.7015 15.2119 10.7015C14.7783 10.7015 14.4297 10.8363 14.166 11.1058C13.9082 11.3695 13.7734 11.7357 13.7617 12.2045H11.2129C11.2246 11.0853 11.585 10.2094 12.2939 9.57654C13.0088 8.94373 13.9814 8.62732 15.2119 8.62732C16.4541 8.62732 17.418 8.92908 18.1035 9.53259C18.7891 10.1302 19.1318 10.9769 19.1318 12.0726C19.1318 12.5707 19.0205 13.0424 18.7979 13.4877C18.5752 13.9271 18.1855 14.4164 17.6289 14.9554L16.917 15.6322C16.4717 16.0599 16.2168 16.5609 16.1523 17.1351L16.1172 17.6713H13.8672ZM13.6123 20.3695C13.6123 19.9769 13.7441 19.6547 14.0078 19.4027C14.2773 19.1449 14.6201 19.016 15.0361 19.016C15.4521 19.016 15.792 19.1449 16.0557 19.4027C16.3252 19.6547 16.46 19.9769 16.46 20.3695C16.46 20.7562 16.3281 21.0756 16.0645 21.3275C15.8066 21.5795 15.4639 21.7054 15.0361 21.7054C14.6084 21.7054 14.2627 21.5795 13.999 21.3275C13.7412 21.0756 13.6123 20.7562 13.6123 20.3695Z" fill="white"/>
</svg>
