<svg width="50" height="50" viewBox="0 0 50 50" fill="none" xmlns="http://www.w3.org/2000/svg">
<g clip-path="url(#clip0)">
<path d="M50 26.1917C50 33.2012 45.8439 41.0595 38.8042 42.7265C33.1345 44.0693 31.4278 49.9378 25 49.9378C17.0559 49.9378 13.3472 43.8427 8.76808 38.3556C5.38864 34.306 0 35.519 0 26.1917C0 16.5512 8.12683 14.9769 11.8679 11.5715C16.256 7.57713 13.8161 0.0976562 25 0.0976562C34.9369 0.0976562 36.5864 5.64423 41.172 10.778C44.87 14.9178 50 15.2115 50 26.1917Z" fill="#EFEFEF"/>
<path d="M41.1719 10.778C36.5862 5.64423 34.9368 0.0976562 24.9998 0.0976562C23.9409 0.0976562 23.0048 0.164795 22.1728 0.289917C29.5229 1.30844 31.2781 6.20689 35.3613 10.778C39.0593 14.9178 44.1893 15.2115 44.1893 26.1917C44.1893 33.2012 40.0332 41.0595 32.9935 42.7265C28.1767 43.8671 26.2198 48.2731 21.7993 49.5735C22.7877 49.8089 23.8493 49.9374 24.9998 49.9374C31.4276 49.9374 33.1343 44.0689 38.8041 42.7265C45.8437 41.0595 49.9998 33.2012 49.9998 26.1917C49.9998 15.2115 44.8698 14.9181 41.1719 10.778Z" fill="#E2E2E2"/>
<path d="M39.3827 26.3C39.3827 31.6421 35.0522 35.9725 29.7101 35.9725C24.3684 35.9725 20.0376 31.6421 20.0376 26.3C20.0376 20.9583 24.3684 16.6274 29.7101 16.6274C35.0522 16.6274 39.3827 20.9583 39.3827 26.3Z" fill="#FCCF3F"/>
<path d="M34.2083 17.7357C34.9155 19.0796 35.3165 20.6101 35.3165 22.234C35.3165 27.5761 30.986 31.9066 25.6439 31.9066C24.02 31.9066 22.4899 31.5056 21.146 30.7984C22.765 33.8749 25.9922 35.9726 29.7104 35.9726C35.0521 35.9726 39.3829 31.6422 39.3829 26.3001C39.3825 22.5823 37.2848 19.3551 34.2083 17.7357Z" fill="#EFA335"/>
<path d="M25.4432 22.6395C23.7385 23.9392 22.7607 25.9125 22.7607 28.0537C22.7607 28.4581 23.0884 28.7861 23.4932 28.7861C23.8975 28.7861 24.2256 28.4581 24.2256 28.0537C24.2256 26.3733 24.9931 24.8245 26.3313 23.8045C26.6529 23.5588 26.7151 23.0995 26.4698 22.7776C26.2245 22.456 25.7648 22.3942 25.4432 22.6395Z" fill="#FFDD88"/>
</g>
<defs>
<clipPath id="clip0">
<rect width="50" height="50" fill="white"/>
</clipPath>
</defs>
</svg>
