<svg width="30" height="30" viewBox="0 0 30 30" fill="none" xmlns="http://www.w3.org/2000/svg">
<path d="M15 30C23.2843 30 30 23.2843 30 15C30 6.71573 23.2843 0 15 0C6.71573 0 0 6.71573 0 15C0 23.2843 6.71573 30 15 30Z" fill="#2CC47F"/>
<path d="M30 15C30 14.3845 29.9629 13.7777 29.8909 13.1817L25.4883 8.77905L4.51172 22.0956L12.1447 29.7286C13.069 29.9067 14.0237 30 15 30C23.2843 30 30 23.2843 30 15Z" fill="#06B26B"/>
<path d="M6.34842 7.96802H23.6792L23.9126 22.7492H6.08768L5.28418 9.92112L6.34842 7.96802Z" fill="white"/>
<path d="M23.679 7.96802H15V22.7492H23.9125L24.0298 10.3507L23.679 7.96802Z" fill="#E9EDF5"/>
<path d="M23.9123 22.7492V10.4518C23.9123 10.3564 23.8603 10.2672 23.7754 10.2238C23.6849 10.1775 23.597 10.1841 23.5144 10.2436L14.9999 17.3918L6.48537 10.2436C6.40281 10.1841 6.31492 10.1775 6.22434 10.2238C6.13943 10.2671 6.0874 10.3564 6.0874 10.4517V22.7492C4.8577 22.7492 3.86084 21.7524 3.86084 20.5227V10.4475C3.86084 9.51326 4.37734 8.66828 5.20879 8.24231C6.04029 7.81633 7.02777 7.89068 7.78604 8.43643L14.9999 14.6485L22.2137 8.43643C22.9806 7.88447 23.982 7.81469 24.8192 8.25701C25.6414 8.69137 26.1389 9.56254 26.1389 10.4924V20.5227C26.1389 21.7523 25.142 22.7492 23.9123 22.7492Z" fill="#FF583E"/>
<path d="M24.8194 8.25697C23.9822 7.8147 22.9808 7.88449 22.2139 8.43638L15 14.6423V17.3858L23.5145 10.2435C23.5971 10.1841 23.685 10.1774 23.7755 10.2237C23.8604 10.2671 23.9125 10.3563 23.9125 10.4517V22.7491C25.1422 22.7491 26.139 21.7523 26.139 20.5226V10.4924C26.139 9.5625 25.6415 8.69132 24.8194 8.25697Z" fill="#F92814"/>
</svg>
