<svg width="150" height="150" viewBox="0 0 150 150" fill="none" xmlns="http://www.w3.org/2000/svg">
<path d="M107.812 24.6094C106.516 24.6094 105.469 23.5617 105.469 22.2656C105.469 13.2211 98.107 5.85938 89.0625 5.85938C80.018 5.85938 72.6562 13.2211 72.6562 22.2656C72.6562 23.5617 71.6086 24.6094 70.3125 24.6094C69.0164 24.6094 67.9688 23.5617 67.9688 22.2656C67.9688 10.6336 77.4305 1.17188 89.0625 1.17188C100.695 1.17188 110.156 10.6336 110.156 22.2656C110.156 23.5617 109.109 24.6094 107.812 24.6094Z" fill="#545C66"/>
<path d="M70.3125 33.9844C69.0164 33.9844 67.9688 32.9367 67.9688 31.6406V22.2656C67.9688 20.9695 69.0164 19.9219 70.3125 19.9219C71.6086 19.9219 72.6562 20.9695 72.6562 22.2656V31.6406C72.6562 32.9367 71.6086 33.9844 70.3125 33.9844Z" fill="#545C66"/>
<path d="M107.812 33.9844C106.516 33.9844 105.469 32.9367 105.469 31.6406V22.2656C105.469 20.9695 106.516 19.9219 107.812 19.9219C109.109 19.9219 110.156 20.9695 110.156 22.2656V31.6406C110.156 32.9367 109.109 33.9844 107.812 33.9844Z" fill="#545C66"/>
<path d="M140.625 148.828H112.5L126.562 137.109L140.625 148.828Z" fill="#E29F33"/>
<path d="M140.625 31.6406V148.828L126.562 137.109V31.6406H140.625Z" fill="#EDAB37"/>
<path d="M126.562 31.6406V137.109L112.5 148.828V31.6406H126.562Z" fill="#F6BB42"/>
<path d="M53.9297 92.5781C56.5102 92.5781 58.6172 90.4922 58.6172 87.8906V83.2031H51.5859H44.5312H37.5V87.8906C37.5 90.4922 39.6094 92.5781 42.1875 92.5781H44.5312V131.25C44.5312 133.195 46.125 134.766 48.0703 134.766C49.9922 134.766 51.5859 133.195 51.5859 131.25V92.5781H53.9297ZM112.5 31.6406V148.828H9.375V31.6406H42.1875H70.3125H79.6875H107.812H112.5ZM86.7188 104.297V80.8359C86.7188 71.7656 79.3828 64.4297 70.3125 64.4297V64.4531V104.297V131.25C70.3125 133.195 71.8828 134.766 73.8281 134.766C75.7734 134.766 77.3438 133.195 77.3438 131.25V104.297H86.7188Z" fill="#FFCE54"/>
<path d="M79.6875 24.6094C78.3914 24.6094 77.3438 23.5617 77.3438 22.2656C77.3438 13.2211 69.982 5.85938 60.9375 5.85938C51.893 5.85938 44.5312 13.2211 44.5312 22.2656C44.5312 23.5617 43.4836 24.6094 42.1875 24.6094C40.8914 24.6094 39.8438 23.5617 39.8438 22.2656C39.8438 10.6336 49.3055 1.17188 60.9375 1.17188C72.5695 1.17188 82.0312 10.6336 82.0312 22.2656C82.0312 23.5617 80.9836 24.6094 79.6875 24.6094Z" fill="#656D78"/>
<path d="M42.1875 50.3906C40.8914 50.3906 39.8438 49.343 39.8438 48.0469V22.2656C39.8438 20.9695 40.8914 19.9219 42.1875 19.9219C43.4836 19.9219 44.5312 20.9695 44.5312 22.2656V48.0469C44.5312 49.343 43.4836 50.3906 42.1875 50.3906Z" fill="#656D78"/>
<path d="M79.6875 50.3906C78.3914 50.3906 77.3438 49.343 77.3438 48.0469V22.2656C77.3438 20.9695 78.3914 19.9219 79.6875 19.9219C80.9836 19.9219 82.0312 20.9695 82.0312 22.2656V48.0469C82.0312 49.343 80.9836 50.3906 79.6875 50.3906Z" fill="#656D78"/>
<path d="M37.5093 90.2411C36.2132 90.2411 35.1655 89.1935 35.1655 87.8974V64.4458C35.1655 63.1497 36.2132 62.1021 37.5093 62.1021C38.8054 62.1021 39.853 63.1497 39.853 64.4458V87.8974C39.853 89.1935 38.8054 90.2411 37.5093 90.2411Z" fill="#545C66"/>
<path d="M58.6104 90.2411C57.3143 90.2411 56.2666 89.1935 56.2666 87.8974V64.4458C56.2666 63.1497 57.3143 62.1021 58.6104 62.1021C59.9064 62.1021 60.9541 63.1497 60.9541 64.4458V87.8974C60.9541 89.1935 59.9064 90.2411 58.6104 90.2411Z" fill="#545C66"/>
<path d="M44.5405 85.5489C43.2444 85.5489 42.1968 84.5013 42.1968 83.2052V64.4458C42.1968 63.1497 43.2444 62.1021 44.5405 62.1021C45.8366 62.1021 46.8843 63.1497 46.8843 64.4458V83.2052C46.8843 84.5013 45.8366 85.5489 44.5405 85.5489Z" fill="#545C66"/>
<path d="M51.5791 85.5489C50.283 85.5489 49.2354 84.5013 49.2354 83.2052V64.4458C49.2354 63.1497 50.283 62.1021 51.5791 62.1021C52.8752 62.1021 53.9229 63.1497 53.9229 64.4458V83.2052C53.9229 84.5013 52.8752 85.5489 51.5791 85.5489Z" fill="#545C66"/>
<path d="M52.7578 91.4062H43.3594V131.25C43.3594 133.835 45.4711 135.938 48.0703 135.938C50.6555 135.938 52.7578 133.835 52.7578 131.25V91.4062Z" fill="#545C66"/>
<path d="M77.3438 103.125H67.9688V131.25C67.9688 133.835 70.0711 135.938 72.6562 135.938C75.2414 135.938 77.3438 133.835 77.3438 131.25V103.125Z" fill="#545C66"/>
<path d="M58.6172 80.8594H37.5C36.2039 80.8594 35.1562 81.907 35.1562 83.2031V87.8906C35.1562 91.7672 38.3109 94.9219 42.1875 94.9219H53.9297C57.8063 94.9219 60.9609 91.7672 60.9609 87.8906V83.2031C60.9609 81.907 59.9133 80.8594 58.6172 80.8594Z" fill="#656D78"/>
<path d="M70.3125 62.0859C69.0164 62.0859 67.9688 63.157 67.9688 64.4531V104.297C67.9688 105.593 69.0164 106.641 70.3125 106.641H86.7188C88.0148 106.641 89.0625 105.593 89.0625 104.297V80.8359C89.0625 70.4977 80.6508 62.0859 70.3125 62.0859Z" fill="#656D78"/>
</svg>
