<svg width="150" height="150" viewBox="0 0 150 150" fill="none" xmlns="http://www.w3.org/2000/svg">
<path d="M75 50.395C78.8906 50.395 82.0312 53.5591 82.0312 57.4263C82.0312 61.3169 78.9141 64.4294 75.0234 64.4575H75C71.1352 64.4575 67.9688 61.3169 67.9688 57.4263C67.9688 53.5591 71.1352 50.395 75 50.395Z" fill="#AAB2BD"/>
<path d="M11.7188 137.109H138.281H140.625V141.797C140.625 145.688 137.484 148.828 133.594 148.828H16.4062C12.5156 148.828 9.375 145.688 9.375 141.797V137.109H11.7188Z" fill="#CCD1D9"/>
<path d="M138.305 125.414H138.281V137.109H11.7188V125.414C11.7188 90.4687 40.0547 62.1328 75 62.1094H75.0234C109.995 62.1328 138.305 90.4687 138.305 125.414Z" fill="#CCD1D9"/>
<path d="M75.0237 62.1094H75.0003C73.0269 62.1141 71.0769 62.2148 69.1479 62.393C101.367 65.3695 126.575 92.4445 126.575 125.414H126.551V137.109H138.282V125.414H138.305C138.305 90.4687 109.995 62.1328 75.0237 62.1094Z" fill="#AAB2BD"/>
<path d="M114.846 52.7578C114.846 54.0492 113.791 55.1016 112.502 55.1016H103.123C101.833 55.1016 100.779 54.0492 100.779 52.7578V34.0078C100.779 32.7211 101.833 31.6641 103.123 31.6641H112.502C113.791 31.6641 114.846 32.7211 114.846 34.0078V52.7578Z" fill="#656D78"/>
<path d="M133.594 34.0078C136.195 34.0078 138.281 36.0961 138.281 38.6953V50.4141C138.281 52.9922 136.195 55.1016 133.594 55.1016H119.531L117.188 52.7578H114.846V34.0078H119.531L121.875 25.8047C122.555 23.4375 123.445 22.2891 125.391 22.2891C127.336 22.2891 128.906 23.8594 128.906 25.8047V34.0078H133.594Z" fill="#EAC6BB"/>
<path d="M90.3985 4.5375C88.2399 2.36719 85.3595 1.17188 82.2845 1.17188C79.5985 1.17188 77.0556 2.08359 75.0048 3.76172C72.9563 2.08359 70.411 1.17188 67.7251 1.17188C64.6501 1.17188 61.7696 2.36719 59.6204 4.53281C57.4501 6.69375 56.2524 9.57656 56.2524 12.6445C56.2524 15.7172 57.4501 18.5953 59.6181 20.7563L73.3454 34.4836C73.786 34.9242 74.3813 35.1703 75.0024 35.1703C75.6259 35.1703 76.2212 34.9242 76.6595 34.4836L89.5642 21.5695L90.3915 20.7586C92.5618 18.593 93.7571 15.7148 93.7571 12.6422C93.7571 9.57656 92.5618 6.69141 90.3985 4.5375Z" fill="#ED5565"/>
<path d="M35.1606 26.9624C26.1161 26.9624 18.7544 34.3241 18.7544 43.3687C18.7544 52.4132 26.1161 59.7749 35.1606 59.7749C44.2052 59.7749 51.5669 52.4132 51.5669 43.3687C51.5669 34.3241 44.2052 26.9624 35.1606 26.9624Z" fill="#5D9CEC"/>
<path d="M35.1606 50.3999C33.8646 50.3999 32.8169 49.3522 32.8169 48.0562V38.6812C32.8169 37.3851 33.8646 36.3374 35.1606 36.3374C36.4567 36.3374 37.5044 37.3851 37.5044 38.6812V48.0562C37.5044 49.3522 36.4567 50.3999 35.1606 50.3999Z" fill="#4A89DC"/>
<path d="M39.8481 45.7124H30.4731C29.1771 45.7124 28.1294 44.6647 28.1294 43.3687C28.1294 42.0726 29.1771 41.0249 30.4731 41.0249H39.8481C41.1442 41.0249 42.1919 42.0726 42.1919 43.3687C42.1919 44.6647 41.1442 45.7124 39.8481 45.7124Z" fill="#4A89DC"/>
<path d="M142.967 139.453H7.03369C5.7376 139.453 4.68994 138.405 4.68994 137.109C4.68994 135.813 5.7376 134.766 7.03369 134.766H142.967C144.263 134.766 145.31 135.813 145.31 137.109C145.31 138.405 144.263 139.453 142.967 139.453Z" fill="#E6E9ED"/>
</svg>
