<svg width="150" height="150" viewBox="0 0 150 150" fill="none" xmlns="http://www.w3.org/2000/svg">
<path d="M52.7388 14.0648C51.4427 14.0648 50.395 13.0172 50.395 11.7211V9.37734C50.395 8.08125 51.4427 4.6875 52.7388 4.6875C54.0349 4.6875 55.0825 8.08125 55.0825 9.37734V11.7211C55.0825 13.0172 54.0349 14.0648 52.7388 14.0648Z" fill="#DA4453"/>
<path d="M83.2075 107.812V145.312H3.52002C2.2333 145.312 1.17627 144.26 1.17627 142.969V126.562C1.17627 116.203 9.56689 107.812 19.9263 107.812H36.3325L45.7075 112.5L52.7388 110.156L59.77 112.5L69.145 107.812H83.2075Z" fill="#ED5565"/>
<path d="M134.78 83.2055C133.484 83.2055 132.436 82.1578 132.436 80.8617C132.436 75.0469 127.706 70.3125 121.889 70.3125C116.077 70.3125 111.342 75.0469 111.342 80.8617C111.342 82.1578 110.295 83.2055 108.999 83.2055C107.702 83.2055 106.655 82.1578 106.655 80.8617C106.655 72.4594 113.489 65.625 121.889 65.625C130.289 65.625 137.124 72.4594 137.124 80.8617C137.124 82.1578 136.076 83.2055 134.78 83.2055Z" fill="#CCD1D9"/>
<path d="M108.999 93.7477C107.702 93.7477 106.655 92.7001 106.655 91.404V80.8618C106.655 79.5657 107.702 78.5181 108.999 78.5181C110.295 78.5181 111.342 79.5657 111.342 80.8618V91.404C111.342 92.7001 110.295 93.7477 108.999 93.7477Z" fill="#CCD1D9"/>
<path d="M134.78 93.7477C133.484 93.7477 132.436 92.7001 132.436 91.404V80.8618C132.436 79.5657 133.484 78.5181 134.78 78.5181C136.076 78.5181 137.124 79.5657 137.124 80.8618V91.404C137.124 92.7001 136.076 93.7477 134.78 93.7477Z" fill="#CCD1D9"/>
<path d="M146.48 89.0601H92.5737C91.2776 89.0601 90.23 90.1077 90.23 91.4038V142.966C90.23 144.262 91.2776 145.31 92.5737 145.31H146.48C147.776 145.31 148.824 144.262 148.824 142.966V91.4038C148.824 90.1077 147.776 89.0601 146.48 89.0601Z" fill="#F6BB42"/>
<path d="M125.395 83.2055C124.099 83.2055 123.051 82.1578 123.051 80.8617C123.051 75.0469 118.322 70.3125 112.504 70.3125C106.692 70.3125 101.958 75.0469 101.958 80.8617C101.958 82.1578 100.91 83.2055 99.6138 83.2055C98.3177 83.2055 97.27 82.1578 97.27 80.8617C97.27 72.4594 104.104 65.625 112.504 65.625C120.904 65.625 127.739 72.4594 127.739 80.8617C127.739 82.1578 126.691 83.2055 125.395 83.2055Z" fill="#E6E9ED"/>
<path d="M99.6138 93.7477C98.3177 93.7477 97.27 92.7001 97.27 91.404V80.8618C97.27 79.5657 98.3177 78.5181 99.6138 78.5181C100.91 78.5181 101.958 79.5657 101.958 80.8618V91.404C101.958 92.7001 100.91 93.7477 99.6138 93.7477Z" fill="#E6E9ED"/>
<path d="M125.395 93.7477C124.099 93.7477 123.051 92.7001 123.051 91.404V80.8618C123.051 79.5657 124.099 78.5181 125.395 78.5181C126.691 78.5181 127.739 79.5657 127.739 80.8618V91.404C127.739 92.7001 126.691 93.7477 125.395 93.7477Z" fill="#E6E9ED"/>
<path d="M92.5825 53.9062H87.895H17.5825H12.895C12.895 53.9062 14.1864 52.5 17.5825 50.7656C22.9286 48.0469 33.5669 44.5312 52.7388 44.5312C71.9106 44.5312 82.5536 48.0469 87.895 50.7656C91.2958 52.5 92.5825 53.9062 92.5825 53.9062Z" fill="#656D78"/>
<path d="M87.895 53.9062V65.625C87.895 79.1039 80.3013 90.8227 69.145 96.7289C64.2466 99.307 58.6708 100.781 52.7388 100.781C46.8114 100.781 41.231 99.3047 36.3325 96.7289C25.1763 90.8203 17.5825 79.1016 17.5825 65.625V53.9062H87.895Z" fill="#EAC6BB"/>
<path d="M80.8591 53.9062V65.625C80.8591 79.1039 73.27 90.8227 62.1091 96.7289C58.195 98.7891 53.8427 100.13 49.2231 100.591C50.381 100.706 51.5481 100.781 52.7388 100.781C58.6708 100.781 64.2466 99.3047 69.145 96.7289C80.3013 90.8203 87.895 79.1016 87.895 65.625V53.9062H80.8591Z" fill="#D3B1A9"/>
<path d="M87.895 44.5312V50.7656C82.5536 48.0469 71.9106 44.5312 52.7388 44.5312C33.5669 44.5312 22.9286 48.0469 17.5825 50.7656V44.5312C17.5825 25.1039 33.3114 9.375 52.7388 9.375C72.1474 9.375 87.895 25.1039 87.895 44.5312ZM59.77 28.125C59.77 24.2344 56.606 21.0938 52.7388 21.0938C48.8481 21.0938 45.7075 24.2344 45.7075 28.125C45.7075 31.9922 48.8481 35.1562 52.7388 35.1562C56.606 35.1562 59.77 31.9922 59.77 28.125Z" fill="#ED5565"/>
<path d="M52.7391 9.375C51.5531 9.375 50.3766 9.43828 49.2188 9.55313C66.9797 11.3156 80.8594 26.2922 80.8594 44.5312V48.0047C83.8383 48.9117 86.1562 49.8797 87.8953 50.7656V44.5312C87.8953 25.1039 72.1477 9.375 52.7391 9.375Z" fill="#DA4453"/>
<path d="M69.145 96.729V107.813L59.77 112.5L52.7388 110.156L45.7075 112.5L36.3325 107.813V96.729C41.231 99.3071 46.8114 100.781 52.7388 100.781C58.6708 100.784 64.2466 99.3071 69.145 96.729Z" fill="#FFCE54"/>
<path d="M52.7388 21.0938C56.606 21.0938 59.77 24.2344 59.77 28.125C59.77 31.9922 56.606 35.1562 52.7388 35.1562C48.8481 35.1562 45.7075 31.9922 45.7075 28.125C45.7075 24.2344 48.8481 21.0938 52.7388 21.0938Z" fill="#FFCE54"/>
<path d="M52.8119 124.216C51.5158 124.216 50.4541 123.169 50.4541 121.873C50.4541 120.576 51.4924 119.529 52.7838 119.529H52.8119C54.1033 119.529 55.1557 120.576 55.1557 121.873C55.1557 123.169 54.1033 124.216 52.8119 124.216Z" fill="#DA4453"/>
<path d="M137.109 89.0601H83.2031C81.907 89.0601 80.8594 90.1077 80.8594 91.4038V142.966C80.8594 144.262 81.907 145.31 83.2031 145.31H137.109C138.405 145.31 139.453 144.262 139.453 142.966V91.4038C139.453 90.1077 138.405 89.0601 137.109 89.0601Z" fill="#FFCE54"/>
<path d="M103.125 135.947C101.829 135.947 100.781 134.9 100.781 133.604V114.854C100.781 113.557 101.829 112.51 103.125 112.51C104.421 112.51 105.469 113.557 105.469 114.854V133.604C105.469 134.9 104.421 135.947 103.125 135.947Z" fill="#545C66"/>
<path d="M97.2656 114.851C95.9695 114.851 94.9219 113.803 94.9219 112.507V103.127C94.9219 101.831 95.9695 100.784 97.2656 100.784C98.5617 100.784 99.6094 101.831 99.6094 103.127V112.507C99.6094 113.803 98.5617 114.851 97.2656 114.851Z" fill="#545C66"/>
<path d="M108.989 114.851C107.693 114.851 106.645 113.803 106.645 112.507V103.127C106.645 101.831 107.693 100.784 108.989 100.784C110.285 100.784 111.333 101.831 111.333 103.127V112.507C111.333 113.803 110.285 114.851 108.989 114.851Z" fill="#545C66"/>
<path d="M116.016 135.947C114.72 135.947 113.672 134.899 113.672 133.603V103.121C113.672 101.825 114.72 100.777 116.016 100.777C117.312 100.777 118.359 101.825 118.359 103.121V133.603C118.359 134.899 117.312 135.947 116.016 135.947Z" fill="#545C66"/>
<path d="M116.001 100.777C114.705 100.777 113.658 101.825 113.658 103.121V119.529H113.672C113.676 120.823 114.719 121.871 116.016 121.871H123.047C124.343 121.871 125.391 120.823 125.391 119.527V110.166C125.391 104.989 121.179 100.777 116.001 100.777Z" fill="#656D78"/>
<path d="M103.125 110.154C101.829 110.154 100.781 109.106 100.781 107.81V103.127C100.781 101.831 101.829 100.784 103.125 100.784C104.421 100.784 105.469 101.831 105.469 103.127V107.81C105.469 109.106 104.421 110.154 103.125 110.154Z" fill="#545C66"/>
<path d="M108.989 107.815H97.2656C95.9695 107.815 94.9219 108.863 94.9219 110.159V112.5V112.512C94.9219 115.095 97.0195 117.192 99.6 117.192H106.617C106.627 117.192 106.631 117.197 106.641 117.197C109.228 117.197 111.333 115.092 111.333 112.505V110.159C111.333 108.863 110.285 107.815 108.989 107.815Z" fill="#656D78"/>
</svg>
