<svg width="150" height="150" viewBox="0 0 150 150" fill="none" xmlns="http://www.w3.org/2000/svg">
<path d="M35.1421 16.4062H114.83V119.531H35.1421V16.4062Z" fill="#5D9CEC"/>
<path d="M35.1421 16.4062H39.8155V119.531H35.1421V16.4062Z" fill="#656D78"/>
<path d="M110.147 16.4062H114.825V119.531H110.147V16.4062Z" fill="#656D78"/>
<path d="M65.6718 49.2188C65.6718 47.9297 64.6147 46.875 63.328 46.875H11.7046C10.4132 46.875 9.36084 47.9297 9.36084 49.2188V98.4375C9.36084 99.7266 10.4132 100.781 11.7046 100.781H35.1421H53.8921L65.6108 107.812V98.7305C65.6249 98.6297 65.6718 98.5406 65.6718 98.4375V49.2188Z" fill="#FFCE54"/>
<path d="M84.3281 30.4688C84.3281 29.1797 85.3852 28.125 86.6719 28.125H138.293C139.584 28.125 140.637 29.1797 140.637 30.4688V67.9641C140.637 69.2508 139.584 70.3055 138.293 70.3055H114.855H96.1055L84.3867 77.3344V68.2547C84.375 68.1539 84.3281 68.0648 84.3281 67.9641V30.4688Z" fill="#FFCE54"/>
<path d="M114.83 124.219V133.594C114.83 141.328 108.499 147.656 100.767 147.656H49.2046C41.4679 147.656 35.1421 141.328 35.1421 133.594V124.219C35.1421 131.953 41.4679 138.281 49.2046 138.281H74.9858H100.767C108.499 138.281 114.83 131.953 114.83 124.219Z" fill="#545C66"/>
<path d="M74.9858 124.219C77.564 124.219 79.6733 126.328 79.6733 128.906C79.6733 131.508 77.564 133.594 74.9858 133.594C72.4077 133.594 70.2983 131.508 70.2983 128.906C70.2983 126.328 72.4101 124.219 74.9858 124.219Z" fill="#AAB2BD"/>
<path d="M74.9858 138.281H49.2046C41.4679 138.281 35.1421 131.953 35.1421 124.219V119.531H74.9858V124.219C72.4077 124.219 70.2983 126.328 70.2983 128.906C70.2983 131.508 72.4077 133.594 74.9858 133.594V138.281Z" fill="#656D78"/>
<path d="M114.83 119.531V124.219C114.83 131.953 108.499 138.281 100.767 138.281H74.9858V133.594C77.564 133.594 79.6733 131.508 79.6733 128.906C79.6733 126.328 77.564 124.219 74.9858 124.219V119.531H114.83Z" fill="#656D78"/>
<path d="M114.83 16.4062H35.1421V14.0625C35.1421 7.59375 40.3921 2.34375 46.8608 2.34375H103.111C109.58 2.34375 114.83 7.59375 114.83 14.0625V16.4062Z" fill="#656D78"/>
<path d="M68.0226 11.7188C66.7265 11.7188 65.6694 10.6711 65.6694 9.375C65.6694 8.07891 66.703 7.03125 67.9991 7.03125H68.0226C69.3187 7.03125 70.3663 8.07891 70.3663 9.375C70.3663 10.6711 69.3187 11.7188 68.0226 11.7188Z" fill="#5D9CEC"/>
<path d="M82.0171 11.7188H74.9858C73.6897 11.7188 72.6421 10.6711 72.6421 9.375C72.6421 8.07891 73.6897 7.03125 74.9858 7.03125H82.0171C83.3132 7.03125 84.3608 8.07891 84.3608 9.375C84.3608 10.6711 83.3132 11.7188 82.0171 11.7188Z" fill="#545C66"/>
<path d="M128.892 42.1851H96.0796C94.7835 42.1851 93.7358 41.1351 93.7358 39.8413C93.7358 38.5476 94.7835 37.4976 96.0796 37.4976H128.892C130.188 37.4976 131.236 38.5476 131.236 39.8413C131.236 41.1351 130.188 42.1851 128.892 42.1851Z" fill="#F6BB42"/>
<path d="M128.892 51.5601H96.0796C94.7835 51.5601 93.7358 50.5101 93.7358 49.2163C93.7358 47.9226 94.7835 46.8726 96.0796 46.8726H128.892C130.188 46.8726 131.236 47.9226 131.236 49.2163C131.236 50.5101 130.188 51.5601 128.892 51.5601Z" fill="#F6BB42"/>
<path d="M112.486 60.9351H96.0796C94.7835 60.9351 93.7358 59.8851 93.7358 58.5913C93.7358 57.2976 94.7835 56.2476 96.0796 56.2476H112.486C113.782 56.2476 114.83 57.2976 114.83 58.5913C114.83 59.8851 113.782 60.9351 112.486 60.9351Z" fill="#F6BB42"/>
<path d="M29.3013 91.4111C28.0052 91.4111 26.9575 90.3635 26.9575 89.0674V70.3174C26.9575 69.0213 28.0052 67.9736 29.3013 67.9736C30.5974 67.9736 31.645 69.0213 31.645 70.3174V89.0674C31.645 90.3635 30.5974 91.4111 29.3013 91.4111Z" fill="#545C66"/>
<path d="M23.4419 70.3123C22.1458 70.3123 21.0981 69.2647 21.0981 67.9686V58.5889C21.0981 57.2928 22.1458 56.2451 23.4419 56.2451C24.738 56.2451 25.7856 57.2928 25.7856 58.5889V67.9686C25.7856 69.2647 24.738 70.3123 23.4419 70.3123Z" fill="#545C66"/>
<path d="M35.1606 70.3123C33.8646 70.3123 32.8169 69.2647 32.8169 67.9686V58.5889C32.8169 57.2928 33.8646 56.2451 35.1606 56.2451C36.4567 56.2451 37.5044 57.2928 37.5044 58.5889V67.9686C37.5044 69.2647 36.4567 70.3123 35.1606 70.3123Z" fill="#545C66"/>
<path d="M42.1919 91.411C40.8958 91.411 39.8481 90.3634 39.8481 89.0673V58.5845C39.8481 57.2884 40.8958 56.2407 42.1919 56.2407C43.488 56.2407 44.5356 57.2884 44.5356 58.5845V89.0673C44.5356 90.3634 43.488 91.411 42.1919 91.411Z" fill="#545C66"/>
<path d="M42.1782 56.2407C40.8821 56.2407 39.8345 57.2884 39.8345 58.5845V74.9907H39.8485C39.8485 76.2868 40.8962 77.3345 42.1923 77.3345H49.2235C50.5196 77.3345 51.5673 76.2868 51.5673 74.9907V65.6298C51.5673 60.4524 47.3556 56.2407 42.1782 56.2407Z" fill="#656D78"/>
<path d="M29.2969 65.6159C28.0008 65.6159 26.9531 64.5683 26.9531 63.2722V58.5894C26.9531 57.2933 28.0008 56.2456 29.2969 56.2456C30.593 56.2456 31.6406 57.2933 31.6406 58.5894V63.2722C31.6406 64.5683 30.593 65.6159 29.2969 65.6159Z" fill="#545C66"/>
<path d="M35.1609 63.2769H23.4422C22.1461 63.2769 21.0984 64.3245 21.0984 65.6206V67.9644C21.0984 67.969 21.0938 67.969 21.0938 67.9737C21.0938 70.5565 23.1938 72.6565 25.7766 72.6565H32.7891C32.7984 72.6565 32.8078 72.6612 32.8125 72.6612C35.4 72.6612 37.5047 70.5565 37.5047 67.969V65.6206C37.5047 64.3245 36.457 63.2769 35.1609 63.2769Z" fill="#656D78"/>
</svg>
