<svg width="33" height="31" viewBox="0 0 33 31" fill="none" xmlns="http://www.w3.org/2000/svg">
<path d="M0 15.377C0 17.586 1.791 19.377 4 19.377H20.104L16.35 23.797C14.919 25.481 15.126 28.004 16.81 29.435C17.562 30.075 18.482 30.385 19.397 30.385C20.531 30.385 21.657 29.906 22.448 28.975L31.799 17.965C33.067 16.473 33.067 14.278 31.799 12.787L22.448 1.777C21.017 0.0929991 18.494 -0.113001 16.81 1.318C15.126 2.749 14.919 5.272 16.35 6.956L20.104 11.376H4C1.791 11.376 0 13.167 0 15.377Z" fill="#FF003D"/>
</svg>
