<svg width="33" height="31" viewBox="0 0 33 31" fill="none" xmlns="http://www.w3.org/2000/svg">
<path d="M32.75 15.377C32.75 17.586 30.959 19.377 28.75 19.377H12.646L16.4 23.797C17.831 25.481 17.624 28.004 15.94 29.435C15.188 30.075 14.268 30.385 13.353 30.385C12.219 30.385 11.093 29.906 10.302 28.975L0.951 17.965C-0.317 16.473 -0.317 14.278 0.951 12.787L10.302 1.777C11.733 0.0929991 14.256 -0.113001 15.94 1.318C17.624 2.749 17.831 5.272 16.4 6.956L12.646 11.376H28.75C30.959 11.376 32.75 13.167 32.75 15.377Z" fill="#FF003D"/>
</svg>
