<svg width="82" height="82" viewBox="0 0 82 82" fill="none" xmlns="http://www.w3.org/2000/svg">
<g filter="url(#filter0_d)">
<path d="M41 72C60.33 72 76 56.33 76 37C76 17.67 60.33 2 41 2C21.67 2 6 17.67 6 37C6 56.33 21.67 72 41 72Z" fill="#F7F0E6"/>
<path d="M41.0001 67.1724C57.6639 67.1724 71.1726 53.6638 71.1726 37C71.1726 20.3362 57.6639 6.82751 41.0001 6.82751C24.3363 6.82751 10.8276 20.3362 10.8276 37C10.8276 53.6638 24.3363 67.1724 41.0001 67.1724Z" fill="#EEE2D4"/>
<path d="M41.0003 64.7587C56.3309 64.7587 68.7588 52.3308 68.7588 37.0001C68.7588 21.6695 56.3309 9.24158 41.0003 9.24158C25.6696 9.24158 13.2417 21.6695 13.2417 37.0001C13.2417 52.3308 25.6696 64.7587 41.0003 64.7587Z" fill="#FFDC8C"/>
<path d="M41 9.24158C32.5494 9.24158 24.9863 13.0227 19.895 18.9795C24.745 14.8345 31.0355 12.326 37.9158 12.326C53.2463 12.326 65.6743 24.754 65.6743 40.0845C65.6743 46.9646 63.1658 53.2552 59.0208 58.1053C64.9778 53.0139 68.7586 45.4507 68.7586 37.0001C68.7586 21.6696 56.3308 9.24158 41 9.24158Z" fill="#FFCD6E"/>
<path d="M25.7254 30.3632C25.7927 30.6462 25.8926 31.0763 26.2934 31.5168C27.9008 27.2151 31.3334 23.8167 35.6574 22.2554C35.3216 21.9946 34.9053 21.8433 34.3417 21.7466C34.0526 21.697 33.7734 21.6286 33.4935 21.5953C30.3524 21.2219 27.3788 19.9868 25.142 17.7501L10.099 2.70718C9.06323 1.67017 7.31624 1.77366 6.42251 3.01767C5.7206 3.9948 5.92964 5.36445 6.78044 6.21525L21.7291 21.1638C23.9659 23.4005 25.201 26.3743 25.5743 29.5153C25.6074 29.7949 25.6576 30.0779 25.7254 30.3632Z" fill="#EEE2D4"/>
<path d="M25.7254 30.3632C25.7927 30.6462 25.8926 31.0763 26.2934 31.5169C26.9862 29.6628 28.0157 27.9786 29.3139 26.5329C28.4174 24.813 27.2929 23.2147 25.8932 21.815L6.74161 2.66345C6.62814 2.7705 6.51835 2.88425 6.42251 3.01769C5.7206 3.99482 5.92964 5.36447 6.78044 6.21527L21.7291 21.1638C23.9659 23.4005 25.201 26.3743 25.5743 29.5153C25.6074 29.7949 25.6576 30.0779 25.7254 30.3632Z" fill="#E0D0BB"/>
<path d="M25.6085 35.0559C25.5284 35.0559 25.447 35.0482 25.3658 35.0311C24.7129 34.898 24.291 34.2598 24.4253 33.6068C25.7549 27.1098 30.7958 21.974 37.2675 20.5237C37.9181 20.3759 38.5627 20.7864 38.7089 21.4371C38.8551 22.0877 38.4461 22.733 37.7955 22.8785C32.25 24.122 27.9294 28.5228 26.7896 34.0912C26.6729 34.6623 26.1695 35.0559 25.6085 35.0559Z" fill="#FFCD6E"/>
<path d="M45.9763 57.5081C50.8914 56.8961 54.7872 53.0005 55.399 48.0854C55.4884 47.3665 54.9168 46.73 54.1924 46.73H45.8276C45.1611 46.73 44.6206 47.2704 44.6206 47.9369V56.3018C44.6207 57.0259 45.2573 57.5975 45.9763 57.5081Z" fill="white"/>
<path d="M62.5578 35.2573C60.5298 32.6226 56.9494 31.696 53.8979 33.0161C53.4516 33.2091 53.2781 33.7567 53.5248 34.1757L56.3739 39.0143C56.601 39.3999 57.0976 39.5285 57.4831 39.3014L62.3217 36.4523C62.7406 36.2056 62.8544 35.6426 62.5578 35.2573Z" fill="#F7F0E6"/>
<path d="M40.8758 54.8104C39.36 52.8411 36.6836 52.1485 34.4027 53.1352C34.0691 53.2795 33.9393 53.6887 34.1238 54.002L36.2533 57.6187C36.423 57.9069 36.7942 58.0029 37.0825 57.8332L40.6993 55.7037C41.0125 55.5193 41.0975 55.0985 40.8758 54.8104Z" fill="#F7F0E6"/>
<path d="M35.4944 48.6358L29.5123 49.4289C28.8515 49.5166 28.2449 49.0519 28.1572 48.3911L27.3641 42.409C27.2765 41.7482 27.7412 41.1416 28.402 41.054L34.3841 40.2609C35.0449 40.1732 35.6515 40.6379 35.7391 41.2987L36.5322 47.2808C36.6197 47.9416 36.1551 48.5482 35.4944 48.6358Z" fill="white"/>
<path d="M46.0981 33.7146L41.2889 31.6177C40.6779 31.3512 40.3984 30.64 40.6649 30.029L42.7619 25.2198C43.0283 24.6088 43.7395 24.3293 44.3505 24.5958L49.1598 26.6928C49.7708 26.9592 50.0502 27.6705 49.7837 28.2814L47.6867 33.0907C47.4203 33.7017 46.7091 33.9811 46.0981 33.7146Z" fill="white"/>
<path d="M34.9641 37.0002C34.7343 37.0002 34.502 36.9342 34.2958 36.7975L30.6751 34.3837C30.1199 34.0136 29.9703 33.2652 30.3403 32.71C30.7091 32.1548 31.4575 32.0052 32.014 32.3752L35.6347 34.7889C36.1899 35.159 36.3395 35.9074 35.9695 36.4627C35.7372 36.8117 35.3543 37.0002 34.9641 37.0002Z" fill="#DCAA96"/>
<path d="M36.1728 32.1725C35.5057 32.1725 34.9658 31.6328 34.9658 30.9656V28.5518C34.9658 27.8848 35.5056 27.3448 36.1728 27.3448C36.84 27.3448 37.3797 27.8846 37.3797 28.5518V30.9656C37.3796 31.6328 36.8398 32.1725 36.1728 32.1725Z" fill="#ADDF6E"/>
<path d="M41 46.6554H40.9882C40.3212 46.6554 39.7812 46.1156 39.7812 45.4484C39.7812 44.7814 40.321 44.2415 40.9882 44.2415C41.6554 44.2415 42.201 44.7812 42.201 45.4484C42.201 46.1156 41.667 46.6554 41 46.6554Z" fill="#F7F0E6"/>
<path d="M53.0686 22.5173C52.7598 22.5173 52.4511 22.3995 52.2154 22.1638C51.744 21.6924 51.744 20.9285 52.2154 20.4571L53.4223 19.2502C53.8937 18.7788 54.6576 18.7788 55.129 19.2502C55.6004 19.7216 55.6004 20.4854 55.129 20.9568L53.922 22.1638C53.6862 22.3995 53.3775 22.5173 53.0686 22.5173Z" fill="#DCAA96"/>
<path d="M59.1035 29.7584C58.7946 29.7584 58.4858 29.6406 58.2502 29.4049L55.8365 26.9911C55.3651 26.5197 55.3651 25.7559 55.8365 25.2845C56.3079 24.8131 57.0717 24.8131 57.5431 25.2845L59.9569 27.6982C60.4283 28.1696 60.4283 28.9335 59.9569 29.4049C59.7211 29.6407 59.4123 29.7584 59.1035 29.7584Z" fill="#F7F0E6"/>
<path d="M59.1038 47.8618C58.7949 47.8618 58.4861 47.744 58.2505 47.5083C57.7791 47.0369 57.7791 46.273 58.2505 45.8016L60.6643 43.3879C61.1357 42.9165 61.8996 42.9165 62.371 43.3879C62.8424 43.8593 62.8424 44.6231 62.371 45.0945L59.9572 47.5083C59.7213 47.744 59.4126 47.8618 59.1038 47.8618Z" fill="#DCAA96"/>
<path d="M51.874 43.0345H51.8622C51.1952 43.0345 50.6553 42.4947 50.6553 41.8276C50.6553 41.1605 51.195 40.6206 51.8622 40.6206C52.5294 40.6206 53.0751 41.1604 53.0751 41.8276C53.0751 42.4947 52.5412 43.0345 51.874 43.0345Z" fill="#ADDF6E"/>
<path d="M48.2417 21.3103H48.2299C47.5629 21.3103 47.0229 20.7705 47.0229 20.1033C47.0229 19.4363 47.5627 18.8964 48.2299 18.8964C48.897 18.8964 49.4427 19.4361 49.4427 20.1033C49.4426 20.7705 48.9087 21.3103 48.2417 21.3103Z" fill="#ADDF6E"/>
<path d="M33.7583 16.4829H33.7465C33.0795 16.4829 32.5396 15.9431 32.5396 15.2759C32.5396 14.6089 33.0793 14.069 33.7465 14.069C34.4137 14.069 34.9593 14.6087 34.9593 15.2759C34.9593 15.9431 34.4254 16.4829 33.7583 16.4829Z" fill="#F7F0E6"/>
<path d="M28.9314 56.3104C28.6225 56.3104 28.3137 56.1926 28.0781 55.9569L26.8711 54.7499C26.3997 54.2785 26.3997 53.5147 26.8711 53.0433C27.3425 52.5718 28.1064 52.5718 28.5778 53.0433L29.7848 54.2502C30.2562 54.7216 30.2562 55.4855 29.7848 55.9569C29.549 56.1927 29.2402 56.3104 28.9314 56.3104Z" fill="#ADDF6E"/>
<path d="M20.4828 37C19.8158 37 19.2759 36.4603 19.2759 35.7931V33.3793C19.2759 32.7123 19.8156 32.1724 20.4828 32.1724C21.1499 32.1724 21.6898 32.7121 21.6898 33.3793V35.7931C21.6898 36.4603 21.1499 37 20.4828 37Z" fill="#F7F0E6"/>
<path d="M47.2855 46.9028C47.2747 46.8435 47.2922 46.7881 47.2887 46.7296H45.8276C45.1611 46.7296 44.6206 47.2701 44.6206 47.9366V56.3014C44.6206 57.0259 45.2573 57.5975 45.976 57.508C47.0653 57.3723 48.1002 57.0675 49.0647 56.6339L47.2855 46.9028Z" fill="#F7F0E6"/>
<path d="M31.1965 40.6835L28.402 41.054C27.7412 41.1416 27.2765 41.7482 27.3641 42.409L28.1572 48.3911C28.2449 49.0519 28.8515 49.5166 29.5123 49.429L29.9698 49.3683L31.1965 40.6835Z" fill="#F7F0E6"/>
<path d="M44.7951 25.2917C44.8125 25.1317 44.8632 24.9841 44.9352 24.8508L44.3504 24.5958C43.7394 24.3293 43.0281 24.6087 42.7617 25.2198L40.6649 30.029C40.3984 30.64 40.6779 31.3513 41.2889 31.6177L43.98 32.7911L44.7951 25.2917Z" fill="#F7F0E6"/>
<path d="M44.6207 41.8275C46.6204 41.8275 48.2414 40.2065 48.2414 38.2068C48.2414 36.2071 46.6204 34.5861 44.6207 34.5861C42.6211 34.5861 41 36.2071 41 38.2068C41 40.2065 42.6211 41.8275 44.6207 41.8275Z" fill="#FFBE50"/>
<path d="M46.431 40.0172C44.4314 40.0172 42.8103 38.3962 42.8103 36.3965C42.8103 35.8659 42.9307 35.3656 43.1358 34.9117C41.8786 35.4794 41 36.7378 41 38.2069C41 40.2066 42.6211 41.8277 44.6207 41.8277C46.0898 41.8277 47.3481 40.9491 47.9159 39.6917C47.4619 39.8968 46.9616 40.0172 46.431 40.0172Z" fill="#FF9B4B"/>
<path d="M24.1037 44.2415C25.4368 44.2415 26.5175 43.1608 26.5175 41.8277C26.5175 40.4946 25.4368 39.4139 24.1037 39.4139C22.7706 39.4139 21.6899 40.4946 21.6899 41.8277C21.6899 43.1608 22.7706 44.2415 24.1037 44.2415Z" fill="#FFBE50"/>
<path d="M25.3105 43.0344C23.9774 43.0344 22.8968 41.9537 22.8968 40.6206C22.8968 40.2668 22.977 39.9334 23.1137 39.6306C22.2756 40.0092 21.6899 40.8481 21.6899 41.8274C21.6899 43.1606 22.7706 44.2412 24.1037 44.2412C25.0832 44.2412 25.9221 43.6553 26.3005 42.8174C25.9978 42.9541 25.6644 43.0344 25.3105 43.0344Z" fill="#FF9B4B"/>
<path d="M42.2072 20.1034C43.5403 20.1034 44.621 19.0227 44.621 17.6897C44.621 16.3566 43.5403 15.2759 42.2072 15.2759C40.8741 15.2759 39.7935 16.3566 39.7935 17.6897C39.7935 19.0227 40.8741 20.1034 42.2072 20.1034Z" fill="#FFBE50"/>
<path d="M43.414 18.8965C42.0809 18.8965 41.0003 17.8159 41.0003 16.4828C41.0003 16.1289 41.0805 15.7956 41.2172 15.4928C40.3792 15.8714 39.7935 16.7103 39.7935 17.6896C39.7935 19.0227 40.8741 20.1034 42.2072 20.1034C43.1867 20.1034 44.0256 19.5175 44.404 18.6796C44.1012 18.8163 43.7679 18.8965 43.414 18.8965Z" fill="#FF9B4B"/>
</g>
<defs>
<filter id="filter0_d" x="0" y="0" width="82" height="82" filterUnits="userSpaceOnUse" color-interpolation-filters="sRGB">
<feFlood flood-opacity="0" result="BackgroundImageFix"/>
<feColorMatrix in="SourceAlpha" type="matrix" values="0 0 0 0 0 0 0 0 0 0 0 0 0 0 0 0 0 0 127 0"/>
<feOffset dy="4"/>
<feGaussianBlur stdDeviation="3"/>
<feColorMatrix type="matrix" values="0 0 0 0 0 0 0 0 0 0 0 0 0 0 0 0 0 0 0.06 0"/>
<feBlend mode="normal" in2="BackgroundImageFix" result="effect1_dropShadow"/>
<feBlend mode="normal" in="SourceGraphic" in2="effect1_dropShadow" result="shape"/>
</filter>
</defs>
</svg>
