<svg width="30" height="30" viewBox="0 0 30 30" fill="none" xmlns="http://www.w3.org/2000/svg">
<path d="M15 30C23.2843 30 30 23.2843 30 15C30 6.71573 23.2843 0 15 0C6.71573 0 0 6.71573 0 15C0 23.2843 6.71573 30 15 30Z" fill="#2CC47F"/>
<path d="M7.95088 5.98858L7.95041 5.98881C6.21375 6.8949 5.48514 8.9901 6.28084 10.78C7.42617 13.3567 8.96403 15.7135 10.82 17.7775L12.2227 19.1801L21.5433 28.5008C23.8765 27.3679 25.8713 25.6479 27.3369 23.5331L23.8976 20.0938C23.765 19.8984 23.5947 19.7247 23.3889 19.5851L10.415 6.61125C9.87041 5.80881 8.81057 5.53998 7.95088 5.98858Z" fill="#06B26B"/>
<path d="M20.4841 17.6142C20.0041 17.2885 19.3735 17.2901 18.8953 17.6184L18.2067 18.091C17.4397 18.6174 16.4197 18.5888 15.6824 18.0214C14.9876 17.4866 14.3245 16.9132 13.6947 16.3056C13.087 15.6759 12.5137 15.0127 11.9789 14.3179C11.4115 13.5807 11.383 12.5607 11.9094 11.7937L12.382 11.1051C12.7102 10.6268 12.7119 9.99624 12.3861 9.51624L10.415 6.61146C9.87053 5.80907 8.81069 5.54025 7.95094 5.98878L7.95041 5.98902C6.21375 6.89511 5.48514 8.9903 6.28084 10.7802C7.42617 13.3569 8.96403 15.7137 10.82 17.7777L12.2227 19.1803C14.2867 21.0362 16.6435 22.5742 19.2201 23.7195C21.0101 24.5152 23.1052 23.7866 24.0113 22.0499L24.0115 22.0494C24.4601 21.1897 24.1913 20.1298 23.3889 19.5853L20.4841 17.6142Z" fill="white"/>
</svg>
