<svg width="50" height="50" viewBox="0 0 50 50" fill="none" xmlns="http://www.w3.org/2000/svg">
<g clip-path="url(#clip0)">
<path d="M37.7584 44.1039C38.0468 45.378 36.5365 46.2988 35.5592 45.4302C35.1244 45.0446 34.6175 44.7278 33.7886 44.7278C31.6574 44.7278 31.6574 46.8183 29.5252 46.8183C27.394 46.8183 27.394 44.7278 25.2618 44.7278C23.1306 44.7278 23.1306 46.8183 20.9984 46.8183C18.8661 46.8183 18.8661 44.7278 16.7349 44.7278C14.6027 44.7278 14.6027 46.8183 12.4704 46.8183C10.3382 46.8183 10.3382 44.7278 8.20595 44.7278C7.3771 44.7278 6.87014 45.0446 6.43535 45.4302C5.45805 46.2988 3.94771 45.378 4.2362 44.1028C4.68144 42.1305 5.47787 41.0811 5.47787 41.0811V5.73723C5.47787 5.73723 4.68144 4.68883 4.2362 2.71548C3.94781 1.44031 5.45815 0.520536 6.43545 1.38806C6.87023 1.7748 7.3772 2.09045 8.20605 2.09045C9.06733 2.09045 9.58054 1.74863 10.0269 1.34314C10.6853 0.742131 11.1984 0 12.4684 0C14.6006 0 14.6006 2.09045 16.7329 2.09045C18.8641 2.09045 18.8641 0 20.9963 0C23.1285 0 23.1285 2.09045 25.2597 2.09045C27.392 2.09045 27.392 0 29.5242 0C31.6565 0 31.6565 2.09045 33.7876 2.09045C34.6175 2.09045 35.1244 1.7748 35.5593 1.38806C36.5366 0.520536 38.0469 1.44031 37.7584 2.71548C37.3132 4.68883 36.5167 5.73723 36.5167 5.73723V41.0812C36.5167 41.0811 37.3131 42.1305 37.7584 44.1039Z" fill="#EDEDED"/>
<path d="M5.47787 8.30217V5.73728C5.47787 5.73728 4.68144 4.68889 4.2362 2.71554C3.94771 1.44037 5.45805 0.520591 6.43535 1.38812C6.87014 1.77486 7.3771 2.0905 8.20595 2.0905C9.06723 2.0905 9.58044 1.74869 10.0268 1.34319C10.4093 3.47857 11.0646 5.16245 11.0646 5.16245L5.47787 8.30217Z" fill="#DBDBDB"/>
<path d="M5.47787 38.5162V41.0812C5.47787 41.0812 4.68144 42.1296 4.2362 44.103C3.94771 45.3781 5.45805 46.2979 6.43535 45.4304C6.87014 45.0436 7.3771 44.728 8.20595 44.728C9.06723 44.728 9.58044 45.0698 10.0268 45.4753C10.4093 43.3399 11.0646 41.6561 11.0646 41.6561L5.47787 38.5162Z" fill="#DBDBDB"/>
<path d="M36.5172 5.63611C28.033 4.57043 19.5487 4.37852 11.0645 5.06069C9.20225 5.21041 7.918 5.77157 6.05578 6.00547C4.91773 17.8206 4.33968 29.2662 5.47782 41.0812C15.8243 42.3809 26.1708 42.3809 36.5172 41.0812C37.6554 29.2662 37.6554 17.4512 36.5172 5.63611Z" fill="#E49542"/>
<path d="M11.0639 41.6568C9.20125 41.5074 7.33972 41.315 5.47722 41.0809C4.33897 29.2658 4.33897 17.4507 5.47722 5.63563C7.33982 5.40153 9.20135 5.21021 11.0639 5.06079C9.90158 17.2584 9.90158 29.4581 11.0639 41.6568Z" fill="#E28424"/>
<path d="M33.6466 23.3585C33.6466 29.7891 27.9836 35.002 20.9974 35.002C16.4643 35.002 12.4883 32.8063 10.2557 29.5078C9.04642 27.7237 8.34814 25.6159 8.34814 23.3584C8.34814 21.097 9.04848 18.9865 10.2608 17.1999C12.4945 13.9053 16.4684 11.7148 20.9973 11.7148C27.9836 11.7149 33.6466 16.9278 33.6466 23.3585Z" fill="#EDEDED"/>
<path d="M19.3863 27.1178C16.3381 28.0656 11.4151 27.097 11.3714 22.876C11.3276 18.6549 16.5818 21.1693 16.5818 21.1693L19.3863 27.1178Z" fill="#FFC250"/>
<path d="M12.853 20.5079C14.9803 20.1433 16.596 22.9623 18.3835 25.9029C20.171 28.8435 24.8258 30.009 27.7999 27.5362C30.774 25.0633 32.0329 20.7324 28.3811 18.149C24.7294 15.5657 22.4497 21.4308 19.306 21.5919C16.1623 21.7529 16.1393 19.4161 12.853 20.5079Z" fill="#FFD064"/>
<path d="M31.2712 47.7196C27.3301 48.9451 20.9646 47.6927 20.9081 42.235C20.8515 36.7773 27.6452 40.0285 27.6452 40.0285L31.2712 47.7196Z" fill="#FFC250"/>
<path d="M22.8242 39.173C25.5748 38.7017 27.6638 42.3466 29.9751 46.1487C32.2864 49.9508 38.305 51.4579 42.1505 48.2604C45.996 45.063 47.6236 39.4632 42.9019 36.123C38.1801 32.7827 35.2326 40.3662 31.1678 40.5746C27.1031 40.783 27.0734 37.7614 22.8242 39.173Z" fill="#FFD064"/>
<path d="M42.3784 45.5385C42.1194 45.5385 41.8674 45.4051 41.7268 45.1656C41.516 44.8061 41.6366 44.3439 41.996 44.133L42.0335 44.1111C42.3931 43.9003 42.8551 44.0208 43.066 44.3803C43.2769 44.7398 43.1562 45.202 42.7969 45.4128L42.7594 45.4348C42.6394 45.5051 42.5081 45.5385 42.3784 45.5385Z" fill="#FFC250"/>
<path d="M43.4512 43.7908C43.1922 43.7908 42.9401 43.6574 42.7996 43.4179C42.5888 43.0584 42.7094 42.5962 43.0687 42.3854L43.1062 42.3634C43.4657 42.1526 43.9279 42.2732 44.1388 42.6326C44.3496 42.9921 44.229 43.4543 43.8696 43.6651L43.8321 43.6871C43.7122 43.7574 43.5808 43.7908 43.4512 43.7908Z" fill="#FFC250"/>
<path d="M41.3389 43.7642C41.0799 43.7642 40.8278 43.6308 40.6873 43.3913C40.4764 43.0318 40.5971 42.5696 40.9564 42.3587L40.9939 42.3368C41.3535 42.126 41.8156 42.2465 42.0265 42.606C42.2373 42.9655 42.1167 43.4277 41.7573 43.6385L41.7198 43.6605C41.5999 43.7308 41.4685 43.7642 41.3389 43.7642Z" fill="#FFC250"/>
</g>
<defs>
<clipPath id="clip0">
<rect width="50" height="50" fill="white"/>
</clipPath>
</defs>
</svg>
