<svg width="50" height="50" viewBox="0 0 50 50" fill="none" xmlns="http://www.w3.org/2000/svg">
<path d="M47.5894 26.2211C47.2374 25.4461 47.2374 24.5545 47.5894 23.7795L49.454 19.6774C50.1478 18.1503 50.179 16.3857 49.5374 14.8378C48.8936 13.2878 47.6269 12.0607 46.0561 11.4732L41.8394 9.88989C41.0394 9.58989 40.4103 8.96281 40.1124 8.16281L38.529 3.94614C37.9415 2.37531 36.7144 1.10864 35.1644 0.464892C33.6207 -0.176775 31.8519 -0.145525 30.3248 0.548225L26.2228 2.41281C25.4457 2.76697 24.554 2.76697 23.7811 2.41281L19.6769 0.548225C18.1519 -0.147608 16.3832 -0.178858 14.8373 0.464892C13.2873 1.10656 12.0603 2.37531 11.4728 3.94614L9.88943 8.16281C9.59152 8.96281 8.96235 9.58989 8.16235 9.88989L3.94568 11.4732C2.37485 12.0607 1.1061 13.2878 0.464431 14.8378C-0.177236 16.3857 -0.145986 18.1503 0.547764 19.6774L2.41235 23.7795C2.76443 24.5545 2.76443 25.4461 2.41235 26.2211L0.547764 30.3232C-0.145986 31.8503 -0.177236 33.6149 0.464431 35.1628C1.10818 36.7128 2.37485 37.9399 3.94568 38.5274L8.16235 40.1107C8.96235 40.4107 9.59152 41.0378 9.88943 41.8378L11.4728 46.0545C12.0603 47.6253 13.2873 48.892 14.8373 49.5357C15.5769 49.842 16.3686 49.9961 17.1603 49.9961C18.0207 49.9961 18.8811 49.8149 19.6769 49.4524L23.779 47.5878C24.5561 47.2336 25.4478 47.2336 26.2207 47.5878L30.3228 49.4524C31.8478 50.1482 33.6165 50.1774 35.1624 49.5357C36.7124 48.892 37.9394 47.6253 38.5269 46.0545L40.1103 41.8378C40.4103 41.0378 41.0374 40.4086 41.8374 40.1107L46.054 38.5274C47.6249 37.9399 48.8915 36.7128 49.5353 35.1628C50.1769 33.6149 50.1457 31.8503 49.4519 30.3232L47.5894 26.2211Z" fill="#F44336"/>
<path d="M18.7178 18.2758C18.9291 18.289 19.0941 18.3877 19.213 18.572C19.3319 18.7432 19.3913 18.967 19.3913 19.2435C19.3913 19.8096 19.1866 20.3823 18.7772 20.9615C18.4734 21.2643 18.3017 21.5211 18.2621 21.7317C17.9716 22.074 17.5952 22.5085 17.133 23.0351C16.6839 23.5485 16.4132 23.8382 16.3207 23.904C16.0038 24.1805 15.6802 24.4767 15.3501 24.7926C15.0199 25.0954 14.8152 25.2995 14.7359 25.4048C14.4982 25.6681 14.353 25.8195 14.3001 25.859C14.4322 26.412 14.5709 26.8925 14.7161 27.3006C14.8614 27.6956 15.0661 28.1498 15.3302 28.6633C15.4887 28.9924 15.6604 29.2886 15.8453 29.5519C16.0434 29.8152 16.2217 29.993 16.3802 30.0851C16.4198 30.1246 16.4924 30.1444 16.5981 30.1444C16.7169 30.1444 16.783 30.1246 16.7962 30.0851C16.9547 30.0456 17.0537 30.1114 17.0933 30.2826C17.1462 30.4406 17.1726 30.6117 17.1726 30.796C17.1858 30.9804 17.1924 31.0988 17.1924 31.1515C17.2188 31.2437 17.166 31.3358 17.0339 31.428C16.9018 31.5333 16.7302 31.6123 16.5188 31.6649C16.3075 31.7308 16.1094 31.7505 15.9245 31.7242C15.6472 31.6979 15.3435 31.553 15.0133 31.2897C14.6963 31.0264 14.3992 30.6381 14.1218 30.1246C13.5804 29.3873 13.1181 28.4855 12.7351 27.4191C12.6163 27.5376 12.5568 27.6034 12.5568 27.6166C12.1739 27.9852 11.4277 28.7752 10.3183 29.9864C9.20896 31.1844 8.62126 31.8558 8.55523 32.0007C8.46278 32.1586 8.32411 32.2376 8.13922 32.2376C8.07318 32.2376 8.02036 32.2311 7.98074 32.2179C7.95432 32.2311 7.88829 32.2376 7.78264 32.2376C7.5185 32.2376 7.36002 32.2245 7.3072 32.1981C7.29399 32.185 7.27418 32.1455 7.24777 32.0797C7.23456 32.0138 7.21475 31.9151 7.18834 31.7834C7.14872 31.7308 7.12891 31.6452 7.12891 31.5267C7.12891 31.2897 7.20815 30.954 7.36663 30.5196C7.45907 30.3221 7.55812 30.1641 7.66378 30.0456C7.78264 29.914 8.04677 29.6638 8.45618 29.2952L9.14953 28.6435L9.72402 28.1103C10.0014 27.8338 10.14 27.6956 10.14 27.6956C10.1532 27.6561 10.2061 27.5837 10.2985 27.4784C10.391 27.373 10.4834 27.2611 10.5758 27.1427C10.8136 26.9583 11.19 26.6095 11.705 26.096L12.2399 25.6023C12.1606 25.26 12.1012 24.9243 12.0616 24.5952C11.9956 24.1607 11.9229 23.7723 11.8437 23.43C11.7644 23.0746 11.7116 22.8837 11.6852 22.8573C11.672 22.8178 11.6786 22.7849 11.705 22.7586C11.7314 22.7323 11.7512 22.7191 11.7644 22.7191C11.7909 22.6928 11.8041 22.6664 11.8041 22.6401C11.8041 22.6138 11.7909 22.5809 11.7644 22.5414C11.738 22.5019 11.7182 22.4624 11.705 22.4229C11.6786 22.3439 11.639 22.1596 11.5862 21.8699C11.5333 21.5671 11.4871 21.2248 11.4475 20.843C11.3286 19.724 11.256 19.0855 11.2296 18.9275C11.2032 18.9012 11.1834 18.8682 11.1701 18.8288C11.1701 18.7761 11.1701 18.7432 11.1701 18.73C11.1966 18.651 11.2758 18.5523 11.4079 18.4338C11.5399 18.3153 11.6192 18.2429 11.6456 18.2166C11.7777 18.1244 11.9295 18.0783 12.1012 18.0783C12.3786 18.0783 12.6229 18.1968 12.8342 18.4338C13.0587 18.6708 13.171 18.967 13.171 19.3225C13.171 19.6647 13.2106 19.8754 13.2898 19.9544C13.2634 20.007 13.27 20.2967 13.3096 20.8233C13.3625 21.3499 13.4087 21.679 13.4483 21.8107C13.3955 21.9687 13.3955 22.0806 13.4483 22.1464C13.4615 22.2254 13.4813 22.3636 13.5077 22.5611C13.5341 22.7454 13.5407 22.8705 13.5275 22.9363C13.5143 23.0022 13.5341 23.1404 13.587 23.351C13.6398 23.5485 13.6794 23.6933 13.7058 23.7855L13.7851 24.0225L13.8445 23.9435L14.3001 23.4695C14.934 22.8376 15.4359 22.311 15.8057 21.8897C17.0339 20.4283 17.8131 19.3554 18.1433 18.6708C18.2225 18.4996 18.2885 18.3877 18.3414 18.3351C18.3942 18.2824 18.4536 18.2561 18.5197 18.2561L18.7178 18.2758Z" fill="white"/>
<path d="M31.2855 17.5254C31.576 17.4991 31.8138 17.5912 31.9987 17.8019C32.1968 18.0125 32.2958 18.2561 32.2958 18.5325C32.2958 18.651 32.276 18.7629 32.2364 18.8682C32.0647 19.2105 31.6817 20.1387 31.0874 21.6527C30.4931 23.1536 29.9186 24.6215 29.3639 26.0565L27.9376 30.1641C27.8716 30.3484 27.7329 30.6907 27.5216 31.191C27.3499 31.4938 27.231 31.8361 27.165 32.2179C27.099 32.4417 26.9933 32.626 26.8481 32.7708C26.7028 32.9288 26.5509 33.0078 26.3924 33.0078C26.3132 33.0078 26.2472 32.9881 26.1943 32.9486C25.5868 32.7248 25.2831 32.3693 25.2831 31.8822C25.2831 31.8427 25.2963 31.7571 25.3227 31.6255C25.2963 31.7966 25.4812 31.3951 25.8774 30.4208C26.2868 29.4334 26.6169 28.604 26.8679 27.9326C27.8452 25.497 28.3338 24.2331 28.3338 24.141C28.4923 23.7328 28.5979 23.4432 28.6508 23.2721C28.8092 22.7586 28.9677 22.3505 29.1262 22.0477L29.463 21.159L22.47 29.2162C22.3776 29.2952 22.1201 29.5256 21.6975 29.9074C21.3409 30.2628 21.0635 30.513 20.8654 30.6578C20.773 30.7236 20.6145 30.8421 20.39 31.0133C20.1787 31.1844 19.9872 31.3226 19.8155 31.428C19.6438 31.5465 19.5051 31.6057 19.3995 31.6057C18.6467 31.4741 18.2703 31.1712 18.2703 30.6973C18.2703 30.4867 18.3232 30.2497 18.4288 29.9864C18.5345 29.7099 18.6005 29.5322 18.6269 29.4532C18.7854 28.9529 18.8844 28.5513 18.9241 28.2485C19.0693 27.6561 19.274 26.9452 19.5382 26.1158C19.5646 26.0104 19.6306 25.7669 19.7363 25.3851C19.8551 24.9901 19.9278 24.6281 19.9542 24.2989C20.1391 23.9435 20.39 23.3642 20.707 22.5611L20.9843 21.8502C21.0371 21.7449 21.156 21.4223 21.3409 20.8825C21.4597 20.4744 21.5852 20.1321 21.7173 19.8556L21.9154 19.4804C22.1663 18.9933 22.3578 18.5984 22.4899 18.2956C22.6351 17.9796 22.7144 17.7163 22.7276 17.5056C22.7276 17.3345 22.787 17.2094 22.9059 17.1304C23.0247 17.0383 23.17 16.9922 23.3417 16.9922C23.5662 16.9922 23.7709 17.058 23.9558 17.1897C24.1407 17.3082 24.2596 17.4661 24.3124 17.6636C24.3652 17.8084 24.3916 17.973 24.3916 18.1573C24.3916 18.3285 24.3652 18.4865 24.3124 18.6313L22.6681 22.7981L20.8654 27.5376L20.39 28.7225L24.3916 24.7334C24.8406 24.2726 25.2633 23.7789 25.6595 23.2523C26.0028 22.8047 26.333 22.4097 26.65 22.0674C26.9669 21.7251 27.3565 21.3236 27.8187 20.8628L28.2744 20.3888L30.7902 17.7229C30.9619 17.5912 31.127 17.5254 31.2855 17.5254Z" fill="white"/>
<path d="M34.8084 31.9414C34.7556 31.9941 34.7028 32.0204 34.6499 32.0204C34.5839 32.0204 34.4717 31.9809 34.3132 31.9019C34.0887 31.8493 33.8906 31.7374 33.7189 31.5662C33.5604 31.4082 33.4812 31.2239 33.4812 31.0133C33.4812 30.9606 33.5076 30.8553 33.5604 30.6973C33.6793 30.4735 33.983 29.3742 34.4717 27.3994C34.6962 26.5305 34.8084 26.096 34.8084 26.096C34.8084 26.0828 34.8348 25.8788 34.8877 25.4838C34.9273 25.2863 34.9867 24.9243 35.066 24.3977C35.2244 24.0949 35.3301 23.7658 35.3829 23.4103C35.4489 23.0417 35.4886 22.831 35.5018 22.7783C35.5942 22.4097 35.6603 22.1793 35.6999 22.0872L35.8782 21.396L35.997 20.9418C36.0895 20.6127 36.1357 20.402 36.1357 20.3099V19.9939H35.4027L35.0858 20.0136C34.8745 20.0136 34.7094 20.007 34.5905 19.9939L33.8972 19.9741C33.2765 19.9478 32.8604 19.8886 32.6491 19.7964C32.4378 19.6911 32.3256 19.4936 32.3124 19.204C32.2595 18.9407 32.3916 18.7366 32.7086 18.5918C33.0255 18.4338 33.6727 18.368 34.6499 18.3943C34.8348 18.3811 35.0858 18.3745 35.4027 18.3745C35.7197 18.3745 35.9772 18.3811 36.1753 18.3943C36.3734 18.4075 36.4857 18.414 36.5121 18.414C36.5517 18.3745 36.5847 18.3219 36.6111 18.2561C36.6375 18.1902 36.6574 18.1376 36.6706 18.0981C36.6706 17.8743 36.7432 17.736 36.8885 17.6834C36.9677 17.5122 37.1328 17.4266 37.3837 17.4266C37.529 17.4266 37.6743 17.4596 37.8195 17.5254C37.9648 17.5912 38.0771 17.6834 38.1563 17.8019C38.1827 17.8677 38.1959 17.9862 38.1959 18.1573C38.1959 18.3285 38.2356 18.4535 38.3148 18.5325C38.3676 18.4799 38.5393 18.447 38.8299 18.4338C39.1204 18.4206 39.3251 18.4075 39.444 18.3943C39.6949 18.3943 39.9524 18.3877 40.2166 18.3745C40.4807 18.3482 40.659 18.3351 40.7514 18.3351C40.8703 18.2692 41.0552 18.2363 41.3061 18.2363C41.425 18.2363 41.59 18.2495 41.8014 18.2758C42.0655 18.2758 42.257 18.3351 42.3758 18.4535C42.4947 18.5589 42.6004 18.6839 42.6928 18.8288C42.6928 18.9736 42.7258 19.0789 42.7919 19.1447C42.8447 19.1842 42.8711 19.2237 42.8711 19.2632C42.8711 19.2895 42.8447 19.3488 42.7919 19.4409C42.6994 19.5594 42.4617 19.6187 42.0787 19.6187L41.6627 19.6384C41.3721 19.6647 41.1608 19.6779 41.0288 19.6779C40.4477 19.7964 39.7741 19.8688 39.0081 19.8951C38.4667 19.8951 38.1959 19.9478 38.1959 20.0531C38.1167 20.0531 37.9648 20.481 37.7403 21.3367C37.6611 21.6527 37.5752 21.9424 37.4828 22.2057C37.4035 22.4558 37.3375 22.6269 37.2847 22.7191C37.3243 22.7718 37.3441 22.831 37.3441 22.8968C37.3441 22.9627 37.3045 23.1075 37.2252 23.3313C37.1856 23.4761 37.1394 23.6209 37.0866 23.7658C37.0337 23.8974 37.0073 24.0027 37.0073 24.0817C36.9941 24.1344 36.9545 24.266 36.8885 24.4767C36.8356 24.6742 36.7894 24.898 36.7498 25.1481C36.6838 25.78 36.5979 26.1487 36.4923 26.254C36.4791 26.2803 36.4461 26.333 36.3932 26.412C36.3536 26.491 36.3338 26.5765 36.3338 26.6687C36.3338 26.853 36.2876 27.1822 36.1951 27.6561C36.1027 28.1169 36.03 28.367 35.9772 28.4065C36.0168 28.4065 36.0366 28.446 36.0366 28.525C36.0366 28.6172 35.997 28.7554 35.9178 28.9397C35.9178 29.045 35.898 29.1701 35.8584 29.3149C35.8187 29.4598 35.7989 29.5585 35.7989 29.6112C35.6669 29.9798 35.482 30.4472 35.2442 31.0133C35.0065 31.5794 34.8613 31.8888 34.8084 31.9414Z" fill="white"/>
</svg>
