<svg width="50" height="50" viewBox="0 0 50 50" fill="none" xmlns="http://www.w3.org/2000/svg">
<g clip-path="url(#clip0)">
<path d="M43.746 23.2949C44.288 22.3851 44.6002 21.3225 44.6002 20.1867C44.6002 16.8272 41.8769 11.2878 38.5174 11.2878C35.1579 11.2878 32.4346 16.8272 32.4346 20.1867C32.4346 21.3225 32.7468 22.3851 33.2888 23.2949H43.746Z" fill="#F4E9D3"/>
<path d="M13.5606 12.5523C14.0139 12.4121 14.4955 12.3364 14.9948 12.3364C16.5037 12.3364 17.8515 13.0258 18.7407 14.1067C19.0464 11.5204 21.2448 9.51409 23.9132 9.51409C25.3538 9.51409 26.6577 10.0989 27.6008 11.0438C27.9257 10.181 28.5013 9.44143 29.2385 8.91291C29.1571 6.52737 27.1988 4.61809 24.7935 4.61809C23.7792 4.61809 22.8447 4.95813 22.0964 5.52961C21.6306 4.04631 20.2451 2.97034 18.6081 2.97034C16.5891 2.97034 14.9522 4.60706 14.9522 6.6262C14.9522 6.69026 14.954 6.75393 14.9572 6.81711C14.591 6.69397 14.1993 6.6262 13.7916 6.6262C11.7726 6.6262 10.1357 8.26301 10.1357 10.2821C10.1357 10.2985 10.1367 10.3146 10.137 10.3309C11.5793 10.5341 12.8175 11.3712 13.5606 12.5523Z" fill="#348021"/>
<path d="M26.9293 8.43054C26.7778 8.63621 26.4948 8.69685 26.2731 8.57C25.2335 7.97546 24.1648 7.70525 22.9338 7.80271C20.7241 7.97771 18.9215 9.03914 18.0525 10.7666C17.9189 11.032 17.5858 11.1212 17.3327 10.9656C16.6168 10.5254 15.9265 10.3828 15.3959 10.3969C15.0483 10.4061 14.6125 10.4776 14.2414 10.5678C14.0511 10.614 13.8513 10.5459 13.729 10.3928C12.9985 9.4783 11.6798 8.90398 10.4833 8.72605C10.2544 9.21179 10.1287 9.75584 10.136 10.3302C10.1364 10.3305 10.1366 10.3308 10.137 10.3312C11.5792 10.5345 12.8174 11.3717 13.5606 12.5527C14.0138 12.4126 14.4954 12.3369 14.9947 12.3369C16.5036 12.3369 17.8514 13.0263 18.7406 14.1071C19.0463 11.5209 21.2447 9.51453 23.9131 9.51453C25.3536 9.51453 26.6576 10.0993 27.6007 11.0442C27.9256 10.1815 28.5012 9.44187 29.2384 8.91345C29.2161 8.25994 29.0523 7.64265 28.7777 7.09021C28.2623 7.29392 27.6682 7.428 26.9293 8.43054Z" fill="#2E701B"/>
<path d="M24.0005 22.257C24.0005 19.8714 25.9344 17.9375 28.3199 17.9375C30.4123 17.9375 32.1568 19.4254 32.5542 21.4007H32.5556H32.556C32.4764 21.0084 32.4341 20.6027 32.4341 20.1868C32.4341 17.5366 34.1291 13.5305 36.494 11.9568C36.1502 9.74368 34.2366 8.04993 31.9271 8.04993C29.9476 8.04993 28.2595 9.29465 27.6008 11.0439C26.6576 10.0989 25.3537 9.51418 23.9132 9.51418C21.2448 9.51418 19.0463 11.5206 18.7407 14.1068C19.4295 14.9441 19.8433 16.0161 19.8433 17.185C19.8433 17.3628 19.833 17.5382 19.8144 17.7111C22.1785 18.0342 24.0004 20.0604 24.0004 22.5132C24.0005 22.5132 24.0005 22.5132 24.0005 22.257Z" fill="#62C136"/>
<path d="M36.4942 11.9568C36.4599 11.7353 36.409 11.5193 36.3443 11.3094C34.2695 11.5434 32.4723 13.8437 31.4656 16.3174C31.3578 16.5823 31.0504 16.6987 30.7884 16.5838C30.0328 16.2523 29.1979 16.0681 28.32 16.0681C26.8062 16.0681 25.4205 16.6154 24.3488 17.5222C24.1514 17.6893 23.8625 17.6774 23.6727 17.5017C23.1772 17.0433 22.5923 16.7056 21.9127 16.5379C21.6782 16.48 21.5177 16.266 21.5271 16.0247C21.5303 15.9459 21.5318 15.8668 21.5318 15.7872C21.5318 14.3245 20.6882 13.0311 19.4556 12.03C19.0804 12.6497 18.8298 13.3533 18.7407 14.1067C19.4295 14.944 19.8433 16.0161 19.8433 17.1849C19.8433 17.3628 19.833 17.5382 19.8144 17.7109C22.1785 18.0341 24.0004 20.0602 24.0004 22.5131V22.3302C24.0004 19.9649 25.8713 17.9828 28.2361 17.9381C30.3655 17.8977 32.1515 19.3988 32.5541 21.4005H32.5555H32.5559C32.4763 21.0082 32.434 20.6024 32.434 20.1866C32.4343 17.5367 34.1293 13.5305 36.4942 11.9568Z" fill="#5CAD32"/>
<path d="M31.9271 8.04961C34.2364 8.04961 36.1501 9.74346 36.4939 11.9564C37.1269 11.5353 37.8075 11.2877 38.5168 11.2877C41.8763 11.2877 44.5996 16.8271 44.5996 20.1865C44.5996 21.3224 44.2874 22.385 43.7454 23.2947H47.5775C48.7251 22.1513 49.4354 20.5694 49.4354 18.8215C49.4354 16.2499 47.8974 14.0389 45.6918 13.054C46.1715 12.3045 46.4507 11.4144 46.4507 10.4585C46.4507 7.79502 44.2915 5.63584 41.628 5.63584C40.4295 5.63584 39.334 6.07402 38.4904 6.79766C37.7523 5.08027 36.0459 3.87744 34.0581 3.87744C31.3946 3.87744 29.2354 6.03662 29.2354 8.7001C29.2354 8.7708 29.2377 8.84092 29.2407 8.91094C29.9979 8.36895 30.925 8.04961 31.9271 8.04961Z" fill="#98DB7C"/>
<path d="M23.9371 23.2947C23.9784 23.0401 24.0008 22.7791 24.0008 22.5129C24.0008 20.0601 22.1789 18.0339 19.8147 17.7107C19.8334 17.5379 19.8437 17.3625 19.8437 17.1847C19.8437 14.5069 17.6729 12.3362 14.9952 12.3362C14.4959 12.3362 14.0144 12.4119 13.561 12.5521C12.703 11.1886 11.1856 10.2817 9.45557 10.2817C6.77793 10.2817 4.60723 12.4524 4.60723 15.1302C4.60723 15.5548 4.66221 15.9664 4.76465 16.3589C2.93877 17.0543 1.64111 18.8203 1.64111 20.8903C1.64111 21.7656 1.87422 22.5859 2.27998 23.2948H23.9371V23.2947Z" fill="#98DB7C"/>
<path d="M39.416 47.0298H10.584C8.40761 47.0298 6.48944 45.6009 5.86649 43.5155L0.0215725 23.9476C-0.0756931 23.6221 0.168155 23.2948 0.507901 23.2948H49.4922C49.8319 23.2948 50.0757 23.622 49.9785 23.9476L44.1335 43.5155C43.5105 45.6009 41.5924 47.0298 39.416 47.0298Z" fill="#FF4755"/>
<path d="M2.27959 23.2947H23.9367C23.978 23.0401 24.0004 22.7791 24.0004 22.5129C24.0004 22.1539 23.9604 21.8044 23.8862 21.4677H1.67676C1.75527 22.126 1.96455 22.7442 2.27959 23.2947Z" fill="#82D361"/>
<path d="M33.2885 23.2947H43.7458C44.078 22.7371 44.3234 22.1217 44.464 21.4675H32.5703C32.7108 22.1217 32.9563 22.7371 33.2885 23.2947Z" fill="#E5D6BE"/>
<path d="M46.7615 21.4681C46.5044 21.4681 46.2999 21.258 46.3001 21.001C46.3001 20.9994 46.3001 20.9978 46.3001 20.9962C46.3001 16.6979 42.8156 9.61028 38.5172 9.61028C38.2019 9.61028 37.8911 9.64944 37.5855 9.7218C36.6827 7.94768 34.8399 6.73206 32.7129 6.73206C31.4201 6.73206 30.2329 7.18176 29.2975 7.93235C29.2574 8.18264 29.2358 8.43909 29.2358 8.70061C29.2358 8.77131 29.2382 8.84143 29.2412 8.91145C29.9982 8.36956 30.9253 8.05012 31.9274 8.05012C34.2368 8.05012 36.1505 9.74397 36.4943 11.957C37.1272 11.5358 37.8079 11.2882 38.5172 11.2882C41.8767 11.2882 44.6 16.8276 44.6 20.187C44.6 20.613 44.5561 21.0286 44.4727 21.4298C44.4699 21.443 44.4684 21.4555 44.4664 21.4682H44.464C44.3234 22.1224 44.078 22.7376 43.7458 23.2953H47.5779C48.1049 22.7702 48.5382 22.1519 48.8543 21.4682H46.7615V21.4681Z" fill="#82D361"/>
<path d="M40.4623 45.2024H9.5377C8.18037 45.2024 6.91729 44.6835 5.96582 43.8099C6.6748 45.7338 8.51191 47.0296 10.584 47.0296H39.416C41.4881 47.0296 43.3252 45.7338 44.0342 43.8099C43.0828 44.6835 41.8197 45.2024 40.4623 45.2024Z" fill="#FC2B3A"/>
<path d="M40.7104 22.3882C41.9253 21.1733 41.9253 19.2036 40.7104 17.9888C39.4956 16.7739 37.5259 16.7739 36.311 17.9888C35.0962 19.2036 35.0962 21.1733 36.311 22.3882C37.5259 23.603 39.4956 23.603 40.7104 22.3882Z" fill="#FFE55A"/>
<path d="M41.352 21.4677H35.6816C36.17 22.5467 37.2554 23.2978 38.5168 23.2978C39.7782 23.2978 40.8636 22.5467 41.352 21.4677Z" fill="#FFD91D"/>
<path d="M32.5129 23.295C32.595 22.9624 32.6394 22.6148 32.6394 22.2569C32.6394 19.8714 30.7055 17.9375 28.3199 17.9375C25.9344 17.9375 24.0005 19.8714 24.0005 22.2569C24.0005 22.6149 24.0448 22.9624 24.127 23.295H32.5129Z" fill="#FF4755"/>
<path d="M24.0005 22.2566C24.0005 22.6146 24.0448 22.9621 24.127 23.2947H32.513C32.5951 22.9621 32.6394 22.6145 32.6394 22.2566C32.6394 21.987 32.6136 21.7236 32.5663 21.4677H24.0737C24.0265 21.7235 24.0005 21.987 24.0005 22.2566Z" fill="#FC2B3A"/>
</g>
<defs>
<clipPath id="clip0">
<rect width="50" height="50" fill="white"/>
</clipPath>
</defs>
</svg>
