<svg width="18" height="18" viewBox="0 0 18 18" fill="none" xmlns="http://www.w3.org/2000/svg">
<path d="M8.99984 17.3333C4.39746 17.3333 0.666504 13.6024 0.666504 8.99999C0.666504 4.39762 4.39746 0.666656 8.99984 0.666656C13.6022 0.666656 17.3332 4.39762 17.3332 8.99999C17.3281 13.6003 13.6001 17.3283 8.99984 17.3333ZM2.33317 9.14332C2.3726 12.811 5.36743 15.7579 9.03529 15.7383C12.7031 15.7185 15.6661 12.7396 15.6661 9.07166C15.6661 5.40374 12.7031 2.4248 9.03529 2.40499C5.36743 2.38537 2.3726 5.33229 2.33317 8.99999V9.14332ZM9.83317 13.1667H8.1665V9.83332H4.83317V8.16666H8.1665V4.83332H9.83317V8.16666H13.1665V9.83332H9.83317V13.1667Z" fill="#FF003D"/>
</svg>
