<svg width="51" height="50" viewBox="0 0 51 50" fill="none" xmlns="http://www.w3.org/2000/svg">
<g clip-path="url(#clip0)">
<path d="M25.0488 49.2596C38.4753 49.2596 49.3597 38.3964 49.3597 24.996C49.3597 11.5956 38.4753 0.732422 25.0488 0.732422C11.6222 0.732422 0.737793 11.5956 0.737793 24.996C0.737793 38.3964 11.6222 49.2596 25.0488 49.2596Z" fill="#F7F0E6"/>
<path d="M25.0487 46.7496C37.0865 46.7496 46.8451 37.0101 46.8451 24.9958C46.8451 12.9815 37.0865 3.24194 25.0487 3.24194C13.011 3.24194 3.25244 12.9815 3.25244 24.9958C3.25244 37.0101 13.011 46.7496 25.0487 46.7496Z" fill="#EEE2D4"/>
<path d="M25.0487 44.2402C35.6977 44.2402 44.3304 35.6243 44.3304 24.9961C44.3304 14.3679 35.6977 5.75208 25.0487 5.75208C14.3998 5.75208 5.76709 14.3679 5.76709 24.9961C5.76709 35.6243 14.3998 44.2402 25.0487 44.2402Z" fill="#FFDC8C"/>
<path d="M25.0488 5.75244C19.179 5.75244 13.9256 8.37362 10.3892 12.5033C13.7579 9.62967 18.1275 7.89062 22.9064 7.89062C33.5551 7.89062 42.1876 16.5063 42.1876 27.1343C42.1876 31.9039 40.4452 36.2649 37.566 39.6271C41.7037 36.0975 44.33 30.8544 44.33 24.996C44.3301 14.3681 35.6976 5.75244 25.0488 5.75244Z" fill="#FFCD6E"/>
<path d="M14.4387 20.3955C14.4855 20.5917 14.5549 20.8898 14.8332 21.1953C15.9498 18.2132 18.3341 15.8571 21.3376 14.7748C21.1043 14.5941 20.8152 14.4892 20.4238 14.4222C20.223 14.3878 20.0291 14.3403 19.8348 14.3173C17.653 14.0585 15.5874 13.2023 14.0338 11.6517L3.58451 1.22281C2.86514 0.503871 1.65155 0.575648 1.03081 1.43805C0.54314 2.11539 0.68854 3.0649 1.27944 3.65474L11.6628 14.0179C13.2164 15.5685 14.0743 17.63 14.3336 19.8075C14.3568 20.0015 14.3916 20.1976 14.4387 20.3955Z" fill="#EEE2D4"/>
<path d="M28.5051 39.2133C31.9191 38.789 34.6252 36.0884 35.0501 32.681C35.1122 32.1826 34.7152 31.7412 34.212 31.7412H28.4018C27.9388 31.7412 27.5635 32.1158 27.5635 32.5779V38.3768C27.5635 38.8791 28.0057 39.2754 28.5051 39.2133Z" fill="white"/>
<path d="M40.0226 23.7884C38.6139 21.9619 36.127 21.3196 34.0074 22.2347C33.6974 22.3686 33.5768 22.7481 33.7482 23.0386L35.7272 26.393C35.8849 26.6603 36.2298 26.7493 36.4976 26.592L39.8585 24.6169C40.1496 24.4458 40.2287 24.0556 40.0226 23.7884Z" fill="#F7F0E6"/>
<path d="M24.9623 37.3436C23.9094 35.9783 22.0504 35.4982 20.4661 36.1822C20.2344 36.2823 20.1443 36.566 20.2724 36.7831L21.7516 39.2904C21.8695 39.4902 22.1273 39.5568 22.3275 39.4392L24.8397 37.9628C25.0573 37.835 25.1164 37.5433 24.9623 37.3436Z" fill="#F7F0E6"/>
<path d="M21.225 33.0628L17.0697 33.6126C16.6107 33.6733 16.1894 33.3512 16.1286 32.8932L15.5777 28.746C15.5168 28.2879 15.8396 27.8674 16.2985 27.8067L20.4538 27.2569C20.9128 27.1961 21.3341 27.5183 21.3949 27.9763L21.9458 32.1235C22.0068 32.5816 21.684 33.0022 21.225 33.0628Z" fill="white"/>
<path d="M28.59 22.7186L25.2495 21.2649C24.8252 21.0803 24.6311 20.5872 24.8162 20.1636L26.2727 16.8296C26.4577 16.4061 26.9518 16.2124 27.3762 16.3971L30.7167 17.8508C31.1411 18.0355 31.3351 18.5285 31.1501 18.9522L29.6935 22.2861C29.5085 22.7097 29.0145 22.9033 28.59 22.7186Z" fill="white"/>
<path d="M29.4145 31.8613C29.407 31.8202 29.4192 31.7818 29.4167 31.7412H28.4018C27.9388 31.7412 27.5635 32.1158 27.5635 32.5779V38.3768C27.5635 38.8791 28.0057 39.2754 28.5051 39.2133C29.2617 39.1193 29.9805 38.9079 30.6504 38.6074L29.4145 31.8613Z" fill="#F7F0E6"/>
<path d="M18.2393 27.5499L16.2981 27.8068C15.8391 27.8675 15.5164 28.2881 15.5772 28.7461L16.128 32.8933C16.1889 33.3514 16.6103 33.6735 17.0692 33.6127L17.387 33.5707L18.2393 27.5499Z" fill="#F7F0E6"/>
<path d="M27.6847 16.8795C27.6968 16.7687 27.732 16.6662 27.782 16.5738L27.3757 16.3971C26.9514 16.2124 26.4572 16.4061 26.2722 16.8296L24.8157 20.1636C24.6306 20.5872 24.8247 21.0803 25.249 21.2649L27.1184 22.0784L27.6847 16.8795Z" fill="#F7F0E6"/>
<path d="M27.5633 28.3429C28.9522 28.3429 30.0782 27.2191 30.0782 25.8328C30.0782 24.4465 28.9522 23.3228 27.5633 23.3228C26.1743 23.3228 25.0483 24.4465 25.0483 25.8328C25.0483 27.2191 26.1743 28.3429 27.5633 28.3429Z" fill="#FFBE50"/>
<path d="M28.8212 27.0878C27.4323 27.0878 26.3063 25.964 26.3063 24.5777C26.3063 24.2099 26.3899 23.8632 26.5324 23.5483C25.6591 23.9419 25.0488 24.8143 25.0488 25.8327C25.0488 27.2189 26.1748 28.3428 27.5638 28.3428C28.5842 28.3428 29.4583 27.7337 29.8526 26.8621C29.5372 27.0043 29.1898 27.0878 28.8212 27.0878Z" fill="#FF9B4B"/>
<path d="M13.3119 30.0162C14.2381 30.0162 14.9889 29.2668 14.9889 28.3424C14.9889 27.418 14.2381 26.6686 13.3119 26.6686C12.3856 26.6686 11.6348 27.418 11.6348 28.3424C11.6348 29.2668 12.3856 30.0162 13.3119 30.0162Z" fill="#FFBE50"/>
<path d="M25.8871 13.283C26.8133 13.283 27.5641 12.5336 27.5641 11.6091C27.5641 10.6847 26.8133 9.9353 25.8871 9.9353C24.9608 9.9353 24.21 10.6847 24.21 11.6091C24.21 12.5336 24.9608 13.283 25.8871 13.283Z" fill="#FFBE50"/>
<path d="M42.7584 7.32878C38.028 2.6076 31.7387 0.00751721 25.0489 0.00751721C19.2338 0.00751721 13.5998 2.02919 9.12595 5.70974L4.1116 0.705171C3.61092 0.204977 2.91895 -0.0495138 2.21123 0.00800549C1.50468 0.0652318 0.860162 0.43066 0.442552 1.01074C-0.234839 1.95185 -0.0948209 3.31122 0.768382 4.17264L5.71717 9.11178C2.02865 13.5779 0.00390625 19.1966 0.00390625 25.0038C0.00390625 31.6805 2.60907 37.9576 7.33946 42.6787C12.0699 47.3999 18.3591 50 25.0489 50C31.7387 50 38.028 47.3999 42.7584 42.6787C47.4888 37.9576 50.0939 31.6805 50.0939 25.0038C50.0939 18.3271 47.4888 12.0499 42.7584 7.32878ZM1.63462 1.86532C1.80272 1.63183 2.04958 1.49071 2.32982 1.46806C2.60663 1.44511 2.87756 1.54491 3.07345 1.74071L12.8475 11.4958C14.6006 13.2454 16.9071 14.3648 19.5588 14.7673C17.5364 15.8487 15.8745 17.506 14.792 19.5216C14.3883 16.8762 13.2669 14.5751 11.5145 12.8262L1.80624 3.1368C1.45155 2.7829 1.3762 2.22431 1.63462 1.86532ZM41.7205 41.6429C37.2673 46.0874 31.3466 48.5351 25.0488 48.5351C18.751 48.5351 12.8303 46.0874 8.37713 41.6429C3.92393 37.1984 1.4716 31.2891 1.4716 25.0037C1.4716 19.5841 3.34556 14.3395 6.7607 10.1532L9.29356 12.6811C3.45975 20.0904 3.61347 30.5973 9.72242 37.8449C9.86753 38.0171 10.0753 38.1058 10.2844 38.1058C10.4511 38.1058 10.6188 38.0494 10.7564 37.9338C11.0665 37.6734 11.1065 37.2114 10.8455 36.9019C5.22314 30.2317 5.04545 20.5826 10.34 13.7256L10.4766 13.862C12.1828 15.5648 13.2084 17.8848 13.4426 20.5712C13.4608 20.7804 13.4892 20.9924 13.5269 21.2014C13.5843 21.5199 13.6676 21.8374 13.7739 22.1454C13.7303 22.3173 13.6891 22.4901 13.6533 22.6649C13.572 23.0612 13.8281 23.4482 14.2251 23.5293C14.2747 23.5395 14.3242 23.5443 14.373 23.5443C14.7143 23.5443 15.02 23.3054 15.0912 22.9586C15.8908 19.0586 18.9226 15.9759 22.8152 15.105C23.2107 15.0165 23.4594 14.6248 23.3707 14.2301C23.2821 13.8354 22.8892 13.5872 22.4941 13.6756C22.3897 13.699 22.2865 13.7251 22.1833 13.7512C21.8747 13.6454 21.5583 13.5617 21.2392 13.5043C21.0298 13.4667 20.8172 13.4384 20.6078 13.4203C17.9161 13.1865 15.5916 12.1629 13.8854 10.4601L13.7488 10.3238C20.6192 5.03953 30.2871 5.21687 36.9703 10.8283C37.1079 10.9438 37.2756 11.0002 37.4424 11.0002C37.6515 11.0002 37.8592 10.9115 38.0043 10.7393C38.2652 10.4298 38.2253 9.96773 37.9151 9.70738C30.6535 3.61024 20.1262 3.45682 12.7022 9.27936L10.169 6.75104C14.3626 3.34315 19.6218 1.47265 25.0489 1.47265C31.3466 1.47265 37.2674 3.92029 41.7206 8.36481C46.1738 12.8093 48.6262 18.7185 48.6262 25.004C48.6262 31.2895 46.1737 37.1984 41.7205 41.6429Z" fill="black"/>
<path d="M40.3749 12.1627C40.1139 11.8531 39.6511 11.8133 39.341 12.0737C39.0308 12.3342 38.9909 12.7962 39.2518 13.1057C42.2286 16.6373 43.7651 21.1312 43.5783 25.7599C43.3903 30.4158 41.4674 34.7959 38.1636 38.0933C34.8598 41.3906 30.4712 43.3098 25.8061 43.4974C21.169 43.684 16.6657 42.1505 13.1272 39.1795C12.8171 38.9191 12.3542 38.959 12.0932 39.2684C11.8323 39.5779 11.8722 40.04 12.1824 40.3004C15.7937 43.3325 20.3348 44.9775 25.0493 44.9775C25.3207 44.9775 25.5927 44.972 25.8652 44.9611C30.8998 44.7587 35.6361 42.6875 39.2014 39.1291C42.7668 35.5707 44.842 30.8437 45.0449 25.8189C45.2464 20.8244 43.588 15.9745 40.3749 12.1627Z" fill="black"/>
<path d="M34.2124 31.0088H28.4022C27.5354 31.0088 26.8301 31.7127 26.8301 32.5778V38.3767C26.8301 38.8281 27.0251 39.2588 27.365 39.5585C27.6541 39.8132 28.0245 39.9519 28.4041 39.9519C28.468 39.9519 28.5322 39.9479 28.5962 39.94C32.357 39.4727 35.3106 36.5249 35.7788 32.7714C35.8342 32.3276 35.6949 31.8797 35.3966 31.5426C35.0963 31.2034 34.6647 31.0088 34.2124 31.0088ZM28.4148 38.4865C28.3861 38.49 28.3599 38.4813 28.3365 38.4606C28.3188 38.445 28.2977 38.4178 28.2977 38.3768V32.5779C28.2977 32.5205 28.3445 32.4737 28.4021 32.4737H34.2123C34.2534 32.4737 34.2807 32.4948 34.2963 32.5125C34.317 32.5359 34.3257 32.5622 34.3222 32.5905C33.9373 35.6776 31.508 38.1021 28.4148 38.4865Z" fill="black"/>
<path d="M40.8483 24.3749C40.9189 24.0108 40.8301 23.6342 40.6045 23.3415C38.9852 21.242 36.1527 20.5105 33.7163 21.5624C33.3767 21.7089 33.116 21.9954 33.0008 22.3479C32.885 22.7024 32.927 23.0895 33.1162 23.4101L35.0951 26.7644C35.2708 27.0623 35.5523 27.2741 35.8876 27.3607C35.9959 27.3886 36.1057 27.4025 36.2146 27.4025C36.4431 27.4025 36.6683 27.3417 36.8702 27.223L40.2312 25.2479C40.5523 25.0591 40.7773 24.741 40.8483 24.3749ZM36.273 25.8741L34.4792 22.8336C36.1956 22.1813 38.1355 22.6824 39.3192 24.0838L36.273 25.8741Z" fill="black"/>
<path d="M20.175 35.5098C19.8725 35.6404 19.6403 35.8954 19.5376 36.2094C19.4346 36.5247 19.4721 36.8691 19.6404 37.1545L21.1196 39.662C21.3346 40.0263 21.7206 40.2292 22.1164 40.2292C22.3153 40.2292 22.5168 40.1779 22.7002 40.0701L25.2124 38.5937C25.4982 38.4258 25.6984 38.1427 25.7615 37.817C25.8245 37.4929 25.7452 37.1574 25.5442 36.8967C24.2821 35.2601 22.0743 34.6898 20.175 35.5098ZM22.2254 38.6492L21.0941 36.7316C22.1787 36.4067 23.3561 36.7107 24.1467 37.5201L22.2254 38.6492Z" fill="black"/>
<path d="M26.4662 15.7035C26.0753 15.8567 25.7676 16.1526 25.5997 16.5369L24.1432 19.8708C23.7967 20.664 24.1614 21.5905 24.956 21.9363L26.7174 22.7028C25.3352 23.0754 24.3149 24.3372 24.3149 25.8329C24.3149 27.6208 25.7724 29.0754 27.5637 29.0754C29.3551 29.0754 30.8125 27.6208 30.8125 25.8329C30.8125 24.8351 30.3582 23.9413 29.6456 23.3461C29.9669 23.1814 30.2197 22.9137 30.366 22.5787L31.8225 19.2448C32.169 18.4516 31.8043 17.5251 31.0097 17.1793L27.6692 15.7257C27.2844 15.5581 26.8571 15.5502 26.4662 15.7035ZM27.5637 27.6105C26.5816 27.6105 25.7826 26.813 25.7826 25.8328C25.7826 24.8527 26.5816 24.0552 27.5637 24.0552C28.5458 24.0552 29.3448 24.8527 29.3448 25.8328C29.3448 26.813 28.5458 27.6105 27.5637 27.6105ZM30.4771 18.6593L29.0206 21.9933C29.0063 22.026 28.9814 22.0414 28.963 22.0487C28.9446 22.0559 28.916 22.0614 28.8832 22.0472L25.5427 20.5935C25.5099 20.5792 25.4945 20.5544 25.4872 20.5361C25.48 20.5177 25.4744 20.489 25.4887 20.4563L26.9451 17.1223C26.9594 17.0896 26.9844 17.0741 27.0028 17.0668C27.0129 17.0629 27.0259 17.0595 27.0411 17.0595C27.0538 17.0595 27.0678 17.0619 27.0827 17.0684L30.4232 18.5221C30.4759 18.5451 30.5001 18.6066 30.4771 18.6593Z" fill="black"/>
<path d="M25.8871 14.0151C27.2163 14.0151 28.2976 12.9359 28.2976 11.6094C28.2976 10.2828 27.2163 9.20361 25.8871 9.20361C24.558 9.20361 23.4766 10.2828 23.4766 11.6094C23.4766 12.9359 24.558 14.0151 25.8871 14.0151ZM25.8871 10.6684C26.407 10.6684 26.8299 11.0904 26.8299 11.6093C26.8299 12.1281 26.407 12.5502 25.8871 12.5502C25.3673 12.5502 24.9443 12.1281 24.9443 11.6093C24.9443 11.0904 25.3673 10.6684 25.8871 10.6684Z" fill="black"/>
<path d="M15.0101 30.0487L15.4007 32.9892C15.5053 33.7771 16.1823 34.3521 16.9582 34.3521C17.0268 34.3521 17.096 34.3476 17.1659 34.3385L21.3211 33.7887C22.1805 33.6749 22.787 32.8846 22.673 32.027L22.1221 27.8799C22.0669 27.4645 21.8529 27.0952 21.5195 26.8404C21.1861 26.5855 20.7733 26.4755 20.357 26.5306L16.2017 27.0804C15.943 27.1147 15.7078 27.2111 15.5077 27.3514C15.1284 26.5182 14.2873 25.9371 13.3123 25.9371C11.9832 25.9371 10.9019 27.0163 10.9019 28.3429C10.9019 29.6694 11.9832 30.7486 13.3123 30.7486C13.9739 30.7486 14.5741 30.4811 15.0101 30.0487ZM16.3254 28.5725C16.3374 28.5568 16.3591 28.5372 16.3947 28.5325L20.5498 27.9827C20.5548 27.982 20.5596 27.9818 20.5642 27.9818C20.5924 27.9818 20.6135 27.993 20.627 28.0033C20.6427 28.0153 20.6623 28.037 20.667 28.0725L21.2179 32.2196C21.2255 32.2766 21.1852 32.3291 21.1281 32.3366L16.9729 32.8864C16.9161 32.8939 16.8632 32.8538 16.8556 32.7968L16.3047 28.6496C16.3 28.6142 16.3135 28.5881 16.3254 28.5725ZM12.3696 28.3428C12.3696 27.8239 12.7924 27.4019 13.3123 27.4019C13.8322 27.4019 14.2551 27.8239 14.2551 28.3428C14.2551 28.8616 13.8322 29.2837 13.3123 29.2837C12.7924 29.2837 12.3696 28.8616 12.3696 28.3428Z" fill="black"/>
<path d="M17.9347 23.0955L20.4497 24.7689C20.5748 24.8522 20.7162 24.892 20.8561 24.892C21.0931 24.892 21.3259 24.7774 21.4673 24.5657C21.6922 24.2292 21.6011 23.7744 21.2638 23.5501L18.7489 21.8768C18.4117 21.6524 17.9561 21.7433 17.7313 22.0799C17.5064 22.4164 17.5976 22.8712 17.9347 23.0955Z" fill="black"/>
<path d="M21.6958 21.5452C22.101 21.5452 22.4296 21.2172 22.4296 20.8127V19.1394C22.4296 18.7349 22.101 18.407 21.6958 18.407C21.2905 18.407 20.9619 18.7349 20.9619 19.1394V20.8127C20.9619 21.2172 21.2905 21.5452 21.6958 21.5452Z" fill="black"/>
<path d="M24.3066 30.8531C24.3066 31.2576 24.6352 31.5856 25.0405 31.5856H25.0488C25.4541 31.5856 25.7784 31.2576 25.7784 30.8531C25.7784 30.4487 25.4458 30.1207 25.0405 30.1207C24.6352 30.1207 24.3066 30.4486 24.3066 30.8531Z" fill="black"/>
<path d="M33.4321 14.8521C33.6198 14.8521 33.8077 14.7806 33.951 14.6376L34.7892 13.8008C35.0758 13.5148 35.0758 13.051 34.7892 12.7651C34.5026 12.479 34.0379 12.4791 33.7514 12.7651L32.9132 13.6018C32.6266 13.8878 32.6266 14.3516 32.9132 14.6376C33.0564 14.7806 33.2443 14.8521 33.4321 14.8521Z" fill="black"/>
<path d="M37.1044 19.6572C37.2477 19.8002 37.4355 19.8718 37.6233 19.8718C37.8111 19.8718 37.9989 19.8003 38.1422 19.6572C38.4288 19.3712 38.4288 18.9074 38.1422 18.6215L36.4656 16.9482C36.179 16.6621 35.7143 16.6621 35.4278 16.9482C35.1412 17.2342 35.1412 17.698 35.4278 17.9839L37.1044 19.6572Z" fill="black"/>
<path d="M38.7812 29.4983L37.1046 31.1716C36.818 31.4576 36.818 31.9214 37.1046 32.2073C37.2478 32.3503 37.4357 32.4219 37.6235 32.4219C37.8112 32.4219 37.9991 32.3504 38.1423 32.2073L39.8189 30.534C40.1055 30.248 40.1055 29.7842 39.8189 29.4983C39.5324 29.2123 39.0678 29.2123 38.7812 29.4983Z" fill="black"/>
<path d="M32.5937 29.0754H32.602C33.0073 29.0754 33.3317 28.7475 33.3317 28.343C33.3317 27.9385 32.999 27.6106 32.5937 27.6106C32.1884 27.6106 31.8599 27.9385 31.8599 28.343C31.8599 28.7475 32.1884 29.0754 32.5937 29.0754Z" fill="black"/>
<path d="M30.0703 14.0151H30.0786C30.4839 14.0151 30.8083 13.6872 30.8083 13.2827C30.8083 12.8782 30.4756 12.5503 30.0703 12.5503C29.665 12.5503 29.3364 12.8782 29.3364 13.2827C29.3364 13.6872 29.665 14.0151 30.0703 14.0151Z" fill="black"/>
<path d="M20.0107 9.20349C19.6054 9.20349 19.2769 9.53142 19.2769 9.93591C19.2769 10.3404 19.6054 10.6683 20.0107 10.6683H20.0191C20.4244 10.6683 20.7488 10.3404 20.7488 9.93591C20.7488 9.53142 20.416 9.20349 20.0107 9.20349Z" fill="black"/>
<path d="M15.3082 36.1921C15.0216 36.4781 15.0216 36.9419 15.3082 37.2278L16.1465 38.0644C16.2897 38.2074 16.4776 38.2789 16.6653 38.2789C16.8531 38.2789 17.041 38.2075 17.1842 38.0644C17.4708 37.7784 17.4708 37.3146 17.1842 37.0287L16.346 36.1921C16.0595 35.906 15.5948 35.906 15.3082 36.1921Z" fill="black"/>
<path d="M11.5312 24.1598V22.4864C11.5312 22.082 11.2026 21.754 10.7973 21.754C10.392 21.754 10.0635 22.082 10.0635 22.4864V24.1598C10.0635 24.5643 10.392 24.8922 10.7973 24.8922C11.2026 24.8922 11.5312 24.5643 11.5312 24.1598Z" fill="black"/>
</g>
<defs>
<clipPath id="clip0">
<rect width="50.0976" height="50" fill="white"/>
</clipPath>
</defs>
</svg>
