<svg width="121" height="121" viewBox="0 0 121 121" fill="none" xmlns="http://www.w3.org/2000/svg">
<circle cx="60.5" cy="60.5" r="60.5" fill="#096D47"/>
<path d="M33.9919 33.3158L37.6847 22.4035C37.9683 21.5654 38.7647 21 39.6616 21H81.3394C82.2364 21 83.0327 21.5654 83.3164 22.4035L87.0092 33.3158H89.675C90.8259 33.3158 91.7589 34.2348 91.7589 35.3684V43.5789C91.7589 44.7126 90.8259 45.6316 89.675 45.6316H87.295L79.2313 97.2595C79.0749 98.2608 78.2002 99 77.1716 99H43.8294C42.8009 99 41.9261 98.2608 41.7698 97.2595L33.706 45.6316H31.3261C30.1752 45.6316 29.2422 44.7126 29.2422 43.5789V35.3684C29.2422 34.2348 30.1752 33.3158 31.3261 33.3158H33.9919ZM38.3851 33.3158H82.6159L79.8374 25.1053H41.1636L38.3851 33.3158ZM87.5911 37.4211H33.41V41.5263H87.5911V37.4211ZM37.9229 45.6316L45.6172 94.8947H75.3838L83.0782 45.6316H37.9229Z" fill="white"/>
</svg>
