<svg width="453" height="117" viewBox="0 0 453 117" fill="none" xmlns="http://www.w3.org/2000/svg">
<rect x="0.480469" y="0.0927734" width="451.842" height="116.547" rx="45" fill="#1ED760"/>
<path d="M140.752 96.9165C138.798 95.9468 136.533 95.8587 134.49 95.2417C118.722 90.5699 107.085 75.8054 108.151 58.2202C109.217 40.3265 122.364 26.2672 139.686 23.7991C162.339 20.5377 182.548 37.9025 182.371 60.4239C182.238 78.4498 168.779 93.6991 150.569 96.4316C150.124 96.5198 149.503 96.2553 149.236 96.8724C148.659 96.8724 148.037 96.8724 147.459 96.8724C145.994 96.1672 144.483 96.1672 143.018 96.8724C142.218 96.9164 141.508 96.9165 140.752 96.9165ZM139.864 42.8828C134.134 42.8387 128.538 43.4116 122.986 44.866C120.41 45.5712 119.122 47.246 119.61 49.1852C120.143 51.3448 122.053 52.2263 124.718 51.5211C129.16 50.3311 133.69 49.7582 138.265 49.7141C148.259 49.6259 157.942 50.9922 166.914 55.7962C169.179 57.0302 171.578 56.1928 172.155 54.0773C172.732 52.0059 171.8 50.5956 169.934 49.6259C160.518 44.6016 150.391 42.9268 139.864 42.8828ZM167.18 64.8753C167.047 63.5971 166.425 62.7597 165.404 62.1868C162.872 60.6883 160.207 59.4543 157.364 58.5287C146.66 54.9588 135.867 54.4299 124.896 57.3387C123.119 57.8236 121.92 58.6609 122.098 60.6442C122.275 62.5835 123.963 63.4649 126.273 62.8479C132.802 61.085 139.42 60.8646 146.082 61.7461C151.857 62.4953 157.275 64.2142 162.383 67.0348C164.737 68.357 167.269 67.1671 167.18 64.8753ZM138.887 67.4756C134.889 67.3434 130.448 68.0485 126.051 68.93C124.54 69.2385 123.297 69.9877 123.652 71.7066C124.052 73.4695 125.34 73.8221 127.072 73.4255C130.67 72.5881 134.312 72.1033 137.999 72.0151C145.194 71.8388 152.079 73.1169 158.386 76.775C159.807 77.6124 161.273 77.8768 162.206 76.2021C163.05 74.6595 162.161 73.6017 160.784 72.8084C154.166 69.0181 147.015 67.3874 138.887 67.4756Z" fill="white"/>
<path d="M316.952 57.3827C316.952 64.0818 316.952 70.4724 316.952 76.9952C314.731 77.3038 312.733 77.2156 310.467 77.0393C310.467 70.4724 310.467 63.9937 310.467 57.5149C309.312 57.3827 308.38 57.2505 307.358 57.1623C307.092 55.3553 307.18 53.6365 307.314 51.9617C308.202 51.1684 309.268 51.8295 310.378 51.2124C310.512 47.9951 310.645 44.5133 314.243 42.7504C317.174 41.296 320.239 41.6486 323.348 42.5741C323.748 44.337 323.57 46.0559 323.481 47.907C321.483 48.0833 319.439 46.6288 317.707 48.3036C316.952 49.0529 316.863 50.1106 316.952 51.4769C320.194 51.4769 323.481 51.4769 326.901 51.4769C329.211 57.3386 331.432 63.0241 333.786 69.1061C335.962 63.0681 337.961 57.3827 340.004 51.7413C342.27 51.7413 344.357 51.7413 346.4 51.7413C346.711 52.5787 346.311 53.1517 346.089 53.7246C343.069 61.4815 340.049 69.1943 337.028 76.9512C336.762 77.6123 336.495 78.3174 336.184 78.9785C333.386 85.0166 327.701 86.6473 321.749 82.901C322.415 81.4466 323.082 79.9481 323.748 78.4937C329.122 79.243 329.122 79.243 330.588 76.6867C327.923 70.3402 325.214 63.9055 322.46 57.4708C320.639 57.1623 318.995 57.3386 316.952 57.3827Z" fill="white"/>
<path d="M228.874 74.3066C228.874 77.9647 228.874 81.182 228.874 84.5316C226.653 84.5316 224.654 84.5316 222.522 84.5316C222.522 73.6455 222.522 62.7594 222.522 51.653C224.521 51.4326 226.564 51.4767 228.474 51.653C229.274 52.4463 228.608 53.46 229.096 54.2092C235.892 49.8901 241.755 50.2426 245.974 55.2229C250.238 60.2913 250.016 69.2382 245.441 73.9981C241.133 78.5817 234.915 78.8461 228.874 74.3066ZM242.288 64.3901C242.332 60.071 239.623 56.8977 235.759 56.8095C231.806 56.6773 228.652 60.071 228.696 64.4342C228.741 68.5771 231.672 71.8385 235.448 71.9266C239.445 71.9707 242.288 68.8856 242.288 64.3901Z" fill="white"/>
<path d="M193.386 71.9273C194.763 70.2966 196.006 68.8862 197.206 67.4759C198.36 67.7403 198.982 68.5336 199.737 69.0625C202.713 71.134 206 71.9713 209.598 71.4865C211.597 71.2221 213.151 70.2966 213.373 68.137C213.595 66.1096 212.174 65.14 210.486 64.523C207.199 63.2449 203.602 62.8923 200.404 61.3938C194.763 58.7494 193.075 52.1825 196.806 47.2904C197.783 45.9682 199.115 45.0426 200.581 44.3375C206.089 41.7372 214.484 43.1916 219.014 47.5989C218.17 49.3177 216.927 50.8162 215.638 52.3588C213.906 51.4333 212.352 50.2874 210.531 49.6703C208.621 49.0092 206.622 48.8329 204.623 49.2296C203.024 49.5822 201.78 50.4636 201.558 52.2706C201.381 53.9895 202.358 55.0913 203.824 55.6202C205.689 56.3254 207.599 56.8102 209.509 57.4272C211.108 57.9561 212.751 58.3968 214.306 59.0579C218.037 60.6445 220.213 63.3771 220.08 67.52C219.947 71.7069 218.037 74.8361 214.039 76.4227C208.132 78.8027 202.491 77.7009 197.072 74.748C195.784 73.9987 194.585 73.1173 193.386 71.9273Z" fill="white"/>
<path d="M278.31 64.4348C278.265 71.9272 272.269 77.6567 264.496 77.6567C256.768 77.6567 250.683 71.7509 250.771 64.3025C250.86 56.8542 257.079 50.9484 264.629 50.9924C272.402 51.0806 278.354 56.8982 278.31 64.4348ZM264.718 71.9272C268.849 71.8831 271.869 68.6217 271.78 64.3025C271.692 59.9393 268.627 56.8982 264.452 56.8982C260.321 56.9423 257.301 60.1156 257.39 64.4788C257.478 68.7539 260.632 71.9713 264.718 71.9272Z" fill="white"/>
<path d="M295.054 70.8686C295.054 72.8519 295.054 74.4826 295.054 76.1574C292.878 77.4796 290.568 77.8322 288.17 77.5237C284.394 77.0389 282.351 75.0115 282.129 71.1771C281.951 67.475 281.996 63.7288 281.951 60.0266C281.951 59.2333 281.951 58.44 281.951 57.7789C280.974 57.0737 279.997 57.5585 278.931 57.0737C278.531 55.443 278.709 53.6801 278.842 52.0053C279.731 51.3001 280.708 51.829 281.685 51.3883C282.351 49.405 281.552 47.2013 282.174 44.9536C284.172 44.9536 286.127 44.9536 288.259 44.9536C288.925 46.981 288.214 49.2287 288.747 51.6087C290.835 51.6087 292.967 51.6087 295.188 51.6087C295.188 53.592 295.188 55.3108 295.188 57.1178C293.1 57.7789 290.924 57.0737 288.658 57.6026C288.658 61.6573 288.614 65.7121 288.703 69.7668C288.747 71.1771 289.813 71.706 291.146 71.7501C292.389 71.6619 293.589 71.2212 295.054 70.8686Z" fill="white"/>
<path d="M304.293 77.0841C302.205 77.0841 300.34 77.0841 298.208 77.0841C298.208 68.6662 298.208 60.2923 298.208 51.7861C300.162 51.7861 302.117 51.7861 304.293 51.7861C304.293 60.0719 304.293 68.4899 304.293 77.0841Z" fill="white"/>
<path d="M305.36 44.3373C305.36 46.6291 303.672 48.3039 301.362 48.348C299.052 48.392 297.276 46.7173 297.231 44.4695C297.187 42.1337 298.964 40.3267 301.318 40.3267C303.627 40.3707 305.315 42.0455 305.36 44.3373Z" fill="white"/>
</svg>
