<svg width="378" height="214" viewBox="0 0 378 214" fill="none" xmlns="http://www.w3.org/2000/svg">
<path d="M328.065 153.251L367.87 87.2053L285.591 8.8879L289.51 37.9877L278.921 39.3266L22.5939 74.1896L38.6862 192.653L305.582 156.261L309.398 184.414L328.065 153.251Z" fill="#D1B8F6"/>
<path d="M93.2423 110.291L89.7178 114.424C88.5826 113.251 87.1001 112.794 85.2703 113.053C84.3197 113.187 83.4773 113.572 82.7432 114.209C82.0295 114.819 81.7431 115.623 81.884 116.621C81.978 117.287 82.3047 117.798 82.8642 118.155C83.4474 118.509 84.3125 118.799 85.4593 119.025C87.8785 119.507 89.7407 120.25 91.0459 121.253C92.3714 122.23 93.1634 123.633 93.4218 125.463C93.6266 126.912 93.5006 128.251 93.0438 129.479C92.5837 130.683 91.8761 131.68 90.9211 132.469C89.9899 133.255 88.952 133.886 87.8074 134.363C86.6662 134.864 85.4658 135.203 84.2063 135.381C82.3289 135.646 80.4759 135.568 78.6471 135.148C76.8388 134.7 75.3585 133.916 74.2063 132.794L78.0873 128.61C78.6937 129.3 79.5177 129.814 80.5592 130.151C81.6006 130.489 82.6204 130.587 83.6185 130.446C84.7592 130.285 85.6864 129.9 86.4001 129.29C87.1105 128.657 87.3935 127.829 87.2492 126.807C87.1351 125.999 86.7084 125.381 85.9692 124.952C85.2537 124.52 84.2106 124.17 82.8398 123.903C80.848 123.53 79.2588 122.918 78.0723 122.068C76.8823 121.194 76.1564 119.83 75.8947 117.976C75.5389 115.457 76.2279 113.299 77.9618 111.503C79.6923 109.683 82.0072 108.569 84.9064 108.159C86.4273 107.945 87.9545 108.032 89.488 108.421C91.042 108.783 92.2934 109.407 93.2423 110.291ZM120.112 129.619L113.874 130.5L112.308 125.595L102.577 126.969L100.257 132.423L93.4842 133.38L105.996 105.872L111.771 105.056L120.112 129.619ZM111.028 120.904L108.445 112.143L104.433 121.835L111.028 120.904ZM144.239 100.47L132.76 127.833L126.522 128.714L119.108 104.02L125.417 103.129L129.925 120.889L130.068 120.869L137.359 101.442L144.239 100.47ZM162.305 123.66L145.123 126.086L146.015 100.22L162.163 97.939L161.986 103.127L151.506 104.607L151.34 109.611L161.321 108.201L161.141 113.099L151.16 114.509L150.998 120.058L162.476 118.437L162.305 123.66ZM203.651 117.82L197.841 118.641L198.604 100.1L198.461 100.12L191.211 119.577L187.04 120.166L181.137 102.567L180.994 102.587L180.517 121.088L174.956 121.873L175.848 96.0062L184.153 94.8332L189.387 110.782L189.53 110.762L195.738 93.197L204.543 91.9535L203.651 117.82ZM221.032 88.9702C224.811 88.4365 227.924 89.027 230.372 90.7415C232.843 92.4527 234.319 95.0074 234.799 98.4057C235.41 102.731 234.523 106.577 232.138 109.943C229.774 113.283 226.441 115.256 222.14 115.864C218.338 116.401 215.189 115.815 212.694 114.107C210.222 112.396 208.746 109.841 208.266 106.443C207.659 102.142 208.559 98.3062 210.968 94.9363C213.376 91.5664 216.731 89.5777 221.032 88.9702ZM221.706 110.471C224.225 110.116 226.11 108.88 227.363 106.764C228.615 104.648 229.06 102.307 228.698 99.7401C228.439 97.9102 227.656 96.4817 226.347 95.4546C225.035 94.4038 223.381 94.0193 221.385 94.3012C218.914 94.6503 217.03 95.898 215.733 98.0444C214.457 100.164 213.998 102.495 214.358 105.038C214.616 106.867 215.401 108.308 216.713 109.359C218.021 110.386 219.686 110.757 221.706 110.471ZM238.555 112.891L239.447 87.0239L248.786 85.7048C250.26 85.4967 251.702 85.499 253.114 85.7117C254.549 85.921 255.906 86.3475 257.185 86.991C258.463 87.6345 259.548 88.6205 260.438 89.9491C261.349 91.2505 261.934 92.8161 262.192 94.6459C262.81 99.0185 261.859 102.752 259.339 105.847C256.843 108.939 253.349 110.801 248.857 111.436L238.555 112.891ZM245.076 91.3552L244.568 106.806L248.382 106.267C251.186 105.871 253.263 104.705 254.614 102.77C255.961 100.81 256.465 98.63 256.126 96.2298C255.864 94.3762 255.069 92.9494 253.74 91.9494C252.408 90.9257 250.601 90.5749 248.32 90.8971L245.076 91.3552ZM283.133 106.595L265.952 109.021L266.843 83.1546L282.991 80.874L282.814 86.0616L272.334 87.5418L272.169 92.5461L282.15 91.1365L281.969 96.0339L271.988 97.4435L271.826 102.993L283.304 101.372L283.133 106.595Z" fill="white"/>
</svg>
