<svg width="125" height="123" viewBox="0 0 125 123" fill="none" xmlns="http://www.w3.org/2000/svg">
<ellipse cx="62.5" cy="61.5" rx="62.5" ry="61.5" fill="#FFBF9E"/>
<path d="M49.5707 46.4201C51.0721 46.5985 52.3532 47.0045 53.4138 47.638C54.4983 48.2744 55.3099 49.0718 55.8486 50.03C56.3901 50.9645 56.7535 51.9744 56.9387 53.0598C57.1239 54.1453 57.1429 55.3076 56.9956 56.5469C56.8144 58.0722 56.5007 59.5938 56.0544 61.1117C55.6349 62.6087 55.0337 64.1082 54.251 65.6104C53.4683 67.1125 52.5638 68.4189 51.5376 69.5296C50.5142 70.6164 49.2542 71.4576 47.7575 72.0532C46.2874 72.6277 44.6944 72.8131 42.9785 72.6092C40.0471 72.2608 37.9789 71.1571 36.7738 69.2979C35.5716 67.4149 35.1248 65.1745 35.4335 62.5768C35.6657 60.6226 36.1124 58.6938 36.7736 56.7905C37.4586 54.8901 38.3483 53.0985 39.4424 51.4159C40.5633 49.7122 42.0006 48.3966 43.7543 47.4691C45.5108 46.5177 47.4496 46.168 49.5707 46.4201ZM48.5282 51.2266C47.432 51.0964 46.3588 51.5852 45.3087 52.693C44.2587 53.8008 43.401 55.2216 42.7358 56.9552C42.0706 58.6888 41.6262 60.497 41.4025 62.3797C41.2269 63.8574 41.3355 65.0787 41.7284 66.0438C42.1213 67.0089 42.842 67.5537 43.8906 67.6783C45.4874 67.8681 46.9664 66.8112 48.3278 64.5078C49.6919 62.1805 50.5524 59.5154 50.9092 56.5125C51.3 53.2236 50.5063 51.4617 48.5282 51.2266ZM87.7247 69.9504C87.4699 72.0953 86.5516 73.823 84.9699 75.1335C83.3911 76.4202 81.5173 76.9347 79.3485 76.677C77.5849 76.4675 76.192 75.7823 75.1699 74.6216C74.1505 73.4371 73.7414 71.9987 73.9424 70.3066C74.1945 68.1856 75.1099 66.4817 76.6888 65.195C78.2943 63.8873 80.1695 63.3609 82.3144 63.6157C84.1018 63.8281 85.4933 64.5252 86.4888 65.7069C87.511 66.8676 87.923 68.2821 87.7247 69.9504ZM83.5942 69.9309C83.6735 69.2636 83.5255 68.678 83.1504 68.1742C82.8018 67.6494 82.282 67.346 81.5909 67.2639C80.6853 67.1562 79.8949 67.4007 79.2198 67.9972C78.5714 68.5727 78.1891 69.349 78.073 70.3262C77.9909 71.0173 78.124 71.6253 78.4726 72.15C78.8477 72.6538 79.369 72.9454 80.0363 73.0247C80.9896 73.1379 81.7904 72.9068 82.4389 72.3313C83.0901 71.732 83.4752 70.9318 83.5942 69.9309ZM74.1366 55.2484C73.8817 57.3933 72.9515 59.1196 71.346 60.4273C69.7671 61.714 67.9053 62.2299 65.7603 61.975C63.9968 61.7654 62.6039 61.0803 61.5817 59.9196C60.5623 58.735 60.1532 57.2967 60.3542 55.6046C60.6063 53.4835 61.5217 51.7796 63.1006 50.493C64.7061 49.1853 66.5932 48.6603 68.762 48.918C70.5494 49.1303 71.9409 49.8274 72.9364 51.0091C73.9347 52.167 74.3348 53.5801 74.1366 55.2484ZM70.0418 55.2331C70.1211 54.5658 69.9731 53.9802 69.5979 53.4764C69.2494 52.9517 68.7177 52.6468 68.0027 52.5618C67.0971 52.4542 66.3067 52.6987 65.6316 53.2952C64.9832 53.8707 64.6009 54.647 64.4848 55.6241C64.4027 56.3153 64.5359 56.9232 64.8844 57.448C65.2596 57.9518 65.7927 58.2448 66.4839 58.3269C67.4133 58.4373 68.2023 58.2048 68.8507 57.6293C69.5258 57.0328 69.9228 56.234 70.0418 55.2331ZM86.4543 51.9628L63.8032 75.6999L61.4605 73.7539L84.0758 50.0125L86.4543 51.9628Z" fill="white"/>
</svg>
