<svg width="180" height="208" viewBox="0 0 180 208" fill="none" xmlns="http://www.w3.org/2000/svg">
<path d="M154.053 150.37C151.837 175.333 129.805 193.773 104.841 191.558C79.8783 189.342 61.4377 167.31 63.6532 142.346C65.8688 117.383 70.4683 75.7567 95.4314 77.9722C120.395 80.1878 156.268 125.406 154.053 150.37Z" fill="#E2CF27"/>
<path d="M40.0556 93.101C45.5405 106.447 58.0487 107.589 58.0487 107.589C58.0487 107.589 33.2216 64.4991 69.6249 17.8143C90.8148 73.7067 137.967 60.8203 157.22 107.667C167.232 132.031 160.242 159.09 141.77 175.79C141.396 176.153 141.075 176.39 140.7 176.753C147.443 167.177 149.337 154.462 144.551 142.818C140.76 133.592 133.619 123.858 121.726 115.553C131.1 133.269 119.897 142.689 119.897 142.689C119.897 142.689 112.821 105.601 78.8182 96.2267C91.507 127.867 67.7281 142.351 78.9555 169.671C83.7778 181.405 94.1908 189.166 105.898 191.16C105.197 191.239 104.586 191.281 103.849 191.269C79.0622 192.347 55.0647 178.023 45.0888 153.749C38.5733 137.894 36.1479 117.218 40.0556 93.101Z" fill="#E2CF27"/>
<path d="M80.4963 145.994L86.0955 135.378L80.549 128.485L84.9077 127.416L88.2634 132.128L91.1777 125.877L95.8627 124.727L90.8034 134.322L96.9987 141.945L92.5468 143.037L88.6523 137.741L85.2979 144.816L80.4963 145.994ZM106.962 118.445C109.044 117.934 110.549 117.153 111.477 116.102C112.406 115.05 112.69 113.794 112.332 112.333C112.088 111.339 111.552 110.63 110.723 110.208C109.925 109.777 108.952 109.703 107.802 109.985C105.409 110.573 103.967 112.08 103.475 114.507L96.6104 113.522C97.1261 110.925 98.2996 108.792 100.131 107.123C101.985 105.416 104.233 104.238 106.875 103.59C109.858 102.858 112.574 102.982 115.023 103.963C117.471 104.944 119.046 106.864 119.748 109.723C120.266 111.836 120.037 113.721 119.059 115.378C118.113 117.027 116.808 118.286 115.143 119.156L115.166 119.249C116.827 119.303 118.26 119.841 119.466 120.863C120.704 121.877 121.525 123.208 121.929 124.855C122.798 128.398 122.203 131.477 120.142 134.091C118.074 136.674 115.207 138.416 111.54 139.316C108.463 140.071 105.677 139.996 103.182 139.093C100.679 138.159 98.7384 136.427 97.3601 133.899L103.977 130.249C105.286 132.629 107.37 133.469 110.229 132.767C111.752 132.394 112.884 131.704 113.626 130.698C114.391 129.654 114.61 128.463 114.282 127.127C113.58 124.268 111.178 123.342 107.076 124.348L105.025 124.852L104.584 119.029L106.962 118.445Z" fill="white"/>
</svg>
