<svg width="396" height="180" viewBox="0 0 396 180" fill="none" xmlns="http://www.w3.org/2000/svg">
<path d="M57.7641 12.538L395.998 60.0877L338.488 169.885L0.210916 120.107L57.7641 12.538Z" fill="#AADA91"/>
<path d="M138.852 77.7271C140.44 77.9783 141.707 77.8751 142.655 77.4175C143.602 76.9599 144.163 76.174 144.34 75.0599C144.46 74.3013 144.295 73.6556 143.844 73.1227C143.418 72.5935 142.766 72.2596 141.889 72.1208C140.064 71.832 138.629 72.4555 137.584 73.9911L133.123 71.3172C134.234 69.6705 135.665 68.5362 137.415 67.9141C139.193 67.2721 141.09 67.1104 143.105 67.4292C145.381 67.7892 147.223 68.6638 148.631 70.0529C150.039 71.442 150.571 73.227 150.226 75.4078C149.971 77.0198 149.265 78.2567 148.108 79.1185C146.975 79.9841 145.706 80.4759 144.303 80.594L144.291 80.6651C145.424 81.1845 146.259 81.9727 146.797 83.0297C147.358 84.0904 147.539 85.2489 147.34 86.5053C146.913 89.2077 145.607 91.1637 143.423 92.3733C141.243 93.5592 138.754 93.9309 135.957 93.4884C133.61 93.1171 131.705 92.2569 130.242 90.9077C128.783 89.5348 127.944 87.7741 127.725 85.6255L133.36 85.0226C133.574 87.0489 134.772 88.2346 136.952 88.5796C138.114 88.7634 139.097 88.6152 139.902 88.1351C140.735 87.635 141.231 86.8753 141.393 85.856C141.738 83.6751 140.346 82.3371 137.216 81.8421L135.652 81.5946L137.038 77.4402L138.852 77.7271ZM156.774 92.663C156.616 93.6586 156.138 94.4576 155.338 95.06C154.565 95.6425 153.681 95.8549 152.685 95.6974C151.714 95.5437 150.964 95.1336 150.438 94.4672C149.935 93.8045 149.754 93.0346 149.892 92.1575C150.054 91.1382 150.532 90.3392 151.328 89.7605C152.128 89.1581 153.038 88.9375 154.057 89.0988C154.982 89.245 155.694 89.6613 156.192 90.3477C156.719 91.0141 156.913 91.7859 156.774 92.663ZM173.479 78.0295L171.902 82.0079C172.686 81.962 173.494 82.0046 174.323 82.1359C175.319 82.2934 176.246 82.5738 177.106 82.977C177.966 83.3803 178.741 83.9283 179.434 84.621C180.13 85.2899 180.636 86.1597 180.953 87.2303C181.273 88.2773 181.328 89.4645 181.118 90.792C180.867 92.3802 180.346 93.7556 179.554 94.9183C178.763 96.0809 177.821 96.9646 176.729 97.5694C175.661 98.178 174.516 98.58 173.295 98.7755C172.069 98.9948 170.84 99.0069 169.608 98.8119C167.261 98.4406 165.332 97.5766 163.822 96.2199C162.338 94.8433 161.457 93.1973 161.177 91.282L166.786 90.3834C166.912 91.2781 167.289 92.0424 167.918 92.6764C168.55 93.2867 169.34 93.6669 170.289 93.8169C171.545 94.0157 172.61 93.8076 173.485 93.1928C174.384 92.5817 174.931 91.6598 175.126 90.4271C175.321 89.1944 175.038 88.2143 174.279 87.4866C173.543 86.7628 172.511 86.2958 171.184 86.0858C169.311 85.7895 167.183 85.8781 164.8 86.3515L170.141 72.3988L185.005 74.7502L183.293 79.582L173.479 78.0295ZM192.1 101.678L200.527 77.2059L208.812 78.5166L209.146 95.2989L209.288 95.3214L220.369 80.3447L229.152 81.7342L220.724 106.206L214.928 105.289L221.087 87.7844L220.945 87.7619L208.314 104.243L204.154 103.585L203.664 85.028L203.522 85.0055L197.647 102.555L192.1 101.678ZM225.991 107.039L234.419 82.5674L240.25 83.4899L234.713 99.5986L234.855 99.6211L250.064 85.0425L256.287 86.0269L247.859 110.499L242.028 109.576L247.467 93.853L247.361 93.8361L232.32 108.04L225.991 107.039ZM253.146 111.335L261.573 86.8632L267.476 87.797L264.256 97.092L274.07 98.6446L277.254 89.3439L283.192 90.2833L274.765 114.755L268.862 113.821L272.387 103.518L262.609 101.971L259.048 112.269L253.146 111.335Z" fill="white"/>
</svg>
