<svg width="369" height="256" viewBox="0 0 369 256" fill="none" xmlns="http://www.w3.org/2000/svg">
<path d="M201.113 28.8334L220.155 64.2932L267.64 48.878L262.612 83.5523L319.767 82.6572L291.539 110.551L348.482 124.33L301.934 140.62L348.82 166.691L292.001 168.56L320.722 202.416L263.457 189.541L269.047 225.327L221.237 199.935L202.729 231.463L172.641 197.944L133.236 219.763L126.073 183.913L72.584 192.25L89.5836 160.267L31.2597 153.681L69.483 131.096L16.4087 110.725L69.2466 101.443L30.5989 70.8102L88.9151 76.4361L71.3766 40.8373L125.088 60.3983L131.691 25.9892L171.51 56.1031L201.113 28.8334Z" fill="#096D47"/>
<path d="M146.933 130.076L160.267 133.723L157.312 139.981L133.467 133.459L136.326 127.374L154.249 119.885C157.464 118.442 159.295 116.902 159.742 115.267C160.038 114.186 159.93 113.245 159.42 112.441C158.918 111.608 158.035 111.018 156.769 110.671C155.473 110.317 154.248 110.43 153.094 111.01C151.979 111.567 151.003 112.528 150.166 113.891L143.613 110.556C145.384 107.723 147.643 105.77 150.391 104.697C153.148 103.593 156.086 103.468 159.203 104.32C162.444 105.207 164.89 106.755 166.542 108.965C168.193 111.175 168.635 113.685 167.866 116.493C167.512 117.79 167.006 118.912 166.348 119.86C165.722 120.817 164.857 121.675 163.753 122.435C162.689 123.172 161.717 123.752 160.839 124.175C159.96 124.599 158.698 125.149 157.053 125.827L146.933 130.076ZM191.322 142.367L186.831 141.138L183.959 147.27L176.922 145.345L179.747 139.201L164.376 134.996L167.319 128.784L189.036 113.426L198.528 116.022L189.441 135.234L194.071 136.5L191.322 142.367ZM182.45 133.321L188.26 121.176L188.075 121.125L174.44 131.13L182.45 133.321ZM224.115 122.275L193.664 152.462L189.351 149.491L219.769 119.245L224.115 122.275ZM247.642 135.975L222.51 157.814L213.296 155.294L238.997 134.108L224.042 130.018L226.939 123.794L250.366 130.202L247.642 135.975Z" fill="white"/>
</svg>
