<svg width="989" height="604" viewBox="0 0 989 604" fill="none" xmlns="http://www.w3.org/2000/svg">
<path d="M251.98 286.884C223.957 254.984 175.327 251.838 143.427 279.86C126.496 294.734 117.626 315.568 117.314 336.493C96.5229 334.106 74.7196 340.217 57.7881 355.09C25.8881 383.113 22.7415 431.743 50.7642 463.643C66.6077 481.678 88.9472 490.53 111.099 489.765L239.214 484.168L267.883 359.427C268.769 356.476 269.438 353.279 269.985 350.19C273.614 328.091 267.715 304.797 251.98 286.884Z" fill="#096D47"/>
<path d="M687.643 63.275L736.22 156.608L855.173 145.594L829.014 239.194L939.792 287.686L848.889 345.8L909.179 435.275L788.253 435.706L775.026 531.988L670.268 474.571L588.576 540.884L539.999 447.551L421.046 458.565L447.205 364.965L336.427 316.473L427.33 258.359L367.04 168.884L487.966 168.453L501.193 72.1709L605.951 129.588L687.643 63.275Z" fill="#F0E68A"/>
<path d="M541.654 284.203C541.242 285.163 540.578 285.968 539.76 287.026C539.096 287.832 538.075 288.939 537.159 289.591C536.089 290.495 534.969 291.196 533.598 291.743C532.276 292.494 530.652 292.887 529.029 293.281C526.593 293.871 524.263 294.007 522.085 293.89C519.908 293.773 517.99 292.949 516.274 292.076C514.509 291 513.1 289.622 511.846 287.992C510.591 286.363 509.644 284.229 509.103 281.996C508.365 278.952 508.285 275.963 508.66 273.079C509.035 270.195 509.914 267.618 511.452 265.096C512.786 262.624 514.674 260.662 517.017 258.805C519.36 256.948 521.9 255.902 524.944 255.164C527.785 254.475 530.319 254.291 532.798 254.764C535.276 255.238 537.195 256.062 538.757 257.187L533.997 264.143C533.191 263.478 532.183 262.863 531.02 262.501C529.858 262.138 528.339 262.076 526.716 262.47C524.889 262.913 523.567 263.663 522.091 264.666C520.867 265.822 519.895 267.132 519.176 268.596C518.456 270.059 517.989 271.677 517.774 273.448C517.559 275.219 517.749 276.892 518.192 278.718C518.487 279.936 518.936 280.901 519.637 282.021C520.289 282.937 521.144 283.804 521.95 284.468C522.959 285.083 523.918 285.495 525.031 285.655C526.144 285.815 527.411 285.723 528.832 285.378C530.455 284.985 531.777 284.234 533.05 283.281C534.323 282.328 535.295 281.018 536.015 279.554L541.654 284.203ZM546.131 288.49L543.707 251.904L566.031 246.492L566.739 253.841L552.127 257.383L552.533 264.376L566.333 261.03L566.739 268.022L552.939 271.368L553.542 279.172L569.574 275.285L570.079 282.684L546.131 288.49ZM584.691 279.141L576.167 281.207L573.743 244.622L595.864 239.259L596.418 246.86L582.821 250.157L584.691 279.141ZM616.368 233.428C619.006 232.788 621.54 232.604 623.717 232.721C625.943 233.04 628.016 233.612 629.732 234.485C631.497 235.562 633.108 236.89 634.16 238.569C635.414 240.199 636.361 242.333 636.903 244.565C637.641 247.609 637.874 250.346 637.499 253.23C637.124 256.114 636.245 258.691 634.861 260.961C633.527 263.433 631.639 265.395 629.449 267C627.26 268.605 624.567 269.903 621.522 270.641C618.884 271.28 616.35 271.465 614.173 271.348C611.947 271.028 609.874 270.457 608.159 269.583C606.394 268.507 604.782 267.179 603.528 265.549C602.273 263.919 601.326 261.785 600.785 259.553C600.047 256.509 600.016 253.723 600.391 250.839C600.766 247.954 601.645 245.378 603.029 243.108C604.363 240.636 606.251 238.674 608.441 237.069C610.581 235.261 613.324 234.166 616.368 233.428ZM620.206 263.439C622.033 262.996 623.558 262.197 624.831 261.244C626.055 260.087 627.026 258.778 627.746 257.314C628.465 255.85 628.933 254.233 628.945 252.511C629.16 250.74 628.969 249.067 628.576 247.443C628.28 246.226 627.782 245.057 627.13 244.141C626.478 243.224 625.624 242.357 624.818 241.693C623.809 241.078 622.647 240.715 621.534 240.556C620.218 240.445 618.951 240.537 617.53 240.882C615.704 241.324 614.179 242.124 612.955 243.28C611.731 244.436 610.759 245.746 610.04 247.21C609.32 248.674 608.853 250.291 608.841 252.013C608.829 253.735 608.816 255.457 609.21 257.081C609.505 258.298 610.003 259.467 610.655 260.383C611.307 261.299 612.162 262.166 613.171 262.781C614.179 263.396 615.139 263.808 616.455 263.919C617.316 263.925 618.785 263.784 620.206 263.439ZM648.619 263.642L649.074 270.837L642.174 272.51L641.214 257.916L647.099 256.489L656.951 224.448L665.068 222.48L676.323 249.404L682.818 247.829L683.777 262.423L676.674 264.145L676.219 256.95L648.619 263.642ZM655.98 254.121L667.751 251.267L661.342 233.697L655.98 254.121ZM708.081 249.225L707.128 233.77L693.53 237.067L694.484 252.521L686.366 254.49L683.942 217.904L692.06 215.936L692.872 229.921L706.47 226.624L705.454 212.688L713.775 210.671L716.199 247.257L708.081 249.225ZM731.998 226.451C729.667 226.586 727.644 226.217 726.082 225.092C724.519 223.967 723.671 222.239 723.486 219.705C723.259 216.107 724.445 213.026 726.844 210.511C729.445 207.946 733.258 205.947 738.535 204.668L751.32 201.568L753.744 238.154L745.423 240.171L744.556 226.844L741.512 227.582C739.076 228.173 737.09 229.729 735.399 232.502C733.911 235.227 732.822 238.714 732.638 243.271L723.505 245.485C723.419 243.357 723.739 241.131 724.157 239.311C724.575 237.49 725.196 235.621 726.119 234.108C726.838 232.644 727.761 231.131 728.984 229.975C729.753 228.714 730.977 227.558 731.998 226.451ZM743.504 210.984L739.851 211.869C737.212 212.509 735.281 213.407 734.211 214.311C733.141 215.215 732.625 216.63 732.717 217.897C732.865 218.505 732.963 218.911 733.061 219.317C733.363 219.674 733.867 219.981 734.371 220.289C735.079 220.547 735.737 220.602 736.801 220.559C737.865 220.516 738.929 220.473 740.552 220.08L744.205 219.194L743.504 210.984Z" fill="#096D47"/>
<path d="M531.472 327.283C529.141 327.419 527.118 327.05 525.556 325.924C523.994 324.799 523.145 323.071 522.96 320.537C522.733 316.939 523.92 313.858 526.318 311.343C528.919 308.778 532.732 306.78 538.009 305.5L550.794 302.4L553.218 338.986L544.897 341.003L544.03 327.677L540.986 328.415C538.551 329.005 536.564 330.561 534.873 333.335C533.385 336.059 532.296 339.546 532.112 344.103L522.979 346.317C522.893 344.19 523.213 341.963 523.631 340.143C524.049 338.322 524.67 336.453 525.593 334.94C526.312 333.476 527.235 331.963 528.459 330.807C529.178 329.344 530.402 328.187 531.472 327.283ZM542.978 311.816L539.325 312.702C536.687 313.341 534.756 314.239 533.686 315.143C532.616 316.047 532.099 317.462 532.191 318.729C532.339 319.338 532.437 319.743 532.536 320.149C532.837 320.506 533.341 320.814 533.846 321.121C534.553 321.379 535.211 321.435 536.275 321.392C537.339 321.348 538.403 321.305 540.026 320.912L543.679 320.026L542.978 311.816ZM602.927 321.562C602.515 322.521 601.851 323.327 601.033 324.385C600.369 325.191 599.348 326.298 598.432 326.949C597.362 327.854 596.243 328.555 594.871 329.102C593.549 329.852 591.925 330.246 590.302 330.64C587.866 331.23 585.536 331.365 583.359 331.249C581.182 331.132 579.263 330.308 577.547 329.435C576.034 328.512 574.423 327.184 573.322 325.302C572.067 323.672 571.12 321.538 570.579 319.306C569.841 316.262 569.761 313.273 570.136 310.389C570.511 307.504 571.39 304.927 572.928 302.406C574.262 299.934 576.15 297.972 578.493 296.114C580.836 294.257 583.376 293.212 586.42 292.474C589.261 291.785 591.795 291.6 594.274 292.074C596.752 292.547 598.671 293.371 600.233 294.496L595.473 301.452C594.667 300.788 593.659 300.173 592.497 299.81C591.334 299.447 589.815 299.386 588.192 299.78C586.365 300.222 585.043 300.973 583.567 301.975C582.343 303.131 581.372 304.441 580.652 305.905C579.933 307.369 579.465 308.986 579.25 310.757C579.035 312.528 579.225 314.201 579.668 316.028C579.964 317.245 580.412 318.211 581.114 319.33C581.766 320.247 582.62 321.114 583.426 321.778C584.435 322.393 585.394 322.805 586.507 322.965C587.62 323.125 588.887 323.032 590.308 322.688C591.931 322.294 593.254 321.544 594.527 320.591C595.8 319.637 596.771 318.327 597.491 316.864L602.927 321.562ZM618.781 285.917C619.998 285.622 621.265 285.529 622.532 285.437C623.799 285.345 624.912 285.505 626.075 285.868C627.237 286.23 628.245 286.845 629.1 287.712C629.955 288.58 630.656 289.699 631.001 291.119C631.591 293.555 631.425 295.529 630.398 297.497C629.322 299.262 627.791 300.922 625.657 301.87C627.532 301.63 629.15 302.097 630.712 303.222C632.225 304.145 633.277 305.824 633.769 307.853C634.211 309.68 634.199 311.402 633.886 312.767C633.418 314.384 632.65 315.645 631.678 316.955C630.454 318.111 629.23 319.267 627.502 320.116C625.774 320.965 623.794 321.66 621.561 322.201L607.558 325.596L605.134 289.011L618.732 285.714L618.781 285.917ZM614.064 308.118L614.661 316.783L619.532 315.602C620.547 315.356 621.358 315.16 622.121 314.76C622.883 314.36 623.646 313.96 624.156 313.407C624.667 312.853 625.177 312.3 625.436 311.593C625.694 310.885 625.7 310.024 625.503 309.213C625.208 307.995 624.605 307.281 623.646 306.869C622.686 306.457 621.37 306.347 619.747 306.74L614.064 308.118ZM613.252 294.133L613.855 301.937L618.929 300.707C619.538 300.56 620.146 300.412 620.706 300.062C621.266 299.711 621.825 299.36 622.385 299.01C622.895 298.456 623.203 297.952 623.258 297.294C623.516 296.587 623.572 295.929 623.375 295.117C623.08 293.899 622.477 293.186 621.364 293.026C620.454 292.817 619.138 292.706 617.717 293.051L613.252 294.133ZM640.232 317.674L637.808 281.089L660.132 275.676L660.637 283.075L646.025 286.617L646.431 293.61L660.231 290.264L661.043 297.158L647.243 300.504L647.846 308.308L663.878 304.421L663.977 311.917L640.232 317.674ZM686.565 290.755C684.941 291.149 683.416 291.948 682.242 293.307C681.018 294.464 679.892 296.026 679.222 297.692C678.349 299.408 677.728 301.278 677.359 303.301C676.99 305.324 676.621 307.348 676.609 309.07L667.476 311.284C667.667 305.866 668.712 301.315 669.954 297.576C671.399 293.787 673.447 290.712 676.147 288.554L665.304 274.852L674.234 272.687L683.521 284.402C683.926 284.304 684.486 283.953 684.892 283.855C685.298 283.757 685.907 283.609 686.516 283.461L685.599 269.932L693.92 267.914L694.836 281.444C695.648 281.247 696.46 281.05 697.321 281.057L705.285 265.159L714.62 262.895L705.469 281.874C708.348 283.11 710.562 285.152 712.567 288.104C714.572 291.056 715.912 294.813 716.841 299.53L707.303 301.843C706.86 300.016 706.417 298.19 705.771 296.413C705.125 294.635 704.326 293.11 703.373 291.837C702.419 290.564 701.312 289.543 699.898 289.027C698.483 288.51 696.964 288.449 694.935 288.941L695.938 304.598L687.617 306.616L686.565 290.755Z" fill="#096D47"/>
<path d="M543.195 380.953L555.395 353.285L565.746 350.775L568.17 387.361L559.849 389.378L558.298 365.258L558.096 365.307L545.846 392.773L535.698 395.233L533.274 358.648L541.595 356.63L543.195 380.953ZM608.973 340.295C611.507 340.11 613.684 340.227 615.756 340.799C617.829 341.371 619.698 341.992 621.26 343.117C622.823 344.242 624.182 345.417 625.436 347.047C626.488 348.726 627.337 350.454 627.829 352.483C628.567 355.527 628.598 358.313 627.921 360.841C627.294 363.571 626.113 365.792 624.73 368.061C623.094 370.176 621.206 372.138 618.814 373.793C616.421 375.447 613.931 376.696 611.139 377.587L611.625 380.478L603.71 382.397L603.482 378.799C601.151 378.935 598.974 378.818 596.902 378.246C594.829 377.674 593.162 377.004 591.397 375.927C589.835 374.802 588.476 373.627 587.425 371.949C586.422 370.473 585.524 368.542 585.081 366.715C584.392 363.874 584.362 361.088 584.786 358.407C585.462 355.879 586.391 353.505 588.027 351.39C589.46 349.323 591.348 347.361 593.74 345.707C596.132 344.052 598.42 342.853 601.163 341.758L601.033 338.567L608.948 336.648L608.973 340.295ZM594.417 364.452C594.614 365.263 595.013 366.026 595.413 366.789C595.813 367.551 596.416 368.265 596.969 368.775C597.523 369.285 598.531 369.9 599.441 370.109C600.401 370.521 601.717 370.632 603.033 370.743L601.661 350.018C600.339 350.768 599.017 351.518 597.996 352.625C596.926 353.529 596.157 354.79 595.388 356.051C594.822 357.262 594.306 358.677 593.992 360.042C593.931 361.561 594.072 363.031 594.417 364.452ZM618.647 354.494C618.45 353.683 618.05 352.92 617.651 352.157C617.251 351.395 616.648 350.682 615.892 350.22C615.135 349.759 614.33 349.095 613.217 348.935C612.054 348.572 610.941 348.412 609.471 348.554L610.689 369.531C612.061 368.984 613.334 368.03 614.558 366.874C615.579 365.767 616.599 364.66 617.368 363.399C618.137 362.139 618.45 360.773 618.715 359.205C619.182 357.588 619.041 356.118 618.647 354.494ZM644.082 331.782C648.141 330.798 651.585 330.823 654.26 332.108C656.886 333.19 658.492 335.38 659.23 338.424C659.722 340.453 659.759 342.378 659.544 344.149C659.076 345.767 658.406 347.433 657.385 348.54C656.21 349.899 654.734 350.902 653.056 351.954C651.327 352.802 649.144 353.547 646.912 354.088L642.447 355.17L643.259 369.155L635.141 371.123L632.717 334.538L644.082 331.782ZM645.337 347.594C647.57 347.052 649.095 346.253 650.165 345.349C651.235 344.445 651.549 343.079 651.106 341.253C650.909 340.441 650.558 339.881 650.257 339.525C649.907 338.965 649.402 338.658 648.744 338.602C648.289 338.498 647.631 338.442 646.77 338.436C646.112 338.381 645.3 338.578 644.488 338.775L641.241 339.562L641.684 348.479L645.337 347.594ZM666.598 363.497L664.174 326.911L686.498 321.499L687.002 328.897L672.39 332.44L672.796 339.432L686.597 336.086L687.003 343.078L673.202 346.424L673.805 354.229L689.838 350.341L690.342 357.74L666.598 363.497ZM713.38 344.634L711.46 315.446L719.781 313.429L721.7 342.616L730.224 340.55L728.305 311.362L736.625 309.345L739.049 345.931L696.431 356.264L694.007 319.678L702.328 317.661L704.247 346.848L713.38 344.634Z" fill="#096D47"/>
</svg>
