<svg width="707" height="262" viewBox="0 0 707 262" fill="none" xmlns="http://www.w3.org/2000/svg">
<path d="M503.293 132.791C501.657 128.843 500.229 125.502 498.924 122.008C495.132 111.999 493.604 101.663 493.921 90.976C494.277 78.1826 497.523 66.2511 503.504 55.0588C511.607 39.8408 523.337 28.2735 538.515 20.027C551.065 13.2012 564.474 9.64071 578.615 9.43038C593.1 9.1808 606.983 12.223 620.028 18.9344C635.682 27.1002 647.833 38.8184 656.16 54.3358C661.923 65.1004 665.123 76.6477 665.615 88.924C665.625 89.6235 665.558 90.2618 665.485 91.4612C664.246 91.6026 663.083 91.8052 661.835 91.8773C650.658 92.3805 641.163 96.6159 633.834 105.159C625.085 115.335 622.256 130.303 628.676 143.165C629.763 145.353 631.04 147.38 632.448 149.321C633.778 151.202 635.43 152.835 637.036 154.684C635.781 157.14 633.343 158.398 631.212 159.903C629.852 160.828 628.891 159.747 628.007 158.726C623.951 154.354 619.414 150.667 614.198 147.758C599.31 139.575 583.722 137.497 567.384 142.303C548.821 147.782 535.843 159.421 528.476 177.428C525.962 183.531 525.156 189.929 524.71 196.426C524.659 197.203 524.539 197.987 524.488 198.764C514.05 202.686 494.092 198.375 484.986 181.544C481.805 175.671 480.536 169.439 481.035 162.795C481.526 156.083 483.926 150.204 487.851 144.851C491.846 139.491 497.232 135.934 503.293 132.791ZM552.102 63.3234C563.434 58.6684 598.58 48.0759 601.681 48.353C602.954 53.3932 604.177 85.5562 603.298 88.249C600.143 88.1181 597.01 87.5643 593.979 87.9098C588.124 88.5771 583.065 93.7784 582.112 99.4927C581.076 105.707 585.674 111.769 592.669 113.144C601.962 115.098 610.865 107.497 610.115 98.473C608.549 78.6114 607.113 58.6649 605.616 38.7954C605.415 35.8053 604.946 32.9158 604.567 29.5956C598.77 31.3775 593.446 33.0353 588.046 34.6318C579.885 37.1036 571.724 39.5753 563.563 42.0471C558.507 43.6043 553.375 45.1002 548.327 46.7266C545.298 47.7025 545.192 47.9948 545.425 51.2616C545.843 57.3801 546.33 63.4908 546.756 69.6785C547.514 81.2238 548.28 92.8383 549.037 104.384C549.095 105.498 549.014 106.629 549.042 108.097C545.562 106.952 542.344 106.268 539.009 106.998C532.674 108.351 527.837 113.667 527.474 119.664C527.081 126.015 531.707 131.094 538.48 132.354C548.592 134.144 557.795 124.897 555.191 115.524C554.735 113.965 554.683 112.289 554.571 110.69C554.133 103.172 553.694 95.6546 553.256 88.1369C552.834 80.7576 552.403 73.3091 552.05 65.922C551.947 65.0228 552.051 64.1 552.102 63.3234Z" fill="#096D47"/>
<path d="M591.638 254.887C568.612 256.11 549.798 248.375 537.106 228.24C531.318 219.09 528.912 208.993 529.756 198.036C531.174 179.867 539.849 165.985 554.784 156.224C568.422 147.313 583.542 144.678 599.525 148.392C614.788 151.908 626.759 160.213 634.85 173.655C640.439 182.898 643.045 192.901 642.131 203.866C640.698 221.898 632.076 235.633 617.363 245.509C609.731 250.793 601.09 253.95 591.638 254.887ZM590.322 204.166C588.838 204.615 587.675 204.818 586.674 205.213C581.832 206.815 578.578 211.321 578.892 215.909C579.198 220.429 582.77 224.226 587.535 225.014C591.373 225.628 596.281 223.387 598.276 220.076C600.263 216.697 600.132 211.877 597.91 208.907C589.742 197.856 581.575 186.805 573.339 175.761C572.516 174.664 571.858 172.567 569.995 173.97C568.322 175.212 570.072 176.484 570.81 177.451C576.44 185.218 582.2 192.9 587.891 200.589C588.706 201.618 589.391 202.731 590.322 204.166Z" fill="#D1B8F6"/>
<path d="M702.489 127.067C703.106 139.82 697.798 150.795 685.733 158.196C670.527 167.427 649.889 163.893 639.159 148.72C628.844 134.13 632.202 114.618 646.498 103.529C659.519 93.4962 677.688 93.7376 690.386 104.132C697.234 109.728 701.14 117.061 702.489 127.067ZM662.344 147.058C669.495 140.007 676.02 133.588 682.988 126.767C674.778 121.467 666.907 116.688 658.316 111.711C659.68 123.678 660.957 134.884 662.344 147.058Z" fill="#F0E68A"/>
<path d="M8.12726 68.2838C3.10262 63.1125 4.88228 55.1914 8.70735 51.7375C13.8932 46.9867 21.6171 48.5319 25.0078 52.2915C29.3552 57.0548 29.1096 64.5673 24.4277 68.8378C19.7963 73.0603 12.3337 72.7983 8.12726 68.2838Z" fill="#F0E68A"/>
<path d="M43.9144 105.051C26.5325 87.1618 32.689 59.7601 45.9212 47.8118C63.8606 31.3772 90.5804 36.7226 102.31 49.7283C117.349 66.2063 116.499 92.1946 100.303 106.968C84.2817 121.574 58.4658 120.668 43.9144 105.051Z" fill="#F0E68A"/>
<rect x="66.4785" y="51.0283" width="451.842" height="116.547" rx="45" fill="#1ED760"/>
<path d="M206.751 147.852C204.797 146.882 202.532 146.794 200.489 146.177C184.721 141.505 173.084 126.74 174.15 109.155C175.216 91.2616 188.363 77.2022 205.686 74.7341C228.338 71.4727 248.547 88.8375 248.37 111.359C248.237 129.385 234.778 144.634 216.568 147.367C216.123 147.455 215.502 147.19 215.235 147.807C214.658 147.807 214.036 147.807 213.458 147.807C211.993 147.102 210.482 147.102 209.017 147.807C208.217 147.852 207.507 147.852 206.751 147.852ZM205.863 93.8178C200.133 93.7737 194.537 94.3467 188.985 95.8011C186.409 96.5063 185.121 98.1811 185.609 100.12C186.142 102.28 188.052 103.161 190.717 102.456C195.159 101.266 199.689 100.693 204.264 100.649C214.258 100.561 223.941 101.927 232.913 106.731C235.178 107.965 237.577 107.128 238.154 105.012C238.731 102.941 237.799 101.531 235.933 100.561C226.517 95.5367 216.39 93.8619 205.863 93.8178ZM233.179 115.81C233.046 114.532 232.424 113.695 231.403 113.122C228.871 111.623 226.206 110.389 223.363 109.464C212.659 105.894 201.866 105.365 190.895 108.274C189.118 108.759 187.919 109.596 188.097 111.579C188.274 113.519 189.962 114.4 192.272 113.783C198.801 112.02 205.419 111.8 212.081 112.681C217.856 113.43 223.274 115.149 228.382 117.97C230.736 119.292 233.268 118.102 233.179 115.81ZM204.886 118.411C200.889 118.278 196.447 118.984 192.05 119.865C190.539 120.174 189.296 120.923 189.651 122.642C190.051 124.405 191.339 124.757 193.071 124.361C196.669 123.523 200.311 123.038 203.998 122.95C211.193 122.774 218.078 124.052 224.385 127.71C225.806 128.547 227.272 128.812 228.205 127.137C229.049 125.595 228.16 124.537 226.783 123.743C220.165 119.953 213.014 118.322 204.886 118.411Z" fill="white"/>
<path d="M382.952 108.318C382.952 115.017 382.952 121.408 382.952 127.931C380.731 128.239 378.733 128.151 376.467 127.975C376.467 121.408 376.467 114.929 376.467 108.45C375.312 108.318 374.38 108.186 373.358 108.098C373.092 106.291 373.18 104.572 373.314 102.897C374.202 102.104 375.268 102.765 376.378 102.148C376.512 98.9307 376.645 95.4489 380.243 93.6859C383.174 92.2315 386.239 92.5841 389.348 93.5097C389.748 95.2726 389.57 96.9914 389.481 98.8425C387.483 99.0188 385.439 97.5644 383.707 99.2392C382.952 99.9884 382.863 101.046 382.952 102.412C386.194 102.412 389.481 102.412 392.901 102.412C395.211 108.274 397.432 113.96 399.786 120.042C401.962 114.004 403.961 108.318 406.004 102.677C408.27 102.677 410.357 102.677 412.4 102.677C412.711 103.514 412.311 104.087 412.089 104.66C409.069 112.417 406.049 120.13 403.028 127.887C402.762 128.548 402.495 129.253 402.184 129.914C399.386 135.952 393.701 137.583 387.749 133.837C388.415 132.382 389.082 130.884 389.748 129.429C395.122 130.179 395.122 130.179 396.588 127.622C393.923 121.276 391.214 114.841 388.46 108.406C386.639 108.098 384.995 108.274 382.952 108.318Z" fill="white"/>
<path d="M294.873 125.242C294.873 128.9 294.873 132.118 294.873 135.467C292.652 135.467 290.653 135.467 288.521 135.467C288.521 124.581 288.521 113.695 288.521 102.589C290.52 102.368 292.563 102.412 294.473 102.589C295.273 103.382 294.607 104.396 295.095 105.145C301.891 100.826 307.754 101.178 311.973 106.158C316.237 111.227 316.015 120.174 311.44 124.934C307.132 129.517 300.914 129.782 294.873 125.242ZM308.287 115.326C308.331 111.007 305.622 107.833 301.758 107.745C297.805 107.613 294.651 111.007 294.695 115.37C294.74 119.513 297.671 122.774 301.447 122.862C305.444 122.906 308.287 119.821 308.287 115.326Z" fill="white"/>
<path d="M259.385 122.862C260.762 121.232 262.005 119.821 263.205 118.411C264.359 118.675 264.981 119.469 265.736 119.998C268.712 122.069 271.999 122.906 275.597 122.422C277.596 122.157 279.15 121.232 279.372 119.072C279.594 117.045 278.173 116.075 276.485 115.458C273.198 114.18 269.601 113.827 266.403 112.329C260.762 109.684 259.074 103.118 262.805 98.2254C263.782 96.9032 265.114 95.9777 266.58 95.2725C272.088 92.6722 280.483 94.1266 285.013 98.534C284.169 100.253 282.926 101.751 281.637 103.294C279.905 102.368 278.351 101.222 276.53 100.605C274.62 99.9443 272.621 99.768 270.622 100.165C269.023 100.517 267.779 101.399 267.557 103.206C267.38 104.925 268.357 106.026 269.823 106.555C271.688 107.26 273.598 107.745 275.508 108.362C277.107 108.891 278.75 109.332 280.305 109.993C284.036 111.58 286.212 114.312 286.079 118.455C285.946 122.642 284.036 125.771 280.038 127.358C274.131 129.738 268.49 128.636 263.071 125.683C261.783 124.934 260.584 124.052 259.385 122.862Z" fill="white"/>
<path d="M344.309 115.37C344.264 122.862 338.268 128.592 330.495 128.592C322.767 128.592 316.682 122.686 316.77 115.238C316.859 107.789 323.078 101.883 330.628 101.927C338.401 102.016 344.353 107.833 344.309 115.37ZM330.717 122.862C334.848 122.818 337.868 119.557 337.779 115.238C337.691 110.874 334.626 107.833 330.451 107.833C326.32 107.877 323.3 111.051 323.389 115.414C323.477 119.689 326.631 122.906 330.717 122.862Z" fill="white"/>
<path d="M361.052 121.804C361.052 123.787 361.052 125.418 361.052 127.093C358.876 128.415 356.566 128.768 354.168 128.459C350.392 127.974 348.349 125.947 348.127 122.113C347.95 118.411 347.994 114.664 347.95 110.962C347.95 110.169 347.95 109.376 347.95 108.714C346.972 108.009 345.995 108.494 344.929 108.009C344.529 106.379 344.707 104.616 344.84 102.941C345.729 102.236 346.706 102.765 347.683 102.324C348.349 100.341 347.55 98.1369 348.172 95.8892C350.17 95.8892 352.125 95.8892 354.257 95.8892C354.923 97.9165 354.212 100.164 354.745 102.544C356.833 102.544 358.965 102.544 361.186 102.544C361.186 104.527 361.186 106.246 361.186 108.053C359.098 108.714 356.922 108.009 354.656 108.538C354.656 112.593 354.612 116.648 354.701 120.702C354.745 122.113 355.811 122.642 357.144 122.686C358.387 122.597 359.587 122.157 361.052 121.804Z" fill="white"/>
<path d="M370.292 128.019C368.205 128.019 366.339 128.019 364.207 128.019C364.207 119.601 364.207 111.227 364.207 102.721C366.161 102.721 368.116 102.721 370.292 102.721C370.292 111.007 370.292 119.425 370.292 128.019Z" fill="white"/>
<path d="M371.358 95.2724C371.358 97.5642 369.67 99.239 367.36 99.283C365.05 99.3271 363.274 97.6523 363.229 95.4046C363.185 93.0687 364.962 91.2617 367.316 91.2617C369.625 91.3058 371.313 92.9806 371.358 95.2724Z" fill="white"/>
</svg>
