<svg width="188" height="190" viewBox="0 0 188 190" fill="none" xmlns="http://www.w3.org/2000/svg">
<path fill-rule="evenodd" clip-rule="evenodd" d="M188 85.5C188 132.72 149.72 171 102.5 171C96.8195 171 91.2685 170.446 85.8979 169.389C77.4421 181.829 63.1753 190 47 190C21.0426 190 0 168.957 0 143C0 124.814 6.64743 112.231 19.5544 106.327C17.8859 99.6602 17 92.6836 17 85.5C17 38.2797 55.2797 0 102.5 0C149.72 0 188 38.2797 188 85.5ZM132 82C131.6 76 128.5 37.8333 127 19.5C109.167 25 73.0001 36.1 71.0005 36.5C68.501 37 68 38.5 68 42.5C68 45.7 70.0003 80.8333 71.0005 98C56.5005 94 50.3985 104 50.0002 109C49.6018 114 50.5 123.5 64.0002 122.5C77.5003 121.5 78.0002 107.5 77.5002 99.5C77.1002 93.1 75.6668 65.8333 75.0002 53C87.8002 47.4 113.334 41 124.5 38.5C125.7 44.1 126 67.1667 126 78C107.5 74 104.5 88.5 105 94C105.5 99.5 115.5 106.5 124.5 102C133.091 97.7048 132.571 90.221 132.071 83.0268C132.047 82.6838 132.023 82.3414 132 82Z" fill="#096D47"/>
</svg>
