<svg width="39" height="39" viewBox="0 0 39 39" fill="none" xmlns="http://www.w3.org/2000/svg">
<g clip-path="url(#clip0)">
<path d="M19.5 -0.424988C15.5629 -0.424988 11.7143 0.737728 8.44069 2.91613C5.16712 5.09453 2.61569 8.19077 1.10903 11.8133C-0.397625 15.4359 -0.791835 19.422 -0.023748 23.2677C0.744339 27.1134 2.64023 30.6458 5.42417 33.4184C8.2081 36.191 11.7551 38.0791 15.6165 38.8441C19.4779 39.609 23.4804 39.2164 27.1178 37.7159C30.7552 36.2154 33.8641 33.6744 36.0515 30.4142C38.2388 27.154 39.4063 23.321 39.4063 19.4C39.4009 14.1437 37.3019 9.10431 33.5699 5.38757C29.8379 1.67082 24.7778 -0.419605 19.5 -0.424988ZM19.5 36.175C16.1686 36.175 12.9121 35.1912 10.1421 33.3479C7.37218 31.5047 5.21328 28.8848 3.93841 25.8195C2.66355 22.7543 2.32999 19.3814 2.97991 16.1274C3.62983 12.8733 5.23404 9.88432 7.58968 7.5383C9.94532 5.19227 12.9466 3.59461 16.214 2.94734C19.4813 2.30007 22.868 2.63227 25.9458 3.90193C29.0236 5.17159 31.6543 7.32169 33.5051 10.0803C35.3559 12.839 36.3438 16.0822 36.3438 19.4C36.3384 23.8474 34.562 28.111 31.4044 31.2558C28.2467 34.4005 23.9656 36.1696 19.5 36.175ZM27.1563 21.4333C27.151 21.8362 26.9879 22.221 26.7019 22.5059C26.4159 22.7907 26.0295 22.9531 25.625 22.9583H19.5C19.0955 22.9531 18.7091 22.7907 18.4231 22.5059C18.1371 22.221 17.974 21.8362 17.9688 21.4333V11.2667C17.9688 10.8622 18.1301 10.4743 18.4173 10.1883C18.7044 9.90235 19.0939 9.74168 19.5 9.74168C19.9061 9.74168 20.2956 9.90235 20.5828 10.1883C20.8699 10.4743 21.0313 10.8622 21.0313 11.2667V19.9083H25.625C26.0295 19.9136 26.4159 20.076 26.7019 20.3608C26.9879 20.6457 27.151 21.0305 27.1563 21.4333Z" fill="white"/>
</g>
<defs>
<clipPath id="clip0">
<rect width="39" height="39" fill="white"/>
</clipPath>
</defs>
</svg>
