<svg width="144" height="44" viewBox="0 0 144 44" fill="none" xmlns="http://www.w3.org/2000/svg">
<path d="M4 0H140C142.209 0 144 1.791 144 4V40C144 42.209 142.209 44 140 44H4C1.791 44 0 42.209 0 40V4C0 1.791 1.791 0 4 0Z" fill="black"/>
<path d="M51.0508 13.3946H51.8321L51.7541 15.3946H51.0627V14.0001H46.957V15.4024H46.3047L46.1875 13.3946H46.6758C46.8765 13.168 47.0601 12.836 47.2266 12.3976C47.3931 11.9592 47.4844 11.3633 47.5 10.6114L47.629 8.31261H51.0508V13.3946ZM48.2773 10.6114C48.2539 11.2314 48.1757 11.7764 48.0429 12.2471C47.9101 12.7178 47.7396 13.1006 47.5311 13.3946H50.2811V8.91811H48.3671L48.2771 10.6114H48.2773ZM56.9688 11.6642C56.9688 12.3596 56.7535 12.9368 56.3223 13.3948C55.8911 13.8528 55.3321 14.0823 54.6446 14.0823C53.9806 14.0823 53.441 13.8529 53.0256 13.3949C52.6102 12.9369 52.4026 12.3597 52.4026 11.6644V10.6528C52.4026 9.96041 52.61 9.38331 53.0256 8.92231C53.4412 8.46131 53.9806 8.23081 54.6446 8.23081C55.3321 8.23081 55.8912 8.46031 56.3223 8.92031C56.7534 9.38031 56.9688 9.95731 56.9688 10.6527V11.6644V11.6642ZM56.1992 10.6447C56.1992 10.1242 56.0586 9.69651 55.7772 9.36341C55.4958 9.03031 55.1186 8.86341 54.6445 8.86341C54.1967 8.86341 53.8393 9.03041 53.5722 9.36341C53.3051 9.69641 53.1718 10.1241 53.1718 10.6447V11.6642C53.1718 12.1906 53.3051 12.6202 53.5722 12.9532C53.8393 13.2862 54.1967 13.4532 54.6445 13.4532C55.1211 13.4532 55.4995 13.2872 55.7793 12.9552C56.0591 12.6232 56.1993 12.1926 56.1993 11.6642V10.6447H56.1992ZM62.1367 12.176L62.1445 12.1994C62.1548 12.7336 61.9673 13.1808 61.582 13.5412C61.1967 13.9016 60.6875 14.0822 60.0547 14.0822C59.4117 14.0822 58.8872 13.8547 58.4824 13.3986C58.0776 12.9425 57.875 12.3644 57.875 11.6642V10.6525C57.875 9.95231 58.0776 9.37321 58.4824 8.91621C58.8872 8.45921 59.4116 8.23071 60.0547 8.23071C60.6978 8.23071 61.2095 8.40171 61.5899 8.74441C61.9703 9.08711 62.1547 9.54041 62.1445 10.1057L62.1367 10.1291H61.3984C61.3984 9.73061 61.2812 9.41511 61.0468 9.18371C60.8124 8.95231 60.4818 8.83601 60.0545 8.83601C59.6248 8.83601 59.2825 9.00881 59.0272 9.35541C58.7718 9.70111 58.6444 10.1308 58.6444 10.6424V11.662C58.6444 12.1796 58.7718 12.6112 59.0272 12.957C59.2826 13.3036 59.6249 13.4764 60.0545 13.4764C60.4817 13.4764 60.8123 13.3612 61.0467 13.1307C61.2811 12.9002 61.3982 12.5819 61.3982 12.1757H62.1364L62.1367 12.176ZM66.922 8.91811H65.0938V14.0001H64.3243V8.91811H62.5V8.31261H66.922V8.91811ZM69.3516 10.9728L69.6368 11.7072H69.6602L70.9415 8.31281H71.836L69.8477 13.0668C69.6939 13.4075 69.5269 13.6624 69.3457 13.8304C69.1645 13.9984 68.8765 14.0824 68.4805 14.0824C68.4155 14.0824 68.3395 14.0784 68.252 14.0707C68.1645 14.063 68.1094 14.0551 68.086 14.0473L68.1055 13.4615C68.1315 13.4665 68.188 13.4703 68.2755 13.4732C68.363 13.4761 68.4282 13.477 68.4727 13.477C68.6577 13.477 68.7897 13.43 68.8692 13.3374C68.9488 13.2436 69.0377 13.0934 69.1368 12.8862L69.2931 12.5592L67.3869 8.31301H68.2501L69.3517 10.973L69.3516 10.9728ZM77.0938 14.0001H76.3204V8.91811H73.5548V14.0001H72.7853V8.31261H77.0939V14.0001H77.0938ZM82.8008 14.0001H82.0313V11.4884H79.2696V14.0001H78.5V8.31261H79.2695V10.8829H82.0312V8.31261H82.8007V14.0001H82.8008ZM88.5118 11.6641C88.5118 12.3595 88.2968 12.9367 87.8652 13.3947C87.4336 13.8527 86.875 14.0822 86.1875 14.0822C85.5235 14.0822 84.9845 13.8528 84.5685 13.3948C84.1525 12.9368 83.9455 12.3596 83.9455 11.6643V10.6527C83.9455 9.96031 84.1525 9.38321 84.5685 8.92221C84.9845 8.46121 85.5235 8.23071 86.1875 8.23071C86.875 8.23071 87.4335 8.46021 87.8652 8.92021C88.2969 9.38021 88.5117 9.95721 88.5117 10.6526V11.6643L88.5118 11.6641ZM87.7422 10.6446C87.7422 10.1241 87.6016 9.69641 87.3202 9.36331C87.0388 9.03021 86.6622 8.86331 86.1875 8.86331C85.7402 8.86331 85.3828 9.03031 85.1152 9.36331C84.8476 9.69631 84.7148 10.124 84.7148 10.6446V11.6641C84.7148 12.1905 84.8476 12.6201 85.1152 12.9531C85.3828 13.2861 85.7402 13.4531 86.1875 13.4531C86.6641 13.4531 87.043 13.2871 87.3223 12.9551C87.6016 12.6231 87.7423 12.1925 87.7423 11.6641V10.6446H87.7422ZM91.6484 14.0001V8.31261H93.5039C94.0976 8.31261 94.5624 8.44061 94.8983 8.69741C95.2342 8.95421 95.4023 9.33901 95.4023 9.85171C95.4023 10.1047 95.3221 10.3302 95.16 10.5294C94.9979 10.7286 94.787 10.8761 94.5234 10.9728C94.8672 11.046 95.1367 11.214 95.3339 11.4768C95.5311 11.7396 95.6287 12.046 95.6287 12.3948C95.6287 12.9152 95.4607 13.3136 95.1227 13.5881C94.7847 13.8626 94.3282 14.0001 93.75 14.0001H91.6484ZM92.418 10.7306H93.664C93.9512 10.7306 94.1836 10.6516 94.3633 10.4943C94.543 10.337 94.6328 10.1173 94.6328 9.83611C94.6328 9.52851 94.5351 9.29911 94.3418 9.14661C94.1485 8.99411 93.8691 8.91811 93.5038 8.91811H92.418V10.7306ZM92.418 11.336V13.3945H93.75C94.0996 13.3945 94.371 13.3085 94.5664 13.1357C94.7618 12.9629 94.8594 12.7187 94.8594 12.4023C94.8594 12.0703 94.7774 11.8095 94.6154 11.6201C94.4534 11.4307 94.2012 11.3361 93.8634 11.3361H92.418V11.336ZM55.7188 31.4611C55.4166 31.8936 54.9205 32.2851 54.2305 32.6368C53.5401 32.9884 52.6535 33.1641 51.5703 33.1641C50.2003 33.1641 49.0727 32.7305 48.1875 31.8633C47.3018 30.9961 46.8595 29.875 46.8595 28.5V26.125C46.8595 24.75 47.2775 23.6288 48.1133 22.7616C48.9491 21.8944 50.0283 21.4608 51.3516 21.4608C52.69 21.4608 53.7306 21.7898 54.4726 22.4491C55.2146 23.1084 55.5938 23.9658 55.6094 25.0234L55.5938 25.0704H53.7968C53.7548 24.4454 53.5323 23.9414 53.1288 23.5586C52.7251 23.1758 52.1406 22.9844 51.375 22.9844C50.5884 22.9844 49.954 23.2784 49.4727 23.8662C48.9907 24.4542 48.75 25.2012 48.75 26.1065V28.4952C48.75 29.4112 49.0117 30.1642 49.5352 30.755C50.0587 31.3458 50.7369 31.6407 51.5704 31.6407C52.1642 31.6407 52.6456 31.5723 53.0157 31.4347C53.3853 31.2969 53.6534 31.1337 53.8204 30.9473V28.6408H51.5626V27.2188H55.7189V31.4612L55.7188 31.4611ZM57.4531 28.6954C57.4531 27.4404 57.7971 26.4094 58.4845 25.6016C59.1823 24.794 60.1275 24.3906 61.3205 24.3906C62.5338 24.3906 63.4845 24.794 64.172 25.6016C64.8643 26.4034 65.211 27.4346 65.211 28.6954V28.8594C65.211 30.13 64.8643 31.1671 64.172 31.9689C63.4844 32.7659 62.539 33.1642 61.336 33.1642C60.1275 33.1642 59.1768 32.7629 58.4844 31.9612C57.7969 31.1594 57.4531 30.1252 57.4531 28.8596V28.6956V28.6954ZM59.3517 28.8556C59.3517 29.6769 59.5127 30.3478 59.8361 30.8683C60.1535 31.3829 60.6535 31.6408 61.3361 31.6408C61.9971 31.6408 62.4924 31.383 62.8205 30.8683C63.1535 30.3478 63.3205 29.6769 63.3205 28.8556V28.6916C63.3205 27.8858 63.1535 27.2226 62.8205 26.7022C62.4925 26.1769 61.9925 25.9142 61.3205 25.9142C60.6589 25.9142 60.1642 26.1769 59.8361 26.7022C59.5129 27.2277 59.3517 27.8908 59.3517 28.6916V28.8556ZM66.5157 28.6954C66.5157 27.4404 66.8595 26.4094 67.547 25.6016C68.2447 24.794 69.19 24.3906 70.3828 24.3906C71.5962 24.3906 72.5468 24.794 73.2344 25.6016C73.9268 26.4034 74.2734 27.4346 74.2734 28.6954V28.8594C74.2734 30.13 73.9268 31.1671 73.2344 31.9689C72.5469 32.7659 71.6016 33.1642 70.3984 33.1642C69.19 33.1642 68.2394 32.7629 67.5469 31.9612C66.8593 31.1594 66.5155 30.1252 66.5155 28.8596V28.6956L66.5157 28.6954ZM68.4142 28.8556C68.4142 29.6769 68.5754 30.3478 68.8987 30.8683C69.2161 31.3829 69.7161 31.6408 70.3987 31.6408C71.0597 31.6408 71.555 31.383 71.8831 30.8683C72.2161 30.3478 72.3831 29.6769 72.3831 28.8556V28.6916C72.3831 27.8858 72.2161 27.2226 71.8831 26.7022C71.5549 26.1769 71.0549 25.9142 70.3831 25.9142C69.7214 25.9142 69.2267 26.1769 68.8986 26.7022C68.5754 27.2277 68.4142 27.8908 68.4142 28.6916V28.8556ZM75.5862 28.8906C75.5862 27.5469 75.88 26.461 76.4689 25.6329C77.0569 24.8049 77.8752 24.3907 78.9219 24.3907C79.4269 24.3907 79.8712 24.4991 80.2539 24.7149C80.6366 24.9307 80.9609 25.2422 81.2267 25.6485L81.4142 24.5469H82.9922V33.0001C82.9922 34.0891 82.6564 34.9298 81.9845 35.5235C81.3126 36.1172 80.3595 36.4141 79.1251 36.4141C78.7129 36.4141 78.2695 36.3555 77.7931 36.2383C77.3167 36.1211 76.8848 35.9658 76.5001 35.7735L76.9063 34.2813C77.2188 34.4423 77.5635 34.5693 77.9415 34.6603C78.3185 34.751 78.7081 34.7969 79.1095 34.7969C79.797 34.7969 80.299 34.6494 80.6173 34.3555C80.9347 34.0615 81.0939 33.6095 81.0939 33V32.1327C80.8283 32.4717 80.5139 32.7274 80.1525 32.9022C79.7902 33.077 79.3752 33.1639 78.9065 33.1639C77.8693 33.1639 77.0568 32.7859 76.4689 32.0309C75.8799 31.2761 75.5861 30.2839 75.5861 29.0544V28.8904L75.5862 28.8906ZM77.4846 29.0548C77.4846 29.8312 77.6389 30.4523 77.9494 30.9181C78.259 31.3839 78.7394 31.6173 79.3908 31.6173C79.7971 31.6173 80.1388 31.5323 80.4181 31.3633C80.6963 31.1945 80.9219 30.9503 81.0938 30.6329V26.9299C80.9161 26.6222 80.6885 26.3819 80.4102 26.2071C80.131 26.0323 79.797 25.9454 79.4064 25.9454C78.755 25.9454 78.2716 26.2188 77.9572 26.7657C77.6418 27.3127 77.4845 28.0207 77.4845 28.8907V29.0547L77.4846 29.0548ZM87.0156 33.0001H85.1172V20.8126H87.0156V33.0001ZM92.7656 33.1641C91.5674 33.1641 90.6133 32.7726 89.9023 31.9884C89.1913 31.2042 88.8359 30.1984 88.8359 28.9689V28.6564C88.8359 27.4269 89.1883 26.4074 89.8944 25.5978C90.5994 24.7882 91.4842 24.3858 92.5467 24.3908C93.6873 24.3908 94.5604 24.7355 95.1677 25.426C95.7742 26.1163 96.078 27.042 96.078 28.2032V29.3204H90.8047L90.7891 29.3594C90.8205 30.0294 91.0167 30.5764 91.3791 31.0021C91.7403 31.4281 92.2423 31.6409 92.8829 31.6409C93.3927 31.6409 93.8302 31.5784 94.1954 31.4534C94.5597 31.3284 94.9112 31.1487 95.2501 30.9144L95.8595 32.1594C95.5411 32.4416 95.1193 32.6799 94.5939 32.8734C94.0675 33.0674 93.4581 33.1642 92.7657 33.1642L92.7656 33.1641ZM92.5469 25.9141C92.0779 25.9141 91.6923 26.1007 91.3905 26.4728C91.0878 26.8448 90.9003 27.3175 90.828 27.8908L90.8437 27.9298H94.1953V27.7346C94.1953 27.1986 94.0586 26.761 93.7851 26.4221C93.5116 26.0832 93.0987 25.9141 92.5471 25.9141H92.5469ZM103.734 28.6876V33.0001H101.836V21.6251H106.281C107.536 21.6251 108.52 21.9493 109.23 22.5978C109.941 23.2463 110.297 24.0988 110.297 25.1564C110.297 26.2238 109.941 27.0794 109.23 27.7228C108.519 28.3662 107.536 28.6876 106.281 28.6876H103.734H103.734ZM103.734 27.1642H106.281C106.984 27.1642 107.513 26.9768 107.867 26.6018C108.221 26.2268 108.398 25.7502 108.398 25.1721C108.398 24.594 108.221 24.1124 107.867 23.7267C107.513 23.341 106.984 23.1487 106.281 23.1487H103.734V27.1642ZM113.953 33.0001H112.055V20.8126H113.953V33.0001H113.953ZM121.164 33.0001C121.096 32.7861 121.04 32.5781 120.996 32.3751C120.951 32.1721 120.922 31.9688 120.906 31.7657C120.646 32.1612 120.303 32.4932 119.879 32.7617C119.454 33.0304 118.979 33.1641 118.453 33.1641C117.572 33.1641 116.897 32.9375 116.426 32.4844C115.954 32.0314 115.719 31.4092 115.719 30.6172C115.719 29.7999 116.041 29.1632 116.688 28.7072C117.333 28.251 118.242 28.0235 119.414 28.0235H120.891V27.2813C120.891 26.839 120.76 26.4923 120.5 26.2423C120.239 25.9923 119.867 25.8673 119.383 25.8673C118.95 25.8673 118.607 25.9718 118.352 26.1798C118.096 26.3878 117.969 26.6564 117.969 26.9845H116.141L116.133 26.9375C116.096 26.2705 116.395 25.6798 117.027 25.1642C117.66 24.6486 118.484 24.3907 119.5 24.3907C120.485 24.3907 121.279 24.6407 121.883 25.1407C122.487 25.6407 122.789 26.3595 122.789 27.297V31.0548C122.789 31.4034 122.813 31.7384 122.86 32.0588C122.907 32.3792 122.982 32.6925 123.086 33.0001H121.164H121.164ZM118.836 31.6407C119.314 31.6407 119.746 31.5207 120.129 31.2813C120.512 31.0419 120.766 30.7686 120.891 30.461V29.211H119.383C118.83 29.211 118.398 29.3476 118.086 29.621C117.773 29.8944 117.617 30.2158 117.617 30.586C117.617 30.909 117.723 31.165 117.934 31.3554C118.145 31.5458 118.445 31.6406 118.836 31.6406V31.6407ZM127.461 29.6095L127.648 30.4533H127.695L129.547 24.547H131.625L128.125 34.2813C127.9 34.8703 127.586 35.3721 127.18 35.7891C126.773 36.2061 126.197 36.4141 125.453 36.4141C125.297 36.4141 125.129 36.3986 124.949 36.3673C124.769 36.336 124.596 36.2999 124.43 36.2579L124.641 34.7891C124.708 34.7941 124.805 34.8018 124.93 34.8125C125.055 34.8232 125.148 34.8281 125.211 34.8281C125.555 34.8281 125.829 34.7109 126.035 34.4765C126.24 34.2421 126.408 33.9715 126.539 33.664L126.852 32.8983L123.781 24.5467H125.852L127.461 29.6094L127.461 29.6095Z" fill="white"/>
<path d="M13.4628 9.53695C13.172 9.84495 13 10.323 13 10.942V33.058C13 33.6777 13.172 34.155 13.4628 34.463L13.5368 34.535L25.9258 22.146V21.8538L13.5368 9.46436L13.4628 9.53706V9.53695Z" fill="url(#paint0_linear)"/>
<path d="M30.0552 26.2774L25.9258 22.146V21.8538L30.0562 17.7234L30.1492 17.7764L35.0422 20.5566C36.4397 21.3506 36.4397 22.6498 35.0422 23.4443L30.1492 26.2243L30.0552 26.2775V26.2774Z" fill="url(#paint1_linear)"/>
<path d="M30.1493 26.224L25.9258 22L13.4628 34.463C13.9236 34.9507 14.684 35.011 15.5408 34.5244L30.1493 26.2239" fill="url(#paint2_linear)"/>
<path d="M30.1493 17.7761L15.541 9.47577C14.684 8.98907 13.9236 9.04947 13.4628 9.53717L25.9258 22.0001L30.1493 17.7761Z" fill="url(#paint3_linear)"/>
<path opacity="0.2" d="M30.0562 26.1311L15.541 34.3784C14.729 34.8397 14.003 34.809 13.5373 34.3891L13.4628 34.4636L13.5368 34.5356L13.5373 34.5352C14.003 34.9552 14.7289 34.9864 15.5409 34.5246L30.1492 26.2242L30.0562 26.1312V26.1311Z" fill="black"/>
<path opacity="0.12" d="M13.4628 34.3173C13.172 34.0093 13 33.5316 13 32.9123V33.0585C13 33.6777 13.172 34.1555 13.4628 34.4635L13.5373 34.3889L13.4628 34.3172V34.3173ZM35.042 23.2978L30.0562 26.131L30.1492 26.224L35.0422 23.444C35.7407 23.047 36.0904 22.5237 36.0904 22.0005C36.0314 22.4735 35.6759 22.9377 35.0421 23.2978H35.042Z" fill="black"/>
<path opacity="0.25" d="M15.541 9.62237L35.042 20.7024C35.676 21.0624 36.0315 21.5262 36.0904 22.0002C36.0909 21.4772 35.7411 20.9534 35.0421 20.5564L15.5411 9.47637C14.1432 8.68207 13 9.34177 13 10.9426V11.0886C13 9.48797 14.1433 8.82827 15.541 9.62237Z" fill="white"/>
<defs>
<linearGradient id="paint0_linear" x1="24.8271" y1="10.7088" x2="8.0447" y2="27.4912" gradientUnits="userSpaceOnUse">
<stop stop-color="#00A0FF"/>
<stop offset="0.0066" stop-color="#00A1FF"/>
<stop offset="0.2601" stop-color="#00BEFF"/>
<stop offset="0.5122" stop-color="#00D2FF"/>
<stop offset="0.7604" stop-color="#00DFFF"/>
<stop offset="1" stop-color="#00E3FF"/>
</linearGradient>
<linearGradient id="paint1_linear" x1="36.8618" y1="22.0004" x2="12.6649" y2="22.0004" gradientUnits="userSpaceOnUse">
<stop stop-color="#FFE000"/>
<stop offset="0.4087" stop-color="#FFBD00"/>
<stop offset="0.7754" stop-color="#FFA500"/>
<stop offset="1" stop-color="#FF9C00"/>
</linearGradient>
<linearGradient id="paint2_linear" x1="27.8544" y1="24.2951" x2="5.09613" y2="47.0534" gradientUnits="userSpaceOnUse">
<stop stop-color="#FF3A44"/>
<stop offset="1" stop-color="#C31162"/>
</linearGradient>
<linearGradient id="paint3_linear" x1="10.3247" y1="2.17527" x2="20.4873" y2="12.3378" gradientUnits="userSpaceOnUse">
<stop stop-color="#32A071"/>
<stop offset="0.0685" stop-color="#2DA771"/>
<stop offset="0.4762" stop-color="#15CF74"/>
<stop offset="0.8009" stop-color="#06E775"/>
<stop offset="1" stop-color="#00F076"/>
</linearGradient>
</defs>
</svg>
