<svg width="511" height="593" viewBox="0 0 511 593" fill="none" xmlns="http://www.w3.org/2000/svg">
<path d="M112.251 266.572C127.951 304.776 163.756 308.044 163.756 308.044C163.756 308.044 92.6881 184.698 196.893 51.0616C257.55 211.055 392.526 174.167 447.636 308.268C476.297 378.01 456.286 455.467 403.412 503.271C402.34 504.311 401.42 504.989 400.349 506.028C419.65 478.615 425.071 442.22 411.372 408.888C400.519 382.478 380.077 354.614 346.034 330.841C372.869 381.553 340.798 408.519 340.798 408.519C340.798 408.519 320.543 302.354 223.21 275.519C259.532 366.09 191.464 407.55 223.603 485.754C237.407 519.343 267.214 541.56 300.726 547.269C298.721 547.494 296.972 547.613 294.861 547.582C223.908 550.666 155.214 509.663 126.658 440.177C108.007 394.793 101.065 335.606 112.251 266.572Z" fill="#F0E68A"/>
</svg>
