<svg width="128" height="198" viewBox="0 0 128 198" fill="none" xmlns="http://www.w3.org/2000/svg">
<mask id="mask0" mask-type="alpha" maskUnits="userSpaceOnUse" x="0" y="0" width="128" height="198">
<path fill-rule="evenodd" clip-rule="evenodd" d="M20 0C8.95431 0 0 8.95429 0 20V88.7429C0 94.2657 4.47715 98.7429 10 98.7429C4.47715 98.7429 0 103.22 0 108.743V177.486C0 188.531 8.95431 197.486 20 197.486H108C119.046 197.486 128 188.531 128 177.486V108.743C128 103.22 123.523 98.7429 118 98.7429C123.523 98.7429 128 94.2657 128 88.7429V20C128 8.95431 119.046 0 108 0H20Z" fill="url(#paint0_linear)"/>
</mask>
<g mask="url(#mask0)">
<line x1="-0.888672" y1="97.4371" x2="131.814" y2="97.4372" stroke="black" stroke-width="7" stroke-linecap="round"/>
</g>
<defs>
<linearGradient id="paint0_linear" x1="64.3657" y1="197.486" x2="64.3657" y2="-4.32111e-08" gradientUnits="userSpaceOnUse">
<stop stop-color="#141414"/>
<stop offset="1" stop-color="#373737"/>
</linearGradient>
</defs>
</svg>
